ISO-10303-21;
HEADER;
FILE_DESCRIPTION (( 'STEP AP214' ),
    '1' );
FILE_NAME ('Bottom spacer.STEP',
    '2025-12-15T14:11:15',
    ( '' ),
    ( '' ),
    'SwSTEP 2.0',
    'SolidWorks 2025',
    '' );
FILE_SCHEMA (( 'AUTOMOTIVE_DESIGN' ));
ENDSEC;

DATA;
#1 = CARTESIAN_POINT ( 'NONE',  ( -9.536176060422212331, 0.000000000000000000, -5.046879916835832702 ) ) ;
#2 = ADVANCED_FACE ( 'NONE', ( #417, #739, #207, #52 ), #340, .T. ) ;
#3 = VERTEX_POINT ( 'NONE', #794 ) ;
#4 = CIRCLE ( 'NONE', #622, 2.500000315477858059 ) ;
#5 = CARTESIAN_POINT ( 'NONE',  ( -5.524723203590326648, 1.000000000000000888, -10.24354863244697711 ) ) ;
#6 = CARTESIAN_POINT ( 'NONE',  ( 3.018231912797951111, 0.000000000000000000, -5.841188869266970229 ) ) ;
#7 = CARTESIAN_POINT ( 'NONE',  ( -4.895066292112333350, 1.000000000000000888, -10.65399400026256949 ) ) ;
#8 = DIRECTION ( 'NONE',  ( 0.000000000000000000, 0.000000000000000000, 1.000000000000000000 ) ) ;
#9 = ORIENTED_EDGE ( 'NONE', *, *, #55, .F. ) ;
#10 = CARTESIAN_POINT ( 'NONE',  ( -8.000000000000000000, 6.000000000000000000, 0.000000000000000000 ) ) ;
#11 = DIRECTION ( 'NONE',  ( -0.000000000000000000, -1.000000000000000000, -0.000000000000000000 ) ) ;
#12 = CARTESIAN_POINT ( 'NONE',  ( -9.670579226919668869, 0.000000000000000000, -4.699363105424130715 ) ) ;
#13 = CARTESIAN_POINT ( 'NONE',  ( 8.309156053706416047E-05, 1.000000000000000000, -6.999999370062417903 ) ) ;
#14 = ORIENTED_EDGE ( 'NONE', *, *, #114, .F. ) ;
#15 = CARTESIAN_POINT ( 'NONE',  ( -8.000000000000000000, 13.07106959750362485, 0.000000000000000000 ) ) ;
#16 = CARTESIAN_POINT ( 'NONE',  ( 0.000000000000000000, 1.000000000000000888, -12.00000063131842332 ) ) ;
#17 = CARTESIAN_POINT ( 'NONE',  ( 2.584325999248300310, 0.000000000000000000, -11.64013688361523791 ) ) ;
#18 = CIRCLE ( 'NONE', #910, 2.500000631318422428 ) ;
#19 = ORIENTED_EDGE ( 'NONE', *, *, #991, .T. ) ;
#20 = CARTESIAN_POINT ( 'NONE',  ( -2.510167712197714618, 0.000000000000000000, -6.221469906961984542 ) ) ;
#21 = DIRECTION ( 'NONE',  ( -0.000000000000000000, -1.000000000000000000, -0.000000000000000000 ) ) ;
#22 = COLOUR_RGB ( '',0.7921568627450980005, 0.8196078431372548767, 0.9333333333333333481 ) ;
#23 = CARTESIAN_POINT ( 'NONE',  ( -9.238611005058062986, 1.000000000000000888, -5.726270119976924811 ) ) ;
#24 = EDGE_LOOP ( 'NONE', ( #444, #316, #604, #815 ) ) ;
#25 = CARTESIAN_POINT ( 'NONE',  ( -3.162118205461780907, 1.000000000000000888, -5.715654696622435971 ) ) ;
#26 = CARTESIAN_POINT ( 'NONE',  ( 0.8275180089444889031, 0.000000000000000000, -6.938502046920370425 ) ) ;
#27 = CARTESIAN_POINT ( 'NONE',  ( 3.061617771010468151E-16, 6.000000000000000000, -6.999999368681577572 ) ) ;
#28 = CARTESIAN_POINT ( 'NONE',  ( 1.622903583116148685, 1.000000000000000888, -6.703092606365963491 ) ) ;
#29 = CARTESIAN_POINT ( 'NONE',  ( -5.356586527893155925, 0.000000000000000000, -1.630104980113234125 ) ) ;
#30 = CARTESIAN_POINT ( 'NONE',  ( -5.471516974596377203, 1.000000000000000888, -0.8178999945701421748 ) ) ;
#31 = AXIS2_PLACEMENT_3D ( 'NONE', #249, #561, #878 ) ;
#32 = EDGE_CURVE ( 'NONE', #923, #482, #375, .T. ) ;
#33 = CARTESIAN_POINT ( 'NONE',  ( -3.162118205461780907, 0.000000000000000000, -5.715654696622435971 ) ) ;
#34 = DIRECTION ( 'NONE',  ( 0.000000000000000000, 1.000000000000000000, 0.000000000000000000 ) ) ;
#35 = DIRECTION ( 'NONE',  ( -0.000000000000000000, -1.000000000000000000, -0.000000000000000000 ) ) ;
#36 = CIRCLE ( 'NONE', #985, 2.500000328059993837 ) ;
#37 = EDGE_CURVE ( 'NONE', #132, #703, #229, .T. ) ;
#38 = CARTESIAN_POINT ( 'NONE',  ( 2.693794607804870456, 0.000000000000000000, -6.094438625795506326 ) ) ;
#39 = AXIS2_PLACEMENT_3D ( 'NONE', #630, #613, #621 ) ;
#40 = CARTESIAN_POINT ( 'NONE',  ( -3.605869825397647332, 0.000000000000000000, -5.287272842732679834 ) ) ;
#41 = CARTESIAN_POINT ( 'NONE',  ( 1.959434878635765477E-16, 13.07106959750362485, -7.899999999999999467 ) ) ;
#42 = VERTEX_POINT ( 'NONE', #159 ) ;
#43 = CARTESIAN_POINT ( 'NONE',  ( -5.499913291335847276, 0.000000000000000000, -0.4105076079380310383 ) ) ;
#44 = ORIENTED_EDGE ( 'NONE', *, *, #402, .T. ) ;
#45 = CARTESIAN_POINT ( 'NONE',  ( -5.499913291335847276, 0.000000000000000000, -0.4105076079380310383 ) ) ;
#46 = CARTESIAN_POINT ( 'NONE',  ( -3.869037163426433779, 1.000000000000000888, -4.974763449339322463 ) ) ;
#47 = VERTEX_POINT ( 'NONE', #467 ) ;
#48 = CARTESIAN_POINT ( 'NONE',  ( 9.085314510874384908, 1.000000000000000888, -6.038841064491345278 ) ) ;
#49 = EDGE_LOOP ( 'NONE', ( #283, #836, #529, #203, #687, #761 ) ) ;
#50 = AXIS2_PLACEMENT_3D ( 'NONE', #458, #783, #704 ) ;
#51 = CARTESIAN_POINT ( 'NONE',  ( -3.907222565137841386, 0.000000000000000000, -11.14987783018130152 ) ) ;
#52 = FACE_OUTER_BOUND ( 'NONE', #628, .T. ) ;
#53 = AXIS2_PLACEMENT_3D ( 'NONE', #857, #845, #57 ) ;
#54 = CARTESIAN_POINT ( 'NONE',  ( 10.49999983791485114, 1.000000000000000888, -0.002438332365367818551 ) ) ;
#55 = EDGE_CURVE ( 'NONE', #141, #1007, #690, .T. ) ;
#56 = CARTESIAN_POINT ( 'NONE',  ( 3.962545395994085062, 0.000000000000000000, -11.12458353204228523 ) ) ;
#57 = DIRECTION ( 'NONE',  ( 0.000000000000000000, 0.000000000000000000, -1.000000000000000000 ) ) ;
#58 = CARTESIAN_POINT ( 'NONE',  ( 10.50000000077543838, 0.000000000000000000, -0.001222629589071696403 ) ) ;
#59 = CARTESIAN_POINT ( 'NONE',  ( 5.499735981486713499, 1.000000000000000888, -0.4141583174628524766 ) ) ;
#60 = CARTESIAN_POINT ( 'NONE',  ( -8.135077959936166891, 0.000000000000000000, -7.639552165312990972 ) ) ;
#61 =( NAMED_UNIT ( * ) PLANE_ANGLE_UNIT ( ) SI_UNIT ( $, .RADIAN. ) );
#62 = CARTESIAN_POINT ( 'NONE',  ( 9.674018174897774713, 1.000000000000000888, -4.690185112185016436 ) ) ;
#63 = DIRECTION ( 'NONE',  ( -0.000000000000000000, -1.000000000000000000, -0.000000000000000000 ) ) ;
#64 = VERTEX_POINT ( 'NONE', #609 ) ;
#65 = DIRECTION ( 'NONE',  ( -0.000000000000000000, -1.000000000000000000, -0.000000000000000000 ) ) ;
#66 = CARTESIAN_POINT ( 'NONE',  ( 0.000000000000000000, 6.000000000000000000, -9.500000000000000000 ) ) ;
#67 = CARTESIAN_POINT ( 'NONE',  ( 10.44009027089468766, 1.000000000000000888, -1.478888197873154065 ) ) ;
#68 = DIRECTION ( 'NONE',  ( 0.000000000000000000, 0.000000000000000000, 1.000000000000000000 ) ) ;
#69 = EDGE_CURVE ( 'NONE', #1007, #482, #894, .T. ) ;
#70 = CARTESIAN_POINT ( 'NONE',  ( 0.4220155761223010615, 1.000000000000000888, -6.998798951632180909 ) ) ;
#71 = ORIENTED_EDGE ( 'NONE', *, *, #505, .T. ) ;
#72 = DIRECTION ( 'NONE',  ( 0.000000000000000000, 0.000000000000000000, 1.000000000000000000 ) ) ;
#73 = CARTESIAN_POINT ( 'NONE',  ( -8.000000000000000000, 1.000000000000000000, 0.000000000000000000 ) ) ;
#74 = VECTOR ( 'NONE', #921, 1000.000000000000000 ) ;
#75 = CARTESIAN_POINT ( 'NONE',  ( 10.03000066432012183, 0.000000000000000000, -3.636966625903698347 ) ) ;
#76 = ORIENTED_EDGE ( 'NONE', *, *, #991, .F. ) ;
#77 = DIRECTION ( 'NONE',  ( 0.000000000000000000, 1.000000000000000000, 0.000000000000000000 ) ) ;
#78 = DIRECTION ( 'NONE',  ( -0.000000000000000000, -1.000000000000000000, -0.000000000000000000 ) ) ;
#79 = EDGE_CURVE ( 'NONE', #843, #552, #449, .T. ) ;
#80 = CARTESIAN_POINT ( 'NONE',  ( -9.238611005058062986, 0.000000000000000000, -5.726270119976924811 ) ) ;
#81 = CARTESIAN_POINT ( 'NONE',  ( 3.018231912797951111, 1.000000000000000888, -5.841188869266970229 ) ) ;
#82 = VERTEX_POINT ( 'NONE', #525 ) ;
#83 = DIRECTION ( 'NONE',  ( 0.000000000000000000, 0.000000000000000000, 1.000000000000000000 ) ) ;
#84 = VECTOR ( 'NONE', #273, 1000.000000000000000 ) ;
#85 = CARTESIAN_POINT ( 'NONE',  ( 3.172355075874639052, 0.000000000000000000, -5.706356925943670610 ) ) ;
#86 = CARTESIAN_POINT ( 'NONE',  ( -8.545059085261010878, 0.000000000000000000, -7.026737178143571683 ) ) ;
#87 = B_SPLINE_CURVE_WITH_KNOTS ( 'NONE', 3,
 ( #997, #1018, #212, #59, #1012, #933, #284, #854, #781, #305, #625, #832, #598, #208, #650, #865, #81, #321, #171, #786, #1027, #962, #70, #956, #557, #13 ),
 .UNSPECIFIED., .F., .F.,
 ( 4, 2, 2, 2, 2, 2, 2, 2, 2, 2, 2, 2, 4 ),
 ( 0.2498567275948675170, 0.2499999999999993894, 0.2812499999999993339, 0.2968749999999993339, 0.3124999999999993339, 0.3749999999999993339, 0.3906249999999993339, 0.4062499999999993339, 0.4218749999999993339, 0.4374999999999993339, 0.4687499999999993894, 0.4999999999999993339, 0.5003088182276166362 ),
 .UNSPECIFIED. ) ;
#88 = VERTEX_POINT ( 'NONE', #540 ) ;
#89 = VECTOR ( 'NONE', #253, 1000.000000000000000 ) ;
#90 = CARTESIAN_POINT ( 'NONE',  ( -9.075835464952941578, 1.000000000000000888, -6.057674585434098091 ) ) ;
#91 = PRESENTATION_LAYER_ASSIGNMENT (  '', '', ( #850 ) ) ;
#92 = ADVANCED_FACE ( 'NONE', ( #858 ), #442, .F. ) ;
#93 = CARTESIAN_POINT ( 'NONE',  ( -8.000000000000000000, 0.000000000000000000, 0.000000000000000000 ) ) ;
#94 = DIRECTION ( 'NONE',  ( 0.000000000000000000, 0.000000000000000000, 1.000000000000000000 ) ) ;
#95 = AXIS2_PLACEMENT_3D ( 'NONE', #248, #177, #68 ) ;
#96 = EDGE_LOOP ( 'NONE', ( #597, #697 ) ) ;
#97 = CARTESIAN_POINT ( 'NONE',  ( 5.499735981486713499, 1.000000000000000888, -0.4141583174628524766 ) ) ;
#98 = CARTESIAN_POINT ( 'NONE',  ( 10.49999968026097896, 2.999999999999999112, -6.951295193752107316E-06 ) ) ;
#99 = ADVANCED_FACE ( 'NONE', ( #884 ), #189, .F. ) ;
#100 = CARTESIAN_POINT ( 'NONE',  ( -5.524723203590326648, 1.000000000000000888, -10.24354863244697711 ) ) ;
#101 = CARTESIAN_POINT ( 'NONE',  ( 0.03284041553399224406, 0.000000000000000000, -11.99994161989750907 ) ) ;
#102 = CARTESIAN_POINT ( 'NONE',  ( -1.009838838191978505, 1.000000000000000888, -6.883573938702106432 ) ) ;
#103 = DIRECTION ( 'NONE',  ( 0.000000000000000000, 0.000000000000000000, 1.000000000000000000 ) ) ;
#104 = CARTESIAN_POINT ( 'NONE',  ( 0.7755417716664427807, 0.000000000000000000, -11.97482459543524769 ) ) ;
#105 = AXIS2_PLACEMENT_3D ( 'NONE', #498, #821, #434 ) ;
#106 = EDGE_LOOP ( 'NONE', ( #156, #734, #874, #323, #278, #890, #841 ) ) ;
#107 = CARTESIAN_POINT ( 'NONE',  ( 3.996389805603262513, 0.000000000000000000, -4.793699164916830568 ) ) ;
#108 = CARTESIAN_POINT ( 'NONE',  ( 10.50000000415565360, 0.000000000000000000, -6.951296094347223647E-06 ) ) ;
#109 = DIRECTION ( 'NONE',  ( 0.000000000000000000, 1.000000000000000000, 0.000000000000000000 ) ) ;
#110 = CARTESIAN_POINT ( 'NONE',  ( -5.356586527893155925, 0.000000000000000000, -1.630104980113234125 ) ) ;
#111 = DIRECTION ( 'NONE',  ( 0.000000000000000000, 0.000000000000000000, 1.000000000000000000 ) ) ;
#112 = CARTESIAN_POINT ( 'NONE',  ( -4.339036774445019340, 1.000000000000000888, -4.303317979936367443 ) ) ;
#113 = B_SPLINE_CURVE_WITH_KNOTS ( 'NONE', 3,
 ( #363, #822, #683, #198, #742, #830, #121, #913, #194, #506, #499, #989, #46, #112, #423, #746, #511, #662, #502, #30, #980, #348, #1000, #668 ),
 .UNSPECIFIED., .F., .F.,
 ( 4, 2, 2, 2, 2, 2, 2, 2, 2, 2, 2, 4 ),
 ( 0.5003088182276166362, 0.5156249999999993339, 0.5312499999999992228, 0.5624999999999992228, 0.5781249999999992228, 0.5937499999999991118, 0.6249999999999991118, 0.6562499999999992228, 0.6874999999999992228, 0.7187499999999992228, 0.7499999999999992228, 0.7500472925508198108 ),
 .UNSPECIFIED. ) ;
#114 = EDGE_CURVE ( 'NONE', #211, #3, #523, .T. ) ;
#115 = CARTESIAN_POINT ( 'NONE',  ( -3.005071060919619619, 1.000000000000000888, -5.852256862770428114 ) ) ;
#116 = CARTESIAN_POINT ( 'NONE',  ( -5.269262392170986686, 0.000000000000000000, -2.035969662655130463 ) ) ;
#117 = CARTESIAN_POINT ( 'NONE',  ( 8.000000000000000000, 6.000000000000000000, 2.500000631318421096 ) ) ;
#118 = CARTESIAN_POINT ( 'NONE',  ( -4.339036774445019340, 0.000000000000000000, -4.303317979936367443 ) ) ;
#119 = PRODUCT_DEFINITION_CONTEXT ( 'detailed design', #594, 'design' ) ;
#120 = DIRECTION ( 'NONE',  ( 0.000000000000000000, 1.000000000000000000, -0.000000000000000000 ) ) ;
#121 = CARTESIAN_POINT ( 'NONE',  ( -1.982782616040963175, 1.000000000000000888, -6.540016690629289364 ) ) ;
#122 = EDGE_LOOP ( 'NONE', ( #838, #327 ) ) ;
#123 = CARTESIAN_POINT ( 'NONE',  ( -5.499999934146180713, 1.000000000000000888, -0.001240573704554764163 ) ) ;
#124 = AXIS2_PLACEMENT_3D ( 'NONE', #714, #559, #875 ) ;
#125 = VERTEX_POINT ( 'NONE', #178 ) ;
#126 = CARTESIAN_POINT ( 'NONE',  ( -5.499999934145172631, 0.000000000000000000, -0.001240578466436842052 ) ) ;
#127 = CARTESIAN_POINT ( 'NONE',  ( -8.000000000000000000, 13.07106959750362485, 2.500000631318421096 ) ) ;
#128 = ORIENTED_EDGE ( 'NONE', *, *, #244, .F. ) ;
#129 = CARTESIAN_POINT ( 'NONE',  ( 0.000000000000000000, 6.000000000000000000, -12.00000063131842332 ) ) ;
#130 = CARTESIAN_POINT ( 'NONE',  ( -4.895066292112333350, 0.000000000000000000, -10.65399400026256949 ) ) ;
#131 = DIRECTION ( 'NONE',  ( 0.000000000000000000, 1.000000000000000000, -0.000000000000000000 ) ) ;
#132 = VERTEX_POINT ( 'NONE', #343 ) ;
#133 = VECTOR ( 'NONE', #754, 1000.000000000000000 ) ;
#134 = CARTESIAN_POINT ( 'NONE',  ( 6.414928607590036691, 1.000000000000000888, -9.517554988556812035 ) ) ;
#135 = VERTEX_POINT ( 'NONE', #206 ) ;
#136 = CARTESIAN_POINT ( 'NONE',  ( -0.7051916428148951033, 0.000000000000000000, -12.00256561193822691 ) ) ;
#137 = CARTESIAN_POINT ( 'NONE',  ( 8.000000000000000000, 13.07106959750362485, 0.000000000000000000 ) ) ;
#138 = CIRCLE ( 'NONE', #547, 1.600000000000001865 ) ;
#139 = CARTESIAN_POINT ( 'NONE',  ( 10.50000000415565360, 0.000000000000000000, -6.951293736661296393E-06 ) ) ;
#140 = CARTESIAN_POINT ( 'NONE',  ( 3.962545395994085062, 1.000000000000000888, -11.12458353204228523 ) ) ;
#141 = VERTEX_POINT ( 'NONE', #27 ) ;
#142 = CARTESIAN_POINT ( 'NONE',  ( 5.500000278514980856, 1.000000000000000888, -1.704671552567005142E-05 ) ) ;
#143 = FACE_OUTER_BOUND ( 'NONE', #122, .T. ) ;
#144 = DIRECTION ( 'NONE',  ( -0.000000000000000000, -1.000000000000000000, -0.000000000000000000 ) ) ;
#145 = CARTESIAN_POINT ( 'NONE',  ( 10.44009027089468766, 1.000000000000000888, -1.478888197873154065 ) ) ;
#146 = CARTESIAN_POINT ( 'NONE',  ( 10.49999983791485114, 0.000000000000000000, -0.002438332365371125368 ) ) ;
#147 = FACE_BOUND ( 'NONE', #367, .T. ) ;
#148 = CARTESIAN_POINT ( 'NONE',  ( 9.246195650324780857, 1.000000000000000888, -5.709984211095229689 ) ) ;
#149 = VERTEX_POINT ( 'NONE', #202 ) ;
#150 = CARTESIAN_POINT ( 'NONE',  ( -10.20274168105784263, 0.000000000000000000, -2.936550601345009781 ) ) ;
#151 = APPLICATION_PROTOCOL_DEFINITION ( 'draft international standard', 'automotive_design', 1998, #195 ) ;
#152 = VECTOR ( 'NONE', #205, 1000.000000000000000 ) ;
#153 = LINE ( 'NONE', #460, #723 ) ;
#154 = CARTESIAN_POINT ( 'NONE',  ( 6.685802305891703767, 0.000000000000000000, -9.271029473083745032 ) ) ;
#155 = CARTESIAN_POINT ( 'NONE',  ( -8.000000000000000000, 0.000000000000000000, 0.000000000000000000 ) ) ;
#156 = ORIENTED_EDGE ( 'NONE', *, *, #165, .F. ) ;
#157 = FACE_OUTER_BOUND ( 'NONE', #49, .T. ) ;
#158 = CARTESIAN_POINT ( 'NONE',  ( 5.499999393348744547, 0.000000000000000000, -0.003763281332039584894 ) ) ;
#159 = CARTESIAN_POINT ( 'NONE',  ( 0.000000000000000000, 6.000000000000000000, -11.09999999999999964 ) ) ;
#160 = ORIENTED_EDGE ( 'NONE', *, *, #664, .F. ) ;
#161 = CARTESIAN_POINT ( 'NONE',  ( -3.907222565137841386, 1.000000000000000888, -11.14987783018130152 ) ) ;
#162 = CARTESIAN_POINT ( 'NONE',  ( 5.471179013169685135, 0.000000000000000000, -0.8202718517362281858 ) ) ;
#163 = CARTESIAN_POINT ( 'NONE',  ( -2.519406308149578777, 0.000000000000000000, -11.65883085367924110 ) ) ;
#164 = DIRECTION ( 'NONE',  ( -0.000000000000000000, -1.000000000000000000, -0.000000000000000000 ) ) ;
#165 = EDGE_CURVE ( 'NONE', #88, #256, #113, .T. ) ;
#166 = ORIENTED_EDGE ( 'NONE', *, *, #347, .F. ) ;
#167 = DIRECTION ( 'NONE',  ( 0.000000000000000000, -0.000000000000000000, 1.000000000000000000 ) ) ;
#168 = CIRCLE ( 'NONE', #716, 2.500000631318421096 ) ;
#169 = DIRECTION ( 'NONE',  ( 0.000000000000000000, 0.000000000000000000, 1.000000000000000000 ) ) ;
#170 = CARTESIAN_POINT ( 'NONE',  ( -6.669181016294101205, 1.000000000000000888, -9.312983779800539708 ) ) ;
#171 = CARTESIAN_POINT ( 'NONE',  ( 2.522674169099231367, 1.000000000000000888, -6.213197923264572431 ) ) ;
#172 = ORIENTED_EDGE ( 'NONE', *, *, #877, .F. ) ;
#173 = CIRCLE ( 'NONE', #481, 2.500000631318421096 ) ;
#174 = DIRECTION ( 'NONE',  ( 0.000000000000000000, 0.000000000000000000, 1.000000000000000000 ) ) ;
#175 = ADVANCED_FACE ( 'NONE', ( #430 ), #269, .T. ) ;
#176 = CARTESIAN_POINT ( 'NONE',  ( 4.923326169898398774, 0.000000000000000000, -3.212488541385532415 ) ) ;
#177 = DIRECTION ( 'NONE',  ( 0.000000000000000000, 1.000000000000000000, -0.000000000000000000 ) ) ;
#178 = CARTESIAN_POINT ( 'NONE',  ( 8.000000000000000000, 6.000000000000000000, -2.500000631318421096 ) ) ;
#179 = AXIS2_PLACEMENT_3D ( 'NONE', #709, #77, #83 ) ;
#180 = ORIENTED_EDGE ( 'NONE', *, *, #347, .T. ) ;
#181 = CARTESIAN_POINT ( 'NONE',  ( 5.263350216612317389, 0.000000000000000000, -2.028213969412615558 ) ) ;
#182 = CARTESIAN_POINT ( 'NONE',  ( 5.500000278514980856, 2.999999999999999112, -1.704671552567005142E-05 ) ) ;
#183 = EDGE_CURVE ( 'NONE', #256, #516, #590, .T. ) ;
#184 = CARTESIAN_POINT ( 'NONE',  ( -3.907222565137841386, 1.000000000000000888, -11.14987783018130152 ) ) ;
#185 = ORIENTED_EDGE ( 'NONE', *, *, #451, .T. ) ;
#186 = CARTESIAN_POINT ( 'NONE',  ( -1.600300296026362146, 0.000000000000000000, -6.711585498657679061 ) ) ;
#187 = CARTESIAN_POINT ( 'NONE',  ( 10.50000063130875816, 1.000000000000000000, -6.951297828258072308E-06 ) ) ;
#188 = VECTOR ( 'NONE', #627, 1000.000000000000000 ) ;
#189 = CYLINDRICAL_SURFACE ( 'NONE', #31, 1.600000000000000755 ) ;
#190 = AXIS2_PLACEMENT_3D ( 'NONE', #911, #34, #111 ) ;
#191 = CARTESIAN_POINT ( 'NONE',  ( 3.172355075874639052, 1.000000000000000888, -5.706356925943670610 ) ) ;
#192 = CARTESIAN_POINT ( 'NONE',  ( 0.000000000000000000, 1.000000000000000888, -9.500000000000000000 ) ) ;
#193 = EDGE_CURVE ( 'NONE', #125, #235, #168, .T. ) ;
#194 = CARTESIAN_POINT ( 'NONE',  ( -2.679296832099068659, 1.000000000000000888, -6.104889903365974035 ) ) ;
#195 = APPLICATION_CONTEXT ( 'automotive_design' ) ;
#196 = CARTESIAN_POINT ( 'NONE',  ( 3.018231912797951111, 0.000000000000000000, -5.841188869266970229 ) ) ;
#197 = CARTESIAN_POINT ( 'NONE',  ( -1.982782616040963175, 0.000000000000000000, -6.540016690629289364 ) ) ;
#198 = CARTESIAN_POINT ( 'NONE',  ( -0.8093758335873666443, 1.000000000000000888, -6.927337864460266559 ) ) ;
#199 = CARTESIAN_POINT ( 'NONE',  ( -3.605869825397647332, 0.000000000000000000, -5.287272842732679834 ) ) ;
#200 = EDGE_CURVE ( 'NONE', #47, #806, #210, .T. ) ;
#201 = CARTESIAN_POINT ( 'NONE',  ( -3.162118205461780907, 0.000000000000000000, -5.715654696622435971 ) ) ;
#202 = CARTESIAN_POINT ( 'NONE',  ( -8.000000000000000000, 6.000000000000000000, 1.600000000000000089 ) ) ;
#203 = ORIENTED_EDGE ( 'NONE', *, *, #183, .F. ) ;
#204 = CARTESIAN_POINT ( 'NONE',  ( -4.546228914269300425, 0.000000000000000000, -3.941969482909252420 ) ) ;
#205 = DIRECTION ( 'NONE',  ( -0.000000000000000000, -1.000000000000000000, -0.000000000000000000 ) ) ;
#206 = CARTESIAN_POINT ( 'NONE',  ( 8.000000000000000000, 0.000000000000000000, 2.500000328059993837 ) ) ;
#207 = FACE_BOUND ( 'NONE', #96, .T. ) ;
#208 = CARTESIAN_POINT ( 'NONE',  ( 3.605298225344404361, 1.000000000000000888, -5.272029189298429230 ) ) ;
#209 = CARTESIAN_POINT ( 'NONE',  ( 8.560654481966940565, 0.000000000000000000, -7.001172518388175448 ) ) ;
#210 = LINE ( 'NONE', #41, #84 ) ;
#211 = VERTEX_POINT ( 'NONE', #984 ) ;
#212 = CARTESIAN_POINT ( 'NONE',  ( 5.499999393348744547, 1.000000000000000888, -0.003763281332039584894 ) ) ;
#213 = ORIENTED_EDGE ( 'NONE', *, *, #265, .T. ) ;
#214 = CARTESIAN_POINT ( 'NONE',  ( 8.000000000000000000, 13.07106959750362485, 0.000000000000000000 ) ) ;
#215 = CARTESIAN_POINT ( 'NONE',  ( 0.000000000000000000, 13.07106959750362485, -12.00000063131842154 ) ) ;
#216 = AXIS2_PLACEMENT_3D ( 'NONE', #904, #358, #826 ) ;
#217 = CARTESIAN_POINT ( 'NONE',  ( -5.499999999152770158, 1.000000000000000888, -0.0006221263002504384167 ) ) ;
#218 = CARTESIAN_POINT ( 'NONE',  ( -3.569510833401821071, 0.000000000000000000, -11.29639672734994704 ) ) ;
#219 =( LENGTH_UNIT ( ) NAMED_UNIT ( * ) SI_UNIT ( .MILLI., .METRE. ) );
#220 = EDGE_CURVE ( 'NONE', #787, #487, #663, .T. ) ;
#221 = AXIS2_PLACEMENT_3D ( 'NONE', #954, #1031, #642 ) ;
#222 = CARTESIAN_POINT ( 'NONE',  ( 9.540326727377239635, 1.000000000000000888, -5.036330245683756424 ) ) ;
#223 = AXIS2_PLACEMENT_3D ( 'NONE', #66, #313, #303 ) ;
#224 = CARTESIAN_POINT ( 'NONE',  ( -5.499999998240476806, 0.000000000000000000, -3.669393216386955067E-06 ) ) ;
#225 = ADVANCED_FACE ( 'NONE', ( #580 ), #760, .T. ) ;
#226 = ORIENTED_EDGE ( 'NONE', *, *, #733, .F. ) ;
#227 = FACE_OUTER_BOUND ( 'NONE', #936, .T. ) ;
#228 = DIRECTION ( 'NONE',  ( 0.000000000000000000, 1.000000000000000000, 0.000000000000000000 ) ) ;
#229 = LINE ( 'NONE', #381, #747 ) ;
#230 = CARTESIAN_POINT ( 'NONE',  ( -5.471516974596377203, 1.000000000000000888, -0.8178999945701421748 ) ) ;
#231 = VERTEX_POINT ( 'NONE', #834 ) ;
#232 = CARTESIAN_POINT ( 'NONE',  ( 5.567555122179086879, 0.000000000000000000, -10.21266409334464953 ) ) ;
#233 = DIRECTION ( 'NONE',  ( 0.000000000000000000, 0.000000000000000000, -1.000000000000000000 ) ) ;
#234 = CARTESIAN_POINT ( 'NONE',  ( 7.204755359862652142, 1.000000000000000888, -8.748811927668301180 ) ) ;
#235 = VERTEX_POINT ( 'NONE', #117 ) ;
#236 = CYLINDRICAL_SURFACE ( 'NONE', #835, 2.500000631318421096 ) ;
#237 = CIRCLE ( 'NONE', #105, 1.600000000000000755 ) ;
#238 = FACE_BOUND ( 'NONE', #729, .T. ) ;
#239 = DIRECTION ( 'NONE',  ( 0.000000000000000000, 0.000000000000000000, 1.000000000000000000 ) ) ;
#240 = EDGE_LOOP ( 'NONE', ( #947, #412, #301, #591 ) ) ;
#241 = CARTESIAN_POINT ( 'NONE',  ( 5.499999393348744547, 1.000000000000000888, -0.003763281332039584894 ) ) ;
#242 = FACE_OUTER_BOUND ( 'NONE', #106, .T. ) ;
#243 = CARTESIAN_POINT ( 'NONE',  ( 2.584325999248300310, 1.000000000000000888, -11.64013688361523791 ) ) ;
#244 = EDGE_CURVE ( 'NONE', #521, #776, #426, .T. ) ;
#245 = ORIENTED_EDGE ( 'NONE', *, *, #959, .T. ) ;
#246 = CARTESIAN_POINT ( 'NONE',  ( -1.446191476536261789, 1.000000000000001110, -11.91514583176508246 ) ) ;
#247 = CARTESIAN_POINT ( 'NONE',  ( 3.996389805603262513, 0.000000000000000000, -4.793699164916830568 ) ) ;
#248 = CARTESIAN_POINT ( 'NONE',  ( 0.000000000000000000, 1.000000000000000000, -9.500000000000000000 ) ) ;
#249 = CARTESIAN_POINT ( 'NONE',  ( 0.000000000000000000, 13.07106959750362485, -9.500000000000000000 ) ) ;
#250 = LINE ( 'NONE', #967, #354 ) ;
#251 = ORIENTED_EDGE ( 'NONE', *, *, #220, .T. ) ;
#252 = CARTESIAN_POINT ( 'NONE',  ( 5.385498417725778530, 0.000000000000000000, -1.425795032384962635 ) ) ;
#253 = DIRECTION ( 'NONE',  ( -0.000000000000000000, -1.000000000000000000, -0.000000000000000000 ) ) ;
#254 = CARTESIAN_POINT ( 'NONE',  ( -9.536176060422212331, 1.000000000000000888, -5.046879916835832702 ) ) ;
#255 = MANIFOLD_SOLID_BREP ( 'Cut-Extrude3', #615 ) ;
#256 = VERTEX_POINT ( 'NONE', #379 ) ;
#257 = CARTESIAN_POINT ( 'NONE',  ( 5.499999975256552709, 0.000000000000000000, -1.704671410548614822E-05 ) ) ;
#258 = ADVANCED_FACE ( 'NONE', ( #699 ), #751, .F. ) ;
#259 = LINE ( 'NONE', #98, #581 ) ;
#260 = CARTESIAN_POINT ( 'NONE',  ( 1.511015349438133981, 0.000000000000000000, -11.88323800565323651 ) ) ;
#261 = ORIENTED_EDGE ( 'NONE', *, *, #585, .F. ) ;
#262 = CARTESIAN_POINT ( 'NONE',  ( 0.4220155761223010615, 0.000000000000000000, -6.998798951632180909 ) ) ;
#263 = CARTESIAN_POINT ( 'NONE',  ( -2.679296832099068659, 0.000000000000000000, -6.104889903365974035 ) ) ;
#264 = CARTESIAN_POINT ( 'NONE',  ( -10.49999914905596832, 0.000000000000000000, -0.7359638186501908930 ) ) ;
#265 = EDGE_CURVE ( 'NONE', #141, #923, #670, .T. ) ;
#266 = CARTESIAN_POINT ( 'NONE',  ( -5.269262392170986686, 1.000000000000000888, -2.035969662655130463 ) ) ;
#267 = UNCERTAINTY_MEASURE_WITH_UNIT (LENGTH_MEASURE( 1.000000000000000082E-05 ), #219, 'distance_accuracy_value', 'NONE');
#268 = LINE ( 'NONE', #501, #684 ) ;
#269 = PLANE ( 'NONE',  #439 ) ;
#270 = CARTESIAN_POINT ( 'NONE',  ( 3.605298225344404361, 0.000000000000000000, -5.272029189298429230 ) ) ;
#271 = AXIS2_PLACEMENT_3D ( 'NONE', #868, #555, #731 ) ;
#272 = DIRECTION ( 'NONE',  ( 0.000000000000000000, 1.000000000000000000, -0.000000000000000000 ) ) ;
#273 = DIRECTION ( 'NONE',  ( -0.000000000000000000, -1.000000000000000000, -0.000000000000000000 ) ) ;
#274 = ADVANCED_FACE ( 'NONE', ( #1004 ), #518, .F. ) ;
#275 = CARTESIAN_POINT ( 'NONE',  ( -0.4007047150011339709, 1.000000000000000888, -6.986021196211630091 ) ) ;
#276 = CARTESIAN_POINT ( 'NONE',  ( -2.510167712197714618, 0.000000000000000000, -6.221469906961984542 ) ) ;
#277 = CARTESIAN_POINT ( 'NONE',  ( 0.000000000000000000, 1.000000000000000000, 0.000000000000000000 ) ) ;
#278 = ORIENTED_EDGE ( 'NONE', *, *, #824, .T. ) ;
#279 = ADVANCED_FACE ( 'NONE', ( #1015 ), #607, .F. ) ;
#280 = CARTESIAN_POINT ( 'NONE',  ( -1.009838838191978505, 0.000000000000000000, -6.883573938702106432 ) ) ;
#281 = DIRECTION ( 'NONE',  ( -0.000000000000000000, -1.000000000000000000, -0.000000000000000000 ) ) ;
#282 = DIRECTION ( 'NONE',  ( 0.000000000000000000, -0.000000000000000000, 1.000000000000000000 ) ) ;
#283 = ORIENTED_EDGE ( 'NONE', *, *, #360, .F. ) ;
#284 = CARTESIAN_POINT ( 'NONE',  ( 5.349759145252581227, 1.000000000000000888, -1.627024985997544748 ) ) ;
#285 = CARTESIAN_POINT ( 'NONE',  ( -5.524723203590326648, 0.000000000000000000, -10.24354863244697711 ) ) ;
#286 = CARTESIAN_POINT ( 'NONE',  ( -5.500000311956138255, 2.999999999999999112, -3.683678840162555247E-06 ) ) ;
#287 = ORIENTED_EDGE ( 'NONE', *, *, #701, .T. ) ;
#288 = CARTESIAN_POINT ( 'NONE',  ( 5.567555122179086879, 1.000000000000000888, -10.21266409334464953 ) ) ;
#289 = ORIENTED_EDGE ( 'NONE', *, *, #720, .T. ) ;
#290 = CARTESIAN_POINT ( 'NONE',  ( -10.02614842180791932, 0.000000000000000000, -3.650312595988312481 ) ) ;
#291 = DIRECTION ( 'NONE',  ( 0.000000000000000000, 0.000000000000000000, -1.000000000000000000 ) ) ;
#292 = B_SPLINE_SURFACE_WITH_KNOTS ( 'NONE', 3, 1, ( 
 ( #317, #257 ),
 ( #636, #953 ),
 ( #241, #404 ),
 ( #97, #553 ),
 ( #801, #646 ),
 ( #964, #252 ),
 ( #333, #564 ),
 ( #652, #181 ),
 ( #488, #812 ),
 ( #337, #992 ),
 ( #427, #665 ),
 ( #420, #107 ),
 ( #424, #752 ),
 ( #974, #270 ),
 ( #341, #816 ),
 ( #191, #418 ),
 ( #744, #196 ),
 ( #492, #38 ),
 ( #671, #987 ),
 ( #982, #820 ),
 ( #28, #500 ),
 ( #344, #656 ),
 ( #355, #262 ),
 ( #676, #827 ),
 ( #275, #588 ),
 ( #909, #583 ),
 ( #102, #280 ),
 ( #891, #186 ),
 ( #902, #740 ),
 ( #905, #20 ),
 ( #578, #823 ),
 ( #115, #748 ),
 ( #25, #33 ),
 ( #349, #199 ),
 ( #659, #574 ),
 ( #503, #118 ),
 ( #592, #204 ),
 ( #508, #413 ),
 ( #735, #977 ),
 ( #266, #895 ),
 ( #497, #110 ),
 ( #230, #520 ),
 ( #769, #43 ),
 ( #123, #300 ),
 ( #217, #437 ),
 ( #695, #224 ) ),
 .UNSPECIFIED., .F., .F., .F.,
 ( 4, 2, 2, 2, 2, 2, 2, 2, 2, 2, 2, 2, 2, 2, 2, 2, 2, 2, 2, 2, 2, 2, 4 ),
 ( 2, 2 ),
 ( 0.2498567275948675170, 0.2499999999999993894, 0.2812499999999993339, 0.2968749999999993339, 0.3124999999999993339, 0.3749999999999993339, 0.3906249999999993339, 0.4062499999999993339, 0.4218749999999993339, 0.4374999999999993339, 0.4687499999999993894, 0.4999999999999993339, 0.5156249999999993339, 0.5312499999999992228, 0.5624999999999992228, 0.5781249999999992228, 0.5937499999999991118, 0.6249999999999991118, 0.6562499999999992228, 0.6874999999999992228, 0.7187499999999992228, 0.7499999999999992228, 0.7500472929149684109 ),
 ( 0.000000000000000000, 1.000000000000000000 ),
 .UNSPECIFIED. ) ;
#293 = CARTESIAN_POINT ( 'NONE',  ( 10.49999983791485114, 0.000000000000000000, -0.002438332364585187213 ) ) ;
#294 = CARTESIAN_POINT ( 'NONE',  ( 0.02193520713988369661, 1.000000000000000888, -11.99998039216993639 ) ) ;
#295 = ADVANCED_FACE ( 'NONE', ( #765 ), #447, .F. ) ;
#296 = ORIENTED_EDGE ( 'NONE', *, *, #69, .F. ) ;
#297 = CARTESIAN_POINT ( 'NONE',  ( 9.085314510874384908, 0.000000000000000000, -6.038841064491345278 ) ) ;
#298 = DIRECTION ( 'NONE',  ( -0.000000000000000000, -1.000000000000000000, -0.000000000000000000 ) ) ;
#299 = DIRECTION ( 'NONE',  ( -0.000000000000000000, -1.000000000000000000, -0.000000000000000000 ) ) ;
#300 = CARTESIAN_POINT ( 'NONE',  ( -5.499999934146180713, 0.000000000000000000, -0.001240573704554764163 ) ) ;
#301 = ORIENTED_EDGE ( 'NONE', *, *, #720, .F. ) ;
#302 = CARTESIAN_POINT ( 'NONE',  ( 0.000000000000000000, 0.000000000000000000, -11.09999999999999964 ) ) ;
#303 = DIRECTION ( 'NONE',  ( 0.000000000000000000, 0.000000000000000000, 1.000000000000000000 ) ) ;
#304 = CARTESIAN_POINT ( 'NONE',  ( 0.000000000000000000, 1.000000000000000888, -9.500000000000000000 ) ) ;
#305 = CARTESIAN_POINT ( 'NONE',  ( 4.923326169898398774, 1.000000000000000888, -3.212488541385532415 ) ) ;
#306 = EDGE_LOOP ( 'NONE', ( #914, #468, #855, #408 ) ) ;
#307 = CARTESIAN_POINT ( 'NONE',  ( 7.454267363263923585, 0.000000000000000000, -8.471245689429917292 ) ) ;
#308 = CIRCLE ( 'NONE', #513, 1.600000000000000089 ) ;
#309 = DIRECTION ( 'NONE',  ( -0.000000000000000000, -1.000000000000000000, -0.000000000000000000 ) ) ;
#310 = CARTESIAN_POINT ( 'NONE',  ( 7.454267363263923585, 1.000000000000000888, -8.471245689429917292 ) ) ;
#311 = VERTEX_POINT ( 'NONE', #623 ) ;
#312 = DIRECTION ( 'NONE',  ( 0.000000000000000000, 1.000000000000000000, 0.000000000000000000 ) ) ;
#313 = DIRECTION ( 'NONE',  ( 0.000000000000000000, 1.000000000000000000, 0.000000000000000000 ) ) ;
#314 = CARTESIAN_POINT ( 'NONE',  ( 5.567555122179086879, 1.000000000000000888, -10.21266409334464953 ) ) ;
#315 = DIRECTION ( 'NONE',  ( -0.000000000000000000, -1.000000000000000000, -0.000000000000000000 ) ) ;
#316 = ORIENTED_EDGE ( 'NONE', *, *, #1010, .T. ) ;
#317 = CARTESIAN_POINT ( 'NONE',  ( 5.499999975256552709, 1.000000000000000888, -1.704671410548614822E-05 ) ) ;
#318 = CIRCLE ( 'NONE', #415, 1.600000000000000089 ) ;
#319 = CARTESIAN_POINT ( 'NONE',  ( 5.349759145252581227, 0.000000000000000000, -1.627024985997544748 ) ) ;
#320 = CARTESIAN_POINT ( 'NONE',  ( 0.4018564447085880564, 0.000000000000000000, -11.99862962387714660 ) ) ;
#321 = CARTESIAN_POINT ( 'NONE',  ( 2.693794607804870456, 1.000000000000000888, -6.094438625795506326 ) ) ;
#322 = AXIS2_PLACEMENT_3D ( 'NONE', #374, #545, #385 ) ;
#323 = ORIENTED_EDGE ( 'NONE', *, *, #696, .T. ) ;
#324 = CARTESIAN_POINT ( 'NONE',  ( 0.0001298399924399457636, 1.000000000000000888, -12.00000062794673639 ) ) ;
#325 = CARTESIAN_POINT ( 'NONE',  ( 2.693794607804870456, 0.000000000000000000, -6.094438625795506326 ) ) ;
#326 = CARTESIAN_POINT ( 'NONE',  ( -10.49999914905596832, 1.000000000000000888, -0.7359638186501908930 ) ) ;
#327 = ORIENTED_EDGE ( 'NONE', *, *, #877, .T. ) ;
#328 = DIRECTION ( 'NONE',  ( -0.000000000000000000, -1.000000000000000000, -0.000000000000000000 ) ) ;
#329 = CARTESIAN_POINT ( 'NONE',  ( 0.000000000000000000, 13.07106959750362485, -11.09999999999999964 ) ) ;
#330 = CARTESIAN_POINT ( 'NONE',  ( 0.4018564447085880564, 1.000000000000000888, -11.99862962387714660 ) ) ;
#331 = EDGE_CURVE ( 'NONE', #42, #47, #496, .T. ) ;
#332 = ORIENTED_EDGE ( 'NONE', *, *, #570, .T. ) ;
#333 = CARTESIAN_POINT ( 'NONE',  ( 5.349759145252581227, 1.000000000000000888, -1.627024985997544748 ) ) ;
#334 = CARTESIAN_POINT ( 'NONE',  ( -8.000000000000000000, 0.000000000000000000, 1.600000000000000089 ) ) ;
#335 = CARTESIAN_POINT ( 'NONE',  ( -3.907222565137841386, 0.000000000000000000, -11.14987783018130152 ) ) ;
#336 = ORIENTED_EDGE ( 'NONE', *, *, #701, .F. ) ;
#337 = CARTESIAN_POINT ( 'NONE',  ( 4.923326169898398774, 1.000000000000000888, -3.212488541385532415 ) ) ;
#338 = DIRECTION ( 'NONE',  ( 0.000000000000000000, 1.000000000000000000, 0.000000000000000000 ) ) ;
#339 = CARTESIAN_POINT ( 'NONE',  ( -10.02614842180791932, 1.000000000000000888, -3.650312595988312481 ) ) ;
#340 = PLANE ( 'NONE',  #1030 ) ;
#341 = CARTESIAN_POINT ( 'NONE',  ( 3.465891816929385083, 1.000000000000000888, -5.421780720147950206 ) ) ;
#342 = CARTESIAN_POINT ( 'NONE',  ( -0.1926548194723080309, 0.000000000000000000, -7.000574023956841252 ) ) ;
#343 = CARTESIAN_POINT ( 'NONE',  ( -8.000000000000000000, 6.000000000000000000, -2.500000631318421096 ) ) ;
#344 = CARTESIAN_POINT ( 'NONE',  ( 0.8275180089444889031, 1.000000000000000888, -6.938502046920370425 ) ) ;
#345 = CARTESIAN_POINT ( 'NONE',  ( -5.499999999151769181, 0.000000000000000000, -0.0006221358241614574017 ) ) ;
#346 = VECTOR ( 'NONE', #299, 1000.000000000000000 ) ;
#347 = EDGE_CURVE ( 'NONE', #135, #311, #638, .T. ) ;
#348 = CARTESIAN_POINT ( 'NONE',  ( -5.499999934145172631, 1.000000000000000888, -0.001240578466436842052 ) ) ;
#349 = CARTESIAN_POINT ( 'NONE',  ( -3.605869825397647332, 1.000000000000000888, -5.287272842732679834 ) ) ;
#350 = AXIS2_PLACEMENT_3D ( 'NONE', #975, #272, #504 ) ;
#351 = CARTESIAN_POINT ( 'NONE',  ( 1.995606210307311112, 0.000000000000000000, -6.533632375821743388 ) ) ;
#352 = AXIS2_PLACEMENT_3D ( 'NONE', #532, #298, #291 ) ;
#353 = FILL_AREA_STYLE ('',( #678 ) ) ;
#354 = VECTOR ( 'NONE', #164, 1000.000000000000000 ) ;
#355 = CARTESIAN_POINT ( 'NONE',  ( 0.4220155761223010615, 1.000000000000000888, -6.998798951632180909 ) ) ;
#356 = UNCERTAINTY_MEASURE_WITH_UNIT (LENGTH_MEASURE( 1.000000000000000082E-05 ), #510, 'distance_accuracy_value', 'NONE');
#357 = CARTESIAN_POINT ( 'NONE',  ( -5.038453937012159933, 0.000000000000000000, -2.820314126744672301 ) ) ;
#358 = DIRECTION ( 'NONE',  ( 0.000000000000000000, 1.000000000000000000, -0.000000000000000000 ) ) ;
#359 = ORIENTED_EDGE ( 'NONE', *, *, #380, .F. ) ;
#360 = EDGE_CURVE ( 'NONE', #521, #132, #900, .T. ) ;
#361 = CARTESIAN_POINT ( 'NONE',  ( 2.584325999248300310, 1.000000000000000888, -11.64013688361523791 ) ) ;
#362 = CARTESIAN_POINT ( 'NONE',  ( -0.4007047150011339709, 0.000000000000000000, -6.986021196211630091 ) ) ;
#363 = CARTESIAN_POINT ( 'NONE',  ( 8.309156053706416047E-05, 1.000000000000000000, -6.999999370062417903 ) ) ;
#364 = ORIENTED_EDGE ( 'NONE', *, *, #587, .T. ) ;
#365 = CIRCLE ( 'NONE', #494, 1.600000000000000089 ) ;
#366 = CARTESIAN_POINT ( 'NONE',  ( 10.50000063130875816, 1.000000000000000000, -6.951297828258072308E-06 ) ) ;
#367 = EDGE_LOOP ( 'NONE', ( #14, #917 ) ) ;
#368 = CARTESIAN_POINT ( 'NONE',  ( -8.545059085261010878, 0.000000000000000000, -7.026737178143571683 ) ) ;
#369 = MECHANICAL_DESIGN_GEOMETRIC_PRESENTATION_REPRESENTATION (  '', ( #850 ), #533 ) ;
#370 = CARTESIAN_POINT ( 'NONE',  ( 3.962545395994085062, 0.000000000000000000, -11.12458353204228523 ) ) ;
#371 = ADVANCED_FACE ( 'NONE', ( #147, #143 ), #454, .T. ) ;
#372 = CARTESIAN_POINT ( 'NONE',  ( 10.50000000077543838, 1.000000000000000888, -0.001222629590636922867 ) ) ;
#373 = CARTESIAN_POINT ( 'NONE',  ( -8.000000000000000000, 6.000000000000000000, 0.000000000000000000 ) ) ;
#374 = CARTESIAN_POINT ( 'NONE',  ( 0.000000000000000000, 6.000000000000000000, -9.500000000000000000 ) ) ;
#375 = LINE ( 'NONE', #215, #346 ) ;
#376 = CARTESIAN_POINT ( 'NONE',  ( 7.454267363263923585, 1.000000000000000888, -8.471245689429917292 ) ) ;
#377 = ORIENTED_EDGE ( 'NONE', *, *, #756, .F. ) ;
#378 = DIRECTION ( 'NONE',  ( 0.000000000000000000, 0.000000000000000000, -1.000000000000000000 ) ) ;
#379 = CARTESIAN_POINT ( 'NONE',  ( -5.500000311956138255, 1.000000000000000888, -3.683678840162555247E-06 ) ) ;
#380 = EDGE_CURVE ( 'NONE', #149, #491, #153, .T. ) ;
#381 = CARTESIAN_POINT ( 'NONE',  ( -8.000000000000000000, 13.07106959750362485, -2.500000631318421096 ) ) ;
#382 = CARTESIAN_POINT ( 'NONE',  ( 10.03000066432012183, 1.000000000000000888, -3.636966625903698347 ) ) ;
#383 = ORIENTED_EDGE ( 'NONE', *, *, #554, .F. ) ;
#384 = CARTESIAN_POINT ( 'NONE',  ( 2.934342888565748542, 0.000000000000000000, -11.53168849008528696 ) ) ;
#385 = DIRECTION ( 'NONE',  ( 0.000000000000000000, 0.000000000000000000, 1.000000000000000000 ) ) ;
#386 = CARTESIAN_POINT ( 'NONE',  ( 8.560654481966940565, 0.000000000000000000, -7.001172518388175448 ) ) ;
#387 = ORIENTED_EDGE ( 'NONE', *, *, #932, .T. ) ;
#388 = CARTESIAN_POINT ( 'NONE',  ( -10.49999914905596832, 1.000000000000000888, -0.7359638186501908930 ) ) ;
#389 = CIRCLE ( 'NONE', #885, 2.500000315477858059 ) ;
#390 = DIRECTION ( 'NONE',  ( 0.000000000000000000, 1.000000000000000000, -0.000000000000000000 ) ) ;
#391 = CARTESIAN_POINT ( 'NONE',  ( 9.540326727377239635, 0.000000000000000000, -5.036330245683756424 ) ) ;
#392 = CARTESIAN_POINT ( 'NONE',  ( 3.061617771010468151E-16, 1.000000000000000888, -6.999999368681577572 ) ) ;
#393 = ORIENTED_EDGE ( 'NONE', *, *, #743, .F. ) ;
#394 = CARTESIAN_POINT ( 'NONE',  ( -10.49999999963562658, 1.000000000000000888, -2.889350586251427255E-06 ) ) ;
#395 = CARTESIAN_POINT ( 'NONE',  ( 5.499735981486713499, 0.000000000000000000, -0.4141583174628524766 ) ) ;
#396 = CARTESIAN_POINT ( 'NONE',  ( -0.7051916428148951033, 1.000000000000000888, -12.00256561193822691 ) ) ;
#397 = ORIENTED_EDGE ( 'NONE', *, *, #183, .T. ) ;
#398 = CARTESIAN_POINT ( 'NONE',  ( -3.569510833401821071, 1.000000000000000888, -11.29639672734994704 ) ) ;
#399 = CARTESIAN_POINT ( 'NONE',  ( 5.499999988029112608, 0.000000000000000000, -0.001890216670787110871 ) ) ;
#400 = CARTESIAN_POINT ( 'NONE',  ( -10.20274168105784263, 1.000000000000000888, -2.936550601345009781 ) ) ;
#401 = AXIS2_PLACEMENT_3D ( 'NONE', #840, #131, #103 ) ;
#402 = EDGE_CURVE ( 'NONE', #82, #757, #173, .T. ) ;
#403 = ORIENTED_EDGE ( 'NONE', *, *, #431, .F. ) ;
#404 = CARTESIAN_POINT ( 'NONE',  ( 5.499999393348744547, 0.000000000000000000, -0.003763281332039584894 ) ) ;
#405 = CARTESIAN_POINT ( 'NONE',  ( -8.000000000000000000, 6.000000000000000000, 2.500000631318421096 ) ) ;
#406 = EDGE_CURVE ( 'NONE', #88, #1007, #446, .T. ) ;
#407 = CARTESIAN_POINT ( 'NONE',  ( -10.20274168105784263, 0.000000000000000000, -2.936550601345009781 ) ) ;
#408 = ORIENTED_EDGE ( 'NONE', *, *, #979, .F. ) ;
#409 = CARTESIAN_POINT ( 'NONE',  ( -6.669181016294101205, 1.000000000000000888, -9.312983779800539708 ) ) ;
#410 = FACE_OUTER_BOUND ( 'NONE', #635, .T. ) ;
#411 = CARTESIAN_POINT ( 'NONE',  ( -3.569510833401821071, 0.000000000000000000, -11.29639672734994704 ) ) ;
#412 = ORIENTED_EDGE ( 'NONE', *, *, #200, .T. ) ;
#413 = CARTESIAN_POINT ( 'NONE',  ( -4.894788254288685359, 0.000000000000000000, -3.201867658351858381 ) ) ;
#414 = LINE ( 'NONE', #565, #899 ) ;
#415 = AXIS2_PLACEMENT_3D ( 'NONE', #373, #1008, #72 ) ;
#416 = CARTESIAN_POINT ( 'NONE',  ( -8.545059085261010878, 1.000000000000000888, -7.026737178143571683 ) ) ;
#417 = FACE_BOUND ( 'NONE', #675, .T. ) ;
#418 = CARTESIAN_POINT ( 'NONE',  ( 3.172355075874639052, 0.000000000000000000, -5.706356925943670610 ) ) ;
#419 = CARTESIAN_POINT ( 'NONE',  ( 10.50000000077543838, 0.000000000000000000, -0.001222629590643526526 ) ) ;
#420 = CARTESIAN_POINT ( 'NONE',  ( 3.996389805603262513, 1.000000000000000888, -4.793699164916830568 ) ) ;
#421 = EDGE_CURVE ( 'NONE', #256, #703, #722, .T. ) ;
#422 = CARTESIAN_POINT ( 'NONE',  ( -0.8093758335873666443, 0.000000000000000000, -6.927337864460266559 ) ) ;
#423 = CARTESIAN_POINT ( 'NONE',  ( -4.546228914269300425, 1.000000000000000888, -3.941969482909252420 ) ) ;
#424 = CARTESIAN_POINT ( 'NONE',  ( 3.870238625396473342, 1.000000000000000888, -4.958462514997507675 ) ) ;
#425 = CARTESIAN_POINT ( 'NONE',  ( -1.600300296026362146, 0.000000000000000000, -6.711585498657679061 ) ) ;
#426 = LINE ( 'NONE', #127, #915 ) ;
#427 = CARTESIAN_POINT ( 'NONE',  ( 4.584313342547322812, 1.000000000000000888, -3.949230373506586567 ) ) ;
#428 = AXIS2_PLACEMENT_3D ( 'NONE', #489, #78, #737 ) ;
#429 = CARTESIAN_POINT ( 'NONE',  ( 2.522674169099231367, 0.000000000000000000, -6.213197923264572431 ) ) ;
#430 = FACE_OUTER_BOUND ( 'NONE', #782, .T. ) ;
#431 = EDGE_CURVE ( 'NONE', #491, #957, #934, .T. ) ;
#432 = ORIENTED_EDGE ( 'NONE', *, *, #440, .T. ) ;
#433 = FACE_OUTER_BOUND ( 'NONE', #24, .T. ) ;
#434 = DIRECTION ( 'NONE',  ( 0.000000000000000000, 0.000000000000000000, 1.000000000000000000 ) ) ;
#435 = SURFACE_SIDE_STYLE ('',( #819 ) ) ;
#436 = DIRECTION ( 'NONE',  ( 0.000000000000000000, -1.000000000000000000, 0.000000000000000000 ) ) ;
#437 = CARTESIAN_POINT ( 'NONE',  ( -5.499999999152770158, 0.000000000000000000, -0.0006221263002504384167 ) ) ;
#438 = CARTESIAN_POINT ( 'NONE',  ( -1.435514372653784454, 0.000000000000000000, -11.91769583533104537 ) ) ;
#439 = AXIS2_PLACEMENT_3D ( 'NONE', #277, #109, #282 ) ;
#440 = EDGE_CURVE ( 'NONE', #64, #957, #414, .T. ) ;
#441 = ORIENTED_EDGE ( 'NONE', *, *, #459, .T. ) ;
#442 = B_SPLINE_SURFACE_WITH_KNOTS ( 'NONE', 3, 1, ( 
 ( #624, #139 ),
 ( #847, #58 ),
 ( #780, #293 ),
 ( #706, #790 ),
 ( #67, #694 ),
 ( #632, #1011 ),
 ( #617, #75 ),
 ( #62, #931 ),
 ( #222, #391 ),
 ( #148, #534 ),
 ( #785, #551 ),
 ( #1016, #386 ),
 ( #853, #1022 ),
 ( #310, #946 ),
 ( #234, #546 ),
 ( #863, #154 ),
 ( #711, #1026 ),
 ( #314, #951 ),
 ( #455, #869 ),
 ( #471, #370 ),
 ( #1005, #976 ),
 ( #971, #893 ),
 ( #243, #17 ),
 ( #717, #654 ),
 ( #814, #260 ),
 ( #572, #104 ),
 ( #330, #320 ),
 ( #396, #889 ),
 ( #486, #724 ),
 ( #955, #163 ),
 ( #810, #738 ),
 ( #648, #411 ),
 ( #184, #335 ),
 ( #7, #728 ),
 ( #100, #490 ),
 ( #170, #732 ),
 ( #799, #495 ),
 ( #556, #476 ),
 ( #416, #86 ),
 ( #966, #639 ),
 ( #23, #80 ),
 ( #254, #1 ),
 ( #873, #12 ),
 ( #339, #658 ),
 ( #400, #407 ),
 ( #643, #566 ),
 ( #326, #264 ),
 ( #576, #961 ) ),
 .UNSPECIFIED., .F., .F., .F.,
 ( 4, 2, 2, 2, 2, 2, 2, 2, 2, 2, 2, 2, 2, 2, 2, 2, 2, 2, 2, 2, 2, 2, 2, 4 ),
 ( 2, 2 ),
 ( 0.2499488221145889644, 0.2499999999999989453, 0.2812499999999988898, 0.3124999999999987788, 0.3281249999999987788, 0.3437499999999987232, 0.3749999999999986677, 0.3906249999999986122, 0.4062499999999986122, 0.4374999999999985012, 0.4531249999999985567, 0.4687499999999985567, 0.4843749999999986122, 0.4999999999999985567, 0.5312499999999985567, 0.5468749999999986677, 0.5624999999999986677, 0.5937499999999986677, 0.6249999999999986677, 0.6562499999999987788, 0.6718749999999987788, 0.6874999999999987788, 0.7187499999999990008, 0.7499891142737986627 ),
 ( 0.000000000000000000, 1.000000000000000000 ),
 .UNSPECIFIED. ) ;
#443 = CARTESIAN_POINT ( 'NONE',  ( 0.4018564447085880564, 1.000000000000000888, -11.99862962387714660 ) ) ;
#444 = ORIENTED_EDGE ( 'NONE', *, *, #942, .F. ) ;
#445 = CARTESIAN_POINT ( 'NONE',  ( -9.536176060422212331, 0.000000000000000000, -5.046879916835832702 ) ) ;
#446 = CIRCLE ( 'NONE', #669, 2.500000631318422428 ) ;
#447 = CYLINDRICAL_SURFACE ( 'NONE', #53, 1.600000000000000089 ) ;
#448 = AXIS2_PLACEMENT_3D ( 'NONE', #616, #228, #930 ) ;
#449 = LINE ( 'NONE', #461, #981 ) ;
#450 = CARTESIAN_POINT ( 'NONE',  ( 1.511015349438133981, 1.000000000000000888, -11.88323800565323651 ) ) ;
#451 = EDGE_CURVE ( 'NONE', #619, #866, #259, .T. ) ;
#452 = ORIENTED_EDGE ( 'NONE', *, *, #37, .T. ) ;
#453 = CYLINDRICAL_SURFACE ( 'NONE', #766, 2.500000631318421096 ) ;
#454 = PLANE ( 'NONE',  #582 ) ;
#455 = CARTESIAN_POINT ( 'NONE',  ( 4.956760800592901361, 1.000000000000000888, -10.61736609097811979 ) ) ;
#456 = CARTESIAN_POINT ( 'NONE',  ( 3.622896473634930725, 1.000000000000000888, -11.27419933637646920 ) ) ;
#457 = ORIENTED_EDGE ( 'NONE', *, *, #55, .T. ) ;
#458 = CARTESIAN_POINT ( 'NONE',  ( 0.000000000000000000, 6.000000000000000000, -9.500000000000000000 ) ) ;
#459 = EDGE_CURVE ( 'NONE', #516, #776, #4, .T. ) ;
#460 = CARTESIAN_POINT ( 'NONE',  ( -8.000000000000000000, 13.07106959750362485, 1.600000000000000089 ) ) ;
#461 = CARTESIAN_POINT ( 'NONE',  ( -10.49999999963562658, 2.999999999999999112, -2.889350586251427255E-06 ) ) ;
#462 = AXIS2_PLACEMENT_3D ( 'NONE', #978, #993, #988 ) ;
#463 = ORIENTED_EDGE ( 'NONE', *, *, #32, .F. ) ;
#464 = CARTESIAN_POINT ( 'NONE',  ( 2.584325999248300310, 0.000000000000000000, -11.64013688361523791 ) ) ;
#465 = DIRECTION ( 'NONE',  ( 0.000000000000000000, 1.000000000000000000, -0.000000000000000000 ) ) ;
#466 = AXIS2_PLACEMENT_3D ( 'NONE', #601, #994, #898 ) ;
#467 = CARTESIAN_POINT ( 'NONE',  ( 1.959434878635764984E-16, 6.000000000000000000, -7.899999999999999467 ) ) ;
#468 = ORIENTED_EDGE ( 'NONE', *, *, #942, .T. ) ;
#469 = CARTESIAN_POINT ( 'NONE',  ( -2.876665621630543512, 1.000000000000000888, -11.55063419507986211 ) ) ;
#470 = CARTESIAN_POINT ( 'NONE',  ( 5.499999975256552709, 0.000000000000000000, -1.704671759349434660E-05 ) ) ;
#471 = CARTESIAN_POINT ( 'NONE',  ( 3.962545395994085062, 1.000000000000000888, -11.12458353204228523 ) ) ;
#472 = ORIENTED_EDGE ( 'NONE', *, *, #824, .F. ) ;
#473 = FACE_BOUND ( 'NONE', #568, .T. ) ;
#474 = CARTESIAN_POINT ( 'NONE',  ( 4.584313342547322812, 0.000000000000000000, -3.949230373506586567 ) ) ;
#475 = ADVANCED_FACE ( 'NONE', ( #238, #410 ), #813, .T. ) ;
#476 = CARTESIAN_POINT ( 'NONE',  ( -8.135077959936166891, 0.000000000000000000, -7.639552165312990972 ) ) ;
#477 = ORIENTED_EDGE ( 'NONE', *, *, #881, .F. ) ;
#478 = FACE_OUTER_BOUND ( 'NONE', #990, .T. ) ;
#479 = FACE_OUTER_BOUND ( 'NONE', #685, .T. ) ;
#480 = CARTESIAN_POINT ( 'NONE',  ( 8.000000000000000000, 6.000000000000000000, 0.000000000000000000 ) ) ;
#481 = AXIS2_PLACEMENT_3D ( 'NONE', #705, #465, #1020 ) ;
#482 = VERTEX_POINT ( 'NONE', #16 ) ;
#483 = CARTESIAN_POINT ( 'NONE',  ( -10.02614842180791932, 1.000000000000000888, -3.650312595988312481 ) ) ;
#484 = CARTESIAN_POINT ( 'NONE',  ( 3.870238625396473342, 0.000000000000000000, -4.958462514997507675 ) ) ;
#485 = AXIS2_PLACEMENT_3D ( 'NONE', #807, #797, #167 ) ;
#486 = CARTESIAN_POINT ( 'NONE',  ( -1.435514372653784454, 1.000000000000000888, -11.91769583533104537 ) ) ;
#487 = VERTEX_POINT ( 'NONE', #965 ) ;
#488 = CARTESIAN_POINT ( 'NONE',  ( 5.212435780217543169, 1.000000000000000888, -2.228843264896993137 ) ) ;
#489 = CARTESIAN_POINT ( 'NONE',  ( -8.000000000000000000, 13.07106959750362485, 0.000000000000000000 ) ) ;
#490 = CARTESIAN_POINT ( 'NONE',  ( -5.524723203590326648, 0.000000000000000000, -10.24354863244697711 ) ) ;
#491 = VERTEX_POINT ( 'NONE', #334 ) ;
#492 = CARTESIAN_POINT ( 'NONE',  ( 2.693794607804870456, 1.000000000000000888, -6.094438625795506326 ) ) ;
#493 = CARTESIAN_POINT ( 'NONE',  ( -8.000000000000000000, 1.000000000000000000, -2.500000631318421096 ) ) ;
#494 = AXIS2_PLACEMENT_3D ( 'NONE', #509, #833, #759 ) ;
#495 = CARTESIAN_POINT ( 'NONE',  ( -7.190264876957575879, 0.000000000000000000, -8.791091934297307731 ) ) ;
#496 = CIRCLE ( 'NONE', #322, 1.600000000000000755 ) ;
#497 = CARTESIAN_POINT ( 'NONE',  ( -5.356586527893155925, 1.000000000000000888, -1.630104980113234125 ) ) ;
#498 = CARTESIAN_POINT ( 'NONE',  ( 0.000000000000000000, 0.000000000000000000, -9.500000000000000000 ) ) ;
#499 = CARTESIAN_POINT ( 'NONE',  ( -3.162118205461780907, 1.000000000000000888, -5.715654696622435971 ) ) ;
#500 = CARTESIAN_POINT ( 'NONE',  ( 1.622903583116148685, 0.000000000000000000, -6.703092606365963491 ) ) ;
#501 = CARTESIAN_POINT ( 'NONE',  ( 8.000000000000000000, 13.07106959750362485, 2.500000631318421096 ) ) ;
#502 = CARTESIAN_POINT ( 'NONE',  ( -5.356586527893155925, 1.000000000000000888, -1.630104980113234125 ) ) ;
#503 = CARTESIAN_POINT ( 'NONE',  ( -4.339036774445019340, 1.000000000000000888, -4.303317979936367443 ) ) ;
#504 = DIRECTION ( 'NONE',  ( 0.000000000000000000, 0.000000000000000000, 1.000000000000000000 ) ) ;
#505 = EDGE_CURVE ( 'NONE', #866, #135, #36, .T. ) ;
#506 = CARTESIAN_POINT ( 'NONE',  ( -3.005071060919619619, 1.000000000000000888, -5.852256862770428114 ) ) ;
#507 = ORIENTED_EDGE ( 'NONE', *, *, #193, .F. ) ;
#508 = CARTESIAN_POINT ( 'NONE',  ( -4.894788254288685359, 1.000000000000000888, -3.201867658351858381 ) ) ;
#509 = CARTESIAN_POINT ( 'NONE',  ( -8.000000000000000000, 0.000000000000000000, 0.000000000000000000 ) ) ;
#510 =( LENGTH_UNIT ( ) NAMED_UNIT ( * ) SI_UNIT ( .MILLI., .METRE. ) );
#511 = CARTESIAN_POINT ( 'NONE',  ( -5.038453937012159933, 1.000000000000000888, -2.820314126744672301 ) ) ;
#512 = ORIENTED_EDGE ( 'NONE', *, *, #79, .F. ) ;
#513 = AXIS2_PLACEMENT_3D ( 'NONE', #10, #312, #174 ) ;
#514 = CYLINDRICAL_SURFACE ( 'NONE', #972, 1.600000000000001865 ) ;
#515 = B_SPLINE_CURVE_WITH_KNOTS ( 'NONE', 3,
 ( #108, #419, #146, #620, #944, #626, #543, #856, #918, #698, #297, #209, #999, #307, #517, #688, #600, #232, #1014, #56, #852, #384, #464, #929, #839, #682, #861, #136, #438, #764, #937, #218, #51, #130, #285, #1003, #538, #60, #368, #693, #777, #445, #844, #290, #150, #606, #530, #924 ),
 .UNSPECIFIED., .F., .F.,
 ( 4, 2, 2, 2, 2, 2, 2, 2, 2, 2, 2, 2, 2, 2, 2, 2, 2, 2, 2, 2, 2, 2, 2, 4 ),
 ( 0.2499488221146220490, 0.2499999999999989453, 0.2812499999999988898, 0.3124999999999987788, 0.3281249999999987788, 0.3437499999999987232, 0.3749999999999986677, 0.3906249999999986122, 0.4062499999999986122, 0.4374999999999985012, 0.4531249999999985567, 0.4687499999999985567, 0.4843749999999986122, 0.4999999999999985567, 0.5312499999999985567, 0.5468749999999986677, 0.5624999999999986677, 0.5937499999999986677, 0.6249999999999986677, 0.6562499999999987788, 0.6718749999999987788, 0.6874999999999987788, 0.7187499999999990008, 0.7499891142737986627 ),
 .UNSPECIFIED. ) ;
#516 = VERTEX_POINT ( 'NONE', #637 ) ;
#517 = CARTESIAN_POINT ( 'NONE',  ( 7.204755359862652142, 0.000000000000000000, -8.748811927668301180 ) ) ;
#518 = CYLINDRICAL_SURFACE ( 'NONE', #935, 1.600000000000000089 ) ;
#519 = ORIENTED_EDGE ( 'NONE', *, *, #406, .F. ) ;
#520 = CARTESIAN_POINT ( 'NONE',  ( -5.471516974596377203, 0.000000000000000000, -0.8178999945701421748 ) ) ;
#521 = VERTEX_POINT ( 'NONE', #405 ) ;
#522 = DIRECTION ( 'NONE',  ( 0.000000000000000000, 1.000000000000000000, -0.000000000000000000 ) ) ;
#523 = CIRCLE ( 'NONE', #763, 1.600000000000001865 ) ;
#524 = DIRECTION ( 'NONE',  ( -0.000000000000000000, -1.000000000000000000, -0.000000000000000000 ) ) ;
#525 = CARTESIAN_POINT ( 'NONE',  ( 8.000000000000000000, 1.000000000000000000, -2.500000631318421096 ) ) ;
#526 = ADVANCED_FACE ( 'NONE', ( #479 ), #793, .T. ) ;
#527 = PRODUCT_DEFINITION_SHAPE ( 'NONE', 'NONE',  #614 ) ;
#528 = CARTESIAN_POINT ( 'NONE',  ( 1.872661202614679832, 1.000000000000000888, -11.81590800982335310 ) ) ;
#529 = ORIENTED_EDGE ( 'NONE', *, *, #459, .F. ) ;
#530 = CARTESIAN_POINT ( 'NONE',  ( -10.49999914905596832, 0.000000000000000000, -0.7359638186501908930 ) ) ;
#531 = AXIS2_PLACEMENT_3D ( 'NONE', #970, #338, #802 ) ;
#532 = CARTESIAN_POINT ( 'NONE',  ( 0.000000000000000000, 13.07106959750362485, -9.500000000000000000 ) ) ;
#533 =( GEOMETRIC_REPRESENTATION_CONTEXT ( 3 ) GLOBAL_UNCERTAINTY_ASSIGNED_CONTEXT ( ( #267 ) ) GLOBAL_UNIT_ASSIGNED_CONTEXT ( ( #219, #61, #925 ) ) REPRESENTATION_CONTEXT ( 'NONE', 'WORKASPACE' ) );
#534 = CARTESIAN_POINT ( 'NONE',  ( 9.246195650324780857, 0.000000000000000000, -5.709984211095229689 ) ) ;
#535 = CARTESIAN_POINT ( 'NONE',  ( 4.956760800592901361, 1.000000000000000888, -10.61736609097811979 ) ) ;
#536 = AXIS2_PLACEMENT_3D ( 'NONE', #712, #541, #8 ) ;
#537 = EDGE_LOOP ( 'NONE', ( #359, #599, #432, #403 ) ) ;
#538 = CARTESIAN_POINT ( 'NONE',  ( -7.190264876957575879, 0.000000000000000000, -8.791091934297307731 ) ) ;
#539 = DIRECTION ( 'NONE',  ( -0.000000000000000000, -1.000000000000000000, -0.000000000000000000 ) ) ;
#540 = CARTESIAN_POINT ( 'NONE',  ( 8.309156053706416047E-05, 1.000000000000000000, -6.999999370062417903 ) ) ;
#541 = DIRECTION ( 'NONE',  ( 0.000000000000000000, 1.000000000000000000, 0.000000000000000000 ) ) ;
#542 = EDGE_LOOP ( 'NONE', ( #1013, #811, #332, #336 ) ) ;
#543 = CARTESIAN_POINT ( 'NONE',  ( 10.03000066432012183, 0.000000000000000000, -3.636966625903698347 ) ) ;
#544 = ADVANCED_FACE ( 'NONE', ( #242 ), #647, .T. ) ;
#545 = DIRECTION ( 'NONE',  ( 0.000000000000000000, 1.000000000000000000, 0.000000000000000000 ) ) ;
#546 = CARTESIAN_POINT ( 'NONE',  ( 7.204755359862652142, 0.000000000000000000, -8.748811927668301180 ) ) ;
#547 = AXIS2_PLACEMENT_3D ( 'NONE', #892, #660, #666 ) ;
#548 = ORIENTED_EDGE ( 'NONE', *, *, #554, .T. ) ;
#549 = DIRECTION ( 'NONE',  ( 0.000000000000000000, 0.000000000000000000, -1.000000000000000000 ) ) ;
#550 = LINE ( 'NONE', #329, #89 ) ;
#551 = CARTESIAN_POINT ( 'NONE',  ( 9.085314510874384908, 0.000000000000000000, -6.038841064491345278 ) ) ;
#552 = VERTEX_POINT ( 'NONE', #727 ) ;
#553 = CARTESIAN_POINT ( 'NONE',  ( 5.499735981486713499, 0.000000000000000000, -0.4141583174628524766 ) ) ;
#554 = EDGE_CURVE ( 'NONE', #757, #311, #721, .T. ) ;
#555 = DIRECTION ( 'NONE',  ( 0.000000000000000000, 1.000000000000000000, 0.000000000000000000 ) ) ;
#556 = CARTESIAN_POINT ( 'NONE',  ( -8.135077959936166891, 1.000000000000000888, -7.639552165312990972 ) ) ;
#557 = CARTESIAN_POINT ( 'NONE',  ( 0.004135030749010288297, 1.000000000000000888, -6.999999806062609409 ) ) ;
#558 = ORIENTED_EDGE ( 'NONE', *, *, #649, .T. ) ;
#559 = DIRECTION ( 'NONE',  ( 0.000000000000000000, 1.000000000000000000, 0.000000000000000000 ) ) ;
#560 = DIRECTION ( 'NONE',  ( -0.000000000000000000, -1.000000000000000000, -0.000000000000000000 ) ) ;
#561 = DIRECTION ( 'NONE',  ( -0.000000000000000000, -1.000000000000000000, -0.000000000000000000 ) ) ;
#562 = ADVANCED_FACE ( 'NONE', ( #571 ), #872, .T. ) ;
#563 = EDGE_LOOP ( 'NONE', ( #512, #472, #1028, #185, #968 ) ) ;
#564 = CARTESIAN_POINT ( 'NONE',  ( 5.349759145252581227, 0.000000000000000000, -1.627024985997544748 ) ) ;
#565 = CARTESIAN_POINT ( 'NONE',  ( -8.000000000000000000, 13.07106959750362485, -1.600000000000000089 ) ) ;
#566 = CARTESIAN_POINT ( 'NONE',  ( -10.44004641984199289, 0.000000000000000000, -1.481696219090143041 ) ) ;
#567 = B_SPLINE_CURVE_WITH_KNOTS ( 'NONE', 3,
 ( #470, #399, #158, #395, #162, #715, #319, #882, #960, #176, #474, #247, #484, #808, #798, #85, #6, #325, #429, #351, #579, #26, #575, #342, #362, #422, #745, #425, #197, #276, #263, #753, #201, #40, #897, #584, #741, #672, #357, #116, #29, #749, #45, #126, #345, #677 ),
 .UNSPECIFIED., .F., .F.,
 ( 4, 2, 2, 2, 2, 2, 2, 2, 2, 2, 2, 2, 2, 2, 2, 2, 2, 2, 2, 2, 2, 2, 4 ),
 ( 0.2498567275948675170, 0.2499999999999993894, 0.2812499999999993339, 0.2968749999999993339, 0.3124999999999993339, 0.3749999999999993339, 0.3906249999999993339, 0.4062499999999993339, 0.4218749999999993339, 0.4374999999999993339, 0.4687499999999993894, 0.4999999999999993339, 0.5156249999999993339, 0.5312499999999992228, 0.5624999999999992228, 0.5781249999999992228, 0.5937499999999991118, 0.6249999999999991118, 0.6562499999999992228, 0.6874999999999992228, 0.7187499999999992228, 0.7499999999999992228, 0.7500472925508198108 ),
 .UNSPECIFIED. ) ;
#568 = EDGE_LOOP ( 'NONE', ( #886, #226 ) ) ;
#569 = CARTESIAN_POINT ( 'NONE',  ( -0.7267725452583160273, 1.000000000000000888, -12.00003838033733672 ) ) ;
#570 = EDGE_CURVE ( 'NONE', #42, #791, #550, .T. ) ;
#571 = FACE_OUTER_BOUND ( 'NONE', #679, .T. ) ;
#572 = CARTESIAN_POINT ( 'NONE',  ( 0.7755417716664427807, 1.000000000000000888, -11.97482459543524769 ) ) ;
#573 = EDGE_LOOP ( 'NONE', ( #655, #213 ) ) ;
#574 = CARTESIAN_POINT ( 'NONE',  ( -3.869037163426433779, 0.000000000000000000, -4.974763449339322463 ) ) ;
#575 = CARTESIAN_POINT ( 'NONE',  ( 0.4220155761223010615, 0.000000000000000000, -6.998798951632180909 ) ) ;
#576 = CARTESIAN_POINT ( 'NONE',  ( -10.49999999963562658, 1.000000000000000888, -2.889350586253280139E-06 ) ) ;
#577 = AXIS2_PLACEMENT_3D ( 'NONE', #304, #926, #239 ) ;
#578 = CARTESIAN_POINT ( 'NONE',  ( -2.679296832099068659, 1.000000000000000888, -6.104889903365974035 ) ) ;
#579 = CARTESIAN_POINT ( 'NONE',  ( 1.622903583116148685, 0.000000000000000000, -6.703092606365963491 ) ) ;
#580 = FACE_OUTER_BOUND ( 'NONE', #1001, .T. ) ;
#581 = VECTOR ( 'NONE', #888, 1000.000000000000000 ) ;
#582 = AXIS2_PLACEMENT_3D ( 'NONE', #779, #1025, #862 ) ;
#583 = CARTESIAN_POINT ( 'NONE',  ( -0.8093758335873666443, 0.000000000000000000, -6.927337864460266559 ) ) ;
#584 = CARTESIAN_POINT ( 'NONE',  ( -4.339036774445019340, 0.000000000000000000, -4.303317979936367443 ) ) ;
#585 = EDGE_CURVE ( 'NONE', #311, #516, #567, .T. ) ;
#586 = DIRECTION ( 'NONE',  ( 0.000000000000000000, 1.000000000000000000, 0.000000000000000000 ) ) ;
#587 = EDGE_CURVE ( 'NONE', #703, #843, #803, .T. ) ;
#588 = CARTESIAN_POINT ( 'NONE',  ( -0.4007047150011339709, 0.000000000000000000, -6.986021196211630091 ) ) ;
#589 = CARTESIAN_POINT ( 'NONE',  ( 8.000000000000000000, 13.07106959750362485, -2.500000631318421096 ) ) ;
#590 = LINE ( 'NONE', #286, #133 ) ;
#591 = ORIENTED_EDGE ( 'NONE', *, *, #570, .F. ) ;
#592 = CARTESIAN_POINT ( 'NONE',  ( -4.546228914269300425, 1.000000000000000888, -3.941969482909252420 ) ) ;
#593 = DIRECTION ( 'NONE',  ( 0.000000000000000000, 0.000000000000000000, 1.000000000000000000 ) ) ;
#594 = APPLICATION_CONTEXT ( 'automotive_design' ) ;
#595 = DIRECTION ( 'NONE',  ( 0.000000000000000000, 0.000000000000000000, 1.000000000000000000 ) ) ;
#596 = AXIS2_PLACEMENT_3D ( 'NONE', #829, #120, #593 ) ;
#597 = ORIENTED_EDGE ( 'NONE', *, *, #743, .T. ) ;
#598 = CARTESIAN_POINT ( 'NONE',  ( 3.870238625396473342, 1.000000000000000888, -4.958462514997507675 ) ) ;
#599 = ORIENTED_EDGE ( 'NONE', *, *, #881, .T. ) ;
#600 = CARTESIAN_POINT ( 'NONE',  ( 6.414928607590036691, 0.000000000000000000, -9.517554988556812035 ) ) ;
#601 = CARTESIAN_POINT ( 'NONE',  ( 0.000000000000000000, 13.07106959750362485, -9.500000000000000000 ) ) ;
#602 = ORIENTED_EDGE ( 'NONE', *, *, #32, .T. ) ;
#603 = CARTESIAN_POINT ( 'NONE',  ( 0.01103168193913936675, 1.000000000000000888, -12.00000006174884959 ) ) ;
#604 = ORIENTED_EDGE ( 'NONE', *, *, #979, .T. ) ;
#605 = PRODUCT ( 'Bottom spacer', 'Bottom spacer', '', ( #945 ) ) ;
#606 = CARTESIAN_POINT ( 'NONE',  ( -10.44004641984199289, 0.000000000000000000, -1.481696219090143041 ) ) ;
#607 = CYLINDRICAL_SURFACE ( 'NONE', #352, 1.600000000000000755 ) ;
#608 = EDGE_CURVE ( 'NONE', #487, #787, #138, .T. ) ;
#609 = CARTESIAN_POINT ( 'NONE',  ( -8.000000000000000000, 6.000000000000000000, -1.600000000000000089 ) ) ;
#610 = CARTESIAN_POINT ( 'NONE',  ( -8.000000000000000000, 0.000000000000000000, -1.600000000000000089 ) ) ;
#611 = ORIENTED_EDGE ( 'NONE', *, *, #440, .F. ) ;
#612 = DIRECTION ( 'NONE',  ( 0.000000000000000000, 0.000000000000000000, 1.000000000000000000 ) ) ;
#613 = DIRECTION ( 'NONE',  ( 0.000000000000000000, 0.000000000000000000, 1.000000000000000000 ) ) ;
#614 = PRODUCT_DEFINITION ( 'UNKNOWN', '', #939, #119 ) ;
#615 = CLOSED_SHELL ( 'NONE', ( #644, #99, #809, #295, #526, #258, #175, #92, #2, #912, #544, #922, #767, #371, #274, #562, #475, #279, #225, #901 ) ) ;
#616 = CARTESIAN_POINT ( 'NONE',  ( -8.000000000000000000, 6.000000000000000000, 0.000000000000000000 ) ) ;
#617 = CARTESIAN_POINT ( 'NONE',  ( 10.03000066432012183, 1.000000000000000888, -3.636966625903698347 ) ) ;
#618 = CARTESIAN_POINT ( 'NONE',  ( 10.49980268575682096, 1.000000000000000888, -0.7459957266018961697 ) ) ;
#619 = VERTEX_POINT ( 'NONE', #187 ) ;
#620 = CARTESIAN_POINT ( 'NONE',  ( 10.49980268575682096, 0.000000000000000000, -0.7459957266018961697 ) ) ;
#621 = DIRECTION ( 'NONE',  ( 1.000000000000000000, 0.000000000000000000, 0.000000000000000000 ) ) ;
#622 = AXIS2_PLACEMENT_3D ( 'NONE', #93, #876, #657 ) ;
#623 = CARTESIAN_POINT ( 'NONE',  ( 5.499999975256552709, 0.000000000000000000, -1.704671759349434660E-05 ) ) ;
#624 = CARTESIAN_POINT ( 'NONE',  ( 10.50000000415565360, 1.000000000000000888, -6.951293736661296393E-06 ) ) ;
#625 = CARTESIAN_POINT ( 'NONE',  ( 4.584313342547322812, 1.000000000000000888, -3.949230373506586567 ) ) ;
#626 = CARTESIAN_POINT ( 'NONE',  ( 10.20516804252454435, 0.000000000000000000, -2.924188310503295529 ) ) ;
#627 = DIRECTION ( 'NONE',  ( -0.000000000000000000, -1.000000000000000000, -0.000000000000000000 ) ) ;
#628 = EDGE_LOOP ( 'NONE', ( #952, #441, #19, #713, #71, #180 ) ) ;
#629 = FACE_OUTER_BOUND ( 'NONE', #573, .T. ) ;
#630 = CARTESIAN_POINT ( 'NONE',  ( 0.000000000000000000, 0.000000000000000000, 0.000000000000000000 ) ) ;
#631 = CARTESIAN_POINT ( 'NONE',  ( 0.000000000000000000, 1.000000000000000888, -9.500000000000000000 ) ) ;
#632 = CARTESIAN_POINT ( 'NONE',  ( 10.20516804252454435, 1.000000000000000888, -2.924188310503295529 ) ) ;
#633 = DIRECTION ( 'NONE',  ( 0.000000000000000000, 0.000000000000000000, 1.000000000000000000 ) ) ;
#634 = CIRCLE ( 'NONE', #864, 2.500000631318421096 ) ;
#635 = EDGE_LOOP ( 'NONE', ( #681, #879 ) ) ;
#636 = CARTESIAN_POINT ( 'NONE',  ( 5.499999988029112608, 1.000000000000000888, -0.001890216670787110871 ) ) ;
#637 = CARTESIAN_POINT ( 'NONE',  ( -5.499999998240497234, 0.000000000000000000, -3.683679302413680380E-06 ) ) ;
#638 = CIRCLE ( 'NONE', #770, 2.500000328059993837 ) ;
#639 = CARTESIAN_POINT ( 'NONE',  ( -9.075835464952941578, 0.000000000000000000, -6.057674585434098091 ) ) ;
#640 = ORIENTED_EDGE ( 'NONE', *, *, #608, .T. ) ;
#641 = CARTESIAN_POINT ( 'NONE',  ( -8.135077959936166891, 1.000000000000000888, -7.639552165312990972 ) ) ;
#642 = DIRECTION ( 'NONE',  ( 0.000000000000000000, 0.000000000000000000, -1.000000000000000000 ) ) ;
#643 = CARTESIAN_POINT ( 'NONE',  ( -10.44004641984199289, 1.000000000000000888, -1.481696219090143041 ) ) ;
#644 = ADVANCED_FACE ( 'NONE', ( #983 ), #818, .T. ) ;
#645 = ORIENTED_EDGE ( 'NONE', *, *, #774, .T. ) ;
#646 = CARTESIAN_POINT ( 'NONE',  ( 5.471179013169685135, 0.000000000000000000, -0.8202718517362281858 ) ) ;
#647 = PLANE ( 'NONE',  #531 ) ;
#648 = CARTESIAN_POINT ( 'NONE',  ( -3.569510833401821071, 1.000000000000000888, -11.29639672734994704 ) ) ;
#649 = EDGE_CURVE ( 'NONE', #125, #82, #903, .T. ) ;
#650 = CARTESIAN_POINT ( 'NONE',  ( 3.465891816929385083, 1.000000000000000888, -5.421780720147950206 ) ) ;
#651 = ORIENTED_EDGE ( 'NONE', *, *, #649, .F. ) ;
#652 = CARTESIAN_POINT ( 'NONE',  ( 5.263350216612317389, 1.000000000000000888, -2.028213969412615558 ) ) ;
#653 = CARTESIAN_POINT ( 'NONE',  ( 8.000000000000000000, 0.000000000000000000, 0.000000000000000000 ) ) ;
#654 = CARTESIAN_POINT ( 'NONE',  ( 1.872661202614679832, 0.000000000000000000, -11.81590800982335310 ) ) ;
#655 = ORIENTED_EDGE ( 'NONE', *, *, #756, .T. ) ;
#656 = CARTESIAN_POINT ( 'NONE',  ( 0.8275180089444889031, 0.000000000000000000, -6.938502046920370425 ) ) ;
#657 = DIRECTION ( 'NONE',  ( 0.000000000000000000, 0.000000000000000000, 1.000000000000000000 ) ) ;
#658 = CARTESIAN_POINT ( 'NONE',  ( -10.02614842180791932, 0.000000000000000000, -3.650312595988312481 ) ) ;
#659 = CARTESIAN_POINT ( 'NONE',  ( -3.869037163426433779, 1.000000000000000888, -4.974763449339322463 ) ) ;
#660 = DIRECTION ( 'NONE',  ( 0.000000000000000000, 1.000000000000000000, -0.000000000000000000 ) ) ;
#661 =( NAMED_UNIT ( * ) SI_UNIT ( $, .STERADIAN. ) SOLID_ANGLE_UNIT ( ) );
#662 = CARTESIAN_POINT ( 'NONE',  ( -5.269262392170986686, 1.000000000000000888, -2.035969662655130463 ) ) ;
#663 = CIRCLE ( 'NONE', #216, 1.600000000000001865 ) ;
#664 = EDGE_CURVE ( 'NONE', #235, #135, #268, .T. ) ;
#665 = CARTESIAN_POINT ( 'NONE',  ( 4.584313342547322812, 0.000000000000000000, -3.949230373506586567 ) ) ;
#666 = DIRECTION ( 'NONE',  ( 0.000000000000000000, 0.000000000000000000, 1.000000000000000000 ) ) ;
#667 =( NAMED_UNIT ( * ) PLANE_ANGLE_UNIT ( ) SI_UNIT ( $, .RADIAN. ) );
#668 = CARTESIAN_POINT ( 'NONE',  ( -5.500000311956138255, 1.000000000000000888, -3.683678840162555247E-06 ) ) ;
#669 = AXIS2_PLACEMENT_3D ( 'NONE', #631, #309, #789 ) ;
#670 = CIRCLE ( 'NONE', #223, 2.500000631318422428 ) ;
#671 = CARTESIAN_POINT ( 'NONE',  ( 2.522674169099231367, 1.000000000000000888, -6.213197923264572431 ) ) ;
#672 = CARTESIAN_POINT ( 'NONE',  ( -4.894788254288685359, 0.000000000000000000, -3.201867658351858381 ) ) ;
#673 = SURFACE_STYLE_USAGE ( .BOTH. , #435 ) ;
#674 = CIRCLE ( 'NONE', #179, 2.500000631318421096 ) ;
#675 = EDGE_LOOP ( 'NONE', ( #289, #287 ) ) ;
#676 = CARTESIAN_POINT ( 'NONE',  ( -0.1926548194723080309, 1.000000000000000888, -7.000574023956841252 ) ) ;
#677 = CARTESIAN_POINT ( 'NONE',  ( -5.499999998240497234, 0.000000000000000000, -3.683679302413680380E-06 ) ) ;
#678 = FILL_AREA_STYLE_COLOUR ( '', #22 ) ;
#679 = EDGE_LOOP ( 'NONE', ( #128, #870, #452, #364, #796, #76 ) ) ;
#680 = CARTESIAN_POINT ( 'NONE',  ( 0.7755417716664427807, 1.000000000000000888, -11.97482459543524769 ) ) ;
#681 = ORIENTED_EDGE ( 'NONE', *, *, #846, .T. ) ;
#682 = CARTESIAN_POINT ( 'NONE',  ( 0.7755417716664427807, 0.000000000000000000, -11.97482459543524769 ) ) ;
#683 = CARTESIAN_POINT ( 'NONE',  ( -0.4047432778977798074, 1.000000000000000888, -6.985441276771562791 ) ) ;
#684 = VECTOR ( 'NONE', #825, 1000.000000000000000 ) ;
#685 = EDGE_LOOP ( 'NONE', ( #172, #860, #963, #708, #645, #651 ) ) ;
#686 = CARTESIAN_POINT ( 'NONE',  ( 10.20516804252454435, 1.000000000000000888, -2.924188310503295529 ) ) ;
#687 = ORIENTED_EDGE ( 'NONE', *, *, #421, .T. ) ;
#688 = CARTESIAN_POINT ( 'NONE',  ( 6.685802305891703767, 0.000000000000000000, -9.271029473083745032 ) ) ;
#689 = DIRECTION ( 'NONE',  ( 0.000000000000000000, 0.000000000000000000, -1.000000000000000000 ) ) ;
#690 = LINE ( 'NONE', #700, #188 ) ;
#691 = PRODUCT_RELATED_PRODUCT_CATEGORY ( 'part', '', ( #605 ) ) ;
#692 = CARTESIAN_POINT ( 'NONE',  ( 2.934342888565748542, 1.000000000000000888, -11.53168849008528696 ) ) ;
#693 = CARTESIAN_POINT ( 'NONE',  ( -9.075835464952941578, 0.000000000000000000, -6.057674585434098091 ) ) ;
#694 = CARTESIAN_POINT ( 'NONE',  ( 10.44009027089468766, 0.000000000000000000, -1.478888197873154065 ) ) ;
#695 = CARTESIAN_POINT ( 'NONE',  ( -5.499999998240476806, 1.000000000000000888, -3.669393216386955067E-06 ) ) ;
#696 = EDGE_CURVE ( 'NONE', #482, #231, #18, .T. ) ;
#697 = ORIENTED_EDGE ( 'NONE', *, *, #431, .T. ) ;
#698 = CARTESIAN_POINT ( 'NONE',  ( 9.246195650324780857, 0.000000000000000000, -5.709984211095229689 ) ) ;
#699 = FACE_OUTER_BOUND ( 'NONE', #306, .T. ) ;
#700 = CARTESIAN_POINT ( 'NONE',  ( 3.061617771010468151E-16, 13.07106959750362485, -6.999999368681577572 ) ) ;
#701 = EDGE_CURVE ( 'NONE', #806, #791, #736, .T. ) ;
#702 = CARTESIAN_POINT ( 'NONE',  ( 9.540326727377239635, 1.000000000000000888, -5.036330245683756424 ) ) ;
#703 = VERTEX_POINT ( 'NONE', #493 ) ;
#704 = DIRECTION ( 'NONE',  ( 0.000000000000000000, 0.000000000000000000, 1.000000000000000000 ) ) ;
#705 = CARTESIAN_POINT ( 'NONE',  ( 8.000000000000000000, 1.000000000000000000, 0.000000000000000000 ) ) ;
#706 = CARTESIAN_POINT ( 'NONE',  ( 10.49980268575682096, 1.000000000000000888, -0.7459957266018961697 ) ) ;
#707 = CIRCLE ( 'NONE', #536, 1.600000000000001865 ) ;
#708 = ORIENTED_EDGE ( 'NONE', *, *, #451, .F. ) ;
#709 = CARTESIAN_POINT ( 'NONE',  ( -8.000000000000000000, 6.000000000000000000, 0.000000000000000000 ) ) ;
#710 = DIRECTION ( 'NONE',  ( -0.000000000000000000, -1.000000000000000000, -0.000000000000000000 ) ) ;
#711 = CARTESIAN_POINT ( 'NONE',  ( 6.414928607590036691, 1.000000000000000888, -9.517554988556812035 ) ) ;
#712 = CARTESIAN_POINT ( 'NONE',  ( 8.000000000000000000, 6.000000000000000000, 0.000000000000000000 ) ) ;
#713 = ORIENTED_EDGE ( 'NONE', *, *, #750, .F. ) ;
#714 = CARTESIAN_POINT ( 'NONE',  ( 8.000000000000000000, 6.000000000000000000, 0.000000000000000000 ) ) ;
#715 = CARTESIAN_POINT ( 'NONE',  ( 5.385498417725778530, 0.000000000000000000, -1.425795032384962635 ) ) ;
#716 = AXIS2_PLACEMENT_3D ( 'NONE', #907, #586, #595 ) ;
#717 = CARTESIAN_POINT ( 'NONE',  ( 1.872661202614679832, 1.000000000000000888, -11.81590800982335310 ) ) ;
#718 = ORIENTED_EDGE ( 'NONE', *, *, #265, .F. ) ;
#719 = CARTESIAN_POINT ( 'NONE',  ( -9.670579226919668869, 1.000000000000000888, -4.699363105424130715 ) ) ;
#720 = EDGE_CURVE ( 'NONE', #791, #806, #237, .T. ) ;
#721 = LINE ( 'NONE', #182, #883 ) ;
#722 = CIRCLE ( 'NONE', #849, 2.500000631318421096 ) ;
#723 = VECTOR ( 'NONE', #784, 1000.000000000000000 ) ;
#724 = CARTESIAN_POINT ( 'NONE',  ( -1.435514372653784454, 0.000000000000000000, -11.91769583533104537 ) ) ;
#725 = ORIENTED_EDGE ( 'NONE', *, *, #795, .T. ) ;
#726 = CARTESIAN_POINT ( 'NONE',  ( -9.238611005058062986, 1.000000000000000888, -5.726270119976924811 ) ) ;
#727 = CARTESIAN_POINT ( 'NONE',  ( -10.49999999963562658, 0.000000000000000000, -2.889350586251427255E-06 ) ) ;
#728 = CARTESIAN_POINT ( 'NONE',  ( -4.895066292112333350, 0.000000000000000000, -10.65399400026256949 ) ) ;
#729 = EDGE_LOOP ( 'NONE', ( #800, #477 ) ) ;
#730 = CARTESIAN_POINT ( 'NONE',  ( -10.49999999963562658, 1.000000000000000888, -2.889350586251427255E-06 ) ) ;
#731 = DIRECTION ( 'NONE',  ( 0.000000000000000000, -0.000000000000000000, 1.000000000000000000 ) ) ;
#732 = CARTESIAN_POINT ( 'NONE',  ( -6.669181016294101205, 0.000000000000000000, -9.312983779800539708 ) ) ;
#733 = EDGE_CURVE ( 'NONE', #47, #42, #817, .T. ) ;
#734 = ORIENTED_EDGE ( 'NONE', *, *, #406, .T. ) ;
#735 = CARTESIAN_POINT ( 'NONE',  ( -5.038453937012159933, 1.000000000000000888, -2.820314126744672301 ) ) ;
#736 = CIRCLE ( 'NONE', #596, 1.600000000000000755 ) ;
#737 = DIRECTION ( 'NONE',  ( 0.000000000000000000, 0.000000000000000000, -1.000000000000000000 ) ) ;
#738 = CARTESIAN_POINT ( 'NONE',  ( -2.876665621630543512, 0.000000000000000000, -11.55063419507986211 ) ) ;
#739 = FACE_BOUND ( 'NONE', #1023, .T. ) ;
#740 = CARTESIAN_POINT ( 'NONE',  ( -1.982782616040963175, 0.000000000000000000, -6.540016690629289364 ) ) ;
#741 = CARTESIAN_POINT ( 'NONE',  ( -4.546228914269300425, 0.000000000000000000, -3.941969482909252420 ) ) ;
#742 = CARTESIAN_POINT ( 'NONE',  ( -1.009838838191978505, 1.000000000000000888, -6.883573938702106432 ) ) ;
#743 = EDGE_CURVE ( 'NONE', #957, #491, #365, .T. ) ;
#744 = CARTESIAN_POINT ( 'NONE',  ( 3.018231912797951111, 1.000000000000000888, -5.841188869266970229 ) ) ;
#745 = CARTESIAN_POINT ( 'NONE',  ( -1.009838838191978505, 0.000000000000000000, -6.883573938702106432 ) ) ;
#746 = CARTESIAN_POINT ( 'NONE',  ( -4.894788254288685359, 1.000000000000000888, -3.201867658351858381 ) ) ;
#747 = VECTOR ( 'NONE', #940, 1000.000000000000000 ) ;
#748 = CARTESIAN_POINT ( 'NONE',  ( -3.005071060919619619, 0.000000000000000000, -5.852256862770428114 ) ) ;
#749 = CARTESIAN_POINT ( 'NONE',  ( -5.471516974596377203, 0.000000000000000000, -0.8178999945701421748 ) ) ;
#750 = EDGE_CURVE ( 'NONE', #866, #552, #515, .T. ) ;
#751 = CYLINDRICAL_SURFACE ( 'NONE', #986, 1.600000000000001865 ) ;
#752 = CARTESIAN_POINT ( 'NONE',  ( 3.870238625396473342, 0.000000000000000000, -4.958462514997507675 ) ) ;
#753 = CARTESIAN_POINT ( 'NONE',  ( -3.005071060919619619, 0.000000000000000000, -5.852256862770428114 ) ) ;
#754 = DIRECTION ( 'NONE',  ( -0.000000000000000000, -1.000000000000000000, -0.000000000000000000 ) ) ;
#755 = CIRCLE ( 'NONE', #95, 2.500000631318422428 ) ;
#756 = EDGE_CURVE ( 'NONE', #923, #141, #896, .T. ) ;
#757 = VERTEX_POINT ( 'NONE', #142 ) ;
#758 = CARTESIAN_POINT ( 'NONE',  ( 9.246195650324780857, 1.000000000000000888, -5.709984211095229689 ) ) ;
#759 = DIRECTION ( 'NONE',  ( 0.000000000000000000, 0.000000000000000000, 1.000000000000000000 ) ) ;
#760 = CYLINDRICAL_SURFACE ( 'NONE', #466, 2.500000631318421540 ) ;
#761 = ORIENTED_EDGE ( 'NONE', *, *, #37, .F. ) ;
#762 = CARTESIAN_POINT ( 'NONE',  ( 9.674018174897774713, 1.000000000000000888, -4.690185112185016436 ) ) ;
#763 = AXIS2_PLACEMENT_3D ( 'NONE', #480, #804, #94 ) ;
#764 = CARTESIAN_POINT ( 'NONE',  ( -2.519406308149578777, 0.000000000000000000, -11.65883085367924110 ) ) ;
#765 = FACE_OUTER_BOUND ( 'NONE', #998, .T. ) ;
#766 = AXIS2_PLACEMENT_3D ( 'NONE', #214, #65, #378 ) ;
#767 = ADVANCED_FACE ( 'NONE', ( #227 ), #453, .T. ) ;
#768 = ORIENTED_EDGE ( 'NONE', *, *, #774, .F. ) ;
#769 = CARTESIAN_POINT ( 'NONE',  ( -5.499913291335847276, 1.000000000000000888, -0.4105076079380310383 ) ) ;
#770 = AXIS2_PLACEMENT_3D ( 'NONE', #1009, #710, #938 ) ;
#771 = CARTESIAN_POINT ( 'NONE',  ( -8.000000000000000000, 0.000000000000000000, 2.500000315477858059 ) ) ;
#772 = CARTESIAN_POINT ( 'NONE',  ( -8.000000000000000000, 13.07106959750362485, 0.000000000000000000 ) ) ;
#773 = DIRECTION ( 'NONE',  ( 0.000000000000000000, -0.000000000000000000, -1.000000000000000000 ) ) ;
#774 = EDGE_CURVE ( 'NONE', #619, #82, #634, .T. ) ;
#775 = CARTESIAN_POINT ( 'NONE',  ( 8.000000000000000000, 13.07106959750362485, 1.600000000000001865 ) ) ;
#776 = VERTEX_POINT ( 'NONE', #771 ) ;
#777 = CARTESIAN_POINT ( 'NONE',  ( -9.238611005058062986, 0.000000000000000000, -5.726270119976924811 ) ) ;
#778 = SHAPE_DEFINITION_REPRESENTATION ( #527, #828 ) ;
#779 = CARTESIAN_POINT ( 'NONE',  ( 0.000000000000000000, 6.000000000000000000, 0.000000000000000000 ) ) ;
#780 = CARTESIAN_POINT ( 'NONE',  ( 10.49999983791485114, 1.000000000000000888, -0.002438332364585187213 ) ) ;
#781 = CARTESIAN_POINT ( 'NONE',  ( 5.212435780217543169, 1.000000000000000888, -2.228843264896993137 ) ) ;
#782 = EDGE_LOOP ( 'NONE', ( #387, #928, #908, #920, #768 ) ) ;
#783 = DIRECTION ( 'NONE',  ( 0.000000000000000000, 1.000000000000000000, 0.000000000000000000 ) ) ;
#784 = DIRECTION ( 'NONE',  ( -0.000000000000000000, -1.000000000000000000, -0.000000000000000000 ) ) ;
#785 = CARTESIAN_POINT ( 'NONE',  ( 9.085314510874384908, 1.000000000000000888, -6.038841064491345278 ) ) ;
#786 = CARTESIAN_POINT ( 'NONE',  ( 1.995606210307311112, 1.000000000000000888, -6.533632375821743388 ) ) ;
#787 = VERTEX_POINT ( 'NONE', #788 ) ;
#788 = CARTESIAN_POINT ( 'NONE',  ( 8.000000000000000000, 0.000000000000000000, 1.600000000000001865 ) ) ;
#789 = DIRECTION ( 'NONE',  ( 2.261746345766368904E-11, 0.000000000000000000, 1.000000000000000000 ) ) ;
#790 = CARTESIAN_POINT ( 'NONE',  ( 10.49980268575682096, 0.000000000000000000, -0.7459957266018961697 ) ) ;
#791 = VERTEX_POINT ( 'NONE', #302 ) ;
#792 = CARTESIAN_POINT ( 'NONE',  ( 1.959434878635764984E-16, 0.000000000000000000, -7.899999999999999467 ) ) ;
#793 = CYLINDRICAL_SURFACE ( 'NONE', #221, 2.500000631318421096 ) ;
#794 = CARTESIAN_POINT ( 'NONE',  ( 8.000000000000000000, 6.000000000000000000, 1.600000000000001865 ) ) ;
#795 = EDGE_CURVE ( 'NONE', #64, #149, #318, .T. ) ;
#796 = ORIENTED_EDGE ( 'NONE', *, *, #79, .T. ) ;
#797 = DIRECTION ( 'NONE',  ( 0.000000000000000000, 1.000000000000000000, 0.000000000000000000 ) ) ;
#798 = CARTESIAN_POINT ( 'NONE',  ( 3.465891816929385083, 0.000000000000000000, -5.421780720147950206 ) ) ;
#799 = CARTESIAN_POINT ( 'NONE',  ( -7.190264876957575879, 1.000000000000000888, -8.791091934297307731 ) ) ;
#800 = ORIENTED_EDGE ( 'NONE', *, *, #795, .F. ) ;
#801 = CARTESIAN_POINT ( 'NONE',  ( 5.471179013169685135, 1.000000000000000888, -0.8202718517362281858 ) ) ;
#802 = DIRECTION ( 'NONE',  ( 0.000000000000000000, -0.000000000000000000, 1.000000000000000000 ) ) ;
#803 = CIRCLE ( 'NONE', #350, 2.500000631318421096 ) ;
#804 = DIRECTION ( 'NONE',  ( 0.000000000000000000, 1.000000000000000000, 0.000000000000000000 ) ) ;
#805 =( GEOMETRIC_REPRESENTATION_CONTEXT ( 3 ) GLOBAL_UNCERTAINTY_ASSIGNED_CONTEXT ( ( #356 ) ) GLOBAL_UNIT_ASSIGNED_CONTEXT ( ( #510, #667, #661 ) ) REPRESENTATION_CONTEXT ( 'NONE', 'WORKASPACE' ) );
#806 = VERTEX_POINT ( 'NONE', #792 ) ;
#807 = CARTESIAN_POINT ( 'NONE',  ( 0.000000000000000000, 6.000000000000000000, 0.000000000000000000 ) ) ;
#808 = CARTESIAN_POINT ( 'NONE',  ( 3.605298225344404361, 0.000000000000000000, -5.272029189298429230 ) ) ;
#809 = ADVANCED_FACE ( 'NONE', ( #157 ), #236, .T. ) ;
#810 = CARTESIAN_POINT ( 'NONE',  ( -2.876665621630543512, 1.000000000000000888, -11.55063419507986211 ) ) ;
#811 = ORIENTED_EDGE ( 'NONE', *, *, #733, .T. ) ;
#812 = CARTESIAN_POINT ( 'NONE',  ( 5.212435780217543169, 0.000000000000000000, -2.228843264896993137 ) ) ;
#813 = PLANE ( 'NONE',  #271 ) ;
#814 = CARTESIAN_POINT ( 'NONE',  ( 1.511015349438133981, 1.000000000000000888, -11.88323800565323651 ) ) ;
#815 = ORIENTED_EDGE ( 'NONE', *, *, #220, .F. ) ;
#816 = CARTESIAN_POINT ( 'NONE',  ( 3.465891816929385083, 0.000000000000000000, -5.421780720147950206 ) ) ;
#817 = CIRCLE ( 'NONE', #190, 1.600000000000000755 ) ;
#818 = CYLINDRICAL_SURFACE ( 'NONE', #462, 2.500000631318421540 ) ;
#819 = SURFACE_STYLE_FILL_AREA ( #353 ) ;
#820 = CARTESIAN_POINT ( 'NONE',  ( 1.995606210307311112, 0.000000000000000000, -6.533632375821743388 ) ) ;
#821 = DIRECTION ( 'NONE',  ( 0.000000000000000000, 1.000000000000000000, -0.000000000000000000 ) ) ;
#822 = CARTESIAN_POINT ( 'NONE',  ( -0.2008773173395807521, 1.000000000000000888, -6.999992992145953608 ) ) ;
#823 = CARTESIAN_POINT ( 'NONE',  ( -2.679296832099068659, 0.000000000000000000, -6.104889903365974035 ) ) ;
#824 = EDGE_CURVE ( 'NONE', #231, #843, #859, .T. ) ;
#825 = DIRECTION ( 'NONE',  ( -0.000000000000000000, -1.000000000000000000, -0.000000000000000000 ) ) ;
#826 = DIRECTION ( 'NONE',  ( 0.000000000000000000, 0.000000000000000000, 1.000000000000000000 ) ) ;
#827 = CARTESIAN_POINT ( 'NONE',  ( -0.1926548194723080309, 0.000000000000000000, -7.000574023956841252 ) ) ;
#828 = ADVANCED_BREP_SHAPE_REPRESENTATION ( 'Bottom spacer', ( #255, #39 ), #805 ) ;
#829 = CARTESIAN_POINT ( 'NONE',  ( 0.000000000000000000, 0.000000000000000000, -9.500000000000000000 ) ) ;
#830 = CARTESIAN_POINT ( 'NONE',  ( -1.600300296026362146, 1.000000000000000888, -6.711585498657679061 ) ) ;
#831 = EDGE_LOOP ( 'NONE', ( #718, #457, #519, #995, #943, #463 ) ) ;
#832 = CARTESIAN_POINT ( 'NONE',  ( 3.996389805603262513, 1.000000000000000888, -4.793699164916830568 ) ) ;
#833 = DIRECTION ( 'NONE',  ( 0.000000000000000000, 1.000000000000000000, -0.000000000000000000 ) ) ;
#834 = CARTESIAN_POINT ( 'NONE',  ( 0.0001298399924399457636, 1.000000000000000888, -12.00000062794673639 ) ) ;
#835 = AXIS2_PLACEMENT_3D ( 'NONE', #15, #328, #549 ) ;
#836 = ORIENTED_EDGE ( 'NONE', *, *, #244, .T. ) ;
#837 = DIRECTION ( 'NONE',  ( 0.000000000000000000, 0.000000000000000000, -1.000000000000000000 ) ) ;
#838 = ORIENTED_EDGE ( 'NONE', *, *, #193, .T. ) ;
#839 = CARTESIAN_POINT ( 'NONE',  ( 1.511015349438133981, 0.000000000000000000, -11.88323800565323651 ) ) ;
#840 = CARTESIAN_POINT ( 'NONE',  ( -8.000000000000000000, 0.000000000000000000, 0.000000000000000000 ) ) ;
#841 = ORIENTED_EDGE ( 'NONE', *, *, #421, .F. ) ;
#842 = CARTESIAN_POINT ( 'NONE',  ( 7.204755359862652142, 1.000000000000000888, -8.748811927668301180 ) ) ;
#843 = VERTEX_POINT ( 'NONE', #394 ) ;
#844 = CARTESIAN_POINT ( 'NONE',  ( -9.670579226919668869, 0.000000000000000000, -4.699363105424130715 ) ) ;
#845 = DIRECTION ( 'NONE',  ( -0.000000000000000000, -1.000000000000000000, -0.000000000000000000 ) ) ;
#846 = EDGE_CURVE ( 'NONE', #132, #521, #674, .T. ) ;
#847 = CARTESIAN_POINT ( 'NONE',  ( 10.50000000077543838, 1.000000000000000888, -0.001222629589071696403 ) ) ;
#848 = LINE ( 'NONE', #775, #74 ) ;
#849 = AXIS2_PLACEMENT_3D ( 'NONE', #73, #390, #950 ) ;
#850 = STYLED_ITEM ( 'NONE', ( #919 ), #255 ) ;
#851 = ORIENTED_EDGE ( 'NONE', *, *, #165, .T. ) ;
#852 = CARTESIAN_POINT ( 'NONE',  ( 3.622896473634930725, 0.000000000000000000, -11.27419933637646920 ) ) ;
#853 = CARTESIAN_POINT ( 'NONE',  ( 8.155340844349451501, 1.000000000000000888, -7.610685995844232998 ) ) ;
#854 = CARTESIAN_POINT ( 'NONE',  ( 5.263350216612317389, 1.000000000000000888, -2.028213969412615558 ) ) ;
#855 = ORIENTED_EDGE ( 'NONE', *, *, #608, .F. ) ;
#856 = CARTESIAN_POINT ( 'NONE',  ( 9.674018174897774713, 0.000000000000000000, -4.690185112185016436 ) ) ;
#857 = CARTESIAN_POINT ( 'NONE',  ( -8.000000000000000000, 13.07106959750362485, 0.000000000000000000 ) ) ;
#858 = FACE_OUTER_BOUND ( 'NONE', #563, .T. ) ;
#859 = B_SPLINE_CURVE_WITH_KNOTS ( 'NONE', 3,
 ( #324, #569, #246, #958, #469, #398, #161, #880, #5, #409, #969, #641, #1024, #90, #726, #948, #719, #483, #867, #887, #388, #730 ),
 .UNSPECIFIED., .F., .F.,
 ( 4, 2, 2, 2, 2, 2, 2, 2, 2, 2, 4 ),
 ( 0.5004617519773875145, 0.5312499999999985567, 0.5468749999999986677, 0.5624999999999986677, 0.5937499999999986677, 0.6249999999999986677, 0.6562499999999987788, 0.6718749999999987788, 0.6874999999999987788, 0.7187499999999990008, 0.7499891142737986627 ),
 .UNSPECIFIED. ) ;
#860 = ORIENTED_EDGE ( 'NONE', *, *, #664, .T. ) ;
#861 = CARTESIAN_POINT ( 'NONE',  ( 0.4018564447085880564, 0.000000000000000000, -11.99862962387714660 ) ) ;
#862 = DIRECTION ( 'NONE',  ( 0.000000000000000000, -0.000000000000000000, 1.000000000000000000 ) ) ;
#863 = CARTESIAN_POINT ( 'NONE',  ( 6.685802305891703767, 1.000000000000000888, -9.271029473083745032 ) ) ;
#864 = AXIS2_PLACEMENT_3D ( 'NONE', #1019, #522, #612 ) ;
#865 = CARTESIAN_POINT ( 'NONE',  ( 3.172355075874639052, 1.000000000000000888, -5.706356925943670610 ) ) ;
#866 = VERTEX_POINT ( 'NONE', #871 ) ;
#867 = CARTESIAN_POINT ( 'NONE',  ( -10.20274168105784263, 1.000000000000000888, -2.936550601345009781 ) ) ;
#868 = CARTESIAN_POINT ( 'NONE',  ( 0.000000000000000000, 6.000000000000000000, 0.000000000000000000 ) ) ;
#869 = CARTESIAN_POINT ( 'NONE',  ( 4.956760800592901361, 0.000000000000000000, -10.61736609097811979 ) ) ;
#870 = ORIENTED_EDGE ( 'NONE', *, *, #846, .F. ) ;
#871 = CARTESIAN_POINT ( 'NONE',  ( 10.50000000415565360, 0.000000000000000000, -6.951296094347223647E-06 ) ) ;
#872 = CYLINDRICAL_SURFACE ( 'NONE', #428, 2.500000631318421096 ) ;
#873 = CARTESIAN_POINT ( 'NONE',  ( -9.670579226919668869, 1.000000000000000888, -4.699363105424130715 ) ) ;
#874 = ORIENTED_EDGE ( 'NONE', *, *, #69, .T. ) ;
#875 = DIRECTION ( 'NONE',  ( 0.000000000000000000, 0.000000000000000000, 1.000000000000000000 ) ) ;
#876 = DIRECTION ( 'NONE',  ( -0.000000000000000000, -1.000000000000000000, -0.000000000000000000 ) ) ;
#877 = EDGE_CURVE ( 'NONE', #235, #125, #1021, .T. ) ;
#878 = DIRECTION ( 'NONE',  ( 0.000000000000000000, 0.000000000000000000, -1.000000000000000000 ) ) ;
#879 = ORIENTED_EDGE ( 'NONE', *, *, #360, .T. ) ;
#880 = CARTESIAN_POINT ( 'NONE',  ( -4.895066292112333350, 1.000000000000000888, -10.65399400026256949 ) ) ;
#881 = EDGE_CURVE ( 'NONE', #149, #64, #308, .T. ) ;
#882 = CARTESIAN_POINT ( 'NONE',  ( 5.263350216612317389, 0.000000000000000000, -2.028213969412615558 ) ) ;
#883 = VECTOR ( 'NONE', #11, 1000.000000000000000 ) ;
#884 = FACE_OUTER_BOUND ( 'NONE', #240, .T. ) ;
#885 = AXIS2_PLACEMENT_3D ( 'NONE', #155, #315, #633 ) ;
#886 = ORIENTED_EDGE ( 'NONE', *, *, #331, .F. ) ;
#887 = CARTESIAN_POINT ( 'NONE',  ( -10.44004641984199289, 1.000000000000000888, -1.481696219090143041 ) ) ;
#888 = DIRECTION ( 'NONE',  ( -0.000000000000000000, -1.000000000000000000, -0.000000000000000000 ) ) ;
#889 = CARTESIAN_POINT ( 'NONE',  ( -0.7051916428148951033, 0.000000000000000000, -12.00256561193822691 ) ) ;
#890 = ORIENTED_EDGE ( 'NONE', *, *, #587, .F. ) ;
#891 = CARTESIAN_POINT ( 'NONE',  ( -1.600300296026362146, 1.000000000000000888, -6.711585498657679061 ) ) ;
#892 = CARTESIAN_POINT ( 'NONE',  ( 8.000000000000000000, 0.000000000000000000, 0.000000000000000000 ) ) ;
#893 = CARTESIAN_POINT ( 'NONE',  ( 2.934342888565748542, 0.000000000000000000, -11.53168849008528696 ) ) ;
#894 = CIRCLE ( 'NONE', #577, 2.500000631318422428 ) ;
#895 = CARTESIAN_POINT ( 'NONE',  ( -5.269262392170986686, 0.000000000000000000, -2.035969662655130463 ) ) ;
#896 = CIRCLE ( 'NONE', #50, 2.500000631318422428 ) ;
#897 = CARTESIAN_POINT ( 'NONE',  ( -3.869037163426433779, 0.000000000000000000, -4.974763449339322463 ) ) ;
#898 = DIRECTION ( 'NONE',  ( 0.000000000000000000, 0.000000000000000000, -1.000000000000000000 ) ) ;
#899 = VECTOR ( 'NONE', #560, 1000.000000000000000 ) ;
#900 = CIRCLE ( 'NONE', #448, 2.500000631318421096 ) ;
#901 = ADVANCED_FACE ( 'NONE', ( #473, #629 ), #1029, .T. ) ;
#902 = CARTESIAN_POINT ( 'NONE',  ( -1.982782616040963175, 1.000000000000000888, -6.540016690629289364 ) ) ;
#903 = LINE ( 'NONE', #589, #152 ) ;
#904 = CARTESIAN_POINT ( 'NONE',  ( 8.000000000000000000, 0.000000000000000000, 0.000000000000000000 ) ) ;
#905 = CARTESIAN_POINT ( 'NONE',  ( -2.510167712197714618, 1.000000000000000888, -6.221469906961984542 ) ) ;
#906 = DIRECTION ( 'NONE',  ( 0.000000000000000000, 0.000000000000000000, 1.000000000000000000 ) ) ;
#907 = CARTESIAN_POINT ( 'NONE',  ( 8.000000000000000000, 6.000000000000000000, 0.000000000000000000 ) ) ;
#908 = ORIENTED_EDGE ( 'NONE', *, *, #959, .F. ) ;
#909 = CARTESIAN_POINT ( 'NONE',  ( -0.8093758335873666443, 1.000000000000000888, -6.927337864460266559 ) ) ;
#910 = AXIS2_PLACEMENT_3D ( 'NONE', #192, #281, #906 ) ;
#911 = CARTESIAN_POINT ( 'NONE',  ( 0.000000000000000000, 6.000000000000000000, -9.500000000000000000 ) ) ;
#912 = ADVANCED_FACE ( 'NONE', ( #478 ), #292, .T. ) ;
#913 = CARTESIAN_POINT ( 'NONE',  ( -2.510167712197714618, 1.000000000000000888, -6.221469906961984542 ) ) ;
#914 = ORIENTED_EDGE ( 'NONE', *, *, #114, .T. ) ;
#915 = VECTOR ( 'NONE', #35, 1000.000000000000000 ) ;
#916 = CARTESIAN_POINT ( 'NONE',  ( 0.0001298399924399457636, 1.000000000000000888, -12.00000062794673639 ) ) ;
#917 = ORIENTED_EDGE ( 'NONE', *, *, #1010, .F. ) ;
#918 = CARTESIAN_POINT ( 'NONE',  ( 9.540326727377239635, 0.000000000000000000, -5.036330245683756424 ) ) ;
#919 = PRESENTATION_STYLE_ASSIGNMENT (( #673 ) ) ;
#920 = ORIENTED_EDGE ( 'NONE', *, *, #402, .F. ) ;
#921 = DIRECTION ( 'NONE',  ( -0.000000000000000000, -1.000000000000000000, -0.000000000000000000 ) ) ;
#922 = ADVANCED_FACE ( 'NONE', ( #433 ), #514, .F. ) ;
#923 = VERTEX_POINT ( 'NONE', #129 ) ;
#924 = CARTESIAN_POINT ( 'NONE',  ( -10.49999999963562658, 0.000000000000000000, -2.889350586251427255E-06 ) ) ;
#925 =( NAMED_UNIT ( * ) SI_UNIT ( $, .STERADIAN. ) SOLID_ANGLE_UNIT ( ) );
#926 = DIRECTION ( 'NONE',  ( -0.000000000000000000, -1.000000000000000000, -0.000000000000000000 ) ) ;
#927 = CARTESIAN_POINT ( 'NONE',  ( 6.685802305891703767, 1.000000000000000888, -9.271029473083745032 ) ) ;
#928 = ORIENTED_EDGE ( 'NONE', *, *, #1017, .F. ) ;
#929 = CARTESIAN_POINT ( 'NONE',  ( 1.872661202614679832, 0.000000000000000000, -11.81590800982335310 ) ) ;
#930 = DIRECTION ( 'NONE',  ( 0.000000000000000000, 0.000000000000000000, 1.000000000000000000 ) ) ;
#931 = CARTESIAN_POINT ( 'NONE',  ( 9.674018174897774713, 0.000000000000000000, -4.690185112185016436 ) ) ;
#932 = EDGE_CURVE ( 'NONE', #619, #231, #996, .T. ) ;
#933 = CARTESIAN_POINT ( 'NONE',  ( 5.385498417725778530, 1.000000000000000888, -1.425795032384962635 ) ) ;
#934 = CIRCLE ( 'NONE', #401, 1.600000000000000089 ) ;
#935 = AXIS2_PLACEMENT_3D ( 'NONE', #772, #524, #233 ) ;
#936 = EDGE_LOOP ( 'NONE', ( #160, #507, #558, #44, #548, #166 ) ) ;
#937 = CARTESIAN_POINT ( 'NONE',  ( -2.876665621630543512, 0.000000000000000000, -11.55063419507986211 ) ) ;
#938 = DIRECTION ( 'NONE',  ( 0.000000000000000000, 0.000000000000000000, 1.000000000000000000 ) ) ;
#939 = PRODUCT_DEFINITION_FORMATION_WITH_SPECIFIED_SOURCE ( 'ANY', '', #605, .NOT_KNOWN. ) ;
#940 = DIRECTION ( 'NONE',  ( -0.000000000000000000, -1.000000000000000000, -0.000000000000000000 ) ) ;
#941 = CARTESIAN_POINT ( 'NONE',  ( 8.155340844349451501, 1.000000000000000888, -7.610685995844232998 ) ) ;
#942 = EDGE_CURVE ( 'NONE', #3, #787, #848, .T. ) ;
#943 = ORIENTED_EDGE ( 'NONE', *, *, #696, .F. ) ;
#944 = CARTESIAN_POINT ( 'NONE',  ( 10.44009027089468766, 0.000000000000000000, -1.478888197873154065 ) ) ;
#945 = PRODUCT_CONTEXT ( 'NONE', #195, 'mechanical' ) ;
#946 = CARTESIAN_POINT ( 'NONE',  ( 7.454267363263923585, 0.000000000000000000, -8.471245689429917292 ) ) ;
#947 = ORIENTED_EDGE ( 'NONE', *, *, #331, .T. ) ;
#948 = CARTESIAN_POINT ( 'NONE',  ( -9.536176060422212331, 1.000000000000000888, -5.046879916835832702 ) ) ;
#949 = APPLICATION_PROTOCOL_DEFINITION ( 'draft international standard', 'automotive_design', 1998, #594 ) ;
#950 = DIRECTION ( 'NONE',  ( 0.000000000000000000, 0.000000000000000000, 1.000000000000000000 ) ) ;
#951 = CARTESIAN_POINT ( 'NONE',  ( 5.567555122179086879, 0.000000000000000000, -10.21266409334464953 ) ) ;
#952 = ORIENTED_EDGE ( 'NONE', *, *, #585, .T. ) ;
#953 = CARTESIAN_POINT ( 'NONE',  ( 5.499999988029112608, 0.000000000000000000, -0.001890216670787110871 ) ) ;
#954 = CARTESIAN_POINT ( 'NONE',  ( 8.000000000000000000, 13.07106959750362485, 0.000000000000000000 ) ) ;
#955 = CARTESIAN_POINT ( 'NONE',  ( -2.519406308149578777, 1.000000000000000888, -11.65883085367924110 ) ) ;
#956 = CARTESIAN_POINT ( 'NONE',  ( 0.008185788720319676567, 1.000000000000000888, -6.999994027575323408 ) ) ;
#957 = VERTEX_POINT ( 'NONE', #610 ) ;
#958 = CARTESIAN_POINT ( 'NONE',  ( -2.519406308149578777, 1.000000000000000888, -11.65883085367924110 ) ) ;
#959 = EDGE_CURVE ( 'NONE', #757, #88, #87, .T. ) ;
#960 = CARTESIAN_POINT ( 'NONE',  ( 5.212435780217543169, 0.000000000000000000, -2.228843264896993137 ) ) ;
#961 = CARTESIAN_POINT ( 'NONE',  ( -10.49999999963562658, 0.000000000000000000, -2.889350586253280139E-06 ) ) ;
#962 = CARTESIAN_POINT ( 'NONE',  ( 0.8275180089444889031, 1.000000000000000888, -6.938502046920370425 ) ) ;
#963 = ORIENTED_EDGE ( 'NONE', *, *, #505, .F. ) ;
#964 = CARTESIAN_POINT ( 'NONE',  ( 5.385498417725778530, 1.000000000000000888, -1.425795032384962635 ) ) ;
#965 = CARTESIAN_POINT ( 'NONE',  ( 8.000000000000000000, 0.000000000000000000, -1.600000000000001865 ) ) ;
#966 = CARTESIAN_POINT ( 'NONE',  ( -9.075835464952941578, 1.000000000000000888, -6.057674585434098091 ) ) ;
#967 = CARTESIAN_POINT ( 'NONE',  ( 8.000000000000000000, 13.07106959750362485, -1.600000000000001865 ) ) ;
#968 = ORIENTED_EDGE ( 'NONE', *, *, #750, .T. ) ;
#969 = CARTESIAN_POINT ( 'NONE',  ( -7.190264876957575879, 1.000000000000000888, -8.791091934297307731 ) ) ;
#970 = CARTESIAN_POINT ( 'NONE',  ( 0.000000000000000000, 1.000000000000000000, 0.000000000000000000 ) ) ;
#971 = CARTESIAN_POINT ( 'NONE',  ( 2.934342888565748542, 1.000000000000000888, -11.53168849008528696 ) ) ;
#972 = AXIS2_PLACEMENT_3D ( 'NONE', #1006, #63, #837 ) ;
#973 = ORIENTED_EDGE ( 'NONE', *, *, #380, .T. ) ;
#974 = CARTESIAN_POINT ( 'NONE',  ( 3.605298225344404361, 1.000000000000000888, -5.272029189298429230 ) ) ;
#975 = CARTESIAN_POINT ( 'NONE',  ( -8.000000000000000000, 1.000000000000000000, 0.000000000000000000 ) ) ;
#976 = CARTESIAN_POINT ( 'NONE',  ( 3.622896473634930725, 0.000000000000000000, -11.27419933637646920 ) ) ;
#977 = CARTESIAN_POINT ( 'NONE',  ( -5.038453937012159933, 0.000000000000000000, -2.820314126744672301 ) ) ;
#978 = CARTESIAN_POINT ( 'NONE',  ( 0.000000000000000000, 13.07106959750362485, -9.500000000000000000 ) ) ;
#979 = EDGE_CURVE ( 'NONE', #211, #487, #250, .T. ) ;
#980 = CARTESIAN_POINT ( 'NONE',  ( -5.499913291335847276, 1.000000000000000888, -0.4105076079380310383 ) ) ;
#981 = VECTOR ( 'NONE', #144, 1000.000000000000000 ) ;
#982 = CARTESIAN_POINT ( 'NONE',  ( 1.995606210307311112, 1.000000000000000888, -6.533632375821743388 ) ) ;
#983 = FACE_OUTER_BOUND ( 'NONE', #831, .T. ) ;
#984 = CARTESIAN_POINT ( 'NONE',  ( 8.000000000000000000, 6.000000000000000000, -1.600000000000001865 ) ) ;
#985 = AXIS2_PLACEMENT_3D ( 'NONE', #653, #21, #169 ) ;
#986 = AXIS2_PLACEMENT_3D ( 'NONE', #137, #539, #689 ) ;
#987 = CARTESIAN_POINT ( 'NONE',  ( 2.522674169099231367, 0.000000000000000000, -6.213197923264572431 ) ) ;
#988 = DIRECTION ( 'NONE',  ( 0.000000000000000000, 0.000000000000000000, -1.000000000000000000 ) ) ;
#989 = CARTESIAN_POINT ( 'NONE',  ( -3.605869825397647332, 1.000000000000000888, -5.287272842732679834 ) ) ;
#990 = EDGE_LOOP ( 'NONE', ( #245, #851, #397, #261, #383 ) ) ;
#991 = EDGE_CURVE ( 'NONE', #776, #552, #389, .T. ) ;
#992 = CARTESIAN_POINT ( 'NONE',  ( 4.923326169898398774, 0.000000000000000000, -3.212488541385532415 ) ) ;
#993 = DIRECTION ( 'NONE',  ( -0.000000000000000000, -1.000000000000000000, -0.000000000000000000 ) ) ;
#994 = DIRECTION ( 'NONE',  ( -0.000000000000000000, -1.000000000000000000, -0.000000000000000000 ) ) ;
#995 = ORIENTED_EDGE ( 'NONE', *, *, #1017, .T. ) ;
#996 = B_SPLINE_CURVE_WITH_KNOTS ( 'NONE', 3,
 ( #366, #372, #54, #618, #145, #686, #382, #762, #702, #758, #48, #1002, #941, #376, #842, #927, #134, #288, #535, #140, #456, #692, #361, #528, #450, #680, #443, #294, #603, #916 ),
 .UNSPECIFIED., .F., .F.,
 ( 4, 2, 2, 2, 2, 2, 2, 2, 2, 2, 2, 2, 2, 2, 4 ),
 ( 0.2499488221146219102, 0.2499999999999989453, 0.2812499999999988898, 0.3124999999999987788, 0.3281249999999987788, 0.3437499999999987232, 0.3749999999999986677, 0.3906249999999986122, 0.4062499999999986122, 0.4374999999999985012, 0.4531249999999985567, 0.4687499999999985567, 0.4843749999999986122, 0.4999999999999985567, 0.5004617519773875145 ),
 .UNSPECIFIED. ) ;
#997 = CARTESIAN_POINT ( 'NONE',  ( 5.500000278514980856, 1.000000000000000888, -1.704671552567005142E-05 ) ) ;
#998 = EDGE_LOOP ( 'NONE', ( #725, #973, #393, #611 ) ) ;
#999 = CARTESIAN_POINT ( 'NONE',  ( 8.155340844349451501, 0.000000000000000000, -7.610685995844232998 ) ) ;
#1000 = CARTESIAN_POINT ( 'NONE',  ( -5.499999999151769181, 1.000000000000000888, -0.0006221358241614574017 ) ) ;
#1001 = EDGE_LOOP ( 'NONE', ( #9, #377, #602, #296 ) ) ;
#1002 = CARTESIAN_POINT ( 'NONE',  ( 8.560654481966940565, 1.000000000000000888, -7.001172518388175448 ) ) ;
#1003 = CARTESIAN_POINT ( 'NONE',  ( -6.669181016294101205, 0.000000000000000000, -9.312983779800539708 ) ) ;
#1004 = FACE_OUTER_BOUND ( 'NONE', #537, .T. ) ;
#1005 = CARTESIAN_POINT ( 'NONE',  ( 3.622896473634930725, 1.000000000000000888, -11.27419933637646920 ) ) ;
#1006 = CARTESIAN_POINT ( 'NONE',  ( 8.000000000000000000, 13.07106959750362485, 0.000000000000000000 ) ) ;
#1007 = VERTEX_POINT ( 'NONE', #392 ) ;
#1008 = DIRECTION ( 'NONE',  ( 0.000000000000000000, 1.000000000000000000, 0.000000000000000000 ) ) ;
#1009 = CARTESIAN_POINT ( 'NONE',  ( 8.000000000000000000, 0.000000000000000000, 0.000000000000000000 ) ) ;
#1010 = EDGE_CURVE ( 'NONE', #3, #211, #707, .T. ) ;
#1011 = CARTESIAN_POINT ( 'NONE',  ( 10.20516804252454435, 0.000000000000000000, -2.924188310503295529 ) ) ;
#1012 = CARTESIAN_POINT ( 'NONE',  ( 5.471179013169685135, 1.000000000000000888, -0.8202718517362281858 ) ) ;
#1013 = ORIENTED_EDGE ( 'NONE', *, *, #200, .F. ) ;
#1014 = CARTESIAN_POINT ( 'NONE',  ( 4.956760800592901361, 0.000000000000000000, -10.61736609097811979 ) ) ;
#1015 = FACE_OUTER_BOUND ( 'NONE', #542, .T. ) ;
#1016 = CARTESIAN_POINT ( 'NONE',  ( 8.560654481966940565, 1.000000000000000888, -7.001172518388175448 ) ) ;
#1017 = EDGE_CURVE ( 'NONE', #88, #231, #755, .T. ) ;
#1018 = CARTESIAN_POINT ( 'NONE',  ( 5.499999988029112608, 1.000000000000000888, -0.001890216670787110871 ) ) ;
#1019 = CARTESIAN_POINT ( 'NONE',  ( 8.000000000000000000, 1.000000000000000000, 0.000000000000000000 ) ) ;
#1020 = DIRECTION ( 'NONE',  ( 0.000000000000000000, 0.000000000000000000, 1.000000000000000000 ) ) ;
#1021 = CIRCLE ( 'NONE', #124, 2.500000631318421096 ) ;
#1022 = CARTESIAN_POINT ( 'NONE',  ( 8.155340844349451501, 0.000000000000000000, -7.610685995844232998 ) ) ;
#1023 = EDGE_LOOP ( 'NONE', ( #640, #251 ) ) ;
#1024 = CARTESIAN_POINT ( 'NONE',  ( -8.545059085261010878, 1.000000000000000888, -7.026737178143571683 ) ) ;
#1025 = DIRECTION ( 'NONE',  ( 0.000000000000000000, 1.000000000000000000, 0.000000000000000000 ) ) ;
#1026 = CARTESIAN_POINT ( 'NONE',  ( 6.414928607590036691, 0.000000000000000000, -9.517554988556812035 ) ) ;
#1027 = CARTESIAN_POINT ( 'NONE',  ( 1.622903583116148685, 1.000000000000000888, -6.703092606365963491 ) ) ;
#1028 = ORIENTED_EDGE ( 'NONE', *, *, #932, .F. ) ;
#1029 = PLANE ( 'NONE',  #485 ) ;
#1030 = AXIS2_PLACEMENT_3D ( 'NONE', #101, #436, #773 ) ;
#1031 = DIRECTION ( 'NONE',  ( -0.000000000000000000, -1.000000000000000000, -0.000000000000000000 ) ) ;
ENDSEC;
END-ISO-10303-21;
