ISO-10303-21;
HEADER;
FILE_DESCRIPTION (( 'STEP AP214' ),
    '1' );
FILE_NAME ('Top spacer.STEP',
    '2025-12-15T14:10:28',
    ( '' ),
    ( '' ),
    'SwSTEP 2.0',
    'SolidWorks 2025',
    '' );
FILE_SCHEMA (( 'AUTOMOTIVE_DESIGN' ));
ENDSEC;

DATA;
#1 = DIRECTION ( 'NONE',  ( 0.000000000000000000, -1.000000000000000000, 0.000000000000000000 ) ) ;
#2 = APPLICATION_CONTEXT ( 'automotive_design' ) ;
#3 = CARTESIAN_POINT ( 'NONE',  ( 5.385498417725778530, 0.000000000000000000, -1.425795032384962635 ) ) ;
#4 = CARTESIAN_POINT ( 'NONE',  ( 1.622903583116148685, 0.000000000000000000, -6.703092606365963491 ) ) ;
#5 = CARTESIAN_POINT ( 'NONE',  ( 0.4018564447085880564, 1.000000000000000888, -11.99862962387714660 ) ) ;
#6 = CIRCLE ( 'NONE', #433, 1.600000000000000089 ) ;
#7 = CARTESIAN_POINT ( 'NONE',  ( 4.956760800592901361, 0.000000000000000000, -10.61736609097811979 ) ) ;
#8 = CARTESIAN_POINT ( 'NONE',  ( -5.499913291335847276, 0.000000000000000000, -0.4105076079380310383 ) ) ;
#9 = CARTESIAN_POINT ( 'NONE',  ( 8.000000000000000000, 1.000000000000000000, -2.500000631318421096 ) ) ;
#10 = CARTESIAN_POINT ( 'NONE',  ( 4.584313342547322812, 1.000000000000000888, -3.949230373506586567 ) ) ;
#11 = CARTESIAN_POINT ( 'NONE',  ( -5.471516974596377203, 0.000000000000000000, -0.8178999945701421748 ) ) ;
#12 = CARTESIAN_POINT ( 'NONE',  ( -8.000000000000000000, 1.000000000000000000, 0.000000000000000000 ) ) ;
#13 = PLANE ( 'NONE',  #122 ) ;
#14 = CARTESIAN_POINT ( 'NONE',  ( -2.519406308149578777, 0.000000000000000000, -11.65883085367924110 ) ) ;
#15 = SURFACE_SIDE_STYLE ('',( #400 ) ) ;
#16 = CARTESIAN_POINT ( 'NONE',  ( 8.000000000000000000, 6.000000000000000000, 0.000000000000000000 ) ) ;
#17 = CARTESIAN_POINT ( 'NONE',  ( -6.669181016294101205, 1.000000000000000888, -9.312983779800539708 ) ) ;
#18 = CARTESIAN_POINT ( 'NONE',  ( 3.996389805603262513, 1.000000000000000888, -4.793699164916830568 ) ) ;
#19 = DIRECTION ( 'NONE',  ( -0.000000000000000000, -1.000000000000000000, -0.000000000000000000 ) ) ;
#20 = UNCERTAINTY_MEASURE_WITH_UNIT (LENGTH_MEASURE( 1.000000000000000082E-05 ), #262, 'distance_accuracy_value', 'NONE');
#21 = DIRECTION ( 'NONE',  ( 0.000000000000000000, 0.000000000000000000, 1.000000000000000000 ) ) ;
#22 = DIRECTION ( 'NONE',  ( 0.000000000000000000, 1.000000000000000000, -0.000000000000000000 ) ) ;
#23 = EDGE_CURVE ( 'NONE', #121, #729, #106, .T. ) ;
#24 = DIRECTION ( 'NONE',  ( 0.000000000000000000, 0.000000000000000000, 1.000000000000000000 ) ) ;
#25 = VERTEX_POINT ( 'NONE', #431 ) ;
#26 = CARTESIAN_POINT ( 'NONE',  ( -10.49999999963562658, 0.000000000000000000, -2.889350586253280139E-06 ) ) ;
#27 = DIRECTION ( 'NONE',  ( 0.000000000000000000, 0.000000000000000000, 1.000000000000000000 ) ) ;
#28 = ORIENTED_EDGE ( 'NONE', *, *, #254, .F. ) ;
#29 = ADVANCED_FACE ( 'NONE', ( #45 ), #185, .T. ) ;
#30 = CARTESIAN_POINT ( 'NONE',  ( -4.894788254288685359, 1.000000000000000888, -3.201867658351858381 ) ) ;
#31 =( GEOMETRIC_REPRESENTATION_CONTEXT ( 3 ) GLOBAL_UNCERTAINTY_ASSIGNED_CONTEXT ( ( #487 ) ) GLOBAL_UNIT_ASSIGNED_CONTEXT ( ( #527, #201, #396 ) ) REPRESENTATION_CONTEXT ( 'NONE', 'WORKASPACE' ) );
#32 = DIRECTION ( 'NONE',  ( 1.000000000000000000, 0.000000000000000000, 0.000000000000000000 ) ) ;
#33 = ADVANCED_BREP_SHAPE_REPRESENTATION ( 'Top spacer', ( #829, #519 ), #448 ) ;
#34 = DIRECTION ( 'NONE',  ( 0.000000000000000000, 1.000000000000000000, 0.000000000000000000 ) ) ;
#35 = VERTEX_POINT ( 'NONE', #109 ) ;
#36 = CARTESIAN_POINT ( 'NONE',  ( -2.679296832099068659, 1.000000000000000888, -6.104889903365974035 ) ) ;
#37 = CARTESIAN_POINT ( 'NONE',  ( -10.49999999963562658, 2.999999999999999112, -2.889350586251427255E-06 ) ) ;
#38 = EDGE_LOOP ( 'NONE', ( #212, #178, #468, #534, #301, #28 ) ) ;
#39 = CARTESIAN_POINT ( 'NONE',  ( -3.605869825397647332, 1.000000000000000888, -5.287272842732679834 ) ) ;
#40 = CARTESIAN_POINT ( 'NONE',  ( 3.962545395994085062, 0.000000000000000000, -11.12458353204228523 ) ) ;
#41 = ORIENTED_EDGE ( 'NONE', *, *, #383, .F. ) ;
#42 = CARTESIAN_POINT ( 'NONE',  ( -5.499999934145172631, 1.000000000000000888, -0.001240578466436842052 ) ) ;
#43 = ORIENTED_EDGE ( 'NONE', *, *, #711, .T. ) ;
#44 = CARTESIAN_POINT ( 'NONE',  ( 10.44009027089468766, 0.000000000000000000, -1.478888197873154065 ) ) ;
#45 = FACE_OUTER_BOUND ( 'NONE', #435, .T. ) ;
#46 = DIRECTION ( 'NONE',  ( 0.000000000000000000, 0.000000000000000000, 1.000000000000000000 ) ) ;
#47 = CARTESIAN_POINT ( 'NONE',  ( 1.995606210307311112, 0.000000000000000000, -6.533632375821743388 ) ) ;
#48 = DIRECTION ( 'NONE',  ( -0.000000000000000000, -1.000000000000000000, -0.000000000000000000 ) ) ;
#49 = CARTESIAN_POINT ( 'NONE',  ( 9.246195650324780857, 1.000000000000000888, -5.709984211095229689 ) ) ;
#50 = EDGE_CURVE ( 'NONE', #279, #611, #306, .T. ) ;
#51 = CARTESIAN_POINT ( 'NONE',  ( 8.155340844349451501, 0.000000000000000000, -7.610685995844232998 ) ) ;
#52 = CARTESIAN_POINT ( 'NONE',  ( -1.982782616040963175, 1.000000000000000888, -6.540016690629289364 ) ) ;
#53 = EDGE_LOOP ( 'NONE', ( #419, #816, #624, #565 ) ) ;
#54 = AXIS2_PLACEMENT_3D ( 'NONE', #733, #99, #405 ) ;
#55 = CARTESIAN_POINT ( 'NONE',  ( 7.454267363263923585, 1.000000000000000888, -8.471245689429917292 ) ) ;
#56 = CARTESIAN_POINT ( 'NONE',  ( 10.49980268575682096, 0.000000000000000000, -0.7459957266018961697 ) ) ;
#57 = ADVANCED_FACE ( 'NONE', ( #574, #821 ), #827, .T. ) ;
#58 = CARTESIAN_POINT ( 'NONE',  ( -3.162118205461780907, 1.000000000000000888, -5.715654696622435971 ) ) ;
#59 = CARTESIAN_POINT ( 'NONE',  ( -3.162118205461780907, 0.000000000000000000, -5.715654696622435971 ) ) ;
#60 = CARTESIAN_POINT ( 'NONE',  ( 3.962545395994085062, 1.000000000000000888, -11.12458353204228523 ) ) ;
#61 = CARTESIAN_POINT ( 'NONE',  ( 9.085314510874384908, 1.000000000000000888, -6.038841064491345278 ) ) ;
#62 = CARTESIAN_POINT ( 'NONE',  ( 4.923326169898398774, 1.000000000000000888, -3.212488541385532415 ) ) ;
#63 = CARTESIAN_POINT ( 'NONE',  ( -1.982782616040963175, 0.000000000000000000, -6.540016690629289364 ) ) ;
#64 = CARTESIAN_POINT ( 'NONE',  ( 10.03000066432012183, 1.000000000000000888, -3.636966625903698347 ) ) ;
#65 = CARTESIAN_POINT ( 'NONE',  ( 6.414928607590036691, 0.000000000000000000, -9.517554988556812035 ) ) ;
#66 = CARTESIAN_POINT ( 'NONE',  ( 2.522674169099231367, 1.000000000000000888, -6.213197923264572431 ) ) ;
#67 = CARTESIAN_POINT ( 'NONE',  ( -0.1926548194723080309, 0.000000000000000000, -7.000574023956841252 ) ) ;
#68 = CARTESIAN_POINT ( 'NONE',  ( 8.000000000000000000, 13.07106959750362485, 0.000000000000000000 ) ) ;
#69 = AXIS2_PLACEMENT_3D ( 'NONE', #333, #127, #524 ) ;
#70 = CIRCLE ( 'NONE', #601, 2.500000631318421096 ) ;
#71 = CARTESIAN_POINT ( 'NONE',  ( -10.02614842180791932, 0.000000000000000000, -3.650312595988312481 ) ) ;
#72 = CARTESIAN_POINT ( 'NONE',  ( -5.499999998240476806, 0.000000000000000000, -3.669393216386955067E-06 ) ) ;
#73 = CARTESIAN_POINT ( 'NONE',  ( 2.693794607804870456, 0.000000000000000000, -6.094438625795506326 ) ) ;
#74 = CARTESIAN_POINT ( 'NONE',  ( 1.872661202614679832, 1.000000000000000888, -11.81590800982335310 ) ) ;
#75 = CARTESIAN_POINT ( 'NONE',  ( 0.4018564447085880564, 1.000000000000000888, -11.99862962387714660 ) ) ;
#76 = DIRECTION ( 'NONE',  ( 0.000000000000000000, 0.000000000000000000, -1.000000000000000000 ) ) ;
#77 = DIRECTION ( 'NONE',  ( 0.000000000000000000, 0.000000000000000000, 1.000000000000000000 ) ) ;
#78 = DIRECTION ( 'NONE',  ( -0.000000000000000000, -1.000000000000000000, -0.000000000000000000 ) ) ;
#79 = CARTESIAN_POINT ( 'NONE',  ( -9.238611005058062986, 1.000000000000000888, -5.726270119976924811 ) ) ;
#80 = CARTESIAN_POINT ( 'NONE',  ( -3.869037163426433779, 0.000000000000000000, -4.974763449339322463 ) ) ;
#81 = DIRECTION ( 'NONE',  ( 0.000000000000000000, 0.000000000000000000, -1.000000000000000000 ) ) ;
#82 = DIRECTION ( 'NONE',  ( -0.000000000000000000, -1.000000000000000000, -0.000000000000000000 ) ) ;
#83 = EDGE_CURVE ( 'NONE', #237, #637, #495, .T. ) ;
#84 = CARTESIAN_POINT ( 'NONE',  ( -0.7051916428148951033, 0.000000000000000000, -12.00256561193822691 ) ) ;
#85 = AXIS2_PLACEMENT_3D ( 'NONE', #667, #594, #392 ) ;
#86 = CARTESIAN_POINT ( 'NONE',  ( -5.499999999152770158, 1.000000000000000888, -0.0006221263002504384167 ) ) ;
#87 = PRODUCT_RELATED_PRODUCT_CATEGORY ( 'part', '', ( #691 ) ) ;
#88 = DIRECTION ( 'NONE',  ( -0.000000000000000000, -1.000000000000000000, -0.000000000000000000 ) ) ;
#89 = VERTEX_POINT ( 'NONE', #728 ) ;
#90 = CARTESIAN_POINT ( 'NONE',  ( -1.435514372653784454, 1.000000000000000888, -11.91769583533104537 ) ) ;
#91 = CYLINDRICAL_SURFACE ( 'NONE', #407, 2.500000631318421096 ) ;
#92 = CARTESIAN_POINT ( 'NONE',  ( -8.000000000000000000, 6.000000000000000000, 0.000000000000000000 ) ) ;
#93 = EDGE_LOOP ( 'NONE', ( #334, #166 ) ) ;
#94 = CARTESIAN_POINT ( 'NONE',  ( -1.982782616040963175, 1.000000000000000888, -6.540016690629289364 ) ) ;
#95 = CARTESIAN_POINT ( 'NONE',  ( 8.000000000000000000, 13.07106959750362485, -2.500000631318421096 ) ) ;
#96 = ORIENTED_EDGE ( 'NONE', *, *, #561, .F. ) ;
#97 = CARTESIAN_POINT ( 'NONE',  ( 8.000000000000000000, 6.000000000000000000, -2.500000631318421096 ) ) ;
#98 = CIRCLE ( 'NONE', #694, 2.500000328059993837 ) ;
#99 = DIRECTION ( 'NONE',  ( 0.000000000000000000, 1.000000000000000000, -0.000000000000000000 ) ) ;
#100 = ORIENTED_EDGE ( 'NONE', *, *, #623, .T. ) ;
#101 = CARTESIAN_POINT ( 'NONE',  ( -5.500000311956138255, 1.000000000000000888, -3.683678840162555247E-06 ) ) ;
#102 = DIRECTION ( 'NONE',  ( 0.000000000000000000, 0.000000000000000000, 1.000000000000000000 ) ) ;
#103 = CARTESIAN_POINT ( 'NONE',  ( 1.872661202614679832, 1.000000000000000888, -11.81590800982335310 ) ) ;
#104 = ORIENTED_EDGE ( 'NONE', *, *, #684, .T. ) ;
#105 = CARTESIAN_POINT ( 'NONE',  ( -4.546228914269300425, 1.000000000000000888, -3.941969482909252420 ) ) ;
#106 = LINE ( 'NONE', #247, #479 ) ;
#107 = DIRECTION ( 'NONE',  ( -0.000000000000000000, -1.000000000000000000, -0.000000000000000000 ) ) ;
#108 = VECTOR ( 'NONE', #179, 1000.000000000000000 ) ;
#109 = CARTESIAN_POINT ( 'NONE',  ( -5.499999998240497234, 0.000000000000000000, -3.683679302413680380E-06 ) ) ;
#110 = CARTESIAN_POINT ( 'NONE',  ( -6.669181016294101205, 0.000000000000000000, -9.312983779800539708 ) ) ;
#111 = CARTESIAN_POINT ( 'NONE',  ( -1.009838838191978505, 0.000000000000000000, -6.883573938702106432 ) ) ;
#112 = EDGE_CURVE ( 'NONE', #749, #89, #153, .T. ) ;
#113 = EDGE_LOOP ( 'NONE', ( #288, #100, #224, #156 ) ) ;
#114 = CARTESIAN_POINT ( 'NONE',  ( -7.190264876957575879, 0.000000000000000000, -8.791091934297307731 ) ) ;
#115 = CARTESIAN_POINT ( 'NONE',  ( 10.49999983791485114, 1.000000000000000888, -0.002438332364585187213 ) ) ;
#116 = CARTESIAN_POINT ( 'NONE',  ( -2.510167712197714618, 0.000000000000000000, -6.221469906961984542 ) ) ;
#117 = CARTESIAN_POINT ( 'NONE',  ( -8.000000000000000000, 6.000000000000000000, 0.000000000000000000 ) ) ;
#118 = CARTESIAN_POINT ( 'NONE',  ( -10.49999999963562658, 0.000000000000000000, -2.889350586251427255E-06 ) ) ;
#119 = CARTESIAN_POINT ( 'NONE',  ( 0.7755417716664427807, 1.000000000000000888, -11.97482459543524769 ) ) ;
#120 = CARTESIAN_POINT ( 'NONE',  ( 3.605298225344404361, 0.000000000000000000, -5.272029189298429230 ) ) ;
#121 = VERTEX_POINT ( 'NONE', #385 ) ;
#122 = AXIS2_PLACEMENT_3D ( 'NONE', #789, #591, #730 ) ;
#123 = CARTESIAN_POINT ( 'NONE',  ( -8.000000000000000000, 0.000000000000000000, 0.000000000000000000 ) ) ;
#124 = AXIS2_PLACEMENT_3D ( 'NONE', #117, #458, #516 ) ;
#125 = CARTESIAN_POINT ( 'NONE',  ( 7.454267363263923585, 0.000000000000000000, -8.471245689429917292 ) ) ;
#126 = CARTESIAN_POINT ( 'NONE',  ( -2.510167712197714618, 1.000000000000000888, -6.221469906961984542 ) ) ;
#127 = DIRECTION ( 'NONE',  ( 0.000000000000000000, 1.000000000000000000, -0.000000000000000000 ) ) ;
#128 = CARTESIAN_POINT ( 'NONE',  ( 7.204755359862652142, 1.000000000000000888, -8.748811927668301180 ) ) ;
#129 = CARTESIAN_POINT ( 'NONE',  ( 9.246195650324780857, 1.000000000000000888, -5.709984211095229689 ) ) ;
#130 = CARTESIAN_POINT ( 'NONE',  ( 3.018231912797951111, 1.000000000000000888, -5.841188869266970229 ) ) ;
#131 = CARTESIAN_POINT ( 'NONE',  ( -5.269262392170986686, 0.000000000000000000, -2.035969662655130463 ) ) ;
#132 = CARTESIAN_POINT ( 'NONE',  ( -3.569510833401821071, 1.000000000000000888, -11.29639672734994704 ) ) ;
#133 = CARTESIAN_POINT ( 'NONE',  ( 0.4018564447085880564, 0.000000000000000000, -11.99862962387714660 ) ) ;
#134 = FILL_AREA_STYLE ('',( #727 ) ) ;
#135 = CARTESIAN_POINT ( 'NONE',  ( -1.009838838191978505, 0.000000000000000000, -6.883573938702106432 ) ) ;
#136 = CARTESIAN_POINT ( 'NONE',  ( -7.190264876957575879, 1.000000000000000888, -8.791091934297307731 ) ) ;
#137 = CIRCLE ( 'NONE', #377, 2.500000631318421096 ) ;
#138 = CARTESIAN_POINT ( 'NONE',  ( -9.536176060422212331, 0.000000000000000000, -5.046879916835832702 ) ) ;
#139 = CARTESIAN_POINT ( 'NONE',  ( 5.263350216612317389, 0.000000000000000000, -2.028213969412615558 ) ) ;
#140 = EDGE_CURVE ( 'NONE', #804, #35, #281, .T. ) ;
#141 = CARTESIAN_POINT ( 'NONE',  ( -10.44004641984199289, 1.000000000000000888, -1.481696219090143041 ) ) ;
#142 = CARTESIAN_POINT ( 'NONE',  ( -10.44004641984199289, 0.000000000000000000, -1.481696219090143041 ) ) ;
#143 = CARTESIAN_POINT ( 'NONE',  ( -5.269262392170986686, 0.000000000000000000, -2.035969662655130463 ) ) ;
#144 = EDGE_CURVE ( 'NONE', #292, #611, #256, .T. ) ;
#145 = CARTESIAN_POINT ( 'NONE',  ( 5.499735981486713499, 0.000000000000000000, -0.4141583174628524766 ) ) ;
#146 = ORIENTED_EDGE ( 'NONE', *, *, #472, .F. ) ;
#147 = CARTESIAN_POINT ( 'NONE',  ( 5.499999988029112608, 0.000000000000000000, -0.001890216670787110871 ) ) ;
#148 = CARTESIAN_POINT ( 'NONE',  ( -10.49999914905596832, 1.000000000000000888, -0.7359638186501908930 ) ) ;
#149 = CARTESIAN_POINT ( 'NONE',  ( -8.000000000000000000, 0.000000000000000000, 0.000000000000000000 ) ) ;
#150 = ORIENTED_EDGE ( 'NONE', *, *, #438, .T. ) ;
#151 = CARTESIAN_POINT ( 'NONE',  ( -1.435514372653784454, 0.000000000000000000, -11.91769583533104537 ) ) ;
#152 = AXIS2_PLACEMENT_3D ( 'NONE', #348, #545, #669 ) ;
#153 = CIRCLE ( 'NONE', #69, 2.500000631318421096 ) ;
#154 = CARTESIAN_POINT ( 'NONE',  ( 5.499999975256552709, 0.000000000000000000, -1.704671759349434660E-05 ) ) ;
#155 = CARTESIAN_POINT ( 'NONE',  ( -8.000000000000000000, 13.07106959750362485, -1.600000000000000089 ) ) ;
#156 = ORIENTED_EDGE ( 'NONE', *, *, #598, .F. ) ;
#157 = CARTESIAN_POINT ( 'NONE',  ( 10.03000066432012183, 0.000000000000000000, -3.636966625903698347 ) ) ;
#158 = DIRECTION ( 'NONE',  ( -0.000000000000000000, -1.000000000000000000, -0.000000000000000000 ) ) ;
#159 = EDGE_LOOP ( 'NONE', ( #596, #345, #220, #674 ) ) ;
#160 = CARTESIAN_POINT ( 'NONE',  ( -10.49999999963562658, 0.000000000000000000, -2.889350586251427255E-06 ) ) ;
#161 = DIRECTION ( 'NONE',  ( 0.000000000000000000, -0.000000000000000000, 1.000000000000000000 ) ) ;
#162 = VERTEX_POINT ( 'NONE', #528 ) ;
#163 = CARTESIAN_POINT ( 'NONE',  ( 0.8275180089444889031, 1.000000000000000888, -6.938502046920370425 ) ) ;
#164 = CIRCLE ( 'NONE', #571, 1.600000000000001865 ) ;
#165 = CARTESIAN_POINT ( 'NONE',  ( -5.500000311956138255, 1.000000000000000888, -3.683678840162555247E-06 ) ) ;
#166 = ORIENTED_EDGE ( 'NONE', *, *, #602, .T. ) ;
#167 = CARTESIAN_POINT ( 'NONE',  ( 9.246195650324780857, 0.000000000000000000, -5.709984211095229689 ) ) ;
#168 = CARTESIAN_POINT ( 'NONE',  ( 3.622896473634930725, 0.000000000000000000, -11.27419933637646920 ) ) ;
#169 = EDGE_CURVE ( 'NONE', #637, #807, #397, .T. ) ;
#170 = EDGE_LOOP ( 'NONE', ( #492, #43 ) ) ;
#171 = CARTESIAN_POINT ( 'NONE',  ( 7.204755359862652142, 0.000000000000000000, -8.748811927668301180 ) ) ;
#172 = EDGE_CURVE ( 'NONE', #360, #121, #693, .T. ) ;
#173 = ORIENTED_EDGE ( 'NONE', *, *, #175, .F. ) ;
#174 = CARTESIAN_POINT ( 'NONE',  ( 9.540326727377239635, 1.000000000000000888, -5.036330245683756424 ) ) ;
#175 = EDGE_CURVE ( 'NONE', #406, #670, #271, .T. ) ;
#176 = CIRCLE ( 'NONE', #550, 2.500000328059993837 ) ;
#177 = CARTESIAN_POINT ( 'NONE',  ( -0.4007047150011339709, 1.000000000000000888, -6.986021196211630091 ) ) ;
#178 = ORIENTED_EDGE ( 'NONE', *, *, #293, .F. ) ;
#179 = DIRECTION ( 'NONE',  ( -0.000000000000000000, -1.000000000000000000, -0.000000000000000000 ) ) ;
#180 = CARTESIAN_POINT ( 'NONE',  ( -1.600300296026362146, 1.000000000000000888, -6.711585498657679061 ) ) ;
#181 = ORIENTED_EDGE ( 'NONE', *, *, #656, .T. ) ;
#182 = CARTESIAN_POINT ( 'NONE',  ( -10.44004641984199289, 0.000000000000000000, -1.481696219090143041 ) ) ;
#183 = CARTESIAN_POINT ( 'NONE',  ( 5.567555122179086879, 0.000000000000000000, -10.21266409334464953 ) ) ;
#184 = CARTESIAN_POINT ( 'NONE',  ( 3.605298225344404361, 1.000000000000000888, -5.272029189298429230 ) ) ;
#185 = CYLINDRICAL_SURFACE ( 'NONE', #339, 2.500000631318421096 ) ;
#186 = CARTESIAN_POINT ( 'NONE',  ( 4.956760800592901361, 1.000000000000000888, -10.61736609097811979 ) ) ;
#187 = CARTESIAN_POINT ( 'NONE',  ( 10.50000000077543838, 1.000000000000000888, -0.001222629589071696403 ) ) ;
#188 = CARTESIAN_POINT ( 'NONE',  ( -1.982782616040963175, 0.000000000000000000, -6.540016690629289364 ) ) ;
#189 = AXIS2_PLACEMENT_3D ( 'NONE', #12, #267, #788 ) ;
#190 = CARTESIAN_POINT ( 'NONE',  ( -3.605869825397647332, 0.000000000000000000, -5.287272842732679834 ) ) ;
#191 = CARTESIAN_POINT ( 'NONE',  ( -8.545059085261010878, 0.000000000000000000, -7.026737178143571683 ) ) ;
#192 = FACE_BOUND ( 'NONE', #93, .T. ) ;
#193 = CARTESIAN_POINT ( 'NONE',  ( 4.584313342547322812, 0.000000000000000000, -3.949230373506586567 ) ) ;
#194 = CARTESIAN_POINT ( 'NONE',  ( 5.471179013169685135, 0.000000000000000000, -0.8202718517362281858 ) ) ;
#195 = CARTESIAN_POINT ( 'NONE',  ( -9.536176060422212331, 1.000000000000000888, -5.046879916835832702 ) ) ;
#196 = CARTESIAN_POINT ( 'NONE',  ( 5.499999393348744547, 1.000000000000000888, -0.003763281332039584894 ) ) ;
#197 = CARTESIAN_POINT ( 'NONE',  ( -1.600300296026362146, 0.000000000000000000, -6.711585498657679061 ) ) ;
#198 = CARTESIAN_POINT ( 'NONE',  ( 1.511015349438133981, 1.000000000000000888, -11.88323800565323651 ) ) ;
#199 = CARTESIAN_POINT ( 'NONE',  ( -7.190264876957575879, 1.000000000000000888, -8.791091934297307731 ) ) ;
#200 = EDGE_CURVE ( 'NONE', #607, #279, #410, .T. ) ;
#201 =( NAMED_UNIT ( * ) PLANE_ANGLE_UNIT ( ) SI_UNIT ( $, .RADIAN. ) );
#202 = CARTESIAN_POINT ( 'NONE',  ( -8.000000000000000000, 13.07106959750362485, 1.600000000000000089 ) ) ;
#203 = CARTESIAN_POINT ( 'NONE',  ( 5.499999393348744547, 1.000000000000000888, -0.003763281332039584894 ) ) ;
#204 = VECTOR ( 'NONE', #427, 1000.000000000000000 ) ;
#205 = CARTESIAN_POINT ( 'NONE',  ( -10.49999914905596832, 0.000000000000000000, -0.7359638186501908930 ) ) ;
#206 = CARTESIAN_POINT ( 'NONE',  ( -4.894788254288685359, 0.000000000000000000, -3.201867658351858381 ) ) ;
#207 = CARTESIAN_POINT ( 'NONE',  ( 0.4220155761223010615, 0.000000000000000000, -6.998798951632180909 ) ) ;
#208 = CARTESIAN_POINT ( 'NONE',  ( -2.876665621630543512, 1.000000000000000888, -11.55063419507986211 ) ) ;
#209 = EDGE_CURVE ( 'NONE', #546, #569, #343, .T. ) ;
#210 = CARTESIAN_POINT ( 'NONE',  ( -8.135077959936166891, 1.000000000000000888, -7.639552165312990972 ) ) ;
#211 = DIRECTION ( 'NONE',  ( 0.000000000000000000, 1.000000000000000000, 0.000000000000000000 ) ) ;
#212 = ORIENTED_EDGE ( 'NONE', *, *, #592, .F. ) ;
#213 = CARTESIAN_POINT ( 'NONE',  ( -9.536176060422212331, 1.000000000000000888, -5.046879916835832702 ) ) ;
#214 = FACE_OUTER_BOUND ( 'NONE', #353, .T. ) ;
#215 = FACE_OUTER_BOUND ( 'NONE', #553, .T. ) ;
#216 = ORIENTED_EDGE ( 'NONE', *, *, #290, .F. ) ;
#217 = CARTESIAN_POINT ( 'NONE',  ( -3.869037163426433779, 1.000000000000000888, -4.974763449339322463 ) ) ;
#218 = AXIS2_PLACEMENT_3D ( 'NONE', #68, #82, #587 ) ;
#219 = DIRECTION ( 'NONE',  ( -0.000000000000000000, -1.000000000000000000, -0.000000000000000000 ) ) ;
#220 = ORIENTED_EDGE ( 'NONE', *, *, #175, .T. ) ;
#221 = CARTESIAN_POINT ( 'NONE',  ( -1.009838838191978505, 1.000000000000000888, -6.883573938702106432 ) ) ;
#222 =( NAMED_UNIT ( * ) SI_UNIT ( $, .STERADIAN. ) SOLID_ANGLE_UNIT ( ) );
#223 = DIRECTION ( 'NONE',  ( 0.000000000000000000, 1.000000000000000000, -0.000000000000000000 ) ) ;
#224 = ORIENTED_EDGE ( 'NONE', *, *, #140, .F. ) ;
#225 = LINE ( 'NONE', #557, #639 ) ;
#226 = CARTESIAN_POINT ( 'NONE',  ( -10.49999999963562658, 1.000000000000000888, -2.889350586251427255E-06 ) ) ;
#227 = EDGE_LOOP ( 'NONE', ( #357, #181 ) ) ;
#228 = CARTESIAN_POINT ( 'NONE',  ( 10.49980268575682096, 0.000000000000000000, -0.7459957266018961697 ) ) ;
#229 = AXIS2_PLACEMENT_3D ( 'NONE', #613, #34, #287 ) ;
#230 = ADVANCED_FACE ( 'NONE', ( #421 ), #606, .F. ) ;
#231 = CARTESIAN_POINT ( 'NONE',  ( 0.000000000000000000, 0.000000000000000000, 0.000000000000000000 ) ) ;
#232 = PRODUCT_DEFINITION_FORMATION_WITH_SPECIFIED_SOURCE ( 'ANY', '', #691, .NOT_KNOWN. ) ;
#233 = CARTESIAN_POINT ( 'NONE',  ( 9.540326727377239635, 0.000000000000000000, -5.036330245683756424 ) ) ;
#234 = ORIENTED_EDGE ( 'NONE', *, *, #719, .T. ) ;
#235 = PRODUCT_DEFINITION ( 'UNKNOWN', '', #232, #539 ) ;
#236 = CARTESIAN_POINT ( 'NONE',  ( 10.49999983791485114, 0.000000000000000000, -0.002438332365371125368 ) ) ;
#237 = VERTEX_POINT ( 'NONE', #275 ) ;
#238 = CARTESIAN_POINT ( 'NONE',  ( 1.511015349438133981, 0.000000000000000000, -11.88323800565323651 ) ) ;
#239 = CARTESIAN_POINT ( 'NONE',  ( 0.4220155761223010615, 1.000000000000000888, -6.998798951632180909 ) ) ;
#240 = ORIENTED_EDGE ( 'NONE', *, *, #140, .T. ) ;
#241 = CARTESIAN_POINT ( 'NONE',  ( 10.49980268575682096, 1.000000000000000888, -0.7459957266018961697 ) ) ;
#242 = CARTESIAN_POINT ( 'NONE',  ( -0.1926548194723080309, 0.000000000000000000, -7.000574023956841252 ) ) ;
#243 = ORIENTED_EDGE ( 'NONE', *, *, #172, .T. ) ;
#244 = LINE ( 'NONE', #375, #481 ) ;
#245 = FACE_BOUND ( 'NONE', #170, .T. ) ;
#246 = CARTESIAN_POINT ( 'NONE',  ( -3.005071060919619619, 0.000000000000000000, -5.852256862770428114 ) ) ;
#247 = CARTESIAN_POINT ( 'NONE',  ( 8.000000000000000000, 13.07106959750362485, 1.600000000000001865 ) ) ;
#248 = CARTESIAN_POINT ( 'NONE',  ( 4.956760800592901361, 0.000000000000000000, -10.61736609097811979 ) ) ;
#249 = CARTESIAN_POINT ( 'NONE',  ( 0.7755417716664427807, 0.000000000000000000, -11.97482459543524769 ) ) ;
#250 = CARTESIAN_POINT ( 'NONE',  ( 5.212435780217543169, 0.000000000000000000, -2.228843264896993137 ) ) ;
#251 = CARTESIAN_POINT ( 'NONE',  ( -3.869037163426433779, 0.000000000000000000, -4.974763449339322463 ) ) ;
#252 = CARTESIAN_POINT ( 'NONE',  ( 10.44009027089468766, 1.000000000000000888, -1.478888197873154065 ) ) ;
#253 = DIRECTION ( 'NONE',  ( -0.000000000000000000, -1.000000000000000000, -0.000000000000000000 ) ) ;
#254 = EDGE_CURVE ( 'NONE', #25, #804, #98, .T. ) ;
#255 = CARTESIAN_POINT ( 'NONE',  ( 5.499735981486713499, 1.000000000000000888, -0.4141583174628524766 ) ) ;
#256 = CIRCLE ( 'NONE', #189, 2.500000631318421096 ) ;
#257 = CARTESIAN_POINT ( 'NONE',  ( -4.546228914269300425, 0.000000000000000000, -3.941969482909252420 ) ) ;
#258 = COLOUR_RGB ( '',0.7921568627450980005, 0.8196078431372548767, 0.9333333333333333481 ) ;
#259 = CARTESIAN_POINT ( 'NONE',  ( -1.435514372653784454, 1.000000000000000888, -11.91769583533104537 ) ) ;
#260 = AXIS2_PLACEMENT_3D ( 'NONE', #149, #278, #344 ) ;
#261 = CARTESIAN_POINT ( 'NONE',  ( 3.962545395994085062, 1.000000000000000888, -11.12458353204228523 ) ) ;
#262 =( LENGTH_UNIT ( ) NAMED_UNIT ( * ) SI_UNIT ( .MILLI., .METRE. ) );
#263 = CARTESIAN_POINT ( 'NONE',  ( 4.923326169898398774, 0.000000000000000000, -3.212488541385532415 ) ) ;
#264 = CARTESIAN_POINT ( 'NONE',  ( -4.895066292112333350, 1.000000000000000888, -10.65399400026256949 ) ) ;
#265 = CARTESIAN_POINT ( 'NONE',  ( -8.545059085261010878, 1.000000000000000888, -7.026737178143571683 ) ) ;
#266 = CYLINDRICAL_SURFACE ( 'NONE', #85, 1.600000000000000089 ) ;
#267 = DIRECTION ( 'NONE',  ( 0.000000000000000000, 1.000000000000000000, -0.000000000000000000 ) ) ;
#268 = CARTESIAN_POINT ( 'NONE',  ( -9.670579226919668869, 1.000000000000000888, -4.699363105424130715 ) ) ;
#269 = CARTESIAN_POINT ( 'NONE',  ( -3.907222565137841386, 1.000000000000000888, -11.14987783018130152 ) ) ;
#270 = DIRECTION ( 'NONE',  ( -0.000000000000000000, -1.000000000000000000, -0.000000000000000000 ) ) ;
#271 = LINE ( 'NONE', #747, #666 ) ;
#272 = CARTESIAN_POINT ( 'NONE',  ( 8.000000000000000000, 0.000000000000000000, -1.600000000000001865 ) ) ;
#273 = CIRCLE ( 'NONE', #680, 1.600000000000001865 ) ;
#274 = CARTESIAN_POINT ( 'NONE',  ( 3.870238625396473342, 1.000000000000000888, -4.958462514997507675 ) ) ;
#275 = CARTESIAN_POINT ( 'NONE',  ( -8.000000000000000000, 6.000000000000000000, -1.600000000000000089 ) ) ;
#276 = CARTESIAN_POINT ( 'NONE',  ( -8.135077959936166891, 0.000000000000000000, -7.639552165312990972 ) ) ;
#277 = CARTESIAN_POINT ( 'NONE',  ( -4.546228914269300425, 1.000000000000000888, -3.941969482909252420 ) ) ;
#278 = DIRECTION ( 'NONE',  ( -0.000000000000000000, -1.000000000000000000, -0.000000000000000000 ) ) ;
#279 = VERTEX_POINT ( 'NONE', #673 ) ;
#280 = CARTESIAN_POINT ( 'NONE',  ( -8.000000000000000000, 0.000000000000000000, 2.500000315477858059 ) ) ;
#281 = B_SPLINE_CURVE_WITH_KNOTS ( 'NONE', 3,
 ( #521, #578, #775, #145, #194, #389, #401, #139, #655, #263, #783, #320, #454, #646, #724, #779, #650, #73, #771, #533, #4, #833, #207, #67, #582, #467, #135, #197, #63, #720, #710, #586, #59, #190, #251, #450, #257, #715, #393, #131, #595, #324, #8, #329, #315, #590 ),
 .UNSPECIFIED., .F., .F.,
 ( 4, 2, 2, 2, 2, 2, 2, 2, 2, 2, 2, 2, 2, 2, 2, 2, 2, 2, 2, 2, 2, 2, 4 ),
 ( 0.2498567275948675170, 0.2499999999999993894, 0.2812499999999993339, 0.2968749999999993339, 0.3124999999999993339, 0.3749999999999993339, 0.3906249999999993339, 0.4062499999999993339, 0.4218749999999993339, 0.4374999999999993339, 0.4687499999999993894, 0.4999999999999993339, 0.5156249999999993339, 0.5312499999999992228, 0.5624999999999992228, 0.5781249999999992228, 0.5937499999999991118, 0.6249999999999991118, 0.6562499999999992228, 0.6874999999999992228, 0.7187499999999992228, 0.7499999999999992228, 0.7500472925508198108 ),
 .UNSPECIFIED. ) ;
#282 = APPLICATION_PROTOCOL_DEFINITION ( 'draft international standard', 'automotive_design', 1998, #795 ) ;
#283 = DIRECTION ( 'NONE',  ( -0.000000000000000000, -1.000000000000000000, -0.000000000000000000 ) ) ;
#284 = ORIENTED_EDGE ( 'NONE', *, *, #200, .F. ) ;
#285 = STYLED_ITEM ( 'NONE', ( #600 ), #829 ) ;
#286 = CARTESIAN_POINT ( 'NONE',  ( 0.4220155761223010615, 1.000000000000000888, -6.998798951632180909 ) ) ;
#287 = DIRECTION ( 'NONE',  ( 0.000000000000000000, 0.000000000000000000, 1.000000000000000000 ) ) ;
#288 = ORIENTED_EDGE ( 'NONE', *, *, #567, .T. ) ;
#289 = CARTESIAN_POINT ( 'NONE',  ( 8.000000000000000000, 0.000000000000000000, 0.000000000000000000 ) ) ;
#290 = EDGE_CURVE ( 'NONE', #637, #237, #6, .T. ) ;
#291 = DIRECTION ( 'NONE',  ( 0.000000000000000000, 1.000000000000000000, 0.000000000000000000 ) ) ;
#292 = VERTEX_POINT ( 'NONE', #165 ) ;
#293 = EDGE_CURVE ( 'NONE', #618, #162, #137, .T. ) ;
#294 = CARTESIAN_POINT ( 'NONE',  ( -5.499999999151769181, 1.000000000000000888, -0.0006221358241614574017 ) ) ;
#295 = CARTESIAN_POINT ( 'NONE',  ( 10.44009027089468766, 0.000000000000000000, -1.478888197873154065 ) ) ;
#296 = EDGE_LOOP ( 'NONE', ( #284, #104, #549, #753, #474, #810 ) ) ;
#297 = CARTESIAN_POINT ( 'NONE',  ( 5.500000278514980856, 2.999999999999999112, -1.704671552567005142E-05 ) ) ;
#298 = AXIS2_PLACEMENT_3D ( 'NONE', #352, #219, #484 ) ;
#299 = PRODUCT_CONTEXT ( 'NONE', #795, 'mechanical' ) ;
#300 = CLOSED_SHELL ( 'NONE', ( #750, #408, #29, #230, #542, #537, #797, #380, #744, #834, #769, #825, #830, #57 ) ) ;
#301 = ORIENTED_EDGE ( 'NONE', *, *, #598, .T. ) ;
#302 = CARTESIAN_POINT ( 'NONE',  ( 6.685802305891703767, 0.000000000000000000, -9.271029473083745032 ) ) ;
#303 = ORIENTED_EDGE ( 'NONE', *, *, #567, .F. ) ;
#304 = CARTESIAN_POINT ( 'NONE',  ( 8.000000000000000000, 13.07106959750362485, -1.600000000000001865 ) ) ;
#305 = CARTESIAN_POINT ( 'NONE',  ( 5.471179013169685135, 1.000000000000000888, -0.8202718517362281858 ) ) ;
#306 = LINE ( 'NONE', #366, #625 ) ;
#307 = CARTESIAN_POINT ( 'NONE',  ( -2.876665621630543512, 0.000000000000000000, -11.55063419507986211 ) ) ;
#308 = CARTESIAN_POINT ( 'NONE',  ( 6.414928607590036691, 1.000000000000000888, -9.517554988556812035 ) ) ;
#309 = CIRCLE ( 'NONE', #748, 2.500000631318421096 ) ;
#310 = CARTESIAN_POINT ( 'NONE',  ( -3.005071060919619619, 1.000000000000000888, -5.852256862770428114 ) ) ;
#311 = DIRECTION ( 'NONE',  ( 0.000000000000000000, 0.000000000000000000, -1.000000000000000000 ) ) ;
#312 = CARTESIAN_POINT ( 'NONE',  ( 8.560654481966940565, 1.000000000000000888, -7.001172518388175448 ) ) ;
#313 = CARTESIAN_POINT ( 'NONE',  ( 8.155340844349451501, 1.000000000000000888, -7.610685995844232998 ) ) ;
#314 = CARTESIAN_POINT ( 'NONE',  ( 5.349759145252581227, 1.000000000000000888, -1.627024985997544748 ) ) ;
#315 = CARTESIAN_POINT ( 'NONE',  ( -5.499999999151769181, 0.000000000000000000, -0.0006221358241614574017 ) ) ;
#316 = CARTESIAN_POINT ( 'NONE',  ( 3.962545395994085062, 0.000000000000000000, -11.12458353204228523 ) ) ;
#317 = EDGE_CURVE ( 'NONE', #755, #807, #493, .T. ) ;
#318 = DIRECTION ( 'NONE',  ( 0.000000000000000000, -0.000000000000000000, -1.000000000000000000 ) ) ;
#319 = CARTESIAN_POINT ( 'NONE',  ( 5.499735981486713499, 0.000000000000000000, -0.4141583174628524766 ) ) ;
#320 = CARTESIAN_POINT ( 'NONE',  ( 3.996389805603262513, 0.000000000000000000, -4.793699164916830568 ) ) ;
#321 = CARTESIAN_POINT ( 'NONE',  ( -9.075835464952941578, 1.000000000000000888, -6.057674585434098091 ) ) ;
#322 = CARTESIAN_POINT ( 'NONE',  ( 5.567555122179086879, 1.000000000000000888, -10.21266409334464953 ) ) ;
#323 = CARTESIAN_POINT ( 'NONE',  ( 5.385498417725778530, 1.000000000000000888, -1.425795032384962635 ) ) ;
#324 = CARTESIAN_POINT ( 'NONE',  ( -5.471516974596377203, 0.000000000000000000, -0.8178999945701421748 ) ) ;
#325 = EDGE_CURVE ( 'NONE', #406, #749, #70, .T. ) ;
#326 = CARTESIAN_POINT ( 'NONE',  ( 0.7755417716664427807, 1.000000000000000888, -11.97482459543524769 ) ) ;
#327 = CARTESIAN_POINT ( 'NONE',  ( -9.075835464952941578, 1.000000000000000888, -6.057674585434098091 ) ) ;
#328 = CARTESIAN_POINT ( 'NONE',  ( -8.000000000000000000, 0.000000000000000000, 1.600000000000000089 ) ) ;
#329 = CARTESIAN_POINT ( 'NONE',  ( -5.499999934145172631, 0.000000000000000000, -0.001240578466436842052 ) ) ;
#330 = CARTESIAN_POINT ( 'NONE',  ( -10.49999999963562658, 1.000000000000000888, -2.889350586251427255E-06 ) ) ;
#331 = CARTESIAN_POINT ( 'NONE',  ( -2.876665621630543512, 1.000000000000000888, -11.55063419507986211 ) ) ;
#332 = CARTESIAN_POINT ( 'NONE',  ( -5.356586527893155925, 0.000000000000000000, -1.630104980113234125 ) ) ;
#333 = CARTESIAN_POINT ( 'NONE',  ( 8.000000000000000000, 1.000000000000000000, 0.000000000000000000 ) ) ;
#334 = ORIENTED_EDGE ( 'NONE', *, *, #561, .T. ) ;
#335 = CARTESIAN_POINT ( 'NONE',  ( -8.000000000000000000, 0.000000000000000000, -1.600000000000000089 ) ) ;
#336 = CARTESIAN_POINT ( 'NONE',  ( -9.670579226919668869, 1.000000000000000888, -4.699363105424130715 ) ) ;
#337 = FACE_OUTER_BOUND ( 'NONE', #685, .T. ) ;
#338 = CARTESIAN_POINT ( 'NONE',  ( 8.000000000000000000, 13.07106959750362485, 0.000000000000000000 ) ) ;
#339 = AXIS2_PLACEMENT_3D ( 'NONE', #512, #48, #311 ) ;
#340 = FACE_OUTER_BOUND ( 'NONE', #113, .T. ) ;
#341 = AXIS2_PLACEMENT_3D ( 'NONE', #660, #78, #394 ) ;
#342 = CARTESIAN_POINT ( 'NONE',  ( -9.238611005058062986, 0.000000000000000000, -5.726270119976924811 ) ) ;
#343 = CIRCLE ( 'NONE', #260, 2.500000315477858059 ) ;
#344 = DIRECTION ( 'NONE',  ( 0.000000000000000000, 0.000000000000000000, 1.000000000000000000 ) ) ;
#345 = ORIENTED_EDGE ( 'NONE', *, *, #719, .F. ) ;
#346 = CARTESIAN_POINT ( 'NONE',  ( -5.524723203590326648, 1.000000000000000888, -10.24354863244697711 ) ) ;
#347 = DIRECTION ( 'NONE',  ( 0.000000000000000000, 0.000000000000000000, -1.000000000000000000 ) ) ;
#348 = CARTESIAN_POINT ( 'NONE',  ( -8.000000000000000000, 6.000000000000000000, 0.000000000000000000 ) ) ;
#349 = VERTEX_POINT ( 'NONE', #226 ) ;
#350 = CARTESIAN_POINT ( 'NONE',  ( 5.567555122179086879, 0.000000000000000000, -10.21266409334464953 ) ) ;
#351 = SHAPE_DEFINITION_REPRESENTATION ( #363, #33 ) ;
#352 = CARTESIAN_POINT ( 'NONE',  ( -8.000000000000000000, 0.000000000000000000, 0.000000000000000000 ) ) ;
#353 = EDGE_LOOP ( 'NONE', ( #741, #41, #697, #734, #758, #500 ) ) ;
#354 = CIRCLE ( 'NONE', #152, 2.500000631318421096 ) ;
#355 = CARTESIAN_POINT ( 'NONE',  ( -5.500000311956138255, 2.999999999999999112, -3.683678840162555247E-06 ) ) ;
#356 = DIRECTION ( 'NONE',  ( 0.000000000000000000, 0.000000000000000000, 1.000000000000000000 ) ) ;
#357 = ORIENTED_EDGE ( 'NONE', *, *, #293, .T. ) ;
#358 = CARTESIAN_POINT ( 'NONE',  ( 10.50000000077543838, 0.000000000000000000, -0.001222629590643526526 ) ) ;
#359 = CARTESIAN_POINT ( 'NONE',  ( 1.872661202614679832, 0.000000000000000000, -11.81590800982335310 ) ) ;
#360 = VERTEX_POINT ( 'NONE', #792 ) ;
#361 = CARTESIAN_POINT ( 'NONE',  ( 2.522674169099231367, 1.000000000000000888, -6.213197923264572431 ) ) ;
#362 = ORIENTED_EDGE ( 'NONE', *, *, #418, .F. ) ;
#363 = PRODUCT_DEFINITION_SHAPE ( 'NONE', 'NONE',  #235 ) ;
#364 = DIRECTION ( 'NONE',  ( 0.000000000000000000, 1.000000000000000000, -0.000000000000000000 ) ) ;
#365 = VECTOR ( 'NONE', #490, 1000.000000000000000 ) ;
#366 = CARTESIAN_POINT ( 'NONE',  ( -8.000000000000000000, 13.07106959750362485, -2.500000631318421096 ) ) ;
#367 = CARTESIAN_POINT ( 'NONE',  ( -2.519406308149578777, 0.000000000000000000, -11.65883085367924110 ) ) ;
#368 = B_SPLINE_SURFACE_WITH_KNOTS ( 'NONE', 3, 1, ( 
 ( #764, #777 ),
 ( #187, #640 ),
 ( #115, #572 ),
 ( #518, #56 ),
 ( #445, #295 ),
 ( #372, #752 ),
 ( #773, #707 ),
 ( #713, #496 ),
 ( #831, #233 ),
 ( #129, #620 ),
 ( #61, #768 ),
 ( #452, #387 ),
 ( #313, #51 ),
 ( #584, #125 ),
 ( #644, #510 ),
 ( #648, #580 ),
 ( #308, #65 ),
 ( #322, #183 ),
 ( #558, #7 ),
 ( #261, #40 ),
 ( #376, #168 ),
 ( #425, #428 ),
 ( #683, #824 ),
 ( #103, #359 ),
 ( #441, #702 ),
 ( #119, #249 ),
 ( #75, #133 ),
 ( #605, #84 ),
 ( #90, #151 ),
 ( #794, #14 ),
 ( #331, #671 ),
 ( #726, #543 ),
 ( #269, #475 ),
 ( #661, #593 ),
 ( #346, #599 ),
 ( #717, #665 ),
 ( #199, #399 ),
 ( #210, #276 ),
 ( #265, #403 ),
 ( #327, #395 ),
 ( #79, #342 ),
 ( #213, #138 ),
 ( #336, #735 ),
 ( #608, #71 ),
 ( #658, #470 ),
 ( #409, #142 ),
 ( #148, #205 ),
 ( #526, #26 ) ),
 .UNSPECIFIED., .F., .F., .F.,
 ( 4, 2, 2, 2, 2, 2, 2, 2, 2, 2, 2, 2, 2, 2, 2, 2, 2, 2, 2, 2, 2, 2, 2, 4 ),
 ( 2, 2 ),
 ( 0.2499488221145889644, 0.2499999999999989453, 0.2812499999999988898, 0.3124999999999987788, 0.3281249999999987788, 0.3437499999999987232, 0.3749999999999986677, 0.3906249999999986122, 0.4062499999999986122, 0.4374999999999985012, 0.4531249999999985567, 0.4687499999999985567, 0.4843749999999986122, 0.4999999999999985567, 0.5312499999999985567, 0.5468749999999986677, 0.5624999999999986677, 0.5937499999999986677, 0.6249999999999986677, 0.6562499999999987788, 0.6718749999999987788, 0.6874999999999987788, 0.7187499999999990008, 0.7499891142737986627 ),
 ( 0.000000000000000000, 1.000000000000000000 ),
 .UNSPECIFIED. ) ;
#369 = CARTESIAN_POINT ( 'NONE',  ( 3.870238625396473342, 0.000000000000000000, -4.958462514997507675 ) ) ;
#370 = ORIENTED_EDGE ( 'NONE', *, *, #112, .F. ) ;
#371 = DIRECTION ( 'NONE',  ( -0.000000000000000000, -1.000000000000000000, -0.000000000000000000 ) ) ;
#372 = CARTESIAN_POINT ( 'NONE',  ( 10.20516804252454435, 1.000000000000000888, -2.924188310503295529 ) ) ;
#373 = CARTESIAN_POINT ( 'NONE',  ( 5.263350216612317389, 1.000000000000000888, -2.028213969412615558 ) ) ;
#374 = ORIENTED_EDGE ( 'NONE', *, *, #592, .T. ) ;
#375 = CARTESIAN_POINT ( 'NONE',  ( -8.000000000000000000, 13.07106959750362485, 2.500000631318421096 ) ) ;
#376 = CARTESIAN_POINT ( 'NONE',  ( 3.622896473634930725, 1.000000000000000888, -11.27419933637646920 ) ) ;
#377 = AXIS2_PLACEMENT_3D ( 'NONE', #603, #211, #21 ) ;
#378 = CARTESIAN_POINT ( 'NONE',  ( 3.172355075874639052, 0.000000000000000000, -5.706356925943670610 ) ) ;
#379 = DIRECTION ( 'NONE',  ( 0.000000000000000000, 1.000000000000000000, 0.000000000000000000 ) ) ;
#380 = ADVANCED_FACE ( 'NONE', ( #552 ), #491, .T. ) ;
#381 = CARTESIAN_POINT ( 'NONE',  ( -4.895066292112333350, 0.000000000000000000, -10.65399400026256949 ) ) ;
#382 = FACE_OUTER_BOUND ( 'NONE', #799, .T. ) ;
#383 = EDGE_CURVE ( 'NONE', #279, #607, #354, .T. ) ;
#384 = CARTESIAN_POINT ( 'NONE',  ( -3.605869825397647332, 0.000000000000000000, -5.287272842732679834 ) ) ;
#385 = CARTESIAN_POINT ( 'NONE',  ( 8.000000000000000000, 6.000000000000000000, 1.600000000000001865 ) ) ;
#386 = CARTESIAN_POINT ( 'NONE',  ( 6.685802305891703767, 1.000000000000000888, -9.271029473083745032 ) ) ;
#387 = CARTESIAN_POINT ( 'NONE',  ( 8.560654481966940565, 0.000000000000000000, -7.001172518388175448 ) ) ;
#388 = CARTESIAN_POINT ( 'NONE',  ( 3.870238625396473342, 1.000000000000000888, -4.958462514997507675 ) ) ;
#389 = CARTESIAN_POINT ( 'NONE',  ( 5.385498417725778530, 0.000000000000000000, -1.425795032384962635 ) ) ;
#390 = CARTESIAN_POINT ( 'NONE',  ( 8.000000000000000000, 0.000000000000000000, 1.600000000000001865 ) ) ;
#391 = CARTESIAN_POINT ( 'NONE',  ( 5.385498417725778530, 1.000000000000000888, -1.425795032384962635 ) ) ;
#392 = DIRECTION ( 'NONE',  ( 0.000000000000000000, 0.000000000000000000, -1.000000000000000000 ) ) ;
#393 = CARTESIAN_POINT ( 'NONE',  ( -5.038453937012159933, 0.000000000000000000, -2.820314126744672301 ) ) ;
#394 = DIRECTION ( 'NONE',  ( 0.000000000000000000, 0.000000000000000000, -1.000000000000000000 ) ) ;
#395 = CARTESIAN_POINT ( 'NONE',  ( -9.075835464952941578, 0.000000000000000000, -6.057674585434098091 ) ) ;
#396 =( NAMED_UNIT ( * ) SI_UNIT ( $, .STERADIAN. ) SOLID_ANGLE_UNIT ( ) );
#397 = LINE ( 'NONE', #202, #708 ) ;
#398 = CARTESIAN_POINT ( 'NONE',  ( -10.49999914905596832, 1.000000000000000888, -0.7359638186501908930 ) ) ;
#399 = CARTESIAN_POINT ( 'NONE',  ( -7.190264876957575879, 0.000000000000000000, -8.791091934297307731 ) ) ;
#400 = SURFACE_STYLE_FILL_AREA ( #134 ) ;
#401 = CARTESIAN_POINT ( 'NONE',  ( 5.349759145252581227, 0.000000000000000000, -1.627024985997544748 ) ) ;
#402 = CARTESIAN_POINT ( 'NONE',  ( -0.7051916428148951033, 1.000000000000000888, -12.00256561193822691 ) ) ;
#403 = CARTESIAN_POINT ( 'NONE',  ( -8.545059085261010878, 0.000000000000000000, -7.026737178143571683 ) ) ;
#404 = CARTESIAN_POINT ( 'NONE',  ( -5.499999999152770158, 0.000000000000000000, -0.0006221263002504384167 ) ) ;
#405 = DIRECTION ( 'NONE',  ( 0.000000000000000000, 0.000000000000000000, 1.000000000000000000 ) ) ;
#406 = VERTEX_POINT ( 'NONE', #798 ) ;
#407 = AXIS2_PLACEMENT_3D ( 'NONE', #531, #19, #347 ) ;
#408 = ADVANCED_FACE ( 'NONE', ( #215 ), #663, .F. ) ;
#409 = CARTESIAN_POINT ( 'NONE',  ( -10.44004641984199289, 1.000000000000000888, -1.481696219090143041 ) ) ;
#410 = CIRCLE ( 'NONE', #628, 2.500000631318421096 ) ;
#411 = CYLINDRICAL_SURFACE ( 'NONE', #668, 2.500000631318421096 ) ;
#412 = EDGE_CURVE ( 'NONE', #237, #755, #417, .T. ) ;
#413 = DIRECTION ( 'NONE',  ( 0.000000000000000000, 0.000000000000000000, 1.000000000000000000 ) ) ;
#414 = ORIENTED_EDGE ( 'NONE', *, *, #254, .T. ) ;
#415 = B_SPLINE_CURVE_WITH_KNOTS ( 'NONE', 3,
 ( #746, #358, #236, #228, #44, #560, #157, #494, #675, #167, #815, #498, #754, #690, #171, #302, #800, #350, #248, #316, #444, #763, #634, #504, #238, #638, #817, #570, #705, #367, #307, #436, #566, #381, #823, #110, #114, #564, #191, #451, #701, #835, #501, #575, #513, #182, #440, #118 ),
 .UNSPECIFIED., .F., .F.,
 ( 4, 2, 2, 2, 2, 2, 2, 2, 2, 2, 2, 2, 2, 2, 2, 2, 2, 2, 2, 2, 2, 2, 2, 4 ),
 ( 0.2499488221146220490, 0.2499999999999989453, 0.2812499999999988898, 0.3124999999999987788, 0.3281249999999987788, 0.3437499999999987232, 0.3749999999999986677, 0.3906249999999986122, 0.4062499999999986122, 0.4374999999999985012, 0.4531249999999985567, 0.4687499999999985567, 0.4843749999999986122, 0.4999999999999985567, 0.5312499999999985567, 0.5468749999999986677, 0.5624999999999986677, 0.5937499999999986677, 0.6249999999999986677, 0.6562499999999987788, 0.6718749999999987788, 0.6874999999999987788, 0.7187499999999990008, 0.7499891142737986627 ),
 .UNSPECIFIED. ) ;
#416 = CARTESIAN_POINT ( 'NONE',  ( -8.000000000000000000, 6.000000000000000000, 2.500000631318421096 ) ) ;
#417 = LINE ( 'NONE', #155, #786 ) ;
#418 = EDGE_CURVE ( 'NONE', #618, #749, #743, .T. ) ;
#419 = ORIENTED_EDGE ( 'NONE', *, *, #23, .F. ) ;
#420 = CARTESIAN_POINT ( 'NONE',  ( -8.000000000000000000, 1.000000000000000000, -2.500000631318421096 ) ) ;
#421 = FACE_OUTER_BOUND ( 'NONE', #503, .T. ) ;
#422 = ORIENTED_EDGE ( 'NONE', *, *, #317, .F. ) ;
#423 = CIRCLE ( 'NONE', #229, 1.600000000000001865 ) ;
#424 = CARTESIAN_POINT ( 'NONE',  ( -2.510167712197714618, 1.000000000000000888, -6.221469906961984542 ) ) ;
#425 = CARTESIAN_POINT ( 'NONE',  ( 2.934342888565748542, 1.000000000000000888, -11.53168849008528696 ) ) ;
#426 = ORIENTED_EDGE ( 'NONE', *, *, #629, .F. ) ;
#427 = DIRECTION ( 'NONE',  ( -0.000000000000000000, -1.000000000000000000, -0.000000000000000000 ) ) ;
#428 = CARTESIAN_POINT ( 'NONE',  ( 2.934342888565748542, 0.000000000000000000, -11.53168849008528696 ) ) ;
#429 = ORIENTED_EDGE ( 'NONE', *, *, #412, .T. ) ;
#430 = CARTESIAN_POINT ( 'NONE',  ( -0.1926548194723080309, 1.000000000000000888, -7.000574023956841252 ) ) ;
#431 = CARTESIAN_POINT ( 'NONE',  ( 8.000000000000000000, 0.000000000000000000, 2.500000328059993837 ) ) ;
#432 = CARTESIAN_POINT ( 'NONE',  ( 9.085314510874384908, 1.000000000000000888, -6.038841064491345278 ) ) ;
#433 = AXIS2_PLACEMENT_3D ( 'NONE', #92, #291, #540 ) ;
#434 = CARTESIAN_POINT ( 'NONE',  ( -0.4007047150011339709, 0.000000000000000000, -6.986021196211630091 ) ) ;
#435 = EDGE_LOOP ( 'NONE', ( #497, #374, #621, #173, #738, #362 ) ) ;
#436 = CARTESIAN_POINT ( 'NONE',  ( -3.569510833401821071, 0.000000000000000000, -11.29639672734994704 ) ) ;
#437 = CARTESIAN_POINT ( 'NONE',  ( 3.996389805603262513, 1.000000000000000888, -4.793699164916830568 ) ) ;
#438 = EDGE_CURVE ( 'NONE', #35, #546, #626, .T. ) ;
#439 = ORIENTED_EDGE ( 'NONE', *, *, #200, .T. ) ;
#440 = CARTESIAN_POINT ( 'NONE',  ( -10.49999914905596832, 0.000000000000000000, -0.7359638186501908930 ) ) ;
#441 = CARTESIAN_POINT ( 'NONE',  ( 1.511015349438133981, 1.000000000000000888, -11.88323800565323651 ) ) ;
#442 = CARTESIAN_POINT ( 'NONE',  ( 5.349759145252581227, 0.000000000000000000, -1.627024985997544748 ) ) ;
#443 = ORIENTED_EDGE ( 'NONE', *, *, #476, .F. ) ;
#444 = CARTESIAN_POINT ( 'NONE',  ( 3.622896473634930725, 0.000000000000000000, -11.27419933637646920 ) ) ;
#445 = CARTESIAN_POINT ( 'NONE',  ( 10.44009027089468766, 1.000000000000000888, -1.478888197873154065 ) ) ;
#446 = AXIS2_PLACEMENT_3D ( 'NONE', #766, #379, #700 ) ;
#447 = AXIS2_PLACEMENT_3D ( 'NONE', #635, #1, #318 ) ;
#448 =( GEOMETRIC_REPRESENTATION_CONTEXT ( 3 ) GLOBAL_UNCERTAINTY_ASSIGNED_CONTEXT ( ( #20 ) ) GLOBAL_UNIT_ASSIGNED_CONTEXT ( ( #262, #589, #222 ) ) REPRESENTATION_CONTEXT ( 'NONE', 'WORKASPACE' ) );
#449 = CARTESIAN_POINT ( 'NONE',  ( -3.605869825397647332, 1.000000000000000888, -5.287272842732679834 ) ) ;
#450 = CARTESIAN_POINT ( 'NONE',  ( -4.339036774445019340, 0.000000000000000000, -4.303317979936367443 ) ) ;
#451 = CARTESIAN_POINT ( 'NONE',  ( -9.075835464952941578, 0.000000000000000000, -6.057674585434098091 ) ) ;
#452 = CARTESIAN_POINT ( 'NONE',  ( 8.560654481966940565, 1.000000000000000888, -7.001172518388175448 ) ) ;
#453 = CARTESIAN_POINT ( 'NONE',  ( 0.8275180089444889031, 1.000000000000000888, -6.938502046920370425 ) ) ;
#454 = CARTESIAN_POINT ( 'NONE',  ( 3.870238625396473342, 0.000000000000000000, -4.958462514997507675 ) ) ;
#455 = CARTESIAN_POINT ( 'NONE',  ( -8.135077959936166891, 1.000000000000000888, -7.639552165312990972 ) ) ;
#456 = CARTESIAN_POINT ( 'NONE',  ( 5.499735981486713499, 1.000000000000000888, -0.4141583174628524766 ) ) ;
#457 = CARTESIAN_POINT ( 'NONE',  ( -4.339036774445019340, 0.000000000000000000, -4.303317979936367443 ) ) ;
#458 = DIRECTION ( 'NONE',  ( 0.000000000000000000, 1.000000000000000000, 0.000000000000000000 ) ) ;
#459 = CYLINDRICAL_SURFACE ( 'NONE', #341, 2.500000631318421096 ) ;
#460 = CARTESIAN_POINT ( 'NONE',  ( 8.000000000000000000, 0.000000000000000000, 0.000000000000000000 ) ) ;
#461 = CARTESIAN_POINT ( 'NONE',  ( -5.356586527893155925, 1.000000000000000888, -1.630104980113234125 ) ) ;
#462 = AXIS2_PLACEMENT_3D ( 'NONE', #806, #223, #356 ) ;
#463 = DIRECTION ( 'NONE',  ( -0.000000000000000000, -1.000000000000000000, -0.000000000000000000 ) ) ;
#464 = CYLINDRICAL_SURFACE ( 'NONE', #218, 1.600000000000001865 ) ;
#465 = CARTESIAN_POINT ( 'NONE',  ( 5.212435780217543169, 1.000000000000000888, -2.228843264896993137 ) ) ;
#466 = CARTESIAN_POINT ( 'NONE',  ( -5.038453937012159933, 1.000000000000000888, -2.820314126744672301 ) ) ;
#467 = CARTESIAN_POINT ( 'NONE',  ( -0.8093758335873666443, 0.000000000000000000, -6.927337864460266559 ) ) ;
#468 = ORIENTED_EDGE ( 'NONE', *, *, #418, .T. ) ;
#469 = CARTESIAN_POINT ( 'NONE',  ( -10.02614842180791932, 1.000000000000000888, -3.650312595988312481 ) ) ;
#470 = CARTESIAN_POINT ( 'NONE',  ( -10.20274168105784263, 0.000000000000000000, -2.936550601345009781 ) ) ;
#471 = CARTESIAN_POINT ( 'NONE',  ( -5.269262392170986686, 1.000000000000000888, -2.035969662655130463 ) ) ;
#472 = EDGE_CURVE ( 'NONE', #121, #360, #423, .T. ) ;
#473 = CARTESIAN_POINT ( 'NONE',  ( 0.000000000000000000, 1.000000000000000000, 0.000000000000000000 ) ) ;
#474 = ORIENTED_EDGE ( 'NONE', *, *, #144, .T. ) ;
#475 = CARTESIAN_POINT ( 'NONE',  ( -3.907222565137841386, 0.000000000000000000, -11.14987783018130152 ) ) ;
#476 = EDGE_CURVE ( 'NONE', #611, #349, #614, .T. ) ;
#477 = CARTESIAN_POINT ( 'NONE',  ( -5.499999998240476806, 1.000000000000000888, -3.669393216386955067E-06 ) ) ;
#478 = DIRECTION ( 'NONE',  ( -0.000000000000000000, -1.000000000000000000, -0.000000000000000000 ) ) ;
#479 = VECTOR ( 'NONE', #563, 1000.000000000000000 ) ;
#480 = ORIENTED_EDGE ( 'NONE', *, *, #290, .T. ) ;
#481 = VECTOR ( 'NONE', #371, 1000.000000000000000 ) ;
#482 = CARTESIAN_POINT ( 'NONE',  ( -3.162118205461780907, 1.000000000000000888, -5.715654696622435971 ) ) ;
#483 = EDGE_CURVE ( 'NONE', #349, #569, #617, .T. ) ;
#484 = DIRECTION ( 'NONE',  ( 0.000000000000000000, 0.000000000000000000, 1.000000000000000000 ) ) ;
#485 = ORIENTED_EDGE ( 'NONE', *, *, #23, .T. ) ;
#486 = CARTESIAN_POINT ( 'NONE',  ( -5.356586527893155925, 1.000000000000000888, -1.630104980113234125 ) ) ;
#487 = UNCERTAINTY_MEASURE_WITH_UNIT (LENGTH_MEASURE( 1.000000000000000082E-05 ), #527, 'distance_accuracy_value', 'NONE');
#488 = CARTESIAN_POINT ( 'NONE',  ( 8.000000000000000000, 0.000000000000000000, 0.000000000000000000 ) ) ;
#489 = EDGE_LOOP ( 'NONE', ( #681, #146 ) ) ;
#490 = DIRECTION ( 'NONE',  ( -0.000000000000000000, -1.000000000000000000, -0.000000000000000000 ) ) ;
#491 = PLANE ( 'NONE',  #822 ) ;
#492 = ORIENTED_EDGE ( 'NONE', *, *, #317, .T. ) ;
#493 = CIRCLE ( 'NONE', #54, 1.600000000000000089 ) ;
#494 = CARTESIAN_POINT ( 'NONE',  ( 9.674018174897774713, 0.000000000000000000, -4.690185112185016436 ) ) ;
#495 = CIRCLE ( 'NONE', #124, 1.600000000000000089 ) ;
#496 = CARTESIAN_POINT ( 'NONE',  ( 9.674018174897774713, 0.000000000000000000, -4.690185112185016436 ) ) ;
#497 = ORIENTED_EDGE ( 'NONE', *, *, #656, .F. ) ;
#498 = CARTESIAN_POINT ( 'NONE',  ( 8.560654481966940565, 0.000000000000000000, -7.001172518388175448 ) ) ;
#499 = B_SPLINE_SURFACE_WITH_KNOTS ( 'NONE', 3, 1, ( 
 ( #529, #784 ),
 ( #583, #147 ),
 ( #203, #507 ),
 ( #255, #319 ),
 ( #305, #520 ),
 ( #323, #3 ),
 ( #314, #442 ),
 ( #373, #714 ),
 ( #573, #250 ),
 ( #62, #757 ),
 ( #774, #193 ),
 ( #437, #568 ),
 ( #388, #369 ),
 ( #184, #120 ),
 ( #703, #581 ),
 ( #511, #378 ),
 ( #130, #649 ),
 ( #632, #577 ),
 ( #66, #820 ),
 ( #761, #47 ),
 ( #770, #826 ),
 ( #453, #585 ),
 ( #239, #765 ),
 ( #502, #242 ),
 ( #177, #434 ),
 ( #696, #832 ),
 ( #699, #111 ),
 ( #180, #641 ),
 ( #52, #188 ),
 ( #126, #116 ),
 ( #709, #636 ),
 ( #310, #246 ),
 ( #58, #515 ),
 ( #449, #384 ),
 ( #645, #80 ),
 ( #787, #457 ),
 ( #277, #778 ),
 ( #538, #206 ),
 ( #466, #544 ),
 ( #471, #143 ),
 ( #461, #332 ),
 ( #791, #11 ),
 ( #736, #732 ),
 ( #796, #782 ),
 ( #86, #404 ),
 ( #477, #72 ) ),
 .UNSPECIFIED., .F., .F., .F.,
 ( 4, 2, 2, 2, 2, 2, 2, 2, 2, 2, 2, 2, 2, 2, 2, 2, 2, 2, 2, 2, 2, 2, 4 ),
 ( 2, 2 ),
 ( 0.2498567275948675170, 0.2499999999999993894, 0.2812499999999993339, 0.2968749999999993339, 0.3124999999999993339, 0.3749999999999993339, 0.3906249999999993339, 0.4062499999999993339, 0.4218749999999993339, 0.4374999999999993339, 0.4687499999999993894, 0.4999999999999993339, 0.5156249999999993339, 0.5312499999999992228, 0.5624999999999992228, 0.5781249999999992228, 0.5937499999999991118, 0.6249999999999991118, 0.6562499999999992228, 0.6874999999999992228, 0.7187499999999992228, 0.7499999999999992228, 0.7500472929149684109 ),
 ( 0.000000000000000000, 1.000000000000000000 ),
 .UNSPECIFIED. ) ;
#500 = ORIENTED_EDGE ( 'NONE', *, *, #209, .F. ) ;
#501 = CARTESIAN_POINT ( 'NONE',  ( -9.670579226919668869, 0.000000000000000000, -4.699363105424130715 ) ) ;
#502 = CARTESIAN_POINT ( 'NONE',  ( -0.1926548194723080309, 1.000000000000000888, -7.000574023956841252 ) ) ;
#503 = EDGE_LOOP ( 'NONE', ( #243, #485, #96, #818 ) ) ;
#504 = CARTESIAN_POINT ( 'NONE',  ( 1.872661202614679832, 0.000000000000000000, -11.81590800982335310 ) ) ;
#505 = AXIS2_PLACEMENT_3D ( 'NONE', #338, #158, #81 ) ;
#506 = EDGE_CURVE ( 'NONE', #670, #25, #176, .T. ) ;
#507 = CARTESIAN_POINT ( 'NONE',  ( 5.499999393348744547, 0.000000000000000000, -0.003763281332039584894 ) ) ;
#508 = ORIENTED_EDGE ( 'NONE', *, *, #144, .F. ) ;
#509 = CARTESIAN_POINT ( 'NONE',  ( 10.49999983791485114, 1.000000000000000888, -0.002438332365367818551 ) ) ;
#510 = CARTESIAN_POINT ( 'NONE',  ( 7.204755359862652142, 0.000000000000000000, -8.748811927668301180 ) ) ;
#511 = CARTESIAN_POINT ( 'NONE',  ( 3.172355075874639052, 1.000000000000000888, -5.706356925943670610 ) ) ;
#512 = CARTESIAN_POINT ( 'NONE',  ( 8.000000000000000000, 13.07106959750362485, 0.000000000000000000 ) ) ;
#513 = CARTESIAN_POINT ( 'NONE',  ( -10.20274168105784263, 0.000000000000000000, -2.936550601345009781 ) ) ;
#514 = DIRECTION ( 'NONE',  ( 0.000000000000000000, 0.000000000000000000, 1.000000000000000000 ) ) ;
#515 = CARTESIAN_POINT ( 'NONE',  ( -3.162118205461780907, 0.000000000000000000, -5.715654696622435971 ) ) ;
#516 = DIRECTION ( 'NONE',  ( 0.000000000000000000, 0.000000000000000000, 1.000000000000000000 ) ) ;
#517 = CARTESIAN_POINT ( 'NONE',  ( 9.674018174897774713, 1.000000000000000888, -4.690185112185016436 ) ) ;
#518 = CARTESIAN_POINT ( 'NONE',  ( 10.49980268575682096, 1.000000000000000888, -0.7459957266018961697 ) ) ;
#519 = AXIS2_PLACEMENT_3D ( 'NONE', #231, #102, #32 ) ;
#520 = CARTESIAN_POINT ( 'NONE',  ( 5.471179013169685135, 0.000000000000000000, -0.8202718517362281858 ) ) ;
#521 = CARTESIAN_POINT ( 'NONE',  ( 5.499999975256552709, 0.000000000000000000, -1.704671759349434660E-05 ) ) ;
#522 = CARTESIAN_POINT ( 'NONE',  ( -10.20274168105784263, 1.000000000000000888, -2.936550601345009781 ) ) ;
#523 = CARTESIAN_POINT ( 'NONE',  ( 8.000000000000000000, 0.000000000000000000, 0.000000000000000000 ) ) ;
#524 = DIRECTION ( 'NONE',  ( 0.000000000000000000, 0.000000000000000000, 1.000000000000000000 ) ) ;
#525 = CARTESIAN_POINT ( 'NONE',  ( -8.545059085261010878, 1.000000000000000888, -7.026737178143571683 ) ) ;
#526 = CARTESIAN_POINT ( 'NONE',  ( -10.49999999963562658, 1.000000000000000888, -2.889350586253280139E-06 ) ) ;
#527 =( LENGTH_UNIT ( ) NAMED_UNIT ( * ) SI_UNIT ( .MILLI., .METRE. ) );
#528 = CARTESIAN_POINT ( 'NONE',  ( 8.000000000000000000, 6.000000000000000000, 2.500000631318421096 ) ) ;
#529 = CARTESIAN_POINT ( 'NONE',  ( 5.499999975256552709, 1.000000000000000888, -1.704671410548614822E-05 ) ) ;
#530 = CARTESIAN_POINT ( 'NONE',  ( 4.923326169898398774, 1.000000000000000888, -3.212488541385532415 ) ) ;
#531 = CARTESIAN_POINT ( 'NONE',  ( 8.000000000000000000, 13.07106959750362485, 0.000000000000000000 ) ) ;
#532 = VECTOR ( 'NONE', #548, 1000.000000000000000 ) ;
#533 = CARTESIAN_POINT ( 'NONE',  ( 1.995606210307311112, 0.000000000000000000, -6.533632375821743388 ) ) ;
#534 = ORIENTED_EDGE ( 'NONE', *, *, #112, .T. ) ;
#535 = FACE_BOUND ( 'NONE', #489, .T. ) ;
#536 = CARTESIAN_POINT ( 'NONE',  ( 3.605298225344404361, 1.000000000000000888, -5.272029189298429230 ) ) ;
#537 = ADVANCED_FACE ( 'NONE', ( #192, #245, #382 ), #576, .T. ) ;
#538 = CARTESIAN_POINT ( 'NONE',  ( -4.894788254288685359, 1.000000000000000888, -3.201867658351858381 ) ) ;
#539 = PRODUCT_DEFINITION_CONTEXT ( 'detailed design', #2, 'design' ) ;
#540 = DIRECTION ( 'NONE',  ( 0.000000000000000000, 0.000000000000000000, 1.000000000000000000 ) ) ;
#541 = ORIENTED_EDGE ( 'NONE', *, *, #325, .F. ) ;
#542 = ADVANCED_FACE ( 'NONE', ( #688 ), #368, .F. ) ;
#543 = CARTESIAN_POINT ( 'NONE',  ( -3.569510833401821071, 0.000000000000000000, -11.29639672734994704 ) ) ;
#544 = CARTESIAN_POINT ( 'NONE',  ( -5.038453937012159933, 0.000000000000000000, -2.820314126744672301 ) ) ;
#545 = DIRECTION ( 'NONE',  ( 0.000000000000000000, 1.000000000000000000, 0.000000000000000000 ) ) ;
#546 = VERTEX_POINT ( 'NONE', #280 ) ;
#547 = CARTESIAN_POINT ( 'NONE',  ( 5.500000278514980856, 1.000000000000000888, -1.704671552567005142E-05 ) ) ;
#548 = DIRECTION ( 'NONE',  ( -0.000000000000000000, -1.000000000000000000, -0.000000000000000000 ) ) ;
#549 = ORIENTED_EDGE ( 'NONE', *, *, #438, .F. ) ;
#550 = AXIS2_PLACEMENT_3D ( 'NONE', #523, #812, #514 ) ;
#551 = CARTESIAN_POINT ( 'NONE',  ( 2.693794607804870456, 1.000000000000000888, -6.094438625795506326 ) ) ;
#552 = FACE_OUTER_BOUND ( 'NONE', #692, .T. ) ;
#553 = EDGE_LOOP ( 'NONE', ( #556, #633, #422, #559 ) ) ;
#554 = CARTESIAN_POINT ( 'NONE',  ( -5.038453937012159933, 1.000000000000000888, -2.820314126744672301 ) ) ;
#555 = CARTESIAN_POINT ( 'NONE',  ( 8.000000000000000000, 1.000000000000000000, 0.000000000000000000 ) ) ;
#556 = ORIENTED_EDGE ( 'NONE', *, *, #83, .T. ) ;
#557 = CARTESIAN_POINT ( 'NONE',  ( 8.000000000000000000, 13.07106959750362485, 2.500000631318421096 ) ) ;
#558 = CARTESIAN_POINT ( 'NONE',  ( 4.956760800592901361, 1.000000000000000888, -10.61736609097811979 ) ) ;
#559 = ORIENTED_EDGE ( 'NONE', *, *, #412, .F. ) ;
#560 = CARTESIAN_POINT ( 'NONE',  ( 10.20516804252454435, 0.000000000000000000, -2.924188310503295529 ) ) ;
#561 = EDGE_CURVE ( 'NONE', #762, #729, #164, .T. ) ;
#562 = APPLICATION_PROTOCOL_DEFINITION ( 'draft international standard', 'automotive_design', 1998, #2 ) ;
#563 = DIRECTION ( 'NONE',  ( -0.000000000000000000, -1.000000000000000000, -0.000000000000000000 ) ) ;
#564 = CARTESIAN_POINT ( 'NONE',  ( -8.135077959936166891, 0.000000000000000000, -7.639552165312990972 ) ) ;
#565 = ORIENTED_EDGE ( 'NONE', *, *, #602, .F. ) ;
#566 = CARTESIAN_POINT ( 'NONE',  ( -3.907222565137841386, 0.000000000000000000, -11.14987783018130152 ) ) ;
#567 = EDGE_CURVE ( 'NONE', #89, #292, #718, .T. ) ;
#568 = CARTESIAN_POINT ( 'NONE',  ( 3.996389805603262513, 0.000000000000000000, -4.793699164916830568 ) ) ;
#569 = VERTEX_POINT ( 'NONE', #160 ) ;
#570 = CARTESIAN_POINT ( 'NONE',  ( -0.7051916428148951033, 0.000000000000000000, -12.00256561193822691 ) ) ;
#571 = AXIS2_PLACEMENT_3D ( 'NONE', #460, #22, #785 ) ;
#572 = CARTESIAN_POINT ( 'NONE',  ( 10.49999983791485114, 0.000000000000000000, -0.002438332364585187213 ) ) ;
#573 = CARTESIAN_POINT ( 'NONE',  ( 5.212435780217543169, 1.000000000000000888, -2.228843264896993137 ) ) ;
#574 = FACE_BOUND ( 'NONE', #704, .T. ) ;
#575 = CARTESIAN_POINT ( 'NONE',  ( -10.02614842180791932, 0.000000000000000000, -3.650312595988312481 ) ) ;
#576 = PLANE ( 'NONE',  #447 ) ;
#577 = CARTESIAN_POINT ( 'NONE',  ( 2.693794607804870456, 0.000000000000000000, -6.094438625795506326 ) ) ;
#578 = CARTESIAN_POINT ( 'NONE',  ( 5.499999988029112608, 0.000000000000000000, -0.001890216670787110871 ) ) ;
#579 = CARTESIAN_POINT ( 'NONE',  ( 10.50000063130875816, 1.000000000000000000, -6.951297828258072308E-06 ) ) ;
#580 = CARTESIAN_POINT ( 'NONE',  ( 6.685802305891703767, 0.000000000000000000, -9.271029473083745032 ) ) ;
#581 = CARTESIAN_POINT ( 'NONE',  ( 3.465891816929385083, 0.000000000000000000, -5.421780720147950206 ) ) ;
#582 = CARTESIAN_POINT ( 'NONE',  ( -0.4007047150011339709, 0.000000000000000000, -6.986021196211630091 ) ) ;
#583 = CARTESIAN_POINT ( 'NONE',  ( 5.499999988029112608, 1.000000000000000888, -0.001890216670787110871 ) ) ;
#584 = CARTESIAN_POINT ( 'NONE',  ( 7.454267363263923585, 1.000000000000000888, -8.471245689429917292 ) ) ;
#585 = CARTESIAN_POINT ( 'NONE',  ( 0.8275180089444889031, 0.000000000000000000, -6.938502046920370425 ) ) ;
#586 = CARTESIAN_POINT ( 'NONE',  ( -3.005071060919619619, 0.000000000000000000, -5.852256862770428114 ) ) ;
#587 = DIRECTION ( 'NONE',  ( 0.000000000000000000, 0.000000000000000000, -1.000000000000000000 ) ) ;
#588 = CARTESIAN_POINT ( 'NONE',  ( 5.263350216612317389, 1.000000000000000888, -2.028213969412615558 ) ) ;
#589 =( NAMED_UNIT ( * ) PLANE_ANGLE_UNIT ( ) SI_UNIT ( $, .RADIAN. ) );
#590 = CARTESIAN_POINT ( 'NONE',  ( -5.499999998240497234, 0.000000000000000000, -3.683679302413680380E-06 ) ) ;
#591 = DIRECTION ( 'NONE',  ( 0.000000000000000000, 1.000000000000000000, 0.000000000000000000 ) ) ;
#592 = EDGE_CURVE ( 'NONE', #162, #25, #225, .T. ) ;
#593 = CARTESIAN_POINT ( 'NONE',  ( -4.895066292112333350, 0.000000000000000000, -10.65399400026256949 ) ) ;
#594 = DIRECTION ( 'NONE',  ( -0.000000000000000000, -1.000000000000000000, -0.000000000000000000 ) ) ;
#595 = CARTESIAN_POINT ( 'NONE',  ( -5.356586527893155925, 0.000000000000000000, -1.630104980113234125 ) ) ;
#596 = ORIENTED_EDGE ( 'NONE', *, *, #483, .F. ) ;
#597 = CARTESIAN_POINT ( 'NONE',  ( 2.934342888565748542, 1.000000000000000888, -11.53168849008528696 ) ) ;
#598 = EDGE_CURVE ( 'NONE', #89, #804, #751, .T. ) ;
#599 = CARTESIAN_POINT ( 'NONE',  ( -5.524723203590326648, 0.000000000000000000, -10.24354863244697711 ) ) ;
#600 = PRESENTATION_STYLE_ASSIGNMENT (( #662 ) ) ;
#601 = AXIS2_PLACEMENT_3D ( 'NONE', #555, #803, #24 ) ;
#602 = EDGE_CURVE ( 'NONE', #729, #762, #273, .T. ) ;
#603 = CARTESIAN_POINT ( 'NONE',  ( 8.000000000000000000, 6.000000000000000000, 0.000000000000000000 ) ) ;
#604 = FACE_OUTER_BOUND ( 'NONE', #53, .T. ) ;
#605 = CARTESIAN_POINT ( 'NONE',  ( -0.7051916428148951033, 1.000000000000000888, -12.00256561193822691 ) ) ;
#606 = CYLINDRICAL_SURFACE ( 'NONE', #505, 1.600000000000001865 ) ;
#607 = VERTEX_POINT ( 'NONE', #416 ) ;
#608 = CARTESIAN_POINT ( 'NONE',  ( -10.02614842180791932, 1.000000000000000888, -3.650312595988312481 ) ) ;
#609 = B_SPLINE_CURVE_WITH_KNOTS ( 'NONE', 3,
 ( #579, #643, #509, #241, #252, #698, #64, #517, #174, #49, #432, #312, #772, #55, #128, #386, #828, #767, #186, #60, #725, #597, #776, #74, #198, #326, #5, #402, #259, #716, #208, #132, #721, #264, #651, #17, #136, #455, #525, #321, #664, #195, #268, #469, #522, #141, #398, #330 ),
 .UNSPECIFIED., .F., .F.,
 ( 4, 2, 2, 2, 2, 2, 2, 2, 2, 2, 2, 2, 2, 2, 2, 2, 2, 2, 2, 2, 2, 2, 2, 4 ),
 ( 0.2499488221146219102, 0.2499999999999989453, 0.2812499999999988898, 0.3124999999999987788, 0.3281249999999987788, 0.3437499999999987232, 0.3749999999999986677, 0.3906249999999986122, 0.4062499999999986122, 0.4374999999999985012, 0.4531249999999985567, 0.4687499999999985567, 0.4843749999999986122, 0.4999999999999985567, 0.5312499999999985567, 0.5468749999999986677, 0.5624999999999986677, 0.5937499999999986677, 0.6249999999999986677, 0.6562499999999987788, 0.6718749999999987788, 0.6874999999999987788, 0.7187499999999990008, 0.7499891142737986627 ),
 .UNSPECIFIED. ) ;
#610 = CARTESIAN_POINT ( 'NONE',  ( -8.000000000000000000, 13.07106959750362485, 0.000000000000000000 ) ) ;
#611 = VERTEX_POINT ( 'NONE', #420 ) ;
#612 = CARTESIAN_POINT ( 'NONE',  ( 1.622903583116148685, 1.000000000000000888, -6.703092606365963491 ) ) ;
#613 = CARTESIAN_POINT ( 'NONE',  ( 8.000000000000000000, 6.000000000000000000, 0.000000000000000000 ) ) ;
#614 = CIRCLE ( 'NONE', #462, 2.500000631318421096 ) ;
#615 = EDGE_LOOP ( 'NONE', ( #793, #439 ) ) ;
#616 = LINE ( 'NONE', #355, #365 ) ;
#617 = LINE ( 'NONE', #37, #802 ) ;
#618 = VERTEX_POINT ( 'NONE', #97 ) ;
#619 = CARTESIAN_POINT ( 'NONE',  ( -0.4007047150011339709, 1.000000000000000888, -6.986021196211630091 ) ) ;
#620 = CARTESIAN_POINT ( 'NONE',  ( 9.246195650324780857, 0.000000000000000000, -5.709984211095229689 ) ) ;
#621 = ORIENTED_EDGE ( 'NONE', *, *, #506, .F. ) ;
#622 = CARTESIAN_POINT ( 'NONE',  ( -1.600300296026362146, 1.000000000000000888, -6.711585498657679061 ) ) ;
#623 = EDGE_CURVE ( 'NONE', #292, #35, #616, .T. ) ;
#624 = ORIENTED_EDGE ( 'NONE', *, *, #687, .T. ) ;
#625 = VECTOR ( 'NONE', #630, 1000.000000000000000 ) ;
#626 = CIRCLE ( 'NONE', #298, 2.500000315477858059 ) ;
#627 = CARTESIAN_POINT ( 'NONE',  ( -5.471516974596377203, 1.000000000000000888, -0.8178999945701421748 ) ) ;
#628 = AXIS2_PLACEMENT_3D ( 'NONE', #809, #740, #27 ) ;
#629 = EDGE_CURVE ( 'NONE', #670, #569, #415, .T. ) ;
#630 = DIRECTION ( 'NONE',  ( -0.000000000000000000, -1.000000000000000000, -0.000000000000000000 ) ) ;
#631 = LINE ( 'NONE', #304, #108 ) ;
#632 = CARTESIAN_POINT ( 'NONE',  ( 2.693794607804870456, 1.000000000000000888, -6.094438625795506326 ) ) ;
#633 = ORIENTED_EDGE ( 'NONE', *, *, #169, .T. ) ;
#634 = CARTESIAN_POINT ( 'NONE',  ( 2.584325999248300310, 0.000000000000000000, -11.64013688361523791 ) ) ;
#635 = CARTESIAN_POINT ( 'NONE',  ( 0.03284041553399224406, 0.000000000000000000, -11.99994161989750907 ) ) ;
#636 = CARTESIAN_POINT ( 'NONE',  ( -2.679296832099068659, 0.000000000000000000, -6.104889903365974035 ) ) ;
#637 = VERTEX_POINT ( 'NONE', #760 ) ;
#638 = CARTESIAN_POINT ( 'NONE',  ( 0.7755417716664427807, 0.000000000000000000, -11.97482459543524769 ) ) ;
#639 = VECTOR ( 'NONE', #107, 1000.000000000000000 ) ;
#640 = CARTESIAN_POINT ( 'NONE',  ( 10.50000000077543838, 0.000000000000000000, -0.001222629589071696403 ) ) ;
#641 = CARTESIAN_POINT ( 'NONE',  ( -1.600300296026362146, 0.000000000000000000, -6.711585498657679061 ) ) ;
#642 = ORIENTED_EDGE ( 'NONE', *, *, #711, .F. ) ;
#643 = CARTESIAN_POINT ( 'NONE',  ( 10.50000000077543838, 1.000000000000000888, -0.001222629590636922867 ) ) ;
#644 = CARTESIAN_POINT ( 'NONE',  ( 7.204755359862652142, 1.000000000000000888, -8.748811927668301180 ) ) ;
#645 = CARTESIAN_POINT ( 'NONE',  ( -3.869037163426433779, 1.000000000000000888, -4.974763449339322463 ) ) ;
#646 = CARTESIAN_POINT ( 'NONE',  ( 3.605298225344404361, 0.000000000000000000, -5.272029189298429230 ) ) ;
#647 = DIRECTION ( 'NONE',  ( 0.000000000000000000, 1.000000000000000000, -0.000000000000000000 ) ) ;
#648 = CARTESIAN_POINT ( 'NONE',  ( 6.685802305891703767, 1.000000000000000888, -9.271029473083745032 ) ) ;
#649 = CARTESIAN_POINT ( 'NONE',  ( 3.018231912797951111, 0.000000000000000000, -5.841188869266970229 ) ) ;
#650 = CARTESIAN_POINT ( 'NONE',  ( 3.018231912797951111, 0.000000000000000000, -5.841188869266970229 ) ) ;
#651 = CARTESIAN_POINT ( 'NONE',  ( -5.524723203590326648, 1.000000000000000888, -10.24354863244697711 ) ) ;
#652 = CARTESIAN_POINT ( 'NONE',  ( 5.349759145252581227, 1.000000000000000888, -1.627024985997544748 ) ) ;
#653 = CIRCLE ( 'NONE', #706, 1.600000000000000089 ) ;
#654 = CARTESIAN_POINT ( 'NONE',  ( -8.000000000000000000, 13.07106959750362485, 0.000000000000000000 ) ) ;
#655 = CARTESIAN_POINT ( 'NONE',  ( 5.212435780217543169, 0.000000000000000000, -2.228843264896993137 ) ) ;
#656 = EDGE_CURVE ( 'NONE', #162, #618, #309, .T. ) ;
#657 = FACE_OUTER_BOUND ( 'NONE', #227, .T. ) ;
#658 = CARTESIAN_POINT ( 'NONE',  ( -10.20274168105784263, 1.000000000000000888, -2.936550601345009781 ) ) ;
#659 = DIRECTION ( 'NONE',  ( 0.000000000000000000, 1.000000000000000000, 0.000000000000000000 ) ) ;
#660 = CARTESIAN_POINT ( 'NONE',  ( -8.000000000000000000, 13.07106959750362485, 0.000000000000000000 ) ) ;
#661 = CARTESIAN_POINT ( 'NONE',  ( -4.895066292112333350, 1.000000000000000888, -10.65399400026256949 ) ) ;
#662 = SURFACE_STYLE_USAGE ( .BOTH. , #15 ) ;
#663 = CYLINDRICAL_SURFACE ( 'NONE', #723, 1.600000000000000089 ) ;
#664 = CARTESIAN_POINT ( 'NONE',  ( -9.238611005058062986, 1.000000000000000888, -5.726270119976924811 ) ) ;
#665 = CARTESIAN_POINT ( 'NONE',  ( -6.669181016294101205, 0.000000000000000000, -9.312983779800539708 ) ) ;
#666 = VECTOR ( 'NONE', #88, 1000.000000000000000 ) ;
#667 = CARTESIAN_POINT ( 'NONE',  ( -8.000000000000000000, 13.07106959750362485, 0.000000000000000000 ) ) ;
#668 = AXIS2_PLACEMENT_3D ( 'NONE', #654, #270, #76 ) ;
#669 = DIRECTION ( 'NONE',  ( 0.000000000000000000, 0.000000000000000000, 1.000000000000000000 ) ) ;
#670 = VERTEX_POINT ( 'NONE', #695 ) ;
#671 = CARTESIAN_POINT ( 'NONE',  ( -2.876665621630543512, 0.000000000000000000, -11.55063419507986211 ) ) ;
#672 = FACE_OUTER_BOUND ( 'NONE', #38, .T. ) ;
#673 = CARTESIAN_POINT ( 'NONE',  ( -8.000000000000000000, 6.000000000000000000, -2.500000631318421096 ) ) ;
#674 = ORIENTED_EDGE ( 'NONE', *, *, #629, .T. ) ;
#675 = CARTESIAN_POINT ( 'NONE',  ( 9.540326727377239635, 0.000000000000000000, -5.036330245683756424 ) ) ;
#676 = DIRECTION ( 'NONE',  ( -0.000000000000000000, -1.000000000000000000, -0.000000000000000000 ) ) ;
#677 = ORIENTED_EDGE ( 'NONE', *, *, #506, .T. ) ;
#678 = CARTESIAN_POINT ( 'NONE',  ( -5.269262392170986686, 1.000000000000000888, -2.035969662655130463 ) ) ;
#679 = DIRECTION ( 'NONE',  ( 0.000000000000000000, 1.000000000000000000, 0.000000000000000000 ) ) ;
#680 = AXIS2_PLACEMENT_3D ( 'NONE', #289, #364, #811 ) ;
#681 = ORIENTED_EDGE ( 'NONE', *, *, #172, .F. ) ;
#682 = CARTESIAN_POINT ( 'NONE',  ( -5.499913291335847276, 1.000000000000000888, -0.4105076079380310383 ) ) ;
#683 = CARTESIAN_POINT ( 'NONE',  ( 2.584325999248300310, 1.000000000000000888, -11.64013688361523791 ) ) ;
#684 = EDGE_CURVE ( 'NONE', #607, #546, #244, .T. ) ;
#685 = EDGE_LOOP ( 'NONE', ( #814, #480, #429, #642 ) ) ;
#686 = CARTESIAN_POINT ( 'NONE',  ( 1.995606210307311112, 1.000000000000000888, -6.533632375821743388 ) ) ;
#687 = EDGE_CURVE ( 'NONE', #360, #762, #631, .T. ) ;
#688 = FACE_OUTER_BOUND ( 'NONE', #159, .T. ) ;
#689 = ORIENTED_EDGE ( 'NONE', *, *, #209, .T. ) ;
#690 = CARTESIAN_POINT ( 'NONE',  ( 7.454267363263923585, 0.000000000000000000, -8.471245689429917292 ) ) ;
#691 = PRODUCT ( 'Top spacer', 'Top spacer', '', ( #299 ) ) ;
#692 = EDGE_LOOP ( 'NONE', ( #508, #303, #370, #541, #234, #443 ) ) ;
#693 = CIRCLE ( 'NONE', #801, 1.600000000000001865 ) ;
#694 = AXIS2_PLACEMENT_3D ( 'NONE', #488, #283, #413 ) ;
#695 = CARTESIAN_POINT ( 'NONE',  ( 10.50000000415565360, 0.000000000000000000, -6.951296094347223647E-06 ) ) ;
#696 = CARTESIAN_POINT ( 'NONE',  ( -0.8093758335873666443, 1.000000000000000888, -6.927337864460266559 ) ) ;
#697 = ORIENTED_EDGE ( 'NONE', *, *, #50, .T. ) ;
#698 = CARTESIAN_POINT ( 'NONE',  ( 10.20516804252454435, 1.000000000000000888, -2.924188310503295529 ) ) ;
#699 = CARTESIAN_POINT ( 'NONE',  ( -1.009838838191978505, 1.000000000000000888, -6.883573938702106432 ) ) ;
#700 = DIRECTION ( 'NONE',  ( 0.000000000000000000, -0.000000000000000000, 1.000000000000000000 ) ) ;
#701 = CARTESIAN_POINT ( 'NONE',  ( -9.238611005058062986, 0.000000000000000000, -5.726270119976924811 ) ) ;
#702 = CARTESIAN_POINT ( 'NONE',  ( 1.511015349438133981, 0.000000000000000000, -11.88323800565323651 ) ) ;
#703 = CARTESIAN_POINT ( 'NONE',  ( 3.465891816929385083, 1.000000000000000888, -5.421780720147950206 ) ) ;
#704 = EDGE_LOOP ( 'NONE', ( #745, #216 ) ) ;
#705 = CARTESIAN_POINT ( 'NONE',  ( -1.435514372653784454, 0.000000000000000000, -11.91769583533104537 ) ) ;
#706 = AXIS2_PLACEMENT_3D ( 'NONE', #123, #647, #46 ) ;
#707 = CARTESIAN_POINT ( 'NONE',  ( 10.03000066432012183, 0.000000000000000000, -3.636966625903698347 ) ) ;
#708 = VECTOR ( 'NONE', #463, 1000.000000000000000 ) ;
#709 = CARTESIAN_POINT ( 'NONE',  ( -2.679296832099068659, 1.000000000000000888, -6.104889903365974035 ) ) ;
#710 = CARTESIAN_POINT ( 'NONE',  ( -2.679296832099068659, 0.000000000000000000, -6.104889903365974035 ) ) ;
#711 = EDGE_CURVE ( 'NONE', #807, #755, #653, .T. ) ;
#712 = CARTESIAN_POINT ( 'NONE',  ( 8.000000000000000000, 6.000000000000000000, 0.000000000000000000 ) ) ;
#713 = CARTESIAN_POINT ( 'NONE',  ( 9.674018174897774713, 1.000000000000000888, -4.690185112185016436 ) ) ;
#714 = CARTESIAN_POINT ( 'NONE',  ( 5.263350216612317389, 0.000000000000000000, -2.028213969412615558 ) ) ;
#715 = CARTESIAN_POINT ( 'NONE',  ( -4.894788254288685359, 0.000000000000000000, -3.201867658351858381 ) ) ;
#716 = CARTESIAN_POINT ( 'NONE',  ( -2.519406308149578777, 1.000000000000000888, -11.65883085367924110 ) ) ;
#717 = CARTESIAN_POINT ( 'NONE',  ( -6.669181016294101205, 1.000000000000000888, -9.312983779800539708 ) ) ;
#718 = B_SPLINE_CURVE_WITH_KNOTS ( 'NONE', 3,
 ( #547, #781, #196, #456, #722, #391, #652, #588, #465, #530, #10, #18, #274, #536, #790, #731, #739, #551, #361, #686, #612, #163, #286, #430, #619, #805, #221, #622, #94, #424, #36, #742, #482, #39, #217, #808, #105, #30, #554, #678, #486, #627, #682, #42, #294, #101 ),
 .UNSPECIFIED., .F., .F.,
 ( 4, 2, 2, 2, 2, 2, 2, 2, 2, 2, 2, 2, 2, 2, 2, 2, 2, 2, 2, 2, 2, 2, 4 ),
 ( 0.2498567275948675170, 0.2499999999999993894, 0.2812499999999993339, 0.2968749999999993339, 0.3124999999999993339, 0.3749999999999993339, 0.3906249999999993339, 0.4062499999999993339, 0.4218749999999993339, 0.4374999999999993339, 0.4687499999999993894, 0.4999999999999993339, 0.5156249999999993339, 0.5312499999999992228, 0.5624999999999992228, 0.5781249999999992228, 0.5937499999999991118, 0.6249999999999991118, 0.6562499999999992228, 0.6874999999999992228, 0.7187499999999992228, 0.7499999999999992228, 0.7500472925508198108 ),
 .UNSPECIFIED. ) ;
#719 = EDGE_CURVE ( 'NONE', #406, #349, #609, .T. ) ;
#720 = CARTESIAN_POINT ( 'NONE',  ( -2.510167712197714618, 0.000000000000000000, -6.221469906961984542 ) ) ;
#721 = CARTESIAN_POINT ( 'NONE',  ( -3.907222565137841386, 1.000000000000000888, -11.14987783018130152 ) ) ;
#722 = CARTESIAN_POINT ( 'NONE',  ( 5.471179013169685135, 1.000000000000000888, -0.8202718517362281858 ) ) ;
#723 = AXIS2_PLACEMENT_3D ( 'NONE', #610, #478, #737 ) ;
#724 = CARTESIAN_POINT ( 'NONE',  ( 3.465891816929385083, 0.000000000000000000, -5.421780720147950206 ) ) ;
#725 = CARTESIAN_POINT ( 'NONE',  ( 3.622896473634930725, 1.000000000000000888, -11.27419933637646920 ) ) ;
#726 = CARTESIAN_POINT ( 'NONE',  ( -3.569510833401821071, 1.000000000000000888, -11.29639672734994704 ) ) ;
#727 = FILL_AREA_STYLE_COLOUR ( '', #258 ) ;
#728 = CARTESIAN_POINT ( 'NONE',  ( 5.500000278514980856, 1.000000000000000888, -1.704671552567005142E-05 ) ) ;
#729 = VERTEX_POINT ( 'NONE', #390 ) ;
#730 = DIRECTION ( 'NONE',  ( 0.000000000000000000, -0.000000000000000000, 1.000000000000000000 ) ) ;
#731 = CARTESIAN_POINT ( 'NONE',  ( 3.172355075874639052, 1.000000000000000888, -5.706356925943670610 ) ) ;
#732 = CARTESIAN_POINT ( 'NONE',  ( -5.499913291335847276, 0.000000000000000000, -0.4105076079380310383 ) ) ;
#733 = CARTESIAN_POINT ( 'NONE',  ( -8.000000000000000000, 0.000000000000000000, 0.000000000000000000 ) ) ;
#734 = ORIENTED_EDGE ( 'NONE', *, *, #476, .T. ) ;
#735 = CARTESIAN_POINT ( 'NONE',  ( -9.670579226919668869, 0.000000000000000000, -4.699363105424130715 ) ) ;
#736 = CARTESIAN_POINT ( 'NONE',  ( -5.499913291335847276, 1.000000000000000888, -0.4105076079380310383 ) ) ;
#737 = DIRECTION ( 'NONE',  ( 0.000000000000000000, 0.000000000000000000, -1.000000000000000000 ) ) ;
#738 = ORIENTED_EDGE ( 'NONE', *, *, #325, .T. ) ;
#739 = CARTESIAN_POINT ( 'NONE',  ( 3.018231912797951111, 1.000000000000000888, -5.841188869266970229 ) ) ;
#740 = DIRECTION ( 'NONE',  ( 0.000000000000000000, 1.000000000000000000, 0.000000000000000000 ) ) ;
#741 = ORIENTED_EDGE ( 'NONE', *, *, #684, .F. ) ;
#742 = CARTESIAN_POINT ( 'NONE',  ( -3.005071060919619619, 1.000000000000000888, -5.852256862770428114 ) ) ;
#743 = LINE ( 'NONE', #95, #532 ) ;
#744 = ADVANCED_FACE ( 'NONE', ( #604 ), #464, .F. ) ;
#745 = ORIENTED_EDGE ( 'NONE', *, *, #83, .F. ) ;
#746 = CARTESIAN_POINT ( 'NONE',  ( 10.50000000415565360, 0.000000000000000000, -6.951296094347223647E-06 ) ) ;
#747 = CARTESIAN_POINT ( 'NONE',  ( 10.49999968026097896, 2.999999999999999112, -6.951295193752107316E-06 ) ) ;
#748 = AXIS2_PLACEMENT_3D ( 'NONE', #712, #756, #819 ) ;
#749 = VERTEX_POINT ( 'NONE', #9 ) ;
#750 = ADVANCED_FACE ( 'NONE', ( #780 ), #459, .T. ) ;
#751 = LINE ( 'NONE', #297, #204 ) ;
#752 = CARTESIAN_POINT ( 'NONE',  ( 10.20516804252454435, 0.000000000000000000, -2.924188310503295529 ) ) ;
#753 = ORIENTED_EDGE ( 'NONE', *, *, #623, .F. ) ;
#754 = CARTESIAN_POINT ( 'NONE',  ( 8.155340844349451501, 0.000000000000000000, -7.610685995844232998 ) ) ;
#755 = VERTEX_POINT ( 'NONE', #335 ) ;
#756 = DIRECTION ( 'NONE',  ( 0.000000000000000000, 1.000000000000000000, 0.000000000000000000 ) ) ;
#757 = CARTESIAN_POINT ( 'NONE',  ( 4.923326169898398774, 0.000000000000000000, -3.212488541385532415 ) ) ;
#758 = ORIENTED_EDGE ( 'NONE', *, *, #483, .T. ) ;
#759 = PRESENTATION_LAYER_ASSIGNMENT (  '', '', ( #285 ) ) ;
#760 = CARTESIAN_POINT ( 'NONE',  ( -8.000000000000000000, 6.000000000000000000, 1.600000000000000089 ) ) ;
#761 = CARTESIAN_POINT ( 'NONE',  ( 1.995606210307311112, 1.000000000000000888, -6.533632375821743388 ) ) ;
#762 = VERTEX_POINT ( 'NONE', #272 ) ;
#763 = CARTESIAN_POINT ( 'NONE',  ( 2.934342888565748542, 0.000000000000000000, -11.53168849008528696 ) ) ;
#764 = CARTESIAN_POINT ( 'NONE',  ( 10.50000000415565360, 1.000000000000000888, -6.951293736661296393E-06 ) ) ;
#765 = CARTESIAN_POINT ( 'NONE',  ( 0.4220155761223010615, 0.000000000000000000, -6.998798951632180909 ) ) ;
#766 = CARTESIAN_POINT ( 'NONE',  ( 0.000000000000000000, 6.000000000000000000, 0.000000000000000000 ) ) ;
#767 = CARTESIAN_POINT ( 'NONE',  ( 5.567555122179086879, 1.000000000000000888, -10.21266409334464953 ) ) ;
#768 = CARTESIAN_POINT ( 'NONE',  ( 9.085314510874384908, 0.000000000000000000, -6.038841064491345278 ) ) ;
#769 = ADVANCED_FACE ( 'NONE', ( #535, #657 ), #13, .T. ) ;
#770 = CARTESIAN_POINT ( 'NONE',  ( 1.622903583116148685, 1.000000000000000888, -6.703092606365963491 ) ) ;
#771 = CARTESIAN_POINT ( 'NONE',  ( 2.522674169099231367, 0.000000000000000000, -6.213197923264572431 ) ) ;
#772 = CARTESIAN_POINT ( 'NONE',  ( 8.155340844349451501, 1.000000000000000888, -7.610685995844232998 ) ) ;
#773 = CARTESIAN_POINT ( 'NONE',  ( 10.03000066432012183, 1.000000000000000888, -3.636966625903698347 ) ) ;
#774 = CARTESIAN_POINT ( 'NONE',  ( 4.584313342547322812, 1.000000000000000888, -3.949230373506586567 ) ) ;
#775 = CARTESIAN_POINT ( 'NONE',  ( 5.499999393348744547, 0.000000000000000000, -0.003763281332039584894 ) ) ;
#776 = CARTESIAN_POINT ( 'NONE',  ( 2.584325999248300310, 1.000000000000000888, -11.64013688361523791 ) ) ;
#777 = CARTESIAN_POINT ( 'NONE',  ( 10.50000000415565360, 0.000000000000000000, -6.951293736661296393E-06 ) ) ;
#778 = CARTESIAN_POINT ( 'NONE',  ( -4.546228914269300425, 0.000000000000000000, -3.941969482909252420 ) ) ;
#779 = CARTESIAN_POINT ( 'NONE',  ( 3.172355075874639052, 0.000000000000000000, -5.706356925943670610 ) ) ;
#780 = FACE_OUTER_BOUND ( 'NONE', #296, .T. ) ;
#781 = CARTESIAN_POINT ( 'NONE',  ( 5.499999988029112608, 1.000000000000000888, -0.001890216670787110871 ) ) ;
#782 = CARTESIAN_POINT ( 'NONE',  ( -5.499999934146180713, 0.000000000000000000, -0.001240573704554764163 ) ) ;
#783 = CARTESIAN_POINT ( 'NONE',  ( 4.584313342547322812, 0.000000000000000000, -3.949230373506586567 ) ) ;
#784 = CARTESIAN_POINT ( 'NONE',  ( 5.499999975256552709, 0.000000000000000000, -1.704671410548614822E-05 ) ) ;
#785 = DIRECTION ( 'NONE',  ( 0.000000000000000000, 0.000000000000000000, 1.000000000000000000 ) ) ;
#786 = VECTOR ( 'NONE', #676, 1000.000000000000000 ) ;
#787 = CARTESIAN_POINT ( 'NONE',  ( -4.339036774445019340, 1.000000000000000888, -4.303317979936367443 ) ) ;
#788 = DIRECTION ( 'NONE',  ( 0.000000000000000000, 0.000000000000000000, 1.000000000000000000 ) ) ;
#789 = CARTESIAN_POINT ( 'NONE',  ( 0.000000000000000000, 6.000000000000000000, 0.000000000000000000 ) ) ;
#790 = CARTESIAN_POINT ( 'NONE',  ( 3.465891816929385083, 1.000000000000000888, -5.421780720147950206 ) ) ;
#791 = CARTESIAN_POINT ( 'NONE',  ( -5.471516974596377203, 1.000000000000000888, -0.8178999945701421748 ) ) ;
#792 = CARTESIAN_POINT ( 'NONE',  ( 8.000000000000000000, 6.000000000000000000, -1.600000000000001865 ) ) ;
#793 = ORIENTED_EDGE ( 'NONE', *, *, #383, .T. ) ;
#794 = CARTESIAN_POINT ( 'NONE',  ( -2.519406308149578777, 1.000000000000000888, -11.65883085367924110 ) ) ;
#795 = APPLICATION_CONTEXT ( 'automotive_design' ) ;
#796 = CARTESIAN_POINT ( 'NONE',  ( -5.499999934146180713, 1.000000000000000888, -0.001240573704554764163 ) ) ;
#797 = ADVANCED_FACE ( 'NONE', ( #340 ), #499, .T. ) ;
#798 = CARTESIAN_POINT ( 'NONE',  ( 10.50000063130875816, 1.000000000000000000, -6.951297828258072308E-06 ) ) ;
#799 = EDGE_LOOP ( 'NONE', ( #240, #150, #689, #426, #677, #414 ) ) ;
#800 = CARTESIAN_POINT ( 'NONE',  ( 6.414928607590036691, 0.000000000000000000, -9.517554988556812035 ) ) ;
#801 = AXIS2_PLACEMENT_3D ( 'NONE', #16, #659, #77 ) ;
#802 = VECTOR ( 'NONE', #253, 1000.000000000000000 ) ;
#803 = DIRECTION ( 'NONE',  ( 0.000000000000000000, 1.000000000000000000, -0.000000000000000000 ) ) ;
#804 = VERTEX_POINT ( 'NONE', #154 ) ;
#805 = CARTESIAN_POINT ( 'NONE',  ( -0.8093758335873666443, 1.000000000000000888, -6.927337864460266559 ) ) ;
#806 = CARTESIAN_POINT ( 'NONE',  ( -8.000000000000000000, 1.000000000000000000, 0.000000000000000000 ) ) ;
#807 = VERTEX_POINT ( 'NONE', #328 ) ;
#808 = CARTESIAN_POINT ( 'NONE',  ( -4.339036774445019340, 1.000000000000000888, -4.303317979936367443 ) ) ;
#809 = CARTESIAN_POINT ( 'NONE',  ( -8.000000000000000000, 6.000000000000000000, 0.000000000000000000 ) ) ;
#810 = ORIENTED_EDGE ( 'NONE', *, *, #50, .F. ) ;
#811 = DIRECTION ( 'NONE',  ( 0.000000000000000000, 0.000000000000000000, 1.000000000000000000 ) ) ;
#812 = DIRECTION ( 'NONE',  ( -0.000000000000000000, -1.000000000000000000, -0.000000000000000000 ) ) ;
#813 = MECHANICAL_DESIGN_GEOMETRIC_PRESENTATION_REPRESENTATION (  '', ( #285 ), #31 ) ;
#814 = ORIENTED_EDGE ( 'NONE', *, *, #169, .F. ) ;
#815 = CARTESIAN_POINT ( 'NONE',  ( 9.085314510874384908, 0.000000000000000000, -6.038841064491345278 ) ) ;
#816 = ORIENTED_EDGE ( 'NONE', *, *, #472, .T. ) ;
#817 = CARTESIAN_POINT ( 'NONE',  ( 0.4018564447085880564, 0.000000000000000000, -11.99862962387714660 ) ) ;
#818 = ORIENTED_EDGE ( 'NONE', *, *, #687, .F. ) ;
#819 = DIRECTION ( 'NONE',  ( 0.000000000000000000, 0.000000000000000000, 1.000000000000000000 ) ) ;
#820 = CARTESIAN_POINT ( 'NONE',  ( 2.522674169099231367, 0.000000000000000000, -6.213197923264572431 ) ) ;
#821 = FACE_OUTER_BOUND ( 'NONE', #615, .T. ) ;
#822 = AXIS2_PLACEMENT_3D ( 'NONE', #473, #679, #161 ) ;
#823 = CARTESIAN_POINT ( 'NONE',  ( -5.524723203590326648, 0.000000000000000000, -10.24354863244697711 ) ) ;
#824 = CARTESIAN_POINT ( 'NONE',  ( 2.584325999248300310, 0.000000000000000000, -11.64013688361523791 ) ) ;
#825 = ADVANCED_FACE ( 'NONE', ( #337 ), #266, .F. ) ;
#826 = CARTESIAN_POINT ( 'NONE',  ( 1.622903583116148685, 0.000000000000000000, -6.703092606365963491 ) ) ;
#827 = PLANE ( 'NONE',  #446 ) ;
#828 = CARTESIAN_POINT ( 'NONE',  ( 6.414928607590036691, 1.000000000000000888, -9.517554988556812035 ) ) ;
#829 = MANIFOLD_SOLID_BREP ( 'Cut-Extrude2', #300 ) ;
#830 = ADVANCED_FACE ( 'NONE', ( #214 ), #411, .T. ) ;
#831 = CARTESIAN_POINT ( 'NONE',  ( 9.540326727377239635, 1.000000000000000888, -5.036330245683756424 ) ) ;
#832 = CARTESIAN_POINT ( 'NONE',  ( -0.8093758335873666443, 0.000000000000000000, -6.927337864460266559 ) ) ;
#833 = CARTESIAN_POINT ( 'NONE',  ( 0.8275180089444889031, 0.000000000000000000, -6.938502046920370425 ) ) ;
#834 = ADVANCED_FACE ( 'NONE', ( #672 ), #91, .T. ) ;
#835 = CARTESIAN_POINT ( 'NONE',  ( -9.536176060422212331, 0.000000000000000000, -5.046879916835832702 ) ) ;
ENDSEC;
END-ISO-10303-21;
