%TF.GenerationSoftware,KiCad,Pcbnew,9.0.5*%
%TF.CreationDate,2025-12-02T23:56:59+01:00*%
%TF.ProjectId,D1,44312e6b-6963-4616-945f-706362585858,rev?*%
%TF.SameCoordinates,Original*%
%TF.FileFunction,Soldermask,Bot*%
%TF.FilePolarity,Negative*%
%FSLAX46Y46*%
G04 Gerber Fmt 4.6, Leading zero omitted, Abs format (unit mm)*
G04 Created by KiCad (PCBNEW 9.0.5) date 2025-12-02 23:56:59*
%MOMM*%
%LPD*%
G01*
G04 APERTURE LIST*
G04 Aperture macros list*
%AMRoundRect*
0 Rectangle with rounded corners*
0 $1 Rounding radius*
0 $2 $3 $4 $5 $6 $7 $8 $9 X,Y pos of 4 corners*
0 Add a 4 corners polygon primitive as box body*
4,1,4,$2,$3,$4,$5,$6,$7,$8,$9,$2,$3,0*
0 Add four circle primitives for the rounded corners*
1,1,$1+$1,$2,$3*
1,1,$1+$1,$4,$5*
1,1,$1+$1,$6,$7*
1,1,$1+$1,$8,$9*
0 Add four rect primitives between the rounded corners*
20,1,$1+$1,$2,$3,$4,$5,0*
20,1,$1+$1,$4,$5,$6,$7,0*
20,1,$1+$1,$6,$7,$8,$9,0*
20,1,$1+$1,$8,$9,$2,$3,0*%
%AMHorizOval*
0 Thick line with rounded ends*
0 $1 width*
0 $2 $3 position (X,Y) of the first rounded end (center of the circle)*
0 $4 $5 position (X,Y) of the second rounded end (center of the circle)*
0 Add line between two ends*
20,1,$1,$2,$3,$4,$5,0*
0 Add two circle primitives to create the rounded ends*
1,1,$1,$2,$3*
1,1,$1,$4,$5*%
%AMRotRect*
0 Rectangle, with rotation*
0 The origin of the aperture is its center*
0 $1 length*
0 $2 width*
0 $3 Rotation angle, in degrees counterclockwise*
0 Add horizontal line*
21,1,$1,$2,0,0,$3*%
G04 Aperture macros list end*
%ADD10C,6.400000*%
%ADD11RoundRect,0.225000X0.017678X-0.335876X0.335876X-0.017678X-0.017678X0.335876X-0.335876X0.017678X0*%
%ADD12RoundRect,0.225000X0.250000X-0.225000X0.250000X0.225000X-0.250000X0.225000X-0.250000X-0.225000X0*%
%ADD13RoundRect,0.150000X0.521491X-0.309359X-0.309359X0.521491X-0.521491X0.309359X0.309359X-0.521491X0*%
%ADD14RoundRect,0.225000X0.335876X0.017678X0.017678X0.335876X-0.335876X-0.017678X-0.017678X-0.335876X0*%
%ADD15RoundRect,0.062500X0.220971X0.309359X-0.309359X-0.220971X-0.220971X-0.309359X0.309359X0.220971X0*%
%ADD16RoundRect,0.062500X-0.220971X0.309359X-0.309359X0.220971X0.220971X-0.309359X0.309359X-0.220971X0*%
%ADD17RotRect,3.450000X3.450000X225.000000*%
%ADD18RotRect,1.700000X1.700000X320.000000*%
%ADD19HorizOval,1.700000X0.000000X0.000000X0.000000X0.000000X0*%
%ADD20RoundRect,0.250000X1.281631X0.167938X0.167938X1.281631X-1.281631X-0.167938X-0.167938X-1.281631X0*%
%ADD21RoundRect,0.200000X0.053033X-0.335876X0.335876X-0.053033X-0.053033X0.335876X-0.335876X0.053033X0*%
%ADD22RotRect,1.700000X1.700000X135.000000*%
%ADD23HorizOval,1.700000X0.000000X0.000000X0.000000X0.000000X0*%
%ADD24RoundRect,0.225000X0.225000X0.250000X-0.225000X0.250000X-0.225000X-0.250000X0.225000X-0.250000X0*%
%ADD25RotRect,1.700000X1.700000X45.000000*%
%ADD26HorizOval,1.700000X0.000000X0.000000X0.000000X0.000000X0*%
G04 APERTURE END LIST*
D10*
%TO.C,H1*%
X82000000Y-70000000D03*
%TD*%
%TO.C,H2*%
X98000000Y-70000000D03*
%TD*%
%TO.C,H4*%
X90000000Y-79500000D03*
%TD*%
%TO.C,H3*%
X90000000Y-60500000D03*
%TD*%
D11*
%TO.C,L1*%
X86251992Y-67348008D03*
X87348008Y-66251992D03*
%TD*%
D12*
%TO.C,C6*%
X94600000Y-75375000D03*
X94600000Y-73825000D03*
%TD*%
D13*
%TO.C,U1*%
X96384664Y-63041161D03*
X95041161Y-64384664D03*
X94387087Y-62387087D03*
%TD*%
D12*
%TO.C,C2*%
X96200000Y-75375000D03*
X96200000Y-73825000D03*
%TD*%
D14*
%TO.C,C7*%
X85048008Y-66148008D03*
X83951992Y-65051992D03*
%TD*%
D15*
%TO.C,U4*%
X90486136Y-67038990D03*
X90839689Y-67392544D03*
X91193243Y-67746097D03*
X91546796Y-68099651D03*
X91900349Y-68453204D03*
X92253903Y-68806757D03*
X92607456Y-69160311D03*
X92961010Y-69513864D03*
D16*
X92961010Y-70486136D03*
X92607456Y-70839689D03*
X92253903Y-71193243D03*
X91900349Y-71546796D03*
X91546796Y-71900349D03*
X91193243Y-72253903D03*
X90839689Y-72607456D03*
X90486136Y-72961010D03*
D15*
X89513864Y-72961010D03*
X89160311Y-72607456D03*
X88806757Y-72253903D03*
X88453204Y-71900349D03*
X88099651Y-71546796D03*
X87746097Y-71193243D03*
X87392544Y-70839689D03*
X87038990Y-70486136D03*
D16*
X87038990Y-69513864D03*
X87392544Y-69160311D03*
X87746097Y-68806757D03*
X88099651Y-68453204D03*
X88453204Y-68099651D03*
X88806757Y-67746097D03*
X89160311Y-67392544D03*
X89513864Y-67038990D03*
D17*
X90000000Y-70000000D03*
%TD*%
D14*
%TO.C,C8*%
X86148008Y-65048008D03*
X85051992Y-63951992D03*
%TD*%
D18*
%TO.C,J2*%
X78237853Y-66883844D03*
D19*
X79870534Y-64938091D03*
X81503214Y-62992338D03*
X83135895Y-61046585D03*
X84768575Y-59100832D03*
%TD*%
D14*
%TO.C,C9*%
X92448008Y-66148008D03*
X91351992Y-65051992D03*
%TD*%
D20*
%TO.C,C4*%
X84200870Y-79700870D03*
X79799130Y-75299130D03*
%TD*%
D21*
%TO.C,R2*%
X86216637Y-76983363D03*
X87383363Y-75816637D03*
%TD*%
D22*
%TO.C,J3*%
X100396051Y-76703949D03*
D23*
X98600000Y-78500000D03*
X96803949Y-80296051D03*
%TD*%
D21*
%TO.C,R3*%
X85116637Y-75883363D03*
X86283363Y-74716637D03*
%TD*%
D24*
%TO.C,C3*%
X101775000Y-73400000D03*
X100225000Y-73400000D03*
%TD*%
D14*
%TO.C,C1*%
X93548008Y-65048008D03*
X92451992Y-63951992D03*
%TD*%
D25*
%TO.C,J1*%
X100285445Y-63285445D03*
D26*
X98489394Y-61489394D03*
X96693343Y-59693343D03*
%TD*%
M02*
