%TF.GenerationSoftware,KiCad,Pcbnew,9.0.5*%
%TF.CreationDate,2025-12-02T23:56:59+01:00*%
%TF.ProjectId,D1,44312e6b-6963-4616-945f-706362585858,rev?*%
%TF.SameCoordinates,Original*%
%TF.FileFunction,Copper,L2,Bot*%
%TF.FilePolarity,Positive*%
%FSLAX46Y46*%
G04 Gerber Fmt 4.6, Leading zero omitted, Abs format (unit mm)*
G04 Created by KiCad (PCBNEW 9.0.5) date 2025-12-02 23:56:59*
%MOMM*%
%LPD*%
G01*
G04 APERTURE LIST*
G04 Aperture macros list*
%AMRoundRect*
0 Rectangle with rounded corners*
0 $1 Rounding radius*
0 $2 $3 $4 $5 $6 $7 $8 $9 X,Y pos of 4 corners*
0 Add a 4 corners polygon primitive as box body*
4,1,4,$2,$3,$4,$5,$6,$7,$8,$9,$2,$3,0*
0 Add four circle primitives for the rounded corners*
1,1,$1+$1,$2,$3*
1,1,$1+$1,$4,$5*
1,1,$1+$1,$6,$7*
1,1,$1+$1,$8,$9*
0 Add four rect primitives between the rounded corners*
20,1,$1+$1,$2,$3,$4,$5,0*
20,1,$1+$1,$4,$5,$6,$7,0*
20,1,$1+$1,$6,$7,$8,$9,0*
20,1,$1+$1,$8,$9,$2,$3,0*%
%AMHorizOval*
0 Thick line with rounded ends*
0 $1 width*
0 $2 $3 position (X,Y) of the first rounded end (center of the circle)*
0 $4 $5 position (X,Y) of the second rounded end (center of the circle)*
0 Add line between two ends*
20,1,$1,$2,$3,$4,$5,0*
0 Add two circle primitives to create the rounded ends*
1,1,$1,$2,$3*
1,1,$1,$4,$5*%
%AMRotRect*
0 Rectangle, with rotation*
0 The origin of the aperture is its center*
0 $1 length*
0 $2 width*
0 $3 Rotation angle, in degrees counterclockwise*
0 Add horizontal line*
21,1,$1,$2,0,0,$3*%
G04 Aperture macros list end*
%TA.AperFunction,ComponentPad*%
%ADD10C,6.400000*%
%TD*%
%TA.AperFunction,SMDPad,CuDef*%
%ADD11RoundRect,0.225000X0.017678X-0.335876X0.335876X-0.017678X-0.017678X0.335876X-0.335876X0.017678X0*%
%TD*%
%TA.AperFunction,SMDPad,CuDef*%
%ADD12RoundRect,0.225000X0.250000X-0.225000X0.250000X0.225000X-0.250000X0.225000X-0.250000X-0.225000X0*%
%TD*%
%TA.AperFunction,SMDPad,CuDef*%
%ADD13RoundRect,0.150000X0.521491X-0.309359X-0.309359X0.521491X-0.521491X0.309359X0.309359X-0.521491X0*%
%TD*%
%TA.AperFunction,SMDPad,CuDef*%
%ADD14RoundRect,0.225000X0.335876X0.017678X0.017678X0.335876X-0.335876X-0.017678X-0.017678X-0.335876X0*%
%TD*%
%TA.AperFunction,SMDPad,CuDef*%
%ADD15RoundRect,0.062500X0.220971X0.309359X-0.309359X-0.220971X-0.220971X-0.309359X0.309359X0.220971X0*%
%TD*%
%TA.AperFunction,SMDPad,CuDef*%
%ADD16RoundRect,0.062500X-0.220971X0.309359X-0.309359X0.220971X0.220971X-0.309359X0.309359X-0.220971X0*%
%TD*%
%TA.AperFunction,HeatsinkPad*%
%ADD17RotRect,3.450000X3.450000X225.000000*%
%TD*%
%TA.AperFunction,ComponentPad*%
%ADD18RotRect,1.700000X1.700000X320.000000*%
%TD*%
%TA.AperFunction,ComponentPad*%
%ADD19HorizOval,1.700000X0.000000X0.000000X0.000000X0.000000X0*%
%TD*%
%TA.AperFunction,SMDPad,CuDef*%
%ADD20RoundRect,0.250000X1.281631X0.167938X0.167938X1.281631X-1.281631X-0.167938X-0.167938X-1.281631X0*%
%TD*%
%TA.AperFunction,SMDPad,CuDef*%
%ADD21RoundRect,0.200000X0.053033X-0.335876X0.335876X-0.053033X-0.053033X0.335876X-0.335876X0.053033X0*%
%TD*%
%TA.AperFunction,ComponentPad*%
%ADD22RotRect,1.700000X1.700000X135.000000*%
%TD*%
%TA.AperFunction,ComponentPad*%
%ADD23HorizOval,1.700000X0.000000X0.000000X0.000000X0.000000X0*%
%TD*%
%TA.AperFunction,SMDPad,CuDef*%
%ADD24RoundRect,0.225000X0.225000X0.250000X-0.225000X0.250000X-0.225000X-0.250000X0.225000X-0.250000X0*%
%TD*%
%TA.AperFunction,ComponentPad*%
%ADD25RotRect,1.700000X1.700000X45.000000*%
%TD*%
%TA.AperFunction,ComponentPad*%
%ADD26HorizOval,1.700000X0.000000X0.000000X0.000000X0.000000X0*%
%TD*%
%TA.AperFunction,ViaPad*%
%ADD27C,0.800000*%
%TD*%
%TA.AperFunction,ViaPad*%
%ADD28C,0.450000*%
%TD*%
%TA.AperFunction,Conductor*%
%ADD29C,0.750000*%
%TD*%
%TA.AperFunction,Conductor*%
%ADD30C,0.300000*%
%TD*%
%TA.AperFunction,Conductor*%
%ADD31C,0.200000*%
%TD*%
G04 APERTURE END LIST*
D10*
%TO.P,H1,1,1*%
%TO.N,unconnected-(H1-Pad1)*%
X82000000Y-70000000D03*
%TD*%
%TO.P,H2,1,1*%
%TO.N,unconnected-(H2-Pad1)*%
X98000000Y-70000000D03*
%TD*%
%TO.P,H4,1,1*%
%TO.N,unconnected-(H4-Pad1)*%
X90000000Y-79500000D03*
%TD*%
%TO.P,H3,1,1*%
%TO.N,unconnected-(H3-Pad1)*%
X90000000Y-60500000D03*
%TD*%
D11*
%TO.P,L1,1,1*%
%TO.N,Net-(U4-VDDCORE)*%
X86251992Y-67348008D03*
%TO.P,L1,2,2*%
%TO.N,Net-(U4-VSW)*%
X87348008Y-66251992D03*
%TD*%
D12*
%TO.P,C6,1*%
%TO.N,Net-(U3-1.8VOUT)*%
X94600000Y-75375000D03*
%TO.P,C6,2*%
%TO.N,GND*%
X94600000Y-73825000D03*
%TD*%
D13*
%TO.P,U1,1,VI*%
%TO.N,Vdrive*%
X96384664Y-63041161D03*
%TO.P,U1,2,VO*%
%TO.N,+3.3V*%
X95041161Y-64384664D03*
%TO.P,U1,3,GND*%
%TO.N,GND*%
X94387087Y-62387087D03*
%TD*%
D12*
%TO.P,C2,1*%
%TO.N,Vdrive*%
X96200000Y-75375000D03*
%TO.P,C2,2*%
%TO.N,Net-(U3-VCP)*%
X96200000Y-73825000D03*
%TD*%
D14*
%TO.P,C7,1*%
%TO.N,Net-(U4-VDDCORE)*%
X85048008Y-66148008D03*
%TO.P,C7,2*%
%TO.N,GND*%
X83951992Y-65051992D03*
%TD*%
D15*
%TO.P,U4,1,PA00*%
%TO.N,unconnected-(U4-PA00-Pad1)*%
X90486136Y-67038990D03*
%TO.P,U4,2,PA01*%
%TO.N,unconnected-(U4-PA01-Pad2)*%
X90839689Y-67392544D03*
%TO.P,U4,3,PA02*%
%TO.N,unconnected-(U4-PA02-Pad3)*%
X91193243Y-67746097D03*
%TO.P,U4,4,PA03*%
%TO.N,unconnected-(U4-PA03-Pad4)*%
X91546796Y-68099651D03*
%TO.P,U4,5,PA04*%
%TO.N,unconnected-(U4-PA04-Pad5)*%
X91900349Y-68453204D03*
%TO.P,U4,6,PA05*%
%TO.N,unconnected-(U4-PA05-Pad6)*%
X92253903Y-68806757D03*
%TO.P,U4,7,PA06*%
%TO.N,unconnected-(U4-PA06-Pad7)*%
X92607456Y-69160311D03*
%TO.P,U4,8,PA07*%
%TO.N,unconnected-(U4-PA07-Pad8)*%
X92961010Y-69513864D03*
D16*
%TO.P,U4,9,VDDANA*%
%TO.N,+3.3V*%
X92961010Y-70486136D03*
%TO.P,U4,10,GND*%
%TO.N,GND*%
X92607456Y-70839689D03*
%TO.P,U4,11,PA08*%
%TO.N,UH*%
X92253903Y-71193243D03*
%TO.P,U4,12,PA09*%
%TO.N,UL*%
X91900349Y-71546796D03*
%TO.P,U4,13,PA10*%
%TO.N,VH*%
X91546796Y-71900349D03*
%TO.P,U4,14,PA11*%
%TO.N,VL*%
X91193243Y-72253903D03*
%TO.P,U4,15,PA14*%
%TO.N,WH*%
X90839689Y-72607456D03*
%TO.P,U4,16,PA15*%
%TO.N,WL*%
X90486136Y-72961010D03*
D15*
%TO.P,U4,17,PA16*%
%TO.N,SDA*%
X89513864Y-72961010D03*
%TO.P,U4,18,PA17*%
%TO.N,SCL*%
X89160311Y-72607456D03*
%TO.P,U4,19,PA18*%
%TO.N,unconnected-(U4-PA18-Pad19)*%
X88806757Y-72253903D03*
%TO.P,U4,20,PA19*%
%TO.N,DIAG*%
X88453204Y-71900349D03*
%TO.P,U4,21,PA22*%
%TO.N,CTRL*%
X88099651Y-71546796D03*
%TO.P,U4,22,PA23*%
%TO.N,unconnected-(U4-PA23-Pad22)*%
X87746097Y-71193243D03*
%TO.P,U4,23,PA24*%
%TO.N,unconnected-(U4-PA24-Pad23)*%
X87392544Y-70839689D03*
%TO.P,U4,24,PA25*%
%TO.N,unconnected-(U4-PA25-Pad24)*%
X87038990Y-70486136D03*
D16*
%TO.P,U4,25,PA27*%
%TO.N,PWREN*%
X87038990Y-69513864D03*
%TO.P,U4,26,~{RESET}*%
%TO.N,~{RESET}*%
X87392544Y-69160311D03*
%TO.P,U4,27,VDDCORE*%
%TO.N,Net-(U4-VDDCORE)*%
X87746097Y-68806757D03*
%TO.P,U4,28,GND*%
%TO.N,GND*%
X88099651Y-68453204D03*
%TO.P,U4,29,VSW*%
%TO.N,Net-(U4-VSW)*%
X88453204Y-68099651D03*
%TO.P,U4,30,VDDIN*%
%TO.N,+3.3V*%
X88806757Y-67746097D03*
%TO.P,U4,31,PA30*%
%TO.N,SWCLK*%
X89160311Y-67392544D03*
%TO.P,U4,32,PA31*%
%TO.N,SWDIO*%
X89513864Y-67038990D03*
D17*
%TO.P,U4,33,GND*%
%TO.N,GND*%
X90000000Y-70000000D03*
%TD*%
D14*
%TO.P,C8,1*%
%TO.N,Net-(U4-VDDCORE)*%
X86148008Y-65048008D03*
%TO.P,C8,2*%
%TO.N,GND*%
X85051992Y-63951992D03*
%TD*%
D18*
%TO.P,J2,1,Pin_1*%
%TO.N,GND*%
X78237853Y-66883844D03*
D19*
%TO.P,J2,2,Pin_2*%
%TO.N,+3.3V*%
X79870534Y-64938091D03*
%TO.P,J2,3,Pin_3*%
%TO.N,~{RESET}*%
X81503214Y-62992338D03*
%TO.P,J2,4,Pin_4*%
%TO.N,SWCLK*%
X83135895Y-61046585D03*
%TO.P,J2,5,Pin_5*%
%TO.N,SWDIO*%
X84768575Y-59100832D03*
%TD*%
D14*
%TO.P,C9,1*%
%TO.N,+3.3V*%
X92448008Y-66148008D03*
%TO.P,C9,2*%
%TO.N,GND*%
X91351992Y-65051992D03*
%TD*%
D20*
%TO.P,C4,1*%
%TO.N,Vdrive*%
X84200870Y-79700870D03*
%TO.P,C4,2*%
%TO.N,GND*%
X79799130Y-75299130D03*
%TD*%
D21*
%TO.P,R2,1*%
%TO.N,+3.3V*%
X86216637Y-76983363D03*
%TO.P,R2,2*%
%TO.N,SDA*%
X87383363Y-75816637D03*
%TD*%
D22*
%TO.P,J3,1,Pin_1*%
%TO.N,W*%
X100396051Y-76703949D03*
D23*
%TO.P,J3,2,Pin_2*%
%TO.N,V*%
X98600000Y-78500000D03*
%TO.P,J3,3,Pin_3*%
%TO.N,U*%
X96803949Y-80296051D03*
%TD*%
D21*
%TO.P,R3,1*%
%TO.N,+3.3V*%
X85116637Y-75883363D03*
%TO.P,R3,2*%
%TO.N,SCL*%
X86283363Y-74716637D03*
%TD*%
D24*
%TO.P,C3,1*%
%TO.N,Vdrive*%
X101775000Y-73400000D03*
%TO.P,C3,2*%
%TO.N,GND*%
X100225000Y-73400000D03*
%TD*%
D14*
%TO.P,C1,1*%
%TO.N,+3.3V*%
X93548008Y-65048008D03*
%TO.P,C1,2*%
%TO.N,GND*%
X92451992Y-63951992D03*
%TD*%
D25*
%TO.P,J1,1,Pin_1*%
%TO.N,GND*%
X100285445Y-63285445D03*
D26*
%TO.P,J1,2,Pin_2*%
%TO.N,Vdrive*%
X98489394Y-61489394D03*
%TO.P,J1,3,Pin_3*%
%TO.N,Net-(J1-Pin_3)*%
X96693343Y-59693343D03*
%TD*%
D27*
%TO.N,GND*%
X98100000Y-74400000D03*
X97150000Y-74400000D03*
X91618238Y-75101001D03*
X83500000Y-63900000D03*
X94000000Y-79000000D03*
X96350000Y-77000000D03*
D28*
%TO.N,+3.3V*%
X88200000Y-66900000D03*
X83300000Y-74100000D03*
D27*
X94600000Y-66000000D03*
D28*
X94228238Y-63571742D03*
D27*
%TO.N,Vdrive*%
X82850000Y-78350000D03*
X98300000Y-75700000D03*
X81300000Y-76800000D03*
X99000000Y-75000000D03*
X82050000Y-77550000D03*
D28*
%TO.N,Net-(U3-VCP)*%
X95550000Y-72950000D03*
%TO.N,Net-(U3-1.8VOUT)*%
X95100000Y-77800000D03*
%TO.N,CTRL*%
X86600000Y-73100000D03*
%TO.N,WL*%
X91041372Y-73968981D03*
%TO.N,WH*%
X91300000Y-73400000D03*
%TO.N,VL*%
X92400000Y-76100000D03*
%TO.N,VH*%
X92500000Y-73000000D03*
%TO.N,UL*%
X92900000Y-74100000D03*
%TO.N,UH*%
X93800000Y-72700000D03*
%TO.N,SDA*%
X88887437Y-73587437D03*
%TO.N,SCL*%
X88455032Y-73136158D03*
%TO.N,DIAG*%
X87100000Y-73600000D03*
%TO.N,PWREN*%
X93900000Y-77750000D03*
X86100000Y-69000000D03*
%TD*%
D29*
%TO.N,GND*%
X94274000Y-71474000D02*
X94274000Y-68456640D01*
D30*
X91619239Y-75100000D02*
X93325000Y-75100000D01*
X94000000Y-79000000D02*
X94500000Y-78500000D01*
X95424000Y-74576000D02*
X95424000Y-76074000D01*
D29*
X94600000Y-73825000D02*
X94600000Y-71800000D01*
X94274000Y-68456640D02*
X96400000Y-66330640D01*
D30*
X93325000Y-76225000D02*
X93325000Y-75100000D01*
X95424945Y-74575055D02*
X95424000Y-74576000D01*
X94600000Y-73825000D02*
X94674890Y-73825000D01*
X94674890Y-73825000D02*
X95424945Y-74575055D01*
X95424000Y-76074000D02*
X96350000Y-77000000D01*
X94500000Y-77400000D02*
X93325000Y-76225000D01*
X93325000Y-75100000D02*
X94600000Y-73825000D01*
D31*
X87349000Y-67349000D02*
X86400000Y-66400000D01*
X87349000Y-67702553D02*
X87349000Y-67349000D01*
D29*
X96400000Y-64400000D02*
X94387087Y-62387087D01*
D30*
X91618238Y-75101001D02*
X91619239Y-75100000D01*
X96974945Y-74575055D02*
X95424945Y-74575055D01*
D31*
X86400000Y-66000000D02*
X87100000Y-65300000D01*
D29*
X96400000Y-66330640D02*
X96400000Y-65300000D01*
D30*
X94500000Y-78500000D02*
X94500000Y-77400000D01*
D31*
X88099651Y-68453204D02*
X87349000Y-67702553D01*
D30*
X97150000Y-74400000D02*
X96974945Y-74575055D01*
D29*
X96400000Y-65300000D02*
X96400000Y-64400000D01*
X94600000Y-71800000D02*
X94274000Y-71474000D01*
D31*
X86400000Y-66400000D02*
X86400000Y-66000000D01*
%TO.N,+3.3V*%
X79870534Y-62729466D02*
X79870534Y-64938091D01*
X82700000Y-62400000D02*
X82000000Y-61700000D01*
X94600000Y-64825825D02*
X95041161Y-64384664D01*
X92961010Y-70486136D02*
X93600000Y-69847146D01*
X88200000Y-66900000D02*
X88400000Y-66700000D01*
X80900000Y-61700000D02*
X79870534Y-62729466D01*
X92448008Y-66148008D02*
X93548008Y-65048008D01*
X88200000Y-67139340D02*
X88806757Y-67746097D01*
X93600000Y-67000000D02*
X94600000Y-66000000D01*
X83333274Y-74100000D02*
X83300000Y-74100000D01*
X95041160Y-64384664D02*
X94228238Y-63571742D01*
X95041161Y-64384664D02*
X95041160Y-64384664D01*
X88400000Y-66700000D02*
X88400000Y-65296388D01*
X88200000Y-66900000D02*
X88200000Y-67139340D01*
X85503612Y-62400000D02*
X82700000Y-62400000D01*
X85600000Y-68300000D02*
X85600000Y-71800000D01*
X85600000Y-71800000D02*
X83300000Y-74100000D01*
X82000000Y-61700000D02*
X80900000Y-61700000D01*
X93600000Y-69847146D02*
X93600000Y-67000000D01*
X79870534Y-64938091D02*
X82238091Y-64938091D01*
X86216637Y-76983363D02*
X83333274Y-74100000D01*
X94600000Y-66000000D02*
X94600000Y-64825825D01*
X93770191Y-64825825D02*
X93548008Y-65048008D01*
X82238091Y-64938091D02*
X85600000Y-68300000D01*
X94600000Y-64825825D02*
X93770191Y-64825825D01*
X88400000Y-65296388D02*
X85503612Y-62400000D01*
D29*
%TO.N,Vdrive*%
X101725000Y-67825000D02*
X98489395Y-64589395D01*
X98489394Y-61489394D02*
X98489395Y-61489393D01*
D31*
X96777442Y-63433939D02*
X96384664Y-63041161D01*
D29*
X81300000Y-76800000D02*
X84200870Y-79700870D01*
X91542946Y-83225000D02*
X98300000Y-76467946D01*
X84900870Y-79700870D02*
X88425000Y-83225000D01*
X98300000Y-75700000D02*
X99000000Y-75000000D01*
X98489395Y-63433939D02*
X98489395Y-61489393D01*
X97975000Y-75375000D02*
X98300000Y-75700000D01*
X96200000Y-75375000D02*
X97975000Y-75375000D01*
X84200870Y-79700870D02*
X84900870Y-79700870D01*
X99000000Y-75000000D02*
X99200000Y-74800000D01*
X98489395Y-64589395D02*
X98489395Y-63433939D01*
X101725000Y-73675000D02*
X101725000Y-67825000D01*
X88425000Y-83225000D02*
X91542946Y-83225000D01*
D31*
X98489395Y-63433939D02*
X96777442Y-63433939D01*
D29*
X99200000Y-74800000D02*
X100600000Y-74800000D01*
X100600000Y-74800000D02*
X101725000Y-73675000D01*
X98300000Y-76467946D02*
X98300000Y-75700000D01*
D30*
%TO.N,Net-(U3-VCP)*%
X96200000Y-73600000D02*
X95550000Y-72950000D01*
X96200000Y-73825000D02*
X96200000Y-73600000D01*
%TO.N,Net-(U3-1.8VOUT)*%
X95100000Y-77100000D02*
X94600000Y-76600000D01*
X95100000Y-77800000D02*
X95100000Y-77100000D01*
X94600000Y-76600000D02*
X94600000Y-75375000D01*
D31*
%TO.N,CTRL*%
X86600000Y-73046447D02*
X88099651Y-71546796D01*
X86600000Y-73100000D02*
X86600000Y-73046447D01*
%TO.N,~{RESET}*%
X87392544Y-69160311D02*
X86732233Y-68500000D01*
X86732233Y-68500000D02*
X86300000Y-68500000D01*
X81500000Y-63700000D02*
X81500000Y-63000000D01*
X86300000Y-68500000D02*
X81500000Y-63700000D01*
%TO.N,SWCLK*%
X88800000Y-65200000D02*
X84646585Y-61046585D01*
X84646585Y-61046585D02*
X83135895Y-61046585D01*
X89160311Y-67392544D02*
X89160311Y-67215769D01*
X89160311Y-67215769D02*
X88800000Y-66855458D01*
X88800000Y-66855458D02*
X88800000Y-65200000D01*
%TO.N,SWDIO*%
X84768575Y-60668575D02*
X84768575Y-59100832D01*
X89513864Y-65413864D02*
X84768575Y-60668575D01*
X89513864Y-67038990D02*
X89513864Y-65413864D01*
%TO.N,WL*%
X91041372Y-73968981D02*
X91041372Y-73941372D01*
X91041372Y-73941372D02*
X90486136Y-73386136D01*
X90486136Y-73386136D02*
X90486136Y-72961010D01*
%TO.N,WH*%
X91300000Y-73400000D02*
X91300000Y-73067767D01*
X91300000Y-73067767D02*
X90839689Y-72607456D01*
%TO.N,VL*%
X91193243Y-72253903D02*
X91801000Y-72861660D01*
X91251000Y-75751000D02*
X92051000Y-75751000D01*
X91801000Y-72861660D02*
X91801000Y-73999000D01*
X90900000Y-75400000D02*
X91251000Y-75751000D01*
X92051000Y-75751000D02*
X92400000Y-76100000D01*
X90900000Y-74900000D02*
X90900000Y-75400000D01*
X91801000Y-73999000D02*
X90900000Y-74900000D01*
%TO.N,VH*%
X92500000Y-73000000D02*
X92500000Y-72853553D01*
X92500000Y-72853553D02*
X91546796Y-71900349D01*
%TO.N,UL*%
X93050000Y-73450000D02*
X93050000Y-72696447D01*
X92900000Y-73600000D02*
X93050000Y-73450000D01*
X92900000Y-74100000D02*
X92900000Y-73600000D01*
X93050000Y-72696447D02*
X91900349Y-71546796D01*
%TO.N,UH*%
X92253903Y-71193243D02*
X92293243Y-71193243D01*
X92293243Y-71193243D02*
X93800000Y-72700000D01*
%TO.N,SDA*%
X87383363Y-75091511D02*
X88887437Y-73587437D01*
X88887437Y-73587437D02*
X89513864Y-72961010D01*
X87383363Y-75816637D02*
X87383363Y-75091511D01*
%TO.N,SCL*%
X88890780Y-72876987D02*
X88723013Y-72876987D01*
X86883363Y-74716637D02*
X86283363Y-74716637D01*
X89160311Y-72607456D02*
X88890780Y-72876987D01*
X88723013Y-72876987D02*
X86883363Y-74716637D01*
%TO.N,DIAG*%
X87353553Y-73346447D02*
X87353553Y-73000000D01*
X87100000Y-73600000D02*
X87353553Y-73346447D01*
X87353553Y-73000000D02*
X88453204Y-71900349D01*
%TO.N,Net-(U4-VDDCORE)*%
X85048008Y-66548008D02*
X85048008Y-66148008D01*
X86487348Y-67548008D02*
X87746097Y-68806757D01*
X86048008Y-67548008D02*
X85048008Y-66548008D01*
X86051992Y-67548008D02*
X86048008Y-67548008D01*
X86251992Y-67348008D02*
X86451992Y-67548008D01*
X86451992Y-67548008D02*
X86487348Y-67548008D01*
X85048008Y-66148008D02*
X86148008Y-65048008D01*
X86251992Y-67348008D02*
X86051992Y-67548008D01*
%TO.N,Net-(U4-VSW)*%
X87348008Y-66251992D02*
X87700000Y-66603984D01*
X87700000Y-66603984D02*
X87700000Y-67346447D01*
X87700000Y-67346447D02*
X88453204Y-68099651D01*
%TO.N,PWREN*%
X91763603Y-76200000D02*
X93313603Y-77750000D01*
X91100000Y-76200000D02*
X91763603Y-76200000D01*
X86100000Y-73750000D02*
X85400000Y-74450000D01*
X87200000Y-76700000D02*
X87700000Y-76700000D01*
X87700000Y-76700000D02*
X88352512Y-76047488D01*
X85400000Y-74450000D02*
X85400000Y-74900000D01*
X86100000Y-69000000D02*
X86100000Y-73750000D01*
X93313603Y-77750000D02*
X93900000Y-77750000D01*
X88352512Y-76047488D02*
X90947488Y-76047488D01*
X86525126Y-69000000D02*
X87038990Y-69513864D01*
X90947488Y-76047488D02*
X91100000Y-76200000D01*
X86100000Y-69000000D02*
X86525126Y-69000000D01*
X85400000Y-74900000D02*
X87200000Y-76700000D01*
%TD*%
%TA.AperFunction,Conductor*%
%TO.N,GND*%
G36*
X90293403Y-56005332D02*
G01*
X90442092Y-56009291D01*
X90444514Y-56009387D01*
X91025700Y-56039846D01*
X91028192Y-56040011D01*
X91176013Y-56051843D01*
X91178242Y-56052049D01*
X91757830Y-56112966D01*
X91760501Y-56113285D01*
X91906414Y-56132825D01*
X91908608Y-56133145D01*
X92485275Y-56224480D01*
X92488057Y-56224962D01*
X92631327Y-56251976D01*
X92633275Y-56252367D01*
X93206124Y-56374129D01*
X93208927Y-56374770D01*
X93348441Y-56408854D01*
X93350523Y-56409387D01*
X93918227Y-56561503D01*
X93921030Y-56562301D01*
X94056163Y-56603047D01*
X94058030Y-56603632D01*
X94615000Y-56784602D01*
X94619568Y-56786087D01*
X94622560Y-56787112D01*
X94752265Y-56833886D01*
X94754008Y-56834536D01*
X95308352Y-57047329D01*
X95311330Y-57048528D01*
X95434726Y-57100605D01*
X95436371Y-57101318D01*
X95982551Y-57344494D01*
X95985555Y-57345892D01*
X96101836Y-57402436D01*
X96103331Y-57403180D01*
X96640269Y-57676764D01*
X96643287Y-57678368D01*
X96751660Y-57738398D01*
X96753023Y-57739169D01*
X97279775Y-58043289D01*
X97282658Y-58045023D01*
X97382312Y-58107376D01*
X97383709Y-58108266D01*
X97899036Y-58442924D01*
X97902008Y-58444931D01*
X97992134Y-58508237D01*
X97993413Y-58509150D01*
X98386043Y-58794413D01*
X98496574Y-58874718D01*
X98499518Y-58876943D01*
X98579429Y-58939682D01*
X98580597Y-58940613D01*
X99070577Y-59337391D01*
X99073467Y-59339824D01*
X99142559Y-59400281D01*
X99143610Y-59401214D01*
X99362640Y-59598429D01*
X99553730Y-59770487D01*
X99619518Y-59829722D01*
X99622340Y-59832364D01*
X99679819Y-59888333D01*
X99680757Y-59889258D01*
X100141856Y-60350357D01*
X100144570Y-60353182D01*
X100189926Y-60402314D01*
X100190679Y-60403140D01*
X100636088Y-60897818D01*
X100638696Y-60900835D01*
X100659259Y-60925637D01*
X100671147Y-60939977D01*
X100671869Y-60940859D01*
X100719404Y-60999559D01*
X101100847Y-61470602D01*
X101103357Y-61473837D01*
X101122384Y-61499448D01*
X101122980Y-61500258D01*
X101508654Y-62031093D01*
X101534811Y-62067094D01*
X101537221Y-62070565D01*
X101542405Y-62078381D01*
X101542930Y-62079182D01*
X101935114Y-62683092D01*
X101937823Y-62687511D01*
X102301705Y-63317773D01*
X102304178Y-63322328D01*
X102634568Y-63970754D01*
X102636799Y-63975432D01*
X102932802Y-64640265D01*
X102934785Y-64645054D01*
X103195573Y-65324431D01*
X103197304Y-65329316D01*
X103422196Y-66021464D01*
X103423668Y-66026434D01*
X103612021Y-66729377D01*
X103613231Y-66734417D01*
X103764539Y-67446267D01*
X103765483Y-67451363D01*
X103879325Y-68170130D01*
X103880002Y-68175269D01*
X103956074Y-68899046D01*
X103956480Y-68904213D01*
X103994567Y-69630940D01*
X103994703Y-69636121D01*
X103994703Y-70363878D01*
X103994567Y-70369059D01*
X103956480Y-71095786D01*
X103956074Y-71100953D01*
X103880002Y-71824730D01*
X103879325Y-71829869D01*
X103765483Y-72548636D01*
X103764539Y-72553732D01*
X103613231Y-73265582D01*
X103612021Y-73270622D01*
X103423668Y-73973565D01*
X103422196Y-73978535D01*
X103197304Y-74670683D01*
X103195573Y-74675568D01*
X102934785Y-75354945D01*
X102932802Y-75359734D01*
X102636799Y-76024567D01*
X102634568Y-76029245D01*
X102304178Y-76677671D01*
X102301705Y-76682226D01*
X101937823Y-77312488D01*
X101935114Y-77316907D01*
X101542930Y-77920816D01*
X101542405Y-77921617D01*
X101537221Y-77929433D01*
X101534811Y-77932904D01*
X101123008Y-78499702D01*
X101122384Y-78500550D01*
X101103357Y-78526161D01*
X101100825Y-78529425D01*
X100671869Y-79059139D01*
X100671147Y-79060021D01*
X100638715Y-79099141D01*
X100636071Y-79102200D01*
X100190679Y-79596858D01*
X100189851Y-79597767D01*
X100144595Y-79646790D01*
X100141856Y-79649641D01*
X99680757Y-80110740D01*
X99679819Y-80111665D01*
X99622340Y-80167634D01*
X99619518Y-80170276D01*
X99143610Y-80598784D01*
X99142559Y-80599717D01*
X99073467Y-80660174D01*
X99070577Y-80662607D01*
X98580597Y-81059385D01*
X98579429Y-81060316D01*
X98499518Y-81123055D01*
X98496574Y-81125280D01*
X97993421Y-81490842D01*
X97992134Y-81491761D01*
X97902008Y-81555067D01*
X97899023Y-81557083D01*
X97383719Y-81891725D01*
X97382312Y-81892622D01*
X97282722Y-81954936D01*
X97279710Y-81956748D01*
X96753106Y-82260782D01*
X96751576Y-82261647D01*
X96643294Y-82321626D01*
X96640269Y-82323234D01*
X96103429Y-82596769D01*
X96101777Y-82597591D01*
X95985554Y-82654106D01*
X95982528Y-82655515D01*
X95436453Y-82898644D01*
X95434679Y-82899413D01*
X95311337Y-82951467D01*
X95308322Y-82952681D01*
X94754087Y-83165432D01*
X94752193Y-83166138D01*
X94622559Y-83212886D01*
X94619568Y-83213911D01*
X94058102Y-83396343D01*
X94056090Y-83396973D01*
X93921107Y-83437675D01*
X93918149Y-83438517D01*
X93350545Y-83590605D01*
X93348418Y-83591149D01*
X93208981Y-83625215D01*
X93206068Y-83625881D01*
X92633423Y-83747601D01*
X92631183Y-83748050D01*
X92488093Y-83775029D01*
X92485237Y-83775524D01*
X91979471Y-83855629D01*
X91919039Y-83846058D01*
X91875774Y-83802793D01*
X91866203Y-83742361D01*
X91893980Y-83687844D01*
X91896306Y-83685517D01*
X91896311Y-83685515D01*
X95613115Y-79968710D01*
X95667628Y-79940936D01*
X95728060Y-79950507D01*
X95771325Y-79993772D01*
X95780896Y-80054204D01*
X95780213Y-80058031D01*
X95753449Y-80192582D01*
X95753449Y-80399518D01*
X95793818Y-80602469D01*
X95873007Y-80793648D01*
X95873008Y-80793649D01*
X95987972Y-80965706D01*
X96134294Y-81112028D01*
X96306351Y-81226992D01*
X96497529Y-81306181D01*
X96700484Y-81346551D01*
X96700485Y-81346551D01*
X96907413Y-81346551D01*
X96907414Y-81346551D01*
X97110369Y-81306181D01*
X97301547Y-81226992D01*
X97473604Y-81112028D01*
X97619926Y-80965706D01*
X97734890Y-80793649D01*
X97814079Y-80602471D01*
X97854449Y-80399516D01*
X97854449Y-80192586D01*
X97814079Y-79989631D01*
X97734890Y-79798453D01*
X97619926Y-79626396D01*
X97473604Y-79480074D01*
X97400071Y-79430941D01*
X97301546Y-79365109D01*
X97110367Y-79285920D01*
X96907416Y-79245551D01*
X96907414Y-79245551D01*
X96700484Y-79245551D01*
X96700480Y-79245551D01*
X96565929Y-79272315D01*
X96505167Y-79265123D01*
X96460238Y-79223590D01*
X96448301Y-79163580D01*
X96473917Y-79108015D01*
X96476561Y-79105264D01*
X97409166Y-78172659D01*
X97463679Y-78144885D01*
X97524111Y-78154456D01*
X97567376Y-78197721D01*
X97576947Y-78258153D01*
X97576264Y-78261980D01*
X97549500Y-78396531D01*
X97549500Y-78603467D01*
X97589869Y-78806418D01*
X97669058Y-78997597D01*
X97779180Y-79162407D01*
X97784023Y-79169655D01*
X97930345Y-79315977D01*
X98102402Y-79430941D01*
X98293580Y-79510130D01*
X98496535Y-79550500D01*
X98496536Y-79550500D01*
X98703464Y-79550500D01*
X98703465Y-79550500D01*
X98906420Y-79510130D01*
X99097598Y-79430941D01*
X99269655Y-79315977D01*
X99415977Y-79169655D01*
X99530941Y-78997598D01*
X99610130Y-78806420D01*
X99650500Y-78603465D01*
X99650500Y-78396535D01*
X99610130Y-78193580D01*
X99530941Y-78002402D01*
X99415977Y-77830345D01*
X99269655Y-77684023D01*
X99264435Y-77680535D01*
X99097597Y-77569058D01*
X98906418Y-77489869D01*
X98703467Y-77449500D01*
X98703465Y-77449500D01*
X98496535Y-77449500D01*
X98496531Y-77449500D01*
X98361980Y-77476264D01*
X98301218Y-77469072D01*
X98256289Y-77427539D01*
X98244352Y-77367529D01*
X98269968Y-77311964D01*
X98272612Y-77309213D01*
X98760514Y-76821312D01*
X98761543Y-76819531D01*
X98816701Y-76723993D01*
X98862169Y-76683055D01*
X98923019Y-76676659D01*
X98976007Y-76707252D01*
X98999534Y-76754183D01*
X99005102Y-76782179D01*
X99030060Y-76819531D01*
X99038231Y-76831760D01*
X100268240Y-78061769D01*
X100317820Y-78094897D01*
X100396051Y-78110458D01*
X100474282Y-78094897D01*
X100523862Y-78061769D01*
X101753871Y-76831760D01*
X101786999Y-76782180D01*
X101802560Y-76703949D01*
X101798343Y-76682751D01*
X101786999Y-76625718D01*
X101753873Y-76576141D01*
X101753871Y-76576138D01*
X100700377Y-75522644D01*
X100672600Y-75468127D01*
X100682171Y-75407695D01*
X100725436Y-75364430D01*
X100744753Y-75357014D01*
X100822135Y-75336281D01*
X100927360Y-75275529D01*
X100953360Y-75260518D01*
X100953360Y-75260517D01*
X100953365Y-75260515D01*
X102078362Y-74135516D01*
X102078365Y-74135515D01*
X102164932Y-74048947D01*
X102189980Y-74030749D01*
X102253220Y-73998528D01*
X102348528Y-73903220D01*
X102385013Y-73831615D01*
X102409718Y-73783129D01*
X102409718Y-73783127D01*
X102409719Y-73783126D01*
X102425500Y-73683488D01*
X102425500Y-73116512D01*
X102425140Y-73114241D01*
X102419355Y-73077713D01*
X102409719Y-73016874D01*
X102409716Y-73016869D01*
X102409716Y-73016867D01*
X102348529Y-72896782D01*
X102348528Y-72896780D01*
X102339862Y-72888114D01*
X102329495Y-72877746D01*
X102301719Y-72823229D01*
X102300500Y-72807744D01*
X102300500Y-67749236D01*
X102300500Y-67749234D01*
X102296021Y-67732519D01*
X102261281Y-67602865D01*
X102251549Y-67586008D01*
X102237264Y-67561266D01*
X102185518Y-67471639D01*
X102185514Y-67471634D01*
X102078365Y-67364484D01*
X102078365Y-67364485D01*
X99093891Y-64380011D01*
X99066114Y-64325494D01*
X99064895Y-64310007D01*
X99064895Y-62421199D01*
X99083802Y-62363008D01*
X99108894Y-62338883D01*
X99159049Y-62305371D01*
X99305371Y-62159049D01*
X99420335Y-61986992D01*
X99499524Y-61795814D01*
X99539894Y-61592859D01*
X99539894Y-61385929D01*
X99499524Y-61182974D01*
X99420335Y-60991796D01*
X99305371Y-60819739D01*
X99159049Y-60673417D01*
X99159045Y-60673414D01*
X98986991Y-60558452D01*
X98795812Y-60479263D01*
X98592861Y-60438894D01*
X98592859Y-60438894D01*
X98385929Y-60438894D01*
X98385926Y-60438894D01*
X98182975Y-60479263D01*
X97991796Y-60558452D01*
X97819742Y-60673414D01*
X97673414Y-60819742D01*
X97558452Y-60991796D01*
X97479263Y-61182975D01*
X97438894Y-61385926D01*
X97438894Y-61592861D01*
X97479263Y-61795812D01*
X97558452Y-61986991D01*
X97626418Y-62088710D01*
X97673417Y-62159049D01*
X97819739Y-62305371D01*
X97819742Y-62305373D01*
X97819744Y-62305375D01*
X97869895Y-62338884D01*
X97907776Y-62386933D01*
X97913895Y-62421200D01*
X97913895Y-63034439D01*
X97894988Y-63092630D01*
X97845488Y-63128594D01*
X97814895Y-63133439D01*
X97225763Y-63133439D01*
X97167572Y-63114532D01*
X97155765Y-63104448D01*
X96299627Y-62248310D01*
X96299623Y-62248307D01*
X96299621Y-62248305D01*
X96244435Y-62207155D01*
X96244431Y-62207153D01*
X96133793Y-62169170D01*
X96016816Y-62169170D01*
X95943058Y-62194492D01*
X95906178Y-62207153D01*
X95850985Y-62248308D01*
X95850982Y-62248310D01*
X95591813Y-62507479D01*
X95591811Y-62507482D01*
X95550656Y-62562675D01*
X95550656Y-62562676D01*
X95512673Y-62673313D01*
X95512673Y-62790290D01*
X95546518Y-62888874D01*
X95550656Y-62900928D01*
X95550658Y-62900932D01*
X95591808Y-62956118D01*
X95591810Y-62956120D01*
X95591813Y-62956124D01*
X96469701Y-63834012D01*
X96469704Y-63834014D01*
X96469706Y-63834016D01*
X96524892Y-63875166D01*
X96524894Y-63875167D01*
X96524897Y-63875169D01*
X96635535Y-63913152D01*
X96635537Y-63913152D01*
X96752510Y-63913152D01*
X96752512Y-63913152D01*
X96863149Y-63875169D01*
X96918346Y-63834012D01*
X96953638Y-63798720D01*
X96988924Y-63763435D01*
X97043441Y-63735658D01*
X97058927Y-63734439D01*
X97814895Y-63734439D01*
X97873086Y-63753346D01*
X97909050Y-63802846D01*
X97913895Y-63833439D01*
X97913895Y-64513629D01*
X97913895Y-64665161D01*
X97937468Y-64753136D01*
X97953115Y-64811534D01*
X98028876Y-64942755D01*
X98028877Y-64942756D01*
X98028878Y-64942757D01*
X98028880Y-64942760D01*
X99241262Y-66155142D01*
X100406630Y-67320510D01*
X100434407Y-67375027D01*
X100424836Y-67435459D01*
X100381571Y-67478724D01*
X100321139Y-67488295D01*
X100273821Y-67467042D01*
X100232437Y-67433079D01*
X100028118Y-67265399D01*
X99958667Y-67218993D01*
X99750312Y-67079773D01*
X99455672Y-66922286D01*
X99455660Y-66922280D01*
X99455654Y-66922277D01*
X99455649Y-66922274D01*
X99455645Y-66922273D01*
X99146967Y-66794414D01*
X98827253Y-66697431D01*
X98590619Y-66650362D01*
X98499559Y-66632249D01*
X98499557Y-66632248D01*
X98256491Y-66608308D01*
X98167056Y-66599500D01*
X97832944Y-66599500D01*
X97734700Y-66609176D01*
X97500444Y-66632248D01*
X97172746Y-66697431D01*
X96853032Y-66794414D01*
X96544354Y-66922273D01*
X96544327Y-66922286D01*
X96249687Y-67079773D01*
X95971880Y-67265400D01*
X95713615Y-67477352D01*
X95477352Y-67713615D01*
X95265400Y-67971880D01*
X95079773Y-68249687D01*
X94922286Y-68544327D01*
X94922273Y-68544354D01*
X94794414Y-68853032D01*
X94697431Y-69172746D01*
X94632248Y-69500444D01*
X94615159Y-69673952D01*
X94599500Y-69832944D01*
X94599500Y-70167056D01*
X94607244Y-70245679D01*
X94632248Y-70499555D01*
X94697431Y-70827253D01*
X94794414Y-71146967D01*
X94922273Y-71455645D01*
X94922286Y-71455672D01*
X95079773Y-71750312D01*
X95200047Y-71930313D01*
X95265399Y-72028118D01*
X95477357Y-72286390D01*
X95547748Y-72356781D01*
X95575524Y-72411296D01*
X95565953Y-72471728D01*
X95522688Y-72514993D01*
X95500037Y-72522028D01*
X95500250Y-72522821D01*
X95493984Y-72524500D01*
X95493982Y-72524500D01*
X95432394Y-72541002D01*
X95385758Y-72553498D01*
X95288739Y-72609513D01*
X95209513Y-72688739D01*
X95153498Y-72785758D01*
X95147607Y-72807744D01*
X95124500Y-72893982D01*
X95124500Y-73006018D01*
X95143713Y-73077723D01*
X95153498Y-73114241D01*
X95209513Y-73211260D01*
X95209515Y-73211263D01*
X95288737Y-73290485D01*
X95385763Y-73346503D01*
X95449009Y-73363449D01*
X95493389Y-73389071D01*
X95508839Y-73404521D01*
X95536616Y-73459038D01*
X95536616Y-73490012D01*
X95524500Y-73566508D01*
X95524500Y-73566510D01*
X95524500Y-73566512D01*
X95524500Y-74083488D01*
X95535504Y-74152968D01*
X95540281Y-74183125D01*
X95540283Y-74183132D01*
X95601470Y-74303217D01*
X95601472Y-74303220D01*
X95696780Y-74398528D01*
X95696782Y-74398529D01*
X95816867Y-74459716D01*
X95816869Y-74459716D01*
X95816874Y-74459719D01*
X95892541Y-74471703D01*
X95916510Y-74475500D01*
X95916512Y-74475500D01*
X96483490Y-74475500D01*
X96504885Y-74472111D01*
X96583126Y-74459719D01*
X96703220Y-74398528D01*
X96798528Y-74303220D01*
X96859719Y-74183126D01*
X96875500Y-74083488D01*
X96875500Y-73566512D01*
X96875499Y-73566508D01*
X96867933Y-73518735D01*
X96859719Y-73466874D01*
X96809031Y-73367394D01*
X96799460Y-73306964D01*
X96827237Y-73252447D01*
X96881753Y-73224669D01*
X96925979Y-73227713D01*
X97063642Y-73269472D01*
X97172749Y-73302569D01*
X97500441Y-73367751D01*
X97832944Y-73400500D01*
X97832947Y-73400500D01*
X98167053Y-73400500D01*
X98167056Y-73400500D01*
X98499559Y-73367751D01*
X98827251Y-73302569D01*
X99016857Y-73245052D01*
X99146967Y-73205585D01*
X99146969Y-73205583D01*
X99146976Y-73205582D01*
X99455654Y-73077723D01*
X99634551Y-72982101D01*
X99750312Y-72920226D01*
X99754226Y-72917611D01*
X100028118Y-72734601D01*
X100286390Y-72522643D01*
X100522643Y-72286390D01*
X100734601Y-72028118D01*
X100920224Y-71750315D01*
X100920226Y-71750312D01*
X100963190Y-71669932D01*
X101007295Y-71627525D01*
X101067903Y-71619142D01*
X101121864Y-71647984D01*
X101148566Y-71703035D01*
X101149500Y-71716600D01*
X101149500Y-72975013D01*
X101141335Y-73009023D01*
X101142689Y-73009463D01*
X101140281Y-73016872D01*
X101124500Y-73116510D01*
X101124500Y-73420612D01*
X101105593Y-73478803D01*
X101095504Y-73490616D01*
X100390616Y-74195504D01*
X100336099Y-74223281D01*
X100320612Y-74224500D01*
X99275767Y-74224500D01*
X99124234Y-74224500D01*
X99034652Y-74248503D01*
X98977860Y-74263720D01*
X98846635Y-74339484D01*
X98724150Y-74461968D01*
X98703647Y-74477700D01*
X98631288Y-74519476D01*
X98519478Y-74631286D01*
X98477701Y-74703646D01*
X98461969Y-74724149D01*
X98346114Y-74840004D01*
X98291597Y-74867781D01*
X98231165Y-74858210D01*
X98226609Y-74855736D01*
X98197137Y-74838720D01*
X98197136Y-74838719D01*
X98197135Y-74838719D01*
X98050766Y-74799500D01*
X98050764Y-74799500D01*
X96723118Y-74799500D01*
X96678173Y-74788710D01*
X96583126Y-74740281D01*
X96483490Y-74724500D01*
X96483488Y-74724500D01*
X95916512Y-74724500D01*
X95916510Y-74724500D01*
X95816874Y-74740281D01*
X95816867Y-74740283D01*
X95696782Y-74801470D01*
X95601470Y-74896782D01*
X95540283Y-75016867D01*
X95540281Y-75016874D01*
X95524500Y-75116510D01*
X95524500Y-75633489D01*
X95526403Y-75645504D01*
X95537266Y-75714093D01*
X95540281Y-75733125D01*
X95540283Y-75733132D01*
X95601470Y-75853217D01*
X95601472Y-75853220D01*
X95696780Y-75948528D01*
X95696782Y-75948529D01*
X95816867Y-76009716D01*
X95816869Y-76009716D01*
X95816874Y-76009719D01*
X95892541Y-76021703D01*
X95916510Y-76025500D01*
X95916512Y-76025500D01*
X96483490Y-76025500D01*
X96504885Y-76022111D01*
X96583126Y-76009719D01*
X96678173Y-75961289D01*
X96723118Y-75950500D01*
X97625500Y-75950500D01*
X97640412Y-75955345D01*
X97656093Y-75955345D01*
X97668778Y-75964561D01*
X97683691Y-75969407D01*
X97692907Y-75982092D01*
X97705593Y-75991309D01*
X97710438Y-76006221D01*
X97719655Y-76018907D01*
X97724500Y-76049500D01*
X97724500Y-76188557D01*
X97705593Y-76246748D01*
X97695504Y-76258561D01*
X93440852Y-80513212D01*
X93386335Y-80540989D01*
X93325903Y-80531418D01*
X93282638Y-80488153D01*
X93273067Y-80427721D01*
X93276108Y-80414480D01*
X93302569Y-80327251D01*
X93367751Y-79999559D01*
X93400500Y-79667056D01*
X93400500Y-79332944D01*
X93367751Y-79000441D01*
X93302569Y-78672749D01*
X93281551Y-78603463D01*
X93205585Y-78353032D01*
X93166285Y-78258153D01*
X93132904Y-78177566D01*
X93128104Y-78116571D01*
X93160073Y-78064402D01*
X93216601Y-78040987D01*
X93249990Y-78044055D01*
X93274041Y-78050500D01*
X93557745Y-78050500D01*
X93615936Y-78069407D01*
X93627742Y-78079490D01*
X93638737Y-78090485D01*
X93638739Y-78090486D01*
X93735759Y-78146501D01*
X93735757Y-78146501D01*
X93735761Y-78146502D01*
X93735763Y-78146503D01*
X93843982Y-78175500D01*
X93843984Y-78175500D01*
X93956016Y-78175500D01*
X93956018Y-78175500D01*
X94064237Y-78146503D01*
X94064239Y-78146501D01*
X94064241Y-78146501D01*
X94093064Y-78129859D01*
X94161263Y-78090485D01*
X94240485Y-78011263D01*
X94296503Y-77914237D01*
X94325500Y-77806018D01*
X94325500Y-77693982D01*
X94296503Y-77585763D01*
X94296501Y-77585760D01*
X94296501Y-77585758D01*
X94241139Y-77489870D01*
X94240485Y-77488737D01*
X94161263Y-77409515D01*
X94161260Y-77409513D01*
X94064240Y-77353498D01*
X94064242Y-77353498D01*
X94022251Y-77342247D01*
X93956018Y-77324500D01*
X93843982Y-77324500D01*
X93777748Y-77342247D01*
X93735758Y-77353498D01*
X93638739Y-77409513D01*
X93638737Y-77409514D01*
X93638737Y-77409515D01*
X93627746Y-77420505D01*
X93620631Y-77424130D01*
X93615936Y-77430593D01*
X93593887Y-77437756D01*
X93573232Y-77448281D01*
X93557745Y-77449500D01*
X93479082Y-77449500D01*
X93420891Y-77430593D01*
X93409078Y-77420504D01*
X92605281Y-76616707D01*
X92577504Y-76562190D01*
X92587075Y-76501758D01*
X92625782Y-76460969D01*
X92661263Y-76440485D01*
X92740485Y-76361263D01*
X92796503Y-76264237D01*
X92825500Y-76156018D01*
X92825500Y-76043982D01*
X92796503Y-75935763D01*
X92796501Y-75935760D01*
X92796501Y-75935758D01*
X92740486Y-75838739D01*
X92740485Y-75838737D01*
X92661263Y-75759515D01*
X92661260Y-75759513D01*
X92564240Y-75703498D01*
X92564242Y-75703498D01*
X92497369Y-75685580D01*
X92456018Y-75674500D01*
X92456016Y-75674500D01*
X92440479Y-75674500D01*
X92382288Y-75655593D01*
X92370476Y-75645504D01*
X92235511Y-75510540D01*
X92221923Y-75502695D01*
X92221920Y-75502693D01*
X92166989Y-75470979D01*
X92166988Y-75470978D01*
X92166987Y-75470978D01*
X92090564Y-75450500D01*
X92090562Y-75450500D01*
X91416479Y-75450500D01*
X91408881Y-75448031D01*
X91400992Y-75449281D01*
X91380336Y-75438756D01*
X91358288Y-75431593D01*
X91346475Y-75421504D01*
X91229496Y-75304525D01*
X91201719Y-75250008D01*
X91200500Y-75234521D01*
X91200500Y-75116510D01*
X93924500Y-75116510D01*
X93924500Y-75633489D01*
X93926403Y-75645504D01*
X93937266Y-75714093D01*
X93940281Y-75733125D01*
X93940283Y-75733132D01*
X94001470Y-75853217D01*
X94001472Y-75853220D01*
X94096780Y-75948528D01*
X94096782Y-75948529D01*
X94195445Y-75998801D01*
X94238710Y-76042065D01*
X94249500Y-76087010D01*
X94249500Y-76646144D01*
X94249499Y-76646144D01*
X94259308Y-76682751D01*
X94273385Y-76735285D01*
X94273386Y-76735288D01*
X94319530Y-76815212D01*
X94720505Y-77216187D01*
X94748281Y-77270702D01*
X94749500Y-77286189D01*
X94749500Y-77529555D01*
X94736237Y-77579054D01*
X94703497Y-77635761D01*
X94690566Y-77684023D01*
X94674500Y-77743982D01*
X94674500Y-77856018D01*
X94695532Y-77934511D01*
X94703498Y-77964241D01*
X94753301Y-78050500D01*
X94759515Y-78061263D01*
X94838737Y-78140485D01*
X94871079Y-78159157D01*
X94935759Y-78196501D01*
X94935757Y-78196501D01*
X94935761Y-78196502D01*
X94935763Y-78196503D01*
X95043982Y-78225500D01*
X95043984Y-78225500D01*
X95156016Y-78225500D01*
X95156018Y-78225500D01*
X95264237Y-78196503D01*
X95264239Y-78196501D01*
X95264241Y-78196501D01*
X95305531Y-78172662D01*
X95361263Y-78140485D01*
X95440485Y-78061263D01*
X95496503Y-77964237D01*
X95525500Y-77856018D01*
X95525500Y-77743982D01*
X95496503Y-77635763D01*
X95490128Y-77624721D01*
X95463763Y-77579054D01*
X95450500Y-77529555D01*
X95450500Y-77053857D01*
X95450500Y-77053856D01*
X95426614Y-76964712D01*
X95412612Y-76940460D01*
X95380470Y-76884788D01*
X95185763Y-76690081D01*
X94979496Y-76483813D01*
X94951719Y-76429297D01*
X94950500Y-76413810D01*
X94950500Y-76087010D01*
X94969407Y-76028819D01*
X95004555Y-75998801D01*
X95078173Y-75961290D01*
X95103220Y-75948528D01*
X95198528Y-75853220D01*
X95259719Y-75733126D01*
X95275500Y-75633488D01*
X95275500Y-75116512D01*
X95274697Y-75111444D01*
X95271703Y-75092541D01*
X95259719Y-75016874D01*
X95259716Y-75016869D01*
X95259716Y-75016867D01*
X95198529Y-74896782D01*
X95198528Y-74896780D01*
X95103220Y-74801472D01*
X95103217Y-74801470D01*
X94983132Y-74740283D01*
X94983127Y-74740281D01*
X94983126Y-74740281D01*
X94949913Y-74735020D01*
X94883490Y-74724500D01*
X94883488Y-74724500D01*
X94316512Y-74724500D01*
X94316510Y-74724500D01*
X94216874Y-74740281D01*
X94216867Y-74740283D01*
X94096782Y-74801470D01*
X94001470Y-74896782D01*
X93940283Y-75016867D01*
X93940281Y-75016874D01*
X93924500Y-75116510D01*
X91200500Y-75116510D01*
X91200500Y-75065478D01*
X91219407Y-75007287D01*
X91229490Y-74995480D01*
X92041460Y-74183511D01*
X92057334Y-74156016D01*
X92059234Y-74152726D01*
X92065071Y-74142613D01*
X92081021Y-74114989D01*
X92101500Y-74038562D01*
X92101500Y-73432723D01*
X92120407Y-73374532D01*
X92169907Y-73338568D01*
X92231093Y-73338568D01*
X92249991Y-73346982D01*
X92335763Y-73396503D01*
X92443982Y-73425500D01*
X92443984Y-73425500D01*
X92506637Y-73425500D01*
X92564828Y-73444407D01*
X92600792Y-73493907D01*
X92602264Y-73550122D01*
X92599500Y-73560437D01*
X92599500Y-73757744D01*
X92580593Y-73815935D01*
X92570506Y-73827745D01*
X92559514Y-73838736D01*
X92503498Y-73935758D01*
X92502231Y-73940486D01*
X92474500Y-74043982D01*
X92474500Y-74156018D01*
X92481867Y-74183511D01*
X92503498Y-74264241D01*
X92559513Y-74361260D01*
X92559515Y-74361263D01*
X92638737Y-74440485D01*
X92638739Y-74440486D01*
X92735759Y-74496501D01*
X92735757Y-74496501D01*
X92735761Y-74496502D01*
X92735763Y-74496503D01*
X92843982Y-74525500D01*
X92843984Y-74525500D01*
X92956016Y-74525500D01*
X92956018Y-74525500D01*
X93064237Y-74496503D01*
X93064239Y-74496501D01*
X93064241Y-74496501D01*
X93100615Y-74475500D01*
X93161263Y-74440485D01*
X93240485Y-74361263D01*
X93296503Y-74264237D01*
X93325500Y-74156018D01*
X93325500Y-74043982D01*
X93296503Y-73935763D01*
X93296501Y-73935760D01*
X93296501Y-73935758D01*
X93240486Y-73838739D01*
X93240485Y-73838737D01*
X93233360Y-73831612D01*
X93205585Y-73777098D01*
X93215156Y-73716666D01*
X93233360Y-73691610D01*
X93290460Y-73634511D01*
X93307804Y-73604470D01*
X93310828Y-73599233D01*
X93315970Y-73590324D01*
X93330021Y-73565989D01*
X93350500Y-73489562D01*
X93350500Y-73091255D01*
X93369407Y-73033064D01*
X93418907Y-72997100D01*
X93480093Y-72997100D01*
X93519501Y-73021249D01*
X93538737Y-73040485D01*
X93538739Y-73040486D01*
X93635759Y-73096501D01*
X93635757Y-73096501D01*
X93635761Y-73096502D01*
X93635763Y-73096503D01*
X93743982Y-73125500D01*
X93743984Y-73125500D01*
X93856016Y-73125500D01*
X93856018Y-73125500D01*
X93964237Y-73096503D01*
X93964239Y-73096501D01*
X93964241Y-73096501D01*
X93996782Y-73077713D01*
X94061263Y-73040485D01*
X94140485Y-72961263D01*
X94190689Y-72874307D01*
X94196501Y-72864241D01*
X94196501Y-72864239D01*
X94196503Y-72864237D01*
X94225500Y-72756018D01*
X94225500Y-72643982D01*
X94196503Y-72535763D01*
X94196501Y-72535760D01*
X94196501Y-72535758D01*
X94145468Y-72447368D01*
X94140485Y-72438737D01*
X94061263Y-72359515D01*
X94061260Y-72359513D01*
X93964240Y-72303498D01*
X93964242Y-72303498D01*
X93900392Y-72286390D01*
X93856018Y-72274500D01*
X93856016Y-72274500D01*
X93840479Y-72274500D01*
X93782288Y-72255593D01*
X93770475Y-72245504D01*
X93136978Y-71612007D01*
X92477754Y-70952783D01*
X92477751Y-70952781D01*
X92477748Y-70952778D01*
X92472608Y-70948834D01*
X92472778Y-70948612D01*
X92459110Y-70938124D01*
X92200585Y-70679600D01*
X92135550Y-70636144D01*
X92135551Y-70636144D01*
X92032932Y-70615732D01*
X91930315Y-70636144D01*
X91930313Y-70636144D01*
X91930313Y-70636145D01*
X91930312Y-70636145D01*
X91865281Y-70679597D01*
X91865275Y-70679602D01*
X91740260Y-70804618D01*
X91696804Y-70869653D01*
X91696803Y-70869656D01*
X91689791Y-70904905D01*
X91659893Y-70958287D01*
X91612011Y-70982684D01*
X91576762Y-70989696D01*
X91576759Y-70989697D01*
X91511727Y-71033150D01*
X91511721Y-71033155D01*
X91386706Y-71158171D01*
X91343250Y-71223206D01*
X91343249Y-71223209D01*
X91336237Y-71258458D01*
X91306339Y-71311840D01*
X91258458Y-71336237D01*
X91223208Y-71343249D01*
X91223206Y-71343250D01*
X91158174Y-71386703D01*
X91158168Y-71386708D01*
X91033153Y-71511724D01*
X90989697Y-71576759D01*
X90989696Y-71576762D01*
X90982684Y-71612011D01*
X90952786Y-71665394D01*
X90904905Y-71689791D01*
X90869655Y-71696803D01*
X90869653Y-71696804D01*
X90804621Y-71740257D01*
X90804615Y-71740262D01*
X90679600Y-71865278D01*
X90636144Y-71930313D01*
X90636143Y-71930316D01*
X90629131Y-71965565D01*
X90599233Y-72018947D01*
X90551351Y-72043344D01*
X90516102Y-72050356D01*
X90516099Y-72050357D01*
X90451067Y-72093810D01*
X90451061Y-72093815D01*
X90326046Y-72218831D01*
X90282590Y-72283866D01*
X90282589Y-72283869D01*
X90275577Y-72319118D01*
X90245679Y-72372501D01*
X90197798Y-72396898D01*
X90162548Y-72403910D01*
X90162546Y-72403911D01*
X90097510Y-72447366D01*
X90070001Y-72474876D01*
X90015484Y-72502652D01*
X89955053Y-72493080D01*
X89929999Y-72474878D01*
X89902489Y-72447368D01*
X89902485Y-72447365D01*
X89837453Y-72403911D01*
X89837450Y-72403910D01*
X89802202Y-72396898D01*
X89748819Y-72367000D01*
X89724421Y-72319114D01*
X89717410Y-72283868D01*
X89673956Y-72218834D01*
X89673951Y-72218828D01*
X89548935Y-72093813D01*
X89548936Y-72093813D01*
X89483900Y-72050357D01*
X89483897Y-72050356D01*
X89448648Y-72043344D01*
X89395265Y-72013446D01*
X89370867Y-71965561D01*
X89363856Y-71930315D01*
X89320402Y-71865281D01*
X89320397Y-71865275D01*
X89195381Y-71740260D01*
X89195382Y-71740260D01*
X89130346Y-71696804D01*
X89130343Y-71696803D01*
X89095095Y-71689791D01*
X89041712Y-71659893D01*
X89017314Y-71612007D01*
X89010303Y-71576761D01*
X88966849Y-71511727D01*
X88966844Y-71511721D01*
X88841828Y-71386706D01*
X88841829Y-71386706D01*
X88776793Y-71343250D01*
X88776790Y-71343249D01*
X88741542Y-71336237D01*
X88688159Y-71306339D01*
X88663761Y-71258454D01*
X88656750Y-71223208D01*
X88613296Y-71158174D01*
X88613291Y-71158168D01*
X88488275Y-71033153D01*
X88488276Y-71033153D01*
X88423240Y-70989697D01*
X88423237Y-70989696D01*
X88387988Y-70982684D01*
X88334605Y-70952786D01*
X88310207Y-70904901D01*
X88303196Y-70869655D01*
X88259742Y-70804621D01*
X88259737Y-70804615D01*
X88134721Y-70679600D01*
X88134722Y-70679600D01*
X88069686Y-70636144D01*
X88069683Y-70636143D01*
X88034435Y-70629131D01*
X87981052Y-70599233D01*
X87956654Y-70551347D01*
X87949643Y-70516101D01*
X87906189Y-70451067D01*
X87906184Y-70451061D01*
X87781168Y-70326046D01*
X87781169Y-70326046D01*
X87716133Y-70282590D01*
X87716130Y-70282589D01*
X87680881Y-70275577D01*
X87627498Y-70245679D01*
X87603100Y-70197794D01*
X87596089Y-70162548D01*
X87552635Y-70097514D01*
X87552633Y-70097511D01*
X87525124Y-70070002D01*
X87497347Y-70015489D01*
X87506918Y-69955056D01*
X87525126Y-69929995D01*
X87552629Y-69902492D01*
X87552632Y-69902489D01*
X87596089Y-69837452D01*
X87603100Y-69802206D01*
X87632996Y-69748821D01*
X87680885Y-69724421D01*
X87693531Y-69721905D01*
X87716132Y-69717410D01*
X87781169Y-69673954D01*
X87906186Y-69548936D01*
X87949643Y-69483899D01*
X87956654Y-69448652D01*
X87986550Y-69395268D01*
X88034439Y-69370867D01*
X88053718Y-69367031D01*
X88069685Y-69363856D01*
X88134722Y-69320400D01*
X88259739Y-69195382D01*
X88303196Y-69130345D01*
X88323608Y-69027728D01*
X88303196Y-68925110D01*
X88259740Y-68860074D01*
X88259738Y-68860071D01*
X87692781Y-68293116D01*
X87692778Y-68293114D01*
X87627744Y-68249658D01*
X87627743Y-68249657D01*
X87627741Y-68249656D01*
X87622420Y-68247452D01*
X87590304Y-68225993D01*
X87003299Y-67638988D01*
X86975522Y-67584471D01*
X86979148Y-67538393D01*
X87013368Y-67433079D01*
X87013368Y-67298293D01*
X86971717Y-67170105D01*
X86912421Y-67088491D01*
X86511509Y-66687579D01*
X86511505Y-66687576D01*
X86511504Y-66687575D01*
X86460284Y-66650362D01*
X86429895Y-66628283D01*
X86301707Y-66586632D01*
X86166921Y-66586632D01*
X86104049Y-66607060D01*
X86038735Y-66628282D01*
X86038733Y-66628283D01*
X85957120Y-66687578D01*
X85854838Y-66789860D01*
X85840868Y-66796977D01*
X85829780Y-66808066D01*
X85814292Y-66810518D01*
X85800322Y-66817637D01*
X85784835Y-66815184D01*
X85769348Y-66817637D01*
X85755375Y-66810517D01*
X85739890Y-66808065D01*
X85714831Y-66789860D01*
X85590469Y-66665498D01*
X85562692Y-66610981D01*
X85572263Y-66550549D01*
X85590466Y-66525495D01*
X85708437Y-66407525D01*
X85767733Y-66325911D01*
X85809384Y-66197723D01*
X85809384Y-66062937D01*
X85767733Y-65934750D01*
X85767732Y-65934749D01*
X85766494Y-65930937D01*
X85766494Y-65907751D01*
X85762868Y-65884857D01*
X85766494Y-65877740D01*
X85766494Y-65869751D01*
X85790643Y-65830342D01*
X85830342Y-65790643D01*
X85884857Y-65762868D01*
X85930937Y-65766494D01*
X85934749Y-65767732D01*
X85934750Y-65767733D01*
X86062937Y-65809384D01*
X86062939Y-65809384D01*
X86197721Y-65809384D01*
X86197723Y-65809384D01*
X86325911Y-65767733D01*
X86407525Y-65708437D01*
X86808437Y-65307525D01*
X86867733Y-65225911D01*
X86909384Y-65097723D01*
X86909384Y-64962937D01*
X86867733Y-64834750D01*
X86808437Y-64753136D01*
X86442880Y-64387579D01*
X86442876Y-64387576D01*
X86442875Y-64387575D01*
X86361266Y-64328283D01*
X86361264Y-64328282D01*
X86305019Y-64310007D01*
X86233079Y-64286632D01*
X86098293Y-64286632D01*
X85970105Y-64328283D01*
X85970104Y-64328283D01*
X85888495Y-64387575D01*
X85487575Y-64788495D01*
X85428283Y-64870104D01*
X85428283Y-64870105D01*
X85386632Y-64998293D01*
X85386632Y-65133079D01*
X85422838Y-65244509D01*
X85429521Y-65265076D01*
X85429521Y-65288261D01*
X85433147Y-65311156D01*
X85429521Y-65318272D01*
X85429521Y-65326262D01*
X85405370Y-65365673D01*
X85365673Y-65405370D01*
X85311156Y-65433147D01*
X85265076Y-65429521D01*
X85261266Y-65428283D01*
X85133079Y-65386632D01*
X84998293Y-65386632D01*
X84870105Y-65428283D01*
X84870104Y-65428283D01*
X84788495Y-65487575D01*
X84387575Y-65888495D01*
X84340362Y-65953480D01*
X84290862Y-65989444D01*
X84229677Y-65989445D01*
X84190265Y-65965294D01*
X82173081Y-63948110D01*
X82145304Y-63893593D01*
X82154875Y-63833161D01*
X82173078Y-63808105D01*
X82319191Y-63661993D01*
X82434155Y-63489936D01*
X82513344Y-63298758D01*
X82553714Y-63095803D01*
X82553714Y-62888873D01*
X82539185Y-62815832D01*
X82546376Y-62755074D01*
X82587909Y-62710143D01*
X82647918Y-62698206D01*
X82658594Y-62700257D01*
X82660437Y-62700500D01*
X82660438Y-62700500D01*
X85338133Y-62700500D01*
X85396324Y-62719407D01*
X85408137Y-62729496D01*
X88070504Y-65391863D01*
X88098281Y-65446380D01*
X88099500Y-65461867D01*
X88099500Y-65844531D01*
X88080593Y-65902722D01*
X88031093Y-65938686D01*
X87969907Y-65938686D01*
X87930498Y-65914536D01*
X87607525Y-65591563D01*
X87607521Y-65591560D01*
X87607520Y-65591559D01*
X87580116Y-65571649D01*
X87525911Y-65532267D01*
X87397723Y-65490616D01*
X87262937Y-65490616D01*
X87207364Y-65508673D01*
X87134751Y-65532266D01*
X87134749Y-65532267D01*
X87053140Y-65591559D01*
X86687575Y-65957124D01*
X86628283Y-66038733D01*
X86628282Y-66038735D01*
X86608399Y-66099931D01*
X86586632Y-66166921D01*
X86586632Y-66301707D01*
X86628283Y-66429895D01*
X86680746Y-66502105D01*
X86687579Y-66511509D01*
X87088491Y-66912421D01*
X87170105Y-66971717D01*
X87298293Y-67013368D01*
X87300500Y-67013368D01*
X87302598Y-67014049D01*
X87305990Y-67014587D01*
X87305904Y-67015124D01*
X87358691Y-67032275D01*
X87394655Y-67081775D01*
X87399500Y-67112368D01*
X87399500Y-67386011D01*
X87419978Y-67462435D01*
X87419979Y-67462436D01*
X87446542Y-67508445D01*
X87446543Y-67508447D01*
X87446544Y-67508447D01*
X87459539Y-67530957D01*
X87872440Y-67943859D01*
X87893898Y-67975971D01*
X87896104Y-67981297D01*
X87939562Y-68046336D01*
X88376397Y-68483169D01*
X88506521Y-68613293D01*
X88571554Y-68656748D01*
X88571556Y-68656749D01*
X88571555Y-68656749D01*
X88571557Y-68656750D01*
X88674175Y-68677162D01*
X88776792Y-68656750D01*
X88841829Y-68613294D01*
X88966846Y-68488276D01*
X89010303Y-68423239D01*
X89017314Y-68387992D01*
X89047210Y-68334608D01*
X89095099Y-68310207D01*
X89114378Y-68306371D01*
X89130345Y-68303196D01*
X89195382Y-68259740D01*
X89320399Y-68134722D01*
X89363856Y-68069685D01*
X89370867Y-68034439D01*
X89400763Y-67981054D01*
X89448652Y-67956654D01*
X89461298Y-67954138D01*
X89483899Y-67949643D01*
X89548936Y-67906187D01*
X89673953Y-67781169D01*
X89717410Y-67716132D01*
X89724421Y-67680885D01*
X89754317Y-67627501D01*
X89802206Y-67603100D01*
X89821485Y-67599264D01*
X89837452Y-67596089D01*
X89902489Y-67552633D01*
X89929995Y-67525125D01*
X89984511Y-67497347D01*
X90044944Y-67506918D01*
X90069999Y-67525120D01*
X90097511Y-67552632D01*
X90162548Y-67596089D01*
X90197796Y-67603100D01*
X90251178Y-67632996D01*
X90275577Y-67680880D01*
X90282088Y-67713610D01*
X90282590Y-67716132D01*
X90326046Y-67781169D01*
X90451064Y-67906186D01*
X90516101Y-67949643D01*
X90538078Y-67954014D01*
X90551347Y-67956654D01*
X90604732Y-67986550D01*
X90629131Y-68034435D01*
X90636143Y-68069683D01*
X90636144Y-68069686D01*
X90679597Y-68134718D01*
X90679602Y-68134724D01*
X90804618Y-68259739D01*
X90804617Y-68259739D01*
X90854566Y-68293114D01*
X90869655Y-68303196D01*
X90904903Y-68310207D01*
X90958285Y-68340103D01*
X90982684Y-68387987D01*
X90989696Y-68423236D01*
X90989698Y-68423241D01*
X91033150Y-68488272D01*
X91033155Y-68488278D01*
X91158171Y-68613293D01*
X91158170Y-68613293D01*
X91173979Y-68623856D01*
X91223208Y-68656750D01*
X91258456Y-68663761D01*
X91311838Y-68693657D01*
X91336237Y-68741541D01*
X91343249Y-68776790D01*
X91343250Y-68776793D01*
X91363124Y-68806536D01*
X91386706Y-68841829D01*
X91511724Y-68966846D01*
X91576761Y-69010303D01*
X91598738Y-69014674D01*
X91612007Y-69017314D01*
X91665392Y-69047210D01*
X91689791Y-69095095D01*
X91696803Y-69130343D01*
X91696804Y-69130346D01*
X91725135Y-69172746D01*
X91740259Y-69195381D01*
X91740262Y-69195384D01*
X91865278Y-69320399D01*
X91865277Y-69320399D01*
X91930312Y-69363854D01*
X91930315Y-69363856D01*
X91965563Y-69370867D01*
X92018945Y-69400763D01*
X92043344Y-69448647D01*
X92050356Y-69483896D01*
X92050358Y-69483901D01*
X92093810Y-69548932D01*
X92093813Y-69548936D01*
X92218831Y-69673953D01*
X92283868Y-69717410D01*
X92305845Y-69721781D01*
X92319114Y-69724421D01*
X92372499Y-69754317D01*
X92396898Y-69802202D01*
X92403910Y-69837450D01*
X92403911Y-69837453D01*
X92447364Y-69902485D01*
X92447367Y-69902489D01*
X92474875Y-69929997D01*
X92502652Y-69984513D01*
X92493081Y-70044945D01*
X92474876Y-70070002D01*
X92447367Y-70097511D01*
X92403911Y-70162546D01*
X92383499Y-70265165D01*
X92403911Y-70367783D01*
X92403913Y-70367786D01*
X92447368Y-70432821D01*
X92884202Y-70869653D01*
X93014327Y-70999778D01*
X93079360Y-71043233D01*
X93079362Y-71043234D01*
X93079361Y-71043234D01*
X93079363Y-71043235D01*
X93181981Y-71063647D01*
X93284598Y-71043235D01*
X93349635Y-70999779D01*
X93474652Y-70874761D01*
X93518109Y-70809724D01*
X93538521Y-70707107D01*
X93518109Y-70604489D01*
X93474653Y-70539453D01*
X93473661Y-70538461D01*
X93473368Y-70537886D01*
X93471565Y-70535689D01*
X93472047Y-70535293D01*
X93445884Y-70483944D01*
X93455455Y-70423512D01*
X93473658Y-70398457D01*
X93840460Y-70031657D01*
X93840601Y-70031411D01*
X93842860Y-70027502D01*
X93858738Y-69999999D01*
X93880021Y-69963135D01*
X93900500Y-69886708D01*
X93900500Y-67165478D01*
X93919407Y-67107287D01*
X93929496Y-67095475D01*
X94165107Y-66859864D01*
X94404440Y-66620529D01*
X94458957Y-66592752D01*
X94500065Y-66594905D01*
X94520943Y-66600500D01*
X94520944Y-66600500D01*
X94679055Y-66600500D01*
X94679057Y-66600500D01*
X94831784Y-66559577D01*
X94968716Y-66480520D01*
X95080520Y-66368716D01*
X95159577Y-66231784D01*
X95200500Y-66079057D01*
X95200500Y-65920943D01*
X95159577Y-65768216D01*
X95080520Y-65631284D01*
X94968716Y-65519480D01*
X94949998Y-65508673D01*
X94909058Y-65463202D01*
X94900500Y-65422937D01*
X94900500Y-65190824D01*
X94919407Y-65132633D01*
X94968907Y-65096669D01*
X95030093Y-65096669D01*
X95069501Y-65120818D01*
X95126198Y-65177515D01*
X95126201Y-65177517D01*
X95126203Y-65177519D01*
X95181389Y-65218669D01*
X95181391Y-65218670D01*
X95181394Y-65218672D01*
X95292032Y-65256655D01*
X95292034Y-65256655D01*
X95409007Y-65256655D01*
X95409009Y-65256655D01*
X95519646Y-65218672D01*
X95574843Y-65177515D01*
X95834012Y-64918346D01*
X95875169Y-64863149D01*
X95913152Y-64752512D01*
X95913152Y-64635535D01*
X95875169Y-64524897D01*
X95875167Y-64524894D01*
X95875166Y-64524892D01*
X95834016Y-64469706D01*
X95834014Y-64469704D01*
X95834012Y-64469701D01*
X94956124Y-63591813D01*
X94956120Y-63591810D01*
X94956118Y-63591808D01*
X94900932Y-63550658D01*
X94900928Y-63550656D01*
X94790290Y-63512673D01*
X94728886Y-63512673D01*
X94670695Y-63493766D01*
X94634731Y-63444266D01*
X94633259Y-63439296D01*
X94624741Y-63407505D01*
X94624739Y-63407502D01*
X94624739Y-63407500D01*
X94568724Y-63310481D01*
X94568723Y-63310479D01*
X94489501Y-63231257D01*
X94489498Y-63231255D01*
X94392478Y-63175240D01*
X94392480Y-63175240D01*
X94350489Y-63163989D01*
X94284256Y-63146242D01*
X94172220Y-63146242D01*
X94105986Y-63163989D01*
X94063996Y-63175240D01*
X93966977Y-63231255D01*
X93887751Y-63310481D01*
X93831736Y-63407500D01*
X93831735Y-63407505D01*
X93802738Y-63515724D01*
X93802738Y-63627760D01*
X93811910Y-63661989D01*
X93831736Y-63735983D01*
X93873375Y-63808102D01*
X93887753Y-63833005D01*
X93966975Y-63912227D01*
X93966977Y-63912228D01*
X94063997Y-63968243D01*
X94063995Y-63968243D01*
X94063999Y-63968244D01*
X94064001Y-63968245D01*
X94095794Y-63976763D01*
X94147107Y-64010087D01*
X94169034Y-64067208D01*
X94169170Y-64072390D01*
X94169170Y-64133793D01*
X94207153Y-64244431D01*
X94207155Y-64244435D01*
X94248305Y-64299621D01*
X94248307Y-64299623D01*
X94248310Y-64299627D01*
X94305006Y-64356323D01*
X94332782Y-64410838D01*
X94323211Y-64471270D01*
X94279946Y-64514535D01*
X94235001Y-64525325D01*
X94021634Y-64525325D01*
X93963443Y-64506418D01*
X93951631Y-64496329D01*
X93842879Y-64387578D01*
X93761266Y-64328283D01*
X93761264Y-64328282D01*
X93705019Y-64310007D01*
X93633079Y-64286632D01*
X93498293Y-64286632D01*
X93370105Y-64328283D01*
X93370104Y-64328283D01*
X93288495Y-64387575D01*
X92887575Y-64788495D01*
X92828283Y-64870104D01*
X92828283Y-64870105D01*
X92786632Y-64998293D01*
X92786632Y-65133079D01*
X92822838Y-65244509D01*
X92829521Y-65265076D01*
X92829521Y-65288261D01*
X92833147Y-65311156D01*
X92829521Y-65318272D01*
X92829521Y-65326262D01*
X92805370Y-65365673D01*
X92765673Y-65405370D01*
X92711156Y-65433147D01*
X92665076Y-65429521D01*
X92661266Y-65428283D01*
X92533079Y-65386632D01*
X92398293Y-65386632D01*
X92270105Y-65428283D01*
X92270104Y-65428283D01*
X92188495Y-65487575D01*
X91787575Y-65888495D01*
X91728283Y-65970104D01*
X91728283Y-65970105D01*
X91686632Y-66098293D01*
X91686632Y-66233079D01*
X91728283Y-66361266D01*
X91787579Y-66442880D01*
X92153136Y-66808437D01*
X92234750Y-66867733D01*
X92362937Y-66909384D01*
X92362939Y-66909384D01*
X92497721Y-66909384D01*
X92497723Y-66909384D01*
X92625911Y-66867733D01*
X92707525Y-66808437D01*
X93108437Y-66407525D01*
X93167733Y-66325911D01*
X93209384Y-66197723D01*
X93209384Y-66062937D01*
X93167733Y-65934750D01*
X93167732Y-65934749D01*
X93166494Y-65930937D01*
X93166494Y-65907751D01*
X93162868Y-65884857D01*
X93166494Y-65877740D01*
X93166494Y-65869751D01*
X93190643Y-65830342D01*
X93230342Y-65790643D01*
X93284857Y-65762868D01*
X93330937Y-65766494D01*
X93334749Y-65767732D01*
X93334750Y-65767733D01*
X93462937Y-65809384D01*
X93462939Y-65809384D01*
X93597721Y-65809384D01*
X93597723Y-65809384D01*
X93725911Y-65767733D01*
X93807525Y-65708437D01*
X93908499Y-65607462D01*
X93963014Y-65579686D01*
X94023446Y-65589257D01*
X94066710Y-65632522D01*
X94076282Y-65692954D01*
X94064238Y-65726966D01*
X94040423Y-65768214D01*
X94034413Y-65790645D01*
X94008196Y-65888491D01*
X93999500Y-65920944D01*
X93999500Y-66079056D01*
X94005093Y-66099931D01*
X94001890Y-66161033D01*
X93979470Y-66195556D01*
X93415489Y-66759539D01*
X93359539Y-66815489D01*
X93319980Y-66884007D01*
X93319978Y-66884011D01*
X93299500Y-66960435D01*
X93299500Y-68712381D01*
X93280593Y-68770572D01*
X93231093Y-68806536D01*
X93169907Y-68806536D01*
X93123976Y-68775191D01*
X93121099Y-68771686D01*
X92996080Y-68646668D01*
X92996081Y-68646668D01*
X92931045Y-68603212D01*
X92931042Y-68603211D01*
X92895794Y-68596199D01*
X92842411Y-68566301D01*
X92818013Y-68518415D01*
X92811002Y-68483169D01*
X92767548Y-68418135D01*
X92767543Y-68418129D01*
X92642527Y-68293114D01*
X92642528Y-68293114D01*
X92577492Y-68249658D01*
X92577489Y-68249657D01*
X92542240Y-68242645D01*
X92488857Y-68212747D01*
X92464459Y-68164862D01*
X92457448Y-68129616D01*
X92413994Y-68064582D01*
X92413989Y-68064576D01*
X92288973Y-67939561D01*
X92288974Y-67939561D01*
X92223938Y-67896105D01*
X92223935Y-67896104D01*
X92188687Y-67889092D01*
X92135304Y-67859194D01*
X92110906Y-67811309D01*
X92103895Y-67776063D01*
X92060441Y-67711029D01*
X92060436Y-67711023D01*
X91935420Y-67586008D01*
X91935421Y-67586008D01*
X91870385Y-67542552D01*
X91870382Y-67542551D01*
X91835134Y-67535539D01*
X91781751Y-67505641D01*
X91757353Y-67457755D01*
X91750342Y-67422509D01*
X91706888Y-67357475D01*
X91706883Y-67357469D01*
X91581867Y-67232454D01*
X91581868Y-67232454D01*
X91516832Y-67188998D01*
X91516829Y-67188997D01*
X91481580Y-67181985D01*
X91428197Y-67152087D01*
X91403799Y-67104202D01*
X91396788Y-67068956D01*
X91359401Y-67013002D01*
X91353332Y-67003919D01*
X91228314Y-66878902D01*
X91228313Y-66878901D01*
X91228314Y-66878901D01*
X91163278Y-66835445D01*
X91163275Y-66835444D01*
X91128027Y-66828432D01*
X91074644Y-66798534D01*
X91050246Y-66750648D01*
X91043235Y-66715402D01*
X90999781Y-66650368D01*
X90999776Y-66650362D01*
X90874760Y-66525347D01*
X90874761Y-66525347D01*
X90809725Y-66481891D01*
X90707107Y-66461479D01*
X90604488Y-66481891D01*
X90604485Y-66481893D01*
X90539453Y-66525346D01*
X90070004Y-66994796D01*
X90056032Y-67001914D01*
X90044945Y-67013002D01*
X90029457Y-67015454D01*
X90015487Y-67022573D01*
X90000000Y-67020120D01*
X89984513Y-67022573D01*
X89970542Y-67015454D01*
X89955055Y-67013002D01*
X89929996Y-66994796D01*
X89843360Y-66908160D01*
X89815583Y-66853643D01*
X89814364Y-66838156D01*
X89814364Y-65374301D01*
X89814363Y-65374299D01*
X89793885Y-65297875D01*
X89793883Y-65297871D01*
X89754324Y-65229353D01*
X89698375Y-65173403D01*
X89698375Y-65173404D01*
X88042812Y-63517841D01*
X88015035Y-63463324D01*
X88024606Y-63402892D01*
X88067871Y-63359627D01*
X88128303Y-63350056D01*
X88167818Y-63365522D01*
X88249687Y-63420226D01*
X88544327Y-63577713D01*
X88544346Y-63577723D01*
X88853024Y-63705582D01*
X88853026Y-63705582D01*
X88853032Y-63705585D01*
X89129376Y-63789412D01*
X89172749Y-63802569D01*
X89500441Y-63867751D01*
X89832944Y-63900500D01*
X89832947Y-63900500D01*
X90167053Y-63900500D01*
X90167056Y-63900500D01*
X90499559Y-63867751D01*
X90827251Y-63802569D01*
X91051847Y-63734439D01*
X91146967Y-63705585D01*
X91146969Y-63705583D01*
X91146976Y-63705582D01*
X91455654Y-63577723D01*
X91619893Y-63489936D01*
X91750312Y-63420226D01*
X91776254Y-63402892D01*
X92028118Y-63234601D01*
X92286390Y-63022643D01*
X92522643Y-62786390D01*
X92734601Y-62528118D01*
X92920224Y-62250315D01*
X92921299Y-62248305D01*
X93037400Y-62031093D01*
X93077723Y-61955654D01*
X93205582Y-61646976D01*
X93302569Y-61327251D01*
X93367751Y-60999559D01*
X93400500Y-60667056D01*
X93400500Y-60332944D01*
X93367751Y-60000441D01*
X93302569Y-59672749D01*
X93280025Y-59598430D01*
X93277430Y-59589875D01*
X95642843Y-59589875D01*
X95642843Y-59796810D01*
X95683212Y-59999761D01*
X95762401Y-60190940D01*
X95870807Y-60353182D01*
X95877366Y-60362998D01*
X96023688Y-60509320D01*
X96195745Y-60624284D01*
X96386923Y-60703473D01*
X96589878Y-60743843D01*
X96589879Y-60743843D01*
X96796807Y-60743843D01*
X96796808Y-60743843D01*
X96999763Y-60703473D01*
X97190941Y-60624284D01*
X97362998Y-60509320D01*
X97509320Y-60362998D01*
X97624284Y-60190941D01*
X97703473Y-59999763D01*
X97743843Y-59796808D01*
X97743843Y-59589878D01*
X97703473Y-59386923D01*
X97624284Y-59195745D01*
X97509320Y-59023688D01*
X97362998Y-58877366D01*
X97362365Y-58876943D01*
X97190940Y-58762401D01*
X96999761Y-58683212D01*
X96796810Y-58642843D01*
X96796808Y-58642843D01*
X96589878Y-58642843D01*
X96589875Y-58642843D01*
X96386924Y-58683212D01*
X96195745Y-58762401D01*
X96023691Y-58877363D01*
X95877363Y-59023691D01*
X95762401Y-59195745D01*
X95683212Y-59386924D01*
X95642843Y-59589875D01*
X93277430Y-59589875D01*
X93205585Y-59353032D01*
X93199107Y-59337391D01*
X93077723Y-59044346D01*
X93052613Y-58997368D01*
X92920226Y-58749687D01*
X92822368Y-58603234D01*
X92734601Y-58471882D01*
X92522643Y-58213610D01*
X92286390Y-57977357D01*
X92028118Y-57765399D01*
X91895467Y-57676764D01*
X91750312Y-57579773D01*
X91455672Y-57422286D01*
X91455660Y-57422280D01*
X91455654Y-57422277D01*
X91455649Y-57422274D01*
X91455645Y-57422273D01*
X91146967Y-57294414D01*
X90827253Y-57197431D01*
X90606777Y-57153576D01*
X90499559Y-57132249D01*
X90499557Y-57132248D01*
X90256491Y-57108308D01*
X90167056Y-57099500D01*
X89832944Y-57099500D01*
X89734700Y-57109176D01*
X89500444Y-57132248D01*
X89172746Y-57197431D01*
X88853032Y-57294414D01*
X88544354Y-57422273D01*
X88544327Y-57422286D01*
X88249687Y-57579773D01*
X87971880Y-57765400D01*
X87713615Y-57977352D01*
X87477352Y-58213615D01*
X87265400Y-58471880D01*
X87079773Y-58749687D01*
X86922286Y-59044327D01*
X86922273Y-59044354D01*
X86794414Y-59353032D01*
X86697431Y-59672746D01*
X86632248Y-60000444D01*
X86614607Y-60179563D01*
X86599500Y-60332944D01*
X86599500Y-60667056D01*
X86603546Y-60708137D01*
X86632248Y-60999555D01*
X86697431Y-61327253D01*
X86794414Y-61646967D01*
X86922273Y-61955645D01*
X86922286Y-61955672D01*
X87079773Y-62250312D01*
X87134477Y-62332181D01*
X87151086Y-62391069D01*
X87129909Y-62448473D01*
X87079035Y-62482466D01*
X87017897Y-62480064D01*
X86982158Y-62457187D01*
X85098071Y-60573100D01*
X85070294Y-60518583D01*
X85069075Y-60503096D01*
X85069075Y-60179563D01*
X85087982Y-60121372D01*
X85130189Y-60088099D01*
X85266173Y-60031773D01*
X85438230Y-59916809D01*
X85584552Y-59770487D01*
X85699516Y-59598430D01*
X85778705Y-59407252D01*
X85819075Y-59204297D01*
X85819075Y-58997367D01*
X85778705Y-58794412D01*
X85699516Y-58603234D01*
X85584552Y-58431177D01*
X85438230Y-58284855D01*
X85438226Y-58284852D01*
X85266172Y-58169890D01*
X85074993Y-58090701D01*
X84872042Y-58050332D01*
X84872040Y-58050332D01*
X84665110Y-58050332D01*
X84665107Y-58050332D01*
X84462156Y-58090701D01*
X84270977Y-58169890D01*
X84098923Y-58284852D01*
X83952595Y-58431180D01*
X83837633Y-58603234D01*
X83758444Y-58794413D01*
X83718075Y-58997364D01*
X83718075Y-59204299D01*
X83758444Y-59407250D01*
X83837633Y-59598429D01*
X83887290Y-59672746D01*
X83952598Y-59770487D01*
X84098920Y-59916809D01*
X84270977Y-60031773D01*
X84406960Y-60088099D01*
X84453486Y-60127835D01*
X84468075Y-60179563D01*
X84468075Y-60647085D01*
X84463230Y-60661996D01*
X84463230Y-60677678D01*
X84454013Y-60690363D01*
X84449168Y-60705276D01*
X84436482Y-60714492D01*
X84427266Y-60727178D01*
X84412353Y-60732023D01*
X84399668Y-60741240D01*
X84369075Y-60746085D01*
X84214627Y-60746085D01*
X84156436Y-60727178D01*
X84123163Y-60684971D01*
X84066836Y-60548987D01*
X83951874Y-60376933D01*
X83951872Y-60376930D01*
X83805550Y-60230608D01*
X83746184Y-60190941D01*
X83633492Y-60115643D01*
X83442313Y-60036454D01*
X83239362Y-59996085D01*
X83239360Y-59996085D01*
X83032430Y-59996085D01*
X83032427Y-59996085D01*
X82829476Y-60036454D01*
X82638297Y-60115643D01*
X82466243Y-60230605D01*
X82319915Y-60376933D01*
X82204953Y-60548987D01*
X82125764Y-60740166D01*
X82085395Y-60943117D01*
X82085395Y-61150053D01*
X82111479Y-61281186D01*
X82104287Y-61341948D01*
X82062754Y-61386877D01*
X82014381Y-61399500D01*
X80939562Y-61399500D01*
X80860438Y-61399500D01*
X80813661Y-61412033D01*
X80784007Y-61419979D01*
X80715493Y-61459536D01*
X79686023Y-62489006D01*
X79686022Y-62489005D01*
X79630073Y-62544955D01*
X79590514Y-62613473D01*
X79590512Y-62613477D01*
X79570034Y-62689901D01*
X79570034Y-63859358D01*
X79551127Y-63917549D01*
X79508921Y-63950822D01*
X79372935Y-64007150D01*
X79200882Y-64122111D01*
X79054554Y-64268439D01*
X78939592Y-64440493D01*
X78860403Y-64631672D01*
X78820034Y-64834623D01*
X78820034Y-65041558D01*
X78860403Y-65244509D01*
X78939592Y-65435688D01*
X79054554Y-65607742D01*
X79054557Y-65607746D01*
X79200879Y-65754068D01*
X79372936Y-65869032D01*
X79564114Y-65948221D01*
X79767069Y-65988591D01*
X79767070Y-65988591D01*
X79973998Y-65988591D01*
X79973999Y-65988591D01*
X80176954Y-65948221D01*
X80368132Y-65869032D01*
X80540189Y-65754068D01*
X80686511Y-65607746D01*
X80801475Y-65435689D01*
X80837039Y-65349828D01*
X80857802Y-65299705D01*
X80897539Y-65253179D01*
X80949266Y-65238591D01*
X82072612Y-65238591D01*
X82130803Y-65257498D01*
X82142616Y-65267587D01*
X83717689Y-66842660D01*
X83745466Y-66897177D01*
X83735895Y-66957609D01*
X83692630Y-67000874D01*
X83632198Y-67010445D01*
X83601017Y-66999974D01*
X83455672Y-66922286D01*
X83455660Y-66922280D01*
X83455654Y-66922277D01*
X83455649Y-66922274D01*
X83455645Y-66922273D01*
X83146967Y-66794414D01*
X82827253Y-66697431D01*
X82590619Y-66650362D01*
X82499559Y-66632249D01*
X82499557Y-66632248D01*
X82256491Y-66608308D01*
X82167056Y-66599500D01*
X81832944Y-66599500D01*
X81734700Y-66609176D01*
X81500444Y-66632248D01*
X81172746Y-66697431D01*
X80853032Y-66794414D01*
X80544354Y-66922273D01*
X80544327Y-66922286D01*
X80249687Y-67079773D01*
X79971880Y-67265400D01*
X79713615Y-67477352D01*
X79477352Y-67713615D01*
X79265400Y-67971880D01*
X79079773Y-68249687D01*
X78922286Y-68544327D01*
X78922273Y-68544354D01*
X78794414Y-68853032D01*
X78697431Y-69172746D01*
X78632248Y-69500444D01*
X78615159Y-69673952D01*
X78599500Y-69832944D01*
X78599500Y-70167056D01*
X78607244Y-70245679D01*
X78632248Y-70499555D01*
X78697431Y-70827253D01*
X78794414Y-71146967D01*
X78922273Y-71455645D01*
X78922286Y-71455672D01*
X79079773Y-71750312D01*
X79200047Y-71930313D01*
X79265399Y-72028118D01*
X79477357Y-72286390D01*
X79713610Y-72522643D01*
X79971882Y-72734601D01*
X80110783Y-72827412D01*
X80249687Y-72920226D01*
X80544327Y-73077713D01*
X80544346Y-73077723D01*
X80853024Y-73205582D01*
X80853026Y-73205582D01*
X80853032Y-73205585D01*
X81063642Y-73269472D01*
X81172749Y-73302569D01*
X81500441Y-73367751D01*
X81832944Y-73400500D01*
X81832947Y-73400500D01*
X82167053Y-73400500D01*
X82167056Y-73400500D01*
X82499559Y-73367751D01*
X82827251Y-73302569D01*
X83016857Y-73245052D01*
X83146967Y-73205585D01*
X83146969Y-73205583D01*
X83146976Y-73205582D01*
X83455654Y-73077723D01*
X83750315Y-72920224D01*
X83832182Y-72865521D01*
X83891069Y-72848913D01*
X83948472Y-72870090D01*
X83982466Y-72920963D01*
X83980064Y-72982101D01*
X83957187Y-73017841D01*
X83329525Y-73645504D01*
X83275008Y-73673281D01*
X83259521Y-73674500D01*
X83243982Y-73674500D01*
X83180137Y-73691607D01*
X83135758Y-73703498D01*
X83038739Y-73759513D01*
X82959513Y-73838739D01*
X82903498Y-73935758D01*
X82902231Y-73940486D01*
X82874500Y-74043982D01*
X82874500Y-74156018D01*
X82881867Y-74183511D01*
X82903498Y-74264241D01*
X82959513Y-74361260D01*
X82959515Y-74361263D01*
X83038737Y-74440485D01*
X83038739Y-74440486D01*
X83135759Y-74496501D01*
X83135757Y-74496501D01*
X83135761Y-74496502D01*
X83135763Y-74496503D01*
X83243982Y-74525500D01*
X83292795Y-74525500D01*
X83350986Y-74544407D01*
X83362799Y-74554496D01*
X84385169Y-75576866D01*
X84412946Y-75631383D01*
X84409320Y-75677461D01*
X84380262Y-75766895D01*
X84380262Y-75766897D01*
X84380262Y-75893763D01*
X84394759Y-75938380D01*
X84419465Y-76014421D01*
X84475276Y-76091237D01*
X84475277Y-76091238D01*
X84475278Y-76091239D01*
X84908761Y-76524721D01*
X84985580Y-76580535D01*
X85106237Y-76619738D01*
X85106239Y-76619738D01*
X85233101Y-76619738D01*
X85233103Y-76619738D01*
X85322539Y-76590679D01*
X85345718Y-76590679D01*
X85368616Y-76587053D01*
X85375734Y-76590679D01*
X85383722Y-76590680D01*
X85423133Y-76614830D01*
X85485169Y-76676866D01*
X85512946Y-76731383D01*
X85509320Y-76777461D01*
X85480262Y-76866895D01*
X85480262Y-76866897D01*
X85480262Y-76993763D01*
X85492616Y-77031784D01*
X85519465Y-77114421D01*
X85575276Y-77191237D01*
X85575277Y-77191238D01*
X85575278Y-77191239D01*
X86008761Y-77624721D01*
X86085580Y-77680535D01*
X86206237Y-77719738D01*
X86206239Y-77719738D01*
X86333101Y-77719738D01*
X86333103Y-77719738D01*
X86453760Y-77680535D01*
X86530579Y-77624722D01*
X86857995Y-77297305D01*
X86913809Y-77220486D01*
X86953012Y-77099829D01*
X86953012Y-77073923D01*
X86971919Y-77015732D01*
X87021419Y-76979768D01*
X87077362Y-76979768D01*
X87077744Y-76978342D01*
X87125955Y-76991260D01*
X87160435Y-77000499D01*
X87160437Y-77000500D01*
X87160438Y-77000500D01*
X87239562Y-77000500D01*
X87451460Y-77000500D01*
X87509651Y-77019407D01*
X87545615Y-77068907D01*
X87545615Y-77130093D01*
X87521465Y-77169501D01*
X87477357Y-77213610D01*
X87477352Y-77213615D01*
X87265400Y-77471880D01*
X87079773Y-77749687D01*
X86922286Y-78044327D01*
X86922273Y-78044354D01*
X86794414Y-78353032D01*
X86697431Y-78672746D01*
X86632248Y-79000444D01*
X86609402Y-79232411D01*
X86605472Y-79272315D01*
X86599500Y-79332946D01*
X86599500Y-79667053D01*
X86632248Y-79999555D01*
X86697431Y-80327253D01*
X86737845Y-80460482D01*
X86736644Y-80521656D01*
X86699715Y-80570440D01*
X86641164Y-80588201D01*
X86583356Y-80568154D01*
X86573104Y-80559224D01*
X85890564Y-79876684D01*
X85862787Y-79822167D01*
X85871372Y-79763729D01*
X85917849Y-79667219D01*
X85938090Y-79532932D01*
X85917849Y-79398645D01*
X85858926Y-79276290D01*
X85849674Y-79265123D01*
X85839431Y-79252759D01*
X85839420Y-79252747D01*
X84648992Y-78062319D01*
X84648985Y-78062313D01*
X84648980Y-78062308D01*
X84625453Y-78042816D01*
X84625451Y-78042815D01*
X84625450Y-78042814D01*
X84503095Y-77983891D01*
X84435951Y-77973770D01*
X84368809Y-77963650D01*
X84368807Y-77963650D01*
X84234521Y-77983891D01*
X84196083Y-78002402D01*
X84112162Y-78042816D01*
X84088630Y-78062313D01*
X84088628Y-78062314D01*
X83802414Y-78348527D01*
X83747898Y-78376304D01*
X83687466Y-78366732D01*
X83662407Y-78348527D01*
X83388031Y-78074151D01*
X83372299Y-78053647D01*
X83330521Y-77981286D01*
X83330520Y-77981284D01*
X83218716Y-77869480D01*
X83178654Y-77846350D01*
X83146350Y-77827699D01*
X83125847Y-77811967D01*
X82588031Y-77274151D01*
X82572299Y-77253647D01*
X82530521Y-77181286D01*
X82530520Y-77181284D01*
X82418716Y-77069480D01*
X82391656Y-77053857D01*
X82346350Y-77027699D01*
X82325847Y-77011967D01*
X81838031Y-76524151D01*
X81822299Y-76503647D01*
X81780521Y-76431286D01*
X81780520Y-76431284D01*
X81668716Y-76319480D01*
X81531784Y-76240423D01*
X81379057Y-76199500D01*
X81220943Y-76199500D01*
X81068216Y-76240423D01*
X80931284Y-76319480D01*
X80819480Y-76431284D01*
X80740423Y-76568216D01*
X80699500Y-76720943D01*
X80699500Y-76879057D01*
X80740423Y-77031784D01*
X80819480Y-77168716D01*
X80931284Y-77280520D01*
X80931286Y-77280521D01*
X81003647Y-77322299D01*
X81024151Y-77338031D01*
X81511967Y-77825847D01*
X81527699Y-77846350D01*
X81560194Y-77902632D01*
X81569480Y-77918716D01*
X81681284Y-78030520D01*
X81681286Y-78030521D01*
X81753647Y-78072299D01*
X81774151Y-78088031D01*
X82311967Y-78625847D01*
X82327699Y-78646350D01*
X82342939Y-78672746D01*
X82369480Y-78718716D01*
X82481284Y-78830520D01*
X82481286Y-78830521D01*
X82553647Y-78872299D01*
X82574151Y-78888031D01*
X82848527Y-79162407D01*
X82876304Y-79216924D01*
X82866733Y-79277356D01*
X82848527Y-79302414D01*
X82562314Y-79588628D01*
X82562313Y-79588630D01*
X82542816Y-79612162D01*
X82483891Y-79734521D01*
X82474255Y-79798453D01*
X82463650Y-79868808D01*
X82483891Y-80003095D01*
X82542814Y-80125450D01*
X82562315Y-80148988D01*
X83752752Y-81339425D01*
X83776290Y-81358926D01*
X83898645Y-81417849D01*
X84015341Y-81435438D01*
X84032931Y-81438090D01*
X84032932Y-81438090D01*
X84032933Y-81438090D01*
X84048485Y-81435745D01*
X84167219Y-81417849D01*
X84289574Y-81358926D01*
X84313112Y-81339425D01*
X84949324Y-80703211D01*
X85003841Y-80675435D01*
X85064273Y-80685006D01*
X85089332Y-80703212D01*
X87964485Y-83578365D01*
X87964484Y-83578365D01*
X88067932Y-83681812D01*
X88095710Y-83736329D01*
X88086139Y-83796761D01*
X88042874Y-83840025D01*
X87982442Y-83849597D01*
X87514761Y-83775524D01*
X87511905Y-83775029D01*
X87380634Y-83750278D01*
X87368806Y-83748048D01*
X87366587Y-83747603D01*
X87264222Y-83725845D01*
X86793930Y-83625881D01*
X86791017Y-83625215D01*
X86651580Y-83591149D01*
X86649453Y-83590605D01*
X86081849Y-83438517D01*
X86078891Y-83437675D01*
X85943908Y-83396973D01*
X85941896Y-83396343D01*
X85380430Y-83213911D01*
X85377439Y-83212886D01*
X85247805Y-83166138D01*
X85245911Y-83165432D01*
X84691676Y-82952681D01*
X84688661Y-82951467D01*
X84565319Y-82899413D01*
X84563545Y-82898644D01*
X84017470Y-82655515D01*
X84014444Y-82654106D01*
X83898221Y-82597591D01*
X83896569Y-82596769D01*
X83359729Y-82323234D01*
X83356704Y-82321626D01*
X83248422Y-82261647D01*
X83246892Y-82260782D01*
X82720258Y-81956730D01*
X82717308Y-81954955D01*
X82660648Y-81919503D01*
X82617686Y-81892622D01*
X82616279Y-81891725D01*
X82100975Y-81557083D01*
X82097990Y-81555067D01*
X82007864Y-81491761D01*
X82006577Y-81490842D01*
X81503424Y-81125280D01*
X81500480Y-81123055D01*
X81420569Y-81060316D01*
X81419401Y-81059385D01*
X80929421Y-80662607D01*
X80926531Y-80660174D01*
X80857439Y-80599717D01*
X80856388Y-80598784D01*
X80380480Y-80170276D01*
X80377658Y-80167634D01*
X80320179Y-80111665D01*
X80319241Y-80110740D01*
X79858142Y-79649641D01*
X79855431Y-79646819D01*
X79810059Y-79597671D01*
X79809319Y-79596858D01*
X79363904Y-79102174D01*
X79361309Y-79099171D01*
X79328851Y-79060021D01*
X79328129Y-79059139D01*
X79182106Y-78878816D01*
X78899141Y-78529384D01*
X78896641Y-78526161D01*
X78877614Y-78500550D01*
X78877061Y-78499798D01*
X78465167Y-77932876D01*
X78462796Y-77929460D01*
X78457593Y-77921617D01*
X78457068Y-77920816D01*
X78064885Y-77316907D01*
X78062176Y-77312488D01*
X77992172Y-77191237D01*
X77698287Y-76682213D01*
X77695821Y-76677671D01*
X77695305Y-76676659D01*
X77365424Y-76029230D01*
X77363200Y-76024567D01*
X77358682Y-76014420D01*
X77067191Y-75359720D01*
X77065214Y-75354945D01*
X77048708Y-75311946D01*
X76804423Y-74675559D01*
X76802695Y-74670683D01*
X76799074Y-74659540D01*
X76588981Y-74012937D01*
X76577803Y-73978535D01*
X76576331Y-73973565D01*
X76387978Y-73270622D01*
X76386768Y-73265582D01*
X76235460Y-72553732D01*
X76234516Y-72548636D01*
X76218477Y-72447368D01*
X76120670Y-71829841D01*
X76120000Y-71824759D01*
X76043923Y-71100930D01*
X76043520Y-71095810D01*
X76005433Y-70369059D01*
X76005297Y-70363878D01*
X76005297Y-69636121D01*
X76005433Y-69630940D01*
X76013139Y-69483896D01*
X76043521Y-68904186D01*
X76043922Y-68899072D01*
X76120001Y-68175235D01*
X76120669Y-68170163D01*
X76234516Y-67451358D01*
X76235460Y-67446267D01*
X76248268Y-67386009D01*
X76386769Y-66734410D01*
X76387978Y-66729377D01*
X76399179Y-66687575D01*
X76576333Y-66026425D01*
X76577803Y-66021464D01*
X76588484Y-65988591D01*
X76802701Y-65329296D01*
X76804418Y-65324452D01*
X77065225Y-64645026D01*
X77067185Y-64640292D01*
X77363213Y-63975403D01*
X77365416Y-63970783D01*
X77695836Y-63322298D01*
X77698278Y-63317801D01*
X78062184Y-62687496D01*
X78064875Y-62683107D01*
X78457245Y-62078910D01*
X78457491Y-62078535D01*
X78462826Y-62070494D01*
X78465136Y-62067167D01*
X78877202Y-61500006D01*
X78877469Y-61499644D01*
X78896683Y-61473781D01*
X78899103Y-61470661D01*
X79328282Y-60940671D01*
X79328728Y-60940126D01*
X79361350Y-60900779D01*
X79363861Y-60897873D01*
X79809518Y-60402920D01*
X79809922Y-60402477D01*
X79855478Y-60353129D01*
X79858092Y-60350408D01*
X80319396Y-59889104D01*
X80320020Y-59888489D01*
X80377717Y-59832308D01*
X80380420Y-59829777D01*
X80856497Y-59401116D01*
X80857439Y-59400281D01*
X80911437Y-59353032D01*
X80926554Y-59339804D01*
X80929367Y-59337436D01*
X81419514Y-58940522D01*
X81420462Y-58939766D01*
X81500539Y-58876897D01*
X81503363Y-58874763D01*
X82006708Y-58509062D01*
X82007734Y-58508329D01*
X82098052Y-58444888D01*
X82100910Y-58442958D01*
X82616404Y-58108192D01*
X82617567Y-58107451D01*
X82717391Y-58044992D01*
X82720174Y-58043318D01*
X83247078Y-57739110D01*
X83248240Y-57738453D01*
X83356760Y-57678342D01*
X83359674Y-57676792D01*
X83896756Y-57403135D01*
X83898075Y-57402479D01*
X84014489Y-57345870D01*
X84017401Y-57344514D01*
X84563708Y-57101282D01*
X84565197Y-57100637D01*
X84688710Y-57048510D01*
X84691603Y-57047346D01*
X85246057Y-56834511D01*
X85247673Y-56833909D01*
X85377477Y-56787098D01*
X85380393Y-56786099D01*
X85942022Y-56603615D01*
X85943782Y-56603064D01*
X86079002Y-56562291D01*
X86081737Y-56561512D01*
X86649519Y-56409375D01*
X86651514Y-56408865D01*
X86791102Y-56374763D01*
X86793846Y-56374136D01*
X87366755Y-56252360D01*
X87368638Y-56251983D01*
X87511965Y-56224958D01*
X87514701Y-56224484D01*
X88091416Y-56133141D01*
X88093561Y-56132828D01*
X88239515Y-56113283D01*
X88242152Y-56112968D01*
X88821773Y-56052047D01*
X88823971Y-56051844D01*
X88971816Y-56040010D01*
X88974288Y-56039847D01*
X89555491Y-56009387D01*
X89557901Y-56009291D01*
X89706597Y-56005332D01*
X89709232Y-56005297D01*
X90290768Y-56005297D01*
X90293403Y-56005332D01*
G37*
%TD.AperFunction*%
%TD*%
M02*
