%TF.GenerationSoftware,KiCad,Pcbnew,9.0.5*%
%TF.CreationDate,2025-12-02T23:56:59+01:00*%
%TF.ProjectId,D1,44312e6b-6963-4616-945f-706362585858,rev?*%
%TF.SameCoordinates,Original*%
%TF.FileFunction,Legend,Top*%
%TF.FilePolarity,Positive*%
%FSLAX46Y46*%
G04 Gerber Fmt 4.6, Leading zero omitted, Abs format (unit mm)*
G04 Created by KiCad (PCBNEW 9.0.5) date 2025-12-02 23:56:59*
%MOMM*%
%LPD*%
G01*
G04 APERTURE LIST*
%ADD10C,0.150000*%
%ADD11C,0.300000*%
%ADD12C,0.120000*%
G04 APERTURE END LIST*
D10*
X96100000Y-73600000D02*
X95700000Y-73100000D01*
X96500000Y-73100000D01*
X96100000Y-73600000D01*
G36*
X96100000Y-73600000D02*
G01*
X95700000Y-73100000D01*
X96500000Y-73100000D01*
X96100000Y-73600000D01*
G37*
G36*
X100979567Y-73433890D02*
G01*
X101202213Y-73656535D01*
X101287790Y-73799163D01*
X101287790Y-73900906D01*
X101263566Y-73973577D01*
X101153917Y-74083226D01*
X101081246Y-74107451D01*
X100979503Y-74107451D01*
X100836874Y-74021874D01*
X100614230Y-73799229D01*
X100528652Y-73656600D01*
X100528652Y-73554858D01*
X100552876Y-73482186D01*
X100662525Y-73372536D01*
X100735197Y-73348314D01*
X100836940Y-73348314D01*
X100979567Y-73433890D01*
G37*
G36*
X103106529Y-72499883D02*
G01*
X101026073Y-74580339D01*
X100055764Y-73610031D01*
X100123107Y-73542688D01*
X100378652Y-73542688D01*
X100378652Y-73677375D01*
X100380093Y-73692007D01*
X100382227Y-73697160D01*
X100383048Y-73702674D01*
X100389340Y-73715963D01*
X100490356Y-73884320D01*
X100491882Y-73886376D01*
X100492307Y-73887401D01*
X100495824Y-73891686D01*
X100499120Y-73896126D01*
X100500008Y-73896784D01*
X100501635Y-73898766D01*
X100737337Y-74134469D01*
X100739318Y-74136095D01*
X100739977Y-74136984D01*
X100744416Y-74140279D01*
X100748702Y-74143797D01*
X100749726Y-74144221D01*
X100751783Y-74145748D01*
X100920142Y-74246763D01*
X100933430Y-74253055D01*
X100938943Y-74253875D01*
X100944097Y-74256010D01*
X100958729Y-74257451D01*
X101093416Y-74257451D01*
X101100821Y-74256721D01*
X101102796Y-74256862D01*
X101105393Y-74256271D01*
X101108048Y-74256010D01*
X101109879Y-74255251D01*
X101117133Y-74253602D01*
X101218148Y-74219930D01*
X101231573Y-74213936D01*
X101233608Y-74212170D01*
X101236099Y-74211139D01*
X101247464Y-74201812D01*
X101382151Y-74067125D01*
X101391478Y-74055760D01*
X101392508Y-74053271D01*
X101394275Y-74051235D01*
X101400269Y-74037809D01*
X101433941Y-73936795D01*
X101435590Y-73929539D01*
X101436349Y-73927709D01*
X101436610Y-73925055D01*
X101437201Y-73922458D01*
X101437060Y-73920483D01*
X101437790Y-73913077D01*
X101437790Y-73778390D01*
X101436349Y-73763758D01*
X101434214Y-73758604D01*
X101433394Y-73753091D01*
X101427102Y-73739803D01*
X101326087Y-73571444D01*
X101324560Y-73569387D01*
X101324136Y-73568363D01*
X101320618Y-73564077D01*
X101317323Y-73559638D01*
X101316434Y-73558979D01*
X101314808Y-73556998D01*
X101079105Y-73321296D01*
X101077123Y-73319669D01*
X101076465Y-73318781D01*
X101072022Y-73315482D01*
X101067740Y-73311968D01*
X101066717Y-73311544D01*
X101064660Y-73310017D01*
X100896301Y-73209002D01*
X100883013Y-73202710D01*
X100877499Y-73201889D01*
X100872346Y-73199755D01*
X100857714Y-73198314D01*
X100723027Y-73198314D01*
X100715621Y-73199043D01*
X100713647Y-73198903D01*
X100711050Y-73199493D01*
X100708395Y-73199755D01*
X100706562Y-73200513D01*
X100699311Y-73202163D01*
X100598295Y-73235834D01*
X100584869Y-73241828D01*
X100582833Y-73243593D01*
X100580343Y-73244625D01*
X100568978Y-73253952D01*
X100434291Y-73388639D01*
X100424964Y-73400004D01*
X100423932Y-73402494D01*
X100422167Y-73404530D01*
X100416173Y-73417955D01*
X100382501Y-73518971D01*
X100380851Y-73526224D01*
X100380093Y-73528056D01*
X100379831Y-73530710D01*
X100379241Y-73533308D01*
X100379381Y-73535282D01*
X100378652Y-73542688D01*
X100123107Y-73542688D01*
X100844845Y-72820950D01*
X101019857Y-72820950D01*
X101019857Y-72850212D01*
X101031056Y-72877249D01*
X101040383Y-72888614D01*
X101612803Y-73461034D01*
X101624168Y-73470361D01*
X101626658Y-73471392D01*
X101628694Y-73473158D01*
X101642119Y-73479152D01*
X101743134Y-73512823D01*
X101750387Y-73514472D01*
X101752219Y-73515231D01*
X101754873Y-73515492D01*
X101757471Y-73516083D01*
X101759445Y-73515942D01*
X101766851Y-73516672D01*
X101834194Y-73516672D01*
X101841599Y-73515942D01*
X101843574Y-73516083D01*
X101846170Y-73515492D01*
X101848826Y-73515231D01*
X101850658Y-73514472D01*
X101857910Y-73512823D01*
X101958927Y-73479152D01*
X101972352Y-73473158D01*
X101974387Y-73471392D01*
X101976878Y-73470361D01*
X101988243Y-73461034D01*
X102122930Y-73326347D01*
X102132257Y-73314982D01*
X102133288Y-73312491D01*
X102135054Y-73310456D01*
X102141048Y-73297030D01*
X102174719Y-73196014D01*
X102176368Y-73188762D01*
X102177127Y-73186930D01*
X102177388Y-73184274D01*
X102177979Y-73181678D01*
X102177838Y-73179703D01*
X102178568Y-73172298D01*
X102178568Y-73104955D01*
X102177838Y-73097549D01*
X102177979Y-73095575D01*
X102177388Y-73092977D01*
X102177127Y-73090323D01*
X102176368Y-73088491D01*
X102174719Y-73081238D01*
X102141048Y-72980223D01*
X102135054Y-72966798D01*
X102133288Y-72964762D01*
X102132257Y-72962272D01*
X102122930Y-72950907D01*
X101550510Y-72378487D01*
X101539145Y-72369160D01*
X101512108Y-72357961D01*
X101482846Y-72357961D01*
X101455809Y-72369160D01*
X101435117Y-72389852D01*
X101423918Y-72416889D01*
X101423918Y-72446151D01*
X101435117Y-72473188D01*
X101444444Y-72484553D01*
X102004344Y-73044453D01*
X102028568Y-73117124D01*
X102028568Y-73160128D01*
X102004345Y-73232799D01*
X101894695Y-73342449D01*
X101822025Y-73366672D01*
X101779021Y-73366672D01*
X101706349Y-73342448D01*
X101146449Y-72782548D01*
X101135084Y-72773221D01*
X101108047Y-72762022D01*
X101078785Y-72762022D01*
X101051748Y-72773221D01*
X101031056Y-72793913D01*
X101019857Y-72820950D01*
X100844845Y-72820950D01*
X101484608Y-72181187D01*
X101659620Y-72181187D01*
X101659620Y-72210449D01*
X101670819Y-72237486D01*
X101691511Y-72258178D01*
X101718548Y-72269377D01*
X101747810Y-72269377D01*
X101774847Y-72258178D01*
X101786212Y-72248851D01*
X101935209Y-72099853D01*
X102589283Y-72753927D01*
X102600648Y-72763254D01*
X102627684Y-72774453D01*
X102656947Y-72774453D01*
X102683983Y-72763254D01*
X102704676Y-72742561D01*
X102715875Y-72715525D01*
X102715875Y-72686262D01*
X102704676Y-72659226D01*
X102695349Y-72647861D01*
X102041275Y-71993787D01*
X102190273Y-71844790D01*
X102199601Y-71833424D01*
X102210799Y-71806388D01*
X102210799Y-71777125D01*
X102199601Y-71750089D01*
X102178908Y-71729396D01*
X102151872Y-71718198D01*
X102122609Y-71718198D01*
X102095573Y-71729396D01*
X102084207Y-71738724D01*
X101680146Y-72142785D01*
X101670819Y-72154150D01*
X101659620Y-72181187D01*
X101484608Y-72181187D01*
X102136221Y-71529574D01*
X103106529Y-72499883D01*
G37*
G36*
X77590547Y-68907543D02*
G01*
X77667534Y-68946037D01*
X77741648Y-69020150D01*
X77779819Y-69134663D01*
X77779819Y-69285588D01*
X76929819Y-69285588D01*
X76929819Y-69134663D01*
X76967990Y-69020149D01*
X77042103Y-68946037D01*
X77119090Y-68907543D01*
X77292624Y-68864160D01*
X77417013Y-68864160D01*
X77590547Y-68907543D01*
G37*
G36*
X78040930Y-71689556D02*
G01*
X76668708Y-71689556D01*
X76668708Y-71074874D01*
X76779819Y-71074874D01*
X76779819Y-71312969D01*
X76781260Y-71327601D01*
X76782291Y-71330090D01*
X76782482Y-71332778D01*
X76787737Y-71346510D01*
X76835356Y-71441748D01*
X76839320Y-71448047D01*
X76840078Y-71449875D01*
X76841766Y-71451931D01*
X76843188Y-71454191D01*
X76844686Y-71455490D01*
X76849405Y-71461240D01*
X76897024Y-71508859D01*
X76902773Y-71513577D01*
X76904073Y-71515076D01*
X76906332Y-71516497D01*
X76908389Y-71518186D01*
X76910216Y-71518943D01*
X76916516Y-71522908D01*
X77011754Y-71570527D01*
X77025485Y-71575782D01*
X77028174Y-71575973D01*
X77030663Y-71577004D01*
X77045295Y-71578445D01*
X77140533Y-71578445D01*
X77155165Y-71577004D01*
X77157654Y-71575972D01*
X77160342Y-71575782D01*
X77174074Y-71570527D01*
X77269312Y-71522908D01*
X77275611Y-71518943D01*
X77277439Y-71518186D01*
X77279495Y-71516497D01*
X77281755Y-71515076D01*
X77283054Y-71513577D01*
X77288804Y-71508859D01*
X77336423Y-71461240D01*
X77341141Y-71455490D01*
X77342640Y-71454191D01*
X77344061Y-71451931D01*
X77345750Y-71449875D01*
X77346507Y-71448047D01*
X77350472Y-71441748D01*
X77398091Y-71346510D01*
X77398500Y-71345440D01*
X77398823Y-71345005D01*
X77401015Y-71338868D01*
X77403346Y-71332779D01*
X77403384Y-71332238D01*
X77403770Y-71331159D01*
X77449392Y-71148669D01*
X77487886Y-71071682D01*
X77518293Y-71041275D01*
X77586809Y-71007017D01*
X77646637Y-71007017D01*
X77715153Y-71041275D01*
X77745561Y-71071682D01*
X77779819Y-71140198D01*
X77779819Y-71348418D01*
X77736049Y-71479728D01*
X77732789Y-71494065D01*
X77734864Y-71523255D01*
X77747950Y-71549428D01*
X77770057Y-71568602D01*
X77797820Y-71577856D01*
X77827010Y-71575781D01*
X77853183Y-71562695D01*
X77872357Y-71540588D01*
X77878351Y-71527162D01*
X77925970Y-71384306D01*
X77927619Y-71377050D01*
X77928378Y-71375220D01*
X77928639Y-71372566D01*
X77929230Y-71369969D01*
X77929089Y-71367994D01*
X77929819Y-71360588D01*
X77929819Y-71122493D01*
X77928378Y-71107861D01*
X77927347Y-71105372D01*
X77927156Y-71102683D01*
X77921901Y-71088952D01*
X77874282Y-70993714D01*
X77870317Y-70987414D01*
X77869560Y-70985587D01*
X77867872Y-70983530D01*
X77866450Y-70981271D01*
X77864950Y-70979970D01*
X77860232Y-70974221D01*
X77812612Y-70926602D01*
X77806863Y-70921884D01*
X77805564Y-70920386D01*
X77803305Y-70918964D01*
X77801247Y-70917275D01*
X77799417Y-70916517D01*
X77793121Y-70912554D01*
X77697883Y-70864935D01*
X77684151Y-70859680D01*
X77681463Y-70859489D01*
X77678974Y-70858458D01*
X77664342Y-70857017D01*
X77569104Y-70857017D01*
X77554472Y-70858458D01*
X77551983Y-70859488D01*
X77549294Y-70859680D01*
X77535563Y-70864935D01*
X77440325Y-70912554D01*
X77434025Y-70916518D01*
X77432198Y-70917276D01*
X77430141Y-70918964D01*
X77427882Y-70920386D01*
X77426582Y-70921884D01*
X77420833Y-70926603D01*
X77373214Y-70974222D01*
X77368495Y-70979971D01*
X77366997Y-70981271D01*
X77365575Y-70983530D01*
X77363887Y-70985587D01*
X77363129Y-70987414D01*
X77359165Y-70993714D01*
X77311546Y-71088952D01*
X77311136Y-71090021D01*
X77310814Y-71090457D01*
X77308618Y-71096602D01*
X77306291Y-71102684D01*
X77306252Y-71103223D01*
X77305867Y-71104303D01*
X77260244Y-71286793D01*
X77221751Y-71363780D01*
X77191344Y-71394187D01*
X77122828Y-71428445D01*
X77063000Y-71428445D01*
X76994484Y-71394187D01*
X76964077Y-71363780D01*
X76929819Y-71295264D01*
X76929819Y-71087044D01*
X76973589Y-70955735D01*
X76976849Y-70941398D01*
X76974774Y-70912208D01*
X76961688Y-70886034D01*
X76939580Y-70866860D01*
X76911818Y-70857606D01*
X76882628Y-70859681D01*
X76856455Y-70872768D01*
X76837281Y-70894875D01*
X76831287Y-70908300D01*
X76783668Y-71051157D01*
X76782018Y-71058410D01*
X76781260Y-71060242D01*
X76780998Y-71062896D01*
X76780408Y-71065494D01*
X76780548Y-71067468D01*
X76779819Y-71074874D01*
X76668708Y-71074874D01*
X76668708Y-69738737D01*
X76779871Y-69738737D01*
X76784504Y-69767632D01*
X76799840Y-69792554D01*
X76823547Y-69809711D01*
X76837447Y-69814501D01*
X77548303Y-69983752D01*
X77121208Y-70097644D01*
X77117780Y-70098929D01*
X77116340Y-70099121D01*
X77114629Y-70100111D01*
X77107442Y-70102807D01*
X77099582Y-70108822D01*
X77091015Y-70113783D01*
X77088061Y-70117640D01*
X77084204Y-70120594D01*
X77079243Y-70129161D01*
X77073228Y-70137021D01*
X77071976Y-70141713D01*
X77069542Y-70145919D01*
X77068237Y-70155734D01*
X77065688Y-70165297D01*
X77066327Y-70170112D01*
X77065688Y-70174927D01*
X77068237Y-70184489D01*
X77069542Y-70194305D01*
X77071976Y-70198510D01*
X77073228Y-70203203D01*
X77079243Y-70211062D01*
X77084204Y-70219630D01*
X77088061Y-70222583D01*
X77091015Y-70226441D01*
X77099582Y-70231401D01*
X77107442Y-70237417D01*
X77114629Y-70240112D01*
X77116340Y-70241103D01*
X77117780Y-70241294D01*
X77121208Y-70242580D01*
X77548303Y-70356471D01*
X76837447Y-70525723D01*
X76823547Y-70530513D01*
X76799840Y-70547670D01*
X76784504Y-70572592D01*
X76779871Y-70601487D01*
X76786649Y-70629955D01*
X76803806Y-70653662D01*
X76828728Y-70668998D01*
X76857623Y-70673631D01*
X76872191Y-70671643D01*
X77872191Y-70433548D01*
X77877209Y-70431818D01*
X77879013Y-70431579D01*
X77880642Y-70430635D01*
X77886091Y-70428758D01*
X77894914Y-70422372D01*
X77904337Y-70416917D01*
X77906677Y-70413859D01*
X77909798Y-70411601D01*
X77915503Y-70402329D01*
X77922125Y-70393679D01*
X77923118Y-70389955D01*
X77925134Y-70386679D01*
X77926856Y-70375935D01*
X77929665Y-70365404D01*
X77929157Y-70361585D01*
X77929767Y-70357784D01*
X77927244Y-70347188D01*
X77925810Y-70336395D01*
X77923881Y-70333063D01*
X77922989Y-70329316D01*
X77916602Y-70320491D01*
X77911148Y-70311070D01*
X77908090Y-70308729D01*
X77905832Y-70305609D01*
X77896559Y-70299903D01*
X77887911Y-70293283D01*
X77882509Y-70291257D01*
X77880910Y-70290273D01*
X77879119Y-70289985D01*
X77874144Y-70288120D01*
X77431613Y-70170112D01*
X77874144Y-70052104D01*
X77879119Y-70050238D01*
X77880910Y-70049951D01*
X77882509Y-70048966D01*
X77887911Y-70046941D01*
X77896559Y-70040320D01*
X77905832Y-70034615D01*
X77908090Y-70031494D01*
X77911148Y-70029154D01*
X77916602Y-70019732D01*
X77922989Y-70010908D01*
X77923881Y-70007160D01*
X77925810Y-70003829D01*
X77927244Y-69993035D01*
X77929767Y-69982440D01*
X77929157Y-69978638D01*
X77929665Y-69974820D01*
X77926856Y-69964288D01*
X77925134Y-69953545D01*
X77923118Y-69950268D01*
X77922125Y-69946545D01*
X77915503Y-69937894D01*
X77909798Y-69928623D01*
X77906677Y-69926364D01*
X77904337Y-69923307D01*
X77894914Y-69917851D01*
X77886091Y-69911466D01*
X77880642Y-69909588D01*
X77879013Y-69908645D01*
X77877209Y-69908405D01*
X77872191Y-69906676D01*
X76872191Y-69668581D01*
X76857623Y-69666593D01*
X76828728Y-69671226D01*
X76803806Y-69686562D01*
X76786649Y-69710269D01*
X76779871Y-69738737D01*
X76668708Y-69738737D01*
X76668708Y-69122493D01*
X76779819Y-69122493D01*
X76779819Y-69360588D01*
X76781260Y-69375220D01*
X76792459Y-69402256D01*
X76813151Y-69422948D01*
X76840187Y-69434147D01*
X76854819Y-69435588D01*
X77854819Y-69435588D01*
X77869451Y-69434147D01*
X77896487Y-69422948D01*
X77917179Y-69402256D01*
X77928378Y-69375220D01*
X77929819Y-69360588D01*
X77929819Y-69122493D01*
X77929089Y-69115086D01*
X77929230Y-69113112D01*
X77928639Y-69110514D01*
X77928378Y-69107861D01*
X77927619Y-69106030D01*
X77925970Y-69098775D01*
X77878351Y-68955919D01*
X77872357Y-68942493D01*
X77870592Y-68940458D01*
X77869561Y-68937968D01*
X77860233Y-68926603D01*
X77764994Y-68831365D01*
X77759244Y-68826646D01*
X77757945Y-68825148D01*
X77755686Y-68823726D01*
X77753628Y-68822037D01*
X77751798Y-68821279D01*
X77745502Y-68817316D01*
X77650264Y-68769697D01*
X77649194Y-68769287D01*
X77648759Y-68768965D01*
X77642613Y-68766769D01*
X77636532Y-68764442D01*
X77635992Y-68764403D01*
X77634913Y-68764018D01*
X77444437Y-68716399D01*
X77441900Y-68716023D01*
X77440879Y-68715601D01*
X77435366Y-68715058D01*
X77429893Y-68714249D01*
X77428800Y-68714411D01*
X77426247Y-68714160D01*
X77283390Y-68714160D01*
X77280836Y-68714411D01*
X77279744Y-68714249D01*
X77274270Y-68715058D01*
X77268758Y-68715601D01*
X77267736Y-68716023D01*
X77265200Y-68716399D01*
X77074724Y-68764018D01*
X77073644Y-68764403D01*
X77073104Y-68764442D01*
X77067014Y-68766772D01*
X77060878Y-68768965D01*
X77060442Y-68769287D01*
X77059373Y-68769697D01*
X76964135Y-68817316D01*
X76957840Y-68821278D01*
X76956008Y-68822037D01*
X76953946Y-68823728D01*
X76951692Y-68825148D01*
X76950393Y-68826644D01*
X76944643Y-68831365D01*
X76849405Y-68926603D01*
X76840078Y-68937968D01*
X76839046Y-68940458D01*
X76837281Y-68942494D01*
X76831287Y-68955919D01*
X76783668Y-69098776D01*
X76782018Y-69106029D01*
X76781260Y-69107861D01*
X76780998Y-69110515D01*
X76780408Y-69113113D01*
X76780548Y-69115087D01*
X76779819Y-69122493D01*
X76668708Y-69122493D01*
X76668708Y-68603049D01*
X78040930Y-68603049D01*
X78040930Y-71689556D01*
G37*
G36*
X98427489Y-64193545D02*
G01*
X97457440Y-65163593D01*
X96775677Y-64481830D01*
X96979691Y-64481830D01*
X96979691Y-64511092D01*
X96990890Y-64538129D01*
X97011582Y-64558821D01*
X97038619Y-64570020D01*
X97067881Y-64570020D01*
X97094918Y-64558821D01*
X97106283Y-64549494D01*
X97613691Y-64042085D01*
X97384954Y-64880788D01*
X97384321Y-64884516D01*
X97383752Y-64885891D01*
X97383752Y-64887871D01*
X97382494Y-64895284D01*
X97383752Y-64905178D01*
X97383752Y-64915153D01*
X97385581Y-64919570D01*
X97386185Y-64924314D01*
X97391134Y-64932975D01*
X97394951Y-64942190D01*
X97398331Y-64945570D01*
X97400703Y-64949721D01*
X97408589Y-64955828D01*
X97415643Y-64962882D01*
X97420059Y-64964711D01*
X97423840Y-64967639D01*
X97433464Y-64970263D01*
X97442680Y-64974081D01*
X97447460Y-64974081D01*
X97452073Y-64975339D01*
X97461967Y-64974081D01*
X97471942Y-64974081D01*
X97476359Y-64972251D01*
X97481103Y-64971648D01*
X97489764Y-64966698D01*
X97498979Y-64962882D01*
X97504790Y-64958112D01*
X97506510Y-64957130D01*
X97507420Y-64955954D01*
X97510344Y-64953555D01*
X98217451Y-64246448D01*
X98226778Y-64235083D01*
X98237977Y-64208047D01*
X98237977Y-64178784D01*
X98226778Y-64151748D01*
X98206085Y-64131055D01*
X98179049Y-64119856D01*
X98149786Y-64119856D01*
X98122750Y-64131055D01*
X98111385Y-64140382D01*
X97603976Y-64647790D01*
X97832714Y-63809088D01*
X97833346Y-63805360D01*
X97833916Y-63803986D01*
X97833916Y-63802005D01*
X97835174Y-63794593D01*
X97833916Y-63784698D01*
X97833916Y-63774723D01*
X97832085Y-63770304D01*
X97831483Y-63765563D01*
X97826533Y-63756901D01*
X97822717Y-63747687D01*
X97819338Y-63744308D01*
X97816965Y-63740155D01*
X97809073Y-63734043D01*
X97802024Y-63726994D01*
X97797609Y-63725165D01*
X97793828Y-63722237D01*
X97784202Y-63719611D01*
X97774988Y-63715795D01*
X97770208Y-63715795D01*
X97765595Y-63714537D01*
X97755701Y-63715795D01*
X97745725Y-63715795D01*
X97741306Y-63717625D01*
X97736565Y-63718228D01*
X97727907Y-63723175D01*
X97718689Y-63726994D01*
X97712873Y-63731766D01*
X97711158Y-63732747D01*
X97710249Y-63733920D01*
X97707324Y-63736321D01*
X97000217Y-64443428D01*
X96990890Y-64454793D01*
X96979691Y-64481830D01*
X96775677Y-64481830D01*
X96453462Y-64159615D01*
X96467964Y-64145113D01*
X96642974Y-64145113D01*
X96642974Y-64174375D01*
X96654173Y-64201412D01*
X96674865Y-64222104D01*
X96701902Y-64233303D01*
X96731164Y-64233303D01*
X96758201Y-64222104D01*
X96769566Y-64212777D01*
X97476673Y-63505670D01*
X97486000Y-63494305D01*
X97497199Y-63467269D01*
X97497199Y-63438006D01*
X97486000Y-63410970D01*
X97465307Y-63390277D01*
X97438271Y-63379078D01*
X97409008Y-63379078D01*
X97381972Y-63390277D01*
X97370607Y-63399604D01*
X96663500Y-64106711D01*
X96654173Y-64118076D01*
X96642974Y-64145113D01*
X96467964Y-64145113D01*
X97423510Y-63189566D01*
X98427489Y-64193545D01*
G37*
D11*
G36*
X89383258Y-65380861D02*
G01*
X89483865Y-65481468D01*
X89537044Y-65587827D01*
X89600000Y-65839648D01*
X89600000Y-66017007D01*
X89537044Y-66268828D01*
X89483865Y-66375188D01*
X89383259Y-66475794D01*
X89225657Y-66528328D01*
X89042857Y-66528328D01*
X89042857Y-65328328D01*
X89225660Y-65328328D01*
X89383258Y-65380861D01*
G37*
G36*
X91492357Y-66994995D02*
G01*
X88576190Y-66994995D01*
X88576190Y-65178328D01*
X88742857Y-65178328D01*
X88742857Y-66678328D01*
X88745739Y-66707592D01*
X88768137Y-66761664D01*
X88809521Y-66803048D01*
X88863593Y-66825446D01*
X88892857Y-66828328D01*
X89250000Y-66828328D01*
X89264805Y-66826869D01*
X89268760Y-66827151D01*
X89273961Y-66825968D01*
X89279264Y-66825446D01*
X89282921Y-66823930D01*
X89297434Y-66820631D01*
X89511720Y-66749203D01*
X89538571Y-66737215D01*
X89542642Y-66733683D01*
X89547622Y-66731621D01*
X89570352Y-66712966D01*
X89713209Y-66570108D01*
X89722647Y-66558606D01*
X89725642Y-66556010D01*
X89728482Y-66551496D01*
X89731864Y-66547377D01*
X89733379Y-66543717D01*
X89741307Y-66531124D01*
X89812736Y-66388268D01*
X89813555Y-66386125D01*
X89814200Y-66385256D01*
X89818584Y-66372984D01*
X89823245Y-66360804D01*
X89823321Y-66359723D01*
X89824093Y-66357565D01*
X89895521Y-66071851D01*
X89896270Y-66066779D01*
X89897118Y-66064735D01*
X89898203Y-66053712D01*
X89899823Y-66042762D01*
X89899497Y-66040574D01*
X89900000Y-66035471D01*
X89900000Y-65821185D01*
X89899497Y-65816081D01*
X89899823Y-65813894D01*
X89898203Y-65802943D01*
X89897118Y-65791921D01*
X89896270Y-65789876D01*
X89895521Y-65784805D01*
X89846355Y-65588139D01*
X90172607Y-65588139D01*
X90176756Y-65646519D01*
X90202930Y-65698868D01*
X90247145Y-65737215D01*
X90302668Y-65755722D01*
X90361048Y-65751573D01*
X90388511Y-65741064D01*
X90531368Y-65669635D01*
X90543961Y-65661707D01*
X90547621Y-65660192D01*
X90551740Y-65656810D01*
X90556254Y-65653970D01*
X90558850Y-65650976D01*
X90570352Y-65641537D01*
X90600000Y-65611889D01*
X90600000Y-66528328D01*
X90321429Y-66528328D01*
X90292165Y-66531210D01*
X90238093Y-66553608D01*
X90196709Y-66594992D01*
X90174311Y-66649064D01*
X90174311Y-66707592D01*
X90196709Y-66761664D01*
X90238093Y-66803048D01*
X90292165Y-66825446D01*
X90321429Y-66828328D01*
X91178572Y-66828328D01*
X91207836Y-66825446D01*
X91261908Y-66803048D01*
X91303292Y-66761664D01*
X91325690Y-66707592D01*
X91325690Y-66649064D01*
X91303292Y-66594992D01*
X91261908Y-66553608D01*
X91207836Y-66531210D01*
X91178572Y-66528328D01*
X90900000Y-66528328D01*
X90900000Y-65178328D01*
X90899989Y-65178222D01*
X90900000Y-65178170D01*
X90899969Y-65178016D01*
X90897118Y-65149064D01*
X90891434Y-65135343D01*
X90888522Y-65120781D01*
X90880343Y-65108568D01*
X90874720Y-65094992D01*
X90864221Y-65084493D01*
X90855956Y-65072151D01*
X90843725Y-65063997D01*
X90833336Y-65053608D01*
X90819617Y-65047925D01*
X90807257Y-65039685D01*
X90792838Y-65036832D01*
X90779264Y-65031210D01*
X90764413Y-65031210D01*
X90749843Y-65028328D01*
X90735433Y-65031210D01*
X90720736Y-65031210D01*
X90707014Y-65036893D01*
X90692453Y-65039806D01*
X90680240Y-65047984D01*
X90666664Y-65053608D01*
X90656165Y-65064106D01*
X90643823Y-65072372D01*
X90625391Y-65094880D01*
X90625280Y-65094992D01*
X90625259Y-65095042D01*
X90625193Y-65095123D01*
X90490573Y-65297051D01*
X90375432Y-65412192D01*
X90254347Y-65472736D01*
X90229461Y-65488401D01*
X90191114Y-65532616D01*
X90172607Y-65588139D01*
X89846355Y-65588139D01*
X89824093Y-65499091D01*
X89823321Y-65496932D01*
X89823245Y-65495852D01*
X89818584Y-65483671D01*
X89814200Y-65471400D01*
X89813555Y-65470530D01*
X89812736Y-65468388D01*
X89741307Y-65325532D01*
X89733380Y-65312940D01*
X89731864Y-65309278D01*
X89728480Y-65305155D01*
X89725642Y-65300646D01*
X89722649Y-65298050D01*
X89713209Y-65286548D01*
X89570352Y-65143691D01*
X89547621Y-65125036D01*
X89542641Y-65122973D01*
X89538571Y-65119443D01*
X89511720Y-65107454D01*
X89297434Y-65036026D01*
X89282926Y-65032727D01*
X89279264Y-65031210D01*
X89273955Y-65030687D01*
X89268761Y-65029506D01*
X89264811Y-65029786D01*
X89250000Y-65028328D01*
X88892857Y-65028328D01*
X88863593Y-65031210D01*
X88809521Y-65053608D01*
X88768137Y-65094992D01*
X88745739Y-65149064D01*
X88742857Y-65178328D01*
X88576190Y-65178328D01*
X88576190Y-64861661D01*
X91492357Y-64861661D01*
X91492357Y-66994995D01*
G37*
X87857143Y-74678328D02*
X88214286Y-75678328D01*
X88214286Y-75678328D02*
X88571429Y-74678328D01*
X89928572Y-75678328D02*
X89071429Y-75678328D01*
X89500000Y-75678328D02*
X89500000Y-74178328D01*
X89500000Y-74178328D02*
X89357143Y-74392614D01*
X89357143Y-74392614D02*
X89214286Y-74535471D01*
X89214286Y-74535471D02*
X89071429Y-74606900D01*
X90571428Y-75535471D02*
X90642857Y-75606900D01*
X90642857Y-75606900D02*
X90571428Y-75678328D01*
X90571428Y-75678328D02*
X90500000Y-75606900D01*
X90500000Y-75606900D02*
X90571428Y-75535471D01*
X90571428Y-75535471D02*
X90571428Y-75678328D01*
X91571429Y-74178328D02*
X91714286Y-74178328D01*
X91714286Y-74178328D02*
X91857143Y-74249757D01*
X91857143Y-74249757D02*
X91928572Y-74321185D01*
X91928572Y-74321185D02*
X92000000Y-74464042D01*
X92000000Y-74464042D02*
X92071429Y-74749757D01*
X92071429Y-74749757D02*
X92071429Y-75106900D01*
X92071429Y-75106900D02*
X92000000Y-75392614D01*
X92000000Y-75392614D02*
X91928572Y-75535471D01*
X91928572Y-75535471D02*
X91857143Y-75606900D01*
X91857143Y-75606900D02*
X91714286Y-75678328D01*
X91714286Y-75678328D02*
X91571429Y-75678328D01*
X91571429Y-75678328D02*
X91428572Y-75606900D01*
X91428572Y-75606900D02*
X91357143Y-75535471D01*
X91357143Y-75535471D02*
X91285714Y-75392614D01*
X91285714Y-75392614D02*
X91214286Y-75106900D01*
X91214286Y-75106900D02*
X91214286Y-74749757D01*
X91214286Y-74749757D02*
X91285714Y-74464042D01*
X91285714Y-74464042D02*
X91357143Y-74321185D01*
X91357143Y-74321185D02*
X91428572Y-74249757D01*
X91428572Y-74249757D02*
X91571429Y-74178328D01*
D12*
%TO.C,R5*%
X84298303Y-73862770D02*
X83962770Y-74198303D01*
X85037230Y-74601697D02*
X84701697Y-74937230D01*
%TO.C,Q2*%
X93646913Y-61946913D02*
X93187294Y-62406533D01*
X93646913Y-61946913D02*
X94106533Y-61487294D01*
X95853087Y-64153087D02*
X95393467Y-64612706D01*
X95853087Y-64153087D02*
X96312706Y-63693467D01*
X92860257Y-62804280D02*
X92457206Y-62740641D01*
X92796618Y-62401230D01*
X92860257Y-62804280D01*
G36*
X92860257Y-62804280D02*
G01*
X92457206Y-62740641D01*
X92796618Y-62401230D01*
X92860257Y-62804280D01*
G37*
%TO.C,R1*%
X84798303Y-61862770D02*
X84462770Y-62198303D01*
X85537230Y-62601697D02*
X85201697Y-62937230D01*
%TO.C,C5*%
X77820999Y-76517122D02*
X83523815Y-82219938D01*
X83523815Y-82219938D02*
X86719938Y-79023815D01*
X86719938Y-79023815D02*
X81017122Y-73320999D01*
%TO.C,R6*%
X85398303Y-74962770D02*
X85062770Y-75298303D01*
X86137230Y-75701697D02*
X85801697Y-76037230D01*
%TO.C,U3*%
X93190000Y-73790000D02*
X93640000Y-73790000D01*
X93190000Y-74240000D02*
X93190000Y-73790000D01*
X93190000Y-76560000D02*
X93190000Y-77010000D01*
X93190000Y-77010000D02*
X93640000Y-77010000D01*
X96410000Y-74240000D02*
X96410000Y-73790000D01*
X96410000Y-76560000D02*
X96410000Y-77010000D01*
X96410000Y-77010000D02*
X95960000Y-77010000D01*
%TO.C,Q1*%
X85796913Y-65803087D02*
X85337294Y-65343467D01*
X85796913Y-65803087D02*
X86256533Y-66262706D01*
X88003087Y-63596913D02*
X87543467Y-63137294D01*
X88003087Y-63596913D02*
X88462706Y-64056533D01*
X87548770Y-62746618D02*
X87145720Y-62810257D01*
X87209359Y-62407206D01*
X87548770Y-62746618D01*
G36*
X87548770Y-62746618D02*
G01*
X87145720Y-62810257D01*
X87209359Y-62407206D01*
X87548770Y-62746618D01*
G37*
%TO.C,R4*%
X84462770Y-66601697D02*
X84798303Y-66937230D01*
X85201697Y-65862770D02*
X85537230Y-66198303D01*
%TO.C,R7*%
X86498303Y-76062770D02*
X86162770Y-76398303D01*
X87237230Y-76801697D02*
X86901697Y-77137230D01*
%TO.C,U2*%
X90000000Y-67440000D02*
X86550000Y-67440000D01*
X90000000Y-67440000D02*
X91950000Y-67440000D01*
X90000000Y-72560000D02*
X88050000Y-72560000D01*
X90000000Y-72560000D02*
X91950000Y-72560000D01*
%TD*%
M02*
