%TF.GenerationSoftware,KiCad,Pcbnew,9.0.5*%
%TF.CreationDate,2025-12-02T23:56:59+01:00*%
%TF.ProjectId,D1,44312e6b-6963-4616-945f-706362585858,rev?*%
%TF.SameCoordinates,Original*%
%TF.FileFunction,Copper,L1,Top*%
%TF.FilePolarity,Positive*%
%FSLAX46Y46*%
G04 Gerber Fmt 4.6, Leading zero omitted, Abs format (unit mm)*
G04 Created by KiCad (PCBNEW 9.0.5) date 2025-12-02 23:56:59*
%MOMM*%
%LPD*%
G01*
G04 APERTURE LIST*
G04 Aperture macros list*
%AMRoundRect*
0 Rectangle with rounded corners*
0 $1 Rounding radius*
0 $2 $3 $4 $5 $6 $7 $8 $9 X,Y pos of 4 corners*
0 Add a 4 corners polygon primitive as box body*
4,1,4,$2,$3,$4,$5,$6,$7,$8,$9,$2,$3,0*
0 Add four circle primitives for the rounded corners*
1,1,$1+$1,$2,$3*
1,1,$1+$1,$4,$5*
1,1,$1+$1,$6,$7*
1,1,$1+$1,$8,$9*
0 Add four rect primitives between the rounded corners*
20,1,$1+$1,$2,$3,$4,$5,0*
20,1,$1+$1,$4,$5,$6,$7,0*
20,1,$1+$1,$6,$7,$8,$9,0*
20,1,$1+$1,$8,$9,$2,$3,0*%
%AMHorizOval*
0 Thick line with rounded ends*
0 $1 width*
0 $2 $3 position (X,Y) of the first rounded end (center of the circle)*
0 $4 $5 position (X,Y) of the second rounded end (center of the circle)*
0 Add line between two ends*
20,1,$1,$2,$3,$4,$5,0*
0 Add two circle primitives to create the rounded ends*
1,1,$1,$2,$3*
1,1,$1,$4,$5*%
%AMRotRect*
0 Rectangle, with rotation*
0 The origin of the aperture is its center*
0 $1 length*
0 $2 width*
0 $3 Rotation angle, in degrees counterclockwise*
0 Add horizontal line*
21,1,$1,$2,0,0,$3*%
G04 Aperture macros list end*
%TA.AperFunction,SMDPad,CuDef*%
%ADD10RoundRect,0.200000X-0.053033X0.335876X-0.335876X0.053033X0.053033X-0.335876X0.335876X-0.053033X0*%
%TD*%
%TA.AperFunction,SMDPad,CuDef*%
%ADD11RoundRect,0.150000X-0.309359X-0.521491X0.521491X0.309359X0.309359X0.521491X-0.521491X-0.309359X0*%
%TD*%
%TA.AperFunction,SMDPad,CuDef*%
%ADD12RoundRect,0.250000X1.294005X0.183848X0.183848X1.294005X-1.294005X-0.183848X-0.183848X-1.294005X0*%
%TD*%
%TA.AperFunction,SMDPad,CuDef*%
%ADD13RoundRect,0.050000X-0.050000X0.375000X-0.050000X-0.375000X0.050000X-0.375000X0.050000X0.375000X0*%
%TD*%
%TA.AperFunction,SMDPad,CuDef*%
%ADD14RoundRect,0.050000X-0.375000X0.050000X-0.375000X-0.050000X0.375000X-0.050000X0.375000X0.050000X0*%
%TD*%
%TA.AperFunction,SMDPad,CuDef*%
%ADD15R,1.650000X1.650000*%
%TD*%
%TA.AperFunction,SMDPad,CuDef*%
%ADD16RoundRect,0.150000X-0.521491X0.309359X0.309359X-0.521491X0.521491X-0.309359X-0.309359X0.521491X0*%
%TD*%
%TA.AperFunction,SMDPad,CuDef*%
%ADD17RoundRect,0.200000X0.335876X0.053033X0.053033X0.335876X-0.335876X-0.053033X-0.053033X-0.335876X0*%
%TD*%
%TA.AperFunction,ComponentPad*%
%ADD18C,6.400000*%
%TD*%
%TA.AperFunction,SMDPad,CuDef*%
%ADD19RoundRect,0.150000X-0.825000X-0.150000X0.825000X-0.150000X0.825000X0.150000X-0.825000X0.150000X0*%
%TD*%
%TA.AperFunction,ComponentPad*%
%ADD20RotRect,1.700000X1.700000X320.000000*%
%TD*%
%TA.AperFunction,ComponentPad*%
%ADD21HorizOval,1.700000X0.000000X0.000000X0.000000X0.000000X0*%
%TD*%
%TA.AperFunction,ComponentPad*%
%ADD22RotRect,1.700000X1.700000X135.000000*%
%TD*%
%TA.AperFunction,ComponentPad*%
%ADD23HorizOval,1.700000X0.000000X0.000000X0.000000X0.000000X0*%
%TD*%
%TA.AperFunction,ComponentPad*%
%ADD24RotRect,1.700000X1.700000X45.000000*%
%TD*%
%TA.AperFunction,ComponentPad*%
%ADD25HorizOval,1.700000X0.000000X0.000000X0.000000X0.000000X0*%
%TD*%
%TA.AperFunction,ViaPad*%
%ADD26C,0.800000*%
%TD*%
%TA.AperFunction,ViaPad*%
%ADD27C,0.450000*%
%TD*%
%TA.AperFunction,Conductor*%
%ADD28C,0.200000*%
%TD*%
%TA.AperFunction,Conductor*%
%ADD29C,0.750000*%
%TD*%
%TA.AperFunction,Conductor*%
%ADD30C,0.300000*%
%TD*%
G04 APERTURE END LIST*
D10*
%TO.P,R5,1*%
%TO.N,UH*%
X85083363Y-73816637D03*
%TO.P,R5,2*%
%TO.N,GND*%
X83916637Y-74983363D03*
%TD*%
D11*
%TO.P,Q2,1,G*%
%TO.N,+3.3V*%
X93415336Y-63041161D03*
%TO.P,Q2,2,S*%
%TO.N,CTRL*%
X94758839Y-64384664D03*
%TO.P,Q2,3,D*%
%TO.N,Net-(J1-Pin_3)*%
X95412913Y-62387087D03*
%TD*%
D10*
%TO.P,R1,1*%
%TO.N,PWREN*%
X85583363Y-61816637D03*
%TO.P,R1,2*%
%TO.N,GND*%
X84416637Y-62983363D03*
%TD*%
D12*
%TO.P,C5,1*%
%TO.N,Vdrive*%
X84206173Y-79706173D03*
%TO.P,C5,2*%
%TO.N,GND*%
X79793827Y-75293827D03*
%TD*%
D10*
%TO.P,R6,1*%
%TO.N,VH*%
X86183363Y-74916637D03*
%TO.P,R6,2*%
%TO.N,GND*%
X85016637Y-76083363D03*
%TD*%
D13*
%TO.P,U3,1,W*%
%TO.N,W*%
X95600000Y-73950000D03*
%TO.P,U3,2,VCP*%
%TO.N,Net-(U3-VCP)*%
X95200000Y-73950000D03*
%TO.P,U3,3,UH*%
%TO.N,UH*%
X94800000Y-73950000D03*
%TO.P,U3,4,VH*%
%TO.N,VH*%
X94400000Y-73950000D03*
%TO.P,U3,5,WH*%
%TO.N,WH*%
X94000000Y-73950000D03*
D14*
%TO.P,U3,6,UL*%
%TO.N,UL*%
X93350000Y-74600000D03*
%TO.P,U3,7,WL*%
%TO.N,WL*%
X93350000Y-75000000D03*
%TO.P,U3,8,GND*%
%TO.N,GND*%
X93350000Y-75400000D03*
%TO.P,U3,9,GND*%
X93350000Y-75800000D03*
%TO.P,U3,10,VL*%
%TO.N,VL*%
X93350000Y-76200000D03*
D13*
%TO.P,U3,11,VIO*%
%TO.N,PWREN*%
X94000000Y-76850000D03*
%TO.P,U3,12,DIAG*%
%TO.N,DIAG*%
X94400000Y-76850000D03*
%TO.P,U3,13,1.8VOUT*%
%TO.N,Net-(U3-1.8VOUT)*%
X94800000Y-76850000D03*
%TO.P,U3,14,GND*%
%TO.N,GND*%
X95200000Y-76850000D03*
%TO.P,U3,15,U*%
%TO.N,U*%
X95600000Y-76850000D03*
D14*
%TO.P,U3,16,BRUV*%
%TO.N,GND*%
X96250000Y-76200000D03*
%TO.P,U3,17,V*%
%TO.N,V*%
X96250000Y-75800000D03*
%TO.P,U3,18,VS*%
%TO.N,Vdrive*%
X96250000Y-75400000D03*
%TO.P,U3,19,NC*%
%TO.N,unconnected-(U3-NC-Pad19)*%
X96250000Y-75000000D03*
%TO.P,U3,20,BRW*%
%TO.N,GND*%
X96250000Y-74600000D03*
D15*
%TO.P,U3,21,PAD*%
X94800000Y-75400000D03*
%TD*%
D16*
%TO.P,Q1,1,G*%
%TO.N,PWREN*%
X86908839Y-63365336D03*
%TO.P,Q1,2,S*%
%TO.N,GND*%
X85565336Y-64708839D03*
%TO.P,Q1,3,D*%
%TO.N,Net-(Q1-D)*%
X87562913Y-65362913D03*
%TD*%
D17*
%TO.P,R4,1*%
%TO.N,+3.3V*%
X85583363Y-66983363D03*
%TO.P,R4,2*%
%TO.N,SWCLK*%
X84416637Y-65816637D03*
%TD*%
D18*
%TO.P,H1,1,1*%
%TO.N,unconnected-(H1-Pad1)*%
X82000000Y-70000000D03*
%TD*%
%TO.P,H2,1,1*%
%TO.N,unconnected-(H2-Pad1)*%
X98000000Y-70000000D03*
%TD*%
D10*
%TO.P,R7,1*%
%TO.N,WH*%
X87283363Y-76016637D03*
%TO.P,R7,2*%
%TO.N,GND*%
X86116637Y-77183363D03*
%TD*%
D18*
%TO.P,H4,1,1*%
%TO.N,unconnected-(H4-Pad1)*%
X90000000Y-79500000D03*
%TD*%
%TO.P,H3,1,1*%
%TO.N,unconnected-(H3-Pad1)*%
X90000000Y-60500000D03*
%TD*%
D19*
%TO.P,U2,1,VDD5V*%
%TO.N,+3.3V*%
X87525000Y-68095000D03*
%TO.P,U2,2,VDD3V3*%
X87525000Y-69365000D03*
%TO.P,U2,3,OUT*%
%TO.N,unconnected-(U2-OUT-Pad3)*%
X87525000Y-70635000D03*
%TO.P,U2,4,GND*%
%TO.N,Net-(Q1-D)*%
X87525000Y-71905000D03*
%TO.P,U2,5,PGO*%
%TO.N,unconnected-(U2-PGO-Pad5)*%
X92475000Y-71905000D03*
%TO.P,U2,6,SDA*%
%TO.N,SDA*%
X92475000Y-70635000D03*
%TO.P,U2,7,SCL*%
%TO.N,SCL*%
X92475000Y-69365000D03*
%TO.P,U2,8,DIR*%
%TO.N,+3.3V*%
X92475000Y-68095000D03*
%TD*%
D20*
%TO.P,J2,1,Pin_1*%
%TO.N,GND*%
X78237853Y-66883844D03*
D21*
%TO.P,J2,2,Pin_2*%
%TO.N,+3.3V*%
X79870534Y-64938091D03*
%TO.P,J2,3,Pin_3*%
%TO.N,~{RESET}*%
X81503214Y-62992338D03*
%TO.P,J2,4,Pin_4*%
%TO.N,SWCLK*%
X83135895Y-61046585D03*
%TO.P,J2,5,Pin_5*%
%TO.N,SWDIO*%
X84768575Y-59100832D03*
%TD*%
D22*
%TO.P,J3,1,Pin_1*%
%TO.N,W*%
X100396051Y-76703949D03*
D23*
%TO.P,J3,2,Pin_2*%
%TO.N,V*%
X98600000Y-78500000D03*
%TO.P,J3,3,Pin_3*%
%TO.N,U*%
X96803949Y-80296051D03*
%TD*%
D24*
%TO.P,J1,1,Pin_1*%
%TO.N,GND*%
X100285445Y-63285445D03*
D25*
%TO.P,J1,2,Pin_2*%
%TO.N,Vdrive*%
X98489394Y-61489394D03*
%TO.P,J1,3,Pin_3*%
%TO.N,Net-(J1-Pin_3)*%
X96693343Y-59693343D03*
%TD*%
D26*
%TO.N,GND*%
X98100000Y-74400000D03*
X97150000Y-74400000D03*
X91618238Y-75101001D03*
X83500000Y-63900000D03*
X94000000Y-79000000D03*
X96350000Y-77000000D03*
D27*
%TO.N,+3.3V*%
X88200000Y-66900000D03*
X83300000Y-74100000D03*
D26*
X94600000Y-66000000D03*
D27*
X94228238Y-63571742D03*
D26*
%TO.N,Vdrive*%
X82850000Y-78350000D03*
X98300000Y-75700000D03*
X81300000Y-76800000D03*
X99000000Y-75000000D03*
X82050000Y-77550000D03*
D27*
%TO.N,Net-(U3-VCP)*%
X95550000Y-72950000D03*
%TO.N,Net-(U3-1.8VOUT)*%
X95100000Y-77800000D03*
%TO.N,CTRL*%
X86600000Y-73100000D03*
%TO.N,WL*%
X91041372Y-73968981D03*
%TO.N,WH*%
X91300000Y-73400000D03*
%TO.N,VL*%
X92400000Y-76100000D03*
%TO.N,VH*%
X92500000Y-73000000D03*
%TO.N,UL*%
X92900000Y-74100000D03*
%TO.N,UH*%
X93800000Y-72700000D03*
%TO.N,SDA*%
X88887437Y-73587437D03*
%TO.N,SCL*%
X88455032Y-73136158D03*
%TO.N,DIAG*%
X87100000Y-73600000D03*
%TO.N,PWREN*%
X93900000Y-77750000D03*
X86100000Y-69000000D03*
%TD*%
D28*
%TO.N,GND*%
X96250000Y-74600000D02*
X95797936Y-74600000D01*
X95200000Y-75197936D02*
X95200000Y-76850000D01*
X95797936Y-74600000D02*
X95200000Y-75197936D01*
%TO.N,+3.3V*%
X88100000Y-67000000D02*
X88100000Y-67520000D01*
X88100000Y-67520000D02*
X87525000Y-68095000D01*
X83300000Y-74078306D02*
X83300000Y-74100000D01*
X88200000Y-66900000D02*
X88100000Y-67000000D01*
X94600000Y-66000000D02*
X95800000Y-64800000D01*
X95800000Y-64800000D02*
X95800000Y-63845802D01*
X92475000Y-68095000D02*
X94570000Y-66000000D01*
X85583363Y-66983363D02*
X86637483Y-65929243D01*
X95354198Y-63400000D02*
X94399980Y-63400000D01*
X86100000Y-69800000D02*
X86100000Y-71278306D01*
X87237108Y-64290766D02*
X92165731Y-64290766D01*
X92165731Y-64290766D02*
X93415336Y-63041161D01*
X95800000Y-63845802D02*
X95354198Y-63400000D01*
X93415336Y-63041161D02*
X93945917Y-63571742D01*
X87525000Y-68095000D02*
X87525000Y-69365000D01*
X86637483Y-65929243D02*
X86637483Y-64890391D01*
X88200000Y-66900000D02*
X88166726Y-66900000D01*
X93945917Y-63571742D02*
X94228238Y-63571742D01*
X86535000Y-69365000D02*
X86100000Y-69800000D01*
X94399980Y-63400000D02*
X94228238Y-63571742D01*
X88166726Y-66900000D02*
X88083363Y-66983363D01*
X94570000Y-66000000D02*
X94600000Y-66000000D01*
X87525000Y-69365000D02*
X86535000Y-69365000D01*
X86637483Y-64890391D02*
X87237108Y-64290766D01*
X86100000Y-71278306D02*
X83300000Y-74078306D01*
X88083363Y-66983363D02*
X85583363Y-66983363D01*
D29*
%TO.N,Vdrive*%
X82850000Y-78350000D02*
X82050000Y-77550000D01*
X82050000Y-77550000D02*
X81300000Y-76800000D01*
D28*
X96250000Y-75400000D02*
X96850000Y-75400000D01*
D29*
X84206173Y-79706173D02*
X82850000Y-78350000D01*
D30*
%TO.N,Net-(U3-VCP)*%
X95200000Y-73950000D02*
X95200000Y-73300000D01*
X95200000Y-73300000D02*
X95550000Y-72950000D01*
%TO.N,Net-(U3-1.8VOUT)*%
X94800000Y-77500000D02*
X94800000Y-76850000D01*
X95100000Y-77800000D02*
X94800000Y-77500000D01*
D28*
%TO.N,CTRL*%
X91200000Y-69776256D02*
X91200000Y-67700000D01*
X87200000Y-72500000D02*
X88476256Y-72500000D01*
X94515336Y-64384664D02*
X94758839Y-64384664D01*
X91200000Y-67700000D02*
X94515336Y-64384664D01*
X86600000Y-73100000D02*
X87200000Y-72500000D01*
X88476256Y-72500000D02*
X91200000Y-69776256D01*
%TO.N,SWCLK*%
X83135895Y-61046585D02*
X81722666Y-61046585D01*
X80200000Y-63500000D02*
X82516637Y-65816637D01*
X80200000Y-62569251D02*
X80200000Y-63500000D01*
X82516637Y-65816637D02*
X84416637Y-65816637D01*
X81722666Y-61046585D02*
X80200000Y-62569251D01*
%TO.N,WL*%
X91172391Y-74100000D02*
X92000000Y-74100000D01*
X91041372Y-73968981D02*
X91172391Y-74100000D01*
X92000000Y-74100000D02*
X92900000Y-75000000D01*
X92900000Y-75000000D02*
X93350000Y-75000000D01*
%TO.N,WH*%
X91500000Y-73600000D02*
X94000000Y-73600000D01*
X91300000Y-73400000D02*
X90890380Y-73400000D01*
X91300000Y-73400000D02*
X91500000Y-73600000D01*
X88100000Y-75200000D02*
X87283363Y-76016637D01*
X90890380Y-73400000D02*
X89090380Y-75200000D01*
X94000000Y-73600000D02*
X94000000Y-73950000D01*
X89090380Y-75200000D02*
X88100000Y-75200000D01*
%TO.N,VL*%
X92400000Y-76100000D02*
X92500000Y-76200000D01*
X92500000Y-76200000D02*
X93350000Y-76200000D01*
%TO.N,VH*%
X94400000Y-73500000D02*
X94400000Y-73950000D01*
X86400000Y-74700000D02*
X86183363Y-74916637D01*
X92500000Y-73000000D02*
X92350000Y-72850000D01*
X94100000Y-73200000D02*
X94400000Y-73500000D01*
X92700000Y-73200000D02*
X94100000Y-73200000D01*
X90892894Y-72850000D02*
X89042894Y-74700000D01*
X92350000Y-72850000D02*
X90892894Y-72850000D01*
X89042894Y-74700000D02*
X86400000Y-74700000D01*
X92500000Y-73000000D02*
X92700000Y-73200000D01*
%TO.N,UL*%
X92900000Y-74100000D02*
X93350000Y-74550000D01*
X93350000Y-74550000D02*
X93350000Y-74600000D01*
%TO.N,UH*%
X90700000Y-72500000D02*
X93600000Y-72500000D01*
X94800000Y-73400000D02*
X94100000Y-72700000D01*
X85083363Y-73816637D02*
X85366726Y-74100000D01*
X94800000Y-73950000D02*
X94800000Y-73400000D01*
X89100000Y-74100000D02*
X90700000Y-72500000D01*
X85366726Y-74100000D02*
X89100000Y-74100000D01*
X94100000Y-72700000D02*
X93800000Y-72700000D01*
X93600000Y-72500000D02*
X93800000Y-72700000D01*
%TO.N,SDA*%
X91839874Y-70635000D02*
X88887437Y-73587437D01*
X92475000Y-70635000D02*
X91839874Y-70635000D01*
%TO.N,SCL*%
X88455032Y-73110126D02*
X92200158Y-69365000D01*
X88455032Y-73136158D02*
X88455032Y-73110126D01*
X92200158Y-69365000D02*
X92475000Y-69365000D01*
%TO.N,DIAG*%
X85326843Y-73026843D02*
X84847851Y-73026843D01*
X91450000Y-76050000D02*
X93650000Y-78250000D01*
X84847851Y-73026843D02*
X84200000Y-73674694D01*
X87600000Y-76900000D02*
X88450000Y-76050000D01*
X87100000Y-76900000D02*
X87600000Y-76900000D01*
X87100000Y-73600000D02*
X85900000Y-73600000D01*
X94107107Y-78250000D02*
X94400000Y-77957107D01*
X94400000Y-77957107D02*
X94400000Y-76850000D01*
X84200000Y-74000000D02*
X87100000Y-76900000D01*
X88450000Y-76050000D02*
X91450000Y-76050000D01*
X93650000Y-78250000D02*
X94107107Y-78250000D01*
X85900000Y-73600000D02*
X85326843Y-73026843D01*
X84200000Y-73674694D02*
X84200000Y-74000000D01*
%TO.N,Net-(Q1-D)*%
X88751000Y-71653999D02*
X88499999Y-71905000D01*
X88751000Y-66551000D02*
X88751000Y-71653999D01*
X87562913Y-65362913D02*
X88751000Y-66551000D01*
X88499999Y-71905000D02*
X87525000Y-71905000D01*
%TO.N,Net-(J1-Pin_3)*%
X96693343Y-61106657D02*
X95412913Y-62387087D01*
X96693343Y-59693343D02*
X96693343Y-61106657D01*
%TO.N,PWREN*%
X84700000Y-67200000D02*
X86100000Y-68600000D01*
X85583363Y-61816637D02*
X85583363Y-62039860D01*
X85300000Y-66100000D02*
X84700000Y-66700000D01*
X84556643Y-61816637D02*
X82800000Y-63573280D01*
X82800000Y-64300000D02*
X83400000Y-64900000D01*
X82800000Y-63573280D02*
X82800000Y-64300000D01*
X84800000Y-64900000D02*
X85300000Y-65400000D01*
X86100000Y-68600000D02*
X86100000Y-69000000D01*
X94000000Y-77650000D02*
X94000000Y-76850000D01*
X84700000Y-66700000D02*
X84700000Y-67200000D01*
X83400000Y-64900000D02*
X84800000Y-64900000D01*
X93900000Y-77750000D02*
X94000000Y-77650000D01*
X85300000Y-65400000D02*
X85300000Y-66100000D01*
X85583363Y-61816637D02*
X84556643Y-61816637D01*
X85583363Y-62039860D02*
X86908839Y-63365336D01*
%TD*%
%TA.AperFunction,Conductor*%
%TO.N,W*%
G36*
X99119308Y-73318645D02*
G01*
X99128921Y-73326370D01*
X100334383Y-74425467D01*
X102407122Y-76315317D01*
X102408300Y-76317387D01*
X102410423Y-76318469D01*
X102423323Y-76343787D01*
X102437383Y-76368494D01*
X102437119Y-76370861D01*
X102438201Y-76372985D01*
X102433754Y-76401059D01*
X102430608Y-76429303D01*
X102428630Y-76433418D01*
X102396327Y-76496817D01*
X102378121Y-76521876D01*
X100612344Y-78287654D01*
X100557827Y-78315431D01*
X100497395Y-78305860D01*
X100468591Y-78282106D01*
X100467926Y-78282716D01*
X100465308Y-78279857D01*
X100465302Y-78279849D01*
X99484799Y-77364712D01*
X98551344Y-76493486D01*
X98521705Y-76439959D01*
X98529188Y-76379233D01*
X98548885Y-76351114D01*
X99850000Y-75050000D01*
X99587954Y-74812911D01*
X99563854Y-74773472D01*
X99562062Y-74774215D01*
X99559578Y-74768219D01*
X99559577Y-74768218D01*
X99559577Y-74768216D01*
X99480520Y-74631284D01*
X99368716Y-74519480D01*
X99231784Y-74440423D01*
X99231783Y-74440422D01*
X99231780Y-74440421D01*
X99175970Y-74425467D01*
X99135176Y-74403254D01*
X98800000Y-74100000D01*
X98677351Y-74100000D01*
X98619160Y-74081093D01*
X98591615Y-74050501D01*
X98589184Y-74046292D01*
X98580520Y-74031284D01*
X98468716Y-73919480D01*
X98331784Y-73840423D01*
X98179057Y-73799500D01*
X98020943Y-73799500D01*
X97868216Y-73840423D01*
X97731281Y-73919482D01*
X97695003Y-73955760D01*
X97640486Y-73983537D01*
X97580054Y-73973965D01*
X97554997Y-73955760D01*
X97518718Y-73919482D01*
X97518716Y-73919480D01*
X97381784Y-73840423D01*
X97229057Y-73799500D01*
X97070943Y-73799500D01*
X96918216Y-73840423D01*
X96781284Y-73919480D01*
X96669479Y-74031285D01*
X96658385Y-74050501D01*
X96612915Y-74091442D01*
X96572649Y-74100000D01*
X95999999Y-74100000D01*
X95829495Y-74270504D01*
X95810911Y-74279972D01*
X95794655Y-74293045D01*
X95779961Y-74295742D01*
X95774979Y-74298281D01*
X95768146Y-74297911D01*
X95764790Y-74298527D01*
X95764807Y-74298653D01*
X95762328Y-74298979D01*
X95759492Y-74299500D01*
X95758371Y-74299500D01*
X95681948Y-74319978D01*
X95649000Y-74339001D01*
X95589152Y-74351722D01*
X95533256Y-74326835D01*
X95502663Y-74273847D01*
X95500500Y-74253264D01*
X95500500Y-74157044D01*
X95513765Y-74107542D01*
X95526614Y-74085288D01*
X95550500Y-73996144D01*
X95550500Y-73486188D01*
X95552968Y-73478590D01*
X95551719Y-73470703D01*
X95562241Y-73450049D01*
X95569407Y-73427997D01*
X95579491Y-73416190D01*
X95606608Y-73389072D01*
X95650987Y-73363450D01*
X95702798Y-73349567D01*
X95727058Y-73346204D01*
X97274415Y-73325008D01*
X97295065Y-73326899D01*
X97500441Y-73367751D01*
X97832944Y-73400500D01*
X97832947Y-73400500D01*
X98167053Y-73400500D01*
X98167056Y-73400500D01*
X98499559Y-73367751D01*
X98812072Y-73305588D01*
X98829998Y-73303698D01*
X99060864Y-73300536D01*
X99119308Y-73318645D01*
G37*
%TD.AperFunction*%
%TD*%
%TA.AperFunction,Conductor*%
%TO.N,U*%
G36*
X95748401Y-76466684D02*
G01*
X95777256Y-76485964D01*
X95777258Y-76485965D01*
X95777260Y-76485966D01*
X95777261Y-76485966D01*
X95781028Y-76487526D01*
X95781593Y-76487526D01*
X95782342Y-76488070D01*
X95786267Y-76489696D01*
X95785876Y-76490638D01*
X95801846Y-76502241D01*
X95823684Y-76514465D01*
X95826210Y-76519942D01*
X95831093Y-76523490D01*
X95838829Y-76547300D01*
X95849311Y-76570025D01*
X95850000Y-76581681D01*
X95850000Y-76638497D01*
X95836737Y-76687996D01*
X95790423Y-76768214D01*
X95780873Y-76803856D01*
X95749500Y-76920943D01*
X95749500Y-77079057D01*
X95790423Y-77231784D01*
X95836737Y-77312003D01*
X95850000Y-77361502D01*
X95850000Y-77700000D01*
X96520493Y-78333921D01*
X96549788Y-78387638D01*
X96548773Y-78423279D01*
X96549489Y-78423373D01*
X96540833Y-78489548D01*
X96539348Y-78526363D01*
X96539348Y-78526364D01*
X96564083Y-78614414D01*
X96593321Y-78668158D01*
X96631457Y-78717769D01*
X96632506Y-78719134D01*
X97600964Y-79636620D01*
X98380798Y-80375410D01*
X98410038Y-80429156D01*
X98402103Y-80489824D01*
X98382715Y-80517283D01*
X96870003Y-82029995D01*
X96815486Y-82057772D01*
X96755054Y-82048201D01*
X96729995Y-82029995D01*
X95028996Y-80328996D01*
X95001219Y-80274479D01*
X95000000Y-80258992D01*
X95000000Y-78324500D01*
X95018907Y-78266309D01*
X95068407Y-78230345D01*
X95099000Y-78225500D01*
X95156016Y-78225500D01*
X95156018Y-78225500D01*
X95264237Y-78196503D01*
X95264239Y-78196501D01*
X95264241Y-78196501D01*
X95293064Y-78179859D01*
X95361263Y-78140485D01*
X95440485Y-78061263D01*
X95496503Y-77964237D01*
X95525500Y-77856018D01*
X95525500Y-77743982D01*
X95496503Y-77635763D01*
X95496501Y-77635760D01*
X95496501Y-77635758D01*
X95440486Y-77538739D01*
X95440485Y-77538737D01*
X95438681Y-77536933D01*
X95437851Y-77535304D01*
X95436534Y-77533587D01*
X95436852Y-77533342D01*
X95410906Y-77482419D01*
X95420477Y-77421987D01*
X95426371Y-77411931D01*
X95430600Y-77405601D01*
X95430601Y-77405601D01*
X95485966Y-77322740D01*
X95500500Y-77249674D01*
X95500500Y-76549000D01*
X95505345Y-76534088D01*
X95505345Y-76518407D01*
X95514561Y-76505721D01*
X95519407Y-76490809D01*
X95532092Y-76481592D01*
X95541309Y-76468907D01*
X95556221Y-76464061D01*
X95568907Y-76454845D01*
X95599500Y-76450000D01*
X95693401Y-76450000D01*
X95748401Y-76466684D01*
G37*
%TD.AperFunction*%
%TD*%
%TA.AperFunction,Conductor*%
%TO.N,V*%
G36*
X97419169Y-75718907D02*
G01*
X97428526Y-75726624D01*
X97665832Y-75948110D01*
X100325086Y-78430081D01*
X100354725Y-78483607D01*
X100347242Y-78544333D01*
X100327540Y-78572459D01*
X98668137Y-80231862D01*
X98613620Y-80259639D01*
X98553188Y-80250068D01*
X98530046Y-80233727D01*
X96773837Y-78569951D01*
X96744597Y-78516205D01*
X96752532Y-78455537D01*
X96771918Y-78428081D01*
X96900000Y-78300000D01*
X96900000Y-77274596D01*
X96907537Y-77236708D01*
X96909576Y-77231785D01*
X96909577Y-77231784D01*
X96950500Y-77079057D01*
X96950500Y-76920943D01*
X96909577Y-76768216D01*
X96909575Y-76768212D01*
X96907533Y-76763281D01*
X96900000Y-76725402D01*
X96900000Y-75950001D01*
X96900000Y-75950000D01*
X96899999Y-75950000D01*
X96806599Y-75950000D01*
X96800782Y-75948110D01*
X96794784Y-75949292D01*
X96751598Y-75933316D01*
X96722742Y-75914035D01*
X96722740Y-75914034D01*
X96722737Y-75914033D01*
X96722736Y-75914033D01*
X96649684Y-75899501D01*
X96649674Y-75899500D01*
X95924500Y-75899500D01*
X95866309Y-75880593D01*
X95830345Y-75831093D01*
X95825500Y-75800500D01*
X95825500Y-75799500D01*
X95844407Y-75741309D01*
X95893907Y-75705345D01*
X95924500Y-75700500D01*
X96892221Y-75700500D01*
X96899849Y-75700000D01*
X97360978Y-75700000D01*
X97419169Y-75718907D01*
G37*
%TD.AperFunction*%
%TD*%
%TA.AperFunction,Conductor*%
%TO.N,Vdrive*%
G36*
X98960791Y-74525203D02*
G01*
X98976496Y-74536815D01*
X98997303Y-74555640D01*
X99036902Y-74583733D01*
X99077696Y-74605946D01*
X99122783Y-74623965D01*
X99139870Y-74628543D01*
X99163744Y-74638431D01*
X99231248Y-74677404D01*
X99251753Y-74693137D01*
X99306861Y-74748245D01*
X99322593Y-74768749D01*
X99394839Y-74893882D01*
X99395287Y-74894173D01*
X99395785Y-74894792D01*
X99397793Y-74897309D01*
X99404877Y-74907424D01*
X99412601Y-74920064D01*
X99412603Y-74920066D01*
X99412604Y-74920068D01*
X99450080Y-74965296D01*
X99450081Y-74965297D01*
X99474756Y-74987622D01*
X99505222Y-75040683D01*
X99498680Y-75101518D01*
X99478340Y-75131038D01*
X98403567Y-76205812D01*
X98400175Y-76209854D01*
X98348280Y-76242268D01*
X98287245Y-76237988D01*
X98256798Y-76218578D01*
X98243120Y-76205812D01*
X97988503Y-75968169D01*
X97568734Y-75576384D01*
X97559273Y-75568082D01*
X97549924Y-75560372D01*
X97549921Y-75560370D01*
X97549920Y-75560369D01*
X97482671Y-75523464D01*
X97424480Y-75504557D01*
X97424477Y-75504556D01*
X97424478Y-75504556D01*
X97360981Y-75494500D01*
X97360978Y-75494500D01*
X96899849Y-75494500D01*
X96886192Y-75494947D01*
X96882953Y-75495000D01*
X96677022Y-75495000D01*
X96618831Y-75476093D01*
X96582867Y-75426593D01*
X96582867Y-75365407D01*
X96618831Y-75315907D01*
X96657707Y-75298903D01*
X96692088Y-75292063D01*
X96722740Y-75285966D01*
X96805601Y-75230601D01*
X96860966Y-75147740D01*
X96860965Y-75147740D01*
X96863466Y-75143999D01*
X96911516Y-75106119D01*
X96945782Y-75100000D01*
X98199999Y-75100000D01*
X98200000Y-75100000D01*
X98408863Y-74917244D01*
X98424539Y-74906025D01*
X98468716Y-74880520D01*
X98526913Y-74822322D01*
X98585112Y-74764125D01*
X98585201Y-74764214D01*
X98591796Y-74757177D01*
X98844889Y-74535721D01*
X98901130Y-74511633D01*
X98960791Y-74525203D01*
G37*
%TD.AperFunction*%
%TD*%
%TA.AperFunction,Conductor*%
%TO.N,GND*%
G36*
X90293403Y-56005332D02*
G01*
X90442092Y-56009291D01*
X90444514Y-56009387D01*
X91025700Y-56039846D01*
X91028192Y-56040011D01*
X91176013Y-56051843D01*
X91178242Y-56052049D01*
X91757830Y-56112966D01*
X91760501Y-56113285D01*
X91906414Y-56132825D01*
X91908608Y-56133145D01*
X92485275Y-56224480D01*
X92488057Y-56224962D01*
X92631327Y-56251976D01*
X92633275Y-56252367D01*
X93206124Y-56374129D01*
X93208927Y-56374770D01*
X93348441Y-56408854D01*
X93350523Y-56409387D01*
X93918227Y-56561503D01*
X93921030Y-56562301D01*
X94056163Y-56603047D01*
X94058030Y-56603632D01*
X94615000Y-56784602D01*
X94619568Y-56786087D01*
X94622560Y-56787112D01*
X94752265Y-56833886D01*
X94754008Y-56834536D01*
X95308352Y-57047329D01*
X95311330Y-57048528D01*
X95434726Y-57100605D01*
X95436371Y-57101318D01*
X95982551Y-57344494D01*
X95985555Y-57345892D01*
X96101836Y-57402436D01*
X96103331Y-57403180D01*
X96640269Y-57676764D01*
X96643287Y-57678368D01*
X96751660Y-57738398D01*
X96753023Y-57739169D01*
X97279775Y-58043289D01*
X97282658Y-58045023D01*
X97382312Y-58107376D01*
X97383709Y-58108266D01*
X97899036Y-58442924D01*
X97902008Y-58444931D01*
X97992134Y-58508237D01*
X97993413Y-58509150D01*
X98386043Y-58794413D01*
X98496574Y-58874718D01*
X98499511Y-58876938D01*
X98499516Y-58876942D01*
X98499518Y-58876943D01*
X98579429Y-58939682D01*
X98580597Y-58940613D01*
X99070577Y-59337391D01*
X99073467Y-59339824D01*
X99142559Y-59400281D01*
X99143610Y-59401214D01*
X99362640Y-59598429D01*
X99553730Y-59770487D01*
X99619518Y-59829722D01*
X99622340Y-59832364D01*
X99679819Y-59888333D01*
X99680757Y-59889258D01*
X100141856Y-60350357D01*
X100144570Y-60353182D01*
X100189926Y-60402314D01*
X100190679Y-60403140D01*
X100636088Y-60897818D01*
X100638696Y-60900835D01*
X100659259Y-60925637D01*
X100671147Y-60939977D01*
X100671869Y-60940859D01*
X100719404Y-60999559D01*
X101100847Y-61470602D01*
X101103357Y-61473837D01*
X101122384Y-61499448D01*
X101122980Y-61500258D01*
X101525122Y-62053759D01*
X101534811Y-62067094D01*
X101537221Y-62070565D01*
X101542405Y-62078381D01*
X101542930Y-62079182D01*
X101935114Y-62683092D01*
X101937823Y-62687511D01*
X102301705Y-63317773D01*
X102304178Y-63322328D01*
X102634568Y-63970754D01*
X102636799Y-63975432D01*
X102932802Y-64640265D01*
X102934785Y-64645054D01*
X103195573Y-65324431D01*
X103197304Y-65329316D01*
X103422196Y-66021464D01*
X103423668Y-66026434D01*
X103612021Y-66729377D01*
X103613231Y-66734417D01*
X103764539Y-67446267D01*
X103765483Y-67451363D01*
X103879325Y-68170130D01*
X103880002Y-68175269D01*
X103956074Y-68899046D01*
X103956480Y-68904213D01*
X103994567Y-69630940D01*
X103994703Y-69636121D01*
X103994703Y-70363878D01*
X103994567Y-70369059D01*
X103956480Y-71095786D01*
X103956074Y-71100953D01*
X103880002Y-71824730D01*
X103879325Y-71829869D01*
X103765483Y-72548636D01*
X103764539Y-72553732D01*
X103613231Y-73265582D01*
X103612021Y-73270622D01*
X103423668Y-73973565D01*
X103422196Y-73978535D01*
X103197304Y-74670683D01*
X103195573Y-74675568D01*
X102934785Y-75354945D01*
X102932802Y-75359734D01*
X102636796Y-76024574D01*
X102634563Y-76029254D01*
X102618597Y-76060587D01*
X102575332Y-76103851D01*
X102514899Y-76113421D01*
X102463687Y-76088797D01*
X102426938Y-76055291D01*
X100326538Y-74140220D01*
X99368343Y-73266572D01*
X99338082Y-73213394D01*
X99344857Y-73152585D01*
X99386081Y-73107371D01*
X99397142Y-73101958D01*
X99455654Y-73077723D01*
X99599640Y-73000760D01*
X99750312Y-72920226D01*
X99759968Y-72913774D01*
X100028118Y-72734601D01*
X100286390Y-72522643D01*
X100522643Y-72286390D01*
X100734601Y-72028118D01*
X100920224Y-71750315D01*
X100920227Y-71750311D01*
X101028087Y-71548517D01*
X101077723Y-71455654D01*
X101205582Y-71146976D01*
X101207594Y-71140345D01*
X101284628Y-70886395D01*
X101302569Y-70827251D01*
X101367751Y-70499559D01*
X101400500Y-70167056D01*
X101400500Y-69832944D01*
X101367751Y-69500441D01*
X101302569Y-69172749D01*
X101267159Y-69056016D01*
X101205585Y-68853032D01*
X101198431Y-68835759D01*
X101077723Y-68544346D01*
X101072299Y-68534198D01*
X100920226Y-68249687D01*
X100827412Y-68110783D01*
X100734601Y-67971882D01*
X100522643Y-67713610D01*
X100286390Y-67477357D01*
X100028118Y-67265399D01*
X99958667Y-67218993D01*
X99750312Y-67079773D01*
X99455672Y-66922286D01*
X99455660Y-66922280D01*
X99455654Y-66922277D01*
X99455649Y-66922274D01*
X99455645Y-66922273D01*
X99146967Y-66794414D01*
X98827253Y-66697431D01*
X98548324Y-66641949D01*
X98499559Y-66632249D01*
X98499557Y-66632248D01*
X98256491Y-66608308D01*
X98167056Y-66599500D01*
X97832944Y-66599500D01*
X97734700Y-66609176D01*
X97500444Y-66632248D01*
X97172746Y-66697431D01*
X96853032Y-66794414D01*
X96544354Y-66922273D01*
X96544327Y-66922286D01*
X96249687Y-67079773D01*
X95971880Y-67265400D01*
X95713615Y-67477352D01*
X95477352Y-67713615D01*
X95265400Y-67971880D01*
X95079773Y-68249687D01*
X94922286Y-68544327D01*
X94922273Y-68544354D01*
X94794414Y-68853032D01*
X94697431Y-69172746D01*
X94632248Y-69500444D01*
X94615650Y-69668968D01*
X94599500Y-69832944D01*
X94599500Y-70167056D01*
X94600463Y-70176835D01*
X94632248Y-70499555D01*
X94697431Y-70827253D01*
X94794414Y-71146967D01*
X94922273Y-71455645D01*
X94922286Y-71455672D01*
X95079773Y-71750312D01*
X95218993Y-71958667D01*
X95265399Y-72028118D01*
X95477357Y-72286390D01*
X95547748Y-72356781D01*
X95575524Y-72411296D01*
X95565953Y-72471728D01*
X95522688Y-72514993D01*
X95500037Y-72522028D01*
X95500250Y-72522821D01*
X95493984Y-72524500D01*
X95493982Y-72524500D01*
X95432394Y-72541002D01*
X95385758Y-72553498D01*
X95288739Y-72609513D01*
X95209513Y-72688739D01*
X95153498Y-72785759D01*
X95153497Y-72785762D01*
X95136548Y-72849012D01*
X95110926Y-72893391D01*
X94984648Y-73019669D01*
X94930131Y-73047446D01*
X94869699Y-73037875D01*
X94844640Y-73019669D01*
X94571792Y-72746821D01*
X94284511Y-72459540D01*
X94275066Y-72454087D01*
X94215989Y-72419979D01*
X94215988Y-72419978D01*
X94215987Y-72419978D01*
X94139564Y-72399500D01*
X94133129Y-72398653D01*
X94133396Y-72396621D01*
X94084064Y-72380593D01*
X94072257Y-72370509D01*
X94061263Y-72359515D01*
X94061260Y-72359513D01*
X93964240Y-72303498D01*
X93964242Y-72303498D01*
X93900392Y-72286390D01*
X93856018Y-72274500D01*
X93856016Y-72274500D01*
X93836949Y-72274500D01*
X93789450Y-72262361D01*
X93784776Y-72259805D01*
X93784511Y-72259540D01*
X93715989Y-72219979D01*
X93708061Y-72217854D01*
X93697649Y-72212161D01*
X93684403Y-72198118D01*
X93668211Y-72187604D01*
X93663906Y-72176389D01*
X93655665Y-72167653D01*
X93653202Y-72148505D01*
X93646284Y-72130483D01*
X93647183Y-72111025D01*
X93650500Y-72088260D01*
X93650500Y-71721740D01*
X93640573Y-71653607D01*
X93589198Y-71548517D01*
X93506483Y-71465802D01*
X93485725Y-71455654D01*
X93401395Y-71414427D01*
X93374139Y-71410456D01*
X93333260Y-71404500D01*
X91734353Y-71404500D01*
X91712305Y-71397336D01*
X91689408Y-71393710D01*
X91683759Y-71388061D01*
X91676162Y-71385593D01*
X91662534Y-71366836D01*
X91646143Y-71350445D01*
X91644893Y-71342555D01*
X91640198Y-71336093D01*
X91640198Y-71312907D01*
X91636572Y-71290013D01*
X91640198Y-71282896D01*
X91640198Y-71274907D01*
X91664349Y-71235496D01*
X91735349Y-71164496D01*
X91789866Y-71136719D01*
X91805353Y-71135500D01*
X93333257Y-71135500D01*
X93333260Y-71135500D01*
X93401393Y-71125573D01*
X93506483Y-71074198D01*
X93589198Y-70991483D01*
X93640573Y-70886393D01*
X93650500Y-70818260D01*
X93650500Y-70451740D01*
X93640573Y-70383607D01*
X93632192Y-70366464D01*
X93589198Y-70278518D01*
X93589198Y-70278517D01*
X93506483Y-70195802D01*
X93506481Y-70195801D01*
X93401395Y-70144427D01*
X93374139Y-70140456D01*
X93333260Y-70134500D01*
X93333257Y-70134500D01*
X92094637Y-70134500D01*
X92072589Y-70127336D01*
X92049692Y-70123710D01*
X92044043Y-70118061D01*
X92036446Y-70115593D01*
X92022818Y-70096836D01*
X92006427Y-70080445D01*
X92005177Y-70072555D01*
X92000482Y-70066093D01*
X92000482Y-70042907D01*
X91996856Y-70020013D01*
X92000482Y-70012896D01*
X92000482Y-70004907D01*
X92024633Y-69965496D01*
X92095633Y-69894496D01*
X92150150Y-69866719D01*
X92165637Y-69865500D01*
X93333257Y-69865500D01*
X93333260Y-69865500D01*
X93401393Y-69855573D01*
X93506483Y-69804198D01*
X93589198Y-69721483D01*
X93640573Y-69616393D01*
X93650500Y-69548260D01*
X93650500Y-69181740D01*
X93640573Y-69113607D01*
X93589198Y-69008517D01*
X93506483Y-68925802D01*
X93506481Y-68925801D01*
X93401395Y-68874427D01*
X93370377Y-68869908D01*
X93333260Y-68864500D01*
X91616740Y-68864500D01*
X91616734Y-68864500D01*
X91613764Y-68864933D01*
X91591500Y-68861121D01*
X91568907Y-68861121D01*
X91561940Y-68856059D01*
X91553456Y-68854607D01*
X91537685Y-68838437D01*
X91519407Y-68825157D01*
X91516746Y-68816967D01*
X91510736Y-68810805D01*
X91500500Y-68766966D01*
X91500500Y-68693033D01*
X91519407Y-68634842D01*
X91568907Y-68598878D01*
X91613776Y-68595068D01*
X91616740Y-68595500D01*
X91616743Y-68595500D01*
X93333257Y-68595500D01*
X93333260Y-68595500D01*
X93401393Y-68585573D01*
X93506483Y-68534198D01*
X93589198Y-68451483D01*
X93640573Y-68346393D01*
X93650500Y-68278260D01*
X93650500Y-67911740D01*
X93640573Y-67843607D01*
X93589198Y-67738517D01*
X93506483Y-67655802D01*
X93506481Y-67655801D01*
X93506480Y-67655800D01*
X93503995Y-67654026D01*
X93501979Y-67651299D01*
X93500682Y-67650002D01*
X93500876Y-67649807D01*
X93467623Y-67604825D01*
X93467118Y-67543642D01*
X93491516Y-67503453D01*
X94380782Y-66614187D01*
X94435297Y-66586412D01*
X94476404Y-66588565D01*
X94520943Y-66600500D01*
X94520945Y-66600500D01*
X94679055Y-66600500D01*
X94679057Y-66600500D01*
X94831784Y-66559577D01*
X94968716Y-66480520D01*
X95080520Y-66368716D01*
X95159577Y-66231784D01*
X95200500Y-66079057D01*
X95200500Y-65920943D01*
X95194906Y-65900065D01*
X95198109Y-65838965D01*
X95220527Y-65804442D01*
X96040460Y-64984511D01*
X96066411Y-64939562D01*
X96080021Y-64915989D01*
X96100500Y-64839562D01*
X96100500Y-63806240D01*
X96080021Y-63729813D01*
X96079012Y-63728066D01*
X96040460Y-63661291D01*
X95984512Y-63605342D01*
X95538709Y-63159540D01*
X95529711Y-63154345D01*
X95488770Y-63108877D01*
X95482374Y-63048026D01*
X95509205Y-62998607D01*
X96205764Y-62302050D01*
X96246921Y-62246854D01*
X96284904Y-62136216D01*
X96284904Y-62019239D01*
X96284737Y-62018752D01*
X96284727Y-62018179D01*
X96283554Y-62011148D01*
X96284608Y-62010972D01*
X96283724Y-61957575D01*
X96308366Y-61916603D01*
X96839045Y-61385926D01*
X97438894Y-61385926D01*
X97438894Y-61592861D01*
X97479263Y-61795812D01*
X97558452Y-61986991D01*
X97664787Y-62146133D01*
X97673417Y-62159049D01*
X97819739Y-62305371D01*
X97991796Y-62420335D01*
X98182974Y-62499524D01*
X98385929Y-62539894D01*
X98385930Y-62539894D01*
X98592858Y-62539894D01*
X98592859Y-62539894D01*
X98795814Y-62499524D01*
X98986992Y-62420335D01*
X99159049Y-62305371D01*
X99305371Y-62159049D01*
X99420335Y-61986992D01*
X99499524Y-61795814D01*
X99539894Y-61592859D01*
X99539894Y-61385929D01*
X99499524Y-61182974D01*
X99420335Y-60991796D01*
X99305371Y-60819739D01*
X99159049Y-60673417D01*
X99159045Y-60673414D01*
X98986991Y-60558452D01*
X98795812Y-60479263D01*
X98592861Y-60438894D01*
X98592859Y-60438894D01*
X98385929Y-60438894D01*
X98385926Y-60438894D01*
X98182975Y-60479263D01*
X97991796Y-60558452D01*
X97819742Y-60673414D01*
X97673414Y-60819742D01*
X97558452Y-60991796D01*
X97479263Y-61182975D01*
X97438894Y-61385926D01*
X96839045Y-61385926D01*
X96933803Y-61291168D01*
X96936183Y-61287045D01*
X96973364Y-61222646D01*
X96993843Y-61146219D01*
X96993843Y-60772074D01*
X97012750Y-60713883D01*
X97054957Y-60680610D01*
X97190941Y-60624284D01*
X97362998Y-60509320D01*
X97509320Y-60362998D01*
X97624284Y-60190941D01*
X97703473Y-59999763D01*
X97743843Y-59796808D01*
X97743843Y-59589878D01*
X97703473Y-59386923D01*
X97624284Y-59195745D01*
X97509320Y-59023688D01*
X97362998Y-58877366D01*
X97362365Y-58876943D01*
X97190940Y-58762401D01*
X96999761Y-58683212D01*
X96796810Y-58642843D01*
X96796808Y-58642843D01*
X96589878Y-58642843D01*
X96589875Y-58642843D01*
X96386924Y-58683212D01*
X96195745Y-58762401D01*
X96023691Y-58877363D01*
X95877363Y-59023691D01*
X95762401Y-59195745D01*
X95683212Y-59386924D01*
X95642843Y-59589875D01*
X95642843Y-59796810D01*
X95683212Y-59999761D01*
X95762401Y-60190940D01*
X95870807Y-60353182D01*
X95877366Y-60362998D01*
X96023688Y-60509320D01*
X96195745Y-60624284D01*
X96331728Y-60680610D01*
X96352172Y-60698070D01*
X96373936Y-60713883D01*
X96375184Y-60717724D01*
X96378254Y-60720346D01*
X96392843Y-60772074D01*
X96392843Y-60941177D01*
X96373936Y-60999368D01*
X96363846Y-61011181D01*
X95883395Y-61491631D01*
X95828879Y-61519408D01*
X95788935Y-61515932D01*
X95788850Y-61516446D01*
X95782322Y-61515356D01*
X95781248Y-61515263D01*
X95780761Y-61515096D01*
X95663784Y-61515096D01*
X95604846Y-61535330D01*
X95553145Y-61553079D01*
X95553141Y-61553081D01*
X95497955Y-61594231D01*
X94620057Y-62472129D01*
X94578907Y-62527315D01*
X94578905Y-62527319D01*
X94574588Y-62539894D01*
X94540922Y-62637958D01*
X94540922Y-62754935D01*
X94578905Y-62865572D01*
X94620062Y-62920769D01*
X94629791Y-62930498D01*
X94657567Y-62985013D01*
X94647996Y-63045445D01*
X94604731Y-63088710D01*
X94559786Y-63099500D01*
X94360418Y-63099500D01*
X94312029Y-63112465D01*
X94250929Y-63109264D01*
X94203379Y-63070759D01*
X94187543Y-63011658D01*
X94207042Y-62957660D01*
X94249341Y-62900932D01*
X94249340Y-62900932D01*
X94249344Y-62900928D01*
X94287327Y-62790290D01*
X94287327Y-62673313D01*
X94249344Y-62562676D01*
X94208187Y-62507479D01*
X93949018Y-62248310D01*
X93893821Y-62207153D01*
X93783184Y-62169170D01*
X93666207Y-62169170D01*
X93595591Y-62193413D01*
X93555568Y-62207153D01*
X93555564Y-62207155D01*
X93500378Y-62248305D01*
X92622480Y-63126203D01*
X92581330Y-63181389D01*
X92581328Y-63181393D01*
X92581328Y-63181394D01*
X92543345Y-63292032D01*
X92543345Y-63292034D01*
X92543345Y-63409009D01*
X92543512Y-63409496D01*
X92543521Y-63410066D01*
X92544695Y-63417098D01*
X92543640Y-63417273D01*
X92544523Y-63470673D01*
X92519880Y-63511643D01*
X92070256Y-63961269D01*
X92015739Y-63989047D01*
X92000252Y-63990266D01*
X90875902Y-63990266D01*
X90817711Y-63971359D01*
X90781747Y-63921859D01*
X90781747Y-63860673D01*
X90817711Y-63811173D01*
X90847164Y-63796529D01*
X91146967Y-63705585D01*
X91146969Y-63705583D01*
X91146976Y-63705582D01*
X91455654Y-63577723D01*
X91661033Y-63467946D01*
X91750312Y-63420226D01*
X91765517Y-63410066D01*
X92028118Y-63234601D01*
X92286390Y-63022643D01*
X92522643Y-62786390D01*
X92734601Y-62528118D01*
X92920224Y-62250315D01*
X92921299Y-62248305D01*
X93043737Y-62019238D01*
X93077723Y-61955654D01*
X93205582Y-61646976D01*
X93217175Y-61608761D01*
X93284770Y-61385926D01*
X93302569Y-61327251D01*
X93367751Y-60999559D01*
X93400500Y-60667056D01*
X93400500Y-60332944D01*
X93367751Y-60000441D01*
X93302569Y-59672749D01*
X93277431Y-59589879D01*
X93205585Y-59353032D01*
X93199107Y-59337391D01*
X93077723Y-59044346D01*
X93052613Y-58997368D01*
X92920226Y-58749687D01*
X92822368Y-58603234D01*
X92734601Y-58471882D01*
X92522643Y-58213610D01*
X92286390Y-57977357D01*
X92028118Y-57765399D01*
X91895467Y-57676764D01*
X91750312Y-57579773D01*
X91455672Y-57422286D01*
X91455660Y-57422280D01*
X91455654Y-57422277D01*
X91455649Y-57422274D01*
X91455645Y-57422273D01*
X91146967Y-57294414D01*
X90827253Y-57197431D01*
X90606777Y-57153576D01*
X90499559Y-57132249D01*
X90499557Y-57132248D01*
X90256491Y-57108308D01*
X90167056Y-57099500D01*
X89832944Y-57099500D01*
X89734700Y-57109176D01*
X89500444Y-57132248D01*
X89172746Y-57197431D01*
X88853032Y-57294414D01*
X88544354Y-57422273D01*
X88544327Y-57422286D01*
X88249687Y-57579773D01*
X87971880Y-57765400D01*
X87713615Y-57977352D01*
X87477352Y-58213615D01*
X87265400Y-58471880D01*
X87079773Y-58749687D01*
X86922286Y-59044327D01*
X86922273Y-59044354D01*
X86794414Y-59353032D01*
X86697431Y-59672746D01*
X86632248Y-60000444D01*
X86620902Y-60115643D01*
X86599500Y-60332944D01*
X86599500Y-60667056D01*
X86604749Y-60720346D01*
X86632248Y-60999555D01*
X86697431Y-61327253D01*
X86794414Y-61646967D01*
X86922273Y-61955645D01*
X86922286Y-61955672D01*
X87079773Y-62250312D01*
X87132212Y-62328791D01*
X87265399Y-62528118D01*
X87477357Y-62786390D01*
X87713610Y-63022643D01*
X87971882Y-63234601D01*
X88094693Y-63316661D01*
X88249687Y-63420226D01*
X88472955Y-63539564D01*
X88544346Y-63577723D01*
X88853024Y-63705582D01*
X88853026Y-63705582D01*
X88853032Y-63705585D01*
X89152836Y-63796529D01*
X89203033Y-63831514D01*
X89223079Y-63889322D01*
X89205318Y-63947873D01*
X89156534Y-63984802D01*
X89124098Y-63990266D01*
X87829748Y-63990266D01*
X87771557Y-63971359D01*
X87735593Y-63921859D01*
X87735593Y-63860673D01*
X87742201Y-63845044D01*
X87742843Y-63843825D01*
X87742847Y-63843821D01*
X87780830Y-63733184D01*
X87780830Y-63616207D01*
X87742847Y-63505569D01*
X87742845Y-63505566D01*
X87742844Y-63505564D01*
X87701694Y-63450378D01*
X87701692Y-63450376D01*
X87701690Y-63450373D01*
X86823802Y-62572485D01*
X86823798Y-62572482D01*
X86823796Y-62572480D01*
X86768610Y-62531330D01*
X86768606Y-62531328D01*
X86756917Y-62527315D01*
X86657968Y-62493345D01*
X86540991Y-62493345D01*
X86540990Y-62493345D01*
X86540495Y-62493515D01*
X86539914Y-62493524D01*
X86532902Y-62494695D01*
X86532726Y-62493642D01*
X86479317Y-62494521D01*
X86438354Y-62469880D01*
X86231542Y-62263068D01*
X86203765Y-62208551D01*
X86213336Y-62148119D01*
X86222789Y-62133982D01*
X86222435Y-62133725D01*
X86224721Y-62130579D01*
X86280535Y-62053760D01*
X86319738Y-61933103D01*
X86319738Y-61806237D01*
X86280535Y-61685580D01*
X86252487Y-61646976D01*
X86224723Y-61608762D01*
X85791239Y-61175279D01*
X85714419Y-61119464D01*
X85652939Y-61099489D01*
X85593763Y-61080262D01*
X85466897Y-61080262D01*
X85426678Y-61093329D01*
X85346238Y-61119465D01*
X85269422Y-61175276D01*
X84957560Y-61487140D01*
X84903043Y-61514918D01*
X84887556Y-61516137D01*
X84517078Y-61516137D01*
X84440655Y-61536615D01*
X84394415Y-61563312D01*
X84394414Y-61563311D01*
X84372134Y-61576175D01*
X82710295Y-63238013D01*
X82655778Y-63265790D01*
X82595346Y-63256219D01*
X82552081Y-63212954D01*
X82542510Y-63152522D01*
X82543193Y-63148695D01*
X82548905Y-63119979D01*
X82553714Y-63095803D01*
X82553714Y-62888873D01*
X82513344Y-62685918D01*
X82434155Y-62494740D01*
X82319191Y-62322683D01*
X82172869Y-62176361D01*
X82130602Y-62148119D01*
X82000811Y-62061396D01*
X81809632Y-61982207D01*
X81606681Y-61941838D01*
X81606679Y-61941838D01*
X81491391Y-61941838D01*
X81433200Y-61922931D01*
X81397236Y-61873431D01*
X81397236Y-61812245D01*
X81421388Y-61772834D01*
X81818142Y-61376081D01*
X81825258Y-61372455D01*
X81829954Y-61365992D01*
X81852003Y-61358827D01*
X81872658Y-61348304D01*
X81888145Y-61347085D01*
X82057163Y-61347085D01*
X82115354Y-61365992D01*
X82148627Y-61408199D01*
X82204953Y-61544182D01*
X82319915Y-61716236D01*
X82319918Y-61716240D01*
X82466240Y-61862562D01*
X82638297Y-61977526D01*
X82829475Y-62056715D01*
X83032430Y-62097085D01*
X83032431Y-62097085D01*
X83239359Y-62097085D01*
X83239360Y-62097085D01*
X83442315Y-62056715D01*
X83633493Y-61977526D01*
X83805550Y-61862562D01*
X83951872Y-61716240D01*
X84066836Y-61544183D01*
X84146025Y-61353005D01*
X84186395Y-61150050D01*
X84186395Y-60943120D01*
X84146025Y-60740165D01*
X84066836Y-60548987D01*
X83951872Y-60376930D01*
X83805550Y-60230608D01*
X83746184Y-60190941D01*
X83633492Y-60115643D01*
X83442313Y-60036454D01*
X83239362Y-59996085D01*
X83239360Y-59996085D01*
X83032430Y-59996085D01*
X83032427Y-59996085D01*
X82829476Y-60036454D01*
X82638297Y-60115643D01*
X82466243Y-60230605D01*
X82319915Y-60376933D01*
X82204953Y-60548987D01*
X82148627Y-60684971D01*
X82108890Y-60731497D01*
X82057163Y-60746085D01*
X81683101Y-60746085D01*
X81606677Y-60766563D01*
X81606673Y-60766565D01*
X81538157Y-60806123D01*
X80015489Y-62328791D01*
X80015488Y-62328790D01*
X79959539Y-62384740D01*
X79919980Y-62453258D01*
X79919978Y-62453262D01*
X79899500Y-62529686D01*
X79899500Y-63539564D01*
X79919978Y-63615988D01*
X79933608Y-63639595D01*
X79936935Y-63645357D01*
X79959540Y-63684511D01*
X79998091Y-63723062D01*
X80001957Y-63728066D01*
X80010236Y-63751205D01*
X80021394Y-63773104D01*
X80020374Y-63779539D01*
X80022570Y-63785675D01*
X80015667Y-63809260D01*
X80011823Y-63833536D01*
X80007214Y-63838144D01*
X80005385Y-63844397D01*
X79985937Y-63859421D01*
X79968558Y-63876801D01*
X79961135Y-63878582D01*
X79956966Y-63881804D01*
X79946424Y-63882114D01*
X79923613Y-63887591D01*
X79767066Y-63887591D01*
X79564115Y-63927960D01*
X79372936Y-64007149D01*
X79200882Y-64122111D01*
X79054554Y-64268439D01*
X78939592Y-64440493D01*
X78860403Y-64631672D01*
X78820034Y-64834623D01*
X78820034Y-65041558D01*
X78860403Y-65244509D01*
X78939592Y-65435688D01*
X78993346Y-65516137D01*
X79054557Y-65607746D01*
X79200879Y-65754068D01*
X79372936Y-65869032D01*
X79564114Y-65948221D01*
X79767069Y-65988591D01*
X79767070Y-65988591D01*
X79973998Y-65988591D01*
X79973999Y-65988591D01*
X80176954Y-65948221D01*
X80368132Y-65869032D01*
X80540189Y-65754068D01*
X80686511Y-65607746D01*
X80801475Y-65435689D01*
X80880664Y-65244511D01*
X80921034Y-65041556D01*
X80921034Y-64885013D01*
X80939941Y-64826822D01*
X80989441Y-64790858D01*
X81050627Y-64790858D01*
X81090038Y-64815009D01*
X82276177Y-66001148D01*
X82276176Y-66001148D01*
X82332126Y-66057097D01*
X82400644Y-66096656D01*
X82400648Y-66096658D01*
X82477072Y-66117136D01*
X82477074Y-66117137D01*
X82477075Y-66117137D01*
X83720829Y-66117137D01*
X83779020Y-66136044D01*
X83790832Y-66146133D01*
X83975645Y-66330945D01*
X84102695Y-66457995D01*
X84179514Y-66513809D01*
X84300171Y-66553012D01*
X84300173Y-66553012D01*
X84300755Y-66553012D01*
X84301308Y-66553191D01*
X84307869Y-66554231D01*
X84307704Y-66555269D01*
X84358946Y-66571919D01*
X84394910Y-66621419D01*
X84397899Y-66653949D01*
X84399500Y-66653949D01*
X84399500Y-67239564D01*
X84419978Y-67315988D01*
X84419980Y-67315992D01*
X84446907Y-67362631D01*
X84459629Y-67422479D01*
X84434742Y-67478375D01*
X84381754Y-67508968D01*
X84320904Y-67502572D01*
X84291170Y-67482137D01*
X84286390Y-67477357D01*
X84028118Y-67265399D01*
X83958667Y-67218993D01*
X83750312Y-67079773D01*
X83455672Y-66922286D01*
X83455660Y-66922280D01*
X83455654Y-66922277D01*
X83455649Y-66922274D01*
X83455645Y-66922273D01*
X83146967Y-66794414D01*
X82827253Y-66697431D01*
X82548324Y-66641949D01*
X82499559Y-66632249D01*
X82499557Y-66632248D01*
X82256491Y-66608308D01*
X82167056Y-66599500D01*
X81832944Y-66599500D01*
X81734700Y-66609176D01*
X81500444Y-66632248D01*
X81172746Y-66697431D01*
X80853032Y-66794414D01*
X80544354Y-66922273D01*
X80544327Y-66922286D01*
X80249687Y-67079773D01*
X79971880Y-67265400D01*
X79713615Y-67477352D01*
X79477352Y-67713615D01*
X79265400Y-67971880D01*
X79079773Y-68249687D01*
X78922286Y-68544327D01*
X78922273Y-68544354D01*
X78794414Y-68853032D01*
X78697431Y-69172746D01*
X78632248Y-69500444D01*
X78615650Y-69668968D01*
X78599500Y-69832944D01*
X78599500Y-70167056D01*
X78600463Y-70176835D01*
X78632248Y-70499555D01*
X78697431Y-70827253D01*
X78794414Y-71146967D01*
X78922273Y-71455645D01*
X78922286Y-71455672D01*
X79079773Y-71750312D01*
X79218993Y-71958667D01*
X79265399Y-72028118D01*
X79477357Y-72286390D01*
X79713610Y-72522643D01*
X79971882Y-72734601D01*
X80110783Y-72827412D01*
X80249687Y-72920226D01*
X80514045Y-73061527D01*
X80544346Y-73077723D01*
X80853024Y-73205582D01*
X80853026Y-73205582D01*
X80853032Y-73205585D01*
X81063642Y-73269472D01*
X81172749Y-73302569D01*
X81500441Y-73367751D01*
X81832944Y-73400500D01*
X81832947Y-73400500D01*
X82167053Y-73400500D01*
X82167056Y-73400500D01*
X82499559Y-73367751D01*
X82827251Y-73302569D01*
X83062877Y-73231093D01*
X83146967Y-73205585D01*
X83146969Y-73205583D01*
X83146976Y-73205582D01*
X83455654Y-73077723D01*
X83750315Y-72920224D01*
X83766798Y-72909209D01*
X83825686Y-72892599D01*
X83883090Y-72913774D01*
X83917085Y-72964647D01*
X83914685Y-73025785D01*
X83891807Y-73061527D01*
X83307831Y-73645504D01*
X83253314Y-73673281D01*
X83250397Y-73673510D01*
X83250416Y-73673653D01*
X83243984Y-73674499D01*
X83135758Y-73703498D01*
X83038739Y-73759513D01*
X82959513Y-73838739D01*
X82903498Y-73935758D01*
X82897227Y-73959163D01*
X82874500Y-74043982D01*
X82874500Y-74156018D01*
X82894389Y-74230244D01*
X82903498Y-74264241D01*
X82951175Y-74346818D01*
X82959515Y-74361263D01*
X83038737Y-74440485D01*
X83065780Y-74456098D01*
X83135759Y-74496501D01*
X83135757Y-74496501D01*
X83135761Y-74496502D01*
X83135763Y-74496503D01*
X83243982Y-74525500D01*
X83243984Y-74525500D01*
X83356016Y-74525500D01*
X83356018Y-74525500D01*
X83464237Y-74496503D01*
X83464239Y-74496501D01*
X83464241Y-74496501D01*
X83506982Y-74471824D01*
X83561263Y-74440485D01*
X83640485Y-74361263D01*
X83687060Y-74280593D01*
X83696501Y-74264241D01*
X83696501Y-74264239D01*
X83696503Y-74264237D01*
X83725500Y-74156018D01*
X83725500Y-74142162D01*
X83744407Y-74083971D01*
X83793907Y-74048007D01*
X83855093Y-74048007D01*
X83904593Y-74083971D01*
X83912187Y-74096205D01*
X83917283Y-74105929D01*
X83919979Y-74115989D01*
X83946896Y-74162610D01*
X83959540Y-74184511D01*
X86859540Y-77084511D01*
X86859539Y-77084511D01*
X86915489Y-77140460D01*
X86984007Y-77180019D01*
X86984011Y-77180021D01*
X87060435Y-77200499D01*
X87060437Y-77200500D01*
X87060438Y-77200500D01*
X87139562Y-77200500D01*
X87278798Y-77200500D01*
X87336989Y-77219407D01*
X87372953Y-77268907D01*
X87372953Y-77330093D01*
X87355326Y-77362305D01*
X87265400Y-77471880D01*
X87079773Y-77749687D01*
X86922286Y-78044327D01*
X86922273Y-78044354D01*
X86794414Y-78353032D01*
X86697431Y-78672746D01*
X86632248Y-79000444D01*
X86599500Y-79332946D01*
X86599500Y-79667053D01*
X86632248Y-79999555D01*
X86697431Y-80327253D01*
X86794414Y-80646967D01*
X86922273Y-80955645D01*
X86922286Y-80955672D01*
X87079773Y-81250312D01*
X87164159Y-81376603D01*
X87265399Y-81528118D01*
X87477357Y-81786390D01*
X87713610Y-82022643D01*
X87971882Y-82234601D01*
X88102123Y-82321626D01*
X88249687Y-82420226D01*
X88544327Y-82577713D01*
X88544346Y-82577723D01*
X88853024Y-82705582D01*
X88853026Y-82705582D01*
X88853032Y-82705585D01*
X89129376Y-82789412D01*
X89172749Y-82802569D01*
X89500441Y-82867751D01*
X89832944Y-82900500D01*
X89832947Y-82900500D01*
X90167053Y-82900500D01*
X90167056Y-82900500D01*
X90499559Y-82867751D01*
X90827251Y-82802569D01*
X91016857Y-82745052D01*
X91146967Y-82705585D01*
X91146969Y-82705583D01*
X91146976Y-82705582D01*
X91455654Y-82577723D01*
X91599640Y-82500760D01*
X91750312Y-82420226D01*
X91750315Y-82420224D01*
X92028118Y-82234601D01*
X92286390Y-82022643D01*
X92522643Y-81786390D01*
X92734601Y-81528118D01*
X92920224Y-81250315D01*
X93077723Y-80955654D01*
X93205582Y-80646976D01*
X93206090Y-80645303D01*
X93273739Y-80422291D01*
X93302569Y-80327251D01*
X93367751Y-79999559D01*
X93400500Y-79667056D01*
X93400500Y-79332944D01*
X93367751Y-79000441D01*
X93302569Y-78672749D01*
X93266983Y-78555437D01*
X93268184Y-78494264D01*
X93305113Y-78445479D01*
X93363664Y-78427718D01*
X93421472Y-78447764D01*
X93431723Y-78456695D01*
X93465489Y-78490460D01*
X93534007Y-78530019D01*
X93534011Y-78530021D01*
X93610435Y-78550499D01*
X93610437Y-78550500D01*
X93610438Y-78550500D01*
X94146670Y-78550500D01*
X94146670Y-78550499D01*
X94223096Y-78530021D01*
X94291618Y-78490460D01*
X94325383Y-78456695D01*
X94347568Y-78434511D01*
X94567200Y-78214878D01*
X94640460Y-78141618D01*
X94640463Y-78141612D01*
X94641613Y-78140115D01*
X94642732Y-78139345D01*
X94645048Y-78137030D01*
X94645476Y-78137458D01*
X94692035Y-78105456D01*
X94753200Y-78107055D01*
X94801744Y-78144299D01*
X94819124Y-78202964D01*
X94814313Y-78230969D01*
X94804557Y-78260996D01*
X94804556Y-78260999D01*
X94794500Y-78324496D01*
X94794500Y-78324500D01*
X94794500Y-80258992D01*
X94794943Y-80270279D01*
X94795134Y-80275123D01*
X94796353Y-80290602D01*
X94796354Y-80290607D01*
X94818115Y-80367769D01*
X94818117Y-80367775D01*
X94845894Y-80422291D01*
X94883681Y-80474300D01*
X94883683Y-80474302D01*
X94883686Y-80474306D01*
X96584685Y-82175305D01*
X96601274Y-82189474D01*
X96633243Y-82241643D01*
X96628442Y-82302640D01*
X96588704Y-82349165D01*
X96581923Y-82352963D01*
X96103429Y-82596769D01*
X96101777Y-82597591D01*
X95985554Y-82654106D01*
X95982528Y-82655515D01*
X95436453Y-82898644D01*
X95434679Y-82899413D01*
X95311337Y-82951467D01*
X95308322Y-82952681D01*
X94754087Y-83165432D01*
X94752193Y-83166138D01*
X94622559Y-83212886D01*
X94619568Y-83213911D01*
X94058102Y-83396343D01*
X94056090Y-83396973D01*
X93921107Y-83437675D01*
X93918149Y-83438517D01*
X93350545Y-83590605D01*
X93348418Y-83591149D01*
X93208981Y-83625215D01*
X93206068Y-83625881D01*
X92633423Y-83747601D01*
X92631183Y-83748050D01*
X92488093Y-83775029D01*
X92485237Y-83775524D01*
X91908685Y-83866841D01*
X91906338Y-83867184D01*
X91760561Y-83886705D01*
X91757769Y-83887039D01*
X91178350Y-83947939D01*
X91175901Y-83948165D01*
X91028304Y-83959979D01*
X91025586Y-83960159D01*
X90444562Y-83990609D01*
X90442017Y-83990710D01*
X90293426Y-83994668D01*
X90290790Y-83994703D01*
X89709210Y-83994703D01*
X89706574Y-83994668D01*
X89557981Y-83990710D01*
X89555436Y-83990609D01*
X88974412Y-83960159D01*
X88971694Y-83959979D01*
X88824097Y-83948165D01*
X88821648Y-83947939D01*
X88242229Y-83887039D01*
X88239437Y-83886705D01*
X88093660Y-83867184D01*
X88091313Y-83866841D01*
X87514761Y-83775524D01*
X87511905Y-83775029D01*
X87380634Y-83750278D01*
X87368806Y-83748048D01*
X87366587Y-83747603D01*
X87264222Y-83725845D01*
X86793930Y-83625881D01*
X86791017Y-83625215D01*
X86651580Y-83591149D01*
X86649453Y-83590605D01*
X86081849Y-83438517D01*
X86078891Y-83437675D01*
X85943908Y-83396973D01*
X85941896Y-83396343D01*
X85380430Y-83213911D01*
X85377439Y-83212886D01*
X85247805Y-83166138D01*
X85245911Y-83165432D01*
X84691676Y-82952681D01*
X84688661Y-82951467D01*
X84565319Y-82899413D01*
X84563545Y-82898644D01*
X84017470Y-82655515D01*
X84014444Y-82654106D01*
X83898221Y-82597591D01*
X83896569Y-82596769D01*
X83359729Y-82323234D01*
X83356704Y-82321626D01*
X83248422Y-82261647D01*
X83246892Y-82260782D01*
X83201542Y-82234599D01*
X82720258Y-81956730D01*
X82717308Y-81954955D01*
X82660648Y-81919503D01*
X82617686Y-81892622D01*
X82616279Y-81891725D01*
X82100975Y-81557083D01*
X82097990Y-81555067D01*
X82007864Y-81491761D01*
X82006577Y-81490842D01*
X81503424Y-81125280D01*
X81500480Y-81123055D01*
X81420569Y-81060316D01*
X81419401Y-81059385D01*
X80929421Y-80662607D01*
X80926531Y-80660174D01*
X80857439Y-80599717D01*
X80856388Y-80598784D01*
X80380480Y-80170276D01*
X80377658Y-80167634D01*
X80320179Y-80111665D01*
X80319241Y-80110740D01*
X79858142Y-79649641D01*
X79855431Y-79646819D01*
X79810059Y-79597671D01*
X79809319Y-79596858D01*
X79363904Y-79102174D01*
X79361309Y-79099171D01*
X79328851Y-79060021D01*
X79328129Y-79059139D01*
X79182106Y-78878816D01*
X78899141Y-78529384D01*
X78896641Y-78526161D01*
X78877614Y-78500550D01*
X78877061Y-78499798D01*
X78465167Y-77932876D01*
X78462796Y-77929460D01*
X78457593Y-77921617D01*
X78457068Y-77920816D01*
X78064885Y-77316907D01*
X78062176Y-77312488D01*
X77778648Y-76821403D01*
X77745480Y-76763953D01*
X77720648Y-76720943D01*
X80699500Y-76720943D01*
X80699500Y-76879057D01*
X80740423Y-77031784D01*
X80819480Y-77168716D01*
X80931284Y-77280520D01*
X80931286Y-77280521D01*
X81003647Y-77322299D01*
X81024150Y-77338031D01*
X81511965Y-77825845D01*
X81527698Y-77846348D01*
X81555535Y-77894562D01*
X81569480Y-77918716D01*
X81681284Y-78030520D01*
X81681286Y-78030521D01*
X81753647Y-78072299D01*
X81774151Y-78088031D01*
X82311967Y-78625847D01*
X82327699Y-78646350D01*
X82342939Y-78672746D01*
X82369480Y-78718716D01*
X82481284Y-78830520D01*
X82481286Y-78830521D01*
X82553647Y-78872299D01*
X82574151Y-78888031D01*
X82855598Y-79169478D01*
X82883375Y-79223995D01*
X82873804Y-79284427D01*
X82855598Y-79309485D01*
X82555247Y-79609837D01*
X82555244Y-79609841D01*
X82535743Y-79633378D01*
X82476820Y-79755733D01*
X82456579Y-79890021D01*
X82476820Y-80024308D01*
X82535743Y-80146663D01*
X82535744Y-80146664D01*
X82535745Y-80146666D01*
X82553117Y-80167634D01*
X82555244Y-80170201D01*
X83742145Y-81357102D01*
X83765683Y-81376603D01*
X83888038Y-81435526D01*
X84004734Y-81453115D01*
X84022324Y-81455767D01*
X84022325Y-81455767D01*
X84022326Y-81455767D01*
X84037878Y-81453422D01*
X84156613Y-81435526D01*
X84278968Y-81376603D01*
X84302505Y-81357102D01*
X85857102Y-79802505D01*
X85876603Y-79778968D01*
X85935526Y-79656613D01*
X85955767Y-79522325D01*
X85935526Y-79388038D01*
X85876603Y-79265683D01*
X85857102Y-79242145D01*
X84670201Y-78055244D01*
X84670193Y-78055237D01*
X84646666Y-78035745D01*
X84646664Y-78035744D01*
X84646663Y-78035743D01*
X84524308Y-77976820D01*
X84457164Y-77966699D01*
X84390022Y-77956579D01*
X84390020Y-77956579D01*
X84255733Y-77976820D01*
X84133378Y-78035743D01*
X84109837Y-78055247D01*
X83809485Y-78355598D01*
X83754969Y-78383375D01*
X83694537Y-78373803D01*
X83669478Y-78355598D01*
X83388031Y-78074151D01*
X83372299Y-78053647D01*
X83330521Y-77981286D01*
X83330520Y-77981284D01*
X83218716Y-77869480D01*
X83202632Y-77860194D01*
X83146350Y-77827699D01*
X83125847Y-77811967D01*
X82588031Y-77274151D01*
X82572299Y-77253647D01*
X82530521Y-77181286D01*
X82530520Y-77181284D01*
X82418716Y-77069480D01*
X82402135Y-77059907D01*
X82346348Y-77027698D01*
X82325845Y-77011965D01*
X81838031Y-76524150D01*
X81822299Y-76503647D01*
X81780521Y-76431286D01*
X81780520Y-76431284D01*
X81668716Y-76319480D01*
X81531784Y-76240423D01*
X81379057Y-76199500D01*
X81220943Y-76199500D01*
X81068216Y-76240423D01*
X80931284Y-76319480D01*
X80819480Y-76431284D01*
X80740423Y-76568216D01*
X80699500Y-76720943D01*
X77720648Y-76720943D01*
X77698295Y-76682226D01*
X77695821Y-76677671D01*
X77691648Y-76669482D01*
X77365424Y-76029230D01*
X77363207Y-76024581D01*
X77067191Y-75359720D01*
X77065214Y-75354945D01*
X77053844Y-75325326D01*
X76804423Y-74675559D01*
X76802695Y-74670683D01*
X76796601Y-74651929D01*
X76595148Y-74031918D01*
X76577803Y-73978535D01*
X76576331Y-73973565D01*
X76387978Y-73270622D01*
X76386768Y-73265582D01*
X76235460Y-72553732D01*
X76234516Y-72548636D01*
X76214139Y-72419979D01*
X76120670Y-71829841D01*
X76120000Y-71824759D01*
X76043923Y-71100930D01*
X76043520Y-71095810D01*
X76005433Y-70369059D01*
X76005297Y-70363878D01*
X76005297Y-69636121D01*
X76005433Y-69630940D01*
X76017266Y-69405149D01*
X76043521Y-68904186D01*
X76043922Y-68899072D01*
X76120001Y-68175235D01*
X76120669Y-68170163D01*
X76234516Y-67451358D01*
X76235460Y-67446267D01*
X76263151Y-67315992D01*
X76386769Y-66734410D01*
X76387978Y-66729377D01*
X76396538Y-66697431D01*
X76576333Y-66026425D01*
X76577803Y-66021464D01*
X76588484Y-65988591D01*
X76802701Y-65329296D01*
X76804418Y-65324452D01*
X77065225Y-64645026D01*
X77067185Y-64640292D01*
X77363213Y-63975403D01*
X77365416Y-63970783D01*
X77695836Y-63322298D01*
X77698278Y-63317801D01*
X78062184Y-62687496D01*
X78064875Y-62683107D01*
X78457245Y-62078910D01*
X78457491Y-62078535D01*
X78462826Y-62070494D01*
X78465136Y-62067167D01*
X78877202Y-61500006D01*
X78877469Y-61499644D01*
X78896683Y-61473781D01*
X78899103Y-61470661D01*
X79328282Y-60940671D01*
X79328728Y-60940126D01*
X79361350Y-60900779D01*
X79363861Y-60897873D01*
X79809518Y-60402920D01*
X79809922Y-60402477D01*
X79855478Y-60353129D01*
X79858092Y-60350408D01*
X80319396Y-59889104D01*
X80320020Y-59888489D01*
X80377717Y-59832308D01*
X80380420Y-59829777D01*
X80856497Y-59401116D01*
X80857439Y-59400281D01*
X80911437Y-59353032D01*
X80926554Y-59339804D01*
X80929367Y-59337436D01*
X81349320Y-58997364D01*
X83718075Y-58997364D01*
X83718075Y-59204299D01*
X83758444Y-59407250D01*
X83837633Y-59598429D01*
X83837634Y-59598430D01*
X83952598Y-59770487D01*
X84098920Y-59916809D01*
X84270977Y-60031773D01*
X84462155Y-60110962D01*
X84665110Y-60151332D01*
X84665111Y-60151332D01*
X84872039Y-60151332D01*
X84872040Y-60151332D01*
X85074995Y-60110962D01*
X85266173Y-60031773D01*
X85438230Y-59916809D01*
X85584552Y-59770487D01*
X85699516Y-59598430D01*
X85778705Y-59407252D01*
X85819075Y-59204297D01*
X85819075Y-58997367D01*
X85778705Y-58794412D01*
X85699516Y-58603234D01*
X85584552Y-58431177D01*
X85438230Y-58284855D01*
X85438226Y-58284852D01*
X85266172Y-58169890D01*
X85074993Y-58090701D01*
X84872042Y-58050332D01*
X84872040Y-58050332D01*
X84665110Y-58050332D01*
X84665107Y-58050332D01*
X84462156Y-58090701D01*
X84270977Y-58169890D01*
X84098923Y-58284852D01*
X83952595Y-58431180D01*
X83837633Y-58603234D01*
X83758444Y-58794413D01*
X83718075Y-58997364D01*
X81349320Y-58997364D01*
X81419519Y-58940518D01*
X81420405Y-58939811D01*
X81500572Y-58876871D01*
X81503363Y-58874763D01*
X82006708Y-58509062D01*
X82007734Y-58508329D01*
X82098052Y-58444888D01*
X82100910Y-58442958D01*
X82616404Y-58108192D01*
X82617567Y-58107451D01*
X82717391Y-58044992D01*
X82720174Y-58043318D01*
X83247078Y-57739110D01*
X83248240Y-57738453D01*
X83356760Y-57678342D01*
X83359674Y-57676792D01*
X83896756Y-57403135D01*
X83898075Y-57402479D01*
X84014489Y-57345870D01*
X84017401Y-57344514D01*
X84563708Y-57101282D01*
X84565197Y-57100637D01*
X84688710Y-57048510D01*
X84691603Y-57047346D01*
X85246057Y-56834511D01*
X85247673Y-56833909D01*
X85377477Y-56787098D01*
X85380393Y-56786099D01*
X85942022Y-56603615D01*
X85943782Y-56603064D01*
X86079002Y-56562291D01*
X86081737Y-56561512D01*
X86649519Y-56409375D01*
X86651514Y-56408865D01*
X86791102Y-56374763D01*
X86793846Y-56374136D01*
X87366755Y-56252360D01*
X87368638Y-56251983D01*
X87511965Y-56224958D01*
X87514701Y-56224484D01*
X88091416Y-56133141D01*
X88093561Y-56132828D01*
X88239515Y-56113283D01*
X88242152Y-56112968D01*
X88821773Y-56052047D01*
X88823971Y-56051844D01*
X88971816Y-56040010D01*
X88974288Y-56039847D01*
X89555491Y-56009387D01*
X89557901Y-56009291D01*
X89706597Y-56005332D01*
X89709232Y-56005297D01*
X90290768Y-56005297D01*
X90293403Y-56005332D01*
G37*
%TD.AperFunction*%
%TA.AperFunction,Conductor*%
G36*
X95917245Y-76103851D02*
G01*
X95924499Y-76105000D01*
X95924500Y-76105000D01*
X96595500Y-76105000D01*
X96653691Y-76123907D01*
X96689655Y-76173407D01*
X96694500Y-76204000D01*
X96694500Y-76725409D01*
X96698445Y-76765469D01*
X96698447Y-76765483D01*
X96702701Y-76786878D01*
X96702700Y-76786878D01*
X96705845Y-76802689D01*
X96705978Y-76803359D01*
X96705981Y-76803370D01*
X96707789Y-76809332D01*
X96708677Y-76812439D01*
X96741627Y-76935409D01*
X96745000Y-76961031D01*
X96745000Y-77038966D01*
X96741627Y-77064589D01*
X96708677Y-77187561D01*
X96707787Y-77190677D01*
X96705988Y-77196604D01*
X96705985Y-77196617D01*
X96705853Y-77197284D01*
X96702679Y-77213236D01*
X96702678Y-77213237D01*
X96698452Y-77234478D01*
X96698447Y-77234513D01*
X96694500Y-77274597D01*
X96694500Y-77985787D01*
X96675593Y-78043978D01*
X96626093Y-78079942D01*
X96564907Y-78079942D01*
X96527486Y-78057725D01*
X96086486Y-77640779D01*
X96057191Y-77587062D01*
X96055500Y-77568841D01*
X96055500Y-77361503D01*
X96055500Y-77361502D01*
X96048498Y-77308315D01*
X96035235Y-77258816D01*
X96014706Y-77209254D01*
X95988433Y-77163749D01*
X95978545Y-77139878D01*
X95963711Y-77084511D01*
X95958373Y-77064588D01*
X95955000Y-77038967D01*
X95955000Y-76961031D01*
X95958373Y-76935409D01*
X95973472Y-76879057D01*
X95978546Y-76860118D01*
X95988437Y-76836242D01*
X95997005Y-76821403D01*
X96014705Y-76790746D01*
X96035235Y-76741183D01*
X96048498Y-76691684D01*
X96055500Y-76638497D01*
X96055500Y-76581681D01*
X96055142Y-76569555D01*
X96054453Y-76557899D01*
X96047030Y-76528285D01*
X96035919Y-76483958D01*
X96035917Y-76483955D01*
X96035917Y-76483952D01*
X96030519Y-76472249D01*
X96026536Y-76459990D01*
X96012059Y-76426117D01*
X96003050Y-76415804D01*
X95991922Y-76396456D01*
X95991919Y-76396453D01*
X95968863Y-76375623D01*
X95964517Y-76371697D01*
X95951889Y-76357242D01*
X95947006Y-76353694D01*
X95946048Y-76355011D01*
X95930749Y-76341190D01*
X95924061Y-76335148D01*
X95924057Y-76335146D01*
X95917923Y-76331712D01*
X95908107Y-76325431D01*
X95908073Y-76325407D01*
X95904381Y-76322725D01*
X95903105Y-76321798D01*
X95903106Y-76321798D01*
X95902357Y-76321254D01*
X95902347Y-76321248D01*
X95900557Y-76319948D01*
X95900556Y-76319947D01*
X95900544Y-76319939D01*
X95885913Y-76309310D01*
X95883397Y-76308911D01*
X95873379Y-76303037D01*
X95862572Y-76295817D01*
X95862570Y-76295816D01*
X95862567Y-76295814D01*
X95849246Y-76289514D01*
X95836803Y-76277784D01*
X95821570Y-76270022D01*
X95815099Y-76257322D01*
X95804727Y-76247544D01*
X95801555Y-76230739D01*
X95793793Y-76215505D01*
X95796022Y-76201427D01*
X95793379Y-76187420D01*
X95800690Y-76171961D01*
X95803365Y-76155073D01*
X95813443Y-76144994D01*
X95819538Y-76132108D01*
X95834539Y-76123899D01*
X95846630Y-76111809D01*
X95860708Y-76109579D01*
X95873213Y-76102737D01*
X95907060Y-76102238D01*
X95917245Y-76103851D01*
G37*
%TD.AperFunction*%
%TA.AperFunction,Conductor*%
G36*
X90645624Y-74166468D02*
G01*
X90686414Y-74205176D01*
X90700887Y-74230244D01*
X90780109Y-74309466D01*
X90780111Y-74309467D01*
X90877131Y-74365482D01*
X90877129Y-74365482D01*
X90877133Y-74365483D01*
X90877135Y-74365484D01*
X90985354Y-74394481D01*
X90985356Y-74394481D01*
X91097333Y-74394481D01*
X91122958Y-74397854D01*
X91132829Y-74400500D01*
X91211953Y-74400500D01*
X91834521Y-74400500D01*
X91892712Y-74419407D01*
X91904525Y-74429496D01*
X92659540Y-75184511D01*
X92659539Y-75184511D01*
X92715489Y-75240460D01*
X92784007Y-75280019D01*
X92784011Y-75280021D01*
X92860435Y-75300499D01*
X92860437Y-75300500D01*
X92860438Y-75300500D01*
X93749673Y-75300500D01*
X93749674Y-75300500D01*
X93822740Y-75285966D01*
X93905601Y-75230601D01*
X93960966Y-75147740D01*
X93975500Y-75074674D01*
X93975500Y-74925326D01*
X93960966Y-74852260D01*
X93960962Y-74852255D01*
X93957233Y-74843248D01*
X93959248Y-74842413D01*
X93946189Y-74796120D01*
X93948720Y-74777429D01*
X93952815Y-74759937D01*
X93960966Y-74747740D01*
X93975500Y-74674674D01*
X93975500Y-74663062D01*
X93978107Y-74651929D01*
X93988314Y-74635060D01*
X93994407Y-74616309D01*
X94003784Y-74609496D01*
X94009784Y-74599581D01*
X94027955Y-74591934D01*
X94043907Y-74580345D01*
X94062492Y-74577401D01*
X94066180Y-74575850D01*
X94068645Y-74576427D01*
X94069863Y-74576234D01*
X94069838Y-74575976D01*
X94074215Y-74575544D01*
X94074500Y-74575500D01*
X94074673Y-74575500D01*
X94074674Y-74575500D01*
X94147740Y-74560966D01*
X94147746Y-74560961D01*
X94156752Y-74557233D01*
X94157586Y-74559248D01*
X94203880Y-74546189D01*
X94242610Y-74558773D01*
X94243248Y-74557233D01*
X94252255Y-74560962D01*
X94252260Y-74560966D01*
X94297209Y-74569907D01*
X94325315Y-74575498D01*
X94325320Y-74575498D01*
X94325326Y-74575500D01*
X94325327Y-74575500D01*
X94474673Y-74575500D01*
X94474674Y-74575500D01*
X94547740Y-74560966D01*
X94547746Y-74560961D01*
X94556752Y-74557233D01*
X94557586Y-74559248D01*
X94603880Y-74546189D01*
X94642610Y-74558773D01*
X94643248Y-74557233D01*
X94652255Y-74560962D01*
X94652260Y-74560966D01*
X94697209Y-74569907D01*
X94725315Y-74575498D01*
X94725320Y-74575498D01*
X94725326Y-74575500D01*
X94725327Y-74575500D01*
X94874673Y-74575500D01*
X94874674Y-74575500D01*
X94947740Y-74560966D01*
X94947746Y-74560961D01*
X94956752Y-74557233D01*
X94957586Y-74559248D01*
X95003880Y-74546189D01*
X95042610Y-74558773D01*
X95043248Y-74557233D01*
X95052255Y-74560962D01*
X95052260Y-74560966D01*
X95097209Y-74569907D01*
X95125315Y-74575498D01*
X95125320Y-74575498D01*
X95125326Y-74575500D01*
X95125327Y-74575500D01*
X95274673Y-74575500D01*
X95274674Y-74575500D01*
X95347740Y-74560966D01*
X95347746Y-74560961D01*
X95356752Y-74557233D01*
X95357586Y-74559248D01*
X95403880Y-74546189D01*
X95442610Y-74558773D01*
X95443248Y-74557233D01*
X95452255Y-74560962D01*
X95452260Y-74560966D01*
X95497209Y-74569907D01*
X95525315Y-74575498D01*
X95525320Y-74575498D01*
X95525326Y-74575500D01*
X95525327Y-74575500D01*
X95658230Y-74575500D01*
X95716421Y-74594407D01*
X95752385Y-74643907D01*
X95752385Y-74705093D01*
X95716421Y-74754593D01*
X95713230Y-74756817D01*
X95694399Y-74769398D01*
X95694397Y-74769400D01*
X95639035Y-74852257D01*
X95639033Y-74852263D01*
X95624501Y-74925315D01*
X95624500Y-74925327D01*
X95624500Y-75074672D01*
X95624501Y-75074684D01*
X95639033Y-75147736D01*
X95639034Y-75147740D01*
X95639035Y-75147742D01*
X95642766Y-75156749D01*
X95640751Y-75157583D01*
X95653811Y-75203888D01*
X95641227Y-75242613D01*
X95642766Y-75243251D01*
X95639033Y-75252263D01*
X95624501Y-75325315D01*
X95624500Y-75325327D01*
X95624500Y-75474672D01*
X95624501Y-75474684D01*
X95635405Y-75529496D01*
X95639034Y-75547740D01*
X95639035Y-75547742D01*
X95642766Y-75556749D01*
X95640751Y-75557583D01*
X95653811Y-75603888D01*
X95652322Y-75617535D01*
X95648667Y-75637842D01*
X95639034Y-75652260D01*
X95624500Y-75725326D01*
X95624500Y-75771086D01*
X95623119Y-75779804D01*
X95623115Y-75779828D01*
X95620000Y-75799498D01*
X95620000Y-75799500D01*
X95620000Y-75800500D01*
X95620712Y-75809540D01*
X95622530Y-75832646D01*
X95623281Y-75837384D01*
X95624500Y-75852871D01*
X95624500Y-75874672D01*
X95624501Y-75874684D01*
X95639033Y-75947736D01*
X95639035Y-75947742D01*
X95694397Y-76030599D01*
X95694399Y-76030601D01*
X95713230Y-76043183D01*
X95751110Y-76091233D01*
X95753514Y-76152371D01*
X95719522Y-76203245D01*
X95662119Y-76224424D01*
X95658230Y-76224500D01*
X95525326Y-76224500D01*
X95525325Y-76224500D01*
X95525315Y-76224501D01*
X95452263Y-76239033D01*
X95452257Y-76239035D01*
X95369400Y-76294397D01*
X95369397Y-76294400D01*
X95314035Y-76377257D01*
X95314033Y-76377263D01*
X95299501Y-76450315D01*
X95299500Y-76450327D01*
X95299500Y-76512796D01*
X95298281Y-76528285D01*
X95297281Y-76534598D01*
X95269502Y-76589114D01*
X95214985Y-76616890D01*
X95154553Y-76607318D01*
X95111290Y-76564052D01*
X95100500Y-76519109D01*
X95100500Y-76450327D01*
X95100498Y-76450315D01*
X95095684Y-76426117D01*
X95085966Y-76377260D01*
X95057828Y-76335148D01*
X95030602Y-76294400D01*
X95030599Y-76294397D01*
X94947742Y-76239035D01*
X94947740Y-76239034D01*
X94947737Y-76239033D01*
X94947736Y-76239033D01*
X94874684Y-76224501D01*
X94874674Y-76224500D01*
X94725326Y-76224500D01*
X94725325Y-76224500D01*
X94725315Y-76224501D01*
X94652263Y-76239033D01*
X94652261Y-76239033D01*
X94652260Y-76239034D01*
X94652259Y-76239034D01*
X94643251Y-76242766D01*
X94642416Y-76240751D01*
X94596112Y-76253811D01*
X94557386Y-76241227D01*
X94556749Y-76242766D01*
X94547742Y-76239035D01*
X94547740Y-76239034D01*
X94547736Y-76239033D01*
X94474684Y-76224501D01*
X94474674Y-76224500D01*
X94325326Y-76224500D01*
X94325325Y-76224500D01*
X94325315Y-76224501D01*
X94252263Y-76239033D01*
X94252261Y-76239033D01*
X94252260Y-76239034D01*
X94252259Y-76239034D01*
X94243251Y-76242766D01*
X94242416Y-76240751D01*
X94196112Y-76253811D01*
X94177429Y-76251280D01*
X94159938Y-76247184D01*
X94147740Y-76239034D01*
X94074674Y-76224500D01*
X94063062Y-76224500D01*
X94051929Y-76221893D01*
X94035060Y-76211685D01*
X94016309Y-76205593D01*
X94009496Y-76196215D01*
X93999581Y-76190216D01*
X93991934Y-76172044D01*
X93980345Y-76156093D01*
X93977401Y-76137507D01*
X93975850Y-76133820D01*
X93976427Y-76131354D01*
X93976234Y-76130136D01*
X93975976Y-76130162D01*
X93975544Y-76125784D01*
X93975500Y-76125500D01*
X93975500Y-76125327D01*
X93975498Y-76125315D01*
X93968234Y-76088797D01*
X93960966Y-76052260D01*
X93946493Y-76030599D01*
X93905602Y-75969400D01*
X93905599Y-75969397D01*
X93822742Y-75914035D01*
X93822740Y-75914034D01*
X93822737Y-75914033D01*
X93822736Y-75914033D01*
X93749684Y-75899501D01*
X93749674Y-75899500D01*
X93749673Y-75899500D01*
X92832724Y-75899500D01*
X92774533Y-75880593D01*
X92746987Y-75849998D01*
X92740488Y-75838741D01*
X92740486Y-75838739D01*
X92740485Y-75838737D01*
X92661263Y-75759515D01*
X92661260Y-75759513D01*
X92564240Y-75703498D01*
X92564242Y-75703498D01*
X92522251Y-75692247D01*
X92456018Y-75674500D01*
X92343982Y-75674500D01*
X92277748Y-75692247D01*
X92235758Y-75703498D01*
X92138739Y-75759513D01*
X92059513Y-75838739D01*
X92003498Y-75935759D01*
X92003496Y-75935763D01*
X91996575Y-75961594D01*
X91963251Y-76012908D01*
X91906129Y-76034834D01*
X91847029Y-76018998D01*
X91830946Y-76005974D01*
X91634510Y-75809539D01*
X91617121Y-75799499D01*
X91617121Y-75799500D01*
X91565989Y-75769979D01*
X91565988Y-75769978D01*
X91565987Y-75769978D01*
X91489564Y-75749500D01*
X91489562Y-75749500D01*
X88489562Y-75749500D01*
X88410438Y-75749500D01*
X88373061Y-75759515D01*
X88334007Y-75769979D01*
X88265493Y-75809536D01*
X88265488Y-75809540D01*
X88146003Y-75929025D01*
X88091487Y-75956802D01*
X88031055Y-75947230D01*
X87989524Y-75907218D01*
X87984827Y-75898791D01*
X87980535Y-75885580D01*
X87967348Y-75867430D01*
X87964456Y-75862241D01*
X87959639Y-75837765D01*
X87951932Y-75814044D01*
X87953824Y-75808218D01*
X87952642Y-75802207D01*
X87963132Y-75779572D01*
X87970840Y-75755853D01*
X87978026Y-75747438D01*
X87978371Y-75746695D01*
X87978925Y-75746386D01*
X87980921Y-75744048D01*
X88195475Y-75529496D01*
X88249991Y-75501719D01*
X88265478Y-75500500D01*
X89129943Y-75500500D01*
X89129943Y-75500499D01*
X89206369Y-75480021D01*
X89274891Y-75440460D01*
X89330840Y-75384511D01*
X90530677Y-74184672D01*
X90585192Y-74156897D01*
X90645624Y-74166468D01*
G37*
%TD.AperFunction*%
%TA.AperFunction,Conductor*%
G36*
X97214589Y-74008372D02*
G01*
X97289875Y-74028544D01*
X97313750Y-74038434D01*
X97381252Y-74077406D01*
X97401752Y-74093136D01*
X97409146Y-74100529D01*
X97409689Y-74101072D01*
X97434207Y-74122013D01*
X97434214Y-74122018D01*
X97459266Y-74140220D01*
X97463021Y-74142883D01*
X97463024Y-74142885D01*
X97547905Y-74176935D01*
X97608337Y-74186507D01*
X97645095Y-74188985D01*
X97733779Y-74166640D01*
X97788296Y-74138863D01*
X97840313Y-74101070D01*
X97848246Y-74093137D01*
X97868744Y-74077407D01*
X97936248Y-74038434D01*
X97960122Y-74028546D01*
X97960130Y-74028544D01*
X97974901Y-74024585D01*
X98035411Y-74008373D01*
X98061033Y-74005000D01*
X98138969Y-74005000D01*
X98164589Y-74008372D01*
X98239875Y-74028544D01*
X98263749Y-74038434D01*
X98331248Y-74077404D01*
X98351753Y-74093137D01*
X98412857Y-74154241D01*
X98422941Y-74166048D01*
X98423371Y-74166640D01*
X98438898Y-74188007D01*
X98466443Y-74218599D01*
X98477148Y-74229628D01*
X98555658Y-74276536D01*
X98555661Y-74276537D01*
X98555665Y-74276539D01*
X98589212Y-74287438D01*
X98638713Y-74323400D01*
X98657622Y-74381590D01*
X98638716Y-74439782D01*
X98623814Y-74456098D01*
X98456464Y-74602529D01*
X98441861Y-74616643D01*
X98441839Y-74616665D01*
X98441267Y-74617276D01*
X98439058Y-74619557D01*
X98381605Y-74677009D01*
X98381599Y-74677014D01*
X98351748Y-74706864D01*
X98331256Y-74722590D01*
X98321798Y-74728051D01*
X98304941Y-74738912D01*
X98289246Y-74750145D01*
X98273543Y-74762587D01*
X98273534Y-74762593D01*
X98150780Y-74870005D01*
X98094537Y-74894095D01*
X98085588Y-74894500D01*
X96943595Y-74894500D01*
X96943595Y-74893675D01*
X96887496Y-74878111D01*
X96859832Y-74850563D01*
X96805604Y-74769402D01*
X96805599Y-74769397D01*
X96722742Y-74714035D01*
X96722740Y-74714034D01*
X96722737Y-74714033D01*
X96722736Y-74714033D01*
X96649684Y-74699501D01*
X96649674Y-74699500D01*
X95866770Y-74699500D01*
X95838140Y-74690197D01*
X95809454Y-74681221D01*
X95809117Y-74680767D01*
X95808579Y-74680593D01*
X95790866Y-74656214D01*
X95772954Y-74632115D01*
X95772947Y-74631551D01*
X95772615Y-74631093D01*
X95772615Y-74600972D01*
X95772288Y-74570933D01*
X95772615Y-74570496D01*
X95772615Y-74569907D01*
X95807712Y-74521045D01*
X95809712Y-74519557D01*
X95830601Y-74505601D01*
X95832684Y-74502483D01*
X95842530Y-74495165D01*
X95850357Y-74492527D01*
X95863435Y-74484102D01*
X95863333Y-74483901D01*
X95865326Y-74482885D01*
X95866809Y-74481930D01*
X95868279Y-74481377D01*
X95868290Y-74481375D01*
X95873272Y-74478836D01*
X95873271Y-74478835D01*
X95887017Y-74471830D01*
X95887031Y-74471824D01*
X95904197Y-74463077D01*
X95904198Y-74463078D01*
X95922782Y-74453610D01*
X95922804Y-74453593D01*
X95922942Y-74453510D01*
X95923625Y-74453091D01*
X95926095Y-74451202D01*
X95940845Y-74440486D01*
X95974805Y-74415814D01*
X96029359Y-74361260D01*
X96056124Y-74334496D01*
X96110641Y-74306719D01*
X96126127Y-74305500D01*
X96572646Y-74305500D01*
X96572649Y-74305500D01*
X96615371Y-74301010D01*
X96655637Y-74292452D01*
X96670542Y-74288697D01*
X96750421Y-74244159D01*
X96795891Y-74203218D01*
X96825513Y-74166635D01*
X96832429Y-74158953D01*
X96898249Y-74093133D01*
X96918748Y-74077405D01*
X96984295Y-74039562D01*
X96986249Y-74038434D01*
X97010123Y-74028545D01*
X97085409Y-74008372D01*
X97111031Y-74005000D01*
X97188969Y-74005000D01*
X97214589Y-74008372D01*
G37*
%TD.AperFunction*%
%TA.AperFunction,Conductor*%
G36*
X85051812Y-62136044D02*
G01*
X85063624Y-62146133D01*
X85222863Y-62305371D01*
X85375487Y-62457995D01*
X85452306Y-62513809D01*
X85572963Y-62553012D01*
X85630536Y-62553012D01*
X85688727Y-62571919D01*
X85700540Y-62582008D01*
X86013383Y-62894851D01*
X86041160Y-62949368D01*
X86037685Y-62989313D01*
X86038198Y-62989399D01*
X86037112Y-62995899D01*
X86037018Y-62996992D01*
X86036848Y-62997488D01*
X86036848Y-63114465D01*
X86068973Y-63208040D01*
X86074831Y-63225103D01*
X86074833Y-63225107D01*
X86115983Y-63280293D01*
X86115985Y-63280295D01*
X86115988Y-63280299D01*
X86899293Y-64063604D01*
X86927069Y-64118119D01*
X86917498Y-64178551D01*
X86899292Y-64203609D01*
X86452972Y-64649930D01*
X86397022Y-64705880D01*
X86357463Y-64774398D01*
X86357461Y-64774402D01*
X86336983Y-64850826D01*
X86336983Y-65763763D01*
X86318076Y-65821954D01*
X86307986Y-65833767D01*
X85889857Y-66251895D01*
X85870897Y-66261555D01*
X85854200Y-66274742D01*
X85844640Y-66274933D01*
X85835341Y-66279672D01*
X85793064Y-66277197D01*
X85791141Y-66276656D01*
X85699829Y-66246988D01*
X85685596Y-66246988D01*
X85672455Y-66243294D01*
X85657805Y-66233523D01*
X85641054Y-66228081D01*
X85632978Y-66216965D01*
X85621552Y-66209345D01*
X85615443Y-66192831D01*
X85605090Y-66178581D01*
X85603410Y-66160301D01*
X85600325Y-66151960D01*
X85601986Y-66146051D01*
X85600500Y-66146051D01*
X85600500Y-65360439D01*
X85600500Y-65360438D01*
X85590987Y-65324935D01*
X85590987Y-65324934D01*
X85590987Y-65324933D01*
X85580021Y-65284010D01*
X85580020Y-65284008D01*
X85540463Y-65215493D01*
X85540461Y-65215491D01*
X85540460Y-65215489D01*
X84984511Y-64659540D01*
X84967868Y-64649931D01*
X84915992Y-64619980D01*
X84915988Y-64619978D01*
X84839564Y-64599500D01*
X84839562Y-64599500D01*
X83565479Y-64599500D01*
X83507288Y-64580593D01*
X83495475Y-64570504D01*
X83129496Y-64204525D01*
X83101719Y-64150008D01*
X83100500Y-64134521D01*
X83100500Y-63738759D01*
X83119407Y-63680568D01*
X83129496Y-63668755D01*
X84652118Y-62146133D01*
X84706635Y-62118356D01*
X84722122Y-62117137D01*
X84993621Y-62117137D01*
X85051812Y-62136044D01*
G37*
%TD.AperFunction*%
%TD*%
M02*
