M48
; DRILL file {KiCad 9.0.5} date 2025-12-02T23:57:01+0100
; FORMAT={-:-/ absolute / metric / decimal}
; #@! TF.CreationDate,2025-12-02T23:57:01+01:00
; #@! TF.GenerationSoftware,Kicad,Pcbnew,9.0.5
; #@! TF.FileFunction,Plated,1,2,PTH
FMAT,2
METRIC
; #@! TA.AperFunction,Plated,PTH,ViaDrill
T1C0.300
; #@! TA.AperFunction,Plated,PTH,ViaDrill
T2C0.400
; #@! TA.AperFunction,Plated,PTH,ComponentDrill
T3C1.000
; #@! TA.AperFunction,Plated,PTH,ComponentDrill
T4C3.200
%
G90
G05
T1
X83.3Y-74.1
X86.1Y-69.0
X86.6Y-73.1
X87.1Y-73.6
X88.2Y-66.9
X88.455Y-73.136
X88.887Y-73.587
X91.041Y-73.969
X91.3Y-73.4
X92.4Y-76.1
X92.5Y-73.0
X92.9Y-74.1
X93.8Y-72.7
X93.9Y-77.75
X94.228Y-63.572
X95.1Y-77.8
X95.55Y-72.95
T2
X81.3Y-76.8
X82.05Y-77.55
X82.85Y-78.35
X83.5Y-63.9
X91.618Y-75.101
X94.0Y-79.0
X94.6Y-66.0
X96.35Y-77.0
X97.15Y-74.4
X98.1Y-74.4
X98.3Y-75.7
X99.0Y-75.0
T3
X78.238Y-66.884
X79.871Y-64.938
X81.503Y-62.992
X83.136Y-61.047
X84.769Y-59.101
X96.693Y-59.693
X96.804Y-80.296
X98.489Y-61.489
X98.6Y-78.5
X100.285Y-63.285
X100.396Y-76.704
T4
X82.0Y-70.0
X90.0Y-60.5
X90.0Y-79.5
X98.0Y-70.0
M30
