%TF.GenerationSoftware,KiCad,Pcbnew,9.0.5*%
%TF.CreationDate,2025-11-12T12:14:19+01:00*%
%TF.ProjectId,Control board,436f6e74-726f-46c2-9062-6f6172642e6b,rev?*%
%TF.SameCoordinates,Original*%
%TF.FileFunction,Copper,L4,Bot*%
%TF.FilePolarity,Positive*%
%FSLAX46Y46*%
G04 Gerber Fmt 4.6, Leading zero omitted, Abs format (unit mm)*
G04 Created by KiCad (PCBNEW 9.0.5) date 2025-11-12 12:14:19*
%MOMM*%
%LPD*%
G01*
G04 APERTURE LIST*
G04 Aperture macros list*
%AMRoundRect*
0 Rectangle with rounded corners*
0 $1 Rounding radius*
0 $2 $3 $4 $5 $6 $7 $8 $9 X,Y pos of 4 corners*
0 Add a 4 corners polygon primitive as box body*
4,1,4,$2,$3,$4,$5,$6,$7,$8,$9,$2,$3,0*
0 Add four circle primitives for the rounded corners*
1,1,$1+$1,$2,$3*
1,1,$1+$1,$4,$5*
1,1,$1+$1,$6,$7*
1,1,$1+$1,$8,$9*
0 Add four rect primitives between the rounded corners*
20,1,$1+$1,$2,$3,$4,$5,0*
20,1,$1+$1,$4,$5,$6,$7,0*
20,1,$1+$1,$6,$7,$8,$9,0*
20,1,$1+$1,$8,$9,$2,$3,0*%
%AMHorizOval*
0 Thick line with rounded ends*
0 $1 width*
0 $2 $3 position (X,Y) of the first rounded end (center of the circle)*
0 $4 $5 position (X,Y) of the second rounded end (center of the circle)*
0 Add line between two ends*
20,1,$1,$2,$3,$4,$5,0*
0 Add two circle primitives to create the rounded ends*
1,1,$1,$2,$3*
1,1,$1,$4,$5*%
%AMRotRect*
0 Rectangle, with rotation*
0 The origin of the aperture is its center*
0 $1 length*
0 $2 width*
0 $3 Rotation angle, in degrees counterclockwise*
0 Add horizontal line*
21,1,$1,$2,0,0,$3*%
G04 Aperture macros list end*
%TA.AperFunction,ComponentPad*%
%ADD10RoundRect,0.400000X0.750000X-0.100000X0.750000X0.100000X-0.750000X0.100000X-0.750000X-0.100000X0*%
%TD*%
%TA.AperFunction,ComponentPad*%
%ADD11RoundRect,0.450000X0.550000X-0.320000X0.550000X0.320000X-0.550000X0.320000X-0.550000X-0.320000X0*%
%TD*%
%TA.AperFunction,SMDPad,CuDef*%
%ADD12RoundRect,0.200000X-0.200000X-0.275000X0.200000X-0.275000X0.200000X0.275000X-0.200000X0.275000X0*%
%TD*%
%TA.AperFunction,SMDPad,CuDef*%
%ADD13RoundRect,0.200000X0.275000X-0.200000X0.275000X0.200000X-0.275000X0.200000X-0.275000X-0.200000X0*%
%TD*%
%TA.AperFunction,SMDPad,CuDef*%
%ADD14RoundRect,0.200000X-0.275000X0.200000X-0.275000X-0.200000X0.275000X-0.200000X0.275000X0.200000X0*%
%TD*%
%TA.AperFunction,SMDPad,CuDef*%
%ADD15RoundRect,0.150000X-0.150000X0.587500X-0.150000X-0.587500X0.150000X-0.587500X0.150000X0.587500X0*%
%TD*%
%TA.AperFunction,SMDPad,CuDef*%
%ADD16RoundRect,0.150000X0.150000X-0.512500X0.150000X0.512500X-0.150000X0.512500X-0.150000X-0.512500X0*%
%TD*%
%TA.AperFunction,SMDPad,CuDef*%
%ADD17RoundRect,0.225000X-0.225000X-0.250000X0.225000X-0.250000X0.225000X0.250000X-0.225000X0.250000X0*%
%TD*%
%TA.AperFunction,SMDPad,CuDef*%
%ADD18RoundRect,0.250000X1.000000X0.650000X-1.000000X0.650000X-1.000000X-0.650000X1.000000X-0.650000X0*%
%TD*%
%TA.AperFunction,SMDPad,CuDef*%
%ADD19RoundRect,0.225000X0.225000X0.250000X-0.225000X0.250000X-0.225000X-0.250000X0.225000X-0.250000X0*%
%TD*%
%TA.AperFunction,ComponentPad*%
%ADD20RotRect,1.700000X1.700000X225.000000*%
%TD*%
%TA.AperFunction,ComponentPad*%
%ADD21HorizOval,1.700000X0.000000X0.000000X0.000000X0.000000X0*%
%TD*%
%TA.AperFunction,SMDPad,CuDef*%
%ADD22RoundRect,0.225000X0.250000X-0.225000X0.250000X0.225000X-0.250000X0.225000X-0.250000X-0.225000X0*%
%TD*%
%TA.AperFunction,SMDPad,CuDef*%
%ADD23R,0.250000X0.475000*%
%TD*%
%TA.AperFunction,SMDPad,CuDef*%
%ADD24R,0.475000X0.250000*%
%TD*%
%TA.AperFunction,SMDPad,CuDef*%
%ADD25RoundRect,0.200000X-0.053033X0.335876X-0.335876X0.053033X0.053033X-0.335876X0.335876X-0.053033X0*%
%TD*%
%TA.AperFunction,SMDPad,CuDef*%
%ADD26RoundRect,0.200000X-0.335876X-0.053033X-0.053033X-0.335876X0.335876X0.053033X0.053033X0.335876X0*%
%TD*%
%TA.AperFunction,SMDPad,CuDef*%
%ADD27RoundRect,0.050000X-0.285000X-0.100000X0.285000X-0.100000X0.285000X0.100000X-0.285000X0.100000X0*%
%TD*%
%TA.AperFunction,SMDPad,CuDef*%
%ADD28RoundRect,0.200000X0.335876X0.053033X0.053033X0.335876X-0.335876X-0.053033X-0.053033X-0.335876X0*%
%TD*%
%TA.AperFunction,SMDPad,CuDef*%
%ADD29RoundRect,0.150000X0.150000X-0.587500X0.150000X0.587500X-0.150000X0.587500X-0.150000X-0.587500X0*%
%TD*%
%TA.AperFunction,SMDPad,CuDef*%
%ADD30RoundRect,0.200000X0.200000X0.275000X-0.200000X0.275000X-0.200000X-0.275000X0.200000X-0.275000X0*%
%TD*%
%TA.AperFunction,SMDPad,CuDef*%
%ADD31RoundRect,0.062500X-0.375000X-0.062500X0.375000X-0.062500X0.375000X0.062500X-0.375000X0.062500X0*%
%TD*%
%TA.AperFunction,SMDPad,CuDef*%
%ADD32RoundRect,0.062500X-0.062500X-0.375000X0.062500X-0.375000X0.062500X0.375000X-0.062500X0.375000X0*%
%TD*%
%TA.AperFunction,HeatsinkPad*%
%ADD33R,3.450000X3.450000*%
%TD*%
%TA.AperFunction,SMDPad,CuDef*%
%ADD34RoundRect,0.200000X0.053033X-0.335876X0.335876X-0.053033X-0.053033X0.335876X-0.335876X0.053033X0*%
%TD*%
%TA.AperFunction,SMDPad,CuDef*%
%ADD35RoundRect,0.218750X-0.381250X0.218750X-0.381250X-0.218750X0.381250X-0.218750X0.381250X0.218750X0*%
%TD*%
%TA.AperFunction,ComponentPad*%
%ADD36R,1.700000X1.700000*%
%TD*%
%TA.AperFunction,ComponentPad*%
%ADD37O,1.700000X1.700000*%
%TD*%
%TA.AperFunction,SMDPad,CuDef*%
%ADD38RoundRect,0.225000X-0.250000X0.225000X-0.250000X-0.225000X0.250000X-0.225000X0.250000X0.225000X0*%
%TD*%
%TA.AperFunction,SMDPad,CuDef*%
%ADD39RoundRect,0.150000X-0.512500X-0.150000X0.512500X-0.150000X0.512500X0.150000X-0.512500X0.150000X0*%
%TD*%
%TA.AperFunction,SMDPad,CuDef*%
%ADD40RoundRect,0.475000X-2.075000X0.475000X-2.075000X-0.475000X2.075000X-0.475000X2.075000X0.475000X0*%
%TD*%
%TA.AperFunction,ViaPad*%
%ADD41C,0.450000*%
%TD*%
%TA.AperFunction,ViaPad*%
%ADD42C,0.800000*%
%TD*%
%TA.AperFunction,Conductor*%
%ADD43C,0.250000*%
%TD*%
%TA.AperFunction,Conductor*%
%ADD44C,0.750000*%
%TD*%
%TA.AperFunction,Conductor*%
%ADD45C,0.400000*%
%TD*%
%TA.AperFunction,Conductor*%
%ADD46C,0.300000*%
%TD*%
%TA.AperFunction,Conductor*%
%ADD47C,0.200000*%
%TD*%
G04 APERTURE END LIST*
D10*
%TO.P,J1,S1,SHIELD*%
%TO.N,Net-(J1-SHIELD)*%
X60550000Y-46920000D03*
D11*
X55999999Y-46650000D03*
X55999999Y-38550000D03*
D10*
X60550000Y-38280000D03*
%TD*%
D12*
%TO.P,R11,1*%
%TO.N,Net-(U4-FB)*%
X45175000Y-66475000D03*
%TO.P,R11,2*%
%TO.N,GND*%
X46825000Y-66475000D03*
%TD*%
D13*
%TO.P,R1,1*%
%TO.N,+3.3V*%
X56100000Y-57725000D03*
%TO.P,R1,2*%
%TO.N,SWCLK*%
X56100000Y-56075000D03*
%TD*%
D14*
%TO.P,R15,1*%
%TO.N,GND*%
X58500000Y-38250000D03*
%TO.P,R15,2*%
%TO.N,Net-(J1-CC2)*%
X58500000Y-39900000D03*
%TD*%
D15*
%TO.P,Q5,1,G*%
%TO.N,LED4*%
X54250000Y-34062500D03*
%TO.P,Q5,2,S*%
%TO.N,GND*%
X56150000Y-34062500D03*
%TO.P,Q5,3,D*%
%TO.N,Net-(Q5-D)*%
X55200000Y-35937501D03*
%TD*%
D16*
%TO.P,U4,1,SW*%
%TO.N,Net-(D1-A)*%
X50349999Y-64712500D03*
%TO.P,U4,2,GND*%
%TO.N,GND*%
X49400000Y-64712500D03*
%TO.P,U4,3,FB*%
%TO.N,Net-(U4-FB)*%
X48450001Y-64712500D03*
%TO.P,U4,4,EN*%
%TO.N,PWREN*%
X48450001Y-62437500D03*
%TO.P,U4,5,VIN*%
%TO.N,+BATT*%
X49400000Y-62437500D03*
%TO.P,U4,6,FREQ*%
%TO.N,GND*%
X50349999Y-62437500D03*
%TD*%
D17*
%TO.P,C5,1*%
%TO.N,+3.3VA*%
X51625000Y-40175000D03*
%TO.P,C5,2*%
%TO.N,GND*%
X53175000Y-40175000D03*
%TD*%
D18*
%TO.P,D1,1,K*%
%TO.N,+10V*%
X54600000Y-67475000D03*
%TO.P,D1,2,A*%
%TO.N,Net-(D1-A)*%
X50600000Y-67475000D03*
%TD*%
D19*
%TO.P,C4,1*%
%TO.N,GND*%
X53175000Y-54600000D03*
%TO.P,C4,2*%
%TO.N,Net-(U3-VDDCORE)*%
X51625000Y-54600000D03*
%TD*%
D20*
%TO.P,J3,1,Pin_1*%
%TO.N,GND*%
X39812994Y-42000000D03*
D21*
%TO.P,J3,2,Pin_2*%
%TO.N,+10V*%
X41609045Y-43796051D03*
%TO.P,J3,3,Pin_3*%
%TO.N,Tx*%
X43405096Y-45592102D03*
%TO.P,J3,4,Pin_4*%
%TO.N,Rx*%
X45201148Y-47388154D03*
%TD*%
D15*
%TO.P,Q2,1,G*%
%TO.N,LED1*%
X43850000Y-34062500D03*
%TO.P,Q2,2,S*%
%TO.N,GND*%
X45750000Y-34062500D03*
%TO.P,Q2,3,D*%
%TO.N,Net-(Q2-D)*%
X44800000Y-35937501D03*
%TD*%
D13*
%TO.P,R16,1*%
%TO.N,GND*%
X59300000Y-43300000D03*
%TO.P,R16,2*%
%TO.N,Net-(J1-CC1)*%
X59300000Y-41650000D03*
%TD*%
D19*
%TO.P,C6,1*%
%TO.N,+3.3V*%
X56175000Y-40175000D03*
%TO.P,C6,2*%
%TO.N,GND*%
X54625000Y-40175000D03*
%TD*%
%TO.P,C3,1*%
%TO.N,GND*%
X53175000Y-53000000D03*
%TO.P,C3,2*%
%TO.N,Net-(U3-VDDCORE)*%
X51625000Y-53000000D03*
%TD*%
D12*
%TO.P,R5,1*%
%TO.N,Net-(U1-PROG)*%
X45375000Y-62300000D03*
%TO.P,R5,2*%
%TO.N,GND*%
X47025000Y-62300000D03*
%TD*%
D13*
%TO.P,R14,1*%
%TO.N,Net-(J1-SHIELD)*%
X52700000Y-37100000D03*
%TO.P,R14,2*%
%TO.N,GND*%
X52700000Y-35450000D03*
%TD*%
D14*
%TO.P,R9,1*%
%TO.N,Net-(U3-PA06)*%
X39300000Y-57475000D03*
%TO.P,R9,2*%
%TO.N,GND*%
X39300000Y-59125000D03*
%TD*%
D19*
%TO.P,L3,1,1*%
%TO.N,+3.3V*%
X53175000Y-41675000D03*
%TO.P,L3,2,2*%
%TO.N,+3.3VA*%
X51625000Y-41675000D03*
%TD*%
D15*
%TO.P,Q4,1,G*%
%TO.N,LED3*%
X50850000Y-31862500D03*
%TO.P,Q4,2,S*%
%TO.N,GND*%
X52750000Y-31862500D03*
%TO.P,Q4,3,D*%
%TO.N,Net-(Q4-D)*%
X51800000Y-33737501D03*
%TD*%
D14*
%TO.P,R3,1*%
%TO.N,+3.3V*%
X50100000Y-39575000D03*
%TO.P,R3,2*%
%TO.N,SCL*%
X50100000Y-41225000D03*
%TD*%
D22*
%TO.P,C9,1*%
%TO.N,+10V*%
X48300000Y-67950000D03*
%TO.P,C9,2*%
%TO.N,GND*%
X48300000Y-66400000D03*
%TD*%
D23*
%TO.P,U5,1,SA0*%
%TO.N,GND*%
X48500001Y-43300000D03*
%TO.P,U5,2,SDx*%
X48000000Y-43300000D03*
%TO.P,U5,3,SCx*%
X47500000Y-43300000D03*
%TO.P,U5,4,INT1*%
%TO.N,IO1*%
X46999999Y-43300000D03*
D24*
%TO.P,U5,5,VDDIO*%
%TO.N,+3.3V*%
X46750000Y-42550000D03*
%TO.P,U5,6,GND*%
%TO.N,GND*%
X46750000Y-42050000D03*
%TO.P,U5,7,GND*%
X46750000Y-41550000D03*
D23*
%TO.P,U5,8,VDD*%
%TO.N,+3.3V*%
X46999999Y-40800000D03*
%TO.P,U5,9,INT2*%
%TO.N,IO2*%
X47500000Y-40800000D03*
%TO.P,U5,10,OSC_Aux*%
%TO.N,unconnected-(U5-OSC_Aux-Pad10)*%
X48000000Y-40800000D03*
%TO.P,U5,11,SDO_Aux*%
%TO.N,unconnected-(U5-SDO_Aux-Pad11)*%
X48500001Y-40800000D03*
D24*
%TO.P,U5,12,CS*%
%TO.N,+3.3V*%
X48750000Y-41550000D03*
%TO.P,U5,13,SCL*%
%TO.N,SCL*%
X48750000Y-42050000D03*
%TO.P,U5,14,SDA*%
%TO.N,SDA*%
X48750000Y-42550000D03*
%TD*%
D25*
%TO.P,R4,1*%
%TO.N,GND*%
X44383363Y-40616637D03*
%TO.P,R4,2*%
%TO.N,Tx*%
X43216637Y-41783363D03*
%TD*%
D26*
%TO.P,R2,1*%
%TO.N,+3.3V*%
X45216637Y-43816637D03*
%TO.P,R2,2*%
%TO.N,SDA*%
X46383363Y-44983363D03*
%TD*%
D17*
%TO.P,C2,1*%
%TO.N,+BATT*%
X40825000Y-59537500D03*
%TO.P,C2,2*%
%TO.N,GND*%
X42375000Y-59537500D03*
%TD*%
%TO.P,C7,1*%
%TO.N,+3.3V*%
X40825000Y-63675000D03*
%TO.P,C7,2*%
%TO.N,GND*%
X42375000Y-63675000D03*
%TD*%
D27*
%TO.P,U2,1,VOUT*%
%TO.N,+3.3V*%
X40660000Y-62387500D03*
%TO.P,U2,2,LX2*%
%TO.N,Net-(U2-LX2)*%
X40660000Y-61887500D03*
%TO.P,U2,3,LX1*%
%TO.N,Net-(U2-LX1)*%
X40660000Y-61387500D03*
%TO.P,U2,4,VIN*%
%TO.N,+BATT*%
X40660000Y-60887500D03*
%TO.P,U2,5,EN*%
X42140000Y-60887500D03*
%TO.P,U2,6,MODE*%
%TO.N,GND*%
X42140000Y-61387500D03*
%TO.P,U2,7,GND*%
X42140000Y-61887500D03*
%TO.P,U2,8,FB*%
%TO.N,Net-(U2-FB)*%
X42140000Y-62387500D03*
%TD*%
D28*
%TO.P,R20,1*%
%TO.N,Net-(D5-K)*%
X58583363Y-33583363D03*
%TO.P,R20,2*%
%TO.N,Net-(Q5-D)*%
X57416637Y-32416637D03*
%TD*%
D29*
%TO.P,Q1,1,G*%
%TO.N,PWREN*%
X46450000Y-53075001D03*
%TO.P,Q1,2,S*%
%TO.N,GND*%
X44550000Y-53075001D03*
%TO.P,Q1,3,D*%
%TO.N,Net-(Q1-D)*%
X45500000Y-51200000D03*
%TD*%
D12*
%TO.P,R18,1*%
%TO.N,Net-(D3-K)*%
X46175000Y-30000000D03*
%TO.P,R18,2*%
%TO.N,Net-(Q3-D)*%
X47825000Y-30000000D03*
%TD*%
D17*
%TO.P,C10,1*%
%TO.N,GND*%
X47075000Y-39550000D03*
%TO.P,C10,2*%
%TO.N,+3.3V*%
X48625000Y-39550000D03*
%TD*%
D22*
%TO.P,C11,1*%
%TO.N,Net-(J1-SHIELD)*%
X51200000Y-37050000D03*
%TO.P,C11,2*%
%TO.N,GND*%
X51200000Y-35500000D03*
%TD*%
D17*
%TO.P,C8,1*%
%TO.N,+3.3VA*%
X51625000Y-38675000D03*
%TO.P,C8,2*%
%TO.N,GND*%
X53175000Y-38675000D03*
%TD*%
D12*
%TO.P,R13,1*%
%TO.N,VBUS_S*%
X54575000Y-54600000D03*
%TO.P,R13,2*%
%TO.N,GND*%
X56225000Y-54600000D03*
%TD*%
D30*
%TO.P,R10,1*%
%TO.N,+10V*%
X46825000Y-67975000D03*
%TO.P,R10,2*%
%TO.N,Net-(U4-FB)*%
X45175000Y-67975000D03*
%TD*%
%TO.P,R12,1*%
%TO.N,VBUS*%
X56225000Y-53000000D03*
%TO.P,R12,2*%
%TO.N,VBUS_S*%
X54575000Y-53000000D03*
%TD*%
%TO.P,R21,1*%
%TO.N,PWREN*%
X46325000Y-54837501D03*
%TO.P,R21,2*%
%TO.N,GND*%
X44675000Y-54837501D03*
%TD*%
D20*
%TO.P,BT1,1,+*%
%TO.N,+BATT*%
X40400000Y-37400000D03*
D21*
%TO.P,BT1,2,-*%
%TO.N,GND*%
X42196051Y-39196051D03*
%TD*%
D19*
%TO.P,L1,1,1*%
%TO.N,Net-(U3-VDDCORE)*%
X50175000Y-54200000D03*
%TO.P,L1,2,2*%
%TO.N,Net-(U3-VSW)*%
X48625000Y-54200000D03*
%TD*%
D13*
%TO.P,R6,1*%
%TO.N,+3.3V*%
X43900000Y-63862499D03*
%TO.P,R6,2*%
%TO.N,Net-(U2-FB)*%
X43900000Y-62212499D03*
%TD*%
D31*
%TO.P,U3,1,PA00*%
%TO.N,CE*%
X48562500Y-50250000D03*
%TO.P,U3,2,PA01*%
%TO.N,unconnected-(U3-PA01-Pad2)*%
X48562500Y-49750000D03*
%TO.P,U3,3,PA02*%
%TO.N,AX*%
X48562500Y-49250000D03*
%TO.P,U3,4,PA03*%
%TO.N,AY*%
X48562500Y-48750000D03*
%TO.P,U3,5,PA04*%
%TO.N,SDA*%
X48562500Y-48250000D03*
%TO.P,U3,6,PA05*%
%TO.N,SCL*%
X48562500Y-47750000D03*
%TO.P,U3,7,PA06*%
%TO.N,Net-(U3-PA06)*%
X48562500Y-47250000D03*
%TO.P,U3,8,PA07*%
%TO.N,VBUS_S*%
X48562500Y-46750000D03*
D32*
%TO.P,U3,9,VDDANA*%
%TO.N,+3.3VA*%
X49250000Y-46062500D03*
%TO.P,U3,10,GND*%
%TO.N,GND*%
X49750000Y-46062500D03*
%TO.P,U3,11,PA08*%
%TO.N,LED1*%
X50250000Y-46062500D03*
%TO.P,U3,12,PA09*%
%TO.N,LED2*%
X50750000Y-46062500D03*
%TO.P,U3,13,PA10*%
%TO.N,LED3*%
X51250000Y-46062500D03*
%TO.P,U3,14,PA11*%
%TO.N,LED4*%
X51750000Y-46062500D03*
%TO.P,U3,15,PA14*%
%TO.N,unconnected-(U3-PA14-Pad15)*%
X52250000Y-46062500D03*
%TO.P,U3,16,PA15*%
%TO.N,unconnected-(U3-PA15-Pad16)*%
X52750000Y-46062500D03*
D31*
%TO.P,U3,17,PA16*%
%TO.N,Tx*%
X53437500Y-46750000D03*
%TO.P,U3,18,PA17*%
%TO.N,Rx*%
X53437500Y-47250000D03*
%TO.P,U3,19,PA18*%
%TO.N,IO1*%
X53437500Y-47750000D03*
%TO.P,U3,20,PA19*%
%TO.N,IO2*%
X53437500Y-48250000D03*
%TO.P,U3,21,PA22*%
%TO.N,BTN1*%
X53437500Y-48750000D03*
%TO.P,U3,22,PA23*%
%TO.N,BTN2*%
X53437500Y-49250000D03*
%TO.P,U3,23,PA24*%
%TO.N,USB_D-*%
X53437500Y-49750000D03*
%TO.P,U3,24,PA25*%
%TO.N,USB_D+*%
X53437500Y-50250000D03*
D32*
%TO.P,U3,25,PA27*%
%TO.N,PWREN*%
X52750000Y-50937500D03*
%TO.P,U3,26,~{RESET}*%
%TO.N,~{RESET}*%
X52250000Y-50937500D03*
%TO.P,U3,27,VDDCORE*%
%TO.N,Net-(U3-VDDCORE)*%
X51750000Y-50937500D03*
%TO.P,U3,28,GND*%
%TO.N,GND*%
X51250000Y-50937500D03*
%TO.P,U3,29,VSW*%
%TO.N,Net-(U3-VSW)*%
X50750000Y-50937500D03*
%TO.P,U3,30,VDDIN*%
%TO.N,+3.3V*%
X50250000Y-50937500D03*
%TO.P,U3,31,PA30*%
%TO.N,SWCLK*%
X49750000Y-50937500D03*
%TO.P,U3,32,PA31*%
%TO.N,SWDIO*%
X49250000Y-50937500D03*
D33*
%TO.P,U3,33,GND*%
%TO.N,GND*%
X51000000Y-48500000D03*
%TD*%
D15*
%TO.P,Q3,1,G*%
%TO.N,LED2*%
X47250000Y-31862500D03*
%TO.P,Q3,2,S*%
%TO.N,GND*%
X49150000Y-31862500D03*
%TO.P,Q3,3,D*%
%TO.N,Net-(Q3-D)*%
X48200000Y-33737501D03*
%TD*%
D34*
%TO.P,R17,1*%
%TO.N,Net-(D2-K)*%
X41416637Y-33583363D03*
%TO.P,R17,2*%
%TO.N,Net-(Q2-D)*%
X42583363Y-32416637D03*
%TD*%
D30*
%TO.P,R19,1*%
%TO.N,Net-(D4-K)*%
X53825000Y-30000000D03*
%TO.P,R19,2*%
%TO.N,Net-(Q4-D)*%
X52175000Y-30000000D03*
%TD*%
D35*
%TO.P,L2,1,1*%
%TO.N,Net-(U2-LX1)*%
X39200000Y-60612500D03*
%TO.P,L2,2,2*%
%TO.N,Net-(U2-LX2)*%
X39200000Y-62737500D03*
%TD*%
D36*
%TO.P,J2,1,Pin_1*%
%TO.N,GND*%
X59500000Y-63854999D03*
D37*
%TO.P,J2,2,Pin_2*%
%TO.N,+3.3V*%
X59500000Y-61314999D03*
%TO.P,J2,3,Pin_3*%
%TO.N,~{RESET}*%
X59500000Y-58775000D03*
%TO.P,J2,4,Pin_4*%
%TO.N,SWCLK*%
X59500000Y-56234999D03*
%TO.P,J2,5,Pin_5*%
%TO.N,SWDIO*%
X59500000Y-53694999D03*
%TD*%
D38*
%TO.P,C1,1*%
%TO.N,VBUS*%
X48000000Y-59200000D03*
%TO.P,C1,2*%
%TO.N,GND*%
X48000000Y-60750000D03*
%TD*%
D39*
%TO.P,U1,1,CE*%
%TO.N,CE*%
X44062500Y-60749999D03*
%TO.P,U1,2,V_{SS}*%
%TO.N,GND*%
X44062500Y-59800000D03*
%TO.P,U1,3,V_{BAT}*%
%TO.N,+BATT*%
X44062500Y-58850001D03*
%TO.P,U1,4,V_{DD}*%
%TO.N,VBUS*%
X46337500Y-58850001D03*
%TO.P,U1,5,PROG*%
%TO.N,Net-(U1-PROG)*%
X46337500Y-60749999D03*
%TD*%
D12*
%TO.P,R7,1*%
%TO.N,Net-(U2-FB)*%
X45375000Y-63775000D03*
%TO.P,R7,2*%
%TO.N,GND*%
X47025000Y-63775000D03*
%TD*%
D14*
%TO.P,R8,1*%
%TO.N,+BATT*%
X41400000Y-55375000D03*
%TO.P,R8,2*%
%TO.N,Net-(U3-PA06)*%
X41400000Y-57025000D03*
%TD*%
D40*
%TO.P,L4,1,1*%
%TO.N,+BATT*%
X54400000Y-60275000D03*
%TO.P,L4,2,2*%
%TO.N,Net-(D1-A)*%
X54400000Y-64475000D03*
%TD*%
D41*
%TO.N,LED1*%
X52100000Y-43600000D03*
X43800000Y-35400000D03*
%TO.N,BTN1*%
X54925676Y-48861926D03*
%TO.N,+3.3V*%
X41800000Y-65800000D03*
X49600000Y-38700000D03*
X40825000Y-64825000D03*
X44500000Y-64800000D03*
X42300000Y-66300000D03*
X43400000Y-31600000D03*
X45000000Y-42300000D03*
X49000000Y-52500000D03*
X38300000Y-59073294D03*
X50000000Y-30000000D03*
X41300000Y-65300000D03*
X52333822Y-40875000D03*
X56600000Y-31600000D03*
D42*
%TO.N,GND*%
X43500000Y-67500000D03*
X50000000Y-37000000D03*
X61500000Y-41100000D03*
D41*
X47250000Y-44350000D03*
D42*
X51000000Y-70000000D03*
X52400000Y-62400000D03*
X51500000Y-57600000D03*
D41*
X46300000Y-49700000D03*
X44500000Y-51100000D03*
D42*
X40500000Y-34500000D03*
X45000000Y-32000000D03*
D41*
X57300000Y-54900000D03*
X51200000Y-52000000D03*
D42*
X43500000Y-65500000D03*
X45000000Y-39500000D03*
D41*
X51778439Y-43064065D03*
D42*
X56400000Y-62400000D03*
X54400000Y-62400000D03*
D41*
X50400000Y-53000000D03*
D42*
X39000000Y-55000000D03*
D41*
X52300000Y-42600000D03*
D42*
X50000000Y-70000000D03*
X55000000Y-51500000D03*
D41*
X46050000Y-41650000D03*
D42*
X59500000Y-36500000D03*
X54200000Y-57600000D03*
X43500000Y-66500000D03*
X55400000Y-62400000D03*
X49000000Y-70000000D03*
X55000000Y-32000000D03*
D41*
X50200000Y-55300000D03*
D42*
X53400000Y-62400000D03*
X39000000Y-53000000D03*
D41*
%TO.N,+BATT*%
X45200000Y-58000000D03*
%TO.N,BTN2*%
X54400000Y-49200000D03*
%TO.N,Net-(D2-K)*%
X42400000Y-34200000D03*
%TO.N,LED2*%
X52500000Y-44200000D03*
X47300000Y-33200000D03*
%TO.N,Net-(D3-K)*%
X45900000Y-31100000D03*
%TO.N,+10V*%
X41300000Y-46200000D03*
%TO.N,Net-(D4-K)*%
X53900000Y-31100000D03*
%TO.N,Net-(D5-K)*%
X57600000Y-34200000D03*
%TO.N,VBUS*%
X48900000Y-59800000D03*
X57100000Y-53000000D03*
%TO.N,LED3*%
X50900000Y-33300000D03*
X53600000Y-45100000D03*
%TO.N,LED4*%
X54200000Y-35500000D03*
X53300000Y-46000000D03*
%TO.N,USB_D+*%
X54381602Y-42802288D03*
X57900000Y-42375000D03*
%TO.N,USB_D-*%
X57900000Y-43025003D03*
X53835855Y-43106901D03*
%TO.N,Rx*%
X54402750Y-46900000D03*
%TO.N,Tx*%
X54400000Y-46100000D03*
%TO.N,Net-(J1-CC2)*%
X58400000Y-41100000D03*
%TO.N,Net-(J1-CC1)*%
X54200000Y-43900000D03*
%TO.N,PWREN*%
X49000000Y-61000000D03*
X53300000Y-51600000D03*
X47100000Y-55600000D03*
%TO.N,VBUS_S*%
X55400000Y-53000000D03*
X47700000Y-46574997D03*
%TO.N,Net-(U3-PA06)*%
X40300000Y-54300000D03*
X47700000Y-47200000D03*
%TO.N,AY*%
X47200000Y-48900000D03*
%TO.N,AX*%
X47500000Y-49500000D03*
%TO.N,CE*%
X45200000Y-59800000D03*
X47700000Y-50500000D03*
%TO.N,IO2*%
X47000000Y-38500000D03*
X55600000Y-49100000D03*
%TO.N,IO1*%
X54300000Y-47700000D03*
X45400000Y-45500000D03*
%TO.N,Net-(Q1-D)*%
X46800000Y-56200000D03*
%TD*%
D43*
%TO.N,Net-(J1-SHIELD)*%
X52650000Y-37050000D02*
X52700000Y-37100000D01*
X54550000Y-38950000D02*
X52700000Y-37100000D01*
X51200000Y-37050000D02*
X52650000Y-37050000D01*
X55999999Y-38950000D02*
X54550000Y-38950000D01*
%TO.N,~{RESET}*%
X61100000Y-53700000D02*
X61100000Y-57175000D01*
X61100000Y-57175000D02*
X59500000Y-58775000D01*
X59600000Y-52200000D02*
X61100000Y-53700000D01*
X52600000Y-52200000D02*
X59600000Y-52200000D01*
X52250000Y-50937500D02*
X52250000Y-51850000D01*
X52250000Y-51850000D02*
X52600000Y-52200000D01*
%TO.N,Net-(U3-VDDCORE)*%
X51750000Y-50937500D02*
X51750000Y-52875000D01*
X50175000Y-54200000D02*
X50425000Y-54200000D01*
X51625000Y-53000000D02*
X51625000Y-54600000D01*
X50425000Y-54200000D02*
X51625000Y-53000000D01*
X51750000Y-52875000D02*
X51625000Y-53000000D01*
%TO.N,LED1*%
X51300000Y-43600000D02*
X50250000Y-44650000D01*
X43850000Y-35350000D02*
X43800000Y-35400000D01*
X43850000Y-34062500D02*
X43850000Y-35350000D01*
X52100000Y-43600000D02*
X51300000Y-43600000D01*
X50250000Y-44650000D02*
X50250000Y-46062500D01*
D44*
%TO.N,Net-(D1-A)*%
X54162500Y-64712500D02*
X54400000Y-64475000D01*
X50349999Y-67224999D02*
X50600000Y-67475000D01*
X50349999Y-64712500D02*
X50349999Y-67224999D01*
X50349999Y-64712500D02*
X54162500Y-64712500D01*
D43*
%TO.N,BTN1*%
X54737750Y-48674000D02*
X53513500Y-48674000D01*
X53513500Y-48674000D02*
X53437500Y-48750000D01*
X54925676Y-48861926D02*
X54737750Y-48674000D01*
%TO.N,+3.3V*%
X46100000Y-42550000D02*
X46150000Y-42550000D01*
X48650000Y-39575000D02*
X48625000Y-39550000D01*
D45*
X41800000Y-65800000D02*
X42300000Y-66300000D01*
D43*
X46750000Y-42550000D02*
X47237500Y-42550000D01*
X48951001Y-41348999D02*
X48750000Y-41550000D01*
X44500000Y-64800000D02*
X44200000Y-64800000D01*
X50100000Y-39575000D02*
X48650000Y-39575000D01*
X43900000Y-64500000D02*
X43900000Y-63862499D01*
X50250000Y-51495966D02*
X49245966Y-52500000D01*
D45*
X40825000Y-63675000D02*
X40825000Y-64825000D01*
D46*
X40660000Y-62387500D02*
X40660000Y-63510000D01*
D43*
X46999999Y-40800000D02*
X46000000Y-40800000D01*
X53175000Y-41675000D02*
X53452000Y-41398000D01*
X45050000Y-42300000D02*
X45000000Y-42300000D01*
X46150000Y-42550000D02*
X46750000Y-42550000D01*
X48625000Y-39550000D02*
X48951001Y-39876001D01*
X45450000Y-41900000D02*
X45050000Y-42300000D01*
X50100000Y-39200000D02*
X49600000Y-38700000D01*
X56500000Y-57625000D02*
X56600000Y-57725000D01*
X52700000Y-41675000D02*
X53175000Y-41675000D01*
X50250000Y-50937500D02*
X50250000Y-51495966D01*
X47237500Y-42550000D02*
X48237500Y-41550000D01*
X50100000Y-39575000D02*
X50100000Y-39200000D01*
D45*
X41300000Y-65300000D02*
X41800000Y-65800000D01*
D46*
X40660000Y-63510000D02*
X40825000Y-63675000D01*
D45*
X40825000Y-64825000D02*
X41300000Y-65300000D01*
D43*
X56900000Y-57725000D02*
X58177000Y-59002000D01*
X49245966Y-52500000D02*
X49000000Y-52500000D01*
X52333822Y-40875000D02*
X52400000Y-40941178D01*
X58177000Y-59991999D02*
X59500000Y-61314999D01*
X45450000Y-41900000D02*
X46100000Y-42550000D01*
X58177000Y-59002000D02*
X58177000Y-59991999D01*
X44200000Y-64800000D02*
X43900000Y-64500000D01*
X45450000Y-41350000D02*
X45450000Y-41900000D01*
X45066637Y-43633363D02*
X46150000Y-42550000D01*
X48237500Y-41550000D02*
X48750000Y-41550000D01*
X46000000Y-40800000D02*
X45450000Y-41350000D01*
X54952000Y-41398000D02*
X56175000Y-40175000D01*
X53452000Y-41398000D02*
X54952000Y-41398000D01*
X56600000Y-57725000D02*
X56900000Y-57725000D01*
X52400000Y-41375000D02*
X52700000Y-41675000D01*
X52400000Y-40941178D02*
X52400000Y-41375000D01*
X56100000Y-57725000D02*
X56200000Y-57625000D01*
X56200000Y-57625000D02*
X56500000Y-57625000D01*
X48951001Y-39876001D02*
X48951001Y-41348999D01*
%TO.N,GND*%
X53175000Y-38675000D02*
X53175000Y-40175000D01*
X53175000Y-40175000D02*
X54625000Y-40175000D01*
X49750000Y-44551300D02*
X49750000Y-46062500D01*
D47*
X51778439Y-43064065D02*
X51835935Y-43064065D01*
D43*
X51237235Y-43064065D02*
X49750000Y-44551300D01*
X51778439Y-43064065D02*
X51237235Y-43064065D01*
D47*
X51835935Y-43064065D02*
X52300000Y-42600000D01*
D44*
%TO.N,+BATT*%
X39700000Y-38100000D02*
X39700000Y-40000000D01*
D47*
X41400000Y-55375000D02*
X42675000Y-55375000D01*
D44*
X49800000Y-61364833D02*
X49400000Y-61764833D01*
X37976000Y-41976000D02*
X37977952Y-41977952D01*
X42700000Y-55400000D02*
X42700000Y-58000000D01*
X41600000Y-58000000D02*
X42400000Y-58000000D01*
D47*
X44700000Y-61400000D02*
X45200000Y-60900000D01*
D44*
X39700000Y-40000000D02*
X37976000Y-41724000D01*
X40400000Y-46600000D02*
X42700000Y-48900000D01*
D47*
X45200000Y-60900000D02*
X45200000Y-60508521D01*
X45200000Y-60508521D02*
X45701000Y-60007521D01*
X45701000Y-59592479D02*
X45504260Y-59395739D01*
D44*
X49400000Y-61764833D02*
X49400000Y-62437500D01*
D47*
X42800000Y-60900000D02*
X43300000Y-61400000D01*
D44*
X40825000Y-58775000D02*
X41600000Y-58000000D01*
X54400000Y-60275000D02*
X49925000Y-60275000D01*
X40400000Y-37400000D02*
X39700000Y-38100000D01*
D47*
X45701000Y-60007521D02*
X45701000Y-59592479D01*
D44*
X49800000Y-60400000D02*
X49800000Y-61364833D01*
D47*
X42140000Y-60887500D02*
X42152500Y-60900000D01*
D44*
X40825000Y-59537500D02*
X40825000Y-58775000D01*
D45*
X44062500Y-58000000D02*
X44062500Y-58825001D01*
D47*
X42152500Y-60900000D02*
X42800000Y-60900000D01*
D44*
X42400000Y-58000000D02*
X44062500Y-58000000D01*
X37977952Y-42377952D02*
X40400000Y-44800000D01*
X49925000Y-60275000D02*
X49800000Y-60400000D01*
D47*
X43300000Y-61400000D02*
X44700000Y-61400000D01*
D44*
X44062500Y-58000000D02*
X45200000Y-58000000D01*
D47*
X45200000Y-59100000D02*
X45500000Y-59400000D01*
D45*
X40825000Y-59537500D02*
X40660000Y-59702500D01*
X40660000Y-59702500D02*
X40660000Y-60887500D01*
D44*
X37976000Y-41724000D02*
X37976000Y-41976000D01*
X40400000Y-44800000D02*
X40400000Y-46600000D01*
X42700000Y-48900000D02*
X42700000Y-55400000D01*
X37977952Y-41977952D02*
X37977952Y-42377952D01*
X49800000Y-59456692D02*
X49800000Y-60400000D01*
X48343308Y-58000000D02*
X49800000Y-59456692D01*
X45200000Y-58000000D02*
X48343308Y-58000000D01*
D47*
X42675000Y-55375000D02*
X42700000Y-55400000D01*
X45200000Y-58000000D02*
X45200000Y-59100000D01*
D43*
%TO.N,+3.3VA*%
X49250000Y-44484200D02*
X51625000Y-42109200D01*
X51625000Y-42109200D02*
X51625000Y-41675000D01*
X51625000Y-40175000D02*
X51625000Y-41675000D01*
X51625000Y-38675000D02*
X51625000Y-40175000D01*
X49250000Y-46062500D02*
X49250000Y-44484200D01*
%TO.N,BTN2*%
X54350000Y-49250000D02*
X53437500Y-49250000D01*
X54400000Y-49200000D02*
X54350000Y-49250000D01*
D47*
%TO.N,Net-(D2-K)*%
X41783363Y-33583363D02*
X42400000Y-34200000D01*
X41416637Y-33583363D02*
X41783363Y-33583363D01*
D43*
%TO.N,LED2*%
X47250000Y-31862500D02*
X47250000Y-33150000D01*
X51500000Y-44200000D02*
X50750000Y-44950000D01*
X52500000Y-44200000D02*
X51500000Y-44200000D01*
X47250000Y-33150000D02*
X47300000Y-33200000D01*
X50750000Y-44950000D02*
X50750000Y-46062500D01*
D47*
%TO.N,Net-(D3-K)*%
X46175000Y-30825000D02*
X46175000Y-30000000D01*
X45900000Y-31100000D02*
X46175000Y-30825000D01*
D46*
%TO.N,+10V*%
X46825000Y-67975000D02*
X48275000Y-67975000D01*
D44*
X51902462Y-58800000D02*
X51903462Y-58799000D01*
X41300000Y-46200000D02*
X43600000Y-48500000D01*
X51903462Y-58799000D02*
X56896538Y-58799000D01*
X41609045Y-44009045D02*
X41609045Y-43796051D01*
X41300000Y-44318090D02*
X41609045Y-44009045D01*
X41300000Y-46200000D02*
X41300000Y-44318090D01*
D46*
X49026000Y-68676000D02*
X53399000Y-68676000D01*
D44*
X56896538Y-58799000D02*
X57476000Y-59378462D01*
X57476000Y-59378462D02*
X57476000Y-65849000D01*
X57476000Y-65849000D02*
X55850000Y-67475000D01*
D46*
X48275000Y-67975000D02*
X48300000Y-67950000D01*
D44*
X48716515Y-57099001D02*
X50417514Y-58800000D01*
X43600000Y-48500000D02*
X43600000Y-57099001D01*
D46*
X53399000Y-68676000D02*
X54600000Y-67475000D01*
D44*
X43600000Y-57099001D02*
X48716515Y-57099001D01*
X50417514Y-58800000D02*
X51902462Y-58800000D01*
X55850000Y-67475000D02*
X54600000Y-67475000D01*
D46*
X48300000Y-67950000D02*
X49026000Y-68676000D01*
D47*
%TO.N,Net-(D4-K)*%
X53900000Y-31100000D02*
X53825000Y-31025000D01*
X53825000Y-31025000D02*
X53825000Y-30000000D01*
%TO.N,Net-(D5-K)*%
X58216637Y-33583363D02*
X57600000Y-34200000D01*
X58583363Y-33583363D02*
X58216637Y-33583363D01*
D46*
%TO.N,VBUS*%
X46337500Y-58825001D02*
X47400000Y-58825001D01*
D47*
X48900000Y-59800000D02*
X48600000Y-59800000D01*
D46*
X47625001Y-58825001D02*
X48000000Y-59200000D01*
X47400000Y-58825001D02*
X47625001Y-58825001D01*
D43*
X57100000Y-53000000D02*
X56225000Y-53000000D01*
D47*
X48600000Y-59800000D02*
X48000000Y-59200000D01*
%TO.N,Net-(Q2-D)*%
X44800000Y-35937501D02*
X44800000Y-33400000D01*
X44800000Y-33400000D02*
X43816637Y-32416637D01*
X43816637Y-32416637D02*
X42583363Y-32416637D01*
%TO.N,Net-(Q3-D)*%
X48100000Y-30275000D02*
X47825000Y-30000000D01*
X48100000Y-33637501D02*
X48100000Y-30275000D01*
X48200000Y-33737501D02*
X48100000Y-33637501D01*
D43*
%TO.N,LED3*%
X51600988Y-44799012D02*
X51250000Y-45150000D01*
X53299012Y-44799012D02*
X51600988Y-44799012D01*
X50850000Y-31862500D02*
X50850000Y-33250000D01*
X53600000Y-45100000D02*
X53299012Y-44799012D01*
X51250000Y-45150000D02*
X51250000Y-46062500D01*
X50850000Y-33250000D02*
X50900000Y-33300000D01*
D47*
%TO.N,Net-(Q4-D)*%
X51800000Y-33737501D02*
X51900000Y-33637501D01*
X51900000Y-33637501D02*
X51900000Y-30275000D01*
X51900000Y-30275000D02*
X52175000Y-30000000D01*
D43*
%TO.N,LED4*%
X53300000Y-46000000D02*
X53300000Y-45600000D01*
X51750000Y-45350000D02*
X51750000Y-46062500D01*
X51899988Y-45200012D02*
X51750000Y-45350000D01*
X52900012Y-45200012D02*
X51899988Y-45200012D01*
X54250000Y-35450000D02*
X54200000Y-35500000D01*
X54250000Y-34062500D02*
X54250000Y-35450000D01*
X53300000Y-45600000D02*
X52900012Y-45200012D01*
D47*
%TO.N,Net-(Q5-D)*%
X55200000Y-35937501D02*
X55200000Y-33400000D01*
X55200000Y-33400000D02*
X56183363Y-32416637D01*
X56183363Y-32416637D02*
X57416637Y-32416637D01*
D43*
%TO.N,USB_D+*%
X57647725Y-48552275D02*
X58426000Y-47774000D01*
X56815433Y-49384564D02*
X57018612Y-49181387D01*
X58426000Y-47774000D02*
X58426000Y-42701000D01*
X54883178Y-42802288D02*
X54381602Y-42802288D01*
X53437500Y-50250000D02*
X55950000Y-50250000D01*
X55950000Y-50250000D02*
X56170084Y-50029916D01*
X58100000Y-42375000D02*
X55310466Y-42375000D01*
X57018612Y-49181387D02*
X57647725Y-48552275D01*
X58426000Y-42701000D02*
X58100000Y-42375000D01*
X56612256Y-50029916D02*
X56815433Y-49826738D01*
X55310466Y-42375000D02*
X54883178Y-42802288D01*
X56391170Y-50029916D02*
G75*
G03*
X56612256Y-50029916I110543J110544D01*
G01*
X56815433Y-49826738D02*
G75*
G03*
X56815428Y-49605657I-110533J110538D01*
G01*
X56170084Y-50029916D02*
G75*
G02*
X56391170Y-50029916I110543J-110544D01*
G01*
X56815433Y-49605651D02*
G75*
G02*
X56815425Y-49384557I110567J110551D01*
G01*
%TO.N,USB_D-*%
X54971712Y-43328288D02*
X55524000Y-42776000D01*
X57900000Y-43025003D02*
X58025000Y-43150003D01*
X55524000Y-42776000D02*
X57557123Y-42776000D01*
X53835855Y-43106901D02*
X54057242Y-43328288D01*
X54057242Y-43328288D02*
X54971712Y-43328288D01*
X58025000Y-47607900D02*
X55882900Y-49750000D01*
X57806126Y-43025003D02*
X57900000Y-43025003D01*
X58025000Y-43150003D02*
X58025000Y-47607900D01*
X57557123Y-42776000D02*
X57806126Y-43025003D01*
X55882900Y-49750000D02*
X53437500Y-49750000D01*
%TO.N,Rx*%
X53513500Y-47174000D02*
X53437500Y-47250000D01*
X54128750Y-47174000D02*
X53513500Y-47174000D01*
X54402750Y-46900000D02*
X54128750Y-47174000D01*
%TO.N,Tx*%
X54400000Y-46100000D02*
X53750000Y-46750000D01*
X53750000Y-46750000D02*
X53437500Y-46750000D01*
X43216637Y-41983363D02*
X43405096Y-42171822D01*
X43405096Y-42171822D02*
X43405096Y-45592102D01*
X43216637Y-41783363D02*
X43216637Y-41983363D01*
%TO.N,SWCLK*%
X47601000Y-52999000D02*
X47601000Y-54433900D01*
X49308156Y-51800000D02*
X48800000Y-51800000D01*
X47601000Y-54433900D02*
X49242100Y-56075000D01*
X49750000Y-50937500D02*
X49750000Y-51358156D01*
X48800000Y-51800000D02*
X47601000Y-52999000D01*
X49242100Y-56075000D02*
X56100000Y-56075000D01*
X59340001Y-56075000D02*
X59500000Y-56234999D01*
X49750000Y-51358156D02*
X49308156Y-51800000D01*
X56100000Y-56075000D02*
X59340001Y-56075000D01*
%TO.N,SWDIO*%
X60700000Y-54894999D02*
X60700000Y-56900000D01*
X47200000Y-52800000D02*
X49062500Y-50937500D01*
X56799709Y-56800000D02*
X49400000Y-56800000D01*
X49400000Y-56800000D02*
X47200000Y-54600000D01*
X60700000Y-56900000D02*
X60100000Y-57500000D01*
X59500000Y-53694999D02*
X60700000Y-54894999D01*
X47200000Y-54600000D02*
X47200000Y-52800000D01*
X60100000Y-57500000D02*
X57499709Y-57500000D01*
X49062500Y-50937500D02*
X49250000Y-50937500D01*
X57499709Y-57500000D02*
X56799709Y-56800000D01*
%TO.N,Net-(J1-CC2)*%
X58400000Y-40000000D02*
X58500000Y-39900000D01*
X58400000Y-41100000D02*
X58400000Y-40000000D01*
%TO.N,Net-(J1-CC1)*%
X54723712Y-42276288D02*
X53922591Y-42276288D01*
X59300000Y-41650000D02*
X55350000Y-41650000D01*
X53885077Y-43900000D02*
X54200000Y-43900000D01*
X53922591Y-42276288D02*
X53309855Y-42889024D01*
X53309855Y-42889024D02*
X53309855Y-43324778D01*
X53309855Y-43324778D02*
X53885077Y-43900000D01*
X55350000Y-41650000D02*
X54723712Y-42276288D01*
%TO.N,Net-(U3-VSW)*%
X50750000Y-50937500D02*
X50750000Y-51650000D01*
X50750000Y-51650000D02*
X48625000Y-53775000D01*
X48625000Y-53775000D02*
X48625000Y-54200000D01*
D46*
%TO.N,Net-(U2-LX2)*%
X40050000Y-61887500D02*
X39200000Y-62737500D01*
X40660000Y-61887500D02*
X40050000Y-61887500D01*
%TO.N,Net-(U2-LX1)*%
X40660000Y-61387500D02*
X39975000Y-61387500D01*
X39975000Y-61387500D02*
X39200000Y-60612500D01*
D43*
%TO.N,PWREN*%
X46325000Y-54837501D02*
X46337501Y-54837501D01*
D47*
X48450001Y-62437500D02*
X48450001Y-61549999D01*
D43*
X46337501Y-54837501D02*
X47100000Y-55600000D01*
X46450000Y-54712501D02*
X46450000Y-53075001D01*
D47*
X48450001Y-61549999D02*
X49000000Y-61000000D01*
D43*
X52750000Y-50937500D02*
X52750000Y-51050000D01*
X52750000Y-51050000D02*
X53300000Y-51600000D01*
X46325000Y-54837501D02*
X46450000Y-54712501D01*
%TO.N,VBUS_S*%
X47700000Y-46574997D02*
X48387497Y-46574997D01*
X54575000Y-53000000D02*
X54575000Y-54600000D01*
X48387497Y-46574997D02*
X48562500Y-46750000D01*
X55400000Y-53000000D02*
X54575000Y-53000000D01*
D46*
%TO.N,Net-(U2-FB)*%
X43724999Y-62387500D02*
X43900000Y-62212499D01*
X43900000Y-62212499D02*
X43900000Y-62300000D01*
X42140000Y-62387500D02*
X43724999Y-62387500D01*
X43900000Y-62300000D02*
X45375000Y-63775000D01*
D43*
%TO.N,Net-(U3-PA06)*%
X40300000Y-57025000D02*
X39850000Y-57475000D01*
X48512500Y-47200000D02*
X48562500Y-47250000D01*
X47700000Y-47200000D02*
X48512500Y-47200000D01*
X41400000Y-57025000D02*
X40300000Y-57025000D01*
X39850000Y-57475000D02*
X39300000Y-57475000D01*
X40300000Y-57025000D02*
X40300000Y-54300000D01*
D46*
%TO.N,Net-(U4-FB)*%
X45175000Y-66475000D02*
X45175000Y-67975000D01*
X46100000Y-65300000D02*
X45175000Y-66225000D01*
X45175000Y-66225000D02*
X45175000Y-66475000D01*
X48450001Y-65300000D02*
X46100000Y-65300000D01*
X48450001Y-64712500D02*
X48450001Y-65300000D01*
D43*
%TO.N,SDA*%
X46700000Y-47900000D02*
X47050000Y-48250000D01*
X47050000Y-48250000D02*
X48562500Y-48250000D01*
X46383363Y-45183363D02*
X46900000Y-45700000D01*
X48750000Y-42550000D02*
X49297400Y-42550000D01*
X49449000Y-42701600D02*
X49449000Y-43151000D01*
X46383363Y-44983363D02*
X46383363Y-45183363D01*
X49449000Y-43151000D02*
X46900000Y-45700000D01*
X49297400Y-42550000D02*
X49449000Y-42701600D01*
X46900000Y-45700000D02*
X46700000Y-45900000D01*
X46700000Y-45900000D02*
X46700000Y-47900000D01*
%TO.N,SCL*%
X47101000Y-47701000D02*
X47150000Y-47750000D01*
X47101000Y-46066100D02*
X47101000Y-47701000D01*
X49364500Y-42050000D02*
X49850000Y-42535500D01*
X47150000Y-47750000D02*
X48562500Y-47750000D01*
X49850000Y-42535500D02*
X49850000Y-43317100D01*
X49850000Y-43317100D02*
X47101000Y-46066100D01*
X50100000Y-41225000D02*
X50100000Y-41314500D01*
X48750000Y-42050000D02*
X49364500Y-42050000D01*
X50100000Y-41314500D02*
X49364500Y-42050000D01*
%TO.N,AY*%
X48562500Y-48750000D02*
X47350000Y-48750000D01*
X47350000Y-48750000D02*
X47200000Y-48900000D01*
%TO.N,AX*%
X48562500Y-49250000D02*
X47750000Y-49250000D01*
X47750000Y-49250000D02*
X47500000Y-49500000D01*
D47*
%TO.N,CE*%
X45200000Y-59900000D02*
X44375001Y-60724999D01*
D43*
X48562500Y-50250000D02*
X47950000Y-50250000D01*
D47*
X44375001Y-60724999D02*
X44062500Y-60724999D01*
D43*
X47950000Y-50250000D02*
X47700000Y-50500000D01*
D47*
X45200000Y-59800000D02*
X45200000Y-59900000D01*
D43*
%TO.N,IO2*%
X55173000Y-48273000D02*
X53460500Y-48273000D01*
X55600000Y-49100000D02*
X55600000Y-48700000D01*
X47801000Y-40084500D02*
X47500000Y-40385500D01*
X47000000Y-38500000D02*
X47400000Y-38500000D01*
X47400000Y-38500000D02*
X47801000Y-38901000D01*
X55600000Y-48700000D02*
X55173000Y-48273000D01*
X47500000Y-40385500D02*
X47500000Y-40800000D01*
X47801000Y-38901000D02*
X47801000Y-40084500D01*
X53460500Y-48273000D02*
X53437500Y-48250000D01*
%TO.N,IO1*%
X45350000Y-45450000D02*
X45350000Y-44774999D01*
X53437500Y-47750000D02*
X54250000Y-47750000D01*
X45400000Y-45500000D02*
X45350000Y-45450000D01*
X45350000Y-44774999D02*
X46824999Y-43300000D01*
X54250000Y-47750000D02*
X54300000Y-47700000D01*
X46824999Y-43300000D02*
X46999999Y-43300000D01*
%TO.N,Net-(Q1-D)*%
X46200000Y-56200000D02*
X45500000Y-55500000D01*
X46800000Y-56200000D02*
X46200000Y-56200000D01*
X45500000Y-55500000D02*
X45500000Y-51200000D01*
D47*
%TO.N,Net-(U1-PROG)*%
X45375000Y-61712499D02*
X45375000Y-62300000D01*
X46337500Y-60749999D02*
X45375000Y-61712499D01*
%TD*%
%TA.AperFunction,Conductor*%
%TO.N,GND*%
G36*
X50692494Y-28619928D02*
G01*
X50697974Y-28620236D01*
X51385573Y-28678233D01*
X51391024Y-28678848D01*
X52074238Y-28775302D01*
X52079713Y-28776232D01*
X52756428Y-28910839D01*
X52761842Y-28912075D01*
X53429926Y-29084410D01*
X53435262Y-29085947D01*
X53522783Y-29113842D01*
X53589975Y-29135258D01*
X53639676Y-29170944D01*
X53658909Y-29229027D01*
X53640329Y-29287323D01*
X53591032Y-29323564D01*
X53575397Y-29327364D01*
X53499700Y-29339352D01*
X53499695Y-29339354D01*
X53386659Y-29396949D01*
X53296949Y-29486659D01*
X53239354Y-29599695D01*
X53224500Y-29693477D01*
X53224500Y-30306520D01*
X53224501Y-30306523D01*
X53239352Y-30400299D01*
X53239354Y-30400304D01*
X53296950Y-30513342D01*
X53386658Y-30603050D01*
X53470446Y-30645742D01*
X53486836Y-30662132D01*
X53505593Y-30675760D01*
X53508061Y-30683357D01*
X53513710Y-30689006D01*
X53524500Y-30733951D01*
X53524500Y-30872857D01*
X53511238Y-30922354D01*
X53503497Y-30935763D01*
X53474500Y-31043982D01*
X53474500Y-31156018D01*
X53487222Y-31203497D01*
X53503498Y-31264241D01*
X53559513Y-31361260D01*
X53559515Y-31361263D01*
X53638737Y-31440485D01*
X53638739Y-31440486D01*
X53735759Y-31496501D01*
X53735757Y-31496501D01*
X53735761Y-31496502D01*
X53735763Y-31496503D01*
X53843982Y-31525500D01*
X53843984Y-31525500D01*
X53956016Y-31525500D01*
X53956018Y-31525500D01*
X54064237Y-31496503D01*
X54064239Y-31496501D01*
X54064241Y-31496501D01*
X54093064Y-31479859D01*
X54161263Y-31440485D01*
X54240485Y-31361263D01*
X54296503Y-31264237D01*
X54325500Y-31156018D01*
X54325500Y-31043982D01*
X54296503Y-30935763D01*
X54296501Y-30935760D01*
X54296501Y-30935758D01*
X54240486Y-30838739D01*
X54240485Y-30838737D01*
X54188415Y-30786667D01*
X54160640Y-30732153D01*
X54170211Y-30671721D01*
X54213471Y-30628460D01*
X54263342Y-30603050D01*
X54353050Y-30513342D01*
X54410646Y-30400304D01*
X54425500Y-30306519D01*
X54425499Y-29693482D01*
X54410646Y-29599696D01*
X54410645Y-29599694D01*
X54408239Y-29592288D01*
X54410070Y-29591693D01*
X54402073Y-29541237D01*
X54429846Y-29486718D01*
X54484360Y-29458935D01*
X54535161Y-29464224D01*
X54594090Y-29486718D01*
X54742501Y-29543369D01*
X54747595Y-29545479D01*
X55377435Y-29827314D01*
X55382399Y-29829706D01*
X55995416Y-30146397D01*
X56000251Y-30149069D01*
X56594558Y-30499642D01*
X56599234Y-30502581D01*
X57172930Y-30885912D01*
X57177436Y-30889109D01*
X57434124Y-31082287D01*
X57728734Y-31304004D01*
X57733076Y-31307466D01*
X58260258Y-31752631D01*
X58264373Y-31756309D01*
X58349590Y-31836874D01*
X58765751Y-32230321D01*
X58769677Y-32234247D01*
X58951942Y-32427034D01*
X59243688Y-32735623D01*
X59247369Y-32739742D01*
X59527540Y-33071531D01*
X59692532Y-33266922D01*
X59695994Y-33271264D01*
X60110881Y-33822551D01*
X60114091Y-33827075D01*
X60417082Y-34280534D01*
X60497409Y-34400751D01*
X60500361Y-34405449D01*
X60614714Y-34599305D01*
X60850922Y-34999735D01*
X60853607Y-35004594D01*
X61024690Y-35335758D01*
X61170283Y-35617580D01*
X61172691Y-35622579D01*
X61360449Y-36042177D01*
X61454509Y-36252379D01*
X61456634Y-36257510D01*
X61702691Y-36902113D01*
X61704525Y-36907354D01*
X61914051Y-37564736D01*
X61915588Y-37570072D01*
X61959680Y-37740999D01*
X61955907Y-37802068D01*
X61916959Y-37849256D01*
X61857713Y-37864539D01*
X61800799Y-37842079D01*
X61785276Y-37825994D01*
X61728286Y-37751723D01*
X61728285Y-37751722D01*
X61728282Y-37751718D01*
X61728277Y-37751714D01*
X61728276Y-37751713D01*
X61602838Y-37655462D01*
X61456766Y-37594957D01*
X61456758Y-37594955D01*
X61339361Y-37579500D01*
X59760642Y-37579500D01*
X59760637Y-37579501D01*
X59643241Y-37594955D01*
X59643233Y-37594957D01*
X59497161Y-37655462D01*
X59497160Y-37655462D01*
X59371723Y-37751713D01*
X59371713Y-37751723D01*
X59275462Y-37877160D01*
X59275462Y-37877161D01*
X59214957Y-38023233D01*
X59214955Y-38023241D01*
X59199500Y-38140637D01*
X59199500Y-38419357D01*
X59199501Y-38419362D01*
X59214955Y-38536758D01*
X59214957Y-38536766D01*
X59275462Y-38682838D01*
X59275462Y-38682839D01*
X59371671Y-38808221D01*
X59371718Y-38808282D01*
X59497159Y-38904536D01*
X59497160Y-38904536D01*
X59497161Y-38904537D01*
X59610472Y-38951472D01*
X59643238Y-38965044D01*
X59760639Y-38980500D01*
X61339360Y-38980499D01*
X61456762Y-38965044D01*
X61602841Y-38904536D01*
X61728282Y-38808282D01*
X61824536Y-38682841D01*
X61885044Y-38536762D01*
X61900500Y-38419361D01*
X61900499Y-38300275D01*
X61919406Y-38242086D01*
X61968906Y-38206122D01*
X62030091Y-38206121D01*
X62079591Y-38242085D01*
X62096597Y-38280962D01*
X62223766Y-38920285D01*
X62224696Y-38925760D01*
X62321146Y-39608940D01*
X62321768Y-39614458D01*
X62379760Y-40301992D01*
X62380071Y-40307536D01*
X62399461Y-40998610D01*
X62399500Y-41001387D01*
X62399500Y-58998613D01*
X62399461Y-59001390D01*
X62380071Y-59692464D01*
X62379760Y-59698008D01*
X62321768Y-60385542D01*
X62321146Y-60391060D01*
X62224696Y-61074239D01*
X62223766Y-61079714D01*
X62089159Y-61756429D01*
X62087923Y-61761843D01*
X61915588Y-62429928D01*
X61914051Y-62435264D01*
X61704525Y-63092645D01*
X61702691Y-63097886D01*
X61456634Y-63742489D01*
X61454509Y-63747620D01*
X61172693Y-64377416D01*
X61170283Y-64382419D01*
X60853607Y-64995405D01*
X60850921Y-65000265D01*
X60500364Y-65594547D01*
X60497409Y-65599249D01*
X60114094Y-66172920D01*
X60110881Y-66177449D01*
X59695994Y-66728736D01*
X59692532Y-66733078D01*
X59247379Y-67260246D01*
X59243678Y-67264387D01*
X58769678Y-67765753D01*
X58765752Y-67769679D01*
X58264386Y-68243679D01*
X58260245Y-68247380D01*
X57733077Y-68692533D01*
X57728735Y-68695995D01*
X57177448Y-69110882D01*
X57172919Y-69114095D01*
X56599248Y-69497410D01*
X56594546Y-69500365D01*
X56000264Y-69850922D01*
X55995404Y-69853608D01*
X55382418Y-70170284D01*
X55377415Y-70172694D01*
X54747619Y-70454510D01*
X54742488Y-70456635D01*
X54097885Y-70702692D01*
X54092644Y-70704526D01*
X53435263Y-70914052D01*
X53429927Y-70915589D01*
X52761842Y-71087924D01*
X52756428Y-71089160D01*
X52079713Y-71223767D01*
X52074238Y-71224697D01*
X51391059Y-71321147D01*
X51385541Y-71321769D01*
X50698007Y-71379761D01*
X50692463Y-71380072D01*
X50002777Y-71399423D01*
X49997223Y-71399423D01*
X49307536Y-71380072D01*
X49301992Y-71379761D01*
X48614458Y-71321769D01*
X48608942Y-71321147D01*
X48544378Y-71312032D01*
X47925761Y-71224697D01*
X47920286Y-71223767D01*
X47243571Y-71089160D01*
X47238157Y-71087924D01*
X46570072Y-70915589D01*
X46564736Y-70914052D01*
X45907355Y-70704526D01*
X45902114Y-70702692D01*
X45257511Y-70456635D01*
X45252387Y-70454512D01*
X44622580Y-70172692D01*
X44617581Y-70170284D01*
X44004595Y-69853608D01*
X43999735Y-69850922D01*
X43546134Y-69583350D01*
X43405449Y-69500362D01*
X43400751Y-69497410D01*
X42860584Y-69136482D01*
X42827075Y-69114092D01*
X42822551Y-69110882D01*
X42271264Y-68695995D01*
X42266922Y-68692533D01*
X42025111Y-68488342D01*
X41739743Y-68247370D01*
X41735624Y-68243688D01*
X41409657Y-67935515D01*
X41234247Y-67769679D01*
X41230321Y-67765753D01*
X40841737Y-67354734D01*
X40756310Y-67264374D01*
X40752632Y-67260259D01*
X40307467Y-66733078D01*
X40304005Y-66728736D01*
X40123455Y-66488827D01*
X39889110Y-66177438D01*
X39885905Y-66172920D01*
X39882939Y-66168481D01*
X39502582Y-65599236D01*
X39499643Y-65594560D01*
X39149077Y-65000264D01*
X39146392Y-64995405D01*
X39106268Y-64917738D01*
X38829707Y-64382400D01*
X38827315Y-64377436D01*
X38545480Y-63747596D01*
X38543365Y-63742489D01*
X38535059Y-63720730D01*
X38438772Y-63468482D01*
X38418305Y-63414864D01*
X38415217Y-63353757D01*
X38448637Y-63302505D01*
X38505800Y-63280685D01*
X38564871Y-63296632D01*
X38568991Y-63299469D01*
X38569243Y-63299652D01*
X38569249Y-63299658D01*
X38687580Y-63359951D01*
X38754130Y-63370491D01*
X38785751Y-63375500D01*
X38785754Y-63375500D01*
X39614249Y-63375500D01*
X39642803Y-63370976D01*
X39712420Y-63359951D01*
X39830751Y-63299658D01*
X39924658Y-63205751D01*
X39984951Y-63087420D01*
X39998876Y-62999500D01*
X40000500Y-62989248D01*
X40000500Y-62704270D01*
X40019407Y-62646079D01*
X40068907Y-62610115D01*
X40130093Y-62610115D01*
X40163342Y-62628605D01*
X40174040Y-62637631D01*
X40194399Y-62668101D01*
X40270106Y-62718685D01*
X40274342Y-62722260D01*
X40287702Y-62743770D01*
X40303381Y-62763658D01*
X40304723Y-62771176D01*
X40306624Y-62774236D01*
X40306232Y-62779625D01*
X40309500Y-62797925D01*
X40309500Y-63072744D01*
X40290593Y-63130935D01*
X40280505Y-63142747D01*
X40251470Y-63171782D01*
X40190283Y-63291867D01*
X40190281Y-63291874D01*
X40174500Y-63391510D01*
X40174500Y-63958489D01*
X40190281Y-64058125D01*
X40190283Y-64058132D01*
X40249986Y-64175304D01*
X40251472Y-64178220D01*
X40346780Y-64273528D01*
X40370444Y-64285585D01*
X40413708Y-64328848D01*
X40424500Y-64373795D01*
X40424500Y-64662645D01*
X40421127Y-64688267D01*
X40406199Y-64743982D01*
X40399500Y-64768982D01*
X40399500Y-64881018D01*
X40417850Y-64949500D01*
X40428498Y-64989241D01*
X40470081Y-65061263D01*
X40484515Y-65086263D01*
X40563737Y-65165485D01*
X40563739Y-65165486D01*
X40636098Y-65207263D01*
X40656602Y-65222995D01*
X40902005Y-65468398D01*
X40917735Y-65488898D01*
X40959515Y-65561263D01*
X41038737Y-65640485D01*
X41111101Y-65682264D01*
X41131602Y-65697995D01*
X41402000Y-65968392D01*
X41417733Y-65988895D01*
X41459515Y-66061263D01*
X41538737Y-66140485D01*
X41611101Y-66182264D01*
X41631602Y-66197995D01*
X41902000Y-66468392D01*
X41917733Y-66488895D01*
X41959515Y-66561263D01*
X42038737Y-66640485D01*
X42038739Y-66640486D01*
X42135759Y-66696501D01*
X42135757Y-66696501D01*
X42135761Y-66696502D01*
X42135763Y-66696503D01*
X42243982Y-66725500D01*
X42243984Y-66725500D01*
X42356016Y-66725500D01*
X42356018Y-66725500D01*
X42464237Y-66696503D01*
X42464239Y-66696501D01*
X42464241Y-66696501D01*
X42493064Y-66679859D01*
X42561263Y-66640485D01*
X42640485Y-66561263D01*
X42696503Y-66464237D01*
X42725500Y-66356018D01*
X42725500Y-66243982D01*
X42705269Y-66168477D01*
X44574500Y-66168477D01*
X44574500Y-66781520D01*
X44574501Y-66781523D01*
X44589352Y-66875299D01*
X44589354Y-66875304D01*
X44646950Y-66988342D01*
X44736658Y-67078050D01*
X44770445Y-67095265D01*
X44786835Y-67111655D01*
X44805593Y-67125283D01*
X44808061Y-67132879D01*
X44813708Y-67138526D01*
X44824500Y-67183474D01*
X44824500Y-67266525D01*
X44805593Y-67324716D01*
X44770446Y-67354734D01*
X44736659Y-67371949D01*
X44646949Y-67461659D01*
X44589354Y-67574695D01*
X44574500Y-67668477D01*
X44574500Y-68281520D01*
X44574501Y-68281523D01*
X44589352Y-68375299D01*
X44589354Y-68375304D01*
X44646950Y-68488342D01*
X44736658Y-68578050D01*
X44849696Y-68635646D01*
X44943481Y-68650500D01*
X45406518Y-68650499D01*
X45406520Y-68650499D01*
X45406521Y-68650498D01*
X45453411Y-68643072D01*
X45500299Y-68635647D01*
X45500299Y-68635646D01*
X45500304Y-68635646D01*
X45613342Y-68578050D01*
X45703050Y-68488342D01*
X45760646Y-68375304D01*
X45775500Y-68281519D01*
X45775499Y-67668482D01*
X45766825Y-67613710D01*
X45760647Y-67574700D01*
X45760646Y-67574698D01*
X45760646Y-67574696D01*
X45703050Y-67461658D01*
X45613342Y-67371950D01*
X45579554Y-67354734D01*
X45563164Y-67338344D01*
X45544407Y-67324716D01*
X45541938Y-67317117D01*
X45536290Y-67311469D01*
X45525500Y-67266525D01*
X45525500Y-67183474D01*
X45544407Y-67125283D01*
X45579553Y-67095265D01*
X45613342Y-67078050D01*
X45703050Y-66988342D01*
X45760646Y-66875304D01*
X45775500Y-66781519D01*
X45775499Y-66168482D01*
X45775499Y-66168481D01*
X45775499Y-66164592D01*
X45776668Y-66164592D01*
X45789827Y-66109728D01*
X45804243Y-66091438D01*
X46216186Y-65679496D01*
X46270702Y-65651719D01*
X46286189Y-65650500D01*
X48496143Y-65650500D01*
X48496145Y-65650500D01*
X48585289Y-65626614D01*
X48665213Y-65580469D01*
X48665213Y-65580468D01*
X48670833Y-65577224D01*
X48672069Y-65579365D01*
X48694652Y-65569784D01*
X48694052Y-65567841D01*
X48701387Y-65565573D01*
X48701394Y-65565573D01*
X48806484Y-65514198D01*
X48889199Y-65431483D01*
X48940574Y-65326393D01*
X48950501Y-65258260D01*
X48950501Y-64166740D01*
X48940574Y-64098607D01*
X48938331Y-64094019D01*
X48889199Y-63993518D01*
X48889199Y-63993517D01*
X48806484Y-63910802D01*
X48806482Y-63910801D01*
X48701396Y-63859427D01*
X48674140Y-63855456D01*
X48633261Y-63849500D01*
X48266741Y-63849500D01*
X48232674Y-63854463D01*
X48198605Y-63859427D01*
X48093519Y-63910801D01*
X48010802Y-63993518D01*
X47959428Y-64098604D01*
X47949501Y-64166743D01*
X47949501Y-64850500D01*
X47930594Y-64908691D01*
X47881094Y-64944655D01*
X47850501Y-64949500D01*
X46053856Y-64949500D01*
X46026356Y-64956868D01*
X45998856Y-64964237D01*
X45998855Y-64964236D01*
X45964715Y-64973384D01*
X45884785Y-65019532D01*
X45133811Y-65770504D01*
X45079295Y-65798281D01*
X45063809Y-65799500D01*
X44943479Y-65799500D01*
X44943476Y-65799501D01*
X44849700Y-65814352D01*
X44849695Y-65814354D01*
X44736659Y-65871949D01*
X44646949Y-65961659D01*
X44589354Y-66074695D01*
X44574500Y-66168477D01*
X42705269Y-66168477D01*
X42696503Y-66135763D01*
X42691320Y-66126786D01*
X42640486Y-66038739D01*
X42640485Y-66038737D01*
X42561263Y-65959515D01*
X42501076Y-65924766D01*
X42488895Y-65917733D01*
X42468392Y-65902000D01*
X42197995Y-65631602D01*
X42182264Y-65611101D01*
X42140485Y-65538737D01*
X42061263Y-65459515D01*
X42012707Y-65431481D01*
X41988895Y-65417733D01*
X41968392Y-65402000D01*
X41697995Y-65131602D01*
X41682264Y-65111101D01*
X41640485Y-65038737D01*
X41561263Y-64959515D01*
X41488898Y-64917735D01*
X41468398Y-64902005D01*
X41254496Y-64688103D01*
X41226719Y-64633586D01*
X41225500Y-64618099D01*
X41225500Y-64373795D01*
X41244407Y-64315604D01*
X41279554Y-64285585D01*
X41303220Y-64273528D01*
X41398528Y-64178220D01*
X41459719Y-64058126D01*
X41475500Y-63958488D01*
X41475500Y-63391512D01*
X41472836Y-63374695D01*
X41469520Y-63353757D01*
X41459719Y-63291874D01*
X41459716Y-63291869D01*
X41459716Y-63291867D01*
X41398529Y-63171782D01*
X41398528Y-63171780D01*
X41303220Y-63076472D01*
X41303217Y-63076470D01*
X41183132Y-63015283D01*
X41183127Y-63015281D01*
X41183126Y-63015281D01*
X41168792Y-63013010D01*
X41094012Y-63001166D01*
X41086896Y-62997540D01*
X41078907Y-62997540D01*
X41060149Y-62983911D01*
X41039496Y-62973388D01*
X41035870Y-62966271D01*
X41029407Y-62961576D01*
X41022242Y-62939524D01*
X41011719Y-62918871D01*
X41010500Y-62903385D01*
X41010500Y-62797925D01*
X41029407Y-62739734D01*
X41054500Y-62715609D01*
X41125597Y-62668104D01*
X41125597Y-62668103D01*
X41125601Y-62668101D01*
X41180966Y-62585240D01*
X41195500Y-62512174D01*
X41195500Y-62262826D01*
X41180966Y-62189760D01*
X41180962Y-62189755D01*
X41177233Y-62180748D01*
X41179248Y-62179913D01*
X41166189Y-62133620D01*
X41178773Y-62094889D01*
X41177233Y-62094252D01*
X41180961Y-62085246D01*
X41180966Y-62085240D01*
X41195500Y-62012174D01*
X41195500Y-61762826D01*
X41195304Y-61761843D01*
X41185810Y-61714114D01*
X41180966Y-61689760D01*
X41180962Y-61689755D01*
X41177233Y-61680748D01*
X41179248Y-61679913D01*
X41166189Y-61633620D01*
X41178773Y-61594889D01*
X41177233Y-61594252D01*
X41180961Y-61585246D01*
X41180966Y-61585240D01*
X41195500Y-61512174D01*
X41195500Y-61262826D01*
X41193290Y-61251718D01*
X41188870Y-61229496D01*
X41180966Y-61189760D01*
X41180962Y-61189755D01*
X41177233Y-61180748D01*
X41179248Y-61179913D01*
X41166189Y-61133620D01*
X41178773Y-61094889D01*
X41177233Y-61094252D01*
X41180961Y-61085246D01*
X41180966Y-61085240D01*
X41195500Y-61012174D01*
X41195500Y-60762826D01*
X41180966Y-60689760D01*
X41125601Y-60606899D01*
X41125597Y-60606896D01*
X41104498Y-60592798D01*
X41066619Y-60544747D01*
X41060500Y-60510483D01*
X41060500Y-60301194D01*
X41079407Y-60243003D01*
X41128907Y-60207039D01*
X41144005Y-60203415D01*
X41183126Y-60197219D01*
X41303220Y-60136028D01*
X41398528Y-60040720D01*
X41459719Y-59920626D01*
X41475500Y-59820988D01*
X41475500Y-59254012D01*
X41459719Y-59154374D01*
X41459716Y-59154369D01*
X41459716Y-59154367D01*
X41424794Y-59085829D01*
X41415222Y-59025397D01*
X41442999Y-58970881D01*
X41443000Y-58970880D01*
X41809385Y-58604496D01*
X41863901Y-58576719D01*
X41879388Y-58575500D01*
X42324234Y-58575500D01*
X42624234Y-58575500D01*
X42775766Y-58575500D01*
X43100500Y-58575500D01*
X43158691Y-58594407D01*
X43194655Y-58643907D01*
X43199500Y-58674500D01*
X43199500Y-59033261D01*
X43203298Y-59059326D01*
X43209427Y-59101396D01*
X43259831Y-59204497D01*
X43260802Y-59206484D01*
X43343517Y-59289199D01*
X43397285Y-59315484D01*
X43448604Y-59340573D01*
X43448605Y-59340573D01*
X43448607Y-59340574D01*
X43516740Y-59350501D01*
X43516743Y-59350501D01*
X44608257Y-59350501D01*
X44608260Y-59350501D01*
X44676393Y-59340574D01*
X44781483Y-59289199D01*
X44804852Y-59265829D01*
X44859366Y-59238052D01*
X44919799Y-59247623D01*
X44949543Y-59270850D01*
X44955814Y-59278058D01*
X44959540Y-59284511D01*
X44974077Y-59299048D01*
X44976327Y-59301634D01*
X44987014Y-59326781D01*
X44999420Y-59351130D01*
X44998861Y-59354658D01*
X45000258Y-59357945D01*
X44994124Y-59384566D01*
X44989849Y-59411562D01*
X44987281Y-59414267D01*
X44986521Y-59417568D01*
X44972923Y-59429399D01*
X44951145Y-59452350D01*
X44938739Y-59459513D01*
X44859513Y-59538739D01*
X44803498Y-59635758D01*
X44774500Y-59743983D01*
X44774500Y-59859521D01*
X44755593Y-59917712D01*
X44745504Y-59929524D01*
X44454527Y-60220502D01*
X44400010Y-60248280D01*
X44384523Y-60249499D01*
X43516740Y-60249499D01*
X43482673Y-60254462D01*
X43448604Y-60259426D01*
X43343518Y-60310800D01*
X43260801Y-60393517D01*
X43209427Y-60498603D01*
X43204463Y-60532672D01*
X43199987Y-60563400D01*
X43199500Y-60566742D01*
X43199500Y-60635521D01*
X43193593Y-60653701D01*
X43192227Y-60672765D01*
X43184365Y-60682101D01*
X43180593Y-60693712D01*
X43165126Y-60704948D01*
X43152817Y-60719568D01*
X43140969Y-60722500D01*
X43131093Y-60729676D01*
X43111977Y-60729676D01*
X43093424Y-60734268D01*
X43083371Y-60729676D01*
X43069907Y-60729676D01*
X43036734Y-60711250D01*
X43033486Y-60708515D01*
X42984511Y-60659540D01*
X42962860Y-60647040D01*
X42955284Y-60642666D01*
X42955283Y-60642665D01*
X42915987Y-60619978D01*
X42839564Y-60599500D01*
X42839562Y-60599500D01*
X42624558Y-60599500D01*
X42569557Y-60582816D01*
X42566719Y-60580920D01*
X42540499Y-60563400D01*
X42522742Y-60551535D01*
X42522740Y-60551534D01*
X42522737Y-60551533D01*
X42522736Y-60551533D01*
X42449684Y-60537001D01*
X42449674Y-60537000D01*
X41830326Y-60537000D01*
X41830325Y-60537000D01*
X41830315Y-60537001D01*
X41757263Y-60551533D01*
X41757257Y-60551535D01*
X41674400Y-60606897D01*
X41674397Y-60606900D01*
X41619035Y-60689757D01*
X41619033Y-60689763D01*
X41604501Y-60762815D01*
X41604500Y-60762827D01*
X41604500Y-61012172D01*
X41604501Y-61012184D01*
X41619033Y-61085236D01*
X41619035Y-61085242D01*
X41674397Y-61168099D01*
X41674400Y-61168102D01*
X41706819Y-61189763D01*
X41757260Y-61223466D01*
X41812808Y-61234515D01*
X41830315Y-61237998D01*
X41830320Y-61237998D01*
X41830326Y-61238000D01*
X41830327Y-61238000D01*
X42449673Y-61238000D01*
X42449674Y-61238000D01*
X42522740Y-61223466D01*
X42532142Y-61217183D01*
X42587142Y-61200500D01*
X42634521Y-61200500D01*
X42692712Y-61219407D01*
X42704524Y-61229496D01*
X43115488Y-61640459D01*
X43115493Y-61640463D01*
X43184008Y-61680020D01*
X43184006Y-61680020D01*
X43184010Y-61680021D01*
X43184012Y-61680022D01*
X43207497Y-61686314D01*
X43258810Y-61719638D01*
X43280737Y-61776760D01*
X43276011Y-61812585D01*
X43273607Y-61819969D01*
X43239354Y-61887195D01*
X43227631Y-61961207D01*
X43225211Y-61968644D01*
X43211589Y-61987370D01*
X43201076Y-62008004D01*
X43193934Y-62011642D01*
X43189220Y-62018124D01*
X43167192Y-62025268D01*
X43146559Y-62035781D01*
X43131073Y-62037000D01*
X42449674Y-62037000D01*
X41830326Y-62037000D01*
X41830325Y-62037000D01*
X41830315Y-62037001D01*
X41757263Y-62051533D01*
X41757257Y-62051535D01*
X41674400Y-62106897D01*
X41674397Y-62106900D01*
X41619035Y-62189757D01*
X41619033Y-62189763D01*
X41604501Y-62262815D01*
X41604500Y-62262827D01*
X41604500Y-62512172D01*
X41604501Y-62512184D01*
X41619033Y-62585236D01*
X41619035Y-62585242D01*
X41674397Y-62668099D01*
X41674400Y-62668102D01*
X41745501Y-62715609D01*
X41757260Y-62723466D01*
X41812808Y-62734515D01*
X41830315Y-62737998D01*
X41830320Y-62737998D01*
X41830326Y-62738000D01*
X42093856Y-62738000D01*
X43357888Y-62738000D01*
X43402833Y-62748790D01*
X43499696Y-62798145D01*
X43593481Y-62812999D01*
X43876308Y-62812998D01*
X43934498Y-62831905D01*
X43946312Y-62841994D01*
X44197313Y-63092995D01*
X44225090Y-63147512D01*
X44215519Y-63207944D01*
X44172254Y-63251209D01*
X44127309Y-63261999D01*
X43593479Y-63261999D01*
X43593476Y-63262000D01*
X43499700Y-63276851D01*
X43499695Y-63276853D01*
X43386659Y-63334448D01*
X43296949Y-63424158D01*
X43239354Y-63537194D01*
X43224500Y-63630976D01*
X43224500Y-64094019D01*
X43224501Y-64094022D01*
X43239352Y-64187798D01*
X43239354Y-64187803D01*
X43296950Y-64300841D01*
X43386658Y-64390549D01*
X43499696Y-64448145D01*
X43499700Y-64448145D01*
X43506085Y-64450220D01*
X43555588Y-64486180D01*
X43571987Y-64536638D01*
X43573653Y-64536419D01*
X43574499Y-64542850D01*
X43596683Y-64625643D01*
X43639531Y-64699857D01*
X43639533Y-64699859D01*
X43639535Y-64699862D01*
X44000138Y-65060465D01*
X44000140Y-65060466D01*
X44000142Y-65060468D01*
X44074357Y-65103316D01*
X44074355Y-65103316D01*
X44074359Y-65103317D01*
X44074361Y-65103318D01*
X44157147Y-65125500D01*
X44186256Y-65125500D01*
X44235756Y-65138764D01*
X44335759Y-65196501D01*
X44335757Y-65196501D01*
X44335761Y-65196502D01*
X44335763Y-65196503D01*
X44443982Y-65225500D01*
X44443984Y-65225500D01*
X44556016Y-65225500D01*
X44556018Y-65225500D01*
X44664237Y-65196503D01*
X44664239Y-65196501D01*
X44664241Y-65196501D01*
X44717960Y-65165486D01*
X44761263Y-65140485D01*
X44840485Y-65061263D01*
X44896503Y-64964237D01*
X44925500Y-64856018D01*
X44925500Y-64743982D01*
X44896503Y-64635763D01*
X44896501Y-64635760D01*
X44896501Y-64635758D01*
X44837241Y-64533118D01*
X44839247Y-64531959D01*
X44822211Y-64483886D01*
X44839575Y-64425216D01*
X44888108Y-64387958D01*
X44949272Y-64386342D01*
X44966119Y-64393061D01*
X45049696Y-64435646D01*
X45143481Y-64450500D01*
X45606518Y-64450499D01*
X45606520Y-64450499D01*
X45606521Y-64450498D01*
X45653411Y-64443072D01*
X45700299Y-64435647D01*
X45700299Y-64435646D01*
X45700304Y-64435646D01*
X45813342Y-64378050D01*
X45903050Y-64288342D01*
X45960646Y-64175304D01*
X45975500Y-64081519D01*
X45975499Y-63468482D01*
X45973722Y-63457263D01*
X45960647Y-63374700D01*
X45960646Y-63374698D01*
X45960646Y-63374696D01*
X45903050Y-63261658D01*
X45813342Y-63171950D01*
X45813339Y-63171948D01*
X45722590Y-63125709D01*
X45679325Y-63082445D01*
X45669754Y-63022013D01*
X45697532Y-62967496D01*
X45722590Y-62949291D01*
X45757849Y-62931325D01*
X45813342Y-62903050D01*
X45903050Y-62813342D01*
X45960646Y-62700304D01*
X45975500Y-62606519D01*
X45975499Y-61993482D01*
X45975498Y-61993478D01*
X45975498Y-61993476D01*
X45960647Y-61899700D01*
X45960646Y-61899698D01*
X45960646Y-61899696D01*
X45903050Y-61786658D01*
X45884432Y-61768040D01*
X45856657Y-61713526D01*
X45866228Y-61653094D01*
X45884435Y-61628035D01*
X46232976Y-61279495D01*
X46287492Y-61251718D01*
X46302979Y-61250499D01*
X46883257Y-61250499D01*
X46883260Y-61250499D01*
X46951393Y-61240572D01*
X47056483Y-61189197D01*
X47139198Y-61106482D01*
X47190573Y-61001392D01*
X47200500Y-60933259D01*
X47200500Y-60566739D01*
X47190573Y-60498606D01*
X47186671Y-60490625D01*
X47139198Y-60393517D01*
X47139198Y-60393516D01*
X47056483Y-60310801D01*
X47044347Y-60304868D01*
X46951395Y-60259426D01*
X46920075Y-60254863D01*
X46883260Y-60249499D01*
X46883257Y-60249499D01*
X46076282Y-60249499D01*
X46018091Y-60230592D01*
X45982127Y-60181092D01*
X45980655Y-60124876D01*
X45992674Y-60080021D01*
X46001500Y-60047083D01*
X46001500Y-59552917D01*
X45981021Y-59476490D01*
X45980655Y-59475124D01*
X45983857Y-59414023D01*
X46022363Y-59366473D01*
X46076282Y-59350501D01*
X46883257Y-59350501D01*
X46883260Y-59350501D01*
X46951393Y-59340574D01*
X47056483Y-59289199D01*
X47139198Y-59206484D01*
X47139198Y-59206481D01*
X47141184Y-59204497D01*
X47148301Y-59200870D01*
X47152997Y-59194408D01*
X47175045Y-59187244D01*
X47195701Y-59176720D01*
X47211188Y-59175501D01*
X47225500Y-59175501D01*
X47283691Y-59194408D01*
X47319655Y-59243908D01*
X47324500Y-59274501D01*
X47324500Y-59458488D01*
X47337210Y-59538739D01*
X47340281Y-59558125D01*
X47340283Y-59558132D01*
X47389828Y-59655368D01*
X47401472Y-59678220D01*
X47496780Y-59773528D01*
X47496782Y-59773529D01*
X47616867Y-59834716D01*
X47616869Y-59834716D01*
X47616874Y-59834719D01*
X47692541Y-59846703D01*
X47716510Y-59850500D01*
X47716512Y-59850500D01*
X48184521Y-59850500D01*
X48242712Y-59869407D01*
X48254525Y-59879496D01*
X48359540Y-59984511D01*
X48359539Y-59984511D01*
X48415489Y-60040460D01*
X48484007Y-60080019D01*
X48484011Y-60080021D01*
X48560438Y-60100500D01*
X48560443Y-60100500D01*
X48566871Y-60101347D01*
X48566603Y-60103378D01*
X48615936Y-60119407D01*
X48627742Y-60129490D01*
X48638737Y-60140485D01*
X48645258Y-60144250D01*
X48735759Y-60196501D01*
X48735757Y-60196501D01*
X48735761Y-60196502D01*
X48735763Y-60196503D01*
X48843982Y-60225500D01*
X48843984Y-60225500D01*
X48956016Y-60225500D01*
X48956018Y-60225500D01*
X49064237Y-60196503D01*
X49075998Y-60189713D01*
X49135846Y-60176990D01*
X49191742Y-60201875D01*
X49222336Y-60254863D01*
X49224500Y-60275448D01*
X49224500Y-60490625D01*
X49205593Y-60548816D01*
X49156093Y-60584780D01*
X49099878Y-60586252D01*
X49079978Y-60580920D01*
X49056018Y-60574500D01*
X48943982Y-60574500D01*
X48900123Y-60586252D01*
X48835758Y-60603498D01*
X48738739Y-60659513D01*
X48659513Y-60738739D01*
X48603498Y-60835758D01*
X48574500Y-60943983D01*
X48574500Y-60959521D01*
X48555593Y-61017712D01*
X48545504Y-61029525D01*
X48265490Y-61309539D01*
X48265489Y-61309538D01*
X48209540Y-61365488D01*
X48169981Y-61434006D01*
X48169979Y-61434010D01*
X48149501Y-61510434D01*
X48149501Y-61546635D01*
X48130594Y-61604826D01*
X48099890Y-61630612D01*
X48100193Y-61631036D01*
X48094818Y-61634873D01*
X48093983Y-61635574D01*
X48093801Y-61635663D01*
X48093519Y-61635801D01*
X48010802Y-61718518D01*
X47959428Y-61823604D01*
X47959428Y-61823607D01*
X47949501Y-61891740D01*
X47949501Y-62983260D01*
X47954167Y-63015283D01*
X47959428Y-63051395D01*
X47998313Y-63130935D01*
X48010803Y-63156483D01*
X48093518Y-63239198D01*
X48139461Y-63261658D01*
X48198605Y-63290572D01*
X48198606Y-63290572D01*
X48198608Y-63290573D01*
X48266741Y-63300500D01*
X48266744Y-63300500D01*
X48633258Y-63300500D01*
X48633261Y-63300500D01*
X48701394Y-63290573D01*
X48806484Y-63239198D01*
X48854998Y-63190683D01*
X48909512Y-63162907D01*
X48969944Y-63172478D01*
X48995000Y-63190681D01*
X49043517Y-63239198D01*
X49089460Y-63261658D01*
X49148604Y-63290572D01*
X49148605Y-63290572D01*
X49148607Y-63290573D01*
X49216740Y-63300500D01*
X49216743Y-63300500D01*
X49583257Y-63300500D01*
X49583260Y-63300500D01*
X49651393Y-63290573D01*
X49756483Y-63239198D01*
X49839198Y-63156483D01*
X49890573Y-63051393D01*
X49900500Y-62983260D01*
X49900500Y-62748135D01*
X49913762Y-62698637D01*
X49936281Y-62659635D01*
X49975500Y-62513266D01*
X49975500Y-62044220D01*
X49994407Y-61986029D01*
X50004490Y-61974222D01*
X50260514Y-61718199D01*
X50262873Y-61714114D01*
X50336281Y-61586968D01*
X50350497Y-61533912D01*
X50375500Y-61440600D01*
X50375500Y-61289067D01*
X50375500Y-60949500D01*
X50394407Y-60891309D01*
X50443907Y-60855345D01*
X50474500Y-60850500D01*
X51575935Y-60850500D01*
X51634126Y-60869407D01*
X51670090Y-60918907D01*
X51670452Y-60920047D01*
X51704485Y-61029263D01*
X51704490Y-61029275D01*
X51789349Y-61169649D01*
X51789350Y-61169650D01*
X51789352Y-61169653D01*
X51905347Y-61285648D01*
X51905349Y-61285649D01*
X51905350Y-61285650D01*
X52045724Y-61370509D01*
X52045727Y-61370510D01*
X52045730Y-61370512D01*
X52202343Y-61419315D01*
X52270406Y-61425500D01*
X52270412Y-61425500D01*
X56529588Y-61425500D01*
X56529594Y-61425500D01*
X56597657Y-61419315D01*
X56754270Y-61370512D01*
X56754277Y-61370507D01*
X56759728Y-61368055D01*
X56760811Y-61370461D01*
X56809860Y-61358998D01*
X56866246Y-61382751D01*
X56897902Y-61435111D01*
X56900500Y-61457644D01*
X56900500Y-63292355D01*
X56881593Y-63350546D01*
X56832093Y-63386510D01*
X56770907Y-63386510D01*
X56759931Y-63381493D01*
X56759728Y-63381945D01*
X56754263Y-63379485D01*
X56597662Y-63330686D01*
X56597656Y-63330684D01*
X56529599Y-63324500D01*
X56529594Y-63324500D01*
X52270406Y-63324500D01*
X52270400Y-63324500D01*
X52202343Y-63330684D01*
X52202337Y-63330686D01*
X52045736Y-63379485D01*
X52045724Y-63379490D01*
X51905350Y-63464349D01*
X51789349Y-63580350D01*
X51704490Y-63720724D01*
X51704485Y-63720736D01*
X51655686Y-63877337D01*
X51655684Y-63877343D01*
X51649500Y-63945400D01*
X51649500Y-64038000D01*
X51630593Y-64096191D01*
X51581093Y-64132155D01*
X51550500Y-64137000D01*
X50921140Y-64137000D01*
X50862949Y-64118093D01*
X50832199Y-64081480D01*
X50820782Y-64058126D01*
X50789197Y-63993517D01*
X50706482Y-63910802D01*
X50706480Y-63910801D01*
X50601394Y-63859427D01*
X50574138Y-63855456D01*
X50533259Y-63849500D01*
X50166739Y-63849500D01*
X50132672Y-63854463D01*
X50098603Y-63859427D01*
X49993517Y-63910801D01*
X49910800Y-63993518D01*
X49859426Y-64098604D01*
X49849499Y-64166743D01*
X49849499Y-64401862D01*
X49836236Y-64451360D01*
X49813720Y-64490360D01*
X49813719Y-64490362D01*
X49813718Y-64490364D01*
X49813718Y-64490365D01*
X49775343Y-64633586D01*
X49774499Y-64636735D01*
X49774499Y-66275500D01*
X49755592Y-66333691D01*
X49706092Y-66369655D01*
X49675499Y-66374500D01*
X49545725Y-66374500D01*
X49515305Y-66377353D01*
X49515296Y-66377355D01*
X49387116Y-66422207D01*
X49277855Y-66502845D01*
X49277845Y-66502855D01*
X49197207Y-66612116D01*
X49152355Y-66740296D01*
X49152353Y-66740305D01*
X49149500Y-66770725D01*
X49149500Y-67551975D01*
X49130593Y-67610166D01*
X49081093Y-67646130D01*
X49019907Y-67646130D01*
X48970407Y-67610166D01*
X48962291Y-67596921D01*
X48898529Y-67471782D01*
X48898528Y-67471780D01*
X48803220Y-67376472D01*
X48803217Y-67376470D01*
X48683132Y-67315283D01*
X48683127Y-67315281D01*
X48683126Y-67315281D01*
X48649913Y-67310020D01*
X48583490Y-67299500D01*
X48583488Y-67299500D01*
X48016512Y-67299500D01*
X48016510Y-67299500D01*
X47916874Y-67315281D01*
X47916867Y-67315283D01*
X47796782Y-67376470D01*
X47701470Y-67471782D01*
X47651199Y-67570445D01*
X47634809Y-67586834D01*
X47621181Y-67605593D01*
X47613583Y-67608061D01*
X47607935Y-67613710D01*
X47562990Y-67624500D01*
X47496690Y-67624500D01*
X47438499Y-67605593D01*
X47408481Y-67570446D01*
X47358207Y-67471780D01*
X47353050Y-67461658D01*
X47263342Y-67371950D01*
X47150304Y-67314354D01*
X47150305Y-67314354D01*
X47056522Y-67299500D01*
X46593479Y-67299500D01*
X46593476Y-67299501D01*
X46499700Y-67314352D01*
X46499695Y-67314354D01*
X46386659Y-67371949D01*
X46296949Y-67461659D01*
X46239354Y-67574695D01*
X46224500Y-67668477D01*
X46224500Y-68281520D01*
X46224501Y-68281523D01*
X46239352Y-68375299D01*
X46239354Y-68375304D01*
X46296950Y-68488342D01*
X46386658Y-68578050D01*
X46499696Y-68635646D01*
X46593481Y-68650500D01*
X47056518Y-68650499D01*
X47056520Y-68650499D01*
X47056521Y-68650498D01*
X47103411Y-68643072D01*
X47150299Y-68635647D01*
X47150299Y-68635646D01*
X47150304Y-68635646D01*
X47263342Y-68578050D01*
X47353050Y-68488342D01*
X47408481Y-68379554D01*
X47424870Y-68363164D01*
X47438499Y-68344407D01*
X47446097Y-68341938D01*
X47451746Y-68336290D01*
X47496690Y-68325500D01*
X47588466Y-68325500D01*
X47646657Y-68344407D01*
X47676676Y-68379555D01*
X47701472Y-68428220D01*
X47796780Y-68523528D01*
X47796782Y-68523529D01*
X47916867Y-68584716D01*
X47916869Y-68584716D01*
X47916874Y-68584719D01*
X47992541Y-68596703D01*
X48016510Y-68600500D01*
X48016512Y-68600500D01*
X48413810Y-68600500D01*
X48472001Y-68619407D01*
X48483813Y-68629496D01*
X48810785Y-68956467D01*
X48810788Y-68956470D01*
X48890712Y-69002614D01*
X48979856Y-69026500D01*
X48979858Y-69026500D01*
X53445142Y-69026500D01*
X53445144Y-69026500D01*
X53534288Y-69002614D01*
X53614212Y-68956470D01*
X53878149Y-68692533D01*
X53966187Y-68604496D01*
X54020703Y-68576719D01*
X54036190Y-68575500D01*
X55654273Y-68575500D01*
X55654273Y-68575499D01*
X55684699Y-68572646D01*
X55812882Y-68527793D01*
X55922150Y-68447150D01*
X56002793Y-68337882D01*
X56047646Y-68209699D01*
X56050499Y-68179273D01*
X56050500Y-68179273D01*
X56050500Y-68080929D01*
X56069407Y-68022738D01*
X56099996Y-67995194D01*
X56203365Y-67935515D01*
X57829362Y-66309516D01*
X57829365Y-66309515D01*
X57936515Y-66202365D01*
X57939038Y-66197995D01*
X58012279Y-66071139D01*
X58012279Y-66071137D01*
X58012281Y-66071135D01*
X58042189Y-65959515D01*
X58051500Y-65924767D01*
X58051500Y-65773234D01*
X58051500Y-60565833D01*
X58070407Y-60507642D01*
X58119907Y-60471678D01*
X58181093Y-60471678D01*
X58220504Y-60495830D01*
X58514380Y-60789707D01*
X58542157Y-60844223D01*
X58535840Y-60897595D01*
X58489870Y-61008577D01*
X58489870Y-61008579D01*
X58449500Y-61211531D01*
X58449500Y-61418466D01*
X58489869Y-61621417D01*
X58569058Y-61812596D01*
X58684020Y-61984650D01*
X58684023Y-61984654D01*
X58830345Y-62130976D01*
X59002402Y-62245940D01*
X59193580Y-62325129D01*
X59396535Y-62365499D01*
X59396536Y-62365499D01*
X59603464Y-62365499D01*
X59603465Y-62365499D01*
X59806420Y-62325129D01*
X59997598Y-62245940D01*
X60169655Y-62130976D01*
X60315977Y-61984654D01*
X60430941Y-61812597D01*
X60510130Y-61621419D01*
X60550500Y-61418464D01*
X60550500Y-61211534D01*
X60510130Y-61008579D01*
X60430941Y-60817401D01*
X60315977Y-60645344D01*
X60169655Y-60499022D01*
X60169651Y-60499019D01*
X59997597Y-60384057D01*
X59806418Y-60304868D01*
X59603467Y-60264499D01*
X59603465Y-60264499D01*
X59396535Y-60264499D01*
X59396532Y-60264499D01*
X59193580Y-60304869D01*
X59193578Y-60304869D01*
X59082596Y-60350839D01*
X59021599Y-60355639D01*
X58974707Y-60329379D01*
X58531496Y-59886168D01*
X58503719Y-59831651D01*
X58502500Y-59816164D01*
X58502500Y-59499346D01*
X58521407Y-59441155D01*
X58570907Y-59405191D01*
X58632093Y-59405191D01*
X58681593Y-59441155D01*
X58683814Y-59444343D01*
X58684023Y-59444655D01*
X58830345Y-59590977D01*
X59002402Y-59705941D01*
X59193580Y-59785130D01*
X59396535Y-59825500D01*
X59396536Y-59825500D01*
X59603464Y-59825500D01*
X59603465Y-59825500D01*
X59806420Y-59785130D01*
X59997598Y-59705941D01*
X60169655Y-59590977D01*
X60315977Y-59444655D01*
X60430941Y-59272598D01*
X60510130Y-59081420D01*
X60550500Y-58878465D01*
X60550500Y-58671535D01*
X60510130Y-58468580D01*
X60464157Y-58357594D01*
X60459357Y-58296601D01*
X60485616Y-58249709D01*
X61299859Y-57435466D01*
X61299862Y-57435465D01*
X61360465Y-57374862D01*
X61391168Y-57321683D01*
X61403318Y-57300639D01*
X61425501Y-57217853D01*
X61425501Y-57132147D01*
X61425501Y-57126085D01*
X61425500Y-57126067D01*
X61425500Y-53657148D01*
X61425500Y-53657147D01*
X61403318Y-53574362D01*
X61360465Y-53500138D01*
X61355830Y-53495503D01*
X61299862Y-53439534D01*
X61299862Y-53439535D01*
X59929829Y-52069502D01*
X59902054Y-52014988D01*
X59911625Y-51954556D01*
X59954890Y-51911291D01*
X59999835Y-51900501D01*
X60124564Y-51900501D01*
X60124565Y-51900501D01*
X60371565Y-51867983D01*
X60612207Y-51803503D01*
X60842373Y-51708165D01*
X61058127Y-51583600D01*
X61255776Y-51431939D01*
X61431938Y-51255777D01*
X61583599Y-51058128D01*
X61708164Y-50842374D01*
X61803502Y-50612208D01*
X61867982Y-50371566D01*
X61900500Y-50124566D01*
X61900500Y-49875436D01*
X61867982Y-49628436D01*
X61803502Y-49387794D01*
X61709670Y-49161263D01*
X61708167Y-49157635D01*
X61708166Y-49157634D01*
X61708164Y-49157628D01*
X61583599Y-48941874D01*
X61508484Y-48843982D01*
X61431943Y-48744231D01*
X61431941Y-48744229D01*
X61431938Y-48744225D01*
X61255776Y-48568063D01*
X61255771Y-48568059D01*
X61255769Y-48568057D01*
X61058130Y-48416404D01*
X61055901Y-48415117D01*
X60842373Y-48291837D01*
X60842369Y-48291835D01*
X60842365Y-48291833D01*
X60612212Y-48196501D01*
X60612211Y-48196500D01*
X60612207Y-48196499D01*
X60371565Y-48132019D01*
X60371562Y-48132018D01*
X60371560Y-48132018D01*
X60124566Y-48099501D01*
X60124565Y-48099501D01*
X59875435Y-48099501D01*
X59875433Y-48099501D01*
X59628442Y-48132018D01*
X59628437Y-48132018D01*
X59387800Y-48196497D01*
X59387787Y-48196501D01*
X59157634Y-48291833D01*
X58941869Y-48416404D01*
X58744230Y-48568057D01*
X58568056Y-48744231D01*
X58416403Y-48941870D01*
X58291832Y-49157635D01*
X58196500Y-49387788D01*
X58196496Y-49387801D01*
X58132017Y-49628438D01*
X58132017Y-49628443D01*
X58099500Y-49875434D01*
X58099500Y-50124567D01*
X58132017Y-50371558D01*
X58132017Y-50371563D01*
X58196496Y-50612200D01*
X58196500Y-50612213D01*
X58291832Y-50842366D01*
X58291834Y-50842370D01*
X58291836Y-50842374D01*
X58375999Y-50988149D01*
X58416403Y-51058131D01*
X58568056Y-51255770D01*
X58568058Y-51255772D01*
X58568062Y-51255777D01*
X58744224Y-51431939D01*
X58744228Y-51431942D01*
X58744230Y-51431944D01*
X58931317Y-51575500D01*
X58941873Y-51583600D01*
X59125756Y-51689764D01*
X59166696Y-51735233D01*
X59173092Y-51796083D01*
X59142499Y-51849071D01*
X59086604Y-51873958D01*
X59076255Y-51874500D01*
X53795977Y-51874500D01*
X53737786Y-51855593D01*
X53701822Y-51806093D01*
X53700350Y-51749879D01*
X53725500Y-51656018D01*
X53725500Y-51543982D01*
X53696503Y-51435763D01*
X53696501Y-51435760D01*
X53696501Y-51435758D01*
X53640486Y-51338739D01*
X53640485Y-51338737D01*
X53561263Y-51259515D01*
X53554789Y-51255777D01*
X53464240Y-51203498D01*
X53464242Y-51203498D01*
X53412254Y-51189568D01*
X53356018Y-51174500D01*
X53356017Y-51174500D01*
X53352695Y-51173610D01*
X53308314Y-51147987D01*
X53104495Y-50944168D01*
X53100868Y-50937050D01*
X53094406Y-50932355D01*
X53087242Y-50910306D01*
X53076718Y-50889651D01*
X53075499Y-50874164D01*
X53075499Y-50674499D01*
X53094406Y-50616308D01*
X53143906Y-50580344D01*
X53174499Y-50575499D01*
X53383116Y-50575499D01*
X53383124Y-50575500D01*
X53394647Y-50575500D01*
X55992851Y-50575500D01*
X55992853Y-50575500D01*
X56075639Y-50553318D01*
X56075641Y-50553316D01*
X56075643Y-50553316D01*
X56149862Y-50510465D01*
X56200448Y-50459879D01*
X56256565Y-50403760D01*
X56311081Y-50375983D01*
X56352189Y-50378136D01*
X56438279Y-50401204D01*
X56438281Y-50401204D01*
X56565145Y-50401204D01*
X56565147Y-50401204D01*
X56687692Y-50368369D01*
X56797564Y-50304935D01*
X56842418Y-50260080D01*
X56878872Y-50223626D01*
X56878872Y-50223625D01*
X57014712Y-50087785D01*
X57014732Y-50087774D01*
X57045595Y-50056911D01*
X57045596Y-50056912D01*
X57090454Y-50012055D01*
X57153893Y-49902178D01*
X57186729Y-49779626D01*
X57186726Y-49652750D01*
X57168537Y-49584880D01*
X57163658Y-49566673D01*
X57164740Y-49546002D01*
X57161503Y-49525560D01*
X57166304Y-49516136D01*
X57166858Y-49505572D01*
X57189276Y-49471047D01*
X57279076Y-49381250D01*
X57279077Y-49381247D01*
X57847584Y-48812741D01*
X57847587Y-48812740D01*
X58686465Y-47973862D01*
X58704368Y-47942853D01*
X58729316Y-47899643D01*
X58729316Y-47899641D01*
X58729318Y-47899639D01*
X58751500Y-47816853D01*
X58751500Y-47731147D01*
X58751500Y-46780637D01*
X59199500Y-46780637D01*
X59199500Y-47059357D01*
X59199501Y-47059362D01*
X59214955Y-47176758D01*
X59214957Y-47176766D01*
X59275462Y-47322838D01*
X59275462Y-47322839D01*
X59364395Y-47438739D01*
X59371718Y-47448282D01*
X59497159Y-47544536D01*
X59643238Y-47605044D01*
X59760639Y-47620500D01*
X61339360Y-47620499D01*
X61456762Y-47605044D01*
X61602841Y-47544536D01*
X61728282Y-47448282D01*
X61824536Y-47322841D01*
X61885044Y-47176762D01*
X61900500Y-47059361D01*
X61900499Y-46780640D01*
X61885044Y-46663238D01*
X61868998Y-46624500D01*
X61824537Y-46517161D01*
X61824537Y-46517160D01*
X61728286Y-46391723D01*
X61728285Y-46391722D01*
X61728282Y-46391718D01*
X61728277Y-46391714D01*
X61728276Y-46391713D01*
X61627691Y-46314532D01*
X61602841Y-46295464D01*
X61602840Y-46295463D01*
X61602838Y-46295462D01*
X61456766Y-46234957D01*
X61456758Y-46234955D01*
X61339361Y-46219500D01*
X59760642Y-46219500D01*
X59760637Y-46219501D01*
X59643241Y-46234955D01*
X59643233Y-46234957D01*
X59497161Y-46295462D01*
X59497160Y-46295462D01*
X59371723Y-46391713D01*
X59371713Y-46391723D01*
X59275462Y-46517160D01*
X59275462Y-46517161D01*
X59214957Y-46663233D01*
X59214955Y-46663241D01*
X59199500Y-46780637D01*
X58751500Y-46780637D01*
X58751500Y-42751840D01*
X58751501Y-42751827D01*
X58751501Y-42658146D01*
X58751500Y-42658144D01*
X58729319Y-42575364D01*
X58729318Y-42575362D01*
X58715541Y-42551500D01*
X58715540Y-42551499D01*
X58686465Y-42501138D01*
X58661506Y-42476179D01*
X58625862Y-42440534D01*
X58625862Y-42440535D01*
X58625860Y-42440533D01*
X58625860Y-42440532D01*
X58329831Y-42144504D01*
X58319308Y-42123851D01*
X58305679Y-42105093D01*
X58305679Y-42097103D01*
X58302053Y-42089987D01*
X58305679Y-42067092D01*
X58305679Y-42043907D01*
X58310374Y-42037444D01*
X58311624Y-42029555D01*
X58328015Y-42013163D01*
X58341643Y-41994407D01*
X58349240Y-41991938D01*
X58354889Y-41986290D01*
X58399834Y-41975500D01*
X58578787Y-41975500D01*
X58636978Y-41994407D01*
X58666996Y-42029555D01*
X58696624Y-42087704D01*
X58696950Y-42088342D01*
X58786658Y-42178050D01*
X58899696Y-42235646D01*
X58993481Y-42250500D01*
X59606518Y-42250499D01*
X59606520Y-42250499D01*
X59606521Y-42250498D01*
X59653411Y-42243072D01*
X59700299Y-42235647D01*
X59700299Y-42235646D01*
X59700304Y-42235646D01*
X59813342Y-42178050D01*
X59903050Y-42088342D01*
X59960646Y-41975304D01*
X59975500Y-41881519D01*
X59975499Y-41418482D01*
X59968874Y-41376651D01*
X59960647Y-41324700D01*
X59960646Y-41324698D01*
X59960646Y-41324696D01*
X59903050Y-41211658D01*
X59813342Y-41121950D01*
X59700304Y-41064354D01*
X59700305Y-41064354D01*
X59606522Y-41049500D01*
X58993482Y-41049500D01*
X58921796Y-41060853D01*
X58861364Y-41051279D01*
X58818101Y-41008014D01*
X58816464Y-41004643D01*
X58812888Y-40996916D01*
X58796503Y-40935763D01*
X58740485Y-40838737D01*
X58739024Y-40837276D01*
X58734652Y-40827827D01*
X58733045Y-40814413D01*
X58725500Y-40786255D01*
X58725500Y-40597885D01*
X58744407Y-40539694D01*
X58793907Y-40503730D01*
X58809015Y-40500104D01*
X58900299Y-40485647D01*
X58900299Y-40485646D01*
X58900304Y-40485646D01*
X59013342Y-40428050D01*
X59103050Y-40338342D01*
X59160646Y-40225304D01*
X59175500Y-40131519D01*
X59175499Y-39668482D01*
X59165581Y-39605857D01*
X59160647Y-39574700D01*
X59160646Y-39574698D01*
X59160646Y-39574696D01*
X59103050Y-39461658D01*
X59013342Y-39371950D01*
X58900304Y-39314354D01*
X58900305Y-39314354D01*
X58806522Y-39299500D01*
X58193479Y-39299500D01*
X58193476Y-39299501D01*
X58099700Y-39314352D01*
X58099697Y-39314353D01*
X58019445Y-39355244D01*
X57959013Y-39364815D01*
X57904496Y-39337038D01*
X57876719Y-39282521D01*
X57875500Y-39267034D01*
X57875500Y-39130818D01*
X57875500Y-39130817D01*
X57839688Y-38997164D01*
X57770505Y-38877335D01*
X57672665Y-38779495D01*
X57552836Y-38710312D01*
X57419183Y-38674500D01*
X57299499Y-38674500D01*
X57241308Y-38655593D01*
X57205344Y-38606093D01*
X57200499Y-38575500D01*
X57200499Y-38164311D01*
X57200121Y-38159513D01*
X57197597Y-38127431D01*
X57151743Y-37969602D01*
X57068080Y-37828135D01*
X56951864Y-37711919D01*
X56810397Y-37628256D01*
X56652568Y-37582402D01*
X56652567Y-37582401D01*
X56652564Y-37582401D01*
X56629139Y-37580558D01*
X56615693Y-37579500D01*
X55384305Y-37579500D01*
X55371772Y-37580486D01*
X55347433Y-37582401D01*
X55347426Y-37582403D01*
X55189601Y-37628256D01*
X55048135Y-37711918D01*
X54931917Y-37828136D01*
X54848255Y-37969602D01*
X54802402Y-38127427D01*
X54802400Y-38127434D01*
X54799499Y-38164311D01*
X54799499Y-38500164D01*
X54780592Y-38558355D01*
X54731092Y-38594319D01*
X54669906Y-38594319D01*
X54630495Y-38570168D01*
X53404495Y-37344168D01*
X53376718Y-37289651D01*
X53375499Y-37274164D01*
X53375499Y-36868478D01*
X53375498Y-36868476D01*
X53360647Y-36774700D01*
X53360646Y-36774698D01*
X53360646Y-36774696D01*
X53303050Y-36661658D01*
X53213342Y-36571950D01*
X53100304Y-36514354D01*
X53100305Y-36514354D01*
X53006522Y-36499500D01*
X52393479Y-36499500D01*
X52393476Y-36499501D01*
X52299700Y-36514352D01*
X52299695Y-36514354D01*
X52186659Y-36571949D01*
X52096948Y-36661660D01*
X52092472Y-36670446D01*
X52076082Y-36686835D01*
X52062454Y-36705593D01*
X52054855Y-36708061D01*
X52049207Y-36713710D01*
X52004263Y-36724500D01*
X51937010Y-36724500D01*
X51878819Y-36705593D01*
X51848801Y-36670445D01*
X51798529Y-36571782D01*
X51798528Y-36571780D01*
X51703220Y-36476472D01*
X51703217Y-36476470D01*
X51583132Y-36415283D01*
X51583127Y-36415281D01*
X51583126Y-36415281D01*
X51549913Y-36410020D01*
X51483490Y-36399500D01*
X51483488Y-36399500D01*
X50916512Y-36399500D01*
X50916510Y-36399500D01*
X50816874Y-36415281D01*
X50816867Y-36415283D01*
X50696782Y-36476470D01*
X50601470Y-36571782D01*
X50540283Y-36691867D01*
X50540281Y-36691874D01*
X50524500Y-36791510D01*
X50524500Y-37308489D01*
X50540281Y-37408125D01*
X50540283Y-37408132D01*
X50601470Y-37528217D01*
X50601472Y-37528220D01*
X50696780Y-37623528D01*
X50696782Y-37623529D01*
X50816867Y-37684716D01*
X50816869Y-37684716D01*
X50816874Y-37684719D01*
X50892541Y-37696703D01*
X50916510Y-37700500D01*
X50916512Y-37700500D01*
X51483490Y-37700500D01*
X51504885Y-37697111D01*
X51583126Y-37684719D01*
X51703220Y-37623528D01*
X51798528Y-37528220D01*
X51823999Y-37478230D01*
X51848801Y-37429555D01*
X51865190Y-37413165D01*
X51878819Y-37394407D01*
X51886416Y-37391938D01*
X51892065Y-37386290D01*
X51937010Y-37375500D01*
X51953310Y-37375500D01*
X52011501Y-37394407D01*
X52041519Y-37429554D01*
X52096950Y-37538342D01*
X52186658Y-37628050D01*
X52299696Y-37685646D01*
X52393481Y-37700500D01*
X52799164Y-37700499D01*
X52857355Y-37719406D01*
X52869168Y-37729495D01*
X54350138Y-39210465D01*
X54350140Y-39210466D01*
X54350141Y-39210467D01*
X54350142Y-39210468D01*
X54424357Y-39253316D01*
X54424355Y-39253316D01*
X54424359Y-39253317D01*
X54424361Y-39253318D01*
X54507147Y-39275500D01*
X54894545Y-39275500D01*
X54952736Y-39294407D01*
X54964548Y-39304496D01*
X55013872Y-39353819D01*
X55048134Y-39388081D01*
X55189601Y-39471744D01*
X55347430Y-39517598D01*
X55384305Y-39520500D01*
X55517086Y-39520500D01*
X55575277Y-39539407D01*
X55611241Y-39588907D01*
X55611241Y-39650093D01*
X55603986Y-39664316D01*
X55605009Y-39664838D01*
X55540283Y-39791867D01*
X55540281Y-39791874D01*
X55524500Y-39891510D01*
X55524500Y-40324165D01*
X55505593Y-40382356D01*
X55495504Y-40394169D01*
X54846169Y-41043504D01*
X54791652Y-41071281D01*
X54776165Y-41072500D01*
X53669193Y-41072500D01*
X53624248Y-41061710D01*
X53600286Y-41049501D01*
X53533126Y-41015281D01*
X53433490Y-40999500D01*
X53433488Y-40999500D01*
X52916512Y-40999500D01*
X52916509Y-40999500D01*
X52873809Y-41006263D01*
X52813377Y-40996692D01*
X52770112Y-40953427D01*
X52759322Y-40908482D01*
X52759322Y-40818983D01*
X52759322Y-40818982D01*
X52730325Y-40710763D01*
X52730323Y-40710760D01*
X52730323Y-40710758D01*
X52674308Y-40613739D01*
X52674307Y-40613737D01*
X52595085Y-40534515D01*
X52554597Y-40511139D01*
X52498062Y-40478498D01*
X52498064Y-40478498D01*
X52456073Y-40467247D01*
X52389840Y-40449500D01*
X52374500Y-40449500D01*
X52316309Y-40430593D01*
X52280345Y-40381093D01*
X52275500Y-40350500D01*
X52275500Y-39891510D01*
X52271703Y-39867541D01*
X52259719Y-39791874D01*
X52259716Y-39791869D01*
X52259716Y-39791867D01*
X52198529Y-39671782D01*
X52198528Y-39671780D01*
X52103220Y-39576472D01*
X52099732Y-39574695D01*
X52004554Y-39526198D01*
X51988164Y-39509808D01*
X51969407Y-39496180D01*
X51966938Y-39488581D01*
X51961290Y-39482933D01*
X51950500Y-39437989D01*
X51950500Y-39412010D01*
X51969407Y-39353819D01*
X52004555Y-39323801D01*
X52085570Y-39282521D01*
X52103220Y-39273528D01*
X52198528Y-39178220D01*
X52259719Y-39058126D01*
X52274824Y-38962758D01*
X52275500Y-38958489D01*
X52275500Y-38391510D01*
X52266669Y-38335758D01*
X52259719Y-38291874D01*
X52259716Y-38291869D01*
X52259716Y-38291867D01*
X52198529Y-38171782D01*
X52198528Y-38171780D01*
X52103220Y-38076472D01*
X52103217Y-38076470D01*
X51983132Y-38015283D01*
X51983127Y-38015281D01*
X51983126Y-38015281D01*
X51949913Y-38010020D01*
X51883490Y-37999500D01*
X51883488Y-37999500D01*
X51366512Y-37999500D01*
X51366510Y-37999500D01*
X51266874Y-38015281D01*
X51266867Y-38015283D01*
X51146782Y-38076470D01*
X51051470Y-38171782D01*
X50990283Y-38291867D01*
X50990281Y-38291874D01*
X50974500Y-38391510D01*
X50974500Y-38958489D01*
X50990281Y-39058125D01*
X50990283Y-39058132D01*
X51051470Y-39178217D01*
X51051472Y-39178220D01*
X51146780Y-39273528D01*
X51146782Y-39273529D01*
X51245445Y-39323801D01*
X51261834Y-39340190D01*
X51280593Y-39353819D01*
X51283061Y-39361416D01*
X51288710Y-39367065D01*
X51299500Y-39412010D01*
X51299500Y-39437989D01*
X51280593Y-39496180D01*
X51245446Y-39526198D01*
X51146781Y-39576471D01*
X51051470Y-39671782D01*
X50990283Y-39791867D01*
X50990281Y-39791874D01*
X50974500Y-39891510D01*
X50974500Y-40458489D01*
X50980549Y-40496682D01*
X50987336Y-40539535D01*
X50990281Y-40558125D01*
X50990283Y-40558132D01*
X51051470Y-40678217D01*
X51051472Y-40678220D01*
X51146780Y-40773528D01*
X51146782Y-40773529D01*
X51245445Y-40823801D01*
X51261834Y-40840190D01*
X51280593Y-40853819D01*
X51283061Y-40861416D01*
X51288710Y-40867065D01*
X51299500Y-40912010D01*
X51299500Y-40937989D01*
X51280593Y-40996180D01*
X51245446Y-41026198D01*
X51146781Y-41076471D01*
X51051470Y-41171782D01*
X50990283Y-41291867D01*
X50990281Y-41291874D01*
X50974500Y-41391510D01*
X50974500Y-41958489D01*
X50978903Y-41986290D01*
X50987210Y-42038739D01*
X50990281Y-42058125D01*
X50990282Y-42058129D01*
X51005675Y-42088339D01*
X51029300Y-42134706D01*
X51033729Y-42143397D01*
X51043301Y-42203829D01*
X51015524Y-42258346D01*
X51015524Y-42258347D01*
X50344504Y-42929368D01*
X50289987Y-42957145D01*
X50229555Y-42947574D01*
X50186290Y-42904309D01*
X50175500Y-42859364D01*
X50175500Y-42586340D01*
X50175501Y-42586327D01*
X50175501Y-42492646D01*
X50175500Y-42492644D01*
X50163145Y-42446537D01*
X50153318Y-42409861D01*
X50120331Y-42352727D01*
X50119221Y-42350805D01*
X50110467Y-42335641D01*
X50110466Y-42335640D01*
X50110465Y-42335638D01*
X50049862Y-42275035D01*
X50049859Y-42275033D01*
X49894830Y-42120004D01*
X49887711Y-42106032D01*
X49876624Y-42094945D01*
X49874171Y-42079457D01*
X49867053Y-42065487D01*
X49869505Y-42050000D01*
X49867053Y-42034513D01*
X49874171Y-42020542D01*
X49876624Y-42005055D01*
X49894830Y-41979996D01*
X50020331Y-41854495D01*
X50074848Y-41826718D01*
X50090335Y-41825499D01*
X50406521Y-41825499D01*
X50406522Y-41825498D01*
X50453411Y-41818072D01*
X50500299Y-41810647D01*
X50500299Y-41810646D01*
X50500304Y-41810646D01*
X50613342Y-41753050D01*
X50703050Y-41663342D01*
X50760646Y-41550304D01*
X50775500Y-41456519D01*
X50775499Y-40993482D01*
X50770266Y-40960438D01*
X50760647Y-40899700D01*
X50760646Y-40899698D01*
X50760646Y-40899696D01*
X50703050Y-40786658D01*
X50613342Y-40696950D01*
X50500304Y-40639354D01*
X50500305Y-40639354D01*
X50406522Y-40624500D01*
X49793479Y-40624500D01*
X49793476Y-40624501D01*
X49699700Y-40639352D01*
X49699695Y-40639354D01*
X49586659Y-40696949D01*
X49496949Y-40786659D01*
X49463710Y-40851894D01*
X49420445Y-40895158D01*
X49360013Y-40904729D01*
X49305497Y-40876951D01*
X49277720Y-40822434D01*
X49276501Y-40806948D01*
X49276501Y-39999500D01*
X49281346Y-39984588D01*
X49281346Y-39968907D01*
X49290562Y-39956221D01*
X49295408Y-39941309D01*
X49308093Y-39932092D01*
X49317310Y-39919407D01*
X49332222Y-39914561D01*
X49344908Y-39905345D01*
X49375501Y-39900500D01*
X49378787Y-39900500D01*
X49436978Y-39919407D01*
X49466996Y-39954555D01*
X49479282Y-39978668D01*
X49496950Y-40013342D01*
X49586658Y-40103050D01*
X49699696Y-40160646D01*
X49793481Y-40175500D01*
X50406518Y-40175499D01*
X50406520Y-40175499D01*
X50406521Y-40175498D01*
X50453411Y-40168072D01*
X50500299Y-40160647D01*
X50500299Y-40160646D01*
X50500304Y-40160646D01*
X50613342Y-40103050D01*
X50703050Y-40013342D01*
X50760646Y-39900304D01*
X50775500Y-39806519D01*
X50775499Y-39343482D01*
X50764733Y-39275500D01*
X50760647Y-39249700D01*
X50760646Y-39249698D01*
X50760646Y-39249696D01*
X50703050Y-39136658D01*
X50613342Y-39046950D01*
X50500304Y-38989354D01*
X50500305Y-38989354D01*
X50406522Y-38974500D01*
X50406519Y-38974500D01*
X50375834Y-38974500D01*
X50368239Y-38972032D01*
X50360352Y-38973282D01*
X50339696Y-38962758D01*
X50317643Y-38955593D01*
X50305834Y-38945507D01*
X50305832Y-38945505D01*
X50299862Y-38939535D01*
X50299859Y-38939533D01*
X50296404Y-38936077D01*
X50296402Y-38936076D01*
X50296398Y-38936072D01*
X50052013Y-38691686D01*
X50026390Y-38647306D01*
X50025500Y-38643983D01*
X50025500Y-38643982D01*
X49996503Y-38535763D01*
X49996501Y-38535760D01*
X49996501Y-38535758D01*
X49940486Y-38438739D01*
X49940485Y-38438737D01*
X49861263Y-38359515D01*
X49861260Y-38359513D01*
X49764240Y-38303498D01*
X49764242Y-38303498D01*
X49720833Y-38291867D01*
X49656018Y-38274500D01*
X49543982Y-38274500D01*
X49479167Y-38291867D01*
X49435758Y-38303498D01*
X49338739Y-38359513D01*
X49259513Y-38438739D01*
X49203498Y-38535758D01*
X49187807Y-38594319D01*
X49174500Y-38643982D01*
X49174500Y-38756018D01*
X49179683Y-38775360D01*
X49188872Y-38809657D01*
X49185669Y-38870759D01*
X49147163Y-38918308D01*
X49088063Y-38934143D01*
X49048300Y-38923489D01*
X48983126Y-38890281D01*
X48883490Y-38874500D01*
X48883488Y-38874500D01*
X48366512Y-38874500D01*
X48366510Y-38874500D01*
X48266874Y-38890281D01*
X48266870Y-38890282D01*
X48259864Y-38893852D01*
X48199431Y-38903420D01*
X48144916Y-38875640D01*
X48119298Y-38831266D01*
X48104318Y-38775362D01*
X48089755Y-38750138D01*
X48089755Y-38750137D01*
X48075610Y-38725638D01*
X48061465Y-38701138D01*
X48000862Y-38640535D01*
X48000859Y-38640533D01*
X47997404Y-38637077D01*
X47997398Y-38637072D01*
X47799065Y-38438739D01*
X47599862Y-38239535D01*
X47599857Y-38239531D01*
X47525642Y-38196683D01*
X47525644Y-38196683D01*
X47493521Y-38188076D01*
X47442853Y-38174500D01*
X47442851Y-38174500D01*
X47313744Y-38174500D01*
X47264244Y-38161236D01*
X47164240Y-38103498D01*
X47164242Y-38103498D01*
X47122251Y-38092247D01*
X47056018Y-38074500D01*
X46943982Y-38074500D01*
X46877748Y-38092247D01*
X46835758Y-38103498D01*
X46738739Y-38159513D01*
X46659513Y-38238739D01*
X46603498Y-38335758D01*
X46603497Y-38335763D01*
X46574500Y-38443982D01*
X46574500Y-38556018D01*
X46592850Y-38624500D01*
X46603498Y-38664241D01*
X46657527Y-38757820D01*
X46659515Y-38761263D01*
X46738737Y-38840485D01*
X46738739Y-38840486D01*
X46835759Y-38896501D01*
X46835757Y-38896501D01*
X46835761Y-38896502D01*
X46835763Y-38896503D01*
X46943982Y-38925500D01*
X46943984Y-38925500D01*
X47056016Y-38925500D01*
X47056018Y-38925500D01*
X47164237Y-38896503D01*
X47207453Y-38871551D01*
X47210098Y-38870989D01*
X47212009Y-38869079D01*
X47239780Y-38864680D01*
X47267302Y-38858830D01*
X47269772Y-38859929D01*
X47272441Y-38859507D01*
X47297498Y-38872274D01*
X47323197Y-38883716D01*
X47326957Y-38887284D01*
X47446503Y-39006829D01*
X47474281Y-39061346D01*
X47475500Y-39076833D01*
X47475500Y-39908665D01*
X47456593Y-39966856D01*
X47446504Y-39978668D01*
X47239535Y-40185637D01*
X47239531Y-40185642D01*
X47196683Y-40259857D01*
X47188976Y-40288622D01*
X47155652Y-40339937D01*
X47098531Y-40361864D01*
X47093349Y-40362000D01*
X46855251Y-40362000D01*
X46855250Y-40362000D01*
X46855240Y-40362001D01*
X46796771Y-40373632D01*
X46796765Y-40373634D01*
X46730450Y-40417945D01*
X46730447Y-40417948D01*
X46722058Y-40430502D01*
X46674010Y-40468381D01*
X46639744Y-40474500D01*
X45957147Y-40474500D01*
X45874362Y-40496682D01*
X45874361Y-40496682D01*
X45874359Y-40496683D01*
X45853691Y-40508616D01*
X45849322Y-40511139D01*
X45808833Y-40534515D01*
X45800138Y-40539535D01*
X45189531Y-41150142D01*
X45146684Y-41224355D01*
X45146680Y-41224365D01*
X45132981Y-41275497D01*
X45132980Y-41275501D01*
X45124500Y-41307146D01*
X45124500Y-41724165D01*
X45122031Y-41731762D01*
X45123281Y-41739652D01*
X45112756Y-41760307D01*
X45105593Y-41782356D01*
X45095504Y-41794169D01*
X45044169Y-41845504D01*
X44989652Y-41873281D01*
X44974165Y-41874500D01*
X44943982Y-41874500D01*
X44880003Y-41891643D01*
X44835758Y-41903498D01*
X44738739Y-41959513D01*
X44659513Y-42038739D01*
X44603498Y-42135758D01*
X44592121Y-42178220D01*
X44574500Y-42243982D01*
X44574500Y-42356018D01*
X44588927Y-42409861D01*
X44603498Y-42464241D01*
X44653878Y-42551500D01*
X44659515Y-42561263D01*
X44738737Y-42640485D01*
X44769323Y-42658144D01*
X44835759Y-42696501D01*
X44835757Y-42696501D01*
X44835761Y-42696502D01*
X44835763Y-42696503D01*
X44943982Y-42725500D01*
X44943984Y-42725500D01*
X45056016Y-42725500D01*
X45056018Y-42725500D01*
X45164237Y-42696503D01*
X45164239Y-42696501D01*
X45164241Y-42696501D01*
X45193064Y-42679859D01*
X45261263Y-42640485D01*
X45340485Y-42561263D01*
X45389609Y-42476176D01*
X45435076Y-42435237D01*
X45495926Y-42428841D01*
X45545347Y-42455673D01*
X45594669Y-42504996D01*
X45622446Y-42559512D01*
X45612875Y-42619944D01*
X45594668Y-42645003D01*
X45153678Y-43085992D01*
X45114269Y-43110142D01*
X45085584Y-43119462D01*
X45085577Y-43119466D01*
X45008762Y-43175276D01*
X44575279Y-43608760D01*
X44519464Y-43685580D01*
X44493908Y-43764237D01*
X44480262Y-43806237D01*
X44480262Y-43933103D01*
X44494135Y-43975800D01*
X44519465Y-44053761D01*
X44575276Y-44130577D01*
X44575277Y-44130578D01*
X44575278Y-44130579D01*
X44902695Y-44457995D01*
X44979514Y-44513809D01*
X44984675Y-44515485D01*
X44985697Y-44515818D01*
X45035198Y-44551781D01*
X45054106Y-44609971D01*
X45047141Y-44635991D01*
X45050055Y-44636772D01*
X45046681Y-44649359D01*
X45046682Y-44649360D01*
X45024500Y-44732146D01*
X45024500Y-45272857D01*
X45011238Y-45322354D01*
X45003497Y-45335763D01*
X44974500Y-45443982D01*
X44974500Y-45556018D01*
X44992909Y-45624720D01*
X45003498Y-45664241D01*
X45058506Y-45759515D01*
X45059515Y-45761263D01*
X45138737Y-45840485D01*
X45138739Y-45840486D01*
X45235759Y-45896501D01*
X45235757Y-45896501D01*
X45235761Y-45896502D01*
X45235763Y-45896503D01*
X45343982Y-45925500D01*
X45343984Y-45925500D01*
X45456016Y-45925500D01*
X45456018Y-45925500D01*
X45564237Y-45896503D01*
X45564239Y-45896501D01*
X45564241Y-45896501D01*
X45593064Y-45879859D01*
X45661263Y-45840485D01*
X45740485Y-45761263D01*
X45796503Y-45664237D01*
X45818148Y-45583455D01*
X45851469Y-45532144D01*
X45908590Y-45510217D01*
X45967691Y-45526052D01*
X45983776Y-45539077D01*
X46028159Y-45583459D01*
X46069421Y-45624721D01*
X46146240Y-45680535D01*
X46266897Y-45719738D01*
X46266899Y-45719738D01*
X46282299Y-45719738D01*
X46309039Y-45728426D01*
X46336207Y-45735702D01*
X46337912Y-45737807D01*
X46340490Y-45738645D01*
X46357021Y-45761398D01*
X46374719Y-45783247D01*
X46374861Y-45785952D01*
X46376454Y-45788145D01*
X46377929Y-45844348D01*
X46377647Y-45845401D01*
X46377644Y-45845412D01*
X46374500Y-45857144D01*
X46374500Y-46978081D01*
X46355593Y-47036272D01*
X46306093Y-47072236D01*
X46244907Y-47072236D01*
X46195407Y-47036272D01*
X46184036Y-47015967D01*
X46179032Y-47003887D01*
X46132089Y-46890556D01*
X46017125Y-46718499D01*
X45870803Y-46572177D01*
X45851853Y-46559515D01*
X45698745Y-46457212D01*
X45507566Y-46378023D01*
X45304615Y-46337654D01*
X45304613Y-46337654D01*
X45097683Y-46337654D01*
X45097680Y-46337654D01*
X44894729Y-46378023D01*
X44703550Y-46457212D01*
X44531496Y-46572174D01*
X44385168Y-46718502D01*
X44270206Y-46890556D01*
X44191017Y-47081735D01*
X44150648Y-47284686D01*
X44150648Y-47491621D01*
X44191017Y-47694572D01*
X44270206Y-47885751D01*
X44372926Y-48039483D01*
X44385171Y-48057809D01*
X44531493Y-48204131D01*
X44703550Y-48319095D01*
X44894728Y-48398284D01*
X45097683Y-48438654D01*
X45097684Y-48438654D01*
X45304612Y-48438654D01*
X45304613Y-48438654D01*
X45507568Y-48398284D01*
X45698746Y-48319095D01*
X45870803Y-48204131D01*
X46017125Y-48057809D01*
X46132089Y-47885752D01*
X46184036Y-47760340D01*
X46223772Y-47713815D01*
X46283267Y-47699531D01*
X46339795Y-47722946D01*
X46371765Y-47775115D01*
X46374500Y-47798226D01*
X46374500Y-47857147D01*
X46374500Y-47942853D01*
X46382809Y-47973862D01*
X46396683Y-48025643D01*
X46439531Y-48099857D01*
X46439535Y-48099862D01*
X46789533Y-48449859D01*
X46789535Y-48449862D01*
X46849746Y-48510073D01*
X46877522Y-48564589D01*
X46877311Y-48565922D01*
X46867951Y-48625020D01*
X46861864Y-48634667D01*
X46803498Y-48735758D01*
X46801228Y-48744231D01*
X46774500Y-48843982D01*
X46774500Y-48956018D01*
X46787367Y-49004037D01*
X46803498Y-49064241D01*
X46851322Y-49147073D01*
X46859515Y-49161263D01*
X46938737Y-49240485D01*
X47035763Y-49296503D01*
X47035767Y-49296504D01*
X47037745Y-49297646D01*
X47078686Y-49343116D01*
X47085082Y-49403966D01*
X47083872Y-49409004D01*
X47074500Y-49443982D01*
X47074500Y-49556018D01*
X47082235Y-49584886D01*
X47103498Y-49664241D01*
X47159513Y-49761260D01*
X47159515Y-49761263D01*
X47238737Y-49840485D01*
X47238739Y-49840486D01*
X47335759Y-49896501D01*
X47335757Y-49896501D01*
X47335761Y-49896502D01*
X47335763Y-49896503D01*
X47443982Y-49925500D01*
X47443984Y-49925500D01*
X47474589Y-49925500D01*
X47532780Y-49944407D01*
X47568744Y-49993907D01*
X47568744Y-50055093D01*
X47532780Y-50104593D01*
X47524090Y-50110236D01*
X47438738Y-50159514D01*
X47359513Y-50238739D01*
X47303498Y-50335758D01*
X47294760Y-50368369D01*
X47274500Y-50443982D01*
X47274500Y-50556018D01*
X47290655Y-50616308D01*
X47303498Y-50664241D01*
X47359513Y-50761260D01*
X47359515Y-50761263D01*
X47438737Y-50840485D01*
X47438739Y-50840486D01*
X47535759Y-50896501D01*
X47535757Y-50896501D01*
X47535761Y-50896502D01*
X47535763Y-50896503D01*
X47643982Y-50925500D01*
X47643984Y-50925500D01*
X47756016Y-50925500D01*
X47756018Y-50925500D01*
X47864237Y-50896503D01*
X47864239Y-50896501D01*
X47864241Y-50896501D01*
X47902929Y-50874164D01*
X47961263Y-50840485D01*
X48040485Y-50761263D01*
X48096503Y-50664237D01*
X48100618Y-50648876D01*
X48133942Y-50597563D01*
X48191063Y-50575636D01*
X48196245Y-50575500D01*
X48616876Y-50575500D01*
X48616884Y-50575499D01*
X48725166Y-50575499D01*
X48783357Y-50594406D01*
X48819321Y-50643906D01*
X48819321Y-50705092D01*
X48795170Y-50744503D01*
X47106964Y-52432708D01*
X47052447Y-52460485D01*
X46992015Y-52450914D01*
X46948750Y-52407649D01*
X46942372Y-52391930D01*
X46940572Y-52386106D01*
X46889198Y-52281018D01*
X46806483Y-52198303D01*
X46806481Y-52198302D01*
X46701395Y-52146928D01*
X46674139Y-52142957D01*
X46633260Y-52137001D01*
X46266740Y-52137001D01*
X46232673Y-52141964D01*
X46198604Y-52146928D01*
X46093518Y-52198302D01*
X46010800Y-52281020D01*
X46006035Y-52287695D01*
X46003507Y-52285890D01*
X45970882Y-52319602D01*
X45910614Y-52330160D01*
X45855651Y-52303278D01*
X45826985Y-52249223D01*
X45825500Y-52232139D01*
X45825500Y-52148688D01*
X45844407Y-52090497D01*
X45854496Y-52078684D01*
X45856480Y-52076698D01*
X45856483Y-52076698D01*
X45939198Y-51993983D01*
X45990573Y-51888893D01*
X46000500Y-51820760D01*
X46000500Y-50579240D01*
X45990573Y-50511107D01*
X45990259Y-50510465D01*
X45939198Y-50406018D01*
X45939198Y-50406017D01*
X45856483Y-50323302D01*
X45839008Y-50314759D01*
X45751395Y-50271927D01*
X45724139Y-50267956D01*
X45683260Y-50262000D01*
X45316740Y-50262000D01*
X45282673Y-50266963D01*
X45248604Y-50271927D01*
X45143518Y-50323301D01*
X45060801Y-50406018D01*
X45009427Y-50511104D01*
X45009427Y-50511107D01*
X44999500Y-50579240D01*
X44999500Y-51820760D01*
X45003625Y-51849071D01*
X45009427Y-51888895D01*
X45034184Y-51939535D01*
X45060802Y-51993983D01*
X45143517Y-52076698D01*
X45143518Y-52076698D01*
X45145504Y-52078684D01*
X45173281Y-52133201D01*
X45174500Y-52148688D01*
X45174500Y-55457147D01*
X45174500Y-55542853D01*
X45180985Y-55567055D01*
X45196683Y-55625643D01*
X45239531Y-55699857D01*
X45239532Y-55699858D01*
X45239533Y-55699859D01*
X45239535Y-55699862D01*
X45575436Y-56035763D01*
X45894170Y-56354497D01*
X45921947Y-56409014D01*
X45912376Y-56469446D01*
X45869111Y-56512711D01*
X45824166Y-56523501D01*
X44274500Y-56523501D01*
X44216309Y-56504594D01*
X44180345Y-56455094D01*
X44175500Y-56424501D01*
X44175500Y-48424235D01*
X44175500Y-48424234D01*
X44173402Y-48416404D01*
X44173402Y-48416401D01*
X44173401Y-48416402D01*
X44136281Y-48277865D01*
X44106048Y-48225500D01*
X44060515Y-48146635D01*
X43953365Y-48039485D01*
X43953362Y-48039483D01*
X42929846Y-47015967D01*
X41904496Y-45990616D01*
X41876719Y-45936099D01*
X41875500Y-45920612D01*
X41875500Y-45488634D01*
X42354596Y-45488634D01*
X42354596Y-45695569D01*
X42394965Y-45898520D01*
X42474154Y-46089699D01*
X42579091Y-46246749D01*
X42589119Y-46261757D01*
X42735441Y-46408079D01*
X42907498Y-46523043D01*
X43098676Y-46602232D01*
X43301631Y-46642602D01*
X43301632Y-46642602D01*
X43508560Y-46642602D01*
X43508561Y-46642602D01*
X43711516Y-46602232D01*
X43902694Y-46523043D01*
X44074751Y-46408079D01*
X44221073Y-46261757D01*
X44336037Y-46089700D01*
X44415226Y-45898522D01*
X44455596Y-45695567D01*
X44455596Y-45488637D01*
X44415226Y-45285682D01*
X44336037Y-45094504D01*
X44221073Y-44922447D01*
X44074751Y-44776125D01*
X44074747Y-44776122D01*
X43902693Y-44661160D01*
X43791710Y-44615189D01*
X43745184Y-44575452D01*
X43730596Y-44523725D01*
X43730596Y-42265711D01*
X43749503Y-42207520D01*
X43759586Y-42195713D01*
X43857995Y-42097305D01*
X43913809Y-42020486D01*
X43953012Y-41899829D01*
X43953012Y-41772963D01*
X43913809Y-41652306D01*
X43857996Y-41575487D01*
X43424513Y-41142005D01*
X43389569Y-41116616D01*
X43347693Y-41086190D01*
X43280485Y-41064354D01*
X43227037Y-41046988D01*
X43100171Y-41046988D01*
X43059952Y-41060055D01*
X42979512Y-41086191D01*
X42902696Y-41142002D01*
X42575279Y-41469420D01*
X42519464Y-41546240D01*
X42489875Y-41637308D01*
X42480262Y-41666897D01*
X42480262Y-41793763D01*
X42499115Y-41851787D01*
X42519465Y-41914421D01*
X42575276Y-41991237D01*
X43008762Y-42424722D01*
X43038787Y-42446537D01*
X43074751Y-42496037D01*
X43079596Y-42526629D01*
X43079596Y-44523725D01*
X43060689Y-44581916D01*
X43018482Y-44615189D01*
X42907498Y-44661160D01*
X42735444Y-44776122D01*
X42589116Y-44922450D01*
X42474154Y-45094504D01*
X42394965Y-45285683D01*
X42354596Y-45488634D01*
X41875500Y-45488634D01*
X41875500Y-44888884D01*
X41894407Y-44830693D01*
X41936614Y-44797420D01*
X42106643Y-44726992D01*
X42278700Y-44612028D01*
X42425022Y-44465706D01*
X42539986Y-44293649D01*
X42619175Y-44102471D01*
X42659545Y-43899516D01*
X42659545Y-43692586D01*
X42619175Y-43489631D01*
X42539986Y-43298453D01*
X42425022Y-43126396D01*
X42278700Y-42980074D01*
X42278696Y-42980071D01*
X42106642Y-42865109D01*
X41915463Y-42785920D01*
X41712512Y-42745551D01*
X41712510Y-42745551D01*
X41505580Y-42745551D01*
X41505577Y-42745551D01*
X41302626Y-42785920D01*
X41111447Y-42865109D01*
X40939393Y-42980071D01*
X40793065Y-43126399D01*
X40678103Y-43298453D01*
X40598914Y-43489632D01*
X40558545Y-43692583D01*
X40558545Y-43904380D01*
X40556396Y-43904380D01*
X40545078Y-43955884D01*
X40499329Y-43996511D01*
X40438436Y-44002489D01*
X40389680Y-43975800D01*
X38582448Y-42168568D01*
X38578821Y-42161450D01*
X38572359Y-42156755D01*
X38565195Y-42134706D01*
X38554671Y-42114051D01*
X38553452Y-42098564D01*
X38553452Y-42001434D01*
X38572359Y-41943243D01*
X38582442Y-41931436D01*
X40053362Y-40460516D01*
X40053365Y-40460515D01*
X40160515Y-40353365D01*
X40186975Y-40307536D01*
X40236278Y-40222140D01*
X40236277Y-40222140D01*
X40236281Y-40222135D01*
X40260561Y-40131519D01*
X40275500Y-40075767D01*
X40275500Y-39924234D01*
X40275500Y-38902376D01*
X40294407Y-38844185D01*
X40343907Y-38808221D01*
X40393816Y-38805279D01*
X40399999Y-38806509D01*
X40400000Y-38806509D01*
X40478231Y-38790948D01*
X40527811Y-38757820D01*
X41757820Y-37527811D01*
X41790948Y-37478231D01*
X41806509Y-37400000D01*
X41805396Y-37394407D01*
X41790948Y-37321769D01*
X41757822Y-37272192D01*
X41757820Y-37272189D01*
X40527811Y-36042180D01*
X40478231Y-36009052D01*
X40478230Y-36009051D01*
X40400000Y-35993491D01*
X40321769Y-36009051D01*
X40272192Y-36042177D01*
X39042177Y-37272192D01*
X39009051Y-37321769D01*
X38993491Y-37399999D01*
X38993491Y-37400000D01*
X39009051Y-37478230D01*
X39042179Y-37527810D01*
X39193645Y-37679277D01*
X39221422Y-37733793D01*
X39211851Y-37794225D01*
X39209378Y-37798779D01*
X39163720Y-37877861D01*
X39163719Y-37877865D01*
X39126899Y-38015283D01*
X39124500Y-38024235D01*
X39124500Y-39720612D01*
X39105593Y-39778803D01*
X39095504Y-39790615D01*
X37769502Y-41116616D01*
X37748848Y-41127140D01*
X37730093Y-41140767D01*
X37722104Y-41140767D01*
X37714987Y-41144393D01*
X37692092Y-41140767D01*
X37668907Y-41140767D01*
X37662444Y-41136071D01*
X37654555Y-41134822D01*
X37638163Y-41118430D01*
X37619407Y-41104803D01*
X37616938Y-41097205D01*
X37611290Y-41091557D01*
X37600500Y-41046612D01*
X37600500Y-41001315D01*
X37600539Y-40998539D01*
X37603312Y-40899695D01*
X37619927Y-40307504D01*
X37620235Y-40302026D01*
X37678233Y-39614421D01*
X37678846Y-39608978D01*
X37775302Y-38925753D01*
X37776231Y-38920285D01*
X37779364Y-38904537D01*
X37910839Y-38243564D01*
X37912074Y-38238156D01*
X37922773Y-38196682D01*
X38084409Y-37570069D01*
X38085946Y-37564736D01*
X38156247Y-37344168D01*
X38295476Y-36907342D01*
X38297306Y-36902113D01*
X38311254Y-36865573D01*
X38543373Y-36257484D01*
X38545472Y-36252416D01*
X38827319Y-35622549D01*
X38829697Y-35617613D01*
X39146404Y-35004567D01*
X39149060Y-34999762D01*
X39499651Y-34405423D01*
X39502569Y-34400780D01*
X39885923Y-33827051D01*
X39889096Y-33822578D01*
X40156774Y-33466897D01*
X40680262Y-33466897D01*
X40680262Y-33593763D01*
X40690574Y-33625500D01*
X40719465Y-33714421D01*
X40775276Y-33791237D01*
X40775277Y-33791238D01*
X40775278Y-33791239D01*
X41208761Y-34224721D01*
X41285580Y-34280535D01*
X41406237Y-34319738D01*
X41406239Y-34319738D01*
X41533101Y-34319738D01*
X41533103Y-34319738D01*
X41653760Y-34280535D01*
X41730579Y-34224722D01*
X41795161Y-34160138D01*
X41809131Y-34153020D01*
X41820219Y-34141933D01*
X41835705Y-34139480D01*
X41849676Y-34132362D01*
X41865163Y-34134814D01*
X41880651Y-34132362D01*
X41894622Y-34139480D01*
X41910108Y-34141933D01*
X41935168Y-34160139D01*
X41945504Y-34170475D01*
X41973281Y-34224992D01*
X41974500Y-34240477D01*
X41974500Y-34256018D01*
X41991574Y-34319738D01*
X42003498Y-34364241D01*
X42059513Y-34461260D01*
X42059515Y-34461263D01*
X42138737Y-34540485D01*
X42138739Y-34540486D01*
X42235759Y-34596501D01*
X42235757Y-34596501D01*
X42235761Y-34596502D01*
X42235763Y-34596503D01*
X42343982Y-34625500D01*
X42343984Y-34625500D01*
X42456016Y-34625500D01*
X42456018Y-34625500D01*
X42564237Y-34596503D01*
X42564239Y-34596501D01*
X42564241Y-34596501D01*
X42593064Y-34579859D01*
X42661263Y-34540485D01*
X42740485Y-34461263D01*
X42796503Y-34364237D01*
X42825500Y-34256018D01*
X42825500Y-34143982D01*
X42796503Y-34035763D01*
X42796501Y-34035760D01*
X42796501Y-34035758D01*
X42740486Y-33938739D01*
X42740485Y-33938737D01*
X42661263Y-33859515D01*
X42661260Y-33859513D01*
X42564240Y-33803498D01*
X42564242Y-33803498D01*
X42518482Y-33791237D01*
X42456018Y-33774500D01*
X42456016Y-33774500D01*
X42440479Y-33774500D01*
X42382288Y-33755593D01*
X42370475Y-33745504D01*
X42148196Y-33523225D01*
X42124046Y-33483813D01*
X42113809Y-33452306D01*
X42057996Y-33375487D01*
X41624513Y-32942005D01*
X41573334Y-32904820D01*
X41547693Y-32886190D01*
X41469556Y-32860803D01*
X41427037Y-32846988D01*
X41300171Y-32846988D01*
X41259952Y-32860055D01*
X41179512Y-32886191D01*
X41102696Y-32942002D01*
X40775279Y-33269420D01*
X40719464Y-33346240D01*
X40697840Y-33412796D01*
X40680262Y-33466897D01*
X40156774Y-33466897D01*
X40304029Y-33271229D01*
X40307451Y-33266939D01*
X40752645Y-32739722D01*
X40756291Y-32735642D01*
X41167993Y-32300171D01*
X41846988Y-32300171D01*
X41846988Y-32427037D01*
X41865254Y-32483256D01*
X41886191Y-32547695D01*
X41942002Y-32624511D01*
X41942003Y-32624512D01*
X41942004Y-32624513D01*
X42375487Y-33057995D01*
X42452306Y-33113809D01*
X42572963Y-33153012D01*
X42572965Y-33153012D01*
X42699827Y-33153012D01*
X42699829Y-33153012D01*
X42820486Y-33113809D01*
X42897305Y-33057996D01*
X43209166Y-32746133D01*
X43263683Y-32718356D01*
X43279170Y-32717137D01*
X43651158Y-32717137D01*
X43709349Y-32736044D01*
X43721162Y-32746133D01*
X43930525Y-32955496D01*
X43958302Y-33010013D01*
X43948731Y-33070445D01*
X43905466Y-33113710D01*
X43860521Y-33124500D01*
X43666740Y-33124500D01*
X43632673Y-33129463D01*
X43598604Y-33134427D01*
X43493518Y-33185801D01*
X43410801Y-33268518D01*
X43359427Y-33373604D01*
X43359153Y-33375486D01*
X43349500Y-33441740D01*
X43349500Y-34683260D01*
X43356118Y-34728682D01*
X43359427Y-34751395D01*
X43401336Y-34837120D01*
X43410802Y-34856483D01*
X43493517Y-34939198D01*
X43493518Y-34939198D01*
X43495504Y-34941184D01*
X43499130Y-34948301D01*
X43505593Y-34952997D01*
X43512756Y-34975045D01*
X43523281Y-34995701D01*
X43524500Y-35011188D01*
X43524500Y-35032744D01*
X43505593Y-35090935D01*
X43495504Y-35102747D01*
X43459514Y-35138737D01*
X43403498Y-35235758D01*
X43403497Y-35235763D01*
X43374500Y-35343982D01*
X43374500Y-35456018D01*
X43400072Y-35551455D01*
X43403498Y-35564241D01*
X43454770Y-35653045D01*
X43459515Y-35661263D01*
X43538737Y-35740485D01*
X43538739Y-35740486D01*
X43635759Y-35796501D01*
X43635757Y-35796501D01*
X43635761Y-35796502D01*
X43635763Y-35796503D01*
X43743982Y-35825500D01*
X43743984Y-35825500D01*
X43856016Y-35825500D01*
X43856018Y-35825500D01*
X43964237Y-35796503D01*
X43964239Y-35796501D01*
X43964241Y-35796501D01*
X43993064Y-35779859D01*
X44061263Y-35740485D01*
X44130498Y-35671249D01*
X44185013Y-35643474D01*
X44245445Y-35653045D01*
X44288710Y-35696310D01*
X44299500Y-35741255D01*
X44299500Y-36558261D01*
X44306118Y-36603683D01*
X44309427Y-36626396D01*
X44349351Y-36708061D01*
X44360802Y-36731484D01*
X44443517Y-36814199D01*
X44497285Y-36840484D01*
X44548604Y-36865573D01*
X44548605Y-36865573D01*
X44548607Y-36865574D01*
X44616740Y-36875501D01*
X44616743Y-36875501D01*
X44983257Y-36875501D01*
X44983260Y-36875501D01*
X45051393Y-36865574D01*
X45156483Y-36814199D01*
X45239198Y-36731484D01*
X45290573Y-36626394D01*
X45300500Y-36558261D01*
X45300500Y-35316741D01*
X45290573Y-35248608D01*
X45285747Y-35238737D01*
X45242462Y-35150195D01*
X45239198Y-35143518D01*
X45156483Y-35060803D01*
X45156017Y-35060575D01*
X45155603Y-35060174D01*
X45149808Y-35056037D01*
X45150428Y-35055168D01*
X45112045Y-35018032D01*
X45100500Y-34971636D01*
X45100500Y-33360437D01*
X45100499Y-33360435D01*
X45099315Y-33356018D01*
X45080021Y-33284011D01*
X45071376Y-33269038D01*
X45040460Y-33215489D01*
X44984511Y-33159539D01*
X44984511Y-33159540D01*
X44001148Y-32176177D01*
X44001145Y-32176175D01*
X43932629Y-32136617D01*
X43932625Y-32136615D01*
X43856201Y-32116137D01*
X43856199Y-32116137D01*
X43723993Y-32116137D01*
X43665802Y-32097230D01*
X43629838Y-32047730D01*
X43629838Y-31986544D01*
X43658124Y-31946523D01*
X43656674Y-31945073D01*
X43661260Y-31940486D01*
X43661263Y-31940485D01*
X43740485Y-31861263D01*
X43790128Y-31775279D01*
X43796501Y-31764241D01*
X43796501Y-31764239D01*
X43796503Y-31764237D01*
X43825500Y-31656018D01*
X43825500Y-31543982D01*
X43796503Y-31435763D01*
X43796501Y-31435760D01*
X43796501Y-31435758D01*
X43740486Y-31338739D01*
X43740485Y-31338737D01*
X43661263Y-31259515D01*
X43661260Y-31259513D01*
X43564240Y-31203498D01*
X43564242Y-31203498D01*
X43522251Y-31192247D01*
X43456018Y-31174500D01*
X43343982Y-31174500D01*
X43277748Y-31192247D01*
X43235758Y-31203498D01*
X43138739Y-31259513D01*
X43059513Y-31338739D01*
X43003498Y-31435758D01*
X42974500Y-31543983D01*
X42974500Y-31656017D01*
X42989604Y-31712388D01*
X42986401Y-31773489D01*
X42947896Y-31821039D01*
X42888795Y-31836874D01*
X42831674Y-31814947D01*
X42823983Y-31808023D01*
X42791239Y-31775279D01*
X42714420Y-31719465D01*
X42714419Y-31719464D01*
X42652939Y-31699489D01*
X42593763Y-31680262D01*
X42466897Y-31680262D01*
X42426678Y-31693329D01*
X42346238Y-31719465D01*
X42269422Y-31775276D01*
X41942005Y-32102694D01*
X41886190Y-32179514D01*
X41856601Y-32270582D01*
X41846988Y-32300171D01*
X41167993Y-32300171D01*
X41230322Y-32234244D01*
X41234245Y-32230322D01*
X41244695Y-32220442D01*
X41735641Y-31756292D01*
X41739721Y-31752646D01*
X42266937Y-31307452D01*
X42271245Y-31304017D01*
X42822577Y-30889097D01*
X42827050Y-30885924D01*
X43400779Y-30502570D01*
X43405422Y-30499652D01*
X43999761Y-30149061D01*
X44004566Y-30146405D01*
X44617612Y-29829698D01*
X44622548Y-29827320D01*
X45252415Y-29545473D01*
X45257483Y-29543374D01*
X45464838Y-29464222D01*
X45525945Y-29461135D01*
X45577197Y-29494555D01*
X45599017Y-29551718D01*
X45590448Y-29591857D01*
X45591762Y-29592284D01*
X45589354Y-29599694D01*
X45574500Y-29693477D01*
X45574500Y-30306520D01*
X45574501Y-30306523D01*
X45589352Y-30400299D01*
X45589354Y-30400304D01*
X45646950Y-30513342D01*
X45708782Y-30575174D01*
X45736558Y-30629689D01*
X45726987Y-30690121D01*
X45688278Y-30730912D01*
X45638738Y-30759514D01*
X45559513Y-30838739D01*
X45503498Y-30935758D01*
X45503497Y-30935763D01*
X45474500Y-31043982D01*
X45474500Y-31156018D01*
X45487222Y-31203497D01*
X45503498Y-31264241D01*
X45559513Y-31361260D01*
X45559515Y-31361263D01*
X45638737Y-31440485D01*
X45638739Y-31440486D01*
X45735759Y-31496501D01*
X45735757Y-31496501D01*
X45735761Y-31496502D01*
X45735763Y-31496503D01*
X45843982Y-31525500D01*
X45843984Y-31525500D01*
X45956016Y-31525500D01*
X45956018Y-31525500D01*
X46064237Y-31496503D01*
X46064239Y-31496501D01*
X46064241Y-31496501D01*
X46093064Y-31479859D01*
X46161263Y-31440485D01*
X46240485Y-31361263D01*
X46296503Y-31264237D01*
X46302531Y-31241740D01*
X46749500Y-31241740D01*
X46749500Y-32483260D01*
X46756118Y-32528682D01*
X46759427Y-32551395D01*
X46795172Y-32624511D01*
X46810802Y-32656483D01*
X46893517Y-32739198D01*
X46893518Y-32739198D01*
X46895504Y-32741184D01*
X46899130Y-32748301D01*
X46905593Y-32752997D01*
X46912756Y-32775045D01*
X46923281Y-32795701D01*
X46924500Y-32811188D01*
X46924500Y-32972857D01*
X46911238Y-33022354D01*
X46903497Y-33035763D01*
X46874500Y-33143982D01*
X46874500Y-33256018D01*
X46882000Y-33284007D01*
X46903498Y-33364241D01*
X46959513Y-33461260D01*
X46959515Y-33461263D01*
X47038737Y-33540485D01*
X47070068Y-33558574D01*
X47135759Y-33596501D01*
X47135757Y-33596501D01*
X47135761Y-33596502D01*
X47135763Y-33596503D01*
X47243982Y-33625500D01*
X47243984Y-33625500D01*
X47356016Y-33625500D01*
X47356018Y-33625500D01*
X47464237Y-33596503D01*
X47551001Y-33546409D01*
X47610847Y-33533688D01*
X47666743Y-33558574D01*
X47697336Y-33611562D01*
X47699500Y-33632146D01*
X47699500Y-34358261D01*
X47705691Y-34400751D01*
X47709427Y-34426396D01*
X47726473Y-34461263D01*
X47760802Y-34531484D01*
X47843517Y-34614199D01*
X47866634Y-34625500D01*
X47948604Y-34665573D01*
X47948605Y-34665573D01*
X47948607Y-34665574D01*
X48016740Y-34675501D01*
X48016743Y-34675501D01*
X48383257Y-34675501D01*
X48383260Y-34675501D01*
X48451393Y-34665574D01*
X48556483Y-34614199D01*
X48639198Y-34531484D01*
X48690573Y-34426394D01*
X48700500Y-34358261D01*
X48700500Y-33116741D01*
X48690573Y-33048608D01*
X48685747Y-33038737D01*
X48650080Y-32965778D01*
X48639198Y-32943518D01*
X48556483Y-32860803D01*
X48456019Y-32811689D01*
X48412046Y-32769147D01*
X48400500Y-32722749D01*
X48400500Y-31241740D01*
X50349500Y-31241740D01*
X50349500Y-32483260D01*
X50356118Y-32528682D01*
X50359427Y-32551395D01*
X50395172Y-32624511D01*
X50410802Y-32656483D01*
X50493517Y-32739198D01*
X50493518Y-32739198D01*
X50495504Y-32741184D01*
X50523281Y-32795701D01*
X50524500Y-32811188D01*
X50524500Y-33072857D01*
X50511238Y-33122354D01*
X50503497Y-33135763D01*
X50474500Y-33243982D01*
X50474500Y-33356018D01*
X50485420Y-33396771D01*
X50503498Y-33464241D01*
X50559513Y-33561260D01*
X50559515Y-33561263D01*
X50638737Y-33640485D01*
X50670068Y-33658574D01*
X50735759Y-33696501D01*
X50735757Y-33696501D01*
X50735761Y-33696502D01*
X50735763Y-33696503D01*
X50843982Y-33725500D01*
X50843984Y-33725500D01*
X50956016Y-33725500D01*
X50956018Y-33725500D01*
X51064237Y-33696503D01*
X51151001Y-33646409D01*
X51210847Y-33633688D01*
X51266743Y-33658574D01*
X51297336Y-33711562D01*
X51299500Y-33732146D01*
X51299500Y-34358261D01*
X51305691Y-34400751D01*
X51309427Y-34426396D01*
X51326473Y-34461263D01*
X51360802Y-34531484D01*
X51443517Y-34614199D01*
X51466634Y-34625500D01*
X51548604Y-34665573D01*
X51548605Y-34665573D01*
X51548607Y-34665574D01*
X51616740Y-34675501D01*
X51616743Y-34675501D01*
X51983257Y-34675501D01*
X51983260Y-34675501D01*
X52051393Y-34665574D01*
X52156483Y-34614199D01*
X52239198Y-34531484D01*
X52290573Y-34426394D01*
X52300500Y-34358261D01*
X52300500Y-33441740D01*
X53749500Y-33441740D01*
X53749500Y-34683260D01*
X53756118Y-34728682D01*
X53759427Y-34751395D01*
X53801336Y-34837120D01*
X53810802Y-34856483D01*
X53893517Y-34939198D01*
X53893518Y-34939198D01*
X53895504Y-34941184D01*
X53899130Y-34948301D01*
X53905593Y-34952997D01*
X53912756Y-34975045D01*
X53923281Y-34995701D01*
X53924500Y-35011188D01*
X53924500Y-35132744D01*
X53905593Y-35190935D01*
X53895504Y-35202747D01*
X53859514Y-35238737D01*
X53803498Y-35335758D01*
X53801294Y-35343983D01*
X53774500Y-35443982D01*
X53774500Y-35556018D01*
X53792336Y-35622583D01*
X53803498Y-35664241D01*
X53854770Y-35753045D01*
X53859515Y-35761263D01*
X53938737Y-35840485D01*
X53938739Y-35840486D01*
X54035759Y-35896501D01*
X54035757Y-35896501D01*
X54035761Y-35896502D01*
X54035763Y-35896503D01*
X54143982Y-35925500D01*
X54143984Y-35925500D01*
X54256016Y-35925500D01*
X54256018Y-35925500D01*
X54364237Y-35896503D01*
X54364239Y-35896501D01*
X54364241Y-35896501D01*
X54393064Y-35879859D01*
X54461263Y-35840485D01*
X54530498Y-35771249D01*
X54585013Y-35743474D01*
X54645445Y-35753045D01*
X54688710Y-35796310D01*
X54699500Y-35841255D01*
X54699500Y-36558261D01*
X54706118Y-36603683D01*
X54709427Y-36626396D01*
X54749351Y-36708061D01*
X54760802Y-36731484D01*
X54843517Y-36814199D01*
X54897285Y-36840484D01*
X54948604Y-36865573D01*
X54948605Y-36865573D01*
X54948607Y-36865574D01*
X55016740Y-36875501D01*
X55016743Y-36875501D01*
X55383257Y-36875501D01*
X55383260Y-36875501D01*
X55451393Y-36865574D01*
X55556483Y-36814199D01*
X55639198Y-36731484D01*
X55690573Y-36626394D01*
X55700500Y-36558261D01*
X55700500Y-35316741D01*
X55690573Y-35248608D01*
X55685747Y-35238737D01*
X55642462Y-35150195D01*
X55639198Y-35143518D01*
X55556483Y-35060803D01*
X55556017Y-35060575D01*
X55555603Y-35060174D01*
X55549808Y-35056037D01*
X55550428Y-35055168D01*
X55512045Y-35018032D01*
X55500500Y-34971636D01*
X55500500Y-34143982D01*
X57174500Y-34143982D01*
X57174500Y-34256018D01*
X57191574Y-34319738D01*
X57203498Y-34364241D01*
X57259513Y-34461260D01*
X57259515Y-34461263D01*
X57338737Y-34540485D01*
X57338739Y-34540486D01*
X57435759Y-34596501D01*
X57435757Y-34596501D01*
X57435761Y-34596502D01*
X57435763Y-34596503D01*
X57543982Y-34625500D01*
X57543984Y-34625500D01*
X57656016Y-34625500D01*
X57656018Y-34625500D01*
X57764237Y-34596503D01*
X57764239Y-34596501D01*
X57764241Y-34596501D01*
X57793064Y-34579859D01*
X57861263Y-34540485D01*
X57940485Y-34461263D01*
X57996503Y-34364237D01*
X58025500Y-34256018D01*
X58025500Y-34240477D01*
X58027968Y-34232879D01*
X58026719Y-34224990D01*
X58037243Y-34204334D01*
X58044407Y-34182286D01*
X58054485Y-34170484D01*
X58064834Y-34160136D01*
X58119348Y-34132361D01*
X58179780Y-34141932D01*
X58204835Y-34160135D01*
X58269421Y-34224721D01*
X58346240Y-34280535D01*
X58466897Y-34319738D01*
X58466899Y-34319738D01*
X58593761Y-34319738D01*
X58593763Y-34319738D01*
X58714420Y-34280535D01*
X58791239Y-34224722D01*
X59224721Y-33791239D01*
X59280535Y-33714420D01*
X59319738Y-33593763D01*
X59319738Y-33466897D01*
X59280535Y-33346240D01*
X59235322Y-33284011D01*
X59224723Y-33269422D01*
X58897305Y-32942005D01*
X58820485Y-32886190D01*
X58742348Y-32860803D01*
X58699829Y-32846988D01*
X58572963Y-32846988D01*
X58532744Y-32860055D01*
X58452304Y-32886191D01*
X58375488Y-32942002D01*
X57942005Y-33375486D01*
X57886190Y-33452307D01*
X57875952Y-33483816D01*
X57851802Y-33523225D01*
X57629526Y-33745503D01*
X57575009Y-33773281D01*
X57559522Y-33774500D01*
X57543982Y-33774500D01*
X57481518Y-33791237D01*
X57435758Y-33803498D01*
X57338739Y-33859513D01*
X57259513Y-33938739D01*
X57203498Y-34035758D01*
X57203497Y-34035763D01*
X57174500Y-34143982D01*
X55500500Y-34143982D01*
X55500500Y-33565479D01*
X55519407Y-33507288D01*
X55529496Y-33495475D01*
X56278838Y-32746133D01*
X56333355Y-32718356D01*
X56348842Y-32717137D01*
X56720829Y-32717137D01*
X56779020Y-32736044D01*
X56790832Y-32746133D01*
X56949520Y-32904820D01*
X57102695Y-33057995D01*
X57179514Y-33113809D01*
X57300171Y-33153012D01*
X57300173Y-33153012D01*
X57427035Y-33153012D01*
X57427037Y-33153012D01*
X57547694Y-33113809D01*
X57624513Y-33057996D01*
X58057995Y-32624513D01*
X58113809Y-32547694D01*
X58153012Y-32427037D01*
X58153012Y-32300171D01*
X58113809Y-32179514D01*
X58111384Y-32176177D01*
X58057997Y-32102696D01*
X57730579Y-31775279D01*
X57653759Y-31719464D01*
X57592279Y-31699489D01*
X57533103Y-31680262D01*
X57406237Y-31680262D01*
X57366018Y-31693329D01*
X57285578Y-31719465D01*
X57208766Y-31775273D01*
X57176025Y-31808014D01*
X57121508Y-31835790D01*
X57061076Y-31826218D01*
X57017812Y-31782953D01*
X57008241Y-31722521D01*
X57010393Y-31712396D01*
X57025500Y-31656018D01*
X57025500Y-31543982D01*
X56996503Y-31435763D01*
X56996501Y-31435760D01*
X56996501Y-31435758D01*
X56940486Y-31338739D01*
X56940485Y-31338737D01*
X56861263Y-31259515D01*
X56861260Y-31259513D01*
X56764240Y-31203498D01*
X56764242Y-31203498D01*
X56722251Y-31192247D01*
X56656018Y-31174500D01*
X56543982Y-31174500D01*
X56477748Y-31192247D01*
X56435758Y-31203498D01*
X56338739Y-31259513D01*
X56259513Y-31338739D01*
X56203498Y-31435758D01*
X56202231Y-31440486D01*
X56174500Y-31543982D01*
X56174500Y-31656018D01*
X56192319Y-31722521D01*
X56203498Y-31764241D01*
X56259513Y-31861260D01*
X56259515Y-31861263D01*
X56338737Y-31940485D01*
X56338739Y-31940486D01*
X56343326Y-31945073D01*
X56341784Y-31946614D01*
X56370928Y-31989013D01*
X56369331Y-32050178D01*
X56332086Y-32098722D01*
X56276007Y-32116137D01*
X56143798Y-32116137D01*
X56067374Y-32136615D01*
X56067370Y-32136617D01*
X55998854Y-32176175D01*
X55015489Y-33159540D01*
X55015488Y-33159539D01*
X54959539Y-33215489D01*
X54919980Y-33284007D01*
X54919978Y-33284011D01*
X54909389Y-33323531D01*
X54876065Y-33374845D01*
X54818943Y-33396771D01*
X54759843Y-33380935D01*
X54724822Y-33341388D01*
X54689198Y-33268517D01*
X54606483Y-33185802D01*
X54606481Y-33185801D01*
X54501395Y-33134427D01*
X54474139Y-33130456D01*
X54433260Y-33124500D01*
X54066740Y-33124500D01*
X54032673Y-33129463D01*
X53998604Y-33134427D01*
X53893518Y-33185801D01*
X53810801Y-33268518D01*
X53759427Y-33373604D01*
X53759153Y-33375486D01*
X53749500Y-33441740D01*
X52300500Y-33441740D01*
X52300500Y-33116741D01*
X52290573Y-33048608D01*
X52285747Y-33038737D01*
X52250080Y-32965778D01*
X52239198Y-32943518D01*
X52234417Y-32938737D01*
X52229494Y-32933813D01*
X52201718Y-32879296D01*
X52200500Y-32863812D01*
X52200500Y-30774499D01*
X52219407Y-30716308D01*
X52268907Y-30680344D01*
X52299500Y-30675499D01*
X52406521Y-30675499D01*
X52406522Y-30675498D01*
X52475502Y-30664574D01*
X52500299Y-30660647D01*
X52500299Y-30660646D01*
X52500304Y-30660646D01*
X52613342Y-30603050D01*
X52703050Y-30513342D01*
X52760646Y-30400304D01*
X52775500Y-30306519D01*
X52775499Y-29693482D01*
X52760646Y-29599696D01*
X52703050Y-29486658D01*
X52613342Y-29396950D01*
X52500304Y-29339354D01*
X52500305Y-29339354D01*
X52406522Y-29324500D01*
X51943479Y-29324500D01*
X51943476Y-29324501D01*
X51849700Y-29339352D01*
X51849695Y-29339354D01*
X51736659Y-29396949D01*
X51646949Y-29486659D01*
X51589354Y-29599695D01*
X51574500Y-29693477D01*
X51574500Y-30306520D01*
X51574501Y-30306521D01*
X51589353Y-30400302D01*
X51591763Y-30407718D01*
X51590862Y-30408010D01*
X51599500Y-30443984D01*
X51599500Y-32722749D01*
X51580593Y-32780940D01*
X51543980Y-32811690D01*
X51443518Y-32860802D01*
X51360800Y-32943520D01*
X51356035Y-32950195D01*
X51353507Y-32948390D01*
X51320882Y-32982102D01*
X51260614Y-32992660D01*
X51205651Y-32965778D01*
X51176985Y-32911723D01*
X51175500Y-32894639D01*
X51175500Y-32811188D01*
X51194407Y-32752997D01*
X51204496Y-32741184D01*
X51206480Y-32739198D01*
X51206483Y-32739198D01*
X51289198Y-32656483D01*
X51340573Y-32551393D01*
X51350500Y-32483260D01*
X51350500Y-31241740D01*
X51340573Y-31173607D01*
X51331974Y-31156018D01*
X51304330Y-31099471D01*
X51289198Y-31068517D01*
X51206483Y-30985802D01*
X51206481Y-30985801D01*
X51101395Y-30934427D01*
X51074139Y-30930456D01*
X51033260Y-30924500D01*
X50666740Y-30924500D01*
X50632673Y-30929463D01*
X50598604Y-30934427D01*
X50493518Y-30985801D01*
X50410801Y-31068518D01*
X50359427Y-31173604D01*
X50355072Y-31203497D01*
X50349500Y-31241740D01*
X48400500Y-31241740D01*
X48400500Y-30443985D01*
X48409137Y-30408011D01*
X48408237Y-30407719D01*
X48410643Y-30400309D01*
X48410646Y-30400304D01*
X48425500Y-30306519D01*
X48425499Y-29943982D01*
X49574500Y-29943982D01*
X49574500Y-30056018D01*
X49598715Y-30146390D01*
X49603498Y-30164241D01*
X49659513Y-30261260D01*
X49659515Y-30261263D01*
X49738737Y-30340485D01*
X49738739Y-30340486D01*
X49835759Y-30396501D01*
X49835757Y-30396501D01*
X49835761Y-30396502D01*
X49835763Y-30396503D01*
X49943982Y-30425500D01*
X49943984Y-30425500D01*
X50056016Y-30425500D01*
X50056018Y-30425500D01*
X50164237Y-30396503D01*
X50164239Y-30396501D01*
X50164241Y-30396501D01*
X50193064Y-30379859D01*
X50261263Y-30340485D01*
X50340485Y-30261263D01*
X50396503Y-30164237D01*
X50425500Y-30056018D01*
X50425500Y-29943982D01*
X50396503Y-29835763D01*
X50396501Y-29835760D01*
X50396501Y-29835758D01*
X50340486Y-29738739D01*
X50340485Y-29738737D01*
X50261263Y-29659515D01*
X50261260Y-29659513D01*
X50164240Y-29603498D01*
X50164242Y-29603498D01*
X50120184Y-29591693D01*
X50056018Y-29574500D01*
X49943982Y-29574500D01*
X49879816Y-29591693D01*
X49835758Y-29603498D01*
X49738739Y-29659513D01*
X49659513Y-29738739D01*
X49603498Y-29835758D01*
X49603497Y-29835763D01*
X49574500Y-29943982D01*
X48425499Y-29943982D01*
X48425499Y-29693482D01*
X48410646Y-29599696D01*
X48353050Y-29486658D01*
X48263342Y-29396950D01*
X48150304Y-29339354D01*
X48150305Y-29339354D01*
X48056522Y-29324500D01*
X47593479Y-29324500D01*
X47593476Y-29324501D01*
X47499700Y-29339352D01*
X47499695Y-29339354D01*
X47386659Y-29396949D01*
X47296949Y-29486659D01*
X47239354Y-29599695D01*
X47224500Y-29693477D01*
X47224500Y-30306520D01*
X47224501Y-30306523D01*
X47239352Y-30400299D01*
X47239354Y-30400304D01*
X47296950Y-30513342D01*
X47386658Y-30603050D01*
X47499696Y-30660646D01*
X47593481Y-30675500D01*
X47700500Y-30675499D01*
X47715411Y-30680344D01*
X47731093Y-30680344D01*
X47743779Y-30689561D01*
X47758690Y-30694406D01*
X47767905Y-30707090D01*
X47780593Y-30716308D01*
X47785438Y-30731221D01*
X47794654Y-30743905D01*
X47799500Y-30774499D01*
X47799500Y-30939812D01*
X47780593Y-30998003D01*
X47731093Y-31033967D01*
X47669907Y-31033967D01*
X47630498Y-31009817D01*
X47606483Y-30985802D01*
X47606481Y-30985801D01*
X47501395Y-30934427D01*
X47474139Y-30930456D01*
X47433260Y-30924500D01*
X47066740Y-30924500D01*
X47032673Y-30929463D01*
X46998604Y-30934427D01*
X46893518Y-30985801D01*
X46810801Y-31068518D01*
X46759427Y-31173604D01*
X46755072Y-31203497D01*
X46749500Y-31241740D01*
X46302531Y-31241740D01*
X46325500Y-31156018D01*
X46325500Y-31131175D01*
X46327232Y-31122039D01*
X46337686Y-31102970D01*
X46344407Y-31082287D01*
X46354490Y-31070480D01*
X46415460Y-31009511D01*
X46422104Y-30998003D01*
X46455020Y-30940992D01*
X46455020Y-30940990D01*
X46455022Y-30940988D01*
X46475500Y-30864562D01*
X46475500Y-30785438D01*
X46475500Y-30733951D01*
X46494407Y-30675760D01*
X46529552Y-30645742D01*
X46613342Y-30603050D01*
X46703050Y-30513342D01*
X46760646Y-30400304D01*
X46775500Y-30306519D01*
X46775499Y-29693482D01*
X46760646Y-29599696D01*
X46703050Y-29486658D01*
X46613342Y-29396950D01*
X46500304Y-29339354D01*
X46500305Y-29339354D01*
X46424600Y-29327363D01*
X46417233Y-29323609D01*
X46408967Y-29323563D01*
X46390503Y-29309989D01*
X46370084Y-29299585D01*
X46366330Y-29292218D01*
X46359670Y-29287322D01*
X46352710Y-29265487D01*
X46342307Y-29245068D01*
X46343600Y-29236902D01*
X46341090Y-29229026D01*
X46348293Y-29207269D01*
X46351879Y-29184636D01*
X46357723Y-29178791D01*
X46360323Y-29170942D01*
X46378941Y-29157573D01*
X46395144Y-29141372D01*
X46410014Y-29135260D01*
X46564737Y-29085946D01*
X46570071Y-29084410D01*
X47238161Y-28912073D01*
X47243563Y-28910840D01*
X47920292Y-28776230D01*
X47925752Y-28775303D01*
X48608977Y-28678847D01*
X48614420Y-28678234D01*
X49302025Y-28620236D01*
X49307501Y-28619928D01*
X49997255Y-28600576D01*
X50002743Y-28600576D01*
X50692494Y-28619928D01*
G37*
%TD.AperFunction*%
%TA.AperFunction,Conductor*%
G36*
X37769504Y-42983384D02*
G01*
X39795504Y-45009384D01*
X39823281Y-45063901D01*
X39824500Y-45079388D01*
X39824500Y-46524234D01*
X39824500Y-46675766D01*
X39835950Y-46718499D01*
X39863720Y-46822139D01*
X39939481Y-46953360D01*
X39939483Y-46953362D01*
X39939485Y-46953365D01*
X41041120Y-48054999D01*
X42095504Y-49109383D01*
X42123281Y-49163900D01*
X42124500Y-49179387D01*
X42124500Y-54819101D01*
X42105593Y-54877292D01*
X42056093Y-54913256D01*
X41994907Y-54913256D01*
X41955498Y-54889106D01*
X41913342Y-54846950D01*
X41800304Y-54789354D01*
X41800305Y-54789354D01*
X41706522Y-54774500D01*
X41093479Y-54774500D01*
X41093476Y-54774501D01*
X40999700Y-54789352D01*
X40999695Y-54789354D01*
X40886659Y-54846949D01*
X40886658Y-54846949D01*
X40886658Y-54846950D01*
X40796950Y-54936658D01*
X40796948Y-54936659D01*
X40794504Y-54939105D01*
X40739987Y-54966882D01*
X40679555Y-54957311D01*
X40636290Y-54914046D01*
X40625500Y-54869101D01*
X40625500Y-54613744D01*
X40638764Y-54564244D01*
X40696501Y-54464241D01*
X40696501Y-54464239D01*
X40696503Y-54464237D01*
X40725500Y-54356018D01*
X40725500Y-54243982D01*
X40696503Y-54135763D01*
X40696501Y-54135760D01*
X40696501Y-54135758D01*
X40640486Y-54038739D01*
X40640485Y-54038737D01*
X40561263Y-53959515D01*
X40561260Y-53959513D01*
X40464240Y-53903498D01*
X40464242Y-53903498D01*
X40422251Y-53892247D01*
X40356018Y-53874500D01*
X40243982Y-53874500D01*
X40177748Y-53892247D01*
X40135758Y-53903498D01*
X40038739Y-53959513D01*
X39959513Y-54038739D01*
X39903498Y-54135758D01*
X39888269Y-54192596D01*
X39874500Y-54243982D01*
X39874500Y-54356018D01*
X39877696Y-54367945D01*
X39903498Y-54464241D01*
X39961236Y-54564244D01*
X39974500Y-54613744D01*
X39974500Y-56849165D01*
X39972031Y-56856763D01*
X39973281Y-56864656D01*
X39962756Y-56885310D01*
X39955593Y-56907356D01*
X39945501Y-56919171D01*
X39933347Y-56931324D01*
X39878829Y-56959100D01*
X39818401Y-56949528D01*
X39813342Y-56946950D01*
X39730332Y-56904654D01*
X39700303Y-56889353D01*
X39606522Y-56874500D01*
X38993479Y-56874500D01*
X38993476Y-56874501D01*
X38899700Y-56889352D01*
X38899695Y-56889354D01*
X38786659Y-56946949D01*
X38696949Y-57036659D01*
X38639354Y-57149695D01*
X38624500Y-57243477D01*
X38624500Y-57706520D01*
X38624501Y-57706523D01*
X38639352Y-57800299D01*
X38639354Y-57800304D01*
X38696950Y-57913342D01*
X38786658Y-58003050D01*
X38899696Y-58060646D01*
X38993481Y-58075500D01*
X39606518Y-58075499D01*
X39606520Y-58075499D01*
X39606521Y-58075498D01*
X39653411Y-58068072D01*
X39700299Y-58060647D01*
X39700299Y-58060646D01*
X39700304Y-58060646D01*
X39813342Y-58003050D01*
X39903050Y-57913342D01*
X39956957Y-57807543D01*
X39995663Y-57766756D01*
X40049862Y-57735465D01*
X40291850Y-57493477D01*
X40405832Y-57379496D01*
X40460348Y-57351719D01*
X40475835Y-57350500D01*
X40678787Y-57350500D01*
X40736978Y-57369407D01*
X40766996Y-57404555D01*
X40788778Y-57447305D01*
X40796950Y-57463342D01*
X40886658Y-57553050D01*
X40994731Y-57608116D01*
X41037995Y-57651380D01*
X41047566Y-57711812D01*
X41019789Y-57766328D01*
X40471635Y-58314484D01*
X40364485Y-58421634D01*
X40364481Y-58421639D01*
X40288720Y-58552860D01*
X40288719Y-58552865D01*
X40252551Y-58687850D01*
X40249500Y-58699235D01*
X40249500Y-59014381D01*
X40238710Y-59059326D01*
X40190281Y-59154372D01*
X40190281Y-59154374D01*
X40174500Y-59254010D01*
X40174500Y-59820989D01*
X40176675Y-59834719D01*
X40189819Y-59917712D01*
X40190281Y-59920625D01*
X40190282Y-59920629D01*
X40216084Y-59971268D01*
X40248709Y-60035298D01*
X40259500Y-60080242D01*
X40259500Y-60510483D01*
X40240593Y-60568674D01*
X40230067Y-60580920D01*
X40223348Y-60587555D01*
X40194399Y-60606899D01*
X40176227Y-60634094D01*
X40169067Y-60641167D01*
X40150278Y-60650593D01*
X40133766Y-60663611D01*
X40123531Y-60664013D01*
X40114379Y-60668605D01*
X40093636Y-60665187D01*
X40072628Y-60666013D01*
X40064113Y-60660323D01*
X40054008Y-60658659D01*
X40039233Y-60643699D01*
X40021754Y-60632020D01*
X40018209Y-60622412D01*
X40011013Y-60615126D01*
X40007853Y-60594342D01*
X40000576Y-60574617D01*
X40000500Y-60570730D01*
X40000500Y-60360751D01*
X39992588Y-60310800D01*
X39984951Y-60262580D01*
X39924658Y-60144249D01*
X39830751Y-60050342D01*
X39801222Y-60035296D01*
X39712423Y-59990050D01*
X39712420Y-59990049D01*
X39677454Y-59984511D01*
X39614249Y-59974500D01*
X39614246Y-59974500D01*
X38785754Y-59974500D01*
X38785751Y-59974500D01*
X38687580Y-59990049D01*
X38687576Y-59990050D01*
X38569250Y-60050341D01*
X38475341Y-60144250D01*
X38415050Y-60262576D01*
X38415049Y-60262580D01*
X38399500Y-60360751D01*
X38399500Y-60864248D01*
X38415049Y-60962419D01*
X38415050Y-60962423D01*
X38472024Y-61074239D01*
X38475342Y-61080751D01*
X38569249Y-61174658D01*
X38687580Y-61234951D01*
X38754130Y-61245491D01*
X38785751Y-61250500D01*
X38785754Y-61250500D01*
X39301310Y-61250500D01*
X39359501Y-61269407D01*
X39371313Y-61279496D01*
X39696813Y-61604995D01*
X39724591Y-61659512D01*
X39715020Y-61719944D01*
X39696814Y-61745002D01*
X39371315Y-62070503D01*
X39316798Y-62098281D01*
X39301311Y-62099500D01*
X38785751Y-62099500D01*
X38687580Y-62115049D01*
X38687576Y-62115050D01*
X38569250Y-62175341D01*
X38475341Y-62269250D01*
X38415050Y-62387576D01*
X38415049Y-62387580D01*
X38399500Y-62485751D01*
X38399500Y-62782408D01*
X38380593Y-62840599D01*
X38331093Y-62876563D01*
X38269907Y-62876563D01*
X38220407Y-62840599D01*
X38206175Y-62812472D01*
X38085948Y-62435264D01*
X38084411Y-62429928D01*
X37912076Y-61761843D01*
X37910840Y-61756429D01*
X37807111Y-61234949D01*
X37776232Y-61079712D01*
X37775303Y-61074239D01*
X37766541Y-61012174D01*
X37678849Y-60391026D01*
X37678234Y-60385575D01*
X37620237Y-59697976D01*
X37619929Y-59692494D01*
X37604831Y-59154367D01*
X37600985Y-59017276D01*
X37874500Y-59017276D01*
X37874500Y-59129312D01*
X37886876Y-59175501D01*
X37903498Y-59237535D01*
X37959513Y-59334554D01*
X37959515Y-59334557D01*
X38038737Y-59413779D01*
X38065792Y-59429399D01*
X38135759Y-59469795D01*
X38135757Y-59469795D01*
X38135761Y-59469796D01*
X38135763Y-59469797D01*
X38243982Y-59498794D01*
X38243984Y-59498794D01*
X38356016Y-59498794D01*
X38356018Y-59498794D01*
X38464237Y-59469797D01*
X38464239Y-59469795D01*
X38464241Y-59469795D01*
X38508316Y-59444348D01*
X38561263Y-59413779D01*
X38640485Y-59334557D01*
X38686989Y-59254010D01*
X38696501Y-59237535D01*
X38696501Y-59237533D01*
X38696503Y-59237531D01*
X38725500Y-59129312D01*
X38725500Y-59017276D01*
X38696503Y-58909057D01*
X38696501Y-58909054D01*
X38696501Y-58909052D01*
X38640486Y-58812033D01*
X38640485Y-58812031D01*
X38561263Y-58732809D01*
X38561260Y-58732807D01*
X38464240Y-58676792D01*
X38464242Y-58676792D01*
X38409909Y-58662234D01*
X38356018Y-58647794D01*
X38243982Y-58647794D01*
X38190091Y-58662234D01*
X38135758Y-58676792D01*
X38038739Y-58732807D01*
X37959513Y-58812033D01*
X37903498Y-58909052D01*
X37903497Y-58909057D01*
X37874500Y-59017276D01*
X37600985Y-59017276D01*
X37600881Y-59013567D01*
X37600539Y-59001393D01*
X37600500Y-58998613D01*
X37600500Y-49875434D01*
X38099500Y-49875434D01*
X38099500Y-50124567D01*
X38132017Y-50371558D01*
X38132017Y-50371563D01*
X38196496Y-50612200D01*
X38196500Y-50612213D01*
X38291832Y-50842366D01*
X38291834Y-50842370D01*
X38291836Y-50842374D01*
X38375999Y-50988149D01*
X38416403Y-51058131D01*
X38568056Y-51255770D01*
X38568058Y-51255772D01*
X38568062Y-51255777D01*
X38744224Y-51431939D01*
X38744228Y-51431942D01*
X38744230Y-51431944D01*
X38931317Y-51575500D01*
X38941873Y-51583600D01*
X39157627Y-51708165D01*
X39387793Y-51803503D01*
X39628435Y-51867983D01*
X39875435Y-51900501D01*
X39875436Y-51900501D01*
X40124564Y-51900501D01*
X40124565Y-51900501D01*
X40371565Y-51867983D01*
X40612207Y-51803503D01*
X40842373Y-51708165D01*
X41058127Y-51583600D01*
X41255776Y-51431939D01*
X41431938Y-51255777D01*
X41583599Y-51058128D01*
X41708164Y-50842374D01*
X41803502Y-50612208D01*
X41867982Y-50371566D01*
X41900500Y-50124566D01*
X41900500Y-49875436D01*
X41867982Y-49628436D01*
X41803502Y-49387794D01*
X41709670Y-49161263D01*
X41708167Y-49157635D01*
X41708166Y-49157634D01*
X41708164Y-49157628D01*
X41583599Y-48941874D01*
X41508484Y-48843982D01*
X41431943Y-48744231D01*
X41431941Y-48744229D01*
X41431938Y-48744225D01*
X41255776Y-48568063D01*
X41255771Y-48568059D01*
X41255769Y-48568057D01*
X41058130Y-48416404D01*
X41055901Y-48415117D01*
X40842373Y-48291837D01*
X40842369Y-48291835D01*
X40842365Y-48291833D01*
X40612212Y-48196501D01*
X40612211Y-48196500D01*
X40612207Y-48196499D01*
X40371565Y-48132019D01*
X40371562Y-48132018D01*
X40371560Y-48132018D01*
X40124566Y-48099501D01*
X40124565Y-48099501D01*
X39875435Y-48099501D01*
X39875433Y-48099501D01*
X39628442Y-48132018D01*
X39628437Y-48132018D01*
X39387800Y-48196497D01*
X39387787Y-48196501D01*
X39157634Y-48291833D01*
X38941869Y-48416404D01*
X38744230Y-48568057D01*
X38568056Y-48744231D01*
X38416403Y-48941870D01*
X38291832Y-49157635D01*
X38196500Y-49387788D01*
X38196496Y-49387801D01*
X38132017Y-49628438D01*
X38132017Y-49628443D01*
X38099500Y-49875434D01*
X37600500Y-49875434D01*
X37600500Y-43053388D01*
X37619407Y-42995197D01*
X37668907Y-42959233D01*
X37730093Y-42959233D01*
X37769504Y-42983384D01*
G37*
%TD.AperFunction*%
%TA.AperFunction,Conductor*%
G36*
X55477931Y-57144407D02*
G01*
X55513895Y-57193907D01*
X55513895Y-57255093D01*
X55499834Y-57282689D01*
X55496949Y-57286658D01*
X55439354Y-57399695D01*
X55424500Y-57493477D01*
X55424500Y-57956520D01*
X55424501Y-57956523D01*
X55439352Y-58050299D01*
X55439352Y-58050301D01*
X55444623Y-58060645D01*
X55454258Y-58079555D01*
X55463830Y-58139985D01*
X55436054Y-58194502D01*
X55381538Y-58222281D01*
X55366049Y-58223500D01*
X51827694Y-58223500D01*
X51826532Y-58223653D01*
X51813610Y-58224500D01*
X50696902Y-58224500D01*
X50638711Y-58205593D01*
X50626898Y-58195504D01*
X49725898Y-57294504D01*
X49698121Y-57239987D01*
X49707692Y-57179555D01*
X49750957Y-57136290D01*
X49795902Y-57125500D01*
X55419740Y-57125500D01*
X55477931Y-57144407D01*
G37*
%TD.AperFunction*%
%TA.AperFunction,Conductor*%
G36*
X49907626Y-44383643D02*
G01*
X49950891Y-44426908D01*
X49960462Y-44487340D01*
X49948421Y-44521347D01*
X49946683Y-44524356D01*
X49930556Y-44584545D01*
X49930555Y-44584544D01*
X49924500Y-44607144D01*
X49924500Y-46463397D01*
X49924501Y-46463404D01*
X49939759Y-46540116D01*
X49939760Y-46540118D01*
X49981264Y-46602232D01*
X49997888Y-46627112D01*
X50084883Y-46685240D01*
X50161599Y-46700500D01*
X50338400Y-46700499D01*
X50415117Y-46685240D01*
X50444998Y-46665273D01*
X50503886Y-46648665D01*
X50555002Y-46665274D01*
X50584879Y-46685238D01*
X50584880Y-46685238D01*
X50584883Y-46685240D01*
X50661599Y-46700500D01*
X50838400Y-46700499D01*
X50915117Y-46685240D01*
X50944998Y-46665273D01*
X51003886Y-46648665D01*
X51055002Y-46665274D01*
X51084879Y-46685238D01*
X51084880Y-46685238D01*
X51084883Y-46685240D01*
X51161599Y-46700500D01*
X51338400Y-46700499D01*
X51415117Y-46685240D01*
X51444998Y-46665273D01*
X51503886Y-46648665D01*
X51555002Y-46665274D01*
X51584879Y-46685238D01*
X51584880Y-46685238D01*
X51584883Y-46685240D01*
X51661599Y-46700500D01*
X51838400Y-46700499D01*
X51915117Y-46685240D01*
X51944998Y-46665273D01*
X52003886Y-46648665D01*
X52055002Y-46665274D01*
X52084879Y-46685238D01*
X52084880Y-46685238D01*
X52084883Y-46685240D01*
X52161599Y-46700500D01*
X52338400Y-46700499D01*
X52415117Y-46685240D01*
X52444998Y-46665273D01*
X52503886Y-46648665D01*
X52555002Y-46665274D01*
X52584879Y-46685238D01*
X52584880Y-46685238D01*
X52584883Y-46685240D01*
X52661599Y-46700500D01*
X52700500Y-46700499D01*
X52758689Y-46719405D01*
X52794654Y-46768904D01*
X52799500Y-46799497D01*
X52799500Y-46838396D01*
X52799501Y-46838404D01*
X52814759Y-46915115D01*
X52814759Y-46915116D01*
X52814760Y-46915117D01*
X52834726Y-46944999D01*
X52851334Y-47003887D01*
X52834727Y-47054999D01*
X52814761Y-47084880D01*
X52814759Y-47084886D01*
X52799501Y-47161589D01*
X52799500Y-47161599D01*
X52799500Y-47338397D01*
X52799501Y-47338404D01*
X52814759Y-47415115D01*
X52814759Y-47415116D01*
X52814760Y-47415117D01*
X52834726Y-47444999D01*
X52851334Y-47503887D01*
X52834727Y-47554999D01*
X52814761Y-47584880D01*
X52814759Y-47584886D01*
X52799501Y-47661589D01*
X52799500Y-47661599D01*
X52799500Y-47838397D01*
X52799501Y-47838404D01*
X52814759Y-47915115D01*
X52814759Y-47915116D01*
X52814760Y-47915117D01*
X52834726Y-47944999D01*
X52851334Y-48003887D01*
X52834727Y-48054999D01*
X52814761Y-48084880D01*
X52814759Y-48084886D01*
X52799501Y-48161589D01*
X52799500Y-48161599D01*
X52799500Y-48338397D01*
X52799501Y-48338404D01*
X52814759Y-48415115D01*
X52814759Y-48415116D01*
X52814760Y-48415117D01*
X52834726Y-48444999D01*
X52851334Y-48503887D01*
X52834727Y-48554999D01*
X52814761Y-48584880D01*
X52814759Y-48584886D01*
X52799501Y-48661589D01*
X52799500Y-48661599D01*
X52799500Y-48838397D01*
X52799501Y-48838404D01*
X52814759Y-48915115D01*
X52814759Y-48915116D01*
X52814760Y-48915117D01*
X52834726Y-48944999D01*
X52851334Y-49003887D01*
X52834727Y-49054999D01*
X52814761Y-49084880D01*
X52814759Y-49084886D01*
X52799501Y-49161589D01*
X52799500Y-49161599D01*
X52799500Y-49338397D01*
X52799501Y-49338404D01*
X52814759Y-49415115D01*
X52814759Y-49415116D01*
X52814760Y-49415117D01*
X52834726Y-49444999D01*
X52851334Y-49503887D01*
X52834727Y-49554999D01*
X52814761Y-49584880D01*
X52814759Y-49584886D01*
X52799501Y-49661589D01*
X52799500Y-49661599D01*
X52799500Y-49838397D01*
X52799501Y-49838404D01*
X52814759Y-49915115D01*
X52814759Y-49915116D01*
X52814760Y-49915117D01*
X52834726Y-49944999D01*
X52851334Y-50003887D01*
X52834727Y-50054999D01*
X52814761Y-50084880D01*
X52814759Y-50084886D01*
X52799501Y-50161588D01*
X52799500Y-50161600D01*
X52799500Y-50200500D01*
X52780593Y-50258691D01*
X52731093Y-50294655D01*
X52700502Y-50299500D01*
X52661603Y-50299500D01*
X52661595Y-50299501D01*
X52584884Y-50314759D01*
X52555000Y-50334727D01*
X52496111Y-50351334D01*
X52444999Y-50334726D01*
X52415119Y-50314761D01*
X52415117Y-50314760D01*
X52415114Y-50314759D01*
X52415113Y-50314759D01*
X52338410Y-50299501D01*
X52338402Y-50299500D01*
X52338401Y-50299500D01*
X52338400Y-50299500D01*
X52161602Y-50299500D01*
X52161595Y-50299501D01*
X52084884Y-50314759D01*
X52055000Y-50334727D01*
X51996111Y-50351334D01*
X51944999Y-50334726D01*
X51915119Y-50314761D01*
X51915117Y-50314760D01*
X51915114Y-50314759D01*
X51915113Y-50314759D01*
X51838410Y-50299501D01*
X51838402Y-50299500D01*
X51838401Y-50299500D01*
X51838400Y-50299500D01*
X51661602Y-50299500D01*
X51661595Y-50299501D01*
X51584883Y-50314759D01*
X51584881Y-50314760D01*
X51497890Y-50372886D01*
X51497886Y-50372890D01*
X51439762Y-50459879D01*
X51439759Y-50459886D01*
X51424501Y-50536588D01*
X51424500Y-50536600D01*
X51424500Y-52230761D01*
X51405593Y-52288952D01*
X51356093Y-52324916D01*
X51340988Y-52328542D01*
X51266874Y-52340281D01*
X51266867Y-52340283D01*
X51146782Y-52401470D01*
X51051470Y-52496782D01*
X50990283Y-52616867D01*
X50990281Y-52616874D01*
X50974500Y-52716510D01*
X50974500Y-53149165D01*
X50955593Y-53207356D01*
X50945503Y-53219169D01*
X50644445Y-53520226D01*
X50589929Y-53548003D01*
X50541311Y-53540306D01*
X50540537Y-53542689D01*
X50533127Y-53540281D01*
X50433490Y-53524500D01*
X50433488Y-53524500D01*
X49916512Y-53524500D01*
X49916510Y-53524500D01*
X49816874Y-53540281D01*
X49816867Y-53540283D01*
X49696782Y-53601470D01*
X49601470Y-53696782D01*
X49540283Y-53816867D01*
X49540281Y-53816874D01*
X49525859Y-53907933D01*
X49524500Y-53916512D01*
X49524500Y-54483488D01*
X49538884Y-54574308D01*
X49540281Y-54583125D01*
X49540283Y-54583132D01*
X49601470Y-54703217D01*
X49601472Y-54703220D01*
X49696780Y-54798528D01*
X49696782Y-54798529D01*
X49816867Y-54859716D01*
X49816869Y-54859716D01*
X49816874Y-54859719D01*
X49892541Y-54871703D01*
X49916510Y-54875500D01*
X49916512Y-54875500D01*
X50433490Y-54875500D01*
X50454885Y-54872111D01*
X50533126Y-54859719D01*
X50653220Y-54798528D01*
X50748528Y-54703220D01*
X50787291Y-54627142D01*
X50830555Y-54583879D01*
X50890987Y-54574308D01*
X50945504Y-54602086D01*
X50973281Y-54656602D01*
X50974500Y-54672089D01*
X50974500Y-54883489D01*
X50990281Y-54983125D01*
X50990283Y-54983132D01*
X51027079Y-55055347D01*
X51051472Y-55103220D01*
X51146780Y-55198528D01*
X51146782Y-55198529D01*
X51266867Y-55259716D01*
X51266869Y-55259716D01*
X51266874Y-55259719D01*
X51342541Y-55271703D01*
X51366510Y-55275500D01*
X51366512Y-55275500D01*
X51883490Y-55275500D01*
X51904885Y-55272111D01*
X51983126Y-55259719D01*
X52103220Y-55198528D01*
X52198528Y-55103220D01*
X52259719Y-54983126D01*
X52275500Y-54883488D01*
X52275500Y-54316512D01*
X52259719Y-54216874D01*
X52259716Y-54216869D01*
X52259716Y-54216867D01*
X52198529Y-54096782D01*
X52198528Y-54096780D01*
X52103220Y-54001472D01*
X52094341Y-53996948D01*
X52004554Y-53951198D01*
X51988164Y-53934808D01*
X51969407Y-53921180D01*
X51966938Y-53913581D01*
X51961290Y-53907933D01*
X51950500Y-53862989D01*
X51950500Y-53737010D01*
X51969407Y-53678819D01*
X52004555Y-53648801D01*
X52058200Y-53621466D01*
X52103220Y-53598528D01*
X52198528Y-53503220D01*
X52259719Y-53383126D01*
X52275500Y-53283488D01*
X52275500Y-52716512D01*
X52275413Y-52715964D01*
X52267221Y-52664240D01*
X52259719Y-52616874D01*
X52235132Y-52568620D01*
X52225561Y-52508190D01*
X52253338Y-52453673D01*
X52307854Y-52425895D01*
X52368286Y-52435466D01*
X52379144Y-52441901D01*
X52386794Y-52447121D01*
X52400138Y-52460465D01*
X52437250Y-52481891D01*
X52440480Y-52483756D01*
X52440489Y-52483762D01*
X52470495Y-52501086D01*
X52474361Y-52503318D01*
X52557147Y-52525501D01*
X52557149Y-52525501D01*
X52648916Y-52525501D01*
X52648932Y-52525500D01*
X53885191Y-52525500D01*
X53943382Y-52544407D01*
X53979346Y-52593907D01*
X53982972Y-52639987D01*
X53974500Y-52693477D01*
X53974500Y-53306520D01*
X53974501Y-53306523D01*
X53989352Y-53400299D01*
X53989354Y-53400304D01*
X54046950Y-53513342D01*
X54136658Y-53603050D01*
X54136660Y-53603051D01*
X54195445Y-53633004D01*
X54211834Y-53649393D01*
X54230593Y-53663022D01*
X54233061Y-53670619D01*
X54238710Y-53676268D01*
X54249500Y-53721213D01*
X54249500Y-53878786D01*
X54230593Y-53936977D01*
X54195446Y-53966995D01*
X54136660Y-53996948D01*
X54046949Y-54086659D01*
X53989354Y-54199695D01*
X53974500Y-54293477D01*
X53974500Y-54906520D01*
X53974501Y-54906523D01*
X53989352Y-55000299D01*
X53989354Y-55000304D01*
X54046950Y-55113342D01*
X54136658Y-55203050D01*
X54249696Y-55260646D01*
X54343481Y-55275500D01*
X54806518Y-55275499D01*
X54806520Y-55275499D01*
X54806521Y-55275498D01*
X54853411Y-55268072D01*
X54900299Y-55260647D01*
X54900299Y-55260646D01*
X54900304Y-55260646D01*
X55013342Y-55203050D01*
X55103050Y-55113342D01*
X55160646Y-55000304D01*
X55175500Y-54906519D01*
X55175499Y-54293482D01*
X55163367Y-54216874D01*
X55160647Y-54199700D01*
X55160646Y-54199698D01*
X55160646Y-54199696D01*
X55103050Y-54086658D01*
X55013342Y-53996950D01*
X55013339Y-53996948D01*
X54954554Y-53966995D01*
X54938164Y-53950605D01*
X54919407Y-53936977D01*
X54916938Y-53929378D01*
X54911290Y-53923730D01*
X54900500Y-53878786D01*
X54900500Y-53721213D01*
X54919407Y-53663022D01*
X54954555Y-53633004D01*
X54981910Y-53619065D01*
X55013342Y-53603050D01*
X55103050Y-53513342D01*
X55134979Y-53450677D01*
X55178242Y-53407415D01*
X55238674Y-53397844D01*
X55248793Y-53399994D01*
X55343982Y-53425500D01*
X55343984Y-53425500D01*
X55456015Y-53425500D01*
X55456018Y-53425500D01*
X55551192Y-53399998D01*
X55612290Y-53403200D01*
X55659840Y-53441705D01*
X55665021Y-53450679D01*
X55690221Y-53500135D01*
X55696950Y-53513342D01*
X55786658Y-53603050D01*
X55899696Y-53660646D01*
X55993481Y-53675500D01*
X56456518Y-53675499D01*
X56456520Y-53675499D01*
X56456521Y-53675498D01*
X56503411Y-53668072D01*
X56550299Y-53660647D01*
X56550299Y-53660646D01*
X56550304Y-53660646D01*
X56663342Y-53603050D01*
X56753050Y-53513342D01*
X56793221Y-53434501D01*
X56836484Y-53391239D01*
X56896916Y-53381668D01*
X56930929Y-53393712D01*
X56935759Y-53396501D01*
X56935763Y-53396503D01*
X57043982Y-53425500D01*
X57043984Y-53425500D01*
X57156016Y-53425500D01*
X57156018Y-53425500D01*
X57264237Y-53396503D01*
X57264239Y-53396501D01*
X57264241Y-53396501D01*
X57293064Y-53379859D01*
X57361263Y-53340485D01*
X57440485Y-53261263D01*
X57496503Y-53164237D01*
X57525500Y-53056018D01*
X57525500Y-52943982D01*
X57496503Y-52835763D01*
X57496501Y-52835760D01*
X57496501Y-52835758D01*
X57440486Y-52738739D01*
X57440485Y-52738737D01*
X57396249Y-52694501D01*
X57368474Y-52639987D01*
X57378045Y-52579555D01*
X57421310Y-52536290D01*
X57466255Y-52525500D01*
X59080625Y-52525500D01*
X59138816Y-52544407D01*
X59174780Y-52593907D01*
X59174780Y-52655093D01*
X59138816Y-52704593D01*
X59118512Y-52715963D01*
X59117188Y-52716512D01*
X59002402Y-52764057D01*
X58830348Y-52879019D01*
X58684020Y-53025347D01*
X58569058Y-53197401D01*
X58489869Y-53388580D01*
X58449500Y-53591531D01*
X58449500Y-53798466D01*
X58489869Y-54001417D01*
X58569058Y-54192596D01*
X58679827Y-54358374D01*
X58684023Y-54364654D01*
X58830345Y-54510976D01*
X59002402Y-54625940D01*
X59193580Y-54705129D01*
X59396535Y-54745499D01*
X59396536Y-54745499D01*
X59603464Y-54745499D01*
X59603465Y-54745499D01*
X59806420Y-54705129D01*
X59917402Y-54659157D01*
X59978399Y-54654357D01*
X60025292Y-54680618D01*
X60345504Y-55000830D01*
X60373281Y-55055347D01*
X60374500Y-55070834D01*
X60374500Y-55384859D01*
X60355593Y-55443050D01*
X60306093Y-55479014D01*
X60244907Y-55479014D01*
X60205497Y-55454863D01*
X60169654Y-55419021D01*
X59997597Y-55304057D01*
X59806418Y-55224868D01*
X59603467Y-55184499D01*
X59603465Y-55184499D01*
X59396535Y-55184499D01*
X59396532Y-55184499D01*
X59193581Y-55224868D01*
X59002402Y-55304057D01*
X58830348Y-55419019D01*
X58684020Y-55565347D01*
X58590374Y-55705501D01*
X58542324Y-55743381D01*
X58508058Y-55749500D01*
X56821213Y-55749500D01*
X56763022Y-55730593D01*
X56733004Y-55695445D01*
X56703051Y-55636660D01*
X56703050Y-55636658D01*
X56613342Y-55546950D01*
X56500304Y-55489354D01*
X56500305Y-55489354D01*
X56406522Y-55474500D01*
X55793479Y-55474500D01*
X55793476Y-55474501D01*
X55699700Y-55489352D01*
X55699695Y-55489354D01*
X55586659Y-55546949D01*
X55496948Y-55636660D01*
X55466996Y-55695445D01*
X55423732Y-55738710D01*
X55378787Y-55749500D01*
X49417935Y-55749500D01*
X49359744Y-55730593D01*
X49347931Y-55720504D01*
X48671931Y-55044504D01*
X48644154Y-54989987D01*
X48653725Y-54929555D01*
X48696990Y-54886290D01*
X48741935Y-54875500D01*
X48883490Y-54875500D01*
X48904885Y-54872111D01*
X48983126Y-54859719D01*
X49103220Y-54798528D01*
X49198528Y-54703220D01*
X49259719Y-54583126D01*
X49275500Y-54483488D01*
X49275500Y-53916512D01*
X49259719Y-53816874D01*
X49219374Y-53737694D01*
X49209803Y-53677263D01*
X49237580Y-53622746D01*
X49237580Y-53622745D01*
X50949859Y-51910466D01*
X50949862Y-51910465D01*
X51010465Y-51849862D01*
X51037230Y-51803504D01*
X51039666Y-51799285D01*
X51043606Y-51792459D01*
X51053318Y-51775639D01*
X51075500Y-51692853D01*
X51075500Y-51607147D01*
X51075500Y-50894647D01*
X51075500Y-50886673D01*
X51075499Y-50886659D01*
X51075499Y-50536602D01*
X51075498Y-50536595D01*
X51060240Y-50459883D01*
X51060239Y-50459881D01*
X51002113Y-50372890D01*
X51002112Y-50372888D01*
X50915117Y-50314760D01*
X50915113Y-50314759D01*
X50838410Y-50299501D01*
X50838402Y-50299500D01*
X50838401Y-50299500D01*
X50838400Y-50299500D01*
X50661602Y-50299500D01*
X50661595Y-50299501D01*
X50584884Y-50314759D01*
X50555000Y-50334727D01*
X50496111Y-50351334D01*
X50444999Y-50334726D01*
X50415119Y-50314761D01*
X50415117Y-50314760D01*
X50415114Y-50314759D01*
X50415113Y-50314759D01*
X50338410Y-50299501D01*
X50338402Y-50299500D01*
X50338401Y-50299500D01*
X50338400Y-50299500D01*
X50161602Y-50299500D01*
X50161595Y-50299501D01*
X50084884Y-50314759D01*
X50055000Y-50334727D01*
X49996111Y-50351334D01*
X49944999Y-50334726D01*
X49915119Y-50314761D01*
X49915117Y-50314760D01*
X49915114Y-50314759D01*
X49915113Y-50314759D01*
X49838410Y-50299501D01*
X49838402Y-50299500D01*
X49838401Y-50299500D01*
X49838400Y-50299500D01*
X49661602Y-50299500D01*
X49661595Y-50299501D01*
X49584884Y-50314759D01*
X49555000Y-50334727D01*
X49496111Y-50351334D01*
X49444999Y-50334726D01*
X49415119Y-50314761D01*
X49415117Y-50314760D01*
X49415114Y-50314759D01*
X49415113Y-50314759D01*
X49338411Y-50299501D01*
X49338401Y-50299500D01*
X49338400Y-50299500D01*
X49299499Y-50299500D01*
X49241308Y-50280593D01*
X49205344Y-50231093D01*
X49200499Y-50200500D01*
X49200499Y-50161602D01*
X49200498Y-50161595D01*
X49185240Y-50084883D01*
X49185239Y-50084881D01*
X49165274Y-50055002D01*
X49148665Y-49996114D01*
X49165274Y-49944998D01*
X49185238Y-49915120D01*
X49185238Y-49915119D01*
X49185240Y-49915117D01*
X49200500Y-49838401D01*
X49200499Y-49661600D01*
X49185240Y-49584883D01*
X49178970Y-49575500D01*
X49165274Y-49555002D01*
X49148665Y-49496114D01*
X49165274Y-49444998D01*
X49185238Y-49415120D01*
X49185238Y-49415119D01*
X49185240Y-49415117D01*
X49200500Y-49338401D01*
X49200499Y-49161600D01*
X49185240Y-49084883D01*
X49165273Y-49055001D01*
X49148665Y-48996114D01*
X49165274Y-48944998D01*
X49167362Y-48941874D01*
X49185240Y-48915117D01*
X49200500Y-48838401D01*
X49200499Y-48661600D01*
X49185240Y-48584883D01*
X49178209Y-48574361D01*
X49165274Y-48555002D01*
X49148665Y-48496114D01*
X49165274Y-48444998D01*
X49185238Y-48415120D01*
X49185238Y-48415119D01*
X49185240Y-48415117D01*
X49200500Y-48338401D01*
X49200499Y-48161600D01*
X49185240Y-48084883D01*
X49165273Y-48055001D01*
X49148665Y-47996114D01*
X49165274Y-47944998D01*
X49185238Y-47915120D01*
X49185238Y-47915119D01*
X49185240Y-47915117D01*
X49200500Y-47838401D01*
X49200499Y-47661600D01*
X49185240Y-47584883D01*
X49165273Y-47555001D01*
X49148665Y-47496114D01*
X49165274Y-47444998D01*
X49169458Y-47438737D01*
X49185240Y-47415117D01*
X49200500Y-47338401D01*
X49200499Y-47161600D01*
X49185240Y-47084883D01*
X49177009Y-47072565D01*
X49168184Y-47059357D01*
X49165273Y-47055001D01*
X49148665Y-46996114D01*
X49165274Y-46944998D01*
X49185238Y-46915120D01*
X49185238Y-46915119D01*
X49185240Y-46915117D01*
X49200500Y-46838401D01*
X49200500Y-46799499D01*
X49219407Y-46741308D01*
X49268907Y-46705344D01*
X49299500Y-46700499D01*
X49338398Y-46700499D01*
X49338400Y-46700499D01*
X49415117Y-46685240D01*
X49502112Y-46627112D01*
X49560240Y-46540117D01*
X49575500Y-46463401D01*
X49575500Y-46063719D01*
X49575500Y-44660035D01*
X49594407Y-44601844D01*
X49604496Y-44590032D01*
X49792677Y-44401850D01*
X49847194Y-44374072D01*
X49907626Y-44383643D01*
G37*
%TD.AperFunction*%
%TA.AperFunction,Conductor*%
G36*
X52444501Y-41879828D02*
G01*
X52500138Y-41935465D01*
X52500140Y-41935466D01*
X52502006Y-41937332D01*
X52529783Y-41991848D01*
X52540281Y-42058125D01*
X52540283Y-42058132D01*
X52590688Y-42157056D01*
X52601472Y-42178220D01*
X52696780Y-42273528D01*
X52696782Y-42273529D01*
X52816867Y-42334716D01*
X52816869Y-42334716D01*
X52816874Y-42334719D01*
X52892541Y-42346703D01*
X52916510Y-42350500D01*
X52916512Y-42350500D01*
X53149046Y-42350500D01*
X53207237Y-42369407D01*
X53243201Y-42418907D01*
X53243201Y-42480093D01*
X53219049Y-42519502D01*
X53163552Y-42575000D01*
X53049390Y-42689161D01*
X53049386Y-42689166D01*
X53006538Y-42763380D01*
X53006537Y-42763385D01*
X52989428Y-42827239D01*
X52984355Y-42846171D01*
X52984355Y-43281925D01*
X52984355Y-43367631D01*
X52988413Y-43382776D01*
X53006538Y-43450421D01*
X53049386Y-43524635D01*
X53049388Y-43524637D01*
X53049390Y-43524640D01*
X53624610Y-44099859D01*
X53624612Y-44099862D01*
X53685215Y-44160465D01*
X53722324Y-44181889D01*
X53722326Y-44181891D01*
X53753353Y-44199805D01*
X53759438Y-44203318D01*
X53842224Y-44225501D01*
X53886258Y-44225501D01*
X53935759Y-44238765D01*
X53938735Y-44240483D01*
X53938737Y-44240485D01*
X54035763Y-44296503D01*
X54143982Y-44325500D01*
X54143984Y-44325500D01*
X54256016Y-44325500D01*
X54256018Y-44325500D01*
X54364237Y-44296503D01*
X54364239Y-44296501D01*
X54364241Y-44296501D01*
X54393064Y-44279859D01*
X54461263Y-44240485D01*
X54540485Y-44161263D01*
X54596503Y-44064237D01*
X54625500Y-43956018D01*
X54625500Y-43843982D01*
X54607930Y-43778409D01*
X54611133Y-43717309D01*
X54649638Y-43669759D01*
X54703557Y-43653788D01*
X55014563Y-43653788D01*
X55014565Y-43653788D01*
X55097351Y-43631606D01*
X55097353Y-43631604D01*
X55097355Y-43631604D01*
X55171569Y-43588756D01*
X55171569Y-43588755D01*
X55171574Y-43588753D01*
X55500814Y-43259513D01*
X55629832Y-43130496D01*
X55684348Y-43102719D01*
X55699835Y-43101500D01*
X57381288Y-43101500D01*
X57388885Y-43103968D01*
X57396775Y-43102719D01*
X57417430Y-43113243D01*
X57439479Y-43120407D01*
X57451292Y-43130496D01*
X57485351Y-43164555D01*
X57501084Y-43185059D01*
X57503496Y-43189237D01*
X57503497Y-43189240D01*
X57559515Y-43286266D01*
X57638737Y-43365488D01*
X57649998Y-43371989D01*
X57690940Y-43417456D01*
X57699500Y-43457726D01*
X57699500Y-45423515D01*
X57680593Y-45481706D01*
X57631093Y-45517670D01*
X57569907Y-45517670D01*
X57558849Y-45512747D01*
X57558830Y-45512795D01*
X57552838Y-45510313D01*
X57552837Y-45510312D01*
X57552836Y-45510312D01*
X57419183Y-45474500D01*
X57280817Y-45474500D01*
X57147519Y-45510217D01*
X57147164Y-45510312D01*
X57027335Y-45579495D01*
X56929493Y-45677337D01*
X56926021Y-45683351D01*
X56880549Y-45724289D01*
X56819699Y-45730681D01*
X56812667Y-45728915D01*
X56652571Y-45682403D01*
X56652568Y-45682402D01*
X56652567Y-45682401D01*
X56652564Y-45682401D01*
X56628844Y-45680535D01*
X56615693Y-45679500D01*
X55384305Y-45679500D01*
X55371772Y-45680486D01*
X55347433Y-45682401D01*
X55347426Y-45682403D01*
X55189601Y-45728256D01*
X55048132Y-45811920D01*
X54934506Y-45925546D01*
X54879990Y-45953323D01*
X54819558Y-45943751D01*
X54778767Y-45905043D01*
X54744339Y-45845413D01*
X54740485Y-45838737D01*
X54661263Y-45759515D01*
X54661260Y-45759513D01*
X54564240Y-45703498D01*
X54564242Y-45703498D01*
X54522251Y-45692247D01*
X54456018Y-45674500D01*
X54343982Y-45674500D01*
X54277748Y-45692247D01*
X54235758Y-45703498D01*
X54138739Y-45759513D01*
X54059513Y-45838739D01*
X54003498Y-45935758D01*
X53973610Y-46047304D01*
X53947987Y-46091685D01*
X53892266Y-46147406D01*
X53837749Y-46175183D01*
X53777317Y-46165612D01*
X53734052Y-46122347D01*
X53724481Y-46061915D01*
X53725117Y-46058919D01*
X53725500Y-46056017D01*
X53725500Y-45943983D01*
X53725438Y-45943751D01*
X53696503Y-45835763D01*
X53696501Y-45835760D01*
X53696501Y-45835758D01*
X53638764Y-45735755D01*
X53625500Y-45686255D01*
X53625500Y-45609642D01*
X53644407Y-45551451D01*
X53693907Y-45515487D01*
X53698850Y-45514023D01*
X53764237Y-45496503D01*
X53861263Y-45440485D01*
X53940485Y-45361263D01*
X53996503Y-45264237D01*
X54025500Y-45156018D01*
X54025500Y-45043982D01*
X53996503Y-44935763D01*
X53996501Y-44935760D01*
X53996501Y-44935758D01*
X53948806Y-44853150D01*
X53940485Y-44838737D01*
X53861263Y-44759515D01*
X53861260Y-44759513D01*
X53764240Y-44703498D01*
X53764242Y-44703498D01*
X53726227Y-44693312D01*
X53656018Y-44674500D01*
X53656016Y-44674500D01*
X53652694Y-44673610D01*
X53608315Y-44647988D01*
X53498874Y-44538547D01*
X53498871Y-44538545D01*
X53498869Y-44538543D01*
X53424654Y-44495695D01*
X53424656Y-44495695D01*
X53392533Y-44487088D01*
X53341865Y-44473512D01*
X53341863Y-44473512D01*
X52996242Y-44473512D01*
X52938051Y-44454605D01*
X52902087Y-44405105D01*
X52900615Y-44348889D01*
X52914652Y-44296503D01*
X52925500Y-44256018D01*
X52925500Y-44143982D01*
X52896503Y-44035763D01*
X52896501Y-44035760D01*
X52896501Y-44035758D01*
X52840486Y-43938739D01*
X52840485Y-43938737D01*
X52761263Y-43859515D01*
X52734361Y-43843983D01*
X52664240Y-43803498D01*
X52664242Y-43803498D01*
X52631690Y-43794776D01*
X52593548Y-43784556D01*
X52542236Y-43751233D01*
X52520309Y-43694111D01*
X52523546Y-43663308D01*
X52525500Y-43656018D01*
X52525500Y-43543982D01*
X52496503Y-43435763D01*
X52496501Y-43435760D01*
X52496501Y-43435758D01*
X52447757Y-43351333D01*
X52440485Y-43338737D01*
X52361263Y-43259515D01*
X52315785Y-43233258D01*
X52264240Y-43203498D01*
X52264242Y-43203498D01*
X52222251Y-43192247D01*
X52156018Y-43174500D01*
X52043982Y-43174500D01*
X51977748Y-43192247D01*
X51935758Y-43203498D01*
X51835756Y-43261236D01*
X51786256Y-43274500D01*
X51342853Y-43274500D01*
X51257147Y-43274500D01*
X51213302Y-43286248D01*
X51174356Y-43296683D01*
X51171347Y-43298421D01*
X51168913Y-43298938D01*
X51168363Y-43299166D01*
X51168320Y-43299064D01*
X51111498Y-43311138D01*
X51055604Y-43286248D01*
X51025015Y-43233258D01*
X51031415Y-43172408D01*
X51051846Y-43142680D01*
X51815031Y-42379496D01*
X51869548Y-42351719D01*
X51879624Y-42350925D01*
X51879615Y-42350805D01*
X51883487Y-42350500D01*
X51883488Y-42350500D01*
X51983126Y-42334719D01*
X52103220Y-42273528D01*
X52198528Y-42178220D01*
X52259719Y-42058126D01*
X52275500Y-41958488D01*
X52275500Y-41949834D01*
X52294407Y-41891643D01*
X52343907Y-41855679D01*
X52405093Y-41855679D01*
X52444501Y-41879828D01*
G37*
%TD.AperFunction*%
%TA.AperFunction,Conductor*%
G36*
X48241341Y-42083994D02*
G01*
X48257945Y-42086624D01*
X48268231Y-42096910D01*
X48281341Y-42103207D01*
X48289321Y-42118000D01*
X48301210Y-42129889D01*
X48305599Y-42148174D01*
X48310391Y-42157056D01*
X48312000Y-42165870D01*
X48312000Y-42194748D01*
X48323633Y-42253231D01*
X48329568Y-42262114D01*
X48333239Y-42282222D01*
X48327314Y-42337881D01*
X48323632Y-42346769D01*
X48312001Y-42405241D01*
X48312000Y-42405253D01*
X48312000Y-42694746D01*
X48312001Y-42694758D01*
X48323632Y-42753227D01*
X48323634Y-42753233D01*
X48345475Y-42785920D01*
X48367948Y-42819552D01*
X48434269Y-42863867D01*
X48478731Y-42872711D01*
X48492741Y-42875498D01*
X48492746Y-42875498D01*
X48492752Y-42875500D01*
X48707147Y-42875500D01*
X49024500Y-42875500D01*
X49039412Y-42880345D01*
X49055093Y-42880345D01*
X49067778Y-42889561D01*
X49082691Y-42894407D01*
X49091907Y-42907092D01*
X49104593Y-42916309D01*
X49109438Y-42931221D01*
X49118655Y-42943907D01*
X49123500Y-42974500D01*
X49123500Y-42975164D01*
X49104593Y-43033355D01*
X49094504Y-43045168D01*
X47271504Y-44868168D01*
X47216987Y-44895945D01*
X47156555Y-44886374D01*
X47113290Y-44843109D01*
X47107347Y-44828761D01*
X47080535Y-44746240D01*
X47066550Y-44726992D01*
X47024723Y-44669422D01*
X46697305Y-44342005D01*
X46620485Y-44286190D01*
X46565695Y-44268388D01*
X46531585Y-44257306D01*
X46482087Y-44221344D01*
X46463179Y-44163153D01*
X46482086Y-44104962D01*
X46492176Y-44093148D01*
X46818330Y-43766996D01*
X46872846Y-43739219D01*
X46888333Y-43738000D01*
X47144746Y-43738000D01*
X47144747Y-43738000D01*
X47203230Y-43726367D01*
X47269551Y-43682052D01*
X47313866Y-43615731D01*
X47325499Y-43557248D01*
X47325499Y-43042752D01*
X47313866Y-42984269D01*
X47313862Y-42984264D01*
X47312668Y-42981378D01*
X47312260Y-42976196D01*
X47311964Y-42974707D01*
X47312140Y-42974671D01*
X47307869Y-42920381D01*
X47339839Y-42868212D01*
X47357868Y-42857167D01*
X47357520Y-42856563D01*
X47437357Y-42810468D01*
X47437357Y-42810467D01*
X47437362Y-42810465D01*
X48142996Y-42104829D01*
X48155958Y-42098225D01*
X48165997Y-42087704D01*
X48182533Y-42084685D01*
X48197513Y-42077053D01*
X48211878Y-42079328D01*
X48226188Y-42076716D01*
X48241341Y-42083994D01*
G37*
%TD.AperFunction*%
%TA.AperFunction,Conductor*%
G36*
X46656453Y-41130929D02*
G01*
X46674010Y-41131619D01*
X46684830Y-41140149D01*
X46697935Y-41144407D01*
X46722057Y-41169496D01*
X46730447Y-41182052D01*
X46796768Y-41226367D01*
X46841230Y-41235211D01*
X46855240Y-41237998D01*
X46855245Y-41237998D01*
X46855251Y-41238000D01*
X46855252Y-41238000D01*
X47144746Y-41238000D01*
X47144747Y-41238000D01*
X47203230Y-41226367D01*
X47203235Y-41226363D01*
X47212109Y-41222688D01*
X47273106Y-41217886D01*
X47287880Y-41222685D01*
X47296764Y-41226363D01*
X47296769Y-41226367D01*
X47341231Y-41235211D01*
X47355241Y-41237998D01*
X47355246Y-41237998D01*
X47355252Y-41238000D01*
X47355253Y-41238000D01*
X47644747Y-41238000D01*
X47644748Y-41238000D01*
X47703231Y-41226367D01*
X47703236Y-41226363D01*
X47712113Y-41222687D01*
X47771995Y-41217625D01*
X47789736Y-41221667D01*
X47796769Y-41226367D01*
X47855252Y-41238000D01*
X47861410Y-41238000D01*
X47872179Y-41240454D01*
X47893350Y-41253093D01*
X47915943Y-41262975D01*
X47919194Y-41268522D01*
X47924715Y-41271818D01*
X47934413Y-41294485D01*
X47946883Y-41315760D01*
X47946252Y-41322159D01*
X47948782Y-41328071D01*
X47943304Y-41352109D01*
X47940888Y-41376651D01*
X47936119Y-41383638D01*
X47935188Y-41387727D01*
X47930580Y-41391755D01*
X47920188Y-41406984D01*
X47131669Y-42195504D01*
X47077152Y-42223281D01*
X47061665Y-42224500D01*
X46275833Y-42224500D01*
X46217642Y-42205593D01*
X46205829Y-42195503D01*
X45804496Y-41794169D01*
X45776719Y-41739653D01*
X45775500Y-41724166D01*
X45775500Y-41525835D01*
X45794407Y-41467644D01*
X45804496Y-41455831D01*
X46105831Y-41154496D01*
X46160348Y-41126719D01*
X46175835Y-41125500D01*
X46639744Y-41125500D01*
X46656453Y-41130929D01*
G37*
%TD.AperFunction*%
%TD*%
M02*
