%TF.GenerationSoftware,KiCad,Pcbnew,9.0.5*%
%TF.CreationDate,2025-11-12T12:14:19+01:00*%
%TF.ProjectId,Control board,436f6e74-726f-46c2-9062-6f6172642e6b,rev?*%
%TF.SameCoordinates,Original*%
%TF.FileFunction,Paste,Bot*%
%TF.FilePolarity,Positive*%
%FSLAX46Y46*%
G04 Gerber Fmt 4.6, Leading zero omitted, Abs format (unit mm)*
G04 Created by KiCad (PCBNEW 9.0.5) date 2025-11-12 12:14:19*
%MOMM*%
%LPD*%
G01*
G04 APERTURE LIST*
G04 Aperture macros list*
%AMRoundRect*
0 Rectangle with rounded corners*
0 $1 Rounding radius*
0 $2 $3 $4 $5 $6 $7 $8 $9 X,Y pos of 4 corners*
0 Add a 4 corners polygon primitive as box body*
4,1,4,$2,$3,$4,$5,$6,$7,$8,$9,$2,$3,0*
0 Add four circle primitives for the rounded corners*
1,1,$1+$1,$2,$3*
1,1,$1+$1,$4,$5*
1,1,$1+$1,$6,$7*
1,1,$1+$1,$8,$9*
0 Add four rect primitives between the rounded corners*
20,1,$1+$1,$2,$3,$4,$5,0*
20,1,$1+$1,$4,$5,$6,$7,0*
20,1,$1+$1,$6,$7,$8,$9,0*
20,1,$1+$1,$8,$9,$2,$3,0*%
G04 Aperture macros list end*
%ADD10RoundRect,0.200000X-0.200000X-0.275000X0.200000X-0.275000X0.200000X0.275000X-0.200000X0.275000X0*%
%ADD11RoundRect,0.200000X0.275000X-0.200000X0.275000X0.200000X-0.275000X0.200000X-0.275000X-0.200000X0*%
%ADD12RoundRect,0.200000X-0.275000X0.200000X-0.275000X-0.200000X0.275000X-0.200000X0.275000X0.200000X0*%
%ADD13RoundRect,0.150000X-0.150000X0.587500X-0.150000X-0.587500X0.150000X-0.587500X0.150000X0.587500X0*%
%ADD14RoundRect,0.150000X0.150000X-0.512500X0.150000X0.512500X-0.150000X0.512500X-0.150000X-0.512500X0*%
%ADD15RoundRect,0.225000X-0.225000X-0.250000X0.225000X-0.250000X0.225000X0.250000X-0.225000X0.250000X0*%
%ADD16RoundRect,0.250000X1.000000X0.650000X-1.000000X0.650000X-1.000000X-0.650000X1.000000X-0.650000X0*%
%ADD17RoundRect,0.225000X0.225000X0.250000X-0.225000X0.250000X-0.225000X-0.250000X0.225000X-0.250000X0*%
%ADD18RoundRect,0.225000X0.250000X-0.225000X0.250000X0.225000X-0.250000X0.225000X-0.250000X-0.225000X0*%
%ADD19R,0.250000X0.475000*%
%ADD20R,0.475000X0.250000*%
%ADD21RoundRect,0.200000X-0.053033X0.335876X-0.335876X0.053033X0.053033X-0.335876X0.335876X-0.053033X0*%
%ADD22RoundRect,0.200000X-0.335876X-0.053033X-0.053033X-0.335876X0.335876X0.053033X0.053033X0.335876X0*%
%ADD23RoundRect,0.050000X-0.285000X-0.100000X0.285000X-0.100000X0.285000X0.100000X-0.285000X0.100000X0*%
%ADD24RoundRect,0.200000X0.335876X0.053033X0.053033X0.335876X-0.335876X-0.053033X-0.053033X-0.335876X0*%
%ADD25RoundRect,0.150000X0.150000X-0.587500X0.150000X0.587500X-0.150000X0.587500X-0.150000X-0.587500X0*%
%ADD26RoundRect,0.200000X0.200000X0.275000X-0.200000X0.275000X-0.200000X-0.275000X0.200000X-0.275000X0*%
%ADD27RoundRect,0.232500X-0.232500X-0.232500X0.232500X-0.232500X0.232500X0.232500X-0.232500X0.232500X0*%
%ADD28RoundRect,0.062500X-0.375000X-0.062500X0.375000X-0.062500X0.375000X0.062500X-0.375000X0.062500X0*%
%ADD29RoundRect,0.062500X-0.062500X-0.375000X0.062500X-0.375000X0.062500X0.375000X-0.062500X0.375000X0*%
%ADD30RoundRect,0.200000X0.053033X-0.335876X0.335876X-0.053033X-0.053033X0.335876X-0.335876X0.053033X0*%
%ADD31RoundRect,0.218750X-0.381250X0.218750X-0.381250X-0.218750X0.381250X-0.218750X0.381250X0.218750X0*%
%ADD32RoundRect,0.225000X-0.250000X0.225000X-0.250000X-0.225000X0.250000X-0.225000X0.250000X0.225000X0*%
%ADD33RoundRect,0.150000X-0.512500X-0.150000X0.512500X-0.150000X0.512500X0.150000X-0.512500X0.150000X0*%
%ADD34RoundRect,0.475000X-2.075000X0.475000X-2.075000X-0.475000X2.075000X-0.475000X2.075000X0.475000X0*%
G04 APERTURE END LIST*
D10*
%TO.C,R11*%
X45175000Y-66475000D03*
X46825000Y-66475000D03*
%TD*%
D11*
%TO.C,R1*%
X56100000Y-57725000D03*
X56100000Y-56075000D03*
%TD*%
D12*
%TO.C,R15*%
X58500000Y-38250000D03*
X58500000Y-39900000D03*
%TD*%
D13*
%TO.C,Q5*%
X54250000Y-34062500D03*
X56150000Y-34062500D03*
X55200000Y-35937501D03*
%TD*%
D14*
%TO.C,U4*%
X50349999Y-64712500D03*
X49400000Y-64712500D03*
X48450001Y-64712500D03*
X48450001Y-62437500D03*
X49400000Y-62437500D03*
X50349999Y-62437500D03*
%TD*%
D15*
%TO.C,C5*%
X51625000Y-40175000D03*
X53175000Y-40175000D03*
%TD*%
D16*
%TO.C,D1*%
X54600000Y-67475000D03*
X50600000Y-67475000D03*
%TD*%
D17*
%TO.C,C4*%
X53175000Y-54600000D03*
X51625000Y-54600000D03*
%TD*%
D13*
%TO.C,Q2*%
X43850000Y-34062500D03*
X45750000Y-34062500D03*
X44800000Y-35937501D03*
%TD*%
D11*
%TO.C,R16*%
X59300000Y-43300000D03*
X59300000Y-41650000D03*
%TD*%
D17*
%TO.C,C6*%
X56175000Y-40175000D03*
X54625000Y-40175000D03*
%TD*%
%TO.C,C3*%
X53175000Y-53000000D03*
X51625000Y-53000000D03*
%TD*%
D10*
%TO.C,R5*%
X45375000Y-62300000D03*
X47025000Y-62300000D03*
%TD*%
D11*
%TO.C,R14*%
X52700000Y-37100000D03*
X52700000Y-35450000D03*
%TD*%
D12*
%TO.C,R9*%
X39300000Y-57475000D03*
X39300000Y-59125000D03*
%TD*%
D17*
%TO.C,L3*%
X53175000Y-41675000D03*
X51625000Y-41675000D03*
%TD*%
D13*
%TO.C,Q4*%
X50850000Y-31862500D03*
X52750000Y-31862500D03*
X51800000Y-33737501D03*
%TD*%
D12*
%TO.C,R3*%
X50100000Y-39575000D03*
X50100000Y-41225000D03*
%TD*%
D18*
%TO.C,C9*%
X48300000Y-67950000D03*
X48300000Y-66400000D03*
%TD*%
D19*
%TO.C,U5*%
X48500001Y-43300000D03*
X48000000Y-43300000D03*
X47500000Y-43300000D03*
X46999999Y-43300000D03*
D20*
X46750000Y-42550000D03*
X46750000Y-42050000D03*
X46750000Y-41550000D03*
D19*
X46999999Y-40800000D03*
X47500000Y-40800000D03*
X48000000Y-40800000D03*
X48500001Y-40800000D03*
D20*
X48750000Y-41550000D03*
X48750000Y-42050000D03*
X48750000Y-42550000D03*
%TD*%
D21*
%TO.C,R4*%
X44383363Y-40616637D03*
X43216637Y-41783363D03*
%TD*%
D22*
%TO.C,R2*%
X45216637Y-43816637D03*
X46383363Y-44983363D03*
%TD*%
D15*
%TO.C,C2*%
X40825000Y-59537500D03*
X42375000Y-59537500D03*
%TD*%
%TO.C,C7*%
X40825000Y-63675000D03*
X42375000Y-63675000D03*
%TD*%
D23*
%TO.C,U2*%
X40660000Y-62387500D03*
X40660000Y-61887500D03*
X40660000Y-61387500D03*
X40660000Y-60887500D03*
X42140000Y-60887500D03*
X42140000Y-61387500D03*
X42140000Y-61887500D03*
X42140000Y-62387500D03*
%TD*%
D24*
%TO.C,R20*%
X58583363Y-33583363D03*
X57416637Y-32416637D03*
%TD*%
D25*
%TO.C,Q1*%
X46450000Y-53075001D03*
X44550000Y-53075001D03*
X45500000Y-51200000D03*
%TD*%
D10*
%TO.C,R18*%
X46175000Y-30000000D03*
X47825000Y-30000000D03*
%TD*%
D15*
%TO.C,C10*%
X47075000Y-39550000D03*
X48625000Y-39550000D03*
%TD*%
D18*
%TO.C,C11*%
X51200000Y-37050000D03*
X51200000Y-35500000D03*
%TD*%
D15*
%TO.C,C8*%
X51625000Y-38675000D03*
X53175000Y-38675000D03*
%TD*%
D10*
%TO.C,R13*%
X54575000Y-54600000D03*
X56225000Y-54600000D03*
%TD*%
D26*
%TO.C,R10*%
X46825000Y-67975000D03*
X45175000Y-67975000D03*
%TD*%
%TO.C,R12*%
X56225000Y-53000000D03*
X54575000Y-53000000D03*
%TD*%
%TO.C,R21*%
X46325000Y-54837501D03*
X44675000Y-54837501D03*
%TD*%
D17*
%TO.C,L1*%
X50175000Y-54200000D03*
X48625000Y-54200000D03*
%TD*%
D11*
%TO.C,R6*%
X43900000Y-63862499D03*
X43900000Y-62212499D03*
%TD*%
D27*
%TO.C,U3*%
X49850000Y-47350000D03*
X49850000Y-48500000D03*
X49850000Y-49650000D03*
X51000000Y-47350000D03*
X51000000Y-48500000D03*
X51000000Y-49650000D03*
X52150000Y-47350000D03*
X52150000Y-48500000D03*
X52150000Y-49650000D03*
D28*
X48562500Y-50250000D03*
X48562500Y-49750000D03*
X48562500Y-49250000D03*
X48562500Y-48750000D03*
X48562500Y-48250000D03*
X48562500Y-47750000D03*
X48562500Y-47250000D03*
X48562500Y-46750000D03*
D29*
X49250000Y-46062500D03*
X49750000Y-46062500D03*
X50250000Y-46062500D03*
X50750000Y-46062500D03*
X51250000Y-46062500D03*
X51750000Y-46062500D03*
X52250000Y-46062500D03*
X52750000Y-46062500D03*
D28*
X53437500Y-46750000D03*
X53437500Y-47250000D03*
X53437500Y-47750000D03*
X53437500Y-48250000D03*
X53437500Y-48750000D03*
X53437500Y-49250000D03*
X53437500Y-49750000D03*
X53437500Y-50250000D03*
D29*
X52750000Y-50937500D03*
X52250000Y-50937500D03*
X51750000Y-50937500D03*
X51250000Y-50937500D03*
X50750000Y-50937500D03*
X50250000Y-50937500D03*
X49750000Y-50937500D03*
X49250000Y-50937500D03*
%TD*%
D13*
%TO.C,Q3*%
X47250000Y-31862500D03*
X49150000Y-31862500D03*
X48200000Y-33737501D03*
%TD*%
D30*
%TO.C,R17*%
X41416637Y-33583363D03*
X42583363Y-32416637D03*
%TD*%
D26*
%TO.C,R19*%
X53825000Y-30000000D03*
X52175000Y-30000000D03*
%TD*%
D31*
%TO.C,L2*%
X39200000Y-60612500D03*
X39200000Y-62737500D03*
%TD*%
D32*
%TO.C,C1*%
X48000000Y-59200000D03*
X48000000Y-60750000D03*
%TD*%
D33*
%TO.C,U1*%
X44062500Y-60749999D03*
X44062500Y-59800000D03*
X44062500Y-58850001D03*
X46337500Y-58850001D03*
X46337500Y-60749999D03*
%TD*%
D10*
%TO.C,R7*%
X45375000Y-63775000D03*
X47025000Y-63775000D03*
%TD*%
D12*
%TO.C,R8*%
X41400000Y-55375000D03*
X41400000Y-57025000D03*
%TD*%
D34*
%TO.C,L4*%
X54400000Y-60275000D03*
X54400000Y-64475000D03*
%TD*%
M02*
