%TF.GenerationSoftware,KiCad,Pcbnew,9.0.5*%
%TF.CreationDate,2025-11-12T12:14:19+01:00*%
%TF.ProjectId,Control board,436f6e74-726f-46c2-9062-6f6172642e6b,rev?*%
%TF.SameCoordinates,Original*%
%TF.FileFunction,Paste,Top*%
%TF.FilePolarity,Positive*%
%FSLAX46Y46*%
G04 Gerber Fmt 4.6, Leading zero omitted, Abs format (unit mm)*
G04 Created by KiCad (PCBNEW 9.0.5) date 2025-11-12 12:14:19*
%MOMM*%
%LPD*%
G01*
G04 APERTURE LIST*
G04 Aperture macros list*
%AMRoundRect*
0 Rectangle with rounded corners*
0 $1 Rounding radius*
0 $2 $3 $4 $5 $6 $7 $8 $9 X,Y pos of 4 corners*
0 Add a 4 corners polygon primitive as box body*
4,1,4,$2,$3,$4,$5,$6,$7,$8,$9,$2,$3,0*
0 Add four circle primitives for the rounded corners*
1,1,$1+$1,$2,$3*
1,1,$1+$1,$4,$5*
1,1,$1+$1,$6,$7*
1,1,$1+$1,$8,$9*
0 Add four rect primitives between the rounded corners*
20,1,$1+$1,$2,$3,$4,$5,0*
20,1,$1+$1,$4,$5,$6,$7,0*
20,1,$1+$1,$6,$7,$8,$9,0*
20,1,$1+$1,$8,$9,$2,$3,0*%
G04 Aperture macros list end*
%ADD10R,5.500000X1.500000*%
%ADD11RoundRect,0.218750X0.218750X0.256250X-0.218750X0.256250X-0.218750X-0.256250X0.218750X-0.256250X0*%
%ADD12RoundRect,0.218750X-0.218750X-0.256250X0.218750X-0.256250X0.218750X0.256250X-0.218750X0.256250X0*%
%ADD13R,1.050000X1.150000*%
%ADD14R,0.850000X0.300000*%
%ADD15RoundRect,0.218750X0.335876X0.026517X0.026517X0.335876X-0.335876X-0.026517X-0.026517X-0.335876X0*%
%ADD16RoundRect,0.218750X0.026517X-0.335876X0.335876X-0.026517X-0.026517X0.335876X-0.335876X0.026517X0*%
G04 APERTURE END LIST*
D10*
%TO.C,U6*%
X41950000Y-57050000D03*
X41950000Y-59050000D03*
X41950000Y-61050000D03*
X41950000Y-63050000D03*
%TD*%
D11*
%TO.C,D4*%
X53787501Y-30000000D03*
X52212499Y-30000000D03*
%TD*%
D12*
%TO.C,D3*%
X46212499Y-30000000D03*
X47787501Y-30000000D03*
%TD*%
D13*
%TO.C,SW1*%
X50750001Y-35700000D03*
X50750001Y-32300000D03*
X49249999Y-35700000D03*
X49249999Y-32300000D03*
%TD*%
%TO.C,SW2*%
X50750001Y-44700000D03*
X50750001Y-41300000D03*
X49249999Y-44700000D03*
X49249999Y-41300000D03*
%TD*%
D14*
%TO.C,J1*%
X55325000Y-45220000D03*
X55325000Y-44719999D03*
X55325000Y-44220000D03*
X55324999Y-43720000D03*
X55325000Y-43220000D03*
X55325000Y-42720000D03*
X55324999Y-42220000D03*
X55325000Y-41720000D03*
X55325000Y-41220001D03*
X55325000Y-40720000D03*
X55325000Y-40220000D03*
X55324999Y-39720000D03*
X56725000Y-39970000D03*
X56725000Y-40470000D03*
X56724999Y-40970000D03*
X56725000Y-41470000D03*
X56725000Y-41970000D03*
X56724999Y-42470000D03*
X56725000Y-42970000D03*
X56724999Y-43470000D03*
X56725000Y-43970000D03*
X56725000Y-44470000D03*
X56724999Y-44970000D03*
X56725000Y-45470000D03*
%TD*%
D15*
%TO.C,D5*%
X58556847Y-33556847D03*
X57443153Y-32443153D03*
%TD*%
D16*
%TO.C,D2*%
X41443153Y-33556847D03*
X42556847Y-32443153D03*
%TD*%
M02*
