%TF.GenerationSoftware,KiCad,Pcbnew,9.0.5*%
%TF.CreationDate,2025-11-12T12:14:19+01:00*%
%TF.ProjectId,Control board,436f6e74-726f-46c2-9062-6f6172642e6b,rev?*%
%TF.SameCoordinates,Original*%
%TF.FileFunction,Copper,L1,Top*%
%TF.FilePolarity,Positive*%
%FSLAX46Y46*%
G04 Gerber Fmt 4.6, Leading zero omitted, Abs format (unit mm)*
G04 Created by KiCad (PCBNEW 9.0.5) date 2025-11-12 12:14:19*
%MOMM*%
%LPD*%
G01*
G04 APERTURE LIST*
G04 Aperture macros list*
%AMRoundRect*
0 Rectangle with rounded corners*
0 $1 Rounding radius*
0 $2 $3 $4 $5 $6 $7 $8 $9 X,Y pos of 4 corners*
0 Add a 4 corners polygon primitive as box body*
4,1,4,$2,$3,$4,$5,$6,$7,$8,$9,$2,$3,0*
0 Add four circle primitives for the rounded corners*
1,1,$1+$1,$2,$3*
1,1,$1+$1,$4,$5*
1,1,$1+$1,$6,$7*
1,1,$1+$1,$8,$9*
0 Add four rect primitives between the rounded corners*
20,1,$1+$1,$2,$3,$4,$5,0*
20,1,$1+$1,$4,$5,$6,$7,0*
20,1,$1+$1,$6,$7,$8,$9,0*
20,1,$1+$1,$8,$9,$2,$3,0*%
%AMHorizOval*
0 Thick line with rounded ends*
0 $1 width*
0 $2 $3 position (X,Y) of the first rounded end (center of the circle)*
0 $4 $5 position (X,Y) of the second rounded end (center of the circle)*
0 Add line between two ends*
20,1,$1,$2,$3,$4,$5,0*
0 Add two circle primitives to create the rounded ends*
1,1,$1,$2,$3*
1,1,$1,$4,$5*%
%AMRotRect*
0 Rectangle, with rotation*
0 The origin of the aperture is its center*
0 $1 length*
0 $2 width*
0 $3 Rotation angle, in degrees counterclockwise*
0 Add horizontal line*
21,1,$1,$2,0,0,$3*%
G04 Aperture macros list end*
%TA.AperFunction,SMDPad,CuDef*%
%ADD10R,5.500000X1.500000*%
%TD*%
%TA.AperFunction,SMDPad,CuDef*%
%ADD11C,2.500000*%
%TD*%
%TA.AperFunction,SMDPad,CuDef*%
%ADD12RoundRect,0.218750X0.218750X0.256250X-0.218750X0.256250X-0.218750X-0.256250X0.218750X-0.256250X0*%
%TD*%
%TA.AperFunction,SMDPad,CuDef*%
%ADD13RoundRect,0.218750X-0.218750X-0.256250X0.218750X-0.256250X0.218750X0.256250X-0.218750X0.256250X0*%
%TD*%
%TA.AperFunction,SMDPad,CuDef*%
%ADD14R,1.050000X1.150000*%
%TD*%
%TA.AperFunction,SMDPad,CuDef*%
%ADD15R,0.850000X0.300000*%
%TD*%
%TA.AperFunction,ComponentPad*%
%ADD16RoundRect,0.400000X0.750000X-0.100000X0.750000X0.100000X-0.750000X0.100000X-0.750000X-0.100000X0*%
%TD*%
%TA.AperFunction,ComponentPad*%
%ADD17RoundRect,0.450000X0.550000X-0.320000X0.550000X0.320000X-0.550000X0.320000X-0.550000X-0.320000X0*%
%TD*%
%TA.AperFunction,SMDPad,CuDef*%
%ADD18RoundRect,0.218750X0.335876X0.026517X0.026517X0.335876X-0.335876X-0.026517X-0.026517X-0.335876X0*%
%TD*%
%TA.AperFunction,SMDPad,CuDef*%
%ADD19RoundRect,0.218750X0.026517X-0.335876X0.335876X-0.026517X-0.026517X0.335876X-0.335876X0.026517X0*%
%TD*%
%TA.AperFunction,ComponentPad*%
%ADD20RotRect,1.700000X1.700000X225.000000*%
%TD*%
%TA.AperFunction,ComponentPad*%
%ADD21HorizOval,1.700000X0.000000X0.000000X0.000000X0.000000X0*%
%TD*%
%TA.AperFunction,ComponentPad*%
%ADD22R,1.700000X1.700000*%
%TD*%
%TA.AperFunction,ComponentPad*%
%ADD23O,1.700000X1.700000*%
%TD*%
%TA.AperFunction,ViaPad*%
%ADD24C,0.450000*%
%TD*%
%TA.AperFunction,ViaPad*%
%ADD25C,0.800000*%
%TD*%
%TA.AperFunction,Conductor*%
%ADD26C,0.250000*%
%TD*%
%TA.AperFunction,Conductor*%
%ADD27C,0.200000*%
%TD*%
G04 APERTURE END LIST*
D10*
%TO.P,U6,1,Xout*%
%TO.N,AX*%
X41950000Y-57050000D03*
%TO.P,U6,2,VDD*%
%TO.N,+3.3V*%
X41950000Y-59050000D03*
%TO.P,U6,3,Yout*%
%TO.N,AY*%
X41950000Y-61050000D03*
%TO.P,U6,4,GND*%
%TO.N,Net-(Q1-D)*%
X41950000Y-63050000D03*
%TD*%
D11*
%TO.P,TP3,1,1*%
%TO.N,VBUS*%
X56400000Y-35600000D03*
%TD*%
D12*
%TO.P,D4,1,K*%
%TO.N,Net-(D4-K)*%
X53787501Y-30000000D03*
%TO.P,D4,2,A*%
%TO.N,+3.3V*%
X52212499Y-30000000D03*
%TD*%
D13*
%TO.P,D3,1,K*%
%TO.N,Net-(D3-K)*%
X46212499Y-30000000D03*
%TO.P,D3,2,A*%
%TO.N,+3.3V*%
X47787501Y-30000000D03*
%TD*%
D14*
%TO.P,SW1,1,1*%
%TO.N,GND*%
X50750001Y-35700000D03*
X50750001Y-32300000D03*
%TO.P,SW1,2,2*%
%TO.N,BTN1*%
X49249999Y-35700000D03*
X49249999Y-32300000D03*
%TD*%
%TO.P,SW2,1,1*%
%TO.N,GND*%
X50750001Y-44700000D03*
X50750001Y-41300000D03*
%TO.P,SW2,2,2*%
%TO.N,BTN2*%
X49249999Y-44700000D03*
X49249999Y-41300000D03*
%TD*%
D11*
%TO.P,TP4,1,1*%
%TO.N,GND*%
X45800000Y-34700000D03*
%TD*%
D15*
%TO.P,J1,A1,GND*%
%TO.N,GND*%
X55325000Y-45220000D03*
%TO.P,J1,A2*%
%TO.N,N/C*%
X55325000Y-44719999D03*
%TO.P,J1,A3*%
X55325000Y-44220000D03*
%TO.P,J1,A4,VBUS*%
%TO.N,VBUS*%
X55324999Y-43720000D03*
%TO.P,J1,A5,CC1*%
%TO.N,Net-(J1-CC1)*%
X55325000Y-43220000D03*
%TO.P,J1,A6,D+*%
%TO.N,USB_D+*%
X55325000Y-42720000D03*
%TO.P,J1,A7,D-*%
%TO.N,USB_D-*%
X55324999Y-42220000D03*
%TO.P,J1,A8,SBU1*%
%TO.N,unconnected-(J1-SBU1-PadA8)*%
X55325000Y-41720000D03*
%TO.P,J1,A9,VBUS*%
%TO.N,VBUS*%
X55325000Y-41220001D03*
%TO.P,J1,A10*%
%TO.N,N/C*%
X55325000Y-40720000D03*
%TO.P,J1,A11*%
X55325000Y-40220000D03*
%TO.P,J1,A12,GND*%
%TO.N,GND*%
X55324999Y-39720000D03*
%TO.P,J1,B1,GND*%
X56725000Y-39970000D03*
%TO.P,J1,B2*%
%TO.N,N/C*%
X56725000Y-40470000D03*
%TO.P,J1,B3*%
X56724999Y-40970000D03*
%TO.P,J1,B4,VBUS*%
%TO.N,VBUS*%
X56725000Y-41470000D03*
%TO.P,J1,B5,CC2*%
%TO.N,Net-(J1-CC2)*%
X56725000Y-41970000D03*
%TO.P,J1,B6,D+*%
%TO.N,USB_D+*%
X56724999Y-42470000D03*
%TO.P,J1,B7,D-*%
%TO.N,USB_D-*%
X56725000Y-42970000D03*
%TO.P,J1,B8,SBU2*%
%TO.N,unconnected-(J1-SBU2-PadB8)*%
X56724999Y-43470000D03*
%TO.P,J1,B9,VBUS*%
%TO.N,VBUS*%
X56725000Y-43970000D03*
%TO.P,J1,B10*%
%TO.N,N/C*%
X56725000Y-44470000D03*
%TO.P,J1,B11*%
X56724999Y-44970000D03*
%TO.P,J1,B12,GND*%
%TO.N,GND*%
X56725000Y-45470000D03*
D16*
%TO.P,J1,S1,SHIELD*%
%TO.N,Net-(J1-SHIELD)*%
X60550000Y-46920000D03*
D17*
X55999999Y-46650000D03*
X55999999Y-38550000D03*
D16*
X60550000Y-38280000D03*
%TD*%
D11*
%TO.P,TP2,1,1*%
%TO.N,+3.3V*%
X52100000Y-38800000D03*
%TD*%
D18*
%TO.P,D5,1,K*%
%TO.N,Net-(D5-K)*%
X58556847Y-33556847D03*
%TO.P,D5,2,A*%
%TO.N,+3.3V*%
X57443153Y-32443153D03*
%TD*%
D19*
%TO.P,D2,1,K*%
%TO.N,Net-(D2-K)*%
X41443153Y-33556847D03*
%TO.P,D2,2,A*%
%TO.N,+3.3V*%
X42556847Y-32443153D03*
%TD*%
D11*
%TO.P,TP1,1,1*%
%TO.N,+10V*%
X39400000Y-46200000D03*
%TD*%
D20*
%TO.P,J3,1,Pin_1*%
%TO.N,GND*%
X39812994Y-42000000D03*
D21*
%TO.P,J3,2,Pin_2*%
%TO.N,+10V*%
X41609045Y-43796051D03*
%TO.P,J3,3,Pin_3*%
%TO.N,Tx*%
X43405096Y-45592102D03*
%TO.P,J3,4,Pin_4*%
%TO.N,Rx*%
X45201148Y-47388154D03*
%TD*%
D20*
%TO.P,BT1,1,+*%
%TO.N,+BATT*%
X40400000Y-37400000D03*
D21*
%TO.P,BT1,2,-*%
%TO.N,GND*%
X42196051Y-39196051D03*
%TD*%
D22*
%TO.P,J2,1,Pin_1*%
%TO.N,GND*%
X59500000Y-63854999D03*
D23*
%TO.P,J2,2,Pin_2*%
%TO.N,+3.3V*%
X59500000Y-61314999D03*
%TO.P,J2,3,Pin_3*%
%TO.N,~{RESET}*%
X59500000Y-58775000D03*
%TO.P,J2,4,Pin_4*%
%TO.N,SWCLK*%
X59500000Y-56234999D03*
%TO.P,J2,5,Pin_5*%
%TO.N,SWDIO*%
X59500000Y-53694999D03*
%TD*%
D24*
%TO.N,LED1*%
X52100000Y-43600000D03*
X43800000Y-35400000D03*
%TO.N,BTN1*%
X54925676Y-48861926D03*
%TO.N,+3.3V*%
X41800000Y-65800000D03*
X49600000Y-38700000D03*
X40825000Y-64825000D03*
X44500000Y-64800000D03*
X42300000Y-66300000D03*
X43400000Y-31600000D03*
X45000000Y-42300000D03*
X49000000Y-52500000D03*
X38300000Y-59073294D03*
X50000000Y-30000000D03*
X41300000Y-65300000D03*
X52333822Y-40875000D03*
X56600000Y-31600000D03*
D25*
%TO.N,GND*%
X43500000Y-67500000D03*
X50000000Y-37000000D03*
X61500000Y-41100000D03*
D24*
X47250000Y-44350000D03*
D25*
X51000000Y-70000000D03*
X52400000Y-62400000D03*
X51500000Y-57600000D03*
D24*
X46300000Y-49700000D03*
X44500000Y-51100000D03*
D25*
X40500000Y-34500000D03*
X45000000Y-32000000D03*
D24*
X57300000Y-54900000D03*
X51200000Y-52000000D03*
D25*
X43500000Y-65500000D03*
X45000000Y-39500000D03*
D24*
X51778439Y-43064065D03*
D25*
X56400000Y-62400000D03*
X54400000Y-62400000D03*
D24*
X50400000Y-53000000D03*
D25*
X39000000Y-55000000D03*
D24*
X52300000Y-42600000D03*
D25*
X50000000Y-70000000D03*
X55000000Y-51500000D03*
D24*
X46050000Y-41650000D03*
D25*
X59500000Y-36500000D03*
X54200000Y-57600000D03*
X43500000Y-66500000D03*
X55400000Y-62400000D03*
X49000000Y-70000000D03*
X55000000Y-32000000D03*
D24*
X50200000Y-55300000D03*
D25*
X53400000Y-62400000D03*
X39000000Y-53000000D03*
D24*
%TO.N,+BATT*%
X45200000Y-58000000D03*
%TO.N,BTN2*%
X54400000Y-49200000D03*
%TO.N,Net-(D2-K)*%
X42400000Y-34200000D03*
%TO.N,LED2*%
X52500000Y-44200000D03*
X47300000Y-33200000D03*
%TO.N,Net-(D3-K)*%
X45900000Y-31100000D03*
%TO.N,+10V*%
X41300000Y-46200000D03*
%TO.N,Net-(D4-K)*%
X53900000Y-31100000D03*
%TO.N,Net-(D5-K)*%
X57600000Y-34200000D03*
%TO.N,VBUS*%
X48900000Y-59800000D03*
X57100000Y-53000000D03*
%TO.N,LED3*%
X50900000Y-33300000D03*
X53600000Y-45100000D03*
%TO.N,LED4*%
X54200000Y-35500000D03*
X53300000Y-46000000D03*
%TO.N,USB_D+*%
X54381602Y-42802288D03*
X57900000Y-42375000D03*
%TO.N,USB_D-*%
X57900000Y-43025003D03*
X53835855Y-43106901D03*
%TO.N,Rx*%
X54402750Y-46900000D03*
%TO.N,Tx*%
X54400000Y-46100000D03*
%TO.N,Net-(J1-CC2)*%
X58400000Y-41100000D03*
%TO.N,Net-(J1-CC1)*%
X54200000Y-43900000D03*
%TO.N,PWREN*%
X49000000Y-61000000D03*
X53300000Y-51600000D03*
X47100000Y-55600000D03*
%TO.N,VBUS_S*%
X55400000Y-53000000D03*
X47700000Y-46574997D03*
%TO.N,Net-(U3-PA06)*%
X40300000Y-54300000D03*
X47700000Y-47200000D03*
%TO.N,AY*%
X47200000Y-48900000D03*
%TO.N,AX*%
X47500000Y-49500000D03*
%TO.N,CE*%
X45200000Y-59800000D03*
X47700000Y-50500000D03*
%TO.N,IO2*%
X47000000Y-38500000D03*
X55600000Y-49100000D03*
%TO.N,IO1*%
X54300000Y-47700000D03*
X45400000Y-45500000D03*
%TO.N,Net-(Q1-D)*%
X46800000Y-56200000D03*
%TD*%
D26*
%TO.N,BTN1*%
X48448999Y-42348999D02*
X48448999Y-36501000D01*
X54663750Y-48600000D02*
X53700000Y-48600000D01*
X53700000Y-48600000D02*
X51551001Y-46451001D01*
X51551001Y-43751001D02*
X50800000Y-43000000D01*
X48448999Y-36501000D02*
X49249999Y-35700000D01*
X54925676Y-48861926D02*
X54663750Y-48600000D01*
X50800000Y-43000000D02*
X49100000Y-43000000D01*
X49100000Y-43000000D02*
X48448999Y-42348999D01*
X51551001Y-46451001D02*
X51551001Y-43751001D01*
%TO.N,+3.3V*%
X57443153Y-32443153D02*
X56600000Y-31600000D01*
X47787501Y-30000000D02*
X50000000Y-30000000D01*
X52333822Y-39033822D02*
X52100000Y-38800000D01*
X41762500Y-59075000D02*
X41760794Y-59073294D01*
X52333822Y-41300000D02*
X52333822Y-39033822D01*
X42556847Y-32443153D02*
X43400000Y-31600000D01*
X41760794Y-59073294D02*
X38300000Y-59073294D01*
X50000000Y-30000000D02*
X52212499Y-30000000D01*
%TO.N,BTN2*%
X54400000Y-49200000D02*
X53598001Y-49200000D01*
X53598001Y-49200000D02*
X49249999Y-44851998D01*
X49249999Y-44851998D02*
X49249999Y-44700000D01*
D27*
%TO.N,Net-(D2-K)*%
X42400000Y-34200000D02*
X41756847Y-33556847D01*
X41756847Y-33556847D02*
X41443153Y-33556847D01*
%TO.N,Net-(D3-K)*%
X46200000Y-30800000D02*
X46200000Y-30012499D01*
X45900000Y-31100000D02*
X46200000Y-30800000D01*
X46200000Y-30012499D02*
X46212499Y-30000000D01*
D26*
%TO.N,+10V*%
X41300000Y-46200000D02*
X39400000Y-46200000D01*
D27*
%TO.N,Net-(D4-K)*%
X53800000Y-30012499D02*
X53787501Y-30000000D01*
X53800000Y-31000000D02*
X53800000Y-30012499D01*
X53900000Y-31100000D02*
X53800000Y-31000000D01*
%TO.N,Net-(D5-K)*%
X57600000Y-34200000D02*
X58243153Y-33556847D01*
X58243153Y-33556847D02*
X58556847Y-33556847D01*
D26*
%TO.N,VBUS*%
X56000000Y-41220001D02*
X56249999Y-41470000D01*
X56755000Y-41500000D02*
X57257900Y-41500000D01*
X58430000Y-47270000D02*
X58430000Y-43970000D01*
X55325000Y-41220001D02*
X56000000Y-41220001D01*
X58430000Y-43970000D02*
X56725000Y-43970000D01*
X57100000Y-53000000D02*
X57100000Y-48600000D01*
X56725000Y-41470000D02*
X56755000Y-41500000D01*
X58926000Y-43474000D02*
X58430000Y-43970000D01*
X57257900Y-41500000D02*
X58400000Y-40357900D01*
X48900000Y-54700000D02*
X48900000Y-59800000D01*
X57100000Y-53000000D02*
X55900000Y-54200000D01*
X55324999Y-43720000D02*
X55999999Y-43720000D01*
X58400000Y-37700000D02*
X58400000Y-39700000D01*
X56400000Y-35700000D02*
X58400000Y-37700000D01*
X58400000Y-40357900D02*
X58400000Y-39700000D01*
X56400000Y-35600000D02*
X56400000Y-36100000D01*
X49400000Y-54200000D02*
X48900000Y-54700000D01*
X58400000Y-40357900D02*
X58926000Y-40883900D01*
X55999999Y-43720000D02*
X56249999Y-43970000D01*
X57100000Y-48600000D02*
X58430000Y-47270000D01*
X58926000Y-40883900D02*
X58926000Y-43474000D01*
X55900000Y-54200000D02*
X49400000Y-54200000D01*
X56249999Y-41470000D02*
X56725000Y-41470000D01*
X56249999Y-43970000D02*
X56725000Y-43970000D01*
%TO.N,USB_D+*%
X56724999Y-42470000D02*
X57805000Y-42470000D01*
X57805000Y-42470000D02*
X57900000Y-42375000D01*
X54463890Y-42720000D02*
X54381602Y-42802288D01*
X55325000Y-42720000D02*
X54463890Y-42720000D01*
%TO.N,USB_D-*%
X54220013Y-42220000D02*
X55324999Y-42220000D01*
X57844997Y-42970000D02*
X57900000Y-43025003D01*
X53835855Y-43106901D02*
X53810822Y-43081868D01*
X53810822Y-43081868D02*
X53810822Y-43011210D01*
X53800000Y-43000388D02*
X53800000Y-42640013D01*
X53800000Y-42640013D02*
X54220013Y-42220000D01*
X56725000Y-42970000D02*
X57844997Y-42970000D01*
X53810822Y-43011210D02*
X53800000Y-43000388D01*
%TO.N,Net-(J1-CC2)*%
X58225000Y-41100000D02*
X57355000Y-41970000D01*
X58400000Y-41100000D02*
X58225000Y-41100000D01*
X57355000Y-41970000D02*
X56725000Y-41970000D01*
%TO.N,Net-(J1-CC1)*%
X54200000Y-43900000D02*
X54200000Y-43727767D01*
X54707767Y-43220000D02*
X55325000Y-43220000D01*
X54200000Y-43727767D02*
X54707767Y-43220000D01*
%TO.N,PWREN*%
X46700000Y-52900000D02*
X46700000Y-55200000D01*
X51700000Y-51600000D02*
X51400000Y-51300000D01*
X51400000Y-51300000D02*
X48300000Y-51300000D01*
X53300000Y-51600000D02*
X51700000Y-51600000D01*
X47400000Y-55900000D02*
X47400000Y-60400000D01*
X48000000Y-61000000D02*
X49000000Y-61000000D01*
X47100000Y-55600000D02*
X47400000Y-55900000D01*
X48300000Y-51300000D02*
X46700000Y-52900000D01*
X47400000Y-60400000D02*
X48000000Y-61000000D01*
X46700000Y-55200000D02*
X47100000Y-55600000D01*
%TO.N,VBUS_S*%
X53224701Y-50528000D02*
X49271698Y-46574997D01*
X49271698Y-46574997D02*
X47700000Y-46574997D01*
X55228000Y-50528000D02*
X53224701Y-50528000D01*
X55400000Y-53000000D02*
X55800000Y-52600000D01*
X55800000Y-52600000D02*
X55800000Y-51100000D01*
X55800000Y-51100000D02*
X55228000Y-50528000D01*
%TO.N,Net-(U3-PA06)*%
X47400000Y-47200000D02*
X40300000Y-54300000D01*
X47700000Y-47200000D02*
X47400000Y-47200000D01*
%TO.N,AY*%
X46201000Y-60142877D02*
X45268876Y-61075001D01*
X48226000Y-50717877D02*
X46201000Y-52742877D01*
X47200000Y-48900000D02*
X47643877Y-48900000D01*
X48226000Y-49482123D02*
X48226000Y-50717877D01*
X46201000Y-52742877D02*
X46201000Y-60142877D01*
X47643877Y-48900000D02*
X48226000Y-49482123D01*
X45268876Y-61075001D02*
X41762500Y-61075001D01*
%TO.N,AX*%
X45125000Y-57075000D02*
X41762499Y-57075000D01*
X45399000Y-52057123D02*
X45399000Y-56801000D01*
X47500000Y-49956123D02*
X45399000Y-52057123D01*
X45399000Y-56801000D02*
X45125000Y-57075000D01*
X47500000Y-49500000D02*
X47500000Y-49956123D01*
%TO.N,CE*%
X45800000Y-59200000D02*
X45800000Y-52400000D01*
X45200000Y-59800000D02*
X45800000Y-59200000D01*
X45800000Y-52400000D02*
X47700000Y-50500000D01*
%TO.N,IO2*%
X53556901Y-49726000D02*
X55532251Y-49726000D01*
X47000000Y-43000000D02*
X48200000Y-44200000D01*
X48551000Y-45551000D02*
X49381901Y-45551000D01*
X48200000Y-45200000D02*
X48551000Y-45551000D01*
X47000000Y-38500000D02*
X47000000Y-43000000D01*
X49381901Y-45551000D02*
X53556901Y-49726000D01*
X55532251Y-49726000D02*
X55600000Y-49658251D01*
X48200000Y-44200000D02*
X48200000Y-45200000D01*
X55600000Y-49658251D02*
X55600000Y-49100000D01*
%TO.N,IO1*%
X49312798Y-46048997D02*
X53390801Y-50127000D01*
X54696000Y-48096000D02*
X54300000Y-47700000D01*
X45400000Y-45500000D02*
X45948997Y-46048997D01*
X56126000Y-48722000D02*
X55500000Y-48096000D01*
X55698351Y-50127000D02*
X56126000Y-49699351D01*
X45948997Y-46048997D02*
X49312798Y-46048997D01*
X56126000Y-49699351D02*
X56126000Y-48722000D01*
X55500000Y-48096000D02*
X54696000Y-48096000D01*
X53390801Y-50127000D02*
X55698351Y-50127000D01*
%TO.N,Net-(Q1-D)*%
X46800000Y-60800000D02*
X44525000Y-63075000D01*
X44525000Y-63075000D02*
X41762500Y-63075000D01*
X46800000Y-56200000D02*
X46800000Y-60800000D01*
%TD*%
%TA.AperFunction,Conductor*%
%TO.N,GND*%
G36*
X50692494Y-28619928D02*
G01*
X50697974Y-28620236D01*
X51385573Y-28678233D01*
X51391024Y-28678848D01*
X52074238Y-28775302D01*
X52079713Y-28776232D01*
X52756428Y-28910839D01*
X52761842Y-28912075D01*
X53429926Y-29084410D01*
X53435262Y-29085947D01*
X53577164Y-29131175D01*
X53626865Y-29166861D01*
X53646098Y-29224944D01*
X53627518Y-29283240D01*
X53578221Y-29319481D01*
X53547100Y-29324500D01*
X53535752Y-29324500D01*
X53437581Y-29340049D01*
X53437577Y-29340050D01*
X53319251Y-29400341D01*
X53225342Y-29494250D01*
X53165051Y-29612576D01*
X53165050Y-29612580D01*
X53149501Y-29710751D01*
X53149501Y-30289248D01*
X53165050Y-30387419D01*
X53165051Y-30387423D01*
X53190447Y-30437264D01*
X53225343Y-30505751D01*
X53319250Y-30599658D01*
X53366335Y-30623649D01*
X53444524Y-30663489D01*
X53442995Y-30666489D01*
X53456235Y-30676109D01*
X53480560Y-30693761D01*
X53480568Y-30693788D01*
X53480593Y-30693806D01*
X53490077Y-30722997D01*
X53499500Y-30751941D01*
X53499500Y-30937645D01*
X53496127Y-30963267D01*
X53474500Y-31043982D01*
X53474500Y-31156018D01*
X53487222Y-31203497D01*
X53503498Y-31264241D01*
X53559513Y-31361260D01*
X53559515Y-31361263D01*
X53638737Y-31440485D01*
X53638739Y-31440486D01*
X53735759Y-31496501D01*
X53735757Y-31496501D01*
X53735761Y-31496502D01*
X53735763Y-31496503D01*
X53843982Y-31525500D01*
X53843984Y-31525500D01*
X53956016Y-31525500D01*
X53956018Y-31525500D01*
X54064237Y-31496503D01*
X54064239Y-31496501D01*
X54064241Y-31496501D01*
X54098748Y-31476577D01*
X54161263Y-31440485D01*
X54240485Y-31361263D01*
X54296503Y-31264237D01*
X54325500Y-31156018D01*
X54325500Y-31043982D01*
X54296503Y-30935763D01*
X54296501Y-30935760D01*
X54296501Y-30935758D01*
X54240486Y-30838739D01*
X54240485Y-30838737D01*
X54183607Y-30781859D01*
X54155832Y-30727345D01*
X54165403Y-30666913D01*
X54208667Y-30623649D01*
X54255752Y-30599658D01*
X54349659Y-30505751D01*
X54409952Y-30387420D01*
X54425501Y-30289246D01*
X54425501Y-29710754D01*
X54409952Y-29612580D01*
X54409949Y-29612575D01*
X54409949Y-29612573D01*
X54402636Y-29598220D01*
X54393064Y-29537788D01*
X54420841Y-29483272D01*
X54475358Y-29455494D01*
X54526150Y-29460784D01*
X54742501Y-29543369D01*
X54747595Y-29545479D01*
X55377435Y-29827314D01*
X55382399Y-29829706D01*
X55995416Y-30146397D01*
X56000251Y-30149069D01*
X56594558Y-30499642D01*
X56599234Y-30502581D01*
X57172930Y-30885912D01*
X57177436Y-30889109D01*
X57532093Y-31156016D01*
X57728734Y-31304004D01*
X57733076Y-31307466D01*
X58260258Y-31752631D01*
X58264373Y-31756309D01*
X58375384Y-31861260D01*
X58765751Y-32230321D01*
X58769677Y-32234247D01*
X58929472Y-32403267D01*
X59243688Y-32735623D01*
X59247369Y-32739742D01*
X59385648Y-32903497D01*
X59692532Y-33266922D01*
X59695994Y-33271264D01*
X60110881Y-33822551D01*
X60114091Y-33827075D01*
X60429617Y-34299294D01*
X60497409Y-34400751D01*
X60500361Y-34405449D01*
X60614714Y-34599305D01*
X60850922Y-34999735D01*
X60853607Y-35004594D01*
X61024690Y-35335758D01*
X61170283Y-35617580D01*
X61172691Y-35622579D01*
X61411739Y-36156799D01*
X61454509Y-36252379D01*
X61456634Y-36257510D01*
X61702691Y-36902113D01*
X61704525Y-36907354D01*
X61914051Y-37564736D01*
X61915588Y-37570072D01*
X61959680Y-37740999D01*
X61955907Y-37802068D01*
X61916959Y-37849256D01*
X61857713Y-37864539D01*
X61800799Y-37842079D01*
X61785276Y-37825994D01*
X61728286Y-37751723D01*
X61728285Y-37751722D01*
X61728282Y-37751718D01*
X61728277Y-37751714D01*
X61728276Y-37751713D01*
X61652562Y-37693616D01*
X61602841Y-37655464D01*
X61602840Y-37655463D01*
X61602838Y-37655462D01*
X61456766Y-37594957D01*
X61456758Y-37594955D01*
X61339361Y-37579500D01*
X59760642Y-37579500D01*
X59760637Y-37579501D01*
X59643241Y-37594955D01*
X59643233Y-37594957D01*
X59497161Y-37655462D01*
X59497160Y-37655462D01*
X59371723Y-37751713D01*
X59371713Y-37751723D01*
X59275462Y-37877160D01*
X59275462Y-37877161D01*
X59214957Y-38023233D01*
X59214955Y-38023241D01*
X59199500Y-38140637D01*
X59199500Y-38419357D01*
X59199501Y-38419362D01*
X59214955Y-38536758D01*
X59214957Y-38536766D01*
X59275462Y-38682838D01*
X59275462Y-38682839D01*
X59371713Y-38808276D01*
X59371718Y-38808282D01*
X59497159Y-38904536D01*
X59497160Y-38904536D01*
X59497161Y-38904537D01*
X59634110Y-38961263D01*
X59643238Y-38965044D01*
X59760639Y-38980500D01*
X61339360Y-38980499D01*
X61456762Y-38965044D01*
X61602841Y-38904536D01*
X61728282Y-38808282D01*
X61824536Y-38682841D01*
X61885044Y-38536762D01*
X61900500Y-38419361D01*
X61900499Y-38300275D01*
X61919406Y-38242086D01*
X61968906Y-38206122D01*
X62030091Y-38206121D01*
X62079591Y-38242085D01*
X62096597Y-38280962D01*
X62223766Y-38920285D01*
X62224696Y-38925760D01*
X62321146Y-39608940D01*
X62321768Y-39614458D01*
X62379760Y-40301992D01*
X62380071Y-40307536D01*
X62399461Y-40998610D01*
X62399500Y-41001387D01*
X62399500Y-58998613D01*
X62399461Y-59001390D01*
X62380071Y-59692464D01*
X62379760Y-59698008D01*
X62321768Y-60385542D01*
X62321146Y-60391060D01*
X62224696Y-61074239D01*
X62223766Y-61079714D01*
X62089159Y-61756429D01*
X62087923Y-61761843D01*
X61915588Y-62429928D01*
X61914051Y-62435264D01*
X61704525Y-63092645D01*
X61702691Y-63097886D01*
X61456634Y-63742489D01*
X61454509Y-63747620D01*
X61172693Y-64377416D01*
X61170283Y-64382419D01*
X60853607Y-64995405D01*
X60850921Y-65000265D01*
X60500364Y-65594547D01*
X60497409Y-65599249D01*
X60114094Y-66172920D01*
X60110881Y-66177449D01*
X59695994Y-66728736D01*
X59692532Y-66733078D01*
X59247379Y-67260246D01*
X59243678Y-67264387D01*
X58769678Y-67765753D01*
X58765752Y-67769679D01*
X58264386Y-68243679D01*
X58260245Y-68247380D01*
X57733077Y-68692533D01*
X57728735Y-68695995D01*
X57177448Y-69110882D01*
X57172919Y-69114095D01*
X56599248Y-69497410D01*
X56594546Y-69500365D01*
X56000264Y-69850922D01*
X55995404Y-69853608D01*
X55382418Y-70170284D01*
X55377415Y-70172694D01*
X54747619Y-70454510D01*
X54742488Y-70456635D01*
X54097885Y-70702692D01*
X54092644Y-70704526D01*
X53435263Y-70914052D01*
X53429927Y-70915589D01*
X52761842Y-71087924D01*
X52756428Y-71089160D01*
X52079713Y-71223767D01*
X52074238Y-71224697D01*
X51391059Y-71321147D01*
X51385541Y-71321769D01*
X50698007Y-71379761D01*
X50692463Y-71380072D01*
X50002777Y-71399423D01*
X49997223Y-71399423D01*
X49307536Y-71380072D01*
X49301992Y-71379761D01*
X48614458Y-71321769D01*
X48608942Y-71321147D01*
X48544378Y-71312032D01*
X47925761Y-71224697D01*
X47920286Y-71223767D01*
X47243571Y-71089160D01*
X47238157Y-71087924D01*
X46570072Y-70915589D01*
X46564736Y-70914052D01*
X45907355Y-70704526D01*
X45902114Y-70702692D01*
X45257511Y-70456635D01*
X45252387Y-70454512D01*
X44622580Y-70172692D01*
X44617581Y-70170284D01*
X44004595Y-69853608D01*
X43999735Y-69850922D01*
X43546134Y-69583350D01*
X43405449Y-69500362D01*
X43400751Y-69497410D01*
X42860584Y-69136482D01*
X42827075Y-69114092D01*
X42822551Y-69110882D01*
X42271264Y-68695995D01*
X42266922Y-68692533D01*
X42119568Y-68568104D01*
X41739743Y-68247370D01*
X41735624Y-68243688D01*
X41533141Y-68052258D01*
X41234247Y-67769679D01*
X41230321Y-67765753D01*
X40965973Y-67486143D01*
X40756310Y-67264374D01*
X40752632Y-67260259D01*
X40307467Y-66733078D01*
X40304005Y-66728736D01*
X40104949Y-66464237D01*
X39889110Y-66177438D01*
X39885905Y-66172920D01*
X39502582Y-65599236D01*
X39499643Y-65594560D01*
X39149077Y-65000264D01*
X39146392Y-64995405D01*
X39083931Y-64874500D01*
X39029419Y-64768982D01*
X40399500Y-64768982D01*
X40399500Y-64881018D01*
X40420533Y-64959513D01*
X40428498Y-64989241D01*
X40470081Y-65061263D01*
X40484515Y-65086263D01*
X40563737Y-65165485D01*
X40563739Y-65165486D01*
X40660759Y-65221501D01*
X40660757Y-65221501D01*
X40660761Y-65221502D01*
X40660763Y-65221503D01*
X40768982Y-65250500D01*
X40775500Y-65250500D01*
X40833691Y-65269407D01*
X40869655Y-65318907D01*
X40874500Y-65349500D01*
X40874500Y-65356018D01*
X40881265Y-65381264D01*
X40903498Y-65464241D01*
X40959513Y-65561260D01*
X40959515Y-65561263D01*
X41038737Y-65640485D01*
X41038739Y-65640486D01*
X41135759Y-65696501D01*
X41135757Y-65696501D01*
X41135761Y-65696502D01*
X41135763Y-65696503D01*
X41243982Y-65725500D01*
X41243984Y-65725500D01*
X41275500Y-65725500D01*
X41333691Y-65744407D01*
X41369655Y-65793907D01*
X41374500Y-65824500D01*
X41374500Y-65856018D01*
X41381265Y-65881264D01*
X41403498Y-65964241D01*
X41459513Y-66061260D01*
X41459515Y-66061263D01*
X41538737Y-66140485D01*
X41538739Y-66140486D01*
X41635759Y-66196501D01*
X41635757Y-66196501D01*
X41635761Y-66196502D01*
X41635763Y-66196503D01*
X41743982Y-66225500D01*
X41743984Y-66225500D01*
X41775500Y-66225500D01*
X41833691Y-66244407D01*
X41869655Y-66293907D01*
X41874500Y-66324500D01*
X41874500Y-66356018D01*
X41900072Y-66451455D01*
X41903498Y-66464241D01*
X41959513Y-66561260D01*
X41959515Y-66561263D01*
X42038737Y-66640485D01*
X42038739Y-66640486D01*
X42135759Y-66696501D01*
X42135757Y-66696501D01*
X42135761Y-66696502D01*
X42135763Y-66696503D01*
X42243982Y-66725500D01*
X42243984Y-66725500D01*
X42356016Y-66725500D01*
X42356018Y-66725500D01*
X42464237Y-66696503D01*
X42464239Y-66696501D01*
X42464241Y-66696501D01*
X42493064Y-66679859D01*
X42561263Y-66640485D01*
X42640485Y-66561263D01*
X42696503Y-66464237D01*
X42725500Y-66356018D01*
X42725500Y-66243982D01*
X42696503Y-66135763D01*
X42696501Y-66135760D01*
X42696501Y-66135758D01*
X42640486Y-66038739D01*
X42640485Y-66038737D01*
X42561263Y-65959515D01*
X42561260Y-65959513D01*
X42464240Y-65903498D01*
X42464242Y-65903498D01*
X42422251Y-65892247D01*
X42356018Y-65874500D01*
X42324500Y-65874500D01*
X42266309Y-65855593D01*
X42230345Y-65806093D01*
X42225500Y-65775500D01*
X42225500Y-65743983D01*
X42225500Y-65743982D01*
X42196503Y-65635763D01*
X42196501Y-65635760D01*
X42196501Y-65635758D01*
X42140486Y-65538739D01*
X42140485Y-65538737D01*
X42061263Y-65459515D01*
X42061260Y-65459513D01*
X41964240Y-65403498D01*
X41964242Y-65403498D01*
X41922251Y-65392247D01*
X41856018Y-65374500D01*
X41824500Y-65374500D01*
X41766309Y-65355593D01*
X41730345Y-65306093D01*
X41725500Y-65275500D01*
X41725500Y-65243983D01*
X41725500Y-65243982D01*
X41696503Y-65135763D01*
X41696501Y-65135760D01*
X41696501Y-65135758D01*
X41640486Y-65038739D01*
X41640485Y-65038737D01*
X41561263Y-64959515D01*
X41561260Y-64959513D01*
X41464240Y-64903498D01*
X41464242Y-64903498D01*
X41422251Y-64892247D01*
X41356018Y-64874500D01*
X41356016Y-64874500D01*
X41349500Y-64874500D01*
X41340595Y-64871606D01*
X41331311Y-64872815D01*
X41312108Y-64862351D01*
X41291309Y-64855593D01*
X41285804Y-64848017D01*
X41277585Y-64843538D01*
X41271566Y-64828420D01*
X41255345Y-64806093D01*
X41251327Y-64788273D01*
X41250500Y-64781917D01*
X41250500Y-64768982D01*
X41243801Y-64743982D01*
X44074500Y-64743982D01*
X44074500Y-64856018D01*
X44081199Y-64881018D01*
X44103498Y-64964241D01*
X44159513Y-65061260D01*
X44159515Y-65061263D01*
X44238737Y-65140485D01*
X44238739Y-65140486D01*
X44335759Y-65196501D01*
X44335757Y-65196501D01*
X44335761Y-65196502D01*
X44335763Y-65196503D01*
X44443982Y-65225500D01*
X44443984Y-65225500D01*
X44556016Y-65225500D01*
X44556018Y-65225500D01*
X44664237Y-65196503D01*
X44664239Y-65196501D01*
X44664241Y-65196501D01*
X44717960Y-65165486D01*
X44761263Y-65140485D01*
X44840485Y-65061263D01*
X44896503Y-64964237D01*
X44925500Y-64856018D01*
X44925500Y-64743982D01*
X44896503Y-64635763D01*
X44896501Y-64635760D01*
X44896501Y-64635758D01*
X44840486Y-64538739D01*
X44840485Y-64538737D01*
X44761263Y-64459515D01*
X44761260Y-64459513D01*
X44664240Y-64403498D01*
X44664242Y-64403498D01*
X44622251Y-64392247D01*
X44556018Y-64374500D01*
X44443982Y-64374500D01*
X44377748Y-64392247D01*
X44335758Y-64403498D01*
X44238739Y-64459513D01*
X44159513Y-64538739D01*
X44103498Y-64635758D01*
X44096798Y-64660763D01*
X44074500Y-64743982D01*
X41243801Y-64743982D01*
X41221503Y-64660763D01*
X41221501Y-64660760D01*
X41221501Y-64660758D01*
X41165486Y-64563739D01*
X41165485Y-64563737D01*
X41086263Y-64484515D01*
X41086260Y-64484513D01*
X40989240Y-64428498D01*
X40989242Y-64428498D01*
X40947251Y-64417247D01*
X40881018Y-64399500D01*
X40768982Y-64399500D01*
X40702748Y-64417247D01*
X40660758Y-64428498D01*
X40563739Y-64484513D01*
X40484513Y-64563739D01*
X40428498Y-64660758D01*
X40428497Y-64660763D01*
X40399500Y-64768982D01*
X39029419Y-64768982D01*
X38829707Y-64382400D01*
X38827315Y-64377436D01*
X38545480Y-63747596D01*
X38543365Y-63742489D01*
X38297308Y-63097886D01*
X38295474Y-63092645D01*
X38085948Y-62435264D01*
X38084411Y-62429928D01*
X37912076Y-61761843D01*
X37910840Y-61756429D01*
X37776233Y-61079714D01*
X37775303Y-61074239D01*
X37772730Y-61056016D01*
X37678849Y-60391026D01*
X37678234Y-60385575D01*
X37620237Y-59697976D01*
X37619929Y-59692494D01*
X37602811Y-59082356D01*
X37600985Y-59017276D01*
X37874500Y-59017276D01*
X37874500Y-59129312D01*
X37900072Y-59224749D01*
X37903498Y-59237535D01*
X37946122Y-59311360D01*
X37959515Y-59334557D01*
X38038737Y-59413779D01*
X38038739Y-59413780D01*
X38135759Y-59469795D01*
X38135757Y-59469795D01*
X38135761Y-59469796D01*
X38135763Y-59469797D01*
X38243982Y-59498794D01*
X38243984Y-59498794D01*
X38356016Y-59498794D01*
X38356018Y-59498794D01*
X38464237Y-59469797D01*
X38464239Y-59469795D01*
X38464241Y-59469795D01*
X38564244Y-59412058D01*
X38613744Y-59398794D01*
X38900500Y-59398794D01*
X38958691Y-59417701D01*
X38994655Y-59467201D01*
X38999500Y-59497794D01*
X38999500Y-59819746D01*
X38999501Y-59819758D01*
X39011132Y-59878227D01*
X39011133Y-59878231D01*
X39055448Y-59944552D01*
X39055451Y-59944554D01*
X39090068Y-59967685D01*
X39127947Y-60015736D01*
X39130349Y-60076874D01*
X39096355Y-60127747D01*
X39090068Y-60132315D01*
X39055451Y-60155445D01*
X39055445Y-60155451D01*
X39011134Y-60221766D01*
X39011132Y-60221772D01*
X38999501Y-60280241D01*
X38999500Y-60280253D01*
X38999500Y-61819746D01*
X38999501Y-61819758D01*
X39011132Y-61878227D01*
X39011133Y-61878231D01*
X39055448Y-61944552D01*
X39055451Y-61944554D01*
X39090068Y-61967685D01*
X39127947Y-62015736D01*
X39130349Y-62076874D01*
X39096355Y-62127747D01*
X39090068Y-62132315D01*
X39055451Y-62155445D01*
X39055445Y-62155451D01*
X39011134Y-62221766D01*
X39011132Y-62221772D01*
X38999501Y-62280241D01*
X38999500Y-62280253D01*
X38999500Y-63819746D01*
X38999501Y-63819758D01*
X39011132Y-63878227D01*
X39011133Y-63878231D01*
X39055448Y-63944552D01*
X39121769Y-63988867D01*
X39166231Y-63997711D01*
X39180241Y-64000498D01*
X39180246Y-64000498D01*
X39180252Y-64000500D01*
X39180253Y-64000500D01*
X44719747Y-64000500D01*
X44719748Y-64000500D01*
X44778231Y-63988867D01*
X44844552Y-63944552D01*
X44888867Y-63878231D01*
X44900500Y-63819748D01*
X44900500Y-63200834D01*
X44919407Y-63142643D01*
X44929490Y-63130836D01*
X47060465Y-60999862D01*
X47103318Y-60925639D01*
X47125500Y-60842853D01*
X47125500Y-60824834D01*
X47144407Y-60766643D01*
X47193907Y-60730679D01*
X47255093Y-60730679D01*
X47294501Y-60754828D01*
X47800138Y-61260465D01*
X47800140Y-61260466D01*
X47800142Y-61260468D01*
X47874357Y-61303316D01*
X47874355Y-61303316D01*
X47874359Y-61303317D01*
X47874361Y-61303318D01*
X47957147Y-61325500D01*
X48042853Y-61325500D01*
X48686256Y-61325500D01*
X48735756Y-61338764D01*
X48835759Y-61396501D01*
X48835757Y-61396501D01*
X48835761Y-61396502D01*
X48835763Y-61396503D01*
X48943982Y-61425500D01*
X48943984Y-61425500D01*
X49056016Y-61425500D01*
X49056018Y-61425500D01*
X49164237Y-61396503D01*
X49164239Y-61396501D01*
X49164241Y-61396501D01*
X49195736Y-61378317D01*
X49261263Y-61340485D01*
X49340485Y-61261263D01*
X49369198Y-61211531D01*
X58449500Y-61211531D01*
X58449500Y-61418466D01*
X58489869Y-61621417D01*
X58569058Y-61812596D01*
X58684020Y-61984650D01*
X58684023Y-61984654D01*
X58830345Y-62130976D01*
X59002402Y-62245940D01*
X59193580Y-62325129D01*
X59396535Y-62365499D01*
X59396536Y-62365499D01*
X59603464Y-62365499D01*
X59603465Y-62365499D01*
X59806420Y-62325129D01*
X59997598Y-62245940D01*
X60169655Y-62130976D01*
X60315977Y-61984654D01*
X60430941Y-61812597D01*
X60510130Y-61621419D01*
X60550500Y-61418464D01*
X60550500Y-61211534D01*
X60510130Y-61008579D01*
X60430941Y-60817401D01*
X60315977Y-60645344D01*
X60169655Y-60499022D01*
X60169184Y-60498707D01*
X59997597Y-60384057D01*
X59806418Y-60304868D01*
X59603467Y-60264499D01*
X59603465Y-60264499D01*
X59396535Y-60264499D01*
X59396532Y-60264499D01*
X59193581Y-60304868D01*
X59002402Y-60384057D01*
X58830348Y-60499019D01*
X58684020Y-60645347D01*
X58569058Y-60817401D01*
X58489869Y-61008580D01*
X58449500Y-61211531D01*
X49369198Y-61211531D01*
X49396503Y-61164237D01*
X49425500Y-61056018D01*
X49425500Y-60943982D01*
X49396503Y-60835763D01*
X49396501Y-60835760D01*
X49396501Y-60835758D01*
X49340486Y-60738739D01*
X49340485Y-60738737D01*
X49261263Y-60659515D01*
X49254470Y-60655593D01*
X49164240Y-60603498D01*
X49164242Y-60603498D01*
X49122251Y-60592247D01*
X49056018Y-60574500D01*
X48943982Y-60574500D01*
X48877748Y-60592247D01*
X48835758Y-60603498D01*
X48735756Y-60661236D01*
X48686256Y-60674500D01*
X48175835Y-60674500D01*
X48117644Y-60655593D01*
X48105831Y-60645504D01*
X47754496Y-60294169D01*
X47726719Y-60239652D01*
X47725500Y-60224165D01*
X47725500Y-55857148D01*
X47725500Y-55857147D01*
X47710151Y-55799862D01*
X47710151Y-55799861D01*
X47710151Y-55799860D01*
X47703317Y-55774359D01*
X47703316Y-55774357D01*
X47660468Y-55700142D01*
X47660466Y-55700140D01*
X47660465Y-55700138D01*
X47552010Y-55591683D01*
X47526389Y-55547304D01*
X47525500Y-55543986D01*
X47525500Y-55543982D01*
X47496503Y-55435763D01*
X47440485Y-55338737D01*
X47361263Y-55259515D01*
X47361260Y-55259513D01*
X47264240Y-55203498D01*
X47264242Y-55203498D01*
X47193335Y-55184499D01*
X47156018Y-55174500D01*
X47156017Y-55174500D01*
X47152695Y-55173610D01*
X47108314Y-55147987D01*
X47054496Y-55094169D01*
X47026719Y-55039652D01*
X47025500Y-55024165D01*
X47025500Y-53075834D01*
X47044407Y-53017643D01*
X47054496Y-53005830D01*
X47616344Y-52443982D01*
X48574500Y-52443982D01*
X48574500Y-52556018D01*
X48587222Y-52603497D01*
X48603498Y-52664241D01*
X48650653Y-52745914D01*
X48659515Y-52761263D01*
X48738737Y-52840485D01*
X48738739Y-52840486D01*
X48835759Y-52896501D01*
X48835757Y-52896501D01*
X48835761Y-52896502D01*
X48835763Y-52896503D01*
X48943982Y-52925500D01*
X48943984Y-52925500D01*
X49056016Y-52925500D01*
X49056018Y-52925500D01*
X49164237Y-52896503D01*
X49164239Y-52896501D01*
X49164241Y-52896501D01*
X49194520Y-52879019D01*
X49261263Y-52840485D01*
X49340485Y-52761263D01*
X49396503Y-52664237D01*
X49425500Y-52556018D01*
X49425500Y-52443982D01*
X49396503Y-52335763D01*
X49396501Y-52335760D01*
X49396501Y-52335758D01*
X49340486Y-52238739D01*
X49340485Y-52238737D01*
X49261263Y-52159515D01*
X49261260Y-52159513D01*
X49164240Y-52103498D01*
X49164242Y-52103498D01*
X49122251Y-52092247D01*
X49056018Y-52074500D01*
X48943982Y-52074500D01*
X48877748Y-52092247D01*
X48835758Y-52103498D01*
X48738739Y-52159513D01*
X48659513Y-52238739D01*
X48603498Y-52335758D01*
X48603497Y-52335763D01*
X48574500Y-52443982D01*
X47616344Y-52443982D01*
X48405830Y-51654496D01*
X48460347Y-51626719D01*
X48475834Y-51625500D01*
X51224165Y-51625500D01*
X51282356Y-51644407D01*
X51294168Y-51654496D01*
X51500137Y-51860464D01*
X51500142Y-51860468D01*
X51574357Y-51903316D01*
X51574355Y-51903316D01*
X51574359Y-51903317D01*
X51574361Y-51903318D01*
X51657147Y-51925500D01*
X52986256Y-51925500D01*
X53035756Y-51938764D01*
X53135759Y-51996501D01*
X53135757Y-51996501D01*
X53135761Y-51996502D01*
X53135763Y-51996503D01*
X53243982Y-52025500D01*
X53243984Y-52025500D01*
X53356016Y-52025500D01*
X53356018Y-52025500D01*
X53464237Y-51996503D01*
X53464239Y-51996501D01*
X53464241Y-51996501D01*
X53493064Y-51979859D01*
X53561263Y-51940485D01*
X53640485Y-51861263D01*
X53696503Y-51764237D01*
X53725500Y-51656018D01*
X53725500Y-51543982D01*
X53696503Y-51435763D01*
X53696501Y-51435760D01*
X53696501Y-51435758D01*
X53640486Y-51338739D01*
X53640485Y-51338737D01*
X53561263Y-51259515D01*
X53554789Y-51255777D01*
X53464240Y-51203498D01*
X53464242Y-51203498D01*
X53422251Y-51192247D01*
X53356018Y-51174500D01*
X53243982Y-51174500D01*
X53177748Y-51192247D01*
X53135758Y-51203498D01*
X53035756Y-51261236D01*
X52986256Y-51274500D01*
X51875835Y-51274500D01*
X51817644Y-51255593D01*
X51805832Y-51245504D01*
X51599862Y-51039535D01*
X51599857Y-51039531D01*
X51525642Y-50996683D01*
X51525644Y-50996683D01*
X51493521Y-50988076D01*
X51442853Y-50974500D01*
X51442851Y-50974500D01*
X48623226Y-50974500D01*
X48565035Y-50955593D01*
X48529071Y-50906093D01*
X48529071Y-50850166D01*
X48527638Y-50849783D01*
X48529317Y-50843516D01*
X48529318Y-50843515D01*
X48551500Y-50760730D01*
X48551500Y-49439270D01*
X48541112Y-49400500D01*
X48540941Y-49399860D01*
X48540941Y-49399859D01*
X48529318Y-49356484D01*
X48529316Y-49356480D01*
X48486468Y-49282265D01*
X48486466Y-49282263D01*
X48486465Y-49282261D01*
X47843739Y-48639535D01*
X47843736Y-48639533D01*
X47843734Y-48639531D01*
X47769519Y-48596683D01*
X47769521Y-48596683D01*
X47737398Y-48588076D01*
X47686730Y-48574500D01*
X47686728Y-48574500D01*
X47513744Y-48574500D01*
X47464244Y-48561236D01*
X47364240Y-48503498D01*
X47364242Y-48503498D01*
X47322251Y-48492247D01*
X47256018Y-48474500D01*
X47143982Y-48474500D01*
X47077748Y-48492247D01*
X47035758Y-48503498D01*
X46938739Y-48559513D01*
X46859513Y-48638739D01*
X46803498Y-48735758D01*
X46793566Y-48772827D01*
X46774500Y-48843982D01*
X46774500Y-48956018D01*
X46789461Y-49011853D01*
X46803498Y-49064241D01*
X46856501Y-49156043D01*
X46859515Y-49161263D01*
X46938737Y-49240485D01*
X47035763Y-49296503D01*
X47035767Y-49296504D01*
X47037745Y-49297646D01*
X47078686Y-49343116D01*
X47085082Y-49403966D01*
X47083872Y-49409004D01*
X47074500Y-49443982D01*
X47074500Y-49556018D01*
X47103497Y-49664237D01*
X47148990Y-49743033D01*
X47161712Y-49802880D01*
X47136826Y-49858776D01*
X47133258Y-49862537D01*
X45138532Y-51857264D01*
X45138531Y-51857265D01*
X45095682Y-51931483D01*
X45095681Y-51931483D01*
X45095682Y-51931484D01*
X45073500Y-52014270D01*
X45073500Y-56171732D01*
X45054593Y-56229923D01*
X45005093Y-56265887D01*
X44943907Y-56265887D01*
X44894407Y-56229923D01*
X44892185Y-56226734D01*
X44844554Y-56155451D01*
X44844552Y-56155448D01*
X44844548Y-56155445D01*
X44778233Y-56111134D01*
X44778231Y-56111133D01*
X44778228Y-56111132D01*
X44778227Y-56111132D01*
X44719758Y-56099501D01*
X44719748Y-56099500D01*
X39180252Y-56099500D01*
X39180251Y-56099500D01*
X39180241Y-56099501D01*
X39121772Y-56111132D01*
X39121766Y-56111134D01*
X39055451Y-56155445D01*
X39055445Y-56155451D01*
X39011134Y-56221766D01*
X39011132Y-56221772D01*
X38999501Y-56280241D01*
X38999500Y-56280253D01*
X38999500Y-57819746D01*
X38999501Y-57819758D01*
X39011132Y-57878227D01*
X39011133Y-57878231D01*
X39055448Y-57944552D01*
X39055451Y-57944554D01*
X39090068Y-57967685D01*
X39127947Y-58015736D01*
X39130349Y-58076874D01*
X39096355Y-58127747D01*
X39090068Y-58132315D01*
X39055451Y-58155445D01*
X39055445Y-58155451D01*
X39011134Y-58221766D01*
X39011132Y-58221772D01*
X38999501Y-58280241D01*
X38999500Y-58280253D01*
X38999500Y-58648794D01*
X38980593Y-58706985D01*
X38931093Y-58742949D01*
X38900500Y-58747794D01*
X38613744Y-58747794D01*
X38564244Y-58734530D01*
X38464240Y-58676792D01*
X38464242Y-58676792D01*
X38422251Y-58665541D01*
X38356018Y-58647794D01*
X38243982Y-58647794D01*
X38177748Y-58665541D01*
X38135758Y-58676792D01*
X38038739Y-58732807D01*
X37959513Y-58812033D01*
X37903498Y-58909052D01*
X37903497Y-58909057D01*
X37874500Y-59017276D01*
X37600985Y-59017276D01*
X37600881Y-59013567D01*
X37600539Y-59001393D01*
X37600500Y-58998613D01*
X37600500Y-54243982D01*
X39874500Y-54243982D01*
X39874500Y-54356018D01*
X39876813Y-54364650D01*
X39903498Y-54464241D01*
X39955608Y-54554496D01*
X39959515Y-54561263D01*
X40038737Y-54640485D01*
X40038739Y-54640486D01*
X40135759Y-54696501D01*
X40135757Y-54696501D01*
X40135761Y-54696502D01*
X40135763Y-54696503D01*
X40243982Y-54725500D01*
X40243984Y-54725500D01*
X40356016Y-54725500D01*
X40356018Y-54725500D01*
X40464237Y-54696503D01*
X40464239Y-54696501D01*
X40464241Y-54696501D01*
X40493064Y-54679859D01*
X40561263Y-54640485D01*
X40640485Y-54561263D01*
X40696503Y-54464237D01*
X40725500Y-54356018D01*
X40725500Y-54356013D01*
X40726389Y-54352696D01*
X40752010Y-54308316D01*
X47438611Y-47621714D01*
X47493126Y-47593939D01*
X47534236Y-47596093D01*
X47535760Y-47596501D01*
X47535763Y-47596503D01*
X47643982Y-47625500D01*
X47643984Y-47625500D01*
X47756016Y-47625500D01*
X47756018Y-47625500D01*
X47864237Y-47596503D01*
X47864239Y-47596501D01*
X47864241Y-47596501D01*
X47907121Y-47571744D01*
X47961263Y-47540485D01*
X48040485Y-47461263D01*
X48092100Y-47371863D01*
X48096501Y-47364241D01*
X48096501Y-47364239D01*
X48096503Y-47364237D01*
X48125500Y-47256018D01*
X48125500Y-47143982D01*
X48096503Y-47035763D01*
X48096502Y-47035761D01*
X48094823Y-47029495D01*
X48096517Y-47029041D01*
X48092374Y-46976382D01*
X48124345Y-46924214D01*
X48180874Y-46900802D01*
X48188638Y-46900497D01*
X49095863Y-46900497D01*
X49154054Y-46919404D01*
X49165867Y-46929493D01*
X52964236Y-50727862D01*
X52964235Y-50727862D01*
X52997102Y-50760728D01*
X53024839Y-50788465D01*
X53099063Y-50831318D01*
X53181848Y-50853500D01*
X55052165Y-50853500D01*
X55110356Y-50872407D01*
X55122169Y-50882496D01*
X55445504Y-51205831D01*
X55473281Y-51260348D01*
X55474500Y-51275835D01*
X55474500Y-52424165D01*
X55472031Y-52431762D01*
X55473281Y-52439653D01*
X55462757Y-52460306D01*
X55455593Y-52482356D01*
X55445503Y-52494169D01*
X55391684Y-52547987D01*
X55347304Y-52573610D01*
X55235758Y-52603498D01*
X55138739Y-52659513D01*
X55059513Y-52738739D01*
X55003498Y-52835758D01*
X55002231Y-52840486D01*
X54974500Y-52943982D01*
X54974500Y-53056018D01*
X54979810Y-53075834D01*
X55003498Y-53164241D01*
X55059513Y-53261260D01*
X55059515Y-53261263D01*
X55138737Y-53340485D01*
X55138739Y-53340486D01*
X55235759Y-53396501D01*
X55235757Y-53396501D01*
X55235761Y-53396502D01*
X55235763Y-53396503D01*
X55343982Y-53425500D01*
X55343984Y-53425500D01*
X55456016Y-53425500D01*
X55456018Y-53425500D01*
X55564237Y-53396503D01*
X55564239Y-53396501D01*
X55564241Y-53396501D01*
X55593064Y-53379859D01*
X55661263Y-53340485D01*
X55740485Y-53261263D01*
X55796503Y-53164237D01*
X55825500Y-53056018D01*
X55825500Y-53056012D01*
X55826389Y-53052695D01*
X55852011Y-53008315D01*
X56060465Y-52799862D01*
X56091612Y-52745913D01*
X56103318Y-52725638D01*
X56125500Y-52642853D01*
X56125500Y-51057147D01*
X56107012Y-50988149D01*
X56103318Y-50974361D01*
X56060465Y-50900138D01*
X55921055Y-50760728D01*
X55761206Y-50600878D01*
X55733429Y-50546362D01*
X55743000Y-50485930D01*
X55786265Y-50442665D01*
X55805585Y-50435249D01*
X55823990Y-50430318D01*
X55898213Y-50387465D01*
X56386465Y-49899213D01*
X56407640Y-49862537D01*
X56429316Y-49824994D01*
X56429316Y-49824992D01*
X56429318Y-49824990D01*
X56451500Y-49742204D01*
X56451500Y-49656498D01*
X56451500Y-48772840D01*
X56451501Y-48772827D01*
X56451501Y-48679146D01*
X56451500Y-48679144D01*
X56429320Y-48596368D01*
X56429319Y-48596367D01*
X56429318Y-48596361D01*
X56409038Y-48561236D01*
X56397612Y-48541445D01*
X56397610Y-48541443D01*
X56386465Y-48522138D01*
X56325862Y-48461535D01*
X56325859Y-48461533D01*
X55699862Y-47835535D01*
X55699859Y-47835533D01*
X55699857Y-47835531D01*
X55647384Y-47805236D01*
X55606443Y-47759767D01*
X55600047Y-47698917D01*
X55630640Y-47645929D01*
X55686536Y-47621042D01*
X55696884Y-47620500D01*
X56615688Y-47620500D01*
X56615693Y-47620500D01*
X56652568Y-47617598D01*
X56810397Y-47571744D01*
X56951864Y-47488081D01*
X57068080Y-47371865D01*
X57151743Y-47230398D01*
X57197597Y-47072569D01*
X57200499Y-47035694D01*
X57200499Y-46624500D01*
X57219406Y-46566309D01*
X57268906Y-46530345D01*
X57299499Y-46525500D01*
X57419181Y-46525500D01*
X57419183Y-46525500D01*
X57552836Y-46489688D01*
X57672665Y-46420505D01*
X57770505Y-46322665D01*
X57839688Y-46202836D01*
X57875500Y-46069183D01*
X57875500Y-45930817D01*
X57839688Y-45797164D01*
X57770505Y-45677335D01*
X57672665Y-45579495D01*
X57552836Y-45510312D01*
X57419183Y-45474500D01*
X57306701Y-45474500D01*
X57248510Y-45455593D01*
X57212546Y-45406093D01*
X57212546Y-45344907D01*
X57248510Y-45295407D01*
X57251699Y-45293185D01*
X57294551Y-45264552D01*
X57338866Y-45198231D01*
X57350499Y-45139748D01*
X57350499Y-44800252D01*
X57350498Y-44800250D01*
X57350498Y-44800243D01*
X57342396Y-44759515D01*
X57338866Y-44741769D01*
X57338865Y-44741768D01*
X57338378Y-44739318D01*
X57338378Y-44700686D01*
X57338866Y-44698232D01*
X57338867Y-44698231D01*
X57350500Y-44639748D01*
X57350500Y-44394500D01*
X57369407Y-44336309D01*
X57418907Y-44300345D01*
X57449500Y-44295500D01*
X58005500Y-44295500D01*
X58063691Y-44314407D01*
X58099655Y-44363907D01*
X58104500Y-44394500D01*
X58104500Y-47094165D01*
X58085593Y-47152356D01*
X58075504Y-47164169D01*
X56839531Y-48400142D01*
X56796683Y-48474357D01*
X56796681Y-48474361D01*
X56783879Y-48522136D01*
X56783880Y-48522137D01*
X56774500Y-48557144D01*
X56774500Y-52686255D01*
X56761236Y-52735755D01*
X56703498Y-52835758D01*
X56673610Y-52947304D01*
X56647987Y-52991685D01*
X55794169Y-53845504D01*
X55739652Y-53873281D01*
X55724165Y-53874500D01*
X49442853Y-53874500D01*
X49357147Y-53874500D01*
X49284136Y-53894062D01*
X49274357Y-53896683D01*
X49237250Y-53918108D01*
X49213721Y-53931692D01*
X49200137Y-53939535D01*
X49139534Y-54000137D01*
X49139535Y-54000138D01*
X48639531Y-54500142D01*
X48596683Y-54574356D01*
X48596682Y-54574361D01*
X48578965Y-54640485D01*
X48574500Y-54657148D01*
X48574500Y-59486255D01*
X48561236Y-59535755D01*
X48503498Y-59635758D01*
X48503497Y-59635763D01*
X48474500Y-59743982D01*
X48474500Y-59856018D01*
X48498221Y-59944548D01*
X48503498Y-59964241D01*
X48545533Y-60037046D01*
X48559515Y-60061263D01*
X48638737Y-60140485D01*
X48664654Y-60155448D01*
X48735759Y-60196501D01*
X48735757Y-60196501D01*
X48735761Y-60196502D01*
X48735763Y-60196503D01*
X48843982Y-60225500D01*
X48843984Y-60225500D01*
X48956016Y-60225500D01*
X48956018Y-60225500D01*
X49064237Y-60196503D01*
X49064239Y-60196501D01*
X49064241Y-60196501D01*
X49093064Y-60179859D01*
X49161263Y-60140485D01*
X49240485Y-60061263D01*
X49293276Y-59969827D01*
X49296501Y-59964241D01*
X49296501Y-59964239D01*
X49296503Y-59964237D01*
X49325500Y-59856018D01*
X49325500Y-59743982D01*
X49296503Y-59635763D01*
X49296501Y-59635760D01*
X49296501Y-59635758D01*
X49238764Y-59535755D01*
X49225500Y-59486255D01*
X49225500Y-58671532D01*
X58449500Y-58671532D01*
X58449500Y-58878467D01*
X58489869Y-59081418D01*
X58569058Y-59272597D01*
X58663392Y-59413779D01*
X58684023Y-59444655D01*
X58830345Y-59590977D01*
X59002402Y-59705941D01*
X59193580Y-59785130D01*
X59396535Y-59825500D01*
X59396536Y-59825500D01*
X59603464Y-59825500D01*
X59603465Y-59825500D01*
X59806420Y-59785130D01*
X59997598Y-59705941D01*
X60169655Y-59590977D01*
X60315977Y-59444655D01*
X60430941Y-59272598D01*
X60510130Y-59081420D01*
X60550500Y-58878465D01*
X60550500Y-58671535D01*
X60510130Y-58468580D01*
X60430941Y-58277402D01*
X60315977Y-58105345D01*
X60169655Y-57959023D01*
X60169651Y-57959020D01*
X59997597Y-57844058D01*
X59806418Y-57764869D01*
X59603467Y-57724500D01*
X59603465Y-57724500D01*
X59396535Y-57724500D01*
X59396532Y-57724500D01*
X59193581Y-57764869D01*
X59002402Y-57844058D01*
X58830348Y-57959020D01*
X58684020Y-58105348D01*
X58569058Y-58277402D01*
X58489869Y-58468581D01*
X58449500Y-58671532D01*
X49225500Y-58671532D01*
X49225500Y-56131531D01*
X58449500Y-56131531D01*
X58449500Y-56338466D01*
X58489869Y-56541417D01*
X58569058Y-56732596D01*
X58569059Y-56732597D01*
X58684023Y-56904654D01*
X58830345Y-57050976D01*
X59002402Y-57165940D01*
X59193580Y-57245129D01*
X59396535Y-57285499D01*
X59396536Y-57285499D01*
X59603464Y-57285499D01*
X59603465Y-57285499D01*
X59806420Y-57245129D01*
X59997598Y-57165940D01*
X60169655Y-57050976D01*
X60315977Y-56904654D01*
X60430941Y-56732597D01*
X60510130Y-56541419D01*
X60550500Y-56338464D01*
X60550500Y-56131534D01*
X60510130Y-55928579D01*
X60430941Y-55737401D01*
X60315977Y-55565344D01*
X60169655Y-55419022D01*
X60169651Y-55419019D01*
X59997597Y-55304057D01*
X59806418Y-55224868D01*
X59603467Y-55184499D01*
X59603465Y-55184499D01*
X59396535Y-55184499D01*
X59396532Y-55184499D01*
X59193581Y-55224868D01*
X59002402Y-55304057D01*
X58830348Y-55419019D01*
X58684020Y-55565347D01*
X58569058Y-55737401D01*
X58489869Y-55928580D01*
X58449500Y-56131531D01*
X49225500Y-56131531D01*
X49225500Y-54875834D01*
X49244407Y-54817643D01*
X49254496Y-54805830D01*
X49505830Y-54554496D01*
X49560347Y-54526719D01*
X49575834Y-54525500D01*
X55942851Y-54525500D01*
X55942853Y-54525500D01*
X56025639Y-54503318D01*
X56025641Y-54503316D01*
X56025643Y-54503316D01*
X56099857Y-54460468D01*
X56099857Y-54460467D01*
X56099862Y-54460465D01*
X56968795Y-53591531D01*
X58449500Y-53591531D01*
X58449500Y-53798466D01*
X58489869Y-54001417D01*
X58569058Y-54192596D01*
X58684020Y-54364650D01*
X58684023Y-54364654D01*
X58830345Y-54510976D01*
X59002402Y-54625940D01*
X59193580Y-54705129D01*
X59396535Y-54745499D01*
X59396536Y-54745499D01*
X59603464Y-54745499D01*
X59603465Y-54745499D01*
X59806420Y-54705129D01*
X59997598Y-54625940D01*
X60169655Y-54510976D01*
X60315977Y-54364654D01*
X60430941Y-54192597D01*
X60510130Y-54001419D01*
X60550500Y-53798464D01*
X60550500Y-53591534D01*
X60510130Y-53388579D01*
X60430941Y-53197401D01*
X60315977Y-53025344D01*
X60169655Y-52879022D01*
X60169651Y-52879019D01*
X59997597Y-52764057D01*
X59806418Y-52684868D01*
X59603467Y-52644499D01*
X59603465Y-52644499D01*
X59396535Y-52644499D01*
X59396532Y-52644499D01*
X59193581Y-52684868D01*
X59002402Y-52764057D01*
X58830348Y-52879019D01*
X58684020Y-53025347D01*
X58569058Y-53197401D01*
X58489869Y-53388580D01*
X58449500Y-53591531D01*
X56968795Y-53591531D01*
X57108316Y-53452010D01*
X57152696Y-53426389D01*
X57156014Y-53425500D01*
X57156018Y-53425500D01*
X57264237Y-53396503D01*
X57361263Y-53340485D01*
X57440485Y-53261263D01*
X57496503Y-53164237D01*
X57525500Y-53056018D01*
X57525500Y-52943982D01*
X57496503Y-52835763D01*
X57496501Y-52835760D01*
X57496501Y-52835758D01*
X57438764Y-52735755D01*
X57425500Y-52686255D01*
X57425500Y-49875434D01*
X58099500Y-49875434D01*
X58099500Y-50124567D01*
X58132017Y-50371558D01*
X58132017Y-50371563D01*
X58196496Y-50612200D01*
X58196500Y-50612213D01*
X58291832Y-50842366D01*
X58291834Y-50842370D01*
X58291836Y-50842374D01*
X58415835Y-51057147D01*
X58416403Y-51058131D01*
X58568056Y-51255770D01*
X58568058Y-51255772D01*
X58568062Y-51255777D01*
X58744224Y-51431939D01*
X58744228Y-51431942D01*
X58744230Y-51431944D01*
X58890243Y-51543983D01*
X58941873Y-51583600D01*
X59157627Y-51708165D01*
X59387793Y-51803503D01*
X59628435Y-51867983D01*
X59875435Y-51900501D01*
X59875436Y-51900501D01*
X60124564Y-51900501D01*
X60124565Y-51900501D01*
X60371565Y-51867983D01*
X60612207Y-51803503D01*
X60842373Y-51708165D01*
X61058127Y-51583600D01*
X61255776Y-51431939D01*
X61431938Y-51255777D01*
X61583599Y-51058128D01*
X61708164Y-50842374D01*
X61803502Y-50612208D01*
X61867982Y-50371566D01*
X61900500Y-50124566D01*
X61900500Y-49875436D01*
X61867982Y-49628436D01*
X61803502Y-49387794D01*
X61709670Y-49161263D01*
X61708167Y-49157635D01*
X61708166Y-49157634D01*
X61708164Y-49157628D01*
X61583599Y-48941874D01*
X61508484Y-48843982D01*
X61431943Y-48744231D01*
X61431941Y-48744229D01*
X61431938Y-48744225D01*
X61255776Y-48568063D01*
X61255771Y-48568059D01*
X61255769Y-48568057D01*
X61058130Y-48416404D01*
X61036462Y-48403894D01*
X60842373Y-48291837D01*
X60842369Y-48291835D01*
X60842365Y-48291833D01*
X60612212Y-48196501D01*
X60612211Y-48196500D01*
X60612207Y-48196499D01*
X60371565Y-48132019D01*
X60371562Y-48132018D01*
X60371560Y-48132018D01*
X60124566Y-48099501D01*
X60124565Y-48099501D01*
X59875435Y-48099501D01*
X59875433Y-48099501D01*
X59628442Y-48132018D01*
X59628437Y-48132018D01*
X59387800Y-48196497D01*
X59387787Y-48196501D01*
X59157634Y-48291833D01*
X58941869Y-48416404D01*
X58744230Y-48568057D01*
X58568056Y-48744231D01*
X58416403Y-48941870D01*
X58291832Y-49157635D01*
X58196500Y-49387788D01*
X58196496Y-49387801D01*
X58132017Y-49628438D01*
X58132017Y-49628443D01*
X58099500Y-49875434D01*
X57425500Y-49875434D01*
X57425500Y-48775834D01*
X57444407Y-48717643D01*
X57454490Y-48705836D01*
X58690465Y-47469862D01*
X58695430Y-47461263D01*
X58733316Y-47395643D01*
X58733316Y-47395641D01*
X58733318Y-47395639D01*
X58755500Y-47312853D01*
X58755500Y-47227147D01*
X58755500Y-46780637D01*
X59199500Y-46780637D01*
X59199500Y-47059357D01*
X59199501Y-47059362D01*
X59214955Y-47176758D01*
X59214957Y-47176766D01*
X59275462Y-47322838D01*
X59275462Y-47322839D01*
X59364395Y-47438739D01*
X59371718Y-47448282D01*
X59497159Y-47544536D01*
X59643238Y-47605044D01*
X59760639Y-47620500D01*
X61339360Y-47620499D01*
X61456762Y-47605044D01*
X61602841Y-47544536D01*
X61728282Y-47448282D01*
X61824536Y-47322841D01*
X61885044Y-47176762D01*
X61900500Y-47059361D01*
X61900499Y-46780640D01*
X61885044Y-46663238D01*
X61868998Y-46624500D01*
X61824537Y-46517161D01*
X61824537Y-46517160D01*
X61728286Y-46391723D01*
X61728285Y-46391722D01*
X61728282Y-46391718D01*
X61728277Y-46391714D01*
X61728276Y-46391713D01*
X61627202Y-46314157D01*
X61602841Y-46295464D01*
X61602840Y-46295463D01*
X61602838Y-46295462D01*
X61456766Y-46234957D01*
X61456758Y-46234955D01*
X61339361Y-46219500D01*
X59760642Y-46219500D01*
X59760637Y-46219501D01*
X59643241Y-46234955D01*
X59643233Y-46234957D01*
X59497161Y-46295462D01*
X59497160Y-46295462D01*
X59371723Y-46391713D01*
X59371713Y-46391723D01*
X59275462Y-46517160D01*
X59275462Y-46517161D01*
X59214957Y-46663233D01*
X59214955Y-46663241D01*
X59199500Y-46780637D01*
X58755500Y-46780637D01*
X58755500Y-44145834D01*
X58774407Y-44087643D01*
X58784490Y-44075836D01*
X59186465Y-43673862D01*
X59196767Y-43656018D01*
X59229316Y-43599643D01*
X59229316Y-43599641D01*
X59229318Y-43599639D01*
X59251500Y-43516853D01*
X59251500Y-43431147D01*
X59251500Y-40841047D01*
X59229318Y-40758262D01*
X59186465Y-40684038D01*
X59186462Y-40684035D01*
X59125862Y-40623434D01*
X59125862Y-40623435D01*
X58754496Y-40252069D01*
X58726719Y-40197552D01*
X58725500Y-40182065D01*
X58725500Y-37657148D01*
X58725500Y-37657147D01*
X58708836Y-37594956D01*
X58703318Y-37574361D01*
X58660465Y-37500138D01*
X57649860Y-36489533D01*
X57622083Y-36435016D01*
X57631654Y-36374584D01*
X57639774Y-36361334D01*
X57640579Y-36360228D01*
X57744231Y-36156799D01*
X57814784Y-35939660D01*
X57817238Y-35924165D01*
X57850500Y-35714160D01*
X57850500Y-35485839D01*
X57814785Y-35260344D01*
X57807765Y-35238739D01*
X57744231Y-35043201D01*
X57640579Y-34839772D01*
X57597453Y-34780414D01*
X57578545Y-34722223D01*
X57597452Y-34664033D01*
X57646952Y-34628069D01*
X57651923Y-34626596D01*
X57656013Y-34625500D01*
X57656018Y-34625500D01*
X57764237Y-34596503D01*
X57861263Y-34540485D01*
X57940485Y-34461263D01*
X57996503Y-34364237D01*
X58025500Y-34256018D01*
X58025500Y-34240479D01*
X58027967Y-34232884D01*
X58026718Y-34224997D01*
X58037242Y-34204339D01*
X58044407Y-34182288D01*
X58054493Y-34170479D01*
X58064828Y-34160143D01*
X58119343Y-34132363D01*
X58179776Y-34141931D01*
X58204835Y-34160136D01*
X58257208Y-34212509D01*
X58257211Y-34212511D01*
X58257213Y-34212513D01*
X58337620Y-34270933D01*
X58337621Y-34270933D01*
X58337622Y-34270934D01*
X58463928Y-34311973D01*
X58463930Y-34311973D01*
X58596731Y-34311973D01*
X58596733Y-34311973D01*
X58723039Y-34270934D01*
X58803453Y-34212509D01*
X59212509Y-33803453D01*
X59270934Y-33723039D01*
X59311973Y-33596733D01*
X59311973Y-33463928D01*
X59270934Y-33337622D01*
X59251040Y-33310241D01*
X59212513Y-33257213D01*
X59212511Y-33257211D01*
X59212509Y-33257208D01*
X58856486Y-32901185D01*
X58856482Y-32901182D01*
X58856480Y-32901180D01*
X58776073Y-32842760D01*
X58733970Y-32829080D01*
X58649766Y-32801721D01*
X58516961Y-32801721D01*
X58474859Y-32815400D01*
X58390653Y-32842760D01*
X58310246Y-32901180D01*
X57901180Y-33310246D01*
X57842760Y-33390653D01*
X57801721Y-33516962D01*
X57801721Y-33532300D01*
X57782814Y-33590491D01*
X57772725Y-33602304D01*
X57629525Y-33745504D01*
X57575008Y-33773281D01*
X57559521Y-33774500D01*
X57543982Y-33774500D01*
X57477748Y-33792247D01*
X57435758Y-33803498D01*
X57338739Y-33859513D01*
X57259513Y-33938739D01*
X57203498Y-34035758D01*
X57203497Y-34035763D01*
X57175707Y-34139480D01*
X57174500Y-34143983D01*
X57174500Y-34205139D01*
X57155593Y-34263330D01*
X57106093Y-34299294D01*
X57044907Y-34299294D01*
X57030555Y-34293349D01*
X56956799Y-34255769D01*
X56739655Y-34185214D01*
X56514160Y-34149500D01*
X56514157Y-34149500D01*
X56285843Y-34149500D01*
X56285840Y-34149500D01*
X56060344Y-34185214D01*
X55843200Y-34255769D01*
X55639772Y-34359420D01*
X55639766Y-34359424D01*
X55455068Y-34493616D01*
X55293616Y-34655068D01*
X55159424Y-34839766D01*
X55159420Y-34839772D01*
X55055769Y-35043200D01*
X54985214Y-35260344D01*
X54949500Y-35485839D01*
X54949500Y-35714160D01*
X54985214Y-35939655D01*
X55055769Y-36156799D01*
X55159420Y-36360227D01*
X55159424Y-36360233D01*
X55293616Y-36544931D01*
X55293618Y-36544933D01*
X55293621Y-36544937D01*
X55455063Y-36706379D01*
X55455066Y-36706381D01*
X55455068Y-36706383D01*
X55639766Y-36840575D01*
X55639772Y-36840579D01*
X55843201Y-36944231D01*
X56060340Y-37014784D01*
X56060341Y-37014784D01*
X56060344Y-37014785D01*
X56285840Y-37050500D01*
X56285843Y-37050500D01*
X56514160Y-37050500D01*
X56739655Y-37014785D01*
X56739656Y-37014784D01*
X56739660Y-37014784D01*
X56956799Y-36944231D01*
X57043158Y-36900228D01*
X57103589Y-36890657D01*
X57158106Y-36918434D01*
X57158107Y-36918434D01*
X58045504Y-37805831D01*
X58073281Y-37860348D01*
X58074500Y-37875835D01*
X58074500Y-40182065D01*
X58055593Y-40240256D01*
X58045504Y-40252069D01*
X57505825Y-40791747D01*
X57493539Y-40798006D01*
X57484180Y-40808128D01*
X57466956Y-40811551D01*
X57451308Y-40819524D01*
X57437691Y-40817367D01*
X57424168Y-40820055D01*
X57408220Y-40812699D01*
X57390876Y-40809953D01*
X57381127Y-40800204D01*
X57368607Y-40794430D01*
X57360028Y-40779105D01*
X57347611Y-40766688D01*
X57338720Y-40741041D01*
X57338374Y-40739300D01*
X57338378Y-40700686D01*
X57338866Y-40698232D01*
X57338867Y-40698231D01*
X57346021Y-40662263D01*
X57350499Y-40639755D01*
X57350500Y-40639746D01*
X57350500Y-40300253D01*
X57350498Y-40300241D01*
X57344206Y-40268610D01*
X57338867Y-40241769D01*
X57294552Y-40175448D01*
X57294548Y-40175445D01*
X57228233Y-40131134D01*
X57228231Y-40131133D01*
X57228228Y-40131132D01*
X57228227Y-40131132D01*
X57169758Y-40119501D01*
X57169748Y-40119500D01*
X56280252Y-40119500D01*
X56280251Y-40119500D01*
X56280241Y-40119501D01*
X56221772Y-40131132D01*
X56221766Y-40131134D01*
X56155451Y-40175445D01*
X56155447Y-40175449D01*
X56131815Y-40210817D01*
X56083764Y-40248695D01*
X56022626Y-40251097D01*
X55971753Y-40217103D01*
X55950576Y-40159699D01*
X55950500Y-40155814D01*
X55950500Y-40050253D01*
X55950498Y-40050241D01*
X55947711Y-40036231D01*
X55938867Y-39991769D01*
X55894552Y-39925448D01*
X55866014Y-39906379D01*
X55828233Y-39881134D01*
X55828231Y-39881133D01*
X55828228Y-39881132D01*
X55828227Y-39881132D01*
X55769758Y-39869501D01*
X55769748Y-39869500D01*
X54880252Y-39869500D01*
X54880251Y-39869500D01*
X54880241Y-39869501D01*
X54821772Y-39881132D01*
X54821766Y-39881134D01*
X54755451Y-39925445D01*
X54755445Y-39925451D01*
X54711134Y-39991766D01*
X54711132Y-39991772D01*
X54699501Y-40050241D01*
X54699500Y-40050253D01*
X54699500Y-40389751D01*
X54711621Y-40450686D01*
X54711621Y-40489314D01*
X54699500Y-40550248D01*
X54699500Y-40889750D01*
X54711621Y-40950684D01*
X54711621Y-40989311D01*
X54699500Y-41050247D01*
X54699500Y-41389749D01*
X54711621Y-41450683D01*
X54711621Y-41489311D01*
X54699500Y-41550246D01*
X54699500Y-41795500D01*
X54680593Y-41853691D01*
X54631093Y-41889655D01*
X54600500Y-41894500D01*
X54262866Y-41894500D01*
X54177160Y-41894500D01*
X54126491Y-41908076D01*
X54094369Y-41916683D01*
X54020155Y-41959531D01*
X53539534Y-42440152D01*
X53496680Y-42514377D01*
X53487069Y-42550251D01*
X53474500Y-42597160D01*
X53474500Y-42855258D01*
X53461237Y-42904757D01*
X53439352Y-42942662D01*
X53437860Y-42948231D01*
X53410355Y-43050883D01*
X53410355Y-43162919D01*
X53426155Y-43221884D01*
X53439353Y-43271142D01*
X53495368Y-43368161D01*
X53495370Y-43368164D01*
X53574592Y-43447386D01*
X53574594Y-43447387D01*
X53671614Y-43503402D01*
X53671612Y-43503402D01*
X53671616Y-43503403D01*
X53671618Y-43503404D01*
X53777387Y-43531744D01*
X53828699Y-43565067D01*
X53850626Y-43622188D01*
X53837499Y-43676870D01*
X53803497Y-43735761D01*
X53791699Y-43779793D01*
X53774500Y-43843982D01*
X53774500Y-43956018D01*
X53798817Y-44046772D01*
X53803498Y-44064241D01*
X53859513Y-44161260D01*
X53859515Y-44161263D01*
X53938737Y-44240485D01*
X53965641Y-44256018D01*
X54035759Y-44296501D01*
X54035757Y-44296501D01*
X54035761Y-44296502D01*
X54035763Y-44296503D01*
X54143982Y-44325500D01*
X54143984Y-44325500D01*
X54256016Y-44325500D01*
X54256018Y-44325500D01*
X54364237Y-44296503D01*
X54364239Y-44296501D01*
X54364241Y-44296501D01*
X54393064Y-44279859D01*
X54461263Y-44240485D01*
X54530498Y-44171249D01*
X54585013Y-44143474D01*
X54645445Y-44153045D01*
X54688710Y-44196310D01*
X54699500Y-44241255D01*
X54699500Y-44389748D01*
X54711621Y-44450682D01*
X54711621Y-44489310D01*
X54699500Y-44550245D01*
X54699500Y-44889745D01*
X54699501Y-44889757D01*
X54711132Y-44948226D01*
X54711134Y-44948232D01*
X54727614Y-44972895D01*
X54755448Y-45014551D01*
X54821769Y-45058866D01*
X54866231Y-45067710D01*
X54880241Y-45070497D01*
X54880246Y-45070497D01*
X54880252Y-45070499D01*
X54880253Y-45070499D01*
X55769747Y-45070499D01*
X55769748Y-45070499D01*
X55828231Y-45058866D01*
X55894552Y-45014551D01*
X55918184Y-44979182D01*
X55966233Y-44941304D01*
X56027372Y-44938902D01*
X56078245Y-44972895D01*
X56099423Y-45030298D01*
X56099499Y-45034185D01*
X56099499Y-45139746D01*
X56099500Y-45139758D01*
X56111131Y-45198227D01*
X56111133Y-45198233D01*
X56155239Y-45264241D01*
X56155447Y-45264552D01*
X56221768Y-45308867D01*
X56266230Y-45317711D01*
X56280240Y-45320498D01*
X56280245Y-45320498D01*
X56280251Y-45320500D01*
X56280252Y-45320500D01*
X57107704Y-45320500D01*
X57165895Y-45339407D01*
X57201859Y-45388907D01*
X57201859Y-45450093D01*
X57165895Y-45499593D01*
X57152726Y-45506968D01*
X57152784Y-45507068D01*
X57147166Y-45510311D01*
X57147164Y-45510312D01*
X57036699Y-45574089D01*
X57027335Y-45579495D01*
X56929493Y-45677337D01*
X56926021Y-45683351D01*
X56880549Y-45724289D01*
X56819699Y-45730681D01*
X56812667Y-45728915D01*
X56652571Y-45682403D01*
X56652568Y-45682402D01*
X56652567Y-45682401D01*
X56652564Y-45682401D01*
X56629139Y-45680558D01*
X56615693Y-45679500D01*
X55384305Y-45679500D01*
X55371772Y-45680486D01*
X55347433Y-45682401D01*
X55347426Y-45682403D01*
X55189601Y-45728256D01*
X55048132Y-45811920D01*
X54934506Y-45925546D01*
X54879990Y-45953323D01*
X54819558Y-45943751D01*
X54778767Y-45905043D01*
X54761133Y-45874500D01*
X54740485Y-45838737D01*
X54661263Y-45759515D01*
X54661260Y-45759513D01*
X54564240Y-45703498D01*
X54564242Y-45703498D01*
X54522251Y-45692247D01*
X54456018Y-45674500D01*
X54343982Y-45674500D01*
X54277748Y-45692247D01*
X54235758Y-45703498D01*
X54138739Y-45759513D01*
X54059513Y-45838739D01*
X54003498Y-45935758D01*
X54001294Y-45943983D01*
X53974500Y-46043982D01*
X53974500Y-46156018D01*
X53995651Y-46234955D01*
X54003498Y-46264241D01*
X54054349Y-46352315D01*
X54059515Y-46361263D01*
X54129625Y-46431373D01*
X54157401Y-46485888D01*
X54147830Y-46546320D01*
X54129626Y-46571375D01*
X54076502Y-46624500D01*
X54062263Y-46638739D01*
X54006248Y-46735758D01*
X53995920Y-46774304D01*
X53977250Y-46843982D01*
X53977250Y-46956018D01*
X54002822Y-47051455D01*
X54006248Y-47064241D01*
X54062263Y-47161260D01*
X54062265Y-47161263D01*
X54088111Y-47187109D01*
X54115887Y-47241624D01*
X54106316Y-47302056D01*
X54067607Y-47342847D01*
X54038738Y-47359514D01*
X53959513Y-47438739D01*
X53903498Y-47535758D01*
X53902231Y-47540486D01*
X53874500Y-47643982D01*
X53874500Y-47756018D01*
X53881853Y-47783459D01*
X53903498Y-47864241D01*
X53959513Y-47961260D01*
X53959515Y-47961263D01*
X54038737Y-48040485D01*
X54068743Y-48057809D01*
X54124090Y-48089764D01*
X54165030Y-48135234D01*
X54171425Y-48196084D01*
X54140832Y-48249072D01*
X54084937Y-48273958D01*
X54074589Y-48274500D01*
X53875834Y-48274500D01*
X53817643Y-48255593D01*
X53805830Y-48245504D01*
X51905497Y-46345170D01*
X51877720Y-46290653D01*
X51876501Y-46275166D01*
X51876501Y-45943982D01*
X52874500Y-45943982D01*
X52874500Y-46056018D01*
X52882492Y-46085843D01*
X52903498Y-46164241D01*
X52959513Y-46261260D01*
X52959515Y-46261263D01*
X53038737Y-46340485D01*
X53038739Y-46340486D01*
X53135759Y-46396501D01*
X53135757Y-46396501D01*
X53135761Y-46396502D01*
X53135763Y-46396503D01*
X53243982Y-46425500D01*
X53243984Y-46425500D01*
X53356016Y-46425500D01*
X53356018Y-46425500D01*
X53464237Y-46396503D01*
X53464239Y-46396501D01*
X53464241Y-46396501D01*
X53502221Y-46374573D01*
X53561263Y-46340485D01*
X53640485Y-46261263D01*
X53696503Y-46164237D01*
X53725500Y-46056018D01*
X53725500Y-45943982D01*
X53696503Y-45835763D01*
X53696501Y-45835760D01*
X53696501Y-45835758D01*
X53640486Y-45738739D01*
X53640485Y-45738737D01*
X53595812Y-45694064D01*
X53568037Y-45639550D01*
X53577608Y-45579118D01*
X53620873Y-45535853D01*
X53652905Y-45525909D01*
X53656010Y-45525500D01*
X53656018Y-45525500D01*
X53764237Y-45496503D01*
X53764240Y-45496501D01*
X53764241Y-45496501D01*
X53826684Y-45460449D01*
X53861263Y-45440485D01*
X53940485Y-45361263D01*
X53996321Y-45264552D01*
X53996501Y-45264241D01*
X53996501Y-45264239D01*
X53996503Y-45264237D01*
X54025500Y-45156018D01*
X54025500Y-45043982D01*
X53996503Y-44935763D01*
X53996501Y-44935760D01*
X53996501Y-44935758D01*
X53940486Y-44838739D01*
X53940485Y-44838737D01*
X53861263Y-44759515D01*
X53843917Y-44749500D01*
X53764240Y-44703498D01*
X53764242Y-44703498D01*
X53722251Y-44692247D01*
X53656018Y-44674500D01*
X53543982Y-44674500D01*
X53477748Y-44692247D01*
X53435758Y-44703498D01*
X53338739Y-44759513D01*
X53259513Y-44838739D01*
X53203498Y-44935758D01*
X53191862Y-44979184D01*
X53174500Y-45043982D01*
X53174500Y-45156018D01*
X53196664Y-45238737D01*
X53203498Y-45264241D01*
X53259513Y-45361260D01*
X53259515Y-45361263D01*
X53304186Y-45405934D01*
X53331962Y-45460449D01*
X53322391Y-45520881D01*
X53279126Y-45564146D01*
X53247105Y-45574089D01*
X53243984Y-45574499D01*
X53135758Y-45603498D01*
X53038739Y-45659513D01*
X52959513Y-45738739D01*
X52903498Y-45835758D01*
X52887286Y-45896263D01*
X52874500Y-45943982D01*
X51876501Y-45943982D01*
X51876501Y-44262514D01*
X51895408Y-44204323D01*
X51944908Y-44168359D01*
X52006094Y-44168359D01*
X52055594Y-44204323D01*
X52073654Y-44249591D01*
X52074499Y-44256015D01*
X52103498Y-44364241D01*
X52151991Y-44448231D01*
X52159515Y-44461263D01*
X52238737Y-44540485D01*
X52238739Y-44540486D01*
X52335759Y-44596501D01*
X52335757Y-44596501D01*
X52335761Y-44596502D01*
X52335763Y-44596503D01*
X52443982Y-44625500D01*
X52443984Y-44625500D01*
X52556016Y-44625500D01*
X52556018Y-44625500D01*
X52664237Y-44596503D01*
X52664239Y-44596501D01*
X52664241Y-44596501D01*
X52693064Y-44579859D01*
X52761263Y-44540485D01*
X52840485Y-44461263D01*
X52881774Y-44389748D01*
X52896501Y-44364241D01*
X52896501Y-44364239D01*
X52896503Y-44364237D01*
X52925500Y-44256018D01*
X52925500Y-44143982D01*
X52896503Y-44035763D01*
X52896501Y-44035760D01*
X52896501Y-44035758D01*
X52840486Y-43938739D01*
X52840485Y-43938737D01*
X52761263Y-43859515D01*
X52761260Y-43859513D01*
X52664240Y-43803498D01*
X52664242Y-43803498D01*
X52631690Y-43794776D01*
X52593548Y-43784556D01*
X52542236Y-43751233D01*
X52520309Y-43694111D01*
X52523546Y-43663308D01*
X52525500Y-43656018D01*
X52525500Y-43543982D01*
X52496503Y-43435763D01*
X52496501Y-43435760D01*
X52496501Y-43435758D01*
X52446815Y-43349701D01*
X52440485Y-43338737D01*
X52361263Y-43259515D01*
X52361260Y-43259513D01*
X52264240Y-43203498D01*
X52264242Y-43203498D01*
X52222251Y-43192247D01*
X52156018Y-43174500D01*
X52043982Y-43174500D01*
X51977748Y-43192247D01*
X51935758Y-43203498D01*
X51838739Y-43259513D01*
X51759511Y-43338741D01*
X51758571Y-43339967D01*
X51757659Y-43340593D01*
X51754927Y-43343326D01*
X51754420Y-43342819D01*
X51708146Y-43374621D01*
X51646981Y-43373018D01*
X51610027Y-43349701D01*
X51385965Y-43125639D01*
X50999862Y-42739535D01*
X50999859Y-42739533D01*
X50999857Y-42739531D01*
X50925642Y-42696683D01*
X50925644Y-42696683D01*
X50893521Y-42688076D01*
X50842853Y-42674500D01*
X50842851Y-42674500D01*
X49275835Y-42674500D01*
X49217644Y-42655593D01*
X49205831Y-42645504D01*
X48804831Y-42244504D01*
X48777054Y-42189987D01*
X48786625Y-42129555D01*
X48829890Y-42086290D01*
X48874835Y-42075500D01*
X49794746Y-42075500D01*
X49794747Y-42075500D01*
X49853230Y-42063867D01*
X49919551Y-42019552D01*
X49963866Y-41953231D01*
X49975499Y-41894748D01*
X49975499Y-40705252D01*
X49974102Y-40698231D01*
X49971279Y-40684035D01*
X49963866Y-40646769D01*
X49919551Y-40580448D01*
X49919547Y-40580445D01*
X49853232Y-40536134D01*
X49853230Y-40536133D01*
X49853227Y-40536132D01*
X49853226Y-40536132D01*
X49794757Y-40524501D01*
X49794747Y-40524500D01*
X49794746Y-40524500D01*
X48873499Y-40524500D01*
X48815308Y-40505593D01*
X48779344Y-40456093D01*
X48774499Y-40425500D01*
X48774499Y-38643982D01*
X49174500Y-38643982D01*
X49174500Y-38756018D01*
X49188504Y-38808282D01*
X49203498Y-38864241D01*
X49259513Y-38961260D01*
X49259515Y-38961263D01*
X49338737Y-39040485D01*
X49338739Y-39040486D01*
X49435759Y-39096501D01*
X49435757Y-39096501D01*
X49435761Y-39096502D01*
X49435763Y-39096503D01*
X49543982Y-39125500D01*
X49543984Y-39125500D01*
X49656016Y-39125500D01*
X49656018Y-39125500D01*
X49764237Y-39096503D01*
X49764239Y-39096501D01*
X49764241Y-39096501D01*
X49793064Y-39079859D01*
X49861263Y-39040485D01*
X49940485Y-38961263D01*
X49996503Y-38864237D01*
X50025500Y-38756018D01*
X50025500Y-38685839D01*
X50649500Y-38685839D01*
X50649500Y-38914160D01*
X50685214Y-39139655D01*
X50755769Y-39356799D01*
X50859420Y-39560227D01*
X50859424Y-39560233D01*
X50993616Y-39744931D01*
X50993618Y-39744933D01*
X50993621Y-39744937D01*
X51155063Y-39906379D01*
X51155066Y-39906381D01*
X51155068Y-39906383D01*
X51181309Y-39925448D01*
X51339772Y-40040579D01*
X51543201Y-40144231D01*
X51760340Y-40214784D01*
X51760341Y-40214784D01*
X51760344Y-40214785D01*
X51865056Y-40231369D01*
X51924809Y-40240833D01*
X51979325Y-40268610D01*
X52007103Y-40323127D01*
X52008322Y-40338614D01*
X52008322Y-40561255D01*
X51995058Y-40610755D01*
X51937320Y-40710758D01*
X51929206Y-40741041D01*
X51908322Y-40818982D01*
X51908322Y-40931018D01*
X51926414Y-40998539D01*
X51937320Y-41039241D01*
X51995058Y-41139244D01*
X52008322Y-41188744D01*
X52008322Y-41342853D01*
X52030504Y-41425638D01*
X52073357Y-41499862D01*
X52133960Y-41560465D01*
X52208184Y-41603318D01*
X52290969Y-41625500D01*
X52290971Y-41625500D01*
X52376673Y-41625500D01*
X52376675Y-41625500D01*
X52459460Y-41603318D01*
X52533684Y-41560465D01*
X52594287Y-41499862D01*
X52637140Y-41425638D01*
X52659322Y-41342853D01*
X52659322Y-41188744D01*
X52672586Y-41139244D01*
X52730323Y-41039241D01*
X52730323Y-41039239D01*
X52730325Y-41039237D01*
X52759322Y-40931018D01*
X52759322Y-40818982D01*
X52730325Y-40710763D01*
X52730323Y-40710760D01*
X52730323Y-40710758D01*
X52672586Y-40610755D01*
X52659322Y-40561255D01*
X52659322Y-40203612D01*
X52678229Y-40145421D01*
X52713377Y-40115402D01*
X52860228Y-40040579D01*
X53044937Y-39906379D01*
X53206379Y-39744937D01*
X53340579Y-39560228D01*
X53444231Y-39356799D01*
X53514784Y-39139660D01*
X53514785Y-39139655D01*
X53550500Y-38914160D01*
X53550500Y-38685839D01*
X53514785Y-38460344D01*
X53507765Y-38438739D01*
X53444231Y-38243201D01*
X53404035Y-38164311D01*
X54799499Y-38164311D01*
X54799499Y-38935688D01*
X54802400Y-38972565D01*
X54802400Y-38972568D01*
X54802401Y-38972569D01*
X54848255Y-39130398D01*
X54931918Y-39271865D01*
X55048134Y-39388081D01*
X55189601Y-39471744D01*
X55347430Y-39517598D01*
X55384305Y-39520500D01*
X55384310Y-39520500D01*
X56615688Y-39520500D01*
X56615693Y-39520500D01*
X56652568Y-39517598D01*
X56810397Y-39471744D01*
X56810399Y-39471742D01*
X56812666Y-39471084D01*
X56873822Y-39473006D01*
X56922168Y-39510506D01*
X56926021Y-39516648D01*
X56929495Y-39522665D01*
X57027335Y-39620505D01*
X57147164Y-39689688D01*
X57280817Y-39725500D01*
X57280819Y-39725500D01*
X57419181Y-39725500D01*
X57419183Y-39725500D01*
X57552836Y-39689688D01*
X57672665Y-39620505D01*
X57770505Y-39522665D01*
X57839688Y-39402836D01*
X57875500Y-39269183D01*
X57875500Y-39130817D01*
X57839688Y-38997164D01*
X57770505Y-38877335D01*
X57672665Y-38779495D01*
X57552836Y-38710312D01*
X57419183Y-38674500D01*
X57299499Y-38674500D01*
X57241308Y-38655593D01*
X57205344Y-38606093D01*
X57200499Y-38575500D01*
X57200499Y-38164311D01*
X57200121Y-38159513D01*
X57197597Y-38127431D01*
X57151743Y-37969602D01*
X57068080Y-37828135D01*
X56951864Y-37711919D01*
X56810397Y-37628256D01*
X56652568Y-37582402D01*
X56652567Y-37582401D01*
X56652564Y-37582401D01*
X56629139Y-37580558D01*
X56615693Y-37579500D01*
X55384305Y-37579500D01*
X55371772Y-37580486D01*
X55347433Y-37582401D01*
X55347426Y-37582403D01*
X55189601Y-37628256D01*
X55048135Y-37711918D01*
X54931917Y-37828136D01*
X54848255Y-37969602D01*
X54802402Y-38127427D01*
X54802400Y-38127434D01*
X54799499Y-38164311D01*
X53404035Y-38164311D01*
X53340579Y-38039772D01*
X53340575Y-38039766D01*
X53206383Y-37855068D01*
X53206381Y-37855066D01*
X53206379Y-37855063D01*
X53044937Y-37693621D01*
X53044933Y-37693618D01*
X53044931Y-37693616D01*
X52860233Y-37559424D01*
X52860227Y-37559420D01*
X52656799Y-37455769D01*
X52439655Y-37385214D01*
X52214160Y-37349500D01*
X52214157Y-37349500D01*
X51985843Y-37349500D01*
X51985840Y-37349500D01*
X51760344Y-37385214D01*
X51543200Y-37455769D01*
X51339772Y-37559420D01*
X51339766Y-37559424D01*
X51155068Y-37693616D01*
X50993616Y-37855068D01*
X50859424Y-38039766D01*
X50859420Y-38039772D01*
X50755769Y-38243200D01*
X50685214Y-38460344D01*
X50649500Y-38685839D01*
X50025500Y-38685839D01*
X50025500Y-38643982D01*
X49996503Y-38535763D01*
X49996501Y-38535760D01*
X49996501Y-38535758D01*
X49940486Y-38438739D01*
X49940485Y-38438737D01*
X49861263Y-38359515D01*
X49861260Y-38359513D01*
X49764240Y-38303498D01*
X49764242Y-38303498D01*
X49722251Y-38292247D01*
X49656018Y-38274500D01*
X49543982Y-38274500D01*
X49477748Y-38292247D01*
X49435758Y-38303498D01*
X49338739Y-38359513D01*
X49259513Y-38438739D01*
X49203498Y-38535758D01*
X49187286Y-38596263D01*
X49174500Y-38643982D01*
X48774499Y-38643982D01*
X48774499Y-36676835D01*
X48776967Y-36669237D01*
X48775718Y-36661348D01*
X48786242Y-36640692D01*
X48793406Y-36618644D01*
X48803495Y-36606831D01*
X48905830Y-36504496D01*
X48960347Y-36476719D01*
X48975834Y-36475500D01*
X49794746Y-36475500D01*
X49794747Y-36475500D01*
X49853230Y-36463867D01*
X49919551Y-36419552D01*
X49963866Y-36353231D01*
X49975499Y-36294748D01*
X49975499Y-35443982D01*
X53774500Y-35443982D01*
X53774500Y-35556018D01*
X53792336Y-35622583D01*
X53803498Y-35664241D01*
X53847519Y-35740486D01*
X53859515Y-35761263D01*
X53938737Y-35840485D01*
X53938739Y-35840486D01*
X54035759Y-35896501D01*
X54035757Y-35896501D01*
X54035761Y-35896502D01*
X54035763Y-35896503D01*
X54143982Y-35925500D01*
X54143984Y-35925500D01*
X54256016Y-35925500D01*
X54256018Y-35925500D01*
X54364237Y-35896503D01*
X54364239Y-35896501D01*
X54364241Y-35896501D01*
X54393064Y-35879859D01*
X54461263Y-35840485D01*
X54540485Y-35761263D01*
X54596503Y-35664237D01*
X54625500Y-35556018D01*
X54625500Y-35443982D01*
X54596503Y-35335763D01*
X54596501Y-35335760D01*
X54596501Y-35335758D01*
X54540486Y-35238739D01*
X54540485Y-35238737D01*
X54461263Y-35159515D01*
X54461260Y-35159513D01*
X54364240Y-35103498D01*
X54364242Y-35103498D01*
X54322251Y-35092247D01*
X54256018Y-35074500D01*
X54143982Y-35074500D01*
X54077748Y-35092247D01*
X54035758Y-35103498D01*
X53938739Y-35159513D01*
X53859513Y-35238739D01*
X53803498Y-35335758D01*
X53801294Y-35343983D01*
X53774500Y-35443982D01*
X49975499Y-35443982D01*
X49975499Y-35105252D01*
X49963866Y-35046769D01*
X49919551Y-34980448D01*
X49919547Y-34980445D01*
X49853232Y-34936134D01*
X49853230Y-34936133D01*
X49853227Y-34936132D01*
X49853226Y-34936132D01*
X49794757Y-34924501D01*
X49794747Y-34924500D01*
X48705251Y-34924500D01*
X48705250Y-34924500D01*
X48705240Y-34924501D01*
X48646771Y-34936132D01*
X48646765Y-34936134D01*
X48580450Y-34980445D01*
X48580444Y-34980451D01*
X48536133Y-35046766D01*
X48536131Y-35046772D01*
X48524500Y-35105241D01*
X48524499Y-35105253D01*
X48524499Y-35924165D01*
X48505592Y-35982356D01*
X48495503Y-35994168D01*
X48188534Y-36301137D01*
X48188530Y-36301142D01*
X48145681Y-36375360D01*
X48145680Y-36375360D01*
X48145681Y-36375361D01*
X48129697Y-36435016D01*
X48123499Y-36458147D01*
X48123499Y-42306146D01*
X48123499Y-42391852D01*
X48142894Y-42464237D01*
X48145682Y-42474642D01*
X48188530Y-42548856D01*
X48188531Y-42548857D01*
X48188532Y-42548858D01*
X48188534Y-42548861D01*
X48521458Y-42881785D01*
X48839534Y-43199861D01*
X48839535Y-43199862D01*
X48839534Y-43199862D01*
X48881442Y-43241769D01*
X48900138Y-43260465D01*
X48974362Y-43303318D01*
X49057147Y-43325500D01*
X49142852Y-43325500D01*
X50624165Y-43325500D01*
X50682356Y-43344407D01*
X50694169Y-43354496D01*
X51196505Y-43856831D01*
X51224282Y-43911348D01*
X51225501Y-43926835D01*
X51225501Y-46128165D01*
X51206594Y-46186356D01*
X51157094Y-46222320D01*
X51095908Y-46222320D01*
X51056497Y-46198169D01*
X50004495Y-45146167D01*
X49976718Y-45091650D01*
X49975499Y-45076163D01*
X49975499Y-44105253D01*
X49975497Y-44105241D01*
X49971996Y-44087643D01*
X49963866Y-44046769D01*
X49919551Y-43980448D01*
X49903915Y-43970000D01*
X49853232Y-43936134D01*
X49853230Y-43936133D01*
X49853227Y-43936132D01*
X49853226Y-43936132D01*
X49794757Y-43924501D01*
X49794747Y-43924500D01*
X48705251Y-43924500D01*
X48705250Y-43924500D01*
X48705240Y-43924501D01*
X48646771Y-43936132D01*
X48646765Y-43936134D01*
X48572340Y-43985865D01*
X48571658Y-43984844D01*
X48526091Y-44008058D01*
X48465659Y-43998482D01*
X48440607Y-43980280D01*
X47354496Y-42894169D01*
X47326719Y-42839652D01*
X47325500Y-42824165D01*
X47325500Y-38813744D01*
X47338764Y-38764244D01*
X47396501Y-38664241D01*
X47396501Y-38664239D01*
X47396503Y-38664237D01*
X47425500Y-38556018D01*
X47425500Y-38443982D01*
X47396503Y-38335763D01*
X47396501Y-38335760D01*
X47396501Y-38335758D01*
X47343062Y-38243200D01*
X47340485Y-38238737D01*
X47261263Y-38159515D01*
X47228571Y-38140640D01*
X47164240Y-38103498D01*
X47164242Y-38103498D01*
X47122251Y-38092247D01*
X47056018Y-38074500D01*
X46943982Y-38074500D01*
X46877748Y-38092247D01*
X46835758Y-38103498D01*
X46738739Y-38159513D01*
X46659513Y-38238739D01*
X46603498Y-38335758D01*
X46603497Y-38335763D01*
X46574500Y-38443982D01*
X46574500Y-38556018D01*
X46598070Y-38643982D01*
X46603498Y-38664241D01*
X46661236Y-38764244D01*
X46674500Y-38813744D01*
X46674500Y-42957147D01*
X46674500Y-43042853D01*
X46684727Y-43081021D01*
X46696683Y-43125643D01*
X46739531Y-43199857D01*
X46739533Y-43199859D01*
X46739535Y-43199862D01*
X47845505Y-44305832D01*
X47873281Y-44360347D01*
X47874500Y-44375834D01*
X47874500Y-45157147D01*
X47874500Y-45242853D01*
X47880315Y-45264554D01*
X47896683Y-45325643D01*
X47939531Y-45399857D01*
X47939533Y-45399859D01*
X47939535Y-45399862D01*
X48094168Y-45554495D01*
X48121944Y-45609010D01*
X48112373Y-45669442D01*
X48069108Y-45712707D01*
X48024163Y-45723497D01*
X46124832Y-45723497D01*
X46066641Y-45704590D01*
X46054828Y-45694501D01*
X45852012Y-45491685D01*
X45826389Y-45447303D01*
X45825500Y-45443985D01*
X45825500Y-45443982D01*
X45796503Y-45335763D01*
X45780973Y-45308865D01*
X45740486Y-45238739D01*
X45740485Y-45238737D01*
X45661263Y-45159515D01*
X45657162Y-45157147D01*
X45564240Y-45103498D01*
X45564242Y-45103498D01*
X45520023Y-45091650D01*
X45456018Y-45074500D01*
X45343982Y-45074500D01*
X45279977Y-45091650D01*
X45235758Y-45103498D01*
X45138739Y-45159513D01*
X45059513Y-45238739D01*
X45003498Y-45335758D01*
X45001047Y-45344907D01*
X44974500Y-45443982D01*
X44974500Y-45556018D01*
X44997861Y-45643202D01*
X45003498Y-45664241D01*
X45058506Y-45759515D01*
X45059515Y-45761263D01*
X45138737Y-45840485D01*
X45138739Y-45840486D01*
X45235759Y-45896501D01*
X45235763Y-45896503D01*
X45343982Y-45925500D01*
X45343985Y-45925500D01*
X45347303Y-45926389D01*
X45391684Y-45952012D01*
X45685059Y-46245386D01*
X45712837Y-46299903D01*
X45703266Y-46360335D01*
X45660001Y-46403600D01*
X45599569Y-46413171D01*
X45577171Y-46406854D01*
X45507568Y-46378024D01*
X45304615Y-46337654D01*
X45304613Y-46337654D01*
X45097683Y-46337654D01*
X45097680Y-46337654D01*
X44894729Y-46378023D01*
X44703550Y-46457212D01*
X44531496Y-46572174D01*
X44385168Y-46718502D01*
X44270206Y-46890556D01*
X44191017Y-47081735D01*
X44150648Y-47284686D01*
X44150648Y-47491621D01*
X44191017Y-47694572D01*
X44270206Y-47885751D01*
X44385168Y-48057805D01*
X44385171Y-48057809D01*
X44531493Y-48204131D01*
X44703550Y-48319095D01*
X44894728Y-48398284D01*
X45097683Y-48438654D01*
X45097684Y-48438654D01*
X45304612Y-48438654D01*
X45304613Y-48438654D01*
X45479361Y-48403894D01*
X45540119Y-48411086D01*
X45585049Y-48452618D01*
X45596986Y-48512628D01*
X45571370Y-48568193D01*
X45568676Y-48570996D01*
X40291685Y-53847987D01*
X40247304Y-53873610D01*
X40135758Y-53903498D01*
X40038739Y-53959513D01*
X39959513Y-54038739D01*
X39903498Y-54135758D01*
X39903497Y-54135763D01*
X39874500Y-54243982D01*
X37600500Y-54243982D01*
X37600500Y-49875434D01*
X38099500Y-49875434D01*
X38099500Y-50124567D01*
X38132017Y-50371558D01*
X38132017Y-50371563D01*
X38196496Y-50612200D01*
X38196500Y-50612213D01*
X38291832Y-50842366D01*
X38291834Y-50842370D01*
X38291836Y-50842374D01*
X38415835Y-51057147D01*
X38416403Y-51058131D01*
X38568056Y-51255770D01*
X38568058Y-51255772D01*
X38568062Y-51255777D01*
X38744224Y-51431939D01*
X38744228Y-51431942D01*
X38744230Y-51431944D01*
X38890243Y-51543983D01*
X38941873Y-51583600D01*
X39157627Y-51708165D01*
X39387793Y-51803503D01*
X39628435Y-51867983D01*
X39875435Y-51900501D01*
X39875436Y-51900501D01*
X40124564Y-51900501D01*
X40124565Y-51900501D01*
X40371565Y-51867983D01*
X40612207Y-51803503D01*
X40842373Y-51708165D01*
X41058127Y-51583600D01*
X41255776Y-51431939D01*
X41431938Y-51255777D01*
X41583599Y-51058128D01*
X41708164Y-50842374D01*
X41803502Y-50612208D01*
X41867982Y-50371566D01*
X41900500Y-50124566D01*
X41900500Y-49875436D01*
X41867982Y-49628436D01*
X41803502Y-49387794D01*
X41709670Y-49161263D01*
X41708167Y-49157635D01*
X41708166Y-49157634D01*
X41708164Y-49157628D01*
X41583599Y-48941874D01*
X41508484Y-48843982D01*
X41431943Y-48744231D01*
X41431941Y-48744229D01*
X41431938Y-48744225D01*
X41255776Y-48568063D01*
X41255771Y-48568059D01*
X41255769Y-48568057D01*
X41058130Y-48416404D01*
X41036462Y-48403894D01*
X40842373Y-48291837D01*
X40842369Y-48291835D01*
X40842365Y-48291833D01*
X40612212Y-48196501D01*
X40612211Y-48196500D01*
X40612207Y-48196499D01*
X40371565Y-48132019D01*
X40371562Y-48132018D01*
X40371560Y-48132018D01*
X40124566Y-48099501D01*
X40124565Y-48099501D01*
X39875435Y-48099501D01*
X39875433Y-48099501D01*
X39628442Y-48132018D01*
X39628437Y-48132018D01*
X39387800Y-48196497D01*
X39387787Y-48196501D01*
X39157634Y-48291833D01*
X38941869Y-48416404D01*
X38744230Y-48568057D01*
X38568056Y-48744231D01*
X38416403Y-48941870D01*
X38291832Y-49157635D01*
X38196500Y-49387788D01*
X38196496Y-49387801D01*
X38132017Y-49628438D01*
X38132017Y-49628443D01*
X38099500Y-49875434D01*
X37600500Y-49875434D01*
X37600500Y-46085839D01*
X37949500Y-46085839D01*
X37949500Y-46314160D01*
X37985214Y-46539655D01*
X38055769Y-46756799D01*
X38159420Y-46960227D01*
X38159424Y-46960233D01*
X38293616Y-47144931D01*
X38293618Y-47144933D01*
X38293621Y-47144937D01*
X38455063Y-47306379D01*
X38455066Y-47306381D01*
X38455068Y-47306383D01*
X38637239Y-47438739D01*
X38639772Y-47440579D01*
X38843201Y-47544231D01*
X39060340Y-47614784D01*
X39060341Y-47614784D01*
X39060344Y-47614785D01*
X39285840Y-47650500D01*
X39285843Y-47650500D01*
X39514160Y-47650500D01*
X39739655Y-47614785D01*
X39739656Y-47614784D01*
X39739660Y-47614784D01*
X39956799Y-47544231D01*
X40160228Y-47440579D01*
X40344937Y-47306379D01*
X40506379Y-47144937D01*
X40640579Y-46960228D01*
X40744231Y-46756799D01*
X40797158Y-46593904D01*
X40833121Y-46544407D01*
X40891312Y-46525500D01*
X40986256Y-46525500D01*
X41035756Y-46538764D01*
X41135759Y-46596501D01*
X41135757Y-46596501D01*
X41135761Y-46596502D01*
X41135763Y-46596503D01*
X41243982Y-46625500D01*
X41243984Y-46625500D01*
X41356016Y-46625500D01*
X41356018Y-46625500D01*
X41464237Y-46596503D01*
X41464239Y-46596501D01*
X41464241Y-46596501D01*
X41507753Y-46571379D01*
X41561263Y-46540485D01*
X41640485Y-46461263D01*
X41690536Y-46374573D01*
X41696501Y-46364241D01*
X41696501Y-46364239D01*
X41696503Y-46364237D01*
X41725500Y-46256018D01*
X41725500Y-46143982D01*
X41696503Y-46035763D01*
X41696501Y-46035760D01*
X41696501Y-46035758D01*
X41640486Y-45938739D01*
X41640485Y-45938737D01*
X41561263Y-45859515D01*
X41554470Y-45855593D01*
X41464240Y-45803498D01*
X41464242Y-45803498D01*
X41422251Y-45792247D01*
X41356018Y-45774500D01*
X41243982Y-45774500D01*
X41177748Y-45792247D01*
X41135758Y-45803498D01*
X41035756Y-45861236D01*
X40986256Y-45874500D01*
X40891312Y-45874500D01*
X40833121Y-45855593D01*
X40797158Y-45806095D01*
X40744231Y-45643201D01*
X40665475Y-45488634D01*
X42354596Y-45488634D01*
X42354596Y-45695569D01*
X42394965Y-45898520D01*
X42474154Y-46089699D01*
X42571211Y-46234956D01*
X42589119Y-46261757D01*
X42735441Y-46408079D01*
X42907498Y-46523043D01*
X43098676Y-46602232D01*
X43301631Y-46642602D01*
X43301632Y-46642602D01*
X43508560Y-46642602D01*
X43508561Y-46642602D01*
X43711516Y-46602232D01*
X43902694Y-46523043D01*
X44074751Y-46408079D01*
X44221073Y-46261757D01*
X44336037Y-46089700D01*
X44415226Y-45898522D01*
X44455596Y-45695567D01*
X44455596Y-45488637D01*
X44415226Y-45285682D01*
X44336037Y-45094504D01*
X44221073Y-44922447D01*
X44074751Y-44776125D01*
X44074747Y-44776122D01*
X43902693Y-44661160D01*
X43711514Y-44581971D01*
X43508563Y-44541602D01*
X43508561Y-44541602D01*
X43301631Y-44541602D01*
X43301628Y-44541602D01*
X43098677Y-44581971D01*
X42907498Y-44661160D01*
X42735444Y-44776122D01*
X42589116Y-44922450D01*
X42474154Y-45094504D01*
X42394965Y-45285683D01*
X42354596Y-45488634D01*
X40665475Y-45488634D01*
X40640579Y-45439772D01*
X40615993Y-45405932D01*
X40506383Y-45255068D01*
X40506381Y-45255066D01*
X40506379Y-45255063D01*
X40344937Y-45093621D01*
X40344933Y-45093618D01*
X40344931Y-45093616D01*
X40160233Y-44959424D01*
X40160227Y-44959420D01*
X39956799Y-44855769D01*
X39739655Y-44785214D01*
X39514160Y-44749500D01*
X39514157Y-44749500D01*
X39285843Y-44749500D01*
X39285840Y-44749500D01*
X39060344Y-44785214D01*
X38843200Y-44855769D01*
X38639772Y-44959420D01*
X38639766Y-44959424D01*
X38455068Y-45093616D01*
X38293616Y-45255068D01*
X38159424Y-45439766D01*
X38159420Y-45439772D01*
X38055769Y-45643200D01*
X37985214Y-45860344D01*
X37949500Y-46085839D01*
X37600500Y-46085839D01*
X37600500Y-43692583D01*
X40558545Y-43692583D01*
X40558545Y-43899518D01*
X40598914Y-44102469D01*
X40678103Y-44293648D01*
X40783029Y-44450682D01*
X40793068Y-44465706D01*
X40939390Y-44612028D01*
X41111447Y-44726992D01*
X41302625Y-44806181D01*
X41505580Y-44846551D01*
X41505581Y-44846551D01*
X41712509Y-44846551D01*
X41712510Y-44846551D01*
X41915465Y-44806181D01*
X42106643Y-44726992D01*
X42278700Y-44612028D01*
X42425022Y-44465706D01*
X42539986Y-44293649D01*
X42619175Y-44102471D01*
X42659545Y-43899516D01*
X42659545Y-43692586D01*
X42619175Y-43489631D01*
X42539986Y-43298453D01*
X42425022Y-43126396D01*
X42278700Y-42980074D01*
X42278696Y-42980071D01*
X42106642Y-42865109D01*
X41915463Y-42785920D01*
X41712512Y-42745551D01*
X41712510Y-42745551D01*
X41505580Y-42745551D01*
X41505577Y-42745551D01*
X41302626Y-42785920D01*
X41111447Y-42865109D01*
X40939393Y-42980071D01*
X40793065Y-43126399D01*
X40678103Y-43298453D01*
X40598914Y-43489632D01*
X40558545Y-43692583D01*
X37600500Y-43692583D01*
X37600500Y-42243982D01*
X44574500Y-42243982D01*
X44574500Y-42356018D01*
X44599208Y-42448231D01*
X44603498Y-42464241D01*
X44659513Y-42561260D01*
X44659515Y-42561263D01*
X44738737Y-42640485D01*
X44738739Y-42640486D01*
X44835759Y-42696501D01*
X44835757Y-42696501D01*
X44835761Y-42696502D01*
X44835763Y-42696503D01*
X44943982Y-42725500D01*
X44943984Y-42725500D01*
X45056016Y-42725500D01*
X45056018Y-42725500D01*
X45164237Y-42696503D01*
X45164239Y-42696501D01*
X45164241Y-42696501D01*
X45202347Y-42674500D01*
X45261263Y-42640485D01*
X45340485Y-42561263D01*
X45390498Y-42474638D01*
X45396501Y-42464241D01*
X45396501Y-42464239D01*
X45396503Y-42464237D01*
X45425500Y-42356018D01*
X45425500Y-42243982D01*
X45396503Y-42135763D01*
X45396501Y-42135760D01*
X45396501Y-42135758D01*
X45340486Y-42038739D01*
X45340485Y-42038737D01*
X45261263Y-41959515D01*
X45261260Y-41959513D01*
X45164240Y-41903498D01*
X45164242Y-41903498D01*
X45122251Y-41892247D01*
X45056018Y-41874500D01*
X44943982Y-41874500D01*
X44877748Y-41892247D01*
X44835758Y-41903498D01*
X44738739Y-41959513D01*
X44659513Y-42038739D01*
X44603498Y-42135758D01*
X44603497Y-42135763D01*
X44574500Y-42243982D01*
X37600500Y-42243982D01*
X37600500Y-41001315D01*
X37600539Y-40998539D01*
X37601882Y-40950684D01*
X37619927Y-40307504D01*
X37620235Y-40302026D01*
X37678233Y-39614421D01*
X37678846Y-39608978D01*
X37775302Y-38925753D01*
X37776231Y-38920285D01*
X37777450Y-38914160D01*
X37910839Y-38243564D01*
X37912074Y-38238156D01*
X37937230Y-38140637D01*
X38084409Y-37570069D01*
X38085946Y-37564736D01*
X38138452Y-37399999D01*
X38993491Y-37399999D01*
X38993491Y-37400000D01*
X39009051Y-37478230D01*
X39023690Y-37500139D01*
X39042180Y-37527811D01*
X40272189Y-38757820D01*
X40321769Y-38790948D01*
X40400000Y-38806509D01*
X40478231Y-38790948D01*
X40527811Y-38757820D01*
X41757820Y-37527811D01*
X41790948Y-37478231D01*
X41806509Y-37400000D01*
X41790948Y-37321769D01*
X41757820Y-37272189D01*
X40527811Y-36042180D01*
X40478231Y-36009052D01*
X40478230Y-36009051D01*
X40400000Y-35993491D01*
X40321769Y-36009051D01*
X40272192Y-36042177D01*
X39042177Y-37272192D01*
X39009051Y-37321769D01*
X38993491Y-37399999D01*
X38138452Y-37399999D01*
X38151142Y-37360185D01*
X38154548Y-37349500D01*
X38295476Y-36907342D01*
X38297306Y-36902113D01*
X38372020Y-36706383D01*
X38543373Y-36257484D01*
X38545472Y-36252416D01*
X38827319Y-35622549D01*
X38829697Y-35617613D01*
X38971058Y-35343982D01*
X43374500Y-35343982D01*
X43374500Y-35456018D01*
X43382492Y-35485843D01*
X43403498Y-35564241D01*
X43459513Y-35661260D01*
X43459515Y-35661263D01*
X43538737Y-35740485D01*
X43538739Y-35740486D01*
X43635759Y-35796501D01*
X43635757Y-35796501D01*
X43635761Y-35796502D01*
X43635763Y-35796503D01*
X43743982Y-35825500D01*
X43743984Y-35825500D01*
X43856016Y-35825500D01*
X43856018Y-35825500D01*
X43964237Y-35796503D01*
X43964239Y-35796501D01*
X43964241Y-35796501D01*
X44025274Y-35761263D01*
X44061263Y-35740485D01*
X44140485Y-35661263D01*
X44196503Y-35564237D01*
X44225500Y-35456018D01*
X44225500Y-35343982D01*
X44196503Y-35235763D01*
X44196501Y-35235760D01*
X44196501Y-35235758D01*
X44140486Y-35138739D01*
X44140485Y-35138737D01*
X44061263Y-35059515D01*
X44061260Y-35059513D01*
X43964240Y-35003498D01*
X43964242Y-35003498D01*
X43922251Y-34992247D01*
X43856018Y-34974500D01*
X43743982Y-34974500D01*
X43677748Y-34992247D01*
X43635758Y-35003498D01*
X43538739Y-35059513D01*
X43459513Y-35138739D01*
X43403498Y-35235758D01*
X43388414Y-35292054D01*
X43374500Y-35343982D01*
X38971058Y-35343982D01*
X39146404Y-35004567D01*
X39149060Y-34999762D01*
X39499651Y-34405423D01*
X39502569Y-34400780D01*
X39885923Y-33827051D01*
X39889096Y-33822578D01*
X40159008Y-33463928D01*
X40688027Y-33463928D01*
X40688027Y-33596733D01*
X40697374Y-33625500D01*
X40729066Y-33723040D01*
X40787486Y-33803447D01*
X40787488Y-33803449D01*
X40787491Y-33803453D01*
X41196547Y-34212509D01*
X41196550Y-34212511D01*
X41196552Y-34212513D01*
X41276959Y-34270933D01*
X41276960Y-34270933D01*
X41276961Y-34270934D01*
X41403267Y-34311973D01*
X41403269Y-34311973D01*
X41536070Y-34311973D01*
X41536072Y-34311973D01*
X41662378Y-34270934D01*
X41742792Y-34212509D01*
X41795162Y-34160138D01*
X41809130Y-34153021D01*
X41820219Y-34141933D01*
X41835706Y-34139480D01*
X41849676Y-34132362D01*
X41865163Y-34134814D01*
X41880651Y-34132362D01*
X41894622Y-34139480D01*
X41910108Y-34141933D01*
X41935168Y-34160139D01*
X41945504Y-34170475D01*
X41973281Y-34224992D01*
X41974500Y-34240479D01*
X41974500Y-34256018D01*
X41978497Y-34270934D01*
X42003498Y-34364241D01*
X42059513Y-34461260D01*
X42059515Y-34461263D01*
X42138737Y-34540485D01*
X42138739Y-34540486D01*
X42235759Y-34596501D01*
X42235757Y-34596501D01*
X42235761Y-34596502D01*
X42235763Y-34596503D01*
X42343982Y-34625500D01*
X42343984Y-34625500D01*
X42456016Y-34625500D01*
X42456018Y-34625500D01*
X42564237Y-34596503D01*
X42564239Y-34596501D01*
X42564241Y-34596501D01*
X42593064Y-34579859D01*
X42661263Y-34540485D01*
X42740485Y-34461263D01*
X42796503Y-34364237D01*
X42825500Y-34256018D01*
X42825500Y-34143982D01*
X42796503Y-34035763D01*
X42796501Y-34035760D01*
X42796501Y-34035758D01*
X42740486Y-33938739D01*
X42740485Y-33938737D01*
X42661263Y-33859515D01*
X42661260Y-33859513D01*
X42564240Y-33803498D01*
X42564242Y-33803498D01*
X42522251Y-33792247D01*
X42456018Y-33774500D01*
X42456016Y-33774500D01*
X42440479Y-33774500D01*
X42382288Y-33755593D01*
X42370475Y-33745504D01*
X42227275Y-33602304D01*
X42199498Y-33547787D01*
X42198279Y-33532300D01*
X42198279Y-33516963D01*
X42198279Y-33516961D01*
X42157240Y-33390655D01*
X42132074Y-33356018D01*
X42098819Y-33310246D01*
X42098817Y-33310244D01*
X42098815Y-33310241D01*
X41689759Y-32901185D01*
X41689755Y-32901182D01*
X41689753Y-32901180D01*
X41609346Y-32842760D01*
X41567243Y-32829080D01*
X41483039Y-32801721D01*
X41350234Y-32801721D01*
X41308132Y-32815400D01*
X41223926Y-32842760D01*
X41143519Y-32901180D01*
X40787486Y-33257213D01*
X40729066Y-33337620D01*
X40709901Y-33396606D01*
X40688027Y-33463928D01*
X40159008Y-33463928D01*
X40304029Y-33271229D01*
X40307451Y-33266939D01*
X40752645Y-32739722D01*
X40756291Y-32735642D01*
X41120663Y-32350234D01*
X41801721Y-32350234D01*
X41801721Y-32483039D01*
X41829080Y-32567243D01*
X41842760Y-32609346D01*
X41901180Y-32689753D01*
X41901182Y-32689755D01*
X41901185Y-32689759D01*
X42310241Y-33098815D01*
X42310244Y-33098817D01*
X42310246Y-33098819D01*
X42390653Y-33157239D01*
X42390654Y-33157239D01*
X42390655Y-33157240D01*
X42516961Y-33198279D01*
X42516963Y-33198279D01*
X42649764Y-33198279D01*
X42649766Y-33198279D01*
X42776072Y-33157240D01*
X42794320Y-33143982D01*
X46874500Y-33143982D01*
X46874500Y-33256018D01*
X46889029Y-33310241D01*
X46903498Y-33364241D01*
X46959513Y-33461260D01*
X46959515Y-33461263D01*
X47038737Y-33540485D01*
X47071079Y-33559157D01*
X47135759Y-33596501D01*
X47135757Y-33596501D01*
X47135761Y-33596502D01*
X47135763Y-33596503D01*
X47243982Y-33625500D01*
X47243984Y-33625500D01*
X47356016Y-33625500D01*
X47356018Y-33625500D01*
X47464237Y-33596503D01*
X47464239Y-33596501D01*
X47464241Y-33596501D01*
X47525274Y-33561263D01*
X47561263Y-33540485D01*
X47640485Y-33461263D01*
X47696503Y-33364237D01*
X47725500Y-33256018D01*
X47725500Y-33243982D01*
X50474500Y-33243982D01*
X50474500Y-33356018D01*
X50489714Y-33412796D01*
X50503498Y-33464241D01*
X50559513Y-33561260D01*
X50559515Y-33561263D01*
X50638737Y-33640485D01*
X50638739Y-33640486D01*
X50735759Y-33696501D01*
X50735757Y-33696501D01*
X50735761Y-33696502D01*
X50735763Y-33696503D01*
X50843982Y-33725500D01*
X50843984Y-33725500D01*
X50956016Y-33725500D01*
X50956018Y-33725500D01*
X51064237Y-33696503D01*
X51064239Y-33696501D01*
X51064241Y-33696501D01*
X51093064Y-33679859D01*
X51161263Y-33640485D01*
X51240485Y-33561263D01*
X51296503Y-33464237D01*
X51325500Y-33356018D01*
X51325500Y-33243982D01*
X51296503Y-33135763D01*
X51296501Y-33135760D01*
X51296501Y-33135758D01*
X51240486Y-33038739D01*
X51240485Y-33038737D01*
X51161263Y-32959515D01*
X51161260Y-32959513D01*
X51064240Y-32903498D01*
X51064242Y-32903498D01*
X51022251Y-32892247D01*
X50956018Y-32874500D01*
X50843982Y-32874500D01*
X50777748Y-32892247D01*
X50735758Y-32903498D01*
X50638739Y-32959513D01*
X50559513Y-33038739D01*
X50503498Y-33135758D01*
X50497742Y-33157240D01*
X50474500Y-33243982D01*
X47725500Y-33243982D01*
X47725500Y-33143982D01*
X47696503Y-33035763D01*
X47696501Y-33035760D01*
X47696501Y-33035758D01*
X47640486Y-32938739D01*
X47640485Y-32938737D01*
X47561263Y-32859515D01*
X47561260Y-32859513D01*
X47464240Y-32803498D01*
X47464242Y-32803498D01*
X47422251Y-32792247D01*
X47356018Y-32774500D01*
X47243982Y-32774500D01*
X47177748Y-32792247D01*
X47135758Y-32803498D01*
X47038739Y-32859513D01*
X46959513Y-32938739D01*
X46903498Y-33035758D01*
X46887286Y-33096263D01*
X46874500Y-33143982D01*
X42794320Y-33143982D01*
X42856486Y-33098815D01*
X43212509Y-32742792D01*
X43270934Y-32662378D01*
X43311973Y-32536072D01*
X43311973Y-32403267D01*
X43270934Y-32276961D01*
X43270933Y-32276960D01*
X43268526Y-32269550D01*
X43271728Y-32268509D01*
X43269238Y-32252781D01*
X43264455Y-32222629D01*
X43264460Y-32222617D01*
X43264459Y-32222606D01*
X43280042Y-32192021D01*
X43292220Y-32168106D01*
X43408316Y-32052010D01*
X43452693Y-32026390D01*
X43456015Y-32025500D01*
X43456018Y-32025500D01*
X43564237Y-31996503D01*
X43564240Y-31996501D01*
X43564241Y-31996501D01*
X43593064Y-31979859D01*
X43661263Y-31940485D01*
X43740485Y-31861263D01*
X43796503Y-31764237D01*
X43812308Y-31705253D01*
X48524499Y-31705253D01*
X48524499Y-32894746D01*
X48524500Y-32894758D01*
X48536131Y-32953227D01*
X48536133Y-32953233D01*
X48540331Y-32959515D01*
X48580447Y-33019552D01*
X48646768Y-33063867D01*
X48691230Y-33072711D01*
X48705240Y-33075498D01*
X48705245Y-33075498D01*
X48705251Y-33075500D01*
X48705252Y-33075500D01*
X49794746Y-33075500D01*
X49794747Y-33075500D01*
X49853230Y-33063867D01*
X49919551Y-33019552D01*
X49963866Y-32953231D01*
X49975499Y-32894748D01*
X49975499Y-31705252D01*
X49963866Y-31646769D01*
X49919551Y-31580448D01*
X49869947Y-31547303D01*
X49864977Y-31543982D01*
X56174500Y-31543982D01*
X56174500Y-31656018D01*
X56188365Y-31707763D01*
X56203498Y-31764241D01*
X56259513Y-31861260D01*
X56259515Y-31861263D01*
X56338737Y-31940485D01*
X56338739Y-31940486D01*
X56435759Y-31996501D01*
X56435763Y-31996503D01*
X56543982Y-32025500D01*
X56543985Y-32025500D01*
X56547303Y-32026389D01*
X56591685Y-32052012D01*
X56707763Y-32168090D01*
X56735540Y-32222607D01*
X56728274Y-32268510D01*
X56731474Y-32269550D01*
X56729066Y-32276960D01*
X56729066Y-32276961D01*
X56688027Y-32403267D01*
X56688027Y-32536072D01*
X56711835Y-32609345D01*
X56729066Y-32662379D01*
X56787486Y-32742786D01*
X56787488Y-32742788D01*
X56787491Y-32742792D01*
X57143514Y-33098815D01*
X57143517Y-33098817D01*
X57143519Y-33098819D01*
X57223926Y-33157239D01*
X57223927Y-33157239D01*
X57223928Y-33157240D01*
X57350234Y-33198279D01*
X57350236Y-33198279D01*
X57483037Y-33198279D01*
X57483039Y-33198279D01*
X57609345Y-33157240D01*
X57689759Y-33098815D01*
X58098815Y-32689759D01*
X58157240Y-32609345D01*
X58198279Y-32483039D01*
X58198279Y-32350234D01*
X58157240Y-32223928D01*
X58156296Y-32222629D01*
X58098819Y-32143519D01*
X58098817Y-32143517D01*
X58098815Y-32143514D01*
X57742792Y-31787491D01*
X57742788Y-31787488D01*
X57742786Y-31787486D01*
X57662379Y-31729066D01*
X57620276Y-31715386D01*
X57536072Y-31688027D01*
X57403267Y-31688027D01*
X57279402Y-31728273D01*
X57269550Y-31731474D01*
X57268509Y-31728273D01*
X57253624Y-31730627D01*
X57222607Y-31735540D01*
X57222597Y-31735535D01*
X57222586Y-31735537D01*
X57168090Y-31707763D01*
X57052012Y-31591685D01*
X57026389Y-31547303D01*
X57025500Y-31543985D01*
X57025500Y-31543982D01*
X56996503Y-31435763D01*
X56940485Y-31338737D01*
X56861263Y-31259515D01*
X56861260Y-31259513D01*
X56764240Y-31203498D01*
X56764242Y-31203498D01*
X56722251Y-31192247D01*
X56656018Y-31174500D01*
X56543982Y-31174500D01*
X56477748Y-31192247D01*
X56435758Y-31203498D01*
X56338739Y-31259513D01*
X56259513Y-31338739D01*
X56203498Y-31435758D01*
X56202231Y-31440486D01*
X56174500Y-31543982D01*
X49864977Y-31543982D01*
X49853232Y-31536134D01*
X49853230Y-31536133D01*
X49853227Y-31536132D01*
X49853226Y-31536132D01*
X49794757Y-31524501D01*
X49794747Y-31524500D01*
X48705251Y-31524500D01*
X48705250Y-31524500D01*
X48705240Y-31524501D01*
X48646771Y-31536132D01*
X48646765Y-31536134D01*
X48580450Y-31580445D01*
X48580444Y-31580451D01*
X48536133Y-31646766D01*
X48536131Y-31646772D01*
X48524500Y-31705241D01*
X48524499Y-31705253D01*
X43812308Y-31705253D01*
X43825500Y-31656018D01*
X43825500Y-31543982D01*
X43796503Y-31435763D01*
X43796501Y-31435759D01*
X43796501Y-31435758D01*
X43740486Y-31338739D01*
X43740485Y-31338737D01*
X43661263Y-31259515D01*
X43661260Y-31259513D01*
X43564240Y-31203498D01*
X43564242Y-31203498D01*
X43522251Y-31192247D01*
X43456018Y-31174500D01*
X43343982Y-31174500D01*
X43277748Y-31192247D01*
X43235758Y-31203498D01*
X43138739Y-31259513D01*
X43059513Y-31338739D01*
X43003499Y-31435757D01*
X43003497Y-31435761D01*
X43003497Y-31435763D01*
X42987222Y-31496503D01*
X42973609Y-31547307D01*
X42947986Y-31591686D01*
X42831908Y-31707763D01*
X42777393Y-31735540D01*
X42731489Y-31728274D01*
X42730450Y-31731474D01*
X42720598Y-31728273D01*
X42596733Y-31688027D01*
X42463928Y-31688027D01*
X42421826Y-31701706D01*
X42337620Y-31729066D01*
X42257213Y-31787486D01*
X41901180Y-32143519D01*
X41842760Y-32223926D01*
X41815400Y-32308132D01*
X41801721Y-32350234D01*
X41120663Y-32350234D01*
X41230322Y-32234244D01*
X41234246Y-32230321D01*
X41735641Y-31756292D01*
X41739721Y-31752646D01*
X42266937Y-31307452D01*
X42271245Y-31304017D01*
X42822577Y-30889097D01*
X42827050Y-30885924D01*
X43400779Y-30502570D01*
X43405422Y-30499652D01*
X43999761Y-30149061D01*
X44004566Y-30146405D01*
X44617612Y-29829698D01*
X44622548Y-29827320D01*
X45252415Y-29545473D01*
X45257483Y-29543374D01*
X45473850Y-29460782D01*
X45534957Y-29457695D01*
X45586209Y-29491115D01*
X45608029Y-29548278D01*
X45597365Y-29598218D01*
X45590049Y-29612575D01*
X45590048Y-29612580D01*
X45574499Y-29710751D01*
X45574499Y-30289248D01*
X45590048Y-30387419D01*
X45590049Y-30387423D01*
X45615445Y-30437264D01*
X45650341Y-30505751D01*
X45715744Y-30571154D01*
X45743520Y-30625669D01*
X45733949Y-30686101D01*
X45695240Y-30726892D01*
X45638738Y-30759514D01*
X45559513Y-30838739D01*
X45503498Y-30935758D01*
X45500911Y-30945413D01*
X45474500Y-31043982D01*
X45474500Y-31156018D01*
X45487222Y-31203497D01*
X45503498Y-31264241D01*
X45559513Y-31361260D01*
X45559515Y-31361263D01*
X45638737Y-31440485D01*
X45638739Y-31440486D01*
X45735759Y-31496501D01*
X45735757Y-31496501D01*
X45735761Y-31496502D01*
X45735763Y-31496503D01*
X45843982Y-31525500D01*
X45843984Y-31525500D01*
X45956016Y-31525500D01*
X45956018Y-31525500D01*
X46064237Y-31496503D01*
X46064239Y-31496501D01*
X46064241Y-31496501D01*
X46093064Y-31479859D01*
X46161263Y-31440485D01*
X46240485Y-31361263D01*
X46296503Y-31264237D01*
X46325500Y-31156018D01*
X46325500Y-31140478D01*
X46326744Y-31136648D01*
X46325803Y-31132733D01*
X46333306Y-31116451D01*
X46344407Y-31082287D01*
X46349205Y-31076199D01*
X46351731Y-31073239D01*
X46440460Y-30984511D01*
X46463033Y-30945413D01*
X46480021Y-30915989D01*
X46500500Y-30839562D01*
X46500500Y-30751997D01*
X46519407Y-30693806D01*
X46557004Y-30666489D01*
X46555476Y-30663489D01*
X46587133Y-30647358D01*
X46680750Y-30599658D01*
X46774657Y-30505751D01*
X46834950Y-30387420D01*
X46850499Y-30289246D01*
X46850499Y-29710754D01*
X46850499Y-29710751D01*
X47149501Y-29710751D01*
X47149501Y-30289248D01*
X47165050Y-30387419D01*
X47165051Y-30387423D01*
X47190447Y-30437264D01*
X47225343Y-30505751D01*
X47319250Y-30599658D01*
X47437581Y-30659951D01*
X47499495Y-30669757D01*
X47535752Y-30675500D01*
X47535755Y-30675500D01*
X48039250Y-30675500D01*
X48075507Y-30669757D01*
X48137421Y-30659951D01*
X48255752Y-30599658D01*
X48349659Y-30505751D01*
X48405325Y-30396501D01*
X48413490Y-30380477D01*
X48416489Y-30382005D01*
X48443816Y-30344402D01*
X48501999Y-30325500D01*
X49686256Y-30325500D01*
X49735756Y-30338764D01*
X49835759Y-30396501D01*
X49835757Y-30396501D01*
X49835761Y-30396502D01*
X49835763Y-30396503D01*
X49943982Y-30425500D01*
X49943984Y-30425500D01*
X50056016Y-30425500D01*
X50056018Y-30425500D01*
X50164237Y-30396503D01*
X50164239Y-30396501D01*
X50164241Y-30396501D01*
X50264244Y-30338764D01*
X50313744Y-30325500D01*
X51498001Y-30325500D01*
X51556192Y-30344407D01*
X51583511Y-30382004D01*
X51586510Y-30380477D01*
X51594675Y-30396501D01*
X51650341Y-30505751D01*
X51744248Y-30599658D01*
X51862579Y-30659951D01*
X51924493Y-30669757D01*
X51960750Y-30675500D01*
X51960753Y-30675500D01*
X52464248Y-30675500D01*
X52500505Y-30669757D01*
X52562419Y-30659951D01*
X52680750Y-30599658D01*
X52774657Y-30505751D01*
X52834950Y-30387420D01*
X52850499Y-30289246D01*
X52850499Y-29710754D01*
X52834950Y-29612580D01*
X52774657Y-29494249D01*
X52680750Y-29400342D01*
X52579867Y-29348939D01*
X52562422Y-29340050D01*
X52562419Y-29340049D01*
X52537875Y-29336161D01*
X52464248Y-29324500D01*
X52464245Y-29324500D01*
X51960753Y-29324500D01*
X51960750Y-29324500D01*
X51862579Y-29340049D01*
X51862575Y-29340050D01*
X51744249Y-29400341D01*
X51650340Y-29494250D01*
X51586510Y-29619523D01*
X51583510Y-29617994D01*
X51556184Y-29655598D01*
X51498001Y-29674500D01*
X50313744Y-29674500D01*
X50264244Y-29661236D01*
X50164240Y-29603498D01*
X50164242Y-29603498D01*
X50122251Y-29592247D01*
X50056018Y-29574500D01*
X49943982Y-29574500D01*
X49877748Y-29592247D01*
X49835758Y-29603498D01*
X49735756Y-29661236D01*
X49686256Y-29674500D01*
X48501999Y-29674500D01*
X48443808Y-29655593D01*
X48416488Y-29617995D01*
X48413490Y-29619523D01*
X48371843Y-29537788D01*
X48349659Y-29494249D01*
X48255752Y-29400342D01*
X48154869Y-29348939D01*
X48137424Y-29340050D01*
X48137421Y-29340049D01*
X48112877Y-29336161D01*
X48039250Y-29324500D01*
X48039247Y-29324500D01*
X47535755Y-29324500D01*
X47535752Y-29324500D01*
X47437581Y-29340049D01*
X47437577Y-29340050D01*
X47319251Y-29400341D01*
X47225342Y-29494250D01*
X47165051Y-29612576D01*
X47165050Y-29612580D01*
X47149501Y-29710751D01*
X46850499Y-29710751D01*
X46834950Y-29612580D01*
X46774657Y-29494249D01*
X46680750Y-29400342D01*
X46579867Y-29348939D01*
X46562422Y-29340050D01*
X46562419Y-29340049D01*
X46537875Y-29336161D01*
X46464248Y-29324500D01*
X46464245Y-29324500D01*
X46452898Y-29324500D01*
X46437729Y-29319571D01*
X46421778Y-29319482D01*
X46409362Y-29310354D01*
X46394707Y-29305593D01*
X46385331Y-29292688D01*
X46372480Y-29283241D01*
X46367800Y-29268560D01*
X46358743Y-29256093D01*
X46358743Y-29240140D01*
X46353900Y-29224945D01*
X46358743Y-29210319D01*
X46358743Y-29194907D01*
X46368119Y-29182001D01*
X46373133Y-29166861D01*
X46385648Y-29157874D01*
X46394707Y-29145407D01*
X46422834Y-29131175D01*
X46564735Y-29085947D01*
X46570071Y-29084410D01*
X47238161Y-28912073D01*
X47243563Y-28910840D01*
X47920292Y-28776230D01*
X47925752Y-28775303D01*
X48608977Y-28678847D01*
X48614420Y-28678234D01*
X49302025Y-28620236D01*
X49307501Y-28619928D01*
X49997255Y-28600576D01*
X50002743Y-28600576D01*
X50692494Y-28619928D01*
G37*
%TD.AperFunction*%
%TD*%
M02*
