%TF.GenerationSoftware,KiCad,Pcbnew,9.0.5*%
%TF.CreationDate,2025-11-12T12:14:19+01:00*%
%TF.ProjectId,Control board,436f6e74-726f-46c2-9062-6f6172642e6b,rev?*%
%TF.SameCoordinates,Original*%
%TF.FileFunction,Soldermask,Top*%
%TF.FilePolarity,Negative*%
%FSLAX46Y46*%
G04 Gerber Fmt 4.6, Leading zero omitted, Abs format (unit mm)*
G04 Created by KiCad (PCBNEW 9.0.5) date 2025-11-12 12:14:19*
%MOMM*%
%LPD*%
G01*
G04 APERTURE LIST*
G04 Aperture macros list*
%AMRoundRect*
0 Rectangle with rounded corners*
0 $1 Rounding radius*
0 $2 $3 $4 $5 $6 $7 $8 $9 X,Y pos of 4 corners*
0 Add a 4 corners polygon primitive as box body*
4,1,4,$2,$3,$4,$5,$6,$7,$8,$9,$2,$3,0*
0 Add four circle primitives for the rounded corners*
1,1,$1+$1,$2,$3*
1,1,$1+$1,$4,$5*
1,1,$1+$1,$6,$7*
1,1,$1+$1,$8,$9*
0 Add four rect primitives between the rounded corners*
20,1,$1+$1,$2,$3,$4,$5,0*
20,1,$1+$1,$4,$5,$6,$7,0*
20,1,$1+$1,$6,$7,$8,$9,0*
20,1,$1+$1,$8,$9,$2,$3,0*%
%AMHorizOval*
0 Thick line with rounded ends*
0 $1 width*
0 $2 $3 position (X,Y) of the first rounded end (center of the circle)*
0 $4 $5 position (X,Y) of the second rounded end (center of the circle)*
0 Add line between two ends*
20,1,$1,$2,$3,$4,$5,0*
0 Add two circle primitives to create the rounded ends*
1,1,$1,$2,$3*
1,1,$1,$4,$5*%
%AMRotRect*
0 Rectangle, with rotation*
0 The origin of the aperture is its center*
0 $1 length*
0 $2 width*
0 $3 Rotation angle, in degrees counterclockwise*
0 Add horizontal line*
21,1,$1,$2,0,0,$3*%
G04 Aperture macros list end*
%ADD10R,5.500000X1.500000*%
%ADD11C,2.500000*%
%ADD12RoundRect,0.218750X0.218750X0.256250X-0.218750X0.256250X-0.218750X-0.256250X0.218750X-0.256250X0*%
%ADD13RoundRect,0.218750X-0.218750X-0.256250X0.218750X-0.256250X0.218750X0.256250X-0.218750X0.256250X0*%
%ADD14R,1.050000X1.150000*%
%ADD15C,0.550000*%
%ADD16R,0.850000X0.300000*%
%ADD17RoundRect,0.400000X0.750000X-0.100000X0.750000X0.100000X-0.750000X0.100000X-0.750000X-0.100000X0*%
%ADD18RoundRect,0.450000X0.550000X-0.320000X0.550000X0.320000X-0.550000X0.320000X-0.550000X-0.320000X0*%
%ADD19RoundRect,0.218750X0.335876X0.026517X0.026517X0.335876X-0.335876X-0.026517X-0.026517X-0.335876X0*%
%ADD20RoundRect,0.218750X0.026517X-0.335876X0.335876X-0.026517X-0.026517X0.335876X-0.335876X0.026517X0*%
%ADD21RotRect,1.700000X1.700000X225.000000*%
%ADD22HorizOval,1.700000X0.000000X0.000000X0.000000X0.000000X0*%
%ADD23R,1.700000X1.700000*%
%ADD24O,1.700000X1.700000*%
G04 APERTURE END LIST*
D10*
%TO.C,U6*%
X41950000Y-57050000D03*
X41950000Y-59050000D03*
X41950000Y-61050000D03*
X41950000Y-63050000D03*
%TD*%
D11*
%TO.C,TP3*%
X56400000Y-35600000D03*
%TD*%
D12*
%TO.C,D4*%
X53787501Y-30000000D03*
X52212499Y-30000000D03*
%TD*%
D13*
%TO.C,D3*%
X46212499Y-30000000D03*
X47787501Y-30000000D03*
%TD*%
D14*
%TO.C,SW1*%
X50750001Y-35700000D03*
X50750001Y-32300000D03*
X49249999Y-35700000D03*
X49249999Y-32300000D03*
%TD*%
%TO.C,SW2*%
X50750001Y-44700000D03*
X50750001Y-41300000D03*
X49249999Y-44700000D03*
X49249999Y-41300000D03*
%TD*%
D11*
%TO.C,TP4*%
X45800000Y-34700000D03*
%TD*%
D15*
%TO.C,J1*%
X57350000Y-46000000D03*
X57350000Y-39200000D03*
D16*
X55325000Y-45220000D03*
X55325000Y-44719999D03*
X55325000Y-44220000D03*
X55324999Y-43720000D03*
X55325000Y-43220000D03*
X55325000Y-42720000D03*
X55324999Y-42220000D03*
X55325000Y-41720000D03*
X55325000Y-41220001D03*
X55325000Y-40720000D03*
X55325000Y-40220000D03*
X55324999Y-39720000D03*
X56725000Y-39970000D03*
X56725000Y-40470000D03*
X56724999Y-40970000D03*
X56725000Y-41470000D03*
X56725000Y-41970000D03*
X56724999Y-42470000D03*
X56725000Y-42970000D03*
X56724999Y-43470000D03*
X56725000Y-43970000D03*
X56725000Y-44470000D03*
X56724999Y-44970000D03*
X56725000Y-45470000D03*
D17*
X60550000Y-46920000D03*
D18*
X55999999Y-46650000D03*
X55999999Y-38550000D03*
D17*
X60550000Y-38280000D03*
%TD*%
D11*
%TO.C,TP2*%
X52100000Y-38800000D03*
%TD*%
D19*
%TO.C,D5*%
X58556847Y-33556847D03*
X57443153Y-32443153D03*
%TD*%
D20*
%TO.C,D2*%
X41443153Y-33556847D03*
X42556847Y-32443153D03*
%TD*%
D11*
%TO.C,TP1*%
X39400000Y-46200000D03*
%TD*%
D21*
%TO.C,J3*%
X39812994Y-42000000D03*
D22*
X41609045Y-43796051D03*
X43405096Y-45592102D03*
X45201148Y-47388154D03*
%TD*%
D21*
%TO.C,BT1*%
X40400000Y-37400000D03*
D22*
X42196051Y-39196051D03*
%TD*%
D23*
%TO.C,J2*%
X59500000Y-63854999D03*
D24*
X59500000Y-61314999D03*
X59500000Y-58775000D03*
X59500000Y-56234999D03*
X59500000Y-53694999D03*
%TD*%
M02*
