%TF.GenerationSoftware,KiCad,Pcbnew,9.0.5*%
%TF.CreationDate,2025-11-12T12:14:19+01:00*%
%TF.ProjectId,Control board,436f6e74-726f-46c2-9062-6f6172642e6b,rev?*%
%TF.SameCoordinates,Original*%
%TF.FileFunction,Copper,L2,Inr*%
%TF.FilePolarity,Positive*%
%FSLAX46Y46*%
G04 Gerber Fmt 4.6, Leading zero omitted, Abs format (unit mm)*
G04 Created by KiCad (PCBNEW 9.0.5) date 2025-11-12 12:14:19*
%MOMM*%
%LPD*%
G01*
G04 APERTURE LIST*
G04 Aperture macros list*
%AMRoundRect*
0 Rectangle with rounded corners*
0 $1 Rounding radius*
0 $2 $3 $4 $5 $6 $7 $8 $9 X,Y pos of 4 corners*
0 Add a 4 corners polygon primitive as box body*
4,1,4,$2,$3,$4,$5,$6,$7,$8,$9,$2,$3,0*
0 Add four circle primitives for the rounded corners*
1,1,$1+$1,$2,$3*
1,1,$1+$1,$4,$5*
1,1,$1+$1,$6,$7*
1,1,$1+$1,$8,$9*
0 Add four rect primitives between the rounded corners*
20,1,$1+$1,$2,$3,$4,$5,0*
20,1,$1+$1,$4,$5,$6,$7,0*
20,1,$1+$1,$6,$7,$8,$9,0*
20,1,$1+$1,$8,$9,$2,$3,0*%
%AMHorizOval*
0 Thick line with rounded ends*
0 $1 width*
0 $2 $3 position (X,Y) of the first rounded end (center of the circle)*
0 $4 $5 position (X,Y) of the second rounded end (center of the circle)*
0 Add line between two ends*
20,1,$1,$2,$3,$4,$5,0*
0 Add two circle primitives to create the rounded ends*
1,1,$1,$2,$3*
1,1,$1,$4,$5*%
%AMRotRect*
0 Rectangle, with rotation*
0 The origin of the aperture is its center*
0 $1 length*
0 $2 width*
0 $3 Rotation angle, in degrees counterclockwise*
0 Add horizontal line*
21,1,$1,$2,0,0,$3*%
G04 Aperture macros list end*
%TA.AperFunction,ComponentPad*%
%ADD10RoundRect,0.400000X0.750000X-0.100000X0.750000X0.100000X-0.750000X0.100000X-0.750000X-0.100000X0*%
%TD*%
%TA.AperFunction,ComponentPad*%
%ADD11RoundRect,0.450000X0.550000X-0.320000X0.550000X0.320000X-0.550000X0.320000X-0.550000X-0.320000X0*%
%TD*%
%TA.AperFunction,ComponentPad*%
%ADD12RotRect,1.700000X1.700000X225.000000*%
%TD*%
%TA.AperFunction,ComponentPad*%
%ADD13HorizOval,1.700000X0.000000X0.000000X0.000000X0.000000X0*%
%TD*%
%TA.AperFunction,ComponentPad*%
%ADD14R,1.700000X1.700000*%
%TD*%
%TA.AperFunction,ComponentPad*%
%ADD15O,1.700000X1.700000*%
%TD*%
%TA.AperFunction,ViaPad*%
%ADD16C,0.450000*%
%TD*%
%TA.AperFunction,ViaPad*%
%ADD17C,0.800000*%
%TD*%
G04 APERTURE END LIST*
D10*
%TO.N,Net-(J1-SHIELD)*%
%TO.C,J1*%
X60550000Y-46920000D03*
D11*
X55999999Y-46650000D03*
X55999999Y-38550000D03*
D10*
X60550000Y-38280000D03*
%TD*%
D12*
%TO.N,GND*%
%TO.C,J3*%
X39812994Y-42000000D03*
D13*
%TO.N,+10V*%
X41609045Y-43796051D03*
%TO.N,Tx*%
X43405096Y-45592102D03*
%TO.N,Rx*%
X45201148Y-47388154D03*
%TD*%
D12*
%TO.N,+BATT*%
%TO.C,BT1*%
X40400000Y-37400000D03*
D13*
%TO.N,GND*%
X42196051Y-39196051D03*
%TD*%
D14*
%TO.N,GND*%
%TO.C,J2*%
X59500000Y-63854999D03*
D15*
%TO.N,+3.3V*%
X59500000Y-61314999D03*
%TO.N,~{RESET}*%
X59500000Y-58775000D03*
%TO.N,SWCLK*%
X59500000Y-56234999D03*
%TO.N,SWDIO*%
X59500000Y-53694999D03*
%TD*%
D16*
%TO.N,LED1*%
X52100000Y-43600000D03*
X43800000Y-35400000D03*
%TO.N,BTN1*%
X54925676Y-48861926D03*
%TO.N,+3.3V*%
X41800000Y-65800000D03*
X49600000Y-38700000D03*
X40825000Y-64825000D03*
X44500000Y-64800000D03*
X42300000Y-66300000D03*
X43400000Y-31600000D03*
X45000000Y-42300000D03*
X49000000Y-52500000D03*
X38300000Y-59073294D03*
X50000000Y-30000000D03*
X41300000Y-65300000D03*
X52333822Y-40875000D03*
X56600000Y-31600000D03*
D17*
%TO.N,GND*%
X43500000Y-67500000D03*
X50000000Y-37000000D03*
X61500000Y-41100000D03*
D16*
X47250000Y-44350000D03*
D17*
X51000000Y-70000000D03*
X52400000Y-62400000D03*
X51500000Y-57600000D03*
D16*
X46300000Y-49700000D03*
X44500000Y-51100000D03*
D17*
X40500000Y-34500000D03*
X45000000Y-32000000D03*
D16*
X57300000Y-54900000D03*
X51200000Y-52000000D03*
D17*
X43500000Y-65500000D03*
X45000000Y-39500000D03*
D16*
X51778439Y-43064065D03*
D17*
X56400000Y-62400000D03*
X54400000Y-62400000D03*
D16*
X50400000Y-53000000D03*
D17*
X39000000Y-55000000D03*
D16*
X52300000Y-42600000D03*
D17*
X50000000Y-70000000D03*
X55000000Y-51500000D03*
D16*
X46050000Y-41650000D03*
D17*
X59500000Y-36500000D03*
X54200000Y-57600000D03*
X43500000Y-66500000D03*
X55400000Y-62400000D03*
X49000000Y-70000000D03*
X55000000Y-32000000D03*
D16*
X50200000Y-55300000D03*
D17*
X53400000Y-62400000D03*
X39000000Y-53000000D03*
D16*
%TO.N,+BATT*%
X45200000Y-58000000D03*
%TO.N,BTN2*%
X54400000Y-49200000D03*
%TO.N,Net-(D2-K)*%
X42400000Y-34200000D03*
%TO.N,LED2*%
X52500000Y-44200000D03*
X47300000Y-33200000D03*
%TO.N,Net-(D3-K)*%
X45900000Y-31100000D03*
%TO.N,+10V*%
X41300000Y-46200000D03*
%TO.N,Net-(D4-K)*%
X53900000Y-31100000D03*
%TO.N,Net-(D5-K)*%
X57600000Y-34200000D03*
%TO.N,VBUS*%
X48900000Y-59800000D03*
X57100000Y-53000000D03*
%TO.N,LED3*%
X50900000Y-33300000D03*
X53600000Y-45100000D03*
%TO.N,LED4*%
X54200000Y-35500000D03*
X53300000Y-46000000D03*
%TO.N,USB_D+*%
X54381602Y-42802288D03*
X57900000Y-42375000D03*
%TO.N,USB_D-*%
X57900000Y-43025003D03*
X53835855Y-43106901D03*
%TO.N,Rx*%
X54402750Y-46900000D03*
%TO.N,Tx*%
X54400000Y-46100000D03*
%TO.N,Net-(J1-CC2)*%
X58400000Y-41100000D03*
%TO.N,Net-(J1-CC1)*%
X54200000Y-43900000D03*
%TO.N,PWREN*%
X49000000Y-61000000D03*
X53300000Y-51600000D03*
X47100000Y-55600000D03*
%TO.N,VBUS_S*%
X55400000Y-53000000D03*
X47700000Y-46574997D03*
%TO.N,Net-(U3-PA06)*%
X40300000Y-54300000D03*
X47700000Y-47200000D03*
%TO.N,AY*%
X47200000Y-48900000D03*
%TO.N,AX*%
X47500000Y-49500000D03*
%TO.N,CE*%
X45200000Y-59800000D03*
X47700000Y-50500000D03*
%TO.N,IO2*%
X47000000Y-38500000D03*
X55600000Y-49100000D03*
%TO.N,IO1*%
X54300000Y-47700000D03*
X45400000Y-45500000D03*
%TO.N,Net-(Q1-D)*%
X46800000Y-56200000D03*
%TD*%
%TA.AperFunction,Conductor*%
%TO.N,+3.3V*%
G36*
X50691783Y-28619908D02*
G01*
X50698696Y-28620297D01*
X51384867Y-28678174D01*
X51391723Y-28678946D01*
X52073564Y-28775206D01*
X52080387Y-28776366D01*
X52755747Y-28910703D01*
X52762480Y-28912239D01*
X53429274Y-29084241D01*
X53435925Y-29086158D01*
X54091991Y-29295265D01*
X54098528Y-29297552D01*
X54741853Y-29543122D01*
X54748246Y-29545770D01*
X55376775Y-29827019D01*
X55383021Y-29830027D01*
X55793322Y-30041993D01*
X55994779Y-30146068D01*
X56000866Y-30149432D01*
X56593934Y-30499274D01*
X56599824Y-30502975D01*
X57172347Y-30885523D01*
X57178019Y-30889548D01*
X57728173Y-31303582D01*
X57733611Y-31307918D01*
X57890604Y-31440486D01*
X58116554Y-31631284D01*
X58259701Y-31752160D01*
X58264883Y-31756790D01*
X58765260Y-32229856D01*
X58770142Y-32234738D01*
X59115940Y-32600500D01*
X59243203Y-32735110D01*
X59247838Y-32740297D01*
X59692080Y-33266387D01*
X59696416Y-33271825D01*
X60110450Y-33821979D01*
X60114475Y-33827651D01*
X60497023Y-34400174D01*
X60500724Y-34406064D01*
X60850566Y-34999132D01*
X60853930Y-35005219D01*
X61169966Y-35616967D01*
X61172984Y-35623234D01*
X61454221Y-36251736D01*
X61456883Y-36258162D01*
X61702441Y-36901456D01*
X61704738Y-36908021D01*
X61913835Y-37564056D01*
X61915760Y-37570739D01*
X61930379Y-37627411D01*
X61928064Y-37697242D01*
X61888363Y-37754736D01*
X61823880Y-37781639D01*
X61755089Y-37769409D01*
X61735668Y-37755442D01*
X61734729Y-37756666D01*
X61728283Y-37751720D01*
X61728282Y-37751718D01*
X61602841Y-37655464D01*
X61537150Y-37628254D01*
X61456762Y-37594956D01*
X61456760Y-37594955D01*
X61339370Y-37579501D01*
X61339367Y-37579500D01*
X61339361Y-37579500D01*
X61339354Y-37579500D01*
X59760636Y-37579500D01*
X59643246Y-37594953D01*
X59643237Y-37594956D01*
X59497160Y-37655463D01*
X59371718Y-37751718D01*
X59275463Y-37877160D01*
X59214956Y-38023237D01*
X59214955Y-38023239D01*
X59199500Y-38140638D01*
X59199500Y-38419363D01*
X59214953Y-38536753D01*
X59214956Y-38536762D01*
X59267757Y-38664236D01*
X59275464Y-38682841D01*
X59371718Y-38808282D01*
X59497159Y-38904536D01*
X59643238Y-38965044D01*
X59760639Y-38980500D01*
X61339360Y-38980499D01*
X61339363Y-38980499D01*
X61456753Y-38965046D01*
X61456757Y-38965044D01*
X61456762Y-38965044D01*
X61602841Y-38904536D01*
X61728282Y-38808282D01*
X61824536Y-38682841D01*
X61885044Y-38536762D01*
X61891530Y-38487490D01*
X61919796Y-38423595D01*
X61978120Y-38385123D01*
X62047985Y-38384291D01*
X62107208Y-38421363D01*
X62136086Y-38479485D01*
X62223629Y-38919594D01*
X62224794Y-38926451D01*
X62321048Y-39608247D01*
X62321827Y-39615159D01*
X62379700Y-40301286D01*
X62380090Y-40308230D01*
X62399451Y-40998253D01*
X62399500Y-41001731D01*
X62399500Y-58998269D01*
X62399451Y-59001747D01*
X62380090Y-59691770D01*
X62379700Y-59698714D01*
X62321827Y-60384841D01*
X62321048Y-60391753D01*
X62224794Y-61073548D01*
X62223629Y-61080405D01*
X62089300Y-61755724D01*
X62087753Y-61762505D01*
X61915761Y-62429260D01*
X61913835Y-62435944D01*
X61704738Y-63091978D01*
X61702441Y-63098543D01*
X61456883Y-63741837D01*
X61454221Y-63748263D01*
X61172984Y-64376765D01*
X61169966Y-64383032D01*
X60853930Y-64994780D01*
X60850566Y-65000867D01*
X60500724Y-65593936D01*
X60497023Y-65599826D01*
X60114475Y-66172349D01*
X60110450Y-66178021D01*
X59696416Y-66728175D01*
X59692080Y-66733613D01*
X59247830Y-67259712D01*
X59243206Y-67264885D01*
X58946187Y-67579055D01*
X58770161Y-67765244D01*
X58765242Y-67770162D01*
X58264884Y-68243207D01*
X58259711Y-68247831D01*
X57733612Y-68692081D01*
X57728174Y-68696417D01*
X57178020Y-69110451D01*
X57172348Y-69114476D01*
X56599825Y-69497024D01*
X56593935Y-69500725D01*
X56000866Y-69850567D01*
X55994779Y-69853931D01*
X55383031Y-70169967D01*
X55376764Y-70172985D01*
X54748262Y-70454222D01*
X54741836Y-70456884D01*
X54098542Y-70702442D01*
X54091977Y-70704739D01*
X53435943Y-70913836D01*
X53429259Y-70915762D01*
X52762504Y-71087754D01*
X52755723Y-71089301D01*
X52080404Y-71223630D01*
X52073547Y-71224795D01*
X51391752Y-71321049D01*
X51384840Y-71321828D01*
X50698713Y-71379701D01*
X50691769Y-71380091D01*
X50003478Y-71399403D01*
X49996522Y-71399403D01*
X49308230Y-71380091D01*
X49301286Y-71379701D01*
X48615159Y-71321828D01*
X48608247Y-71321049D01*
X47926452Y-71224795D01*
X47919595Y-71223630D01*
X47244276Y-71089301D01*
X47237495Y-71087754D01*
X46570740Y-70915762D01*
X46564056Y-70913836D01*
X45908022Y-70704739D01*
X45901457Y-70702442D01*
X45258163Y-70456884D01*
X45251737Y-70454222D01*
X44623235Y-70172985D01*
X44616968Y-70169967D01*
X44332452Y-70022983D01*
X44134934Y-69920943D01*
X48399500Y-69920943D01*
X48399500Y-70079056D01*
X48440423Y-70231783D01*
X48440426Y-70231790D01*
X48519475Y-70368709D01*
X48519479Y-70368714D01*
X48519480Y-70368716D01*
X48631284Y-70480520D01*
X48631286Y-70480521D01*
X48631290Y-70480524D01*
X48768209Y-70559573D01*
X48768216Y-70559577D01*
X48920943Y-70600500D01*
X48920945Y-70600500D01*
X49079055Y-70600500D01*
X49079057Y-70600500D01*
X49231784Y-70559577D01*
X49368716Y-70480520D01*
X49412319Y-70436917D01*
X49473642Y-70403432D01*
X49543334Y-70408416D01*
X49587681Y-70436917D01*
X49631284Y-70480520D01*
X49631286Y-70480521D01*
X49631290Y-70480524D01*
X49768209Y-70559573D01*
X49768216Y-70559577D01*
X49920943Y-70600500D01*
X49920945Y-70600500D01*
X50079055Y-70600500D01*
X50079057Y-70600500D01*
X50231784Y-70559577D01*
X50368716Y-70480520D01*
X50412319Y-70436917D01*
X50473642Y-70403432D01*
X50543334Y-70408416D01*
X50587681Y-70436917D01*
X50631284Y-70480520D01*
X50631286Y-70480521D01*
X50631290Y-70480524D01*
X50768209Y-70559573D01*
X50768216Y-70559577D01*
X50920943Y-70600500D01*
X50920945Y-70600500D01*
X51079055Y-70600500D01*
X51079057Y-70600500D01*
X51231784Y-70559577D01*
X51368716Y-70480520D01*
X51480520Y-70368716D01*
X51559577Y-70231784D01*
X51600500Y-70079057D01*
X51600500Y-69920943D01*
X51559577Y-69768216D01*
X51500000Y-69665024D01*
X51480524Y-69631290D01*
X51480518Y-69631282D01*
X51368717Y-69519481D01*
X51368709Y-69519475D01*
X51231790Y-69440426D01*
X51231786Y-69440424D01*
X51231784Y-69440423D01*
X51079057Y-69399500D01*
X50920943Y-69399500D01*
X50768216Y-69440423D01*
X50768209Y-69440426D01*
X50631290Y-69519475D01*
X50631282Y-69519481D01*
X50587681Y-69563083D01*
X50526358Y-69596568D01*
X50456666Y-69591584D01*
X50412319Y-69563083D01*
X50368717Y-69519481D01*
X50368709Y-69519475D01*
X50231790Y-69440426D01*
X50231786Y-69440424D01*
X50231784Y-69440423D01*
X50079057Y-69399500D01*
X49920943Y-69399500D01*
X49768216Y-69440423D01*
X49768209Y-69440426D01*
X49631290Y-69519475D01*
X49631282Y-69519481D01*
X49587681Y-69563083D01*
X49526358Y-69596568D01*
X49456666Y-69591584D01*
X49412319Y-69563083D01*
X49368717Y-69519481D01*
X49368709Y-69519475D01*
X49231790Y-69440426D01*
X49231786Y-69440424D01*
X49231784Y-69440423D01*
X49079057Y-69399500D01*
X48920943Y-69399500D01*
X48768216Y-69440423D01*
X48768209Y-69440426D01*
X48631290Y-69519475D01*
X48631282Y-69519481D01*
X48519481Y-69631282D01*
X48519475Y-69631290D01*
X48440426Y-69768209D01*
X48440423Y-69768216D01*
X48399500Y-69920943D01*
X44134934Y-69920943D01*
X44005220Y-69853931D01*
X43999133Y-69850567D01*
X43406064Y-69500725D01*
X43400174Y-69497024D01*
X42827651Y-69114476D01*
X42821979Y-69110451D01*
X42271825Y-68696417D01*
X42266387Y-68692081D01*
X42043634Y-68503983D01*
X41740276Y-68247820D01*
X41735132Y-68243224D01*
X41234738Y-67770144D01*
X41229856Y-67765262D01*
X40756775Y-67264866D01*
X40752182Y-67259727D01*
X40307919Y-66733613D01*
X40303583Y-66728175D01*
X39889549Y-66178021D01*
X39885524Y-66172349D01*
X39502976Y-65599826D01*
X39499286Y-65593955D01*
X39397229Y-65420943D01*
X42899500Y-65420943D01*
X42899500Y-65579056D01*
X42940423Y-65731783D01*
X42940426Y-65731790D01*
X43019475Y-65868709D01*
X43019481Y-65868717D01*
X43063083Y-65912319D01*
X43096568Y-65973642D01*
X43091584Y-66043334D01*
X43063083Y-66087681D01*
X43019481Y-66131282D01*
X43019475Y-66131290D01*
X42940426Y-66268209D01*
X42940423Y-66268216D01*
X42899500Y-66420943D01*
X42899500Y-66579056D01*
X42940423Y-66731783D01*
X42940426Y-66731790D01*
X43019475Y-66868709D01*
X43019481Y-66868717D01*
X43063083Y-66912319D01*
X43096568Y-66973642D01*
X43091584Y-67043334D01*
X43063083Y-67087681D01*
X43019481Y-67131282D01*
X43019475Y-67131290D01*
X42940426Y-67268209D01*
X42940423Y-67268216D01*
X42899500Y-67420943D01*
X42899500Y-67579056D01*
X42940423Y-67731783D01*
X42940426Y-67731790D01*
X43019475Y-67868709D01*
X43019479Y-67868714D01*
X43019480Y-67868716D01*
X43131284Y-67980520D01*
X43131286Y-67980521D01*
X43131290Y-67980524D01*
X43268209Y-68059573D01*
X43268216Y-68059577D01*
X43420943Y-68100500D01*
X43420945Y-68100500D01*
X43579055Y-68100500D01*
X43579057Y-68100500D01*
X43731784Y-68059577D01*
X43868716Y-67980520D01*
X43980520Y-67868716D01*
X44059577Y-67731784D01*
X44100500Y-67579057D01*
X44100500Y-67420943D01*
X44059577Y-67268216D01*
X43990132Y-67147932D01*
X43980524Y-67131290D01*
X43980518Y-67131282D01*
X43936917Y-67087681D01*
X43903432Y-67026358D01*
X43908416Y-66956666D01*
X43936917Y-66912319D01*
X43980520Y-66868716D01*
X44059577Y-66731784D01*
X44100500Y-66579057D01*
X44100500Y-66420943D01*
X44059577Y-66268216D01*
X44059573Y-66268209D01*
X43980524Y-66131290D01*
X43980518Y-66131282D01*
X43936917Y-66087681D01*
X43903432Y-66026358D01*
X43908416Y-65956666D01*
X43936917Y-65912319D01*
X43980520Y-65868716D01*
X44059577Y-65731784D01*
X44100500Y-65579057D01*
X44100500Y-65420943D01*
X44059577Y-65268216D01*
X44059573Y-65268209D01*
X43980524Y-65131290D01*
X43980518Y-65131282D01*
X43868717Y-65019481D01*
X43868709Y-65019475D01*
X43731790Y-64940426D01*
X43731786Y-64940424D01*
X43731784Y-64940423D01*
X43579057Y-64899500D01*
X43420943Y-64899500D01*
X43268216Y-64940423D01*
X43268209Y-64940426D01*
X43131290Y-65019475D01*
X43131282Y-65019481D01*
X43019481Y-65131282D01*
X43019475Y-65131290D01*
X42940426Y-65268209D01*
X42940423Y-65268216D01*
X42899500Y-65420943D01*
X39397229Y-65420943D01*
X39149431Y-65000863D01*
X39146069Y-64994780D01*
X39117988Y-64940423D01*
X38830028Y-64383022D01*
X38827015Y-64376765D01*
X38545771Y-63748247D01*
X38543123Y-63741854D01*
X38297553Y-63098529D01*
X38295261Y-63091978D01*
X38086159Y-62435927D01*
X38084245Y-62429286D01*
X38056297Y-62320943D01*
X51799500Y-62320943D01*
X51799500Y-62479056D01*
X51840423Y-62631783D01*
X51840426Y-62631790D01*
X51919475Y-62768709D01*
X51919479Y-62768714D01*
X51919480Y-62768716D01*
X52031284Y-62880520D01*
X52031286Y-62880521D01*
X52031290Y-62880524D01*
X52111390Y-62926769D01*
X52168216Y-62959577D01*
X52320943Y-63000500D01*
X52320945Y-63000500D01*
X52479055Y-63000500D01*
X52479057Y-63000500D01*
X52631784Y-62959577D01*
X52768716Y-62880520D01*
X52812319Y-62836917D01*
X52873642Y-62803432D01*
X52943334Y-62808416D01*
X52987681Y-62836917D01*
X53031284Y-62880520D01*
X53031286Y-62880521D01*
X53031290Y-62880524D01*
X53111390Y-62926769D01*
X53168216Y-62959577D01*
X53320943Y-63000500D01*
X53320945Y-63000500D01*
X53479055Y-63000500D01*
X53479057Y-63000500D01*
X53631784Y-62959577D01*
X53768716Y-62880520D01*
X53812319Y-62836917D01*
X53873642Y-62803432D01*
X53943334Y-62808416D01*
X53987681Y-62836917D01*
X54031284Y-62880520D01*
X54031286Y-62880521D01*
X54031290Y-62880524D01*
X54111390Y-62926769D01*
X54168216Y-62959577D01*
X54320943Y-63000500D01*
X54320945Y-63000500D01*
X54479055Y-63000500D01*
X54479057Y-63000500D01*
X54631784Y-62959577D01*
X54768716Y-62880520D01*
X54812319Y-62836917D01*
X54873642Y-62803432D01*
X54943334Y-62808416D01*
X54987681Y-62836917D01*
X55031284Y-62880520D01*
X55031286Y-62880521D01*
X55031290Y-62880524D01*
X55111390Y-62926769D01*
X55168216Y-62959577D01*
X55320943Y-63000500D01*
X55320945Y-63000500D01*
X55479055Y-63000500D01*
X55479057Y-63000500D01*
X55631784Y-62959577D01*
X55768716Y-62880520D01*
X55812319Y-62836917D01*
X55873642Y-62803432D01*
X55943334Y-62808416D01*
X55987681Y-62836917D01*
X56031284Y-62880520D01*
X56031286Y-62880521D01*
X56031290Y-62880524D01*
X56111390Y-62926769D01*
X56168216Y-62959577D01*
X56320943Y-63000500D01*
X56320945Y-63000500D01*
X56479055Y-63000500D01*
X56479057Y-63000500D01*
X56535986Y-62985246D01*
X58449500Y-62985246D01*
X58449500Y-64724751D01*
X58461131Y-64783228D01*
X58461132Y-64783229D01*
X58505447Y-64849551D01*
X58571769Y-64893866D01*
X58571770Y-64893867D01*
X58630247Y-64905498D01*
X58630250Y-64905499D01*
X58630252Y-64905499D01*
X60369750Y-64905499D01*
X60369751Y-64905498D01*
X60384568Y-64902551D01*
X60428229Y-64893867D01*
X60428229Y-64893866D01*
X60428231Y-64893866D01*
X60494552Y-64849551D01*
X60538867Y-64783230D01*
X60538867Y-64783228D01*
X60538868Y-64783228D01*
X60550499Y-64724751D01*
X60550500Y-64724749D01*
X60550500Y-62985248D01*
X60550499Y-62985246D01*
X60538868Y-62926769D01*
X60538867Y-62926768D01*
X60494552Y-62860446D01*
X60428230Y-62816131D01*
X60428229Y-62816130D01*
X60369752Y-62804499D01*
X60369748Y-62804499D01*
X58630252Y-62804499D01*
X58630247Y-62804499D01*
X58571770Y-62816130D01*
X58571769Y-62816131D01*
X58505447Y-62860446D01*
X58461132Y-62926768D01*
X58461131Y-62926769D01*
X58449500Y-62985246D01*
X56535986Y-62985246D01*
X56631784Y-62959577D01*
X56768716Y-62880520D01*
X56880520Y-62768716D01*
X56959577Y-62631784D01*
X57000500Y-62479057D01*
X57000500Y-62320943D01*
X56959577Y-62168216D01*
X56900000Y-62065024D01*
X56880524Y-62031290D01*
X56880518Y-62031282D01*
X56768717Y-61919481D01*
X56768709Y-61919475D01*
X56631790Y-61840426D01*
X56631786Y-61840424D01*
X56631784Y-61840423D01*
X56479057Y-61799500D01*
X56320943Y-61799500D01*
X56168216Y-61840423D01*
X56168209Y-61840426D01*
X56031290Y-61919475D01*
X56031282Y-61919481D01*
X55987681Y-61963083D01*
X55926358Y-61996568D01*
X55856666Y-61991584D01*
X55812319Y-61963083D01*
X55768717Y-61919481D01*
X55768709Y-61919475D01*
X55631790Y-61840426D01*
X55631786Y-61840424D01*
X55631784Y-61840423D01*
X55479057Y-61799500D01*
X55320943Y-61799500D01*
X55168216Y-61840423D01*
X55168209Y-61840426D01*
X55031290Y-61919475D01*
X55031282Y-61919481D01*
X54987681Y-61963083D01*
X54926358Y-61996568D01*
X54856666Y-61991584D01*
X54812319Y-61963083D01*
X54768717Y-61919481D01*
X54768709Y-61919475D01*
X54631790Y-61840426D01*
X54631786Y-61840424D01*
X54631784Y-61840423D01*
X54479057Y-61799500D01*
X54320943Y-61799500D01*
X54168216Y-61840423D01*
X54168209Y-61840426D01*
X54031290Y-61919475D01*
X54031282Y-61919481D01*
X53987681Y-61963083D01*
X53926358Y-61996568D01*
X53856666Y-61991584D01*
X53812319Y-61963083D01*
X53768717Y-61919481D01*
X53768709Y-61919475D01*
X53631790Y-61840426D01*
X53631786Y-61840424D01*
X53631784Y-61840423D01*
X53479057Y-61799500D01*
X53320943Y-61799500D01*
X53168216Y-61840423D01*
X53168209Y-61840426D01*
X53031290Y-61919475D01*
X53031282Y-61919481D01*
X52987681Y-61963083D01*
X52926358Y-61996568D01*
X52856666Y-61991584D01*
X52812319Y-61963083D01*
X52768717Y-61919481D01*
X52768709Y-61919475D01*
X52631790Y-61840426D01*
X52631786Y-61840424D01*
X52631784Y-61840423D01*
X52479057Y-61799500D01*
X52320943Y-61799500D01*
X52168216Y-61840423D01*
X52168209Y-61840426D01*
X52031290Y-61919475D01*
X52031282Y-61919481D01*
X51919481Y-62031282D01*
X51919475Y-62031290D01*
X51840426Y-62168209D01*
X51840423Y-62168216D01*
X51799500Y-62320943D01*
X38056297Y-62320943D01*
X37912240Y-61762481D01*
X37910704Y-61755748D01*
X37776367Y-61080388D01*
X37775207Y-61073565D01*
X37756913Y-60943982D01*
X48574500Y-60943982D01*
X48574500Y-61056018D01*
X48603497Y-61164237D01*
X48659515Y-61261263D01*
X48738737Y-61340485D01*
X48835763Y-61396503D01*
X48943982Y-61425500D01*
X48943984Y-61425500D01*
X49056016Y-61425500D01*
X49056018Y-61425500D01*
X49164237Y-61396503D01*
X49261263Y-61340485D01*
X49340485Y-61261263D01*
X49396503Y-61164237D01*
X49425500Y-61056018D01*
X49425500Y-60943982D01*
X49396503Y-60835763D01*
X49340485Y-60738737D01*
X49261263Y-60659515D01*
X49164237Y-60603497D01*
X49056018Y-60574500D01*
X48943982Y-60574500D01*
X48835763Y-60603497D01*
X48835760Y-60603498D01*
X48738740Y-60659513D01*
X48738734Y-60659517D01*
X48659517Y-60738734D01*
X48659513Y-60738740D01*
X48603498Y-60835760D01*
X48603497Y-60835763D01*
X48574500Y-60943982D01*
X37756913Y-60943982D01*
X37678947Y-60391725D01*
X37678175Y-60384869D01*
X37624118Y-59743982D01*
X44774500Y-59743982D01*
X44774500Y-59856018D01*
X44803497Y-59964237D01*
X44859515Y-60061263D01*
X44938737Y-60140485D01*
X45035763Y-60196503D01*
X45143982Y-60225500D01*
X45143984Y-60225500D01*
X45256016Y-60225500D01*
X45256018Y-60225500D01*
X45364237Y-60196503D01*
X45461263Y-60140485D01*
X45540485Y-60061263D01*
X45596503Y-59964237D01*
X45625500Y-59856018D01*
X45625500Y-59743982D01*
X48474500Y-59743982D01*
X48474500Y-59856018D01*
X48503497Y-59964237D01*
X48559515Y-60061263D01*
X48638737Y-60140485D01*
X48735763Y-60196503D01*
X48843982Y-60225500D01*
X48843984Y-60225500D01*
X48956016Y-60225500D01*
X48956018Y-60225500D01*
X49064237Y-60196503D01*
X49161263Y-60140485D01*
X49240485Y-60061263D01*
X49296503Y-59964237D01*
X49325500Y-59856018D01*
X49325500Y-59743982D01*
X49296503Y-59635763D01*
X49240485Y-59538737D01*
X49161263Y-59459515D01*
X49064237Y-59403497D01*
X48956018Y-59374500D01*
X48843982Y-59374500D01*
X48735763Y-59403497D01*
X48735760Y-59403498D01*
X48638740Y-59459513D01*
X48638734Y-59459517D01*
X48559517Y-59538734D01*
X48559513Y-59538740D01*
X48503498Y-59635760D01*
X48503497Y-59635763D01*
X48474500Y-59743982D01*
X45625500Y-59743982D01*
X45596503Y-59635763D01*
X45540485Y-59538737D01*
X45461263Y-59459515D01*
X45364237Y-59403497D01*
X45256018Y-59374500D01*
X45143982Y-59374500D01*
X45035763Y-59403497D01*
X45035760Y-59403498D01*
X44938740Y-59459513D01*
X44938734Y-59459517D01*
X44859517Y-59538734D01*
X44859513Y-59538740D01*
X44803498Y-59635760D01*
X44803497Y-59635763D01*
X44774500Y-59743982D01*
X37624118Y-59743982D01*
X37620298Y-59698698D01*
X37619909Y-59691770D01*
X37615615Y-59538740D01*
X37600549Y-59001747D01*
X37600500Y-58998269D01*
X37600500Y-58671530D01*
X58449500Y-58671530D01*
X58449500Y-58878469D01*
X58489868Y-59081412D01*
X58489870Y-59081420D01*
X58569058Y-59272596D01*
X58684024Y-59444657D01*
X58830342Y-59590975D01*
X58830345Y-59590977D01*
X59002402Y-59705941D01*
X59193580Y-59785130D01*
X59396530Y-59825499D01*
X59396534Y-59825500D01*
X59396535Y-59825500D01*
X59603466Y-59825500D01*
X59603467Y-59825499D01*
X59806420Y-59785130D01*
X59997598Y-59705941D01*
X60169655Y-59590977D01*
X60315977Y-59444655D01*
X60430941Y-59272598D01*
X60510130Y-59081420D01*
X60550500Y-58878465D01*
X60550500Y-58671535D01*
X60510130Y-58468580D01*
X60430941Y-58277402D01*
X60315977Y-58105345D01*
X60315975Y-58105342D01*
X60169657Y-57959024D01*
X60083626Y-57901541D01*
X59997598Y-57844059D01*
X59967978Y-57831790D01*
X59806420Y-57764870D01*
X59806412Y-57764868D01*
X59603469Y-57724500D01*
X59603465Y-57724500D01*
X59396535Y-57724500D01*
X59396530Y-57724500D01*
X59193587Y-57764868D01*
X59193579Y-57764870D01*
X59002403Y-57844058D01*
X58830342Y-57959024D01*
X58684024Y-58105342D01*
X58569058Y-58277403D01*
X58489870Y-58468579D01*
X58489868Y-58468587D01*
X58449500Y-58671530D01*
X37600500Y-58671530D01*
X37600500Y-57943982D01*
X44774500Y-57943982D01*
X44774500Y-58056018D01*
X44803497Y-58164237D01*
X44859515Y-58261263D01*
X44938737Y-58340485D01*
X45035763Y-58396503D01*
X45143982Y-58425500D01*
X45143984Y-58425500D01*
X45256016Y-58425500D01*
X45256018Y-58425500D01*
X45364237Y-58396503D01*
X45461263Y-58340485D01*
X45540485Y-58261263D01*
X45596503Y-58164237D01*
X45625500Y-58056018D01*
X45625500Y-57943982D01*
X45596503Y-57835763D01*
X45540485Y-57738737D01*
X45461263Y-57659515D01*
X45364237Y-57603497D01*
X45256018Y-57574500D01*
X45143982Y-57574500D01*
X45035763Y-57603497D01*
X45035760Y-57603498D01*
X44938740Y-57659513D01*
X44938734Y-57659517D01*
X44859517Y-57738734D01*
X44859513Y-57738740D01*
X44803498Y-57835760D01*
X44803497Y-57835763D01*
X44774500Y-57943982D01*
X37600500Y-57943982D01*
X37600500Y-57520943D01*
X50899500Y-57520943D01*
X50899500Y-57679057D01*
X50922494Y-57764870D01*
X50940423Y-57831783D01*
X50940426Y-57831790D01*
X51019475Y-57968709D01*
X51019479Y-57968714D01*
X51019480Y-57968716D01*
X51131284Y-58080520D01*
X51131286Y-58080521D01*
X51131290Y-58080524D01*
X51268209Y-58159573D01*
X51268216Y-58159577D01*
X51420943Y-58200500D01*
X51420945Y-58200500D01*
X51579055Y-58200500D01*
X51579057Y-58200500D01*
X51731784Y-58159577D01*
X51868716Y-58080520D01*
X51980520Y-57968716D01*
X52059577Y-57831784D01*
X52100500Y-57679057D01*
X52100500Y-57520943D01*
X53599500Y-57520943D01*
X53599500Y-57679057D01*
X53622494Y-57764870D01*
X53640423Y-57831783D01*
X53640426Y-57831790D01*
X53719475Y-57968709D01*
X53719479Y-57968714D01*
X53719480Y-57968716D01*
X53831284Y-58080520D01*
X53831286Y-58080521D01*
X53831290Y-58080524D01*
X53968209Y-58159573D01*
X53968216Y-58159577D01*
X54120943Y-58200500D01*
X54120945Y-58200500D01*
X54279055Y-58200500D01*
X54279057Y-58200500D01*
X54431784Y-58159577D01*
X54568716Y-58080520D01*
X54680520Y-57968716D01*
X54759577Y-57831784D01*
X54800500Y-57679057D01*
X54800500Y-57520943D01*
X54759577Y-57368216D01*
X54711821Y-57285499D01*
X54680524Y-57231290D01*
X54680518Y-57231282D01*
X54568717Y-57119481D01*
X54568709Y-57119475D01*
X54431790Y-57040426D01*
X54431786Y-57040424D01*
X54431784Y-57040423D01*
X54279057Y-56999500D01*
X54120943Y-56999500D01*
X53968216Y-57040423D01*
X53968209Y-57040426D01*
X53831290Y-57119475D01*
X53831282Y-57119481D01*
X53719481Y-57231282D01*
X53719475Y-57231290D01*
X53640426Y-57368209D01*
X53640423Y-57368216D01*
X53599500Y-57520943D01*
X52100500Y-57520943D01*
X52059577Y-57368216D01*
X52011821Y-57285499D01*
X51980524Y-57231290D01*
X51980518Y-57231282D01*
X51868717Y-57119481D01*
X51868709Y-57119475D01*
X51731790Y-57040426D01*
X51731786Y-57040424D01*
X51731784Y-57040423D01*
X51579057Y-56999500D01*
X51420943Y-56999500D01*
X51268216Y-57040423D01*
X51268209Y-57040426D01*
X51131290Y-57119475D01*
X51131282Y-57119481D01*
X51019481Y-57231282D01*
X51019475Y-57231290D01*
X50940426Y-57368209D01*
X50940423Y-57368216D01*
X50899500Y-57520943D01*
X37600500Y-57520943D01*
X37600500Y-56143982D01*
X46374500Y-56143982D01*
X46374500Y-56256018D01*
X46403497Y-56364237D01*
X46459515Y-56461263D01*
X46538737Y-56540485D01*
X46635763Y-56596503D01*
X46743982Y-56625500D01*
X46743984Y-56625500D01*
X46856016Y-56625500D01*
X46856018Y-56625500D01*
X46964237Y-56596503D01*
X47061263Y-56540485D01*
X47140485Y-56461263D01*
X47196503Y-56364237D01*
X47225500Y-56256018D01*
X47225500Y-56143982D01*
X47222163Y-56131529D01*
X58449500Y-56131529D01*
X58449500Y-56338468D01*
X58489868Y-56541411D01*
X58489870Y-56541419D01*
X58569058Y-56732595D01*
X58684024Y-56904656D01*
X58830342Y-57050974D01*
X58830345Y-57050976D01*
X59002402Y-57165940D01*
X59193580Y-57245129D01*
X59396530Y-57285498D01*
X59396534Y-57285499D01*
X59396535Y-57285499D01*
X59603466Y-57285499D01*
X59603467Y-57285498D01*
X59806420Y-57245129D01*
X59997598Y-57165940D01*
X60169655Y-57050976D01*
X60315977Y-56904654D01*
X60430941Y-56732597D01*
X60510130Y-56541419D01*
X60550500Y-56338464D01*
X60550500Y-56131534D01*
X60510130Y-55928579D01*
X60430941Y-55737401D01*
X60315977Y-55565344D01*
X60315975Y-55565341D01*
X60169657Y-55419023D01*
X60075359Y-55356016D01*
X59997598Y-55304058D01*
X59979356Y-55296502D01*
X59806420Y-55224869D01*
X59806412Y-55224867D01*
X59603469Y-55184499D01*
X59603465Y-55184499D01*
X59396535Y-55184499D01*
X59396530Y-55184499D01*
X59193587Y-55224867D01*
X59193579Y-55224869D01*
X59002403Y-55304057D01*
X58830342Y-55419023D01*
X58684024Y-55565341D01*
X58569058Y-55737402D01*
X58489870Y-55928578D01*
X58489868Y-55928586D01*
X58449500Y-56131529D01*
X47222163Y-56131529D01*
X47220694Y-56126048D01*
X47220348Y-56124616D01*
X47221957Y-56091168D01*
X47222754Y-56057689D01*
X47223631Y-56056392D01*
X47223707Y-56054827D01*
X47243149Y-56027552D01*
X47261915Y-55999825D01*
X47263895Y-55998449D01*
X47264264Y-55997933D01*
X47265150Y-55997578D01*
X47278852Y-55988064D01*
X47361263Y-55940485D01*
X47440485Y-55861263D01*
X47496503Y-55764237D01*
X47525500Y-55656018D01*
X47525500Y-55543982D01*
X47496503Y-55435763D01*
X47440485Y-55338737D01*
X47361263Y-55259515D01*
X47334359Y-55243982D01*
X49774500Y-55243982D01*
X49774500Y-55356018D01*
X49803497Y-55464237D01*
X49859515Y-55561263D01*
X49938737Y-55640485D01*
X50035763Y-55696503D01*
X50143982Y-55725500D01*
X50143984Y-55725500D01*
X50256016Y-55725500D01*
X50256018Y-55725500D01*
X50364237Y-55696503D01*
X50461263Y-55640485D01*
X50540485Y-55561263D01*
X50596503Y-55464237D01*
X50625500Y-55356018D01*
X50625500Y-55243982D01*
X50596503Y-55135763D01*
X50540485Y-55038737D01*
X50461263Y-54959515D01*
X50364237Y-54903497D01*
X50256018Y-54874500D01*
X50143982Y-54874500D01*
X50035763Y-54903497D01*
X50035760Y-54903498D01*
X49938740Y-54959513D01*
X49938734Y-54959517D01*
X49859517Y-55038734D01*
X49859513Y-55038740D01*
X49803498Y-55135760D01*
X49803497Y-55135763D01*
X49774500Y-55243982D01*
X47334359Y-55243982D01*
X47264237Y-55203497D01*
X47156018Y-55174500D01*
X47043982Y-55174500D01*
X46935763Y-55203497D01*
X46935760Y-55203498D01*
X46838740Y-55259513D01*
X46838734Y-55259517D01*
X46759517Y-55338734D01*
X46759513Y-55338740D01*
X46703498Y-55435760D01*
X46703497Y-55435763D01*
X46674500Y-55543982D01*
X46674500Y-55656017D01*
X46678907Y-55672466D01*
X46677242Y-55742316D01*
X46638078Y-55800177D01*
X46621133Y-55811942D01*
X46538740Y-55859513D01*
X46538734Y-55859517D01*
X46459517Y-55938734D01*
X46459513Y-55938740D01*
X46403498Y-56035760D01*
X46403497Y-56035763D01*
X46374500Y-56143982D01*
X37600500Y-56143982D01*
X37600500Y-54920943D01*
X38399500Y-54920943D01*
X38399500Y-55079057D01*
X38414695Y-55135763D01*
X38440423Y-55231783D01*
X38440426Y-55231790D01*
X38519475Y-55368709D01*
X38519479Y-55368714D01*
X38519480Y-55368716D01*
X38631284Y-55480520D01*
X38631286Y-55480521D01*
X38631290Y-55480524D01*
X38741204Y-55543982D01*
X38768216Y-55559577D01*
X38920943Y-55600500D01*
X38920945Y-55600500D01*
X39079055Y-55600500D01*
X39079057Y-55600500D01*
X39231784Y-55559577D01*
X39368716Y-55480520D01*
X39480520Y-55368716D01*
X39559577Y-55231784D01*
X39600500Y-55079057D01*
X39600500Y-54920943D01*
X39579878Y-54843982D01*
X56874500Y-54843982D01*
X56874500Y-54956018D01*
X56903497Y-55064237D01*
X56959515Y-55161263D01*
X57038737Y-55240485D01*
X57135763Y-55296503D01*
X57243982Y-55325500D01*
X57243984Y-55325500D01*
X57356016Y-55325500D01*
X57356018Y-55325500D01*
X57464237Y-55296503D01*
X57561263Y-55240485D01*
X57640485Y-55161263D01*
X57696503Y-55064237D01*
X57725500Y-54956018D01*
X57725500Y-54843982D01*
X57696503Y-54735763D01*
X57640485Y-54638737D01*
X57561263Y-54559515D01*
X57464237Y-54503497D01*
X57356018Y-54474500D01*
X57243982Y-54474500D01*
X57135763Y-54503497D01*
X57135760Y-54503498D01*
X57038740Y-54559513D01*
X57038734Y-54559517D01*
X56959517Y-54638734D01*
X56959513Y-54638740D01*
X56903498Y-54735760D01*
X56903497Y-54735763D01*
X56874500Y-54843982D01*
X39579878Y-54843982D01*
X39559577Y-54768216D01*
X39559573Y-54768209D01*
X39480524Y-54631290D01*
X39480518Y-54631282D01*
X39368717Y-54519481D01*
X39368709Y-54519475D01*
X39231790Y-54440426D01*
X39231786Y-54440424D01*
X39231784Y-54440423D01*
X39079057Y-54399500D01*
X38920943Y-54399500D01*
X38768216Y-54440423D01*
X38768209Y-54440426D01*
X38631290Y-54519475D01*
X38631282Y-54519481D01*
X38519481Y-54631282D01*
X38519475Y-54631290D01*
X38440426Y-54768209D01*
X38440423Y-54768216D01*
X38399500Y-54920943D01*
X37600500Y-54920943D01*
X37600500Y-54243982D01*
X39874500Y-54243982D01*
X39874500Y-54356018D01*
X39903497Y-54464237D01*
X39959515Y-54561263D01*
X40038737Y-54640485D01*
X40135763Y-54696503D01*
X40243982Y-54725500D01*
X40243984Y-54725500D01*
X40356016Y-54725500D01*
X40356018Y-54725500D01*
X40464237Y-54696503D01*
X40561263Y-54640485D01*
X40640485Y-54561263D01*
X40696503Y-54464237D01*
X40725500Y-54356018D01*
X40725500Y-54243982D01*
X40696503Y-54135763D01*
X40640485Y-54038737D01*
X40561263Y-53959515D01*
X40464237Y-53903497D01*
X40356018Y-53874500D01*
X40243982Y-53874500D01*
X40135763Y-53903497D01*
X40135760Y-53903498D01*
X40038740Y-53959513D01*
X40038734Y-53959517D01*
X39959517Y-54038734D01*
X39959513Y-54038740D01*
X39903498Y-54135760D01*
X39903497Y-54135763D01*
X39874500Y-54243982D01*
X37600500Y-54243982D01*
X37600500Y-52920943D01*
X38399500Y-52920943D01*
X38399500Y-53079057D01*
X38431211Y-53197402D01*
X38440423Y-53231783D01*
X38440426Y-53231790D01*
X38519475Y-53368709D01*
X38519479Y-53368714D01*
X38519480Y-53368716D01*
X38631284Y-53480520D01*
X38631286Y-53480521D01*
X38631290Y-53480524D01*
X38768209Y-53559573D01*
X38768216Y-53559577D01*
X38920943Y-53600500D01*
X38920945Y-53600500D01*
X39079055Y-53600500D01*
X39079057Y-53600500D01*
X39112537Y-53591529D01*
X58449500Y-53591529D01*
X58449500Y-53798468D01*
X58481535Y-53959517D01*
X58489870Y-54001419D01*
X58569059Y-54192597D01*
X58626541Y-54278625D01*
X58684024Y-54364656D01*
X58830342Y-54510974D01*
X58830345Y-54510976D01*
X59002402Y-54625940D01*
X59193580Y-54705129D01*
X59347589Y-54735763D01*
X59396530Y-54745498D01*
X59396534Y-54745499D01*
X59396535Y-54745499D01*
X59603466Y-54745499D01*
X59603467Y-54745498D01*
X59806420Y-54705129D01*
X59997598Y-54625940D01*
X60169655Y-54510976D01*
X60315977Y-54364654D01*
X60430941Y-54192597D01*
X60510130Y-54001419D01*
X60550500Y-53798464D01*
X60550500Y-53591534D01*
X60510130Y-53388579D01*
X60430941Y-53197401D01*
X60315977Y-53025344D01*
X60315975Y-53025341D01*
X60169657Y-52879023D01*
X60083626Y-52821540D01*
X59997598Y-52764058D01*
X59936475Y-52738740D01*
X59806420Y-52684869D01*
X59806412Y-52684867D01*
X59603469Y-52644499D01*
X59603465Y-52644499D01*
X59396535Y-52644499D01*
X59396530Y-52644499D01*
X59193587Y-52684867D01*
X59193579Y-52684869D01*
X59002403Y-52764057D01*
X58830342Y-52879023D01*
X58684024Y-53025341D01*
X58569058Y-53197402D01*
X58489870Y-53388578D01*
X58489868Y-53388586D01*
X58449500Y-53591529D01*
X39112537Y-53591529D01*
X39231784Y-53559577D01*
X39300250Y-53520048D01*
X39368710Y-53480524D01*
X39368711Y-53480522D01*
X39368716Y-53480520D01*
X39480520Y-53368716D01*
X39559577Y-53231784D01*
X39600500Y-53079057D01*
X39600500Y-52943982D01*
X49974500Y-52943982D01*
X49974500Y-53056018D01*
X50003497Y-53164237D01*
X50059515Y-53261263D01*
X50138737Y-53340485D01*
X50235763Y-53396503D01*
X50343982Y-53425500D01*
X50343984Y-53425500D01*
X50456016Y-53425500D01*
X50456018Y-53425500D01*
X50564237Y-53396503D01*
X50661263Y-53340485D01*
X50740485Y-53261263D01*
X50796503Y-53164237D01*
X50825500Y-53056018D01*
X50825500Y-52943982D01*
X54974500Y-52943982D01*
X54974500Y-53056018D01*
X55003497Y-53164237D01*
X55059515Y-53261263D01*
X55138737Y-53340485D01*
X55235763Y-53396503D01*
X55343982Y-53425500D01*
X55343984Y-53425500D01*
X55456016Y-53425500D01*
X55456018Y-53425500D01*
X55564237Y-53396503D01*
X55661263Y-53340485D01*
X55740485Y-53261263D01*
X55796503Y-53164237D01*
X55825500Y-53056018D01*
X55825500Y-52943982D01*
X56674500Y-52943982D01*
X56674500Y-53056018D01*
X56703497Y-53164237D01*
X56759515Y-53261263D01*
X56838737Y-53340485D01*
X56935763Y-53396503D01*
X57043982Y-53425500D01*
X57043984Y-53425500D01*
X57156016Y-53425500D01*
X57156018Y-53425500D01*
X57264237Y-53396503D01*
X57361263Y-53340485D01*
X57440485Y-53261263D01*
X57496503Y-53164237D01*
X57525500Y-53056018D01*
X57525500Y-52943982D01*
X57496503Y-52835763D01*
X57440485Y-52738737D01*
X57361263Y-52659515D01*
X57264237Y-52603497D01*
X57156018Y-52574500D01*
X57043982Y-52574500D01*
X56935763Y-52603497D01*
X56935760Y-52603498D01*
X56838740Y-52659513D01*
X56838734Y-52659517D01*
X56759517Y-52738734D01*
X56759513Y-52738740D01*
X56703498Y-52835760D01*
X56703497Y-52835763D01*
X56674500Y-52943982D01*
X55825500Y-52943982D01*
X55796503Y-52835763D01*
X55740485Y-52738737D01*
X55661263Y-52659515D01*
X55564237Y-52603497D01*
X55456018Y-52574500D01*
X55343982Y-52574500D01*
X55235763Y-52603497D01*
X55235760Y-52603498D01*
X55138740Y-52659513D01*
X55138734Y-52659517D01*
X55059517Y-52738734D01*
X55059513Y-52738740D01*
X55003498Y-52835760D01*
X55003497Y-52835763D01*
X54974500Y-52943982D01*
X50825500Y-52943982D01*
X50796503Y-52835763D01*
X50740485Y-52738737D01*
X50661263Y-52659515D01*
X50564237Y-52603497D01*
X50456018Y-52574500D01*
X50343982Y-52574500D01*
X50235763Y-52603497D01*
X50235760Y-52603498D01*
X50138740Y-52659513D01*
X50138734Y-52659517D01*
X50059517Y-52738734D01*
X50059513Y-52738740D01*
X50003498Y-52835760D01*
X50003497Y-52835763D01*
X49974500Y-52943982D01*
X39600500Y-52943982D01*
X39600500Y-52920943D01*
X39559577Y-52768216D01*
X39542559Y-52738740D01*
X39480524Y-52631290D01*
X39480518Y-52631282D01*
X39368717Y-52519481D01*
X39368709Y-52519475D01*
X39231790Y-52440426D01*
X39231786Y-52440424D01*
X39231784Y-52440423D01*
X39079057Y-52399500D01*
X38920943Y-52399500D01*
X38768216Y-52440423D01*
X38768209Y-52440426D01*
X38631290Y-52519475D01*
X38631282Y-52519481D01*
X38519481Y-52631282D01*
X38519475Y-52631290D01*
X38440426Y-52768209D01*
X38440423Y-52768216D01*
X38399500Y-52920943D01*
X37600500Y-52920943D01*
X37600500Y-51943982D01*
X50774500Y-51943982D01*
X50774500Y-52056018D01*
X50803497Y-52164237D01*
X50859515Y-52261263D01*
X50938737Y-52340485D01*
X51035763Y-52396503D01*
X51143982Y-52425500D01*
X51143984Y-52425500D01*
X51256016Y-52425500D01*
X51256018Y-52425500D01*
X51364237Y-52396503D01*
X51461263Y-52340485D01*
X51540485Y-52261263D01*
X51596503Y-52164237D01*
X51625500Y-52056018D01*
X51625500Y-51943982D01*
X51596503Y-51835763D01*
X51540485Y-51738737D01*
X51461263Y-51659515D01*
X51364237Y-51603497D01*
X51256018Y-51574500D01*
X51143982Y-51574500D01*
X51035763Y-51603497D01*
X51035760Y-51603498D01*
X50938740Y-51659513D01*
X50938734Y-51659517D01*
X50859517Y-51738734D01*
X50859513Y-51738740D01*
X50803498Y-51835760D01*
X50803497Y-51835763D01*
X50774500Y-51943982D01*
X37600500Y-51943982D01*
X37600500Y-49875442D01*
X38099500Y-49875442D01*
X38099500Y-50124559D01*
X38099501Y-50124576D01*
X38132017Y-50371562D01*
X38196498Y-50612208D01*
X38291830Y-50842362D01*
X38291837Y-50842377D01*
X38416400Y-51058127D01*
X38568060Y-51255775D01*
X38568066Y-51255782D01*
X38744218Y-51431934D01*
X38744225Y-51431940D01*
X38941873Y-51583600D01*
X39157623Y-51708163D01*
X39157638Y-51708170D01*
X39231427Y-51738734D01*
X39387793Y-51803503D01*
X39628435Y-51867983D01*
X39875435Y-51900501D01*
X39875442Y-51900501D01*
X40124558Y-51900501D01*
X40124565Y-51900501D01*
X40371565Y-51867983D01*
X40612207Y-51803503D01*
X40842373Y-51708165D01*
X41058127Y-51583600D01*
X41109758Y-51543982D01*
X52874500Y-51543982D01*
X52874500Y-51656018D01*
X52903497Y-51764237D01*
X52959515Y-51861263D01*
X53038737Y-51940485D01*
X53135763Y-51996503D01*
X53243982Y-52025500D01*
X53243984Y-52025500D01*
X53356016Y-52025500D01*
X53356018Y-52025500D01*
X53464237Y-51996503D01*
X53561263Y-51940485D01*
X53640485Y-51861263D01*
X53696503Y-51764237D01*
X53725500Y-51656018D01*
X53725500Y-51543982D01*
X53696503Y-51435763D01*
X53687947Y-51420943D01*
X54399500Y-51420943D01*
X54399500Y-51579057D01*
X54434095Y-51708165D01*
X54440423Y-51731783D01*
X54440426Y-51731790D01*
X54519475Y-51868709D01*
X54519479Y-51868714D01*
X54519480Y-51868716D01*
X54631284Y-51980520D01*
X54631286Y-51980521D01*
X54631290Y-51980524D01*
X54768209Y-52059573D01*
X54768216Y-52059577D01*
X54920943Y-52100500D01*
X54920945Y-52100500D01*
X55079055Y-52100500D01*
X55079057Y-52100500D01*
X55231784Y-52059577D01*
X55368716Y-51980520D01*
X55480520Y-51868716D01*
X55559577Y-51731784D01*
X55600500Y-51579057D01*
X55600500Y-51420943D01*
X55559577Y-51268216D01*
X55552394Y-51255775D01*
X55480524Y-51131290D01*
X55480518Y-51131282D01*
X55368717Y-51019481D01*
X55368709Y-51019475D01*
X55231790Y-50940426D01*
X55231786Y-50940424D01*
X55231784Y-50940423D01*
X55079057Y-50899500D01*
X54920943Y-50899500D01*
X54768216Y-50940423D01*
X54768209Y-50940426D01*
X54631290Y-51019475D01*
X54631282Y-51019481D01*
X54519481Y-51131282D01*
X54519475Y-51131290D01*
X54440426Y-51268209D01*
X54440423Y-51268216D01*
X54399500Y-51420943D01*
X53687947Y-51420943D01*
X53640485Y-51338737D01*
X53561263Y-51259515D01*
X53464237Y-51203497D01*
X53356018Y-51174500D01*
X53243982Y-51174500D01*
X53135763Y-51203497D01*
X53135760Y-51203498D01*
X53038740Y-51259513D01*
X53038734Y-51259517D01*
X52959517Y-51338734D01*
X52959513Y-51338740D01*
X52903498Y-51435760D01*
X52903497Y-51435763D01*
X52874500Y-51543982D01*
X41109758Y-51543982D01*
X41255776Y-51431939D01*
X41431938Y-51255777D01*
X41583599Y-51058128D01*
X41591766Y-51043982D01*
X44074500Y-51043982D01*
X44074500Y-51156018D01*
X44103497Y-51264237D01*
X44159515Y-51361263D01*
X44238737Y-51440485D01*
X44335763Y-51496503D01*
X44443982Y-51525500D01*
X44443984Y-51525500D01*
X44556016Y-51525500D01*
X44556018Y-51525500D01*
X44664237Y-51496503D01*
X44761263Y-51440485D01*
X44840485Y-51361263D01*
X44896503Y-51264237D01*
X44925500Y-51156018D01*
X44925500Y-51043982D01*
X44896503Y-50935763D01*
X44840485Y-50838737D01*
X44761263Y-50759515D01*
X44664237Y-50703497D01*
X44556018Y-50674500D01*
X44443982Y-50674500D01*
X44335763Y-50703497D01*
X44335760Y-50703498D01*
X44238740Y-50759513D01*
X44238734Y-50759517D01*
X44159517Y-50838734D01*
X44159513Y-50838740D01*
X44103498Y-50935760D01*
X44103497Y-50935763D01*
X44074500Y-51043982D01*
X41591766Y-51043982D01*
X41708164Y-50842374D01*
X41709671Y-50838737D01*
X41741763Y-50761259D01*
X41803502Y-50612208D01*
X41867982Y-50371566D01*
X41900500Y-50124566D01*
X41900500Y-49875436D01*
X41899025Y-49864236D01*
X41876961Y-49696639D01*
X41870029Y-49643982D01*
X45874500Y-49643982D01*
X45874500Y-49756018D01*
X45903497Y-49864237D01*
X45959515Y-49961263D01*
X46038737Y-50040485D01*
X46135763Y-50096503D01*
X46243982Y-50125500D01*
X46243984Y-50125500D01*
X46356016Y-50125500D01*
X46356018Y-50125500D01*
X46464237Y-50096503D01*
X46561263Y-50040485D01*
X46640485Y-49961263D01*
X46696503Y-49864237D01*
X46725500Y-49756018D01*
X46725500Y-49643982D01*
X46696503Y-49535763D01*
X46640485Y-49438737D01*
X46561263Y-49359515D01*
X46473117Y-49308624D01*
X46464239Y-49303498D01*
X46464238Y-49303497D01*
X46464237Y-49303497D01*
X46356018Y-49274500D01*
X46243982Y-49274500D01*
X46135763Y-49303497D01*
X46135760Y-49303498D01*
X46038740Y-49359513D01*
X46038734Y-49359517D01*
X45959517Y-49438734D01*
X45959513Y-49438740D01*
X45903498Y-49535760D01*
X45903497Y-49535763D01*
X45874500Y-49643982D01*
X41870029Y-49643982D01*
X41867982Y-49628436D01*
X41803502Y-49387794D01*
X41741762Y-49238740D01*
X41708169Y-49157639D01*
X41708162Y-49157624D01*
X41583600Y-48941875D01*
X41560170Y-48911340D01*
X41560169Y-48911339D01*
X41508484Y-48843982D01*
X46774500Y-48843982D01*
X46774500Y-48956018D01*
X46803497Y-49064237D01*
X46859515Y-49161263D01*
X46938737Y-49240485D01*
X47021131Y-49288055D01*
X47069347Y-49338622D01*
X47082570Y-49407229D01*
X47078907Y-49427529D01*
X47074501Y-49443975D01*
X47074500Y-49443980D01*
X47074500Y-49443982D01*
X47074500Y-49556018D01*
X47103497Y-49664237D01*
X47159515Y-49761263D01*
X47238737Y-49840485D01*
X47335763Y-49896503D01*
X47428083Y-49921239D01*
X47487740Y-49957602D01*
X47518270Y-50020449D01*
X47509976Y-50089825D01*
X47465491Y-50143703D01*
X47457990Y-50148398D01*
X47438743Y-50159510D01*
X47438734Y-50159517D01*
X47359517Y-50238734D01*
X47359513Y-50238740D01*
X47303498Y-50335760D01*
X47303497Y-50335763D01*
X47274500Y-50443982D01*
X47274500Y-50556018D01*
X47303497Y-50664237D01*
X47359515Y-50761263D01*
X47438737Y-50840485D01*
X47535763Y-50896503D01*
X47643982Y-50925500D01*
X47643984Y-50925500D01*
X47756016Y-50925500D01*
X47756018Y-50925500D01*
X47864237Y-50896503D01*
X47961263Y-50840485D01*
X48040485Y-50761263D01*
X48096503Y-50664237D01*
X48125500Y-50556018D01*
X48125500Y-50443982D01*
X48096503Y-50335763D01*
X48040485Y-50238737D01*
X47961263Y-50159515D01*
X47864237Y-50103497D01*
X47771917Y-50078760D01*
X47712258Y-50042396D01*
X47681729Y-49979549D01*
X47690024Y-49910174D01*
X47715464Y-49875442D01*
X58099500Y-49875442D01*
X58099500Y-50124559D01*
X58099501Y-50124576D01*
X58132017Y-50371562D01*
X58196498Y-50612208D01*
X58291830Y-50842362D01*
X58291837Y-50842377D01*
X58416400Y-51058127D01*
X58568060Y-51255775D01*
X58568066Y-51255782D01*
X58744218Y-51431934D01*
X58744225Y-51431940D01*
X58941873Y-51583600D01*
X59157623Y-51708163D01*
X59157638Y-51708170D01*
X59231427Y-51738734D01*
X59387793Y-51803503D01*
X59628435Y-51867983D01*
X59875435Y-51900501D01*
X59875442Y-51900501D01*
X60124558Y-51900501D01*
X60124565Y-51900501D01*
X60371565Y-51867983D01*
X60612207Y-51803503D01*
X60842373Y-51708165D01*
X61058127Y-51583600D01*
X61255776Y-51431939D01*
X61431938Y-51255777D01*
X61583599Y-51058128D01*
X61708164Y-50842374D01*
X61709671Y-50838737D01*
X61741763Y-50761259D01*
X61803502Y-50612208D01*
X61867982Y-50371566D01*
X61900500Y-50124566D01*
X61900500Y-49875436D01*
X61867982Y-49628436D01*
X61803502Y-49387794D01*
X61741762Y-49238740D01*
X61708169Y-49157639D01*
X61708162Y-49157624D01*
X61583599Y-48941874D01*
X61431939Y-48744226D01*
X61431933Y-48744219D01*
X61255781Y-48568067D01*
X61255774Y-48568061D01*
X61058126Y-48416401D01*
X60842376Y-48291838D01*
X60842361Y-48291831D01*
X60612207Y-48196499D01*
X60371561Y-48132018D01*
X60124575Y-48099502D01*
X60124570Y-48099501D01*
X60124565Y-48099501D01*
X59875435Y-48099501D01*
X59875429Y-48099501D01*
X59875424Y-48099502D01*
X59628438Y-48132018D01*
X59387792Y-48196499D01*
X59157638Y-48291831D01*
X59157623Y-48291838D01*
X58941873Y-48416401D01*
X58744225Y-48568061D01*
X58744218Y-48568067D01*
X58568066Y-48744219D01*
X58568060Y-48744226D01*
X58416400Y-48941874D01*
X58291837Y-49157624D01*
X58291830Y-49157639D01*
X58196498Y-49387793D01*
X58132017Y-49628439D01*
X58099501Y-49875425D01*
X58099500Y-49875442D01*
X47715464Y-49875442D01*
X47723091Y-49865030D01*
X47731918Y-49857427D01*
X47761263Y-49840485D01*
X47840485Y-49761263D01*
X47896503Y-49664237D01*
X47925500Y-49556018D01*
X47925500Y-49443982D01*
X47896503Y-49335763D01*
X47840485Y-49238737D01*
X47761263Y-49159515D01*
X47734359Y-49143982D01*
X53974500Y-49143982D01*
X53974500Y-49256018D01*
X54003497Y-49364237D01*
X54059515Y-49461263D01*
X54138737Y-49540485D01*
X54235763Y-49596503D01*
X54343982Y-49625500D01*
X54343984Y-49625500D01*
X54456016Y-49625500D01*
X54456018Y-49625500D01*
X54564237Y-49596503D01*
X54661263Y-49540485D01*
X54740485Y-49461263D01*
X54796503Y-49364237D01*
X54796504Y-49364235D01*
X54796611Y-49363977D01*
X54796759Y-49363792D01*
X54800567Y-49357198D01*
X54801595Y-49357791D01*
X54840450Y-49309572D01*
X54891652Y-49288972D01*
X54901350Y-49287426D01*
X54981694Y-49287426D01*
X55089913Y-49258429D01*
X55092454Y-49256961D01*
X55106041Y-49254796D01*
X55134566Y-49258453D01*
X55163318Y-49259138D01*
X55168790Y-49262841D01*
X55175344Y-49263682D01*
X55197365Y-49282181D01*
X55221180Y-49298300D01*
X55227659Y-49307631D01*
X55228841Y-49308624D01*
X55229238Y-49309905D01*
X55232947Y-49315247D01*
X55259515Y-49361263D01*
X55338737Y-49440485D01*
X55435763Y-49496503D01*
X55543982Y-49525500D01*
X55543984Y-49525500D01*
X55656016Y-49525500D01*
X55656018Y-49525500D01*
X55764237Y-49496503D01*
X55861263Y-49440485D01*
X55940485Y-49361263D01*
X55996503Y-49264237D01*
X56025500Y-49156018D01*
X56025500Y-49043982D01*
X55996503Y-48935763D01*
X55940485Y-48838737D01*
X55861263Y-48759515D01*
X55796579Y-48722169D01*
X55764239Y-48703498D01*
X55764238Y-48703497D01*
X55764237Y-48703497D01*
X55656018Y-48674500D01*
X55543982Y-48674500D01*
X55432206Y-48704450D01*
X55362356Y-48702787D01*
X55304494Y-48663624D01*
X55292726Y-48646675D01*
X55288141Y-48638734D01*
X55266161Y-48600663D01*
X55186939Y-48521441D01*
X55089913Y-48465423D01*
X54981694Y-48436426D01*
X54869658Y-48436426D01*
X54761439Y-48465423D01*
X54761436Y-48465424D01*
X54664416Y-48521439D01*
X54664410Y-48521443D01*
X54585193Y-48600660D01*
X54585188Y-48600666D01*
X54529170Y-48697691D01*
X54529061Y-48697957D01*
X54528908Y-48698146D01*
X54525109Y-48704727D01*
X54524082Y-48704134D01*
X54485218Y-48752359D01*
X54418924Y-48774421D01*
X54414502Y-48774500D01*
X54343982Y-48774500D01*
X54235763Y-48803497D01*
X54235760Y-48803498D01*
X54138740Y-48859513D01*
X54138734Y-48859517D01*
X54059517Y-48938734D01*
X54059513Y-48938740D01*
X54003498Y-49035760D01*
X54003497Y-49035763D01*
X53974500Y-49143982D01*
X47734359Y-49143982D01*
X47671980Y-49107967D01*
X47665654Y-49103141D01*
X47649488Y-49081130D01*
X47630652Y-49061375D01*
X47629112Y-49053386D01*
X47624295Y-49046827D01*
X47622595Y-49019571D01*
X47617430Y-48992768D01*
X47620026Y-48978372D01*
X47619947Y-48977093D01*
X47620406Y-48976270D01*
X47621091Y-48972471D01*
X47625500Y-48956018D01*
X47625500Y-48843982D01*
X47596503Y-48735763D01*
X47540485Y-48638737D01*
X47461263Y-48559515D01*
X47364237Y-48503497D01*
X47256018Y-48474500D01*
X47143982Y-48474500D01*
X47035763Y-48503497D01*
X47035760Y-48503498D01*
X46938740Y-48559513D01*
X46938734Y-48559517D01*
X46859517Y-48638734D01*
X46859513Y-48638740D01*
X46803498Y-48735760D01*
X46803497Y-48735763D01*
X46774500Y-48843982D01*
X41508484Y-48843982D01*
X41431939Y-48744226D01*
X41431933Y-48744219D01*
X41255781Y-48568067D01*
X41255774Y-48568061D01*
X41058126Y-48416401D01*
X40842376Y-48291838D01*
X40842361Y-48291831D01*
X40612207Y-48196499D01*
X40371561Y-48132018D01*
X40124575Y-48099502D01*
X40124570Y-48099501D01*
X40124565Y-48099501D01*
X39875435Y-48099501D01*
X39875429Y-48099501D01*
X39875424Y-48099502D01*
X39628438Y-48132018D01*
X39387792Y-48196499D01*
X39157638Y-48291831D01*
X39157623Y-48291838D01*
X38941873Y-48416401D01*
X38744225Y-48568061D01*
X38744218Y-48568067D01*
X38568066Y-48744219D01*
X38568060Y-48744226D01*
X38416400Y-48941874D01*
X38291837Y-49157624D01*
X38291830Y-49157639D01*
X38196498Y-49387793D01*
X38132017Y-49628439D01*
X38099501Y-49875425D01*
X38099500Y-49875442D01*
X37600500Y-49875442D01*
X37600500Y-47284684D01*
X44150648Y-47284684D01*
X44150648Y-47491623D01*
X44180955Y-47643984D01*
X44191018Y-47694574D01*
X44270207Y-47885752D01*
X44320663Y-47961265D01*
X44385172Y-48057811D01*
X44531490Y-48204129D01*
X44531493Y-48204131D01*
X44703550Y-48319095D01*
X44894728Y-48398284D01*
X45086482Y-48436426D01*
X45097678Y-48438653D01*
X45097682Y-48438654D01*
X45097683Y-48438654D01*
X45304614Y-48438654D01*
X45304615Y-48438653D01*
X45507568Y-48398284D01*
X45698746Y-48319095D01*
X45870803Y-48204131D01*
X46017125Y-48057809D01*
X46132089Y-47885752D01*
X46211278Y-47694574D01*
X46221341Y-47643982D01*
X53874500Y-47643982D01*
X53874500Y-47756017D01*
X53903497Y-47864236D01*
X53903498Y-47864239D01*
X53915919Y-47885752D01*
X53959515Y-47961263D01*
X54038737Y-48040485D01*
X54135763Y-48096503D01*
X54243982Y-48125500D01*
X54243984Y-48125500D01*
X54356016Y-48125500D01*
X54356018Y-48125500D01*
X54464237Y-48096503D01*
X54561263Y-48040485D01*
X54640485Y-47961263D01*
X54696503Y-47864237D01*
X54725500Y-47756018D01*
X54725500Y-47643982D01*
X54696503Y-47535763D01*
X54640485Y-47438737D01*
X54637678Y-47435930D01*
X54636068Y-47432982D01*
X54635538Y-47432291D01*
X54635645Y-47432208D01*
X54604193Y-47374607D01*
X54609177Y-47304915D01*
X54647338Y-47251871D01*
X54654912Y-47245739D01*
X54664013Y-47240485D01*
X54675106Y-47229391D01*
X54680157Y-47225303D01*
X54706637Y-47214265D01*
X54731815Y-47200516D01*
X54738479Y-47200992D01*
X54744648Y-47198421D01*
X54772889Y-47203451D01*
X54801507Y-47205497D01*
X54806857Y-47209502D01*
X54813435Y-47210674D01*
X54834474Y-47230175D01*
X54857442Y-47247367D01*
X54864602Y-47258099D01*
X54864679Y-47258170D01*
X54864697Y-47258241D01*
X54864909Y-47258558D01*
X54886510Y-47295084D01*
X54931916Y-47371862D01*
X54931922Y-47371870D01*
X55048128Y-47488076D01*
X55048132Y-47488079D01*
X55048134Y-47488081D01*
X55189601Y-47571744D01*
X55231223Y-47583836D01*
X55347425Y-47617597D01*
X55347428Y-47617597D01*
X55347430Y-47617598D01*
X55384305Y-47620500D01*
X55384313Y-47620500D01*
X56615685Y-47620500D01*
X56615693Y-47620500D01*
X56652568Y-47617598D01*
X56652570Y-47617597D01*
X56652572Y-47617597D01*
X56695782Y-47605043D01*
X56810397Y-47571744D01*
X56951864Y-47488081D01*
X57068080Y-47371865D01*
X57151743Y-47230398D01*
X57197597Y-47072569D01*
X57200499Y-47035694D01*
X57200499Y-46780638D01*
X59199500Y-46780638D01*
X59199500Y-47059363D01*
X59214953Y-47176753D01*
X59214956Y-47176762D01*
X59273261Y-47317524D01*
X59275464Y-47322841D01*
X59371718Y-47448282D01*
X59497159Y-47544536D01*
X59643238Y-47605044D01*
X59760639Y-47620500D01*
X61339360Y-47620499D01*
X61339363Y-47620499D01*
X61456753Y-47605046D01*
X61456757Y-47605044D01*
X61456762Y-47605044D01*
X61602841Y-47544536D01*
X61728282Y-47448282D01*
X61824536Y-47322841D01*
X61885044Y-47176762D01*
X61900500Y-47059361D01*
X61900499Y-46780640D01*
X61900499Y-46780638D01*
X61900499Y-46780636D01*
X61885046Y-46663246D01*
X61885044Y-46663239D01*
X61885044Y-46663238D01*
X61824536Y-46517159D01*
X61728282Y-46391718D01*
X61602841Y-46295464D01*
X61527457Y-46264239D01*
X61456762Y-46234956D01*
X61456760Y-46234955D01*
X61339370Y-46219501D01*
X61339367Y-46219500D01*
X61339361Y-46219500D01*
X61339354Y-46219500D01*
X59760636Y-46219500D01*
X59643246Y-46234953D01*
X59643237Y-46234956D01*
X59497160Y-46295463D01*
X59371718Y-46391718D01*
X59275463Y-46517160D01*
X59214956Y-46663237D01*
X59214955Y-46663239D01*
X59199500Y-46780638D01*
X57200499Y-46780638D01*
X57200499Y-46649500D01*
X57220184Y-46582461D01*
X57272988Y-46536706D01*
X57324499Y-46525500D01*
X57419181Y-46525500D01*
X57419183Y-46525500D01*
X57552836Y-46489688D01*
X57672665Y-46420505D01*
X57770505Y-46322665D01*
X57839688Y-46202836D01*
X57875500Y-46069183D01*
X57875500Y-45930817D01*
X57839688Y-45797164D01*
X57773702Y-45682872D01*
X57770507Y-45677338D01*
X57770503Y-45677333D01*
X57672666Y-45579496D01*
X57672661Y-45579492D01*
X57552838Y-45510313D01*
X57552837Y-45510312D01*
X57552836Y-45510312D01*
X57419183Y-45474500D01*
X57280817Y-45474500D01*
X57147164Y-45510312D01*
X57147161Y-45510313D01*
X57027338Y-45579492D01*
X57027333Y-45579496D01*
X56929490Y-45677339D01*
X56927418Y-45680040D01*
X56925091Y-45681738D01*
X56923748Y-45683082D01*
X56923538Y-45682872D01*
X56870988Y-45721239D01*
X56801241Y-45725389D01*
X56794453Y-45723623D01*
X56652572Y-45682402D01*
X56652566Y-45682401D01*
X56615700Y-45679500D01*
X56615693Y-45679500D01*
X55384305Y-45679500D01*
X55384297Y-45679500D01*
X55347431Y-45682401D01*
X55347425Y-45682402D01*
X55189605Y-45728254D01*
X55189602Y-45728255D01*
X55048136Y-45811917D01*
X55048132Y-45811920D01*
X54957544Y-45902508D01*
X54896220Y-45935992D01*
X54826529Y-45931008D01*
X54770595Y-45889136D01*
X54762476Y-45876827D01*
X54752481Y-45859515D01*
X54740485Y-45838737D01*
X54661263Y-45759515D01*
X54564237Y-45703497D01*
X54456018Y-45674500D01*
X54343982Y-45674500D01*
X54235763Y-45703497D01*
X54235760Y-45703498D01*
X54138740Y-45759513D01*
X54138734Y-45759517D01*
X54059517Y-45838734D01*
X54059513Y-45838740D01*
X54003498Y-45935760D01*
X54003497Y-45935763D01*
X53974500Y-46043982D01*
X53974500Y-46156018D01*
X54003497Y-46264237D01*
X54059515Y-46361263D01*
X54059517Y-46361265D01*
X54111946Y-46413694D01*
X54145431Y-46475017D01*
X54140447Y-46544709D01*
X54111946Y-46589056D01*
X54062267Y-46638734D01*
X54062263Y-46638740D01*
X54006248Y-46735760D01*
X54006247Y-46735763D01*
X53977250Y-46843982D01*
X53977250Y-46956018D01*
X54006247Y-47064237D01*
X54062265Y-47161263D01*
X54062267Y-47161265D01*
X54065071Y-47164069D01*
X54066680Y-47167015D01*
X54067212Y-47167709D01*
X54067103Y-47167791D01*
X54098556Y-47225392D01*
X54093572Y-47295084D01*
X54051700Y-47351017D01*
X54039401Y-47359131D01*
X54038743Y-47359510D01*
X54038734Y-47359517D01*
X53959517Y-47438734D01*
X53959513Y-47438740D01*
X53903498Y-47535760D01*
X53903497Y-47535763D01*
X53874500Y-47643982D01*
X46221341Y-47643982D01*
X46251648Y-47491619D01*
X46251648Y-47284689D01*
X46211278Y-47081734D01*
X46132089Y-46890556D01*
X46017125Y-46718499D01*
X46017123Y-46718496D01*
X45870805Y-46572178D01*
X45791186Y-46518979D01*
X47274500Y-46518979D01*
X47274500Y-46631015D01*
X47297941Y-46718496D01*
X47303497Y-46739233D01*
X47303498Y-46739236D01*
X47353301Y-46825498D01*
X47369774Y-46893399D01*
X47353302Y-46949497D01*
X47303497Y-47035762D01*
X47303497Y-47035763D01*
X47274500Y-47143982D01*
X47274500Y-47256018D01*
X47303497Y-47364237D01*
X47359515Y-47461263D01*
X47438737Y-47540485D01*
X47535763Y-47596503D01*
X47643982Y-47625500D01*
X47643984Y-47625500D01*
X47756016Y-47625500D01*
X47756018Y-47625500D01*
X47864237Y-47596503D01*
X47961263Y-47540485D01*
X48040485Y-47461263D01*
X48096503Y-47364237D01*
X48125500Y-47256018D01*
X48125500Y-47143982D01*
X48096503Y-47035763D01*
X48046698Y-46949498D01*
X48030225Y-46881598D01*
X48046698Y-46825498D01*
X48072597Y-46780640D01*
X48096503Y-46739234D01*
X48125500Y-46631015D01*
X48125500Y-46518979D01*
X48096503Y-46410760D01*
X48040485Y-46313734D01*
X47961263Y-46234512D01*
X47864237Y-46178494D01*
X47756018Y-46149497D01*
X47643982Y-46149497D01*
X47535763Y-46178494D01*
X47535760Y-46178495D01*
X47438740Y-46234510D01*
X47438734Y-46234514D01*
X47359517Y-46313731D01*
X47359513Y-46313737D01*
X47303498Y-46410757D01*
X47303497Y-46410760D01*
X47274500Y-46518979D01*
X45791186Y-46518979D01*
X45757548Y-46496503D01*
X45698746Y-46457213D01*
X45658361Y-46440485D01*
X45507568Y-46378024D01*
X45507560Y-46378022D01*
X45304617Y-46337654D01*
X45304613Y-46337654D01*
X45097683Y-46337654D01*
X45097678Y-46337654D01*
X44894735Y-46378022D01*
X44894727Y-46378024D01*
X44703551Y-46457212D01*
X44531490Y-46572178D01*
X44385172Y-46718496D01*
X44270206Y-46890557D01*
X44191018Y-47081733D01*
X44191016Y-47081741D01*
X44150648Y-47284684D01*
X37600500Y-47284684D01*
X37600500Y-46143982D01*
X40874500Y-46143982D01*
X40874500Y-46256018D01*
X40903497Y-46364237D01*
X40959515Y-46461263D01*
X41038737Y-46540485D01*
X41135763Y-46596503D01*
X41243982Y-46625500D01*
X41243984Y-46625500D01*
X41356016Y-46625500D01*
X41356018Y-46625500D01*
X41464237Y-46596503D01*
X41561263Y-46540485D01*
X41640485Y-46461263D01*
X41696503Y-46364237D01*
X41725500Y-46256018D01*
X41725500Y-46143982D01*
X41696503Y-46035763D01*
X41640485Y-45938737D01*
X41561263Y-45859515D01*
X41464237Y-45803497D01*
X41356018Y-45774500D01*
X41243982Y-45774500D01*
X41135763Y-45803497D01*
X41135760Y-45803498D01*
X41038740Y-45859513D01*
X41038734Y-45859517D01*
X40959517Y-45938734D01*
X40959513Y-45938740D01*
X40903498Y-46035760D01*
X40903497Y-46035763D01*
X40874500Y-46143982D01*
X37600500Y-46143982D01*
X37600500Y-45488632D01*
X42354596Y-45488632D01*
X42354596Y-45695571D01*
X42394964Y-45898514D01*
X42394966Y-45898522D01*
X42474154Y-46089698D01*
X42589120Y-46261759D01*
X42735438Y-46408077D01*
X42735441Y-46408079D01*
X42907498Y-46523043D01*
X43098676Y-46602232D01*
X43301626Y-46642601D01*
X43301630Y-46642602D01*
X43301631Y-46642602D01*
X43508562Y-46642602D01*
X43508563Y-46642601D01*
X43711516Y-46602232D01*
X43902694Y-46523043D01*
X44074751Y-46408079D01*
X44221073Y-46261757D01*
X44336037Y-46089700D01*
X44396396Y-45943982D01*
X52874500Y-45943982D01*
X52874500Y-46056018D01*
X52903497Y-46164237D01*
X52959515Y-46261263D01*
X53038737Y-46340485D01*
X53135763Y-46396503D01*
X53243982Y-46425500D01*
X53243984Y-46425500D01*
X53356016Y-46425500D01*
X53356018Y-46425500D01*
X53464237Y-46396503D01*
X53561263Y-46340485D01*
X53640485Y-46261263D01*
X53696503Y-46164237D01*
X53725500Y-46056018D01*
X53725500Y-45943982D01*
X53696503Y-45835763D01*
X53640485Y-45738737D01*
X53627460Y-45725712D01*
X53593975Y-45664389D01*
X53598959Y-45594697D01*
X53640831Y-45538764D01*
X53683043Y-45518258D01*
X53764237Y-45496503D01*
X53861263Y-45440485D01*
X53940485Y-45361263D01*
X53996503Y-45264237D01*
X54025500Y-45156018D01*
X54025500Y-45043982D01*
X53996503Y-44935763D01*
X53940485Y-44838737D01*
X53861263Y-44759515D01*
X53764237Y-44703497D01*
X53656018Y-44674500D01*
X53543982Y-44674500D01*
X53435763Y-44703497D01*
X53435760Y-44703498D01*
X53338740Y-44759513D01*
X53338734Y-44759517D01*
X53259517Y-44838734D01*
X53259513Y-44838740D01*
X53203498Y-44935760D01*
X53203497Y-44935763D01*
X53174500Y-45043982D01*
X53174500Y-45156018D01*
X53203497Y-45264237D01*
X53259515Y-45361263D01*
X53259517Y-45361265D01*
X53272539Y-45374287D01*
X53306024Y-45435610D01*
X53301040Y-45505302D01*
X53259168Y-45561235D01*
X53216953Y-45581742D01*
X53183178Y-45590792D01*
X53135761Y-45603497D01*
X53135760Y-45603498D01*
X53038740Y-45659513D01*
X53038734Y-45659517D01*
X52959517Y-45738734D01*
X52959513Y-45738740D01*
X52903498Y-45835760D01*
X52903497Y-45835763D01*
X52874500Y-45943982D01*
X44396396Y-45943982D01*
X44415226Y-45898522D01*
X44455596Y-45695567D01*
X44455596Y-45488637D01*
X44446714Y-45443982D01*
X44974500Y-45443982D01*
X44974500Y-45556018D01*
X45003497Y-45664237D01*
X45059515Y-45761263D01*
X45138737Y-45840485D01*
X45235763Y-45896503D01*
X45343982Y-45925500D01*
X45343984Y-45925500D01*
X45456016Y-45925500D01*
X45456018Y-45925500D01*
X45564237Y-45896503D01*
X45661263Y-45840485D01*
X45740485Y-45761263D01*
X45796503Y-45664237D01*
X45825500Y-45556018D01*
X45825500Y-45443982D01*
X45796503Y-45335763D01*
X45740485Y-45238737D01*
X45661263Y-45159515D01*
X45564237Y-45103497D01*
X45456018Y-45074500D01*
X45343982Y-45074500D01*
X45235763Y-45103497D01*
X45235760Y-45103498D01*
X45138740Y-45159513D01*
X45138734Y-45159517D01*
X45059517Y-45238734D01*
X45059513Y-45238740D01*
X45003498Y-45335760D01*
X45003497Y-45335763D01*
X44974500Y-45443982D01*
X44446714Y-45443982D01*
X44415226Y-45285682D01*
X44336037Y-45094504D01*
X44221073Y-44922447D01*
X44221071Y-44922444D01*
X44074753Y-44776126D01*
X43922657Y-44674500D01*
X43902694Y-44661161D01*
X43711516Y-44581972D01*
X43711508Y-44581970D01*
X43508565Y-44541602D01*
X43508561Y-44541602D01*
X43301631Y-44541602D01*
X43301626Y-44541602D01*
X43098683Y-44581970D01*
X43098675Y-44581972D01*
X42907499Y-44661160D01*
X42735438Y-44776126D01*
X42589120Y-44922444D01*
X42474154Y-45094505D01*
X42394966Y-45285681D01*
X42394964Y-45285689D01*
X42354596Y-45488632D01*
X37600500Y-45488632D01*
X37600500Y-43692581D01*
X40558545Y-43692581D01*
X40558545Y-43899520D01*
X40598913Y-44102463D01*
X40598915Y-44102471D01*
X40662516Y-44256018D01*
X40678104Y-44293649D01*
X40699386Y-44325500D01*
X40793069Y-44465708D01*
X40939387Y-44612026D01*
X40939390Y-44612028D01*
X41111447Y-44726992D01*
X41302625Y-44806181D01*
X41505575Y-44846550D01*
X41505579Y-44846551D01*
X41505580Y-44846551D01*
X41712511Y-44846551D01*
X41712512Y-44846550D01*
X41915465Y-44806181D01*
X42106643Y-44726992D01*
X42278700Y-44612028D01*
X42425022Y-44465706D01*
X42539763Y-44293982D01*
X46824500Y-44293982D01*
X46824500Y-44406018D01*
X46853497Y-44514237D01*
X46909515Y-44611263D01*
X46988737Y-44690485D01*
X47085763Y-44746503D01*
X47193982Y-44775500D01*
X47193984Y-44775500D01*
X47306016Y-44775500D01*
X47306018Y-44775500D01*
X47414237Y-44746503D01*
X47511263Y-44690485D01*
X47590485Y-44611263D01*
X47646503Y-44514237D01*
X47675500Y-44406018D01*
X47675500Y-44293982D01*
X47646503Y-44185763D01*
X47590485Y-44088737D01*
X47511263Y-44009515D01*
X47446579Y-43972169D01*
X47414239Y-43953498D01*
X47414238Y-43953497D01*
X47414237Y-43953497D01*
X47306018Y-43924500D01*
X47193982Y-43924500D01*
X47085763Y-43953497D01*
X47085760Y-43953498D01*
X46988740Y-44009513D01*
X46988734Y-44009517D01*
X46909517Y-44088734D01*
X46909513Y-44088740D01*
X46853498Y-44185760D01*
X46853497Y-44185763D01*
X46824500Y-44293982D01*
X42539763Y-44293982D01*
X42539986Y-44293649D01*
X42555574Y-44256018D01*
X42562870Y-44238403D01*
X42562870Y-44238402D01*
X42584675Y-44185760D01*
X42619175Y-44102471D01*
X42659545Y-43899516D01*
X42659545Y-43692586D01*
X42619175Y-43489631D01*
X42539986Y-43298453D01*
X42425022Y-43126396D01*
X42425020Y-43126393D01*
X42306674Y-43008047D01*
X51352939Y-43008047D01*
X51352939Y-43120083D01*
X51381936Y-43228302D01*
X51437954Y-43325328D01*
X51517176Y-43404550D01*
X51612500Y-43459585D01*
X51660715Y-43510152D01*
X51674500Y-43566972D01*
X51674500Y-43656018D01*
X51703497Y-43764237D01*
X51759515Y-43861263D01*
X51838737Y-43940485D01*
X51935763Y-43996503D01*
X51983488Y-44009290D01*
X52043148Y-44045655D01*
X52073677Y-44108502D01*
X52074165Y-44135855D01*
X52074500Y-44135855D01*
X52074500Y-44143982D01*
X52074500Y-44256018D01*
X52103497Y-44364237D01*
X52159515Y-44461263D01*
X52238737Y-44540485D01*
X52335763Y-44596503D01*
X52443982Y-44625500D01*
X52443984Y-44625500D01*
X52556016Y-44625500D01*
X52556018Y-44625500D01*
X52664237Y-44596503D01*
X52761263Y-44540485D01*
X52840485Y-44461263D01*
X52896503Y-44364237D01*
X52925500Y-44256018D01*
X52925500Y-44143982D01*
X52896503Y-44035763D01*
X52840485Y-43938737D01*
X52761263Y-43859515D01*
X52664239Y-43803498D01*
X52664238Y-43803497D01*
X52616511Y-43790709D01*
X52556850Y-43754343D01*
X52526322Y-43691496D01*
X52525836Y-43664145D01*
X52525500Y-43664145D01*
X52525500Y-43543984D01*
X52525500Y-43543982D01*
X52496503Y-43435763D01*
X52440485Y-43338737D01*
X52361263Y-43259515D01*
X52361260Y-43259513D01*
X52361256Y-43259510D01*
X52342011Y-43248399D01*
X52293796Y-43197832D01*
X52280574Y-43129224D01*
X52306542Y-43064360D01*
X52324054Y-43050883D01*
X53410355Y-43050883D01*
X53410355Y-43162919D01*
X53439352Y-43271138D01*
X53495370Y-43368164D01*
X53574592Y-43447386D01*
X53671618Y-43503404D01*
X53745915Y-43523311D01*
X53805575Y-43559676D01*
X53836104Y-43622523D01*
X53827809Y-43691898D01*
X53821209Y-43705085D01*
X53803497Y-43735762D01*
X53803497Y-43735763D01*
X53774500Y-43843982D01*
X53774500Y-43956018D01*
X53803497Y-44064237D01*
X53859515Y-44161263D01*
X53938737Y-44240485D01*
X54035763Y-44296503D01*
X54143982Y-44325500D01*
X54143984Y-44325500D01*
X54256016Y-44325500D01*
X54256018Y-44325500D01*
X54364237Y-44296503D01*
X54461263Y-44240485D01*
X54540485Y-44161263D01*
X54596503Y-44064237D01*
X54625500Y-43956018D01*
X54625500Y-43843982D01*
X54596503Y-43735763D01*
X54540485Y-43638737D01*
X54461263Y-43559515D01*
X54364239Y-43503498D01*
X54364238Y-43503497D01*
X54289939Y-43483589D01*
X54268589Y-43470575D01*
X54245377Y-43461281D01*
X54239269Y-43452703D01*
X54230279Y-43447223D01*
X54219355Y-43424734D01*
X54204851Y-43404365D01*
X54204350Y-43393846D01*
X54199750Y-43384376D01*
X54202718Y-43359549D01*
X54201530Y-43334574D01*
X54207482Y-43319708D01*
X54208045Y-43315001D01*
X54214641Y-43301823D01*
X54221593Y-43289782D01*
X54272162Y-43241570D01*
X54328977Y-43227788D01*
X54437618Y-43227788D01*
X54437620Y-43227788D01*
X54545839Y-43198791D01*
X54642865Y-43142773D01*
X54722087Y-43063551D01*
X54778105Y-42966525D01*
X54807102Y-42858306D01*
X54807102Y-42746270D01*
X54778105Y-42638051D01*
X54722087Y-42541025D01*
X54642865Y-42461803D01*
X54545839Y-42405785D01*
X54437620Y-42376788D01*
X54325584Y-42376788D01*
X54217365Y-42405785D01*
X54217362Y-42405786D01*
X54120342Y-42461801D01*
X54120336Y-42461805D01*
X54041119Y-42541022D01*
X54041117Y-42541025D01*
X53995866Y-42619402D01*
X53945298Y-42667617D01*
X53888479Y-42681401D01*
X53779837Y-42681401D01*
X53671618Y-42710398D01*
X53671615Y-42710399D01*
X53574595Y-42766414D01*
X53574589Y-42766418D01*
X53495372Y-42845635D01*
X53495368Y-42845641D01*
X53439353Y-42942661D01*
X53439352Y-42942664D01*
X53410355Y-43050883D01*
X52324054Y-43050883D01*
X52354875Y-43027164D01*
X52363171Y-43023583D01*
X52464237Y-42996503D01*
X52561263Y-42940485D01*
X52640485Y-42861263D01*
X52696503Y-42764237D01*
X52725500Y-42656018D01*
X52725500Y-42543982D01*
X52696503Y-42435763D01*
X52640485Y-42338737D01*
X52620730Y-42318982D01*
X57474500Y-42318982D01*
X57474500Y-42431018D01*
X57482750Y-42461805D01*
X57503497Y-42539236D01*
X57503498Y-42539239D01*
X57560518Y-42638001D01*
X57576991Y-42705902D01*
X57560519Y-42762000D01*
X57503497Y-42860765D01*
X57503497Y-42860766D01*
X57474500Y-42968985D01*
X57474500Y-43081021D01*
X57496445Y-43162919D01*
X57503497Y-43189239D01*
X57503498Y-43189242D01*
X57509010Y-43198789D01*
X57559515Y-43286266D01*
X57638737Y-43365488D01*
X57735763Y-43421506D01*
X57843982Y-43450503D01*
X57843984Y-43450503D01*
X57956016Y-43450503D01*
X57956018Y-43450503D01*
X58064237Y-43421506D01*
X58161263Y-43365488D01*
X58240485Y-43286266D01*
X58296503Y-43189240D01*
X58325500Y-43081021D01*
X58325500Y-42968985D01*
X58296503Y-42860766D01*
X58240485Y-42763740D01*
X58239481Y-42762001D01*
X58223008Y-42694101D01*
X58239481Y-42638001D01*
X58240483Y-42636264D01*
X58240485Y-42636263D01*
X58296503Y-42539237D01*
X58325500Y-42431018D01*
X58325500Y-42318982D01*
X58296503Y-42210763D01*
X58240485Y-42113737D01*
X58161263Y-42034515D01*
X58064237Y-41978497D01*
X57956018Y-41949500D01*
X57843982Y-41949500D01*
X57735763Y-41978497D01*
X57735760Y-41978498D01*
X57638740Y-42034513D01*
X57638734Y-42034517D01*
X57559517Y-42113734D01*
X57559513Y-42113740D01*
X57503498Y-42210760D01*
X57503497Y-42210763D01*
X57474500Y-42318982D01*
X52620730Y-42318982D01*
X52561263Y-42259515D01*
X52464237Y-42203497D01*
X52356018Y-42174500D01*
X52243982Y-42174500D01*
X52135763Y-42203497D01*
X52135760Y-42203498D01*
X52038740Y-42259513D01*
X52038734Y-42259517D01*
X51959517Y-42338734D01*
X51959513Y-42338740D01*
X51903498Y-42435760D01*
X51903497Y-42435761D01*
X51896519Y-42461805D01*
X51875293Y-42541025D01*
X51873783Y-42546659D01*
X51837418Y-42606319D01*
X51774571Y-42636848D01*
X51754008Y-42638565D01*
X51722421Y-42638565D01*
X51614202Y-42667562D01*
X51614199Y-42667563D01*
X51517179Y-42723578D01*
X51517173Y-42723582D01*
X51437956Y-42802799D01*
X51437952Y-42802805D01*
X51381937Y-42899825D01*
X51381936Y-42899828D01*
X51352939Y-43008047D01*
X42306674Y-43008047D01*
X42278702Y-42980075D01*
X42192671Y-42922592D01*
X42106643Y-42865110D01*
X42097360Y-42861265D01*
X41915465Y-42785921D01*
X41915457Y-42785919D01*
X41712514Y-42745551D01*
X41712510Y-42745551D01*
X41505580Y-42745551D01*
X41505575Y-42745551D01*
X41302632Y-42785919D01*
X41302624Y-42785921D01*
X41111448Y-42865109D01*
X40939387Y-42980075D01*
X40793069Y-43126393D01*
X40678103Y-43298454D01*
X40598915Y-43489630D01*
X40598913Y-43489638D01*
X40558545Y-43692581D01*
X37600500Y-43692581D01*
X37600500Y-41999997D01*
X38406485Y-41999997D01*
X38406485Y-42000002D01*
X38422045Y-42078230D01*
X38422045Y-42078231D01*
X38455175Y-42127812D01*
X38455178Y-42127816D01*
X39685177Y-43357815D01*
X39685181Y-43357818D01*
X39685183Y-43357820D01*
X39724927Y-43384376D01*
X39734763Y-43390948D01*
X39812992Y-43406509D01*
X39812994Y-43406509D01*
X39812996Y-43406509D01*
X39865148Y-43396135D01*
X39891225Y-43390948D01*
X39940805Y-43357820D01*
X41170814Y-42127811D01*
X41203942Y-42078231D01*
X41219503Y-42000000D01*
X41219503Y-41999997D01*
X41203942Y-41921769D01*
X41203942Y-41921768D01*
X41187320Y-41896893D01*
X41170814Y-41872189D01*
X41170812Y-41872187D01*
X41170809Y-41872183D01*
X40892608Y-41593982D01*
X45624500Y-41593982D01*
X45624500Y-41706018D01*
X45653497Y-41814237D01*
X45709515Y-41911263D01*
X45788737Y-41990485D01*
X45885763Y-42046503D01*
X45993982Y-42075500D01*
X45993984Y-42075500D01*
X46106016Y-42075500D01*
X46106018Y-42075500D01*
X46214237Y-42046503D01*
X46311263Y-41990485D01*
X46390485Y-41911263D01*
X46446503Y-41814237D01*
X46475500Y-41706018D01*
X46475500Y-41593982D01*
X46446503Y-41485763D01*
X46390485Y-41388737D01*
X46311263Y-41309515D01*
X46232839Y-41264237D01*
X46214239Y-41253498D01*
X46214238Y-41253497D01*
X46214237Y-41253497D01*
X46106018Y-41224500D01*
X45993982Y-41224500D01*
X45885763Y-41253497D01*
X45885760Y-41253498D01*
X45788740Y-41309513D01*
X45788734Y-41309517D01*
X45709517Y-41388734D01*
X45709513Y-41388740D01*
X45653498Y-41485760D01*
X45653497Y-41485763D01*
X45624500Y-41593982D01*
X40892608Y-41593982D01*
X40342608Y-41043982D01*
X57974500Y-41043982D01*
X57974500Y-41156018D01*
X58003497Y-41264237D01*
X58059515Y-41361263D01*
X58138737Y-41440485D01*
X58235763Y-41496503D01*
X58343982Y-41525500D01*
X58343984Y-41525500D01*
X58456016Y-41525500D01*
X58456018Y-41525500D01*
X58564237Y-41496503D01*
X58661263Y-41440485D01*
X58740485Y-41361263D01*
X58796503Y-41264237D01*
X58825500Y-41156018D01*
X58825500Y-41043982D01*
X58819327Y-41020943D01*
X60899500Y-41020943D01*
X60899500Y-41179057D01*
X60922325Y-41264239D01*
X60940423Y-41331783D01*
X60940426Y-41331790D01*
X61019475Y-41468709D01*
X61019479Y-41468714D01*
X61019480Y-41468716D01*
X61131284Y-41580520D01*
X61131286Y-41580521D01*
X61131290Y-41580524D01*
X61268209Y-41659573D01*
X61268216Y-41659577D01*
X61420943Y-41700500D01*
X61420945Y-41700500D01*
X61579055Y-41700500D01*
X61579057Y-41700500D01*
X61731784Y-41659577D01*
X61868716Y-41580520D01*
X61980520Y-41468716D01*
X62059577Y-41331784D01*
X62100500Y-41179057D01*
X62100500Y-41020943D01*
X62059577Y-40868216D01*
X62042559Y-40838740D01*
X61980524Y-40731290D01*
X61980518Y-40731282D01*
X61868717Y-40619481D01*
X61868709Y-40619475D01*
X61731790Y-40540426D01*
X61731786Y-40540424D01*
X61731784Y-40540423D01*
X61579057Y-40499500D01*
X61420943Y-40499500D01*
X61268216Y-40540423D01*
X61268209Y-40540426D01*
X61131290Y-40619475D01*
X61131282Y-40619481D01*
X61019481Y-40731282D01*
X61019475Y-40731290D01*
X60940426Y-40868209D01*
X60940423Y-40868216D01*
X60899500Y-41020943D01*
X58819327Y-41020943D01*
X58796503Y-40935763D01*
X58740485Y-40838737D01*
X58661263Y-40759515D01*
X58564237Y-40703497D01*
X58456018Y-40674500D01*
X58343982Y-40674500D01*
X58235763Y-40703497D01*
X58235760Y-40703498D01*
X58138740Y-40759513D01*
X58138734Y-40759517D01*
X58059517Y-40838734D01*
X58059513Y-40838740D01*
X58003498Y-40935760D01*
X58003497Y-40935763D01*
X57974500Y-41043982D01*
X40342608Y-41043982D01*
X39940810Y-40642184D01*
X39940806Y-40642181D01*
X39891224Y-40609051D01*
X39812996Y-40593491D01*
X39812992Y-40593491D01*
X39734763Y-40609051D01*
X39734762Y-40609051D01*
X39685181Y-40642181D01*
X39685177Y-40642184D01*
X38455178Y-41872183D01*
X38455175Y-41872187D01*
X38422045Y-41921768D01*
X38422045Y-41921769D01*
X38406485Y-41999997D01*
X37600500Y-41999997D01*
X37600500Y-41001659D01*
X37600549Y-40998181D01*
X37602300Y-40935760D01*
X37619907Y-40308213D01*
X37620295Y-40301304D01*
X37678173Y-39615127D01*
X37678945Y-39608279D01*
X37751749Y-39092581D01*
X41145551Y-39092581D01*
X41145551Y-39299520D01*
X41185919Y-39502463D01*
X41185921Y-39502471D01*
X41234812Y-39620505D01*
X41265110Y-39693649D01*
X41286392Y-39725500D01*
X41380075Y-39865708D01*
X41526393Y-40012026D01*
X41526396Y-40012028D01*
X41698453Y-40126992D01*
X41889631Y-40206181D01*
X42092581Y-40246550D01*
X42092585Y-40246551D01*
X42092586Y-40246551D01*
X42299517Y-40246551D01*
X42299518Y-40246550D01*
X42502471Y-40206181D01*
X42693649Y-40126992D01*
X42865706Y-40012028D01*
X43012028Y-39865706D01*
X43126992Y-39693649D01*
X43206181Y-39502471D01*
X43220159Y-39432198D01*
X43222398Y-39420943D01*
X44399500Y-39420943D01*
X44399500Y-39579057D01*
X44430205Y-39693647D01*
X44440423Y-39731783D01*
X44440426Y-39731790D01*
X44519475Y-39868709D01*
X44519479Y-39868714D01*
X44519480Y-39868716D01*
X44631284Y-39980520D01*
X44631286Y-39980521D01*
X44631290Y-39980524D01*
X44768209Y-40059573D01*
X44768216Y-40059577D01*
X44920943Y-40100500D01*
X44920945Y-40100500D01*
X45079055Y-40100500D01*
X45079057Y-40100500D01*
X45231784Y-40059577D01*
X45368716Y-39980520D01*
X45480520Y-39868716D01*
X45559577Y-39731784D01*
X45600500Y-39579057D01*
X45600500Y-39420943D01*
X45559577Y-39268216D01*
X45545762Y-39244288D01*
X45480524Y-39131290D01*
X45480518Y-39131282D01*
X45368717Y-39019481D01*
X45368709Y-39019475D01*
X45231790Y-38940426D01*
X45231786Y-38940424D01*
X45231784Y-38940423D01*
X45079057Y-38899500D01*
X44920943Y-38899500D01*
X44768216Y-38940423D01*
X44768209Y-38940426D01*
X44631290Y-39019475D01*
X44631282Y-39019481D01*
X44519481Y-39131282D01*
X44519475Y-39131290D01*
X44440426Y-39268209D01*
X44440423Y-39268216D01*
X44399500Y-39420943D01*
X43222398Y-39420943D01*
X43228827Y-39388625D01*
X43246550Y-39299520D01*
X43246551Y-39299517D01*
X43246551Y-39092585D01*
X43246550Y-39092581D01*
X43241891Y-39069160D01*
X43206181Y-38889631D01*
X43126992Y-38698453D01*
X43012028Y-38526396D01*
X43012026Y-38526393D01*
X42929615Y-38443982D01*
X46574500Y-38443982D01*
X46574500Y-38556018D01*
X46603497Y-38664237D01*
X46659515Y-38761263D01*
X46738737Y-38840485D01*
X46835763Y-38896503D01*
X46943982Y-38925500D01*
X46943984Y-38925500D01*
X47056016Y-38925500D01*
X47056018Y-38925500D01*
X47164237Y-38896503D01*
X47261263Y-38840485D01*
X47340485Y-38761263D01*
X47396503Y-38664237D01*
X47425500Y-38556018D01*
X47425500Y-38443982D01*
X47396503Y-38335763D01*
X47340485Y-38238737D01*
X47266046Y-38164298D01*
X54799499Y-38164298D01*
X54799499Y-38935701D01*
X54802400Y-38972567D01*
X54802401Y-38972573D01*
X54848253Y-39130393D01*
X54848254Y-39130396D01*
X54931916Y-39271862D01*
X54931922Y-39271870D01*
X55048128Y-39388076D01*
X55048132Y-39388079D01*
X55048134Y-39388081D01*
X55189601Y-39471744D01*
X55231223Y-39483836D01*
X55347425Y-39517597D01*
X55347428Y-39517597D01*
X55347430Y-39517598D01*
X55384305Y-39520500D01*
X55384313Y-39520500D01*
X56615685Y-39520500D01*
X56615693Y-39520500D01*
X56652568Y-39517598D01*
X56794453Y-39476376D01*
X56864322Y-39476575D01*
X56922992Y-39514517D01*
X56927422Y-39519964D01*
X56929493Y-39522663D01*
X56929495Y-39522665D01*
X57027335Y-39620505D01*
X57147164Y-39689688D01*
X57280817Y-39725500D01*
X57280819Y-39725500D01*
X57419181Y-39725500D01*
X57419183Y-39725500D01*
X57552836Y-39689688D01*
X57672665Y-39620505D01*
X57770505Y-39522665D01*
X57839688Y-39402836D01*
X57875500Y-39269183D01*
X57875500Y-39130817D01*
X57839688Y-38997164D01*
X57794903Y-38919594D01*
X57770507Y-38877338D01*
X57770503Y-38877333D01*
X57672666Y-38779496D01*
X57672661Y-38779492D01*
X57552838Y-38710313D01*
X57552837Y-38710312D01*
X57552836Y-38710312D01*
X57419183Y-38674500D01*
X57324499Y-38674500D01*
X57257460Y-38654815D01*
X57211705Y-38602011D01*
X57200499Y-38550500D01*
X57200499Y-38164313D01*
X57200498Y-38164298D01*
X57200121Y-38159513D01*
X57197597Y-38127431D01*
X57190643Y-38103497D01*
X57151744Y-37969606D01*
X57151743Y-37969603D01*
X57151743Y-37969602D01*
X57068080Y-37828135D01*
X57068078Y-37828133D01*
X57068075Y-37828129D01*
X56951869Y-37711923D01*
X56951861Y-37711917D01*
X56810395Y-37628255D01*
X56810392Y-37628254D01*
X56652572Y-37582402D01*
X56652566Y-37582401D01*
X56615700Y-37579500D01*
X56615693Y-37579500D01*
X55384305Y-37579500D01*
X55384297Y-37579500D01*
X55347431Y-37582401D01*
X55347425Y-37582402D01*
X55189605Y-37628254D01*
X55189602Y-37628255D01*
X55048136Y-37711917D01*
X55048128Y-37711923D01*
X54931922Y-37828129D01*
X54931916Y-37828137D01*
X54848254Y-37969603D01*
X54848253Y-37969606D01*
X54802401Y-38127426D01*
X54802400Y-38127432D01*
X54799499Y-38164298D01*
X47266046Y-38164298D01*
X47261263Y-38159515D01*
X47164237Y-38103497D01*
X47056018Y-38074500D01*
X46943982Y-38074500D01*
X46835763Y-38103497D01*
X46835760Y-38103498D01*
X46738740Y-38159513D01*
X46738734Y-38159517D01*
X46659517Y-38238734D01*
X46659513Y-38238740D01*
X46603498Y-38335760D01*
X46603497Y-38335763D01*
X46574500Y-38443982D01*
X42929615Y-38443982D01*
X42865708Y-38380075D01*
X42779677Y-38322592D01*
X42693649Y-38265110D01*
X42629979Y-38238737D01*
X42502471Y-38185921D01*
X42502463Y-38185919D01*
X42299520Y-38145551D01*
X42299516Y-38145551D01*
X42092586Y-38145551D01*
X42092581Y-38145551D01*
X41889638Y-38185919D01*
X41889630Y-38185921D01*
X41698454Y-38265109D01*
X41526393Y-38380075D01*
X41380075Y-38526393D01*
X41265109Y-38698454D01*
X41185921Y-38889630D01*
X41185919Y-38889638D01*
X41145551Y-39092581D01*
X37751749Y-39092581D01*
X37775206Y-38926428D01*
X37776363Y-38919617D01*
X37910704Y-38244243D01*
X37912236Y-38237525D01*
X38084243Y-37570714D01*
X38086154Y-37564082D01*
X38138452Y-37399997D01*
X38993491Y-37399997D01*
X38993491Y-37400002D01*
X39009051Y-37478230D01*
X39009051Y-37478231D01*
X39042181Y-37527812D01*
X39042184Y-37527816D01*
X40272183Y-38757815D01*
X40272187Y-38757818D01*
X40272189Y-38757820D01*
X40304630Y-38779496D01*
X40321769Y-38790948D01*
X40399998Y-38806509D01*
X40400000Y-38806509D01*
X40400002Y-38806509D01*
X40452154Y-38796135D01*
X40478231Y-38790948D01*
X40527811Y-38757820D01*
X41757820Y-37527811D01*
X41790948Y-37478231D01*
X41806509Y-37400000D01*
X41806509Y-37399997D01*
X41790948Y-37321769D01*
X41790948Y-37321768D01*
X41774326Y-37296893D01*
X41757820Y-37272189D01*
X41757818Y-37272187D01*
X41757815Y-37272183D01*
X41406575Y-36920943D01*
X49399500Y-36920943D01*
X49399500Y-37079057D01*
X49427261Y-37182660D01*
X49440423Y-37231783D01*
X49440426Y-37231790D01*
X49519475Y-37368709D01*
X49519479Y-37368714D01*
X49519480Y-37368716D01*
X49631284Y-37480520D01*
X49631286Y-37480521D01*
X49631290Y-37480524D01*
X49768209Y-37559573D01*
X49768216Y-37559577D01*
X49920943Y-37600500D01*
X49920945Y-37600500D01*
X50079055Y-37600500D01*
X50079057Y-37600500D01*
X50231784Y-37559577D01*
X50368716Y-37480520D01*
X50480520Y-37368716D01*
X50559577Y-37231784D01*
X50600500Y-37079057D01*
X50600500Y-36920943D01*
X50559577Y-36768216D01*
X50538543Y-36731783D01*
X50480524Y-36631290D01*
X50480518Y-36631282D01*
X50368717Y-36519481D01*
X50368716Y-36519480D01*
X50231784Y-36440423D01*
X50159084Y-36420943D01*
X58899500Y-36420943D01*
X58899500Y-36579056D01*
X58940423Y-36731783D01*
X58940426Y-36731790D01*
X59019475Y-36868709D01*
X59019479Y-36868714D01*
X59019480Y-36868716D01*
X59131284Y-36980520D01*
X59131286Y-36980521D01*
X59131290Y-36980524D01*
X59268209Y-37059573D01*
X59268216Y-37059577D01*
X59420943Y-37100500D01*
X59420945Y-37100500D01*
X59579055Y-37100500D01*
X59579057Y-37100500D01*
X59731784Y-37059577D01*
X59868716Y-36980520D01*
X59980520Y-36868716D01*
X60059577Y-36731784D01*
X60100500Y-36579057D01*
X60100500Y-36420943D01*
X60059577Y-36268216D01*
X60050062Y-36251736D01*
X59980524Y-36131290D01*
X59980518Y-36131282D01*
X59868717Y-36019481D01*
X59868709Y-36019475D01*
X59731790Y-35940426D01*
X59731786Y-35940424D01*
X59731784Y-35940423D01*
X59579057Y-35899500D01*
X59420943Y-35899500D01*
X59268216Y-35940423D01*
X59268209Y-35940426D01*
X59131290Y-36019475D01*
X59131282Y-36019481D01*
X59019481Y-36131282D01*
X59019475Y-36131290D01*
X58940426Y-36268209D01*
X58940423Y-36268216D01*
X58899500Y-36420943D01*
X50159084Y-36420943D01*
X50079057Y-36399500D01*
X49920943Y-36399500D01*
X49768216Y-36440423D01*
X49768209Y-36440426D01*
X49631290Y-36519475D01*
X49631282Y-36519481D01*
X49519481Y-36631282D01*
X49519475Y-36631290D01*
X49440426Y-36768209D01*
X49440423Y-36768216D01*
X49399500Y-36920943D01*
X41406575Y-36920943D01*
X40527816Y-36042184D01*
X40527812Y-36042181D01*
X40478230Y-36009051D01*
X40400002Y-35993491D01*
X40399998Y-35993491D01*
X40321769Y-36009051D01*
X40321768Y-36009051D01*
X40272187Y-36042181D01*
X40272183Y-36042184D01*
X39042184Y-37272183D01*
X39042181Y-37272187D01*
X39009051Y-37321768D01*
X39009051Y-37321769D01*
X38993491Y-37399997D01*
X38138452Y-37399997D01*
X38295267Y-36907996D01*
X38297546Y-36901481D01*
X38543125Y-36258133D01*
X38545764Y-36251764D01*
X38827024Y-35623209D01*
X38830019Y-35616991D01*
X38971058Y-35343982D01*
X43374500Y-35343982D01*
X43374500Y-35456018D01*
X43403497Y-35564237D01*
X43459515Y-35661263D01*
X43538737Y-35740485D01*
X43635763Y-35796503D01*
X43743982Y-35825500D01*
X43743984Y-35825500D01*
X43856016Y-35825500D01*
X43856018Y-35825500D01*
X43964237Y-35796503D01*
X44061263Y-35740485D01*
X44140485Y-35661263D01*
X44196503Y-35564237D01*
X44225500Y-35456018D01*
X44225500Y-35443982D01*
X53774500Y-35443982D01*
X53774500Y-35556018D01*
X53803497Y-35664237D01*
X53859515Y-35761263D01*
X53938737Y-35840485D01*
X54035763Y-35896503D01*
X54143982Y-35925500D01*
X54143984Y-35925500D01*
X54256016Y-35925500D01*
X54256018Y-35925500D01*
X54364237Y-35896503D01*
X54461263Y-35840485D01*
X54540485Y-35761263D01*
X54596503Y-35664237D01*
X54625500Y-35556018D01*
X54625500Y-35443982D01*
X54596503Y-35335763D01*
X54540485Y-35238737D01*
X54461263Y-35159515D01*
X54364237Y-35103497D01*
X54256018Y-35074500D01*
X54143982Y-35074500D01*
X54035763Y-35103497D01*
X54035760Y-35103498D01*
X53938740Y-35159513D01*
X53938734Y-35159517D01*
X53859517Y-35238734D01*
X53859513Y-35238740D01*
X53803498Y-35335760D01*
X53803497Y-35335763D01*
X53774500Y-35443982D01*
X44225500Y-35443982D01*
X44225500Y-35343982D01*
X44196503Y-35235763D01*
X44140485Y-35138737D01*
X44061263Y-35059515D01*
X43964237Y-35003497D01*
X43856018Y-34974500D01*
X43743982Y-34974500D01*
X43635763Y-35003497D01*
X43635760Y-35003498D01*
X43538740Y-35059513D01*
X43538734Y-35059517D01*
X43459517Y-35138734D01*
X43459513Y-35138740D01*
X43403498Y-35235760D01*
X43403497Y-35235763D01*
X43374500Y-35343982D01*
X38971058Y-35343982D01*
X39146076Y-35005201D01*
X39149420Y-34999150D01*
X39490496Y-34420943D01*
X39899500Y-34420943D01*
X39899500Y-34579057D01*
X39911945Y-34625500D01*
X39940423Y-34731783D01*
X39940426Y-34731790D01*
X40019475Y-34868709D01*
X40019479Y-34868714D01*
X40019480Y-34868716D01*
X40131284Y-34980520D01*
X40131286Y-34980521D01*
X40131290Y-34980524D01*
X40171083Y-35003498D01*
X40268216Y-35059577D01*
X40420943Y-35100500D01*
X40420945Y-35100500D01*
X40579055Y-35100500D01*
X40579057Y-35100500D01*
X40731784Y-35059577D01*
X40868716Y-34980520D01*
X40980520Y-34868716D01*
X41059577Y-34731784D01*
X41100500Y-34579057D01*
X41100500Y-34420943D01*
X41059577Y-34268216D01*
X40987852Y-34143984D01*
X40987851Y-34143982D01*
X41974500Y-34143982D01*
X41974500Y-34256018D01*
X42003497Y-34364237D01*
X42059515Y-34461263D01*
X42138737Y-34540485D01*
X42235763Y-34596503D01*
X42343982Y-34625500D01*
X42343984Y-34625500D01*
X42456016Y-34625500D01*
X42456018Y-34625500D01*
X42564237Y-34596503D01*
X42661263Y-34540485D01*
X42740485Y-34461263D01*
X42796503Y-34364237D01*
X42825500Y-34256018D01*
X42825500Y-34143982D01*
X57174500Y-34143982D01*
X57174500Y-34256018D01*
X57203497Y-34364237D01*
X57259515Y-34461263D01*
X57338737Y-34540485D01*
X57435763Y-34596503D01*
X57543982Y-34625500D01*
X57543984Y-34625500D01*
X57656016Y-34625500D01*
X57656018Y-34625500D01*
X57764237Y-34596503D01*
X57861263Y-34540485D01*
X57940485Y-34461263D01*
X57996503Y-34364237D01*
X58025500Y-34256018D01*
X58025500Y-34143982D01*
X57996503Y-34035763D01*
X57940485Y-33938737D01*
X57861263Y-33859515D01*
X57764237Y-33803497D01*
X57656018Y-33774500D01*
X57543982Y-33774500D01*
X57435763Y-33803497D01*
X57435760Y-33803498D01*
X57338740Y-33859513D01*
X57338734Y-33859517D01*
X57259517Y-33938734D01*
X57259513Y-33938740D01*
X57203498Y-34035760D01*
X57203497Y-34035763D01*
X57174500Y-34143982D01*
X42825500Y-34143982D01*
X42796503Y-34035763D01*
X42740485Y-33938737D01*
X42661263Y-33859515D01*
X42564237Y-33803497D01*
X42456018Y-33774500D01*
X42343982Y-33774500D01*
X42235763Y-33803497D01*
X42235760Y-33803498D01*
X42138740Y-33859513D01*
X42138734Y-33859517D01*
X42059517Y-33938734D01*
X42059513Y-33938740D01*
X42003498Y-34035760D01*
X42003497Y-34035763D01*
X41974500Y-34143982D01*
X40987851Y-34143982D01*
X40980522Y-34131287D01*
X40980518Y-34131282D01*
X40868717Y-34019481D01*
X40868709Y-34019475D01*
X40731790Y-33940426D01*
X40731786Y-33940424D01*
X40731784Y-33940423D01*
X40579057Y-33899500D01*
X40420943Y-33899500D01*
X40268216Y-33940423D01*
X40268209Y-33940426D01*
X40131290Y-34019475D01*
X40131282Y-34019481D01*
X40019481Y-34131282D01*
X40019475Y-34131290D01*
X39940426Y-34268209D01*
X39940423Y-34268216D01*
X39899500Y-34420943D01*
X39490496Y-34420943D01*
X39499284Y-34406045D01*
X39502956Y-34400201D01*
X39885532Y-33827635D01*
X39889535Y-33821994D01*
X40303591Y-33271812D01*
X40307907Y-33266399D01*
X40411279Y-33143982D01*
X46874500Y-33143982D01*
X46874500Y-33256018D01*
X46903497Y-33364237D01*
X46959515Y-33461263D01*
X47038737Y-33540485D01*
X47135763Y-33596503D01*
X47243982Y-33625500D01*
X47243984Y-33625500D01*
X47356016Y-33625500D01*
X47356018Y-33625500D01*
X47464237Y-33596503D01*
X47561263Y-33540485D01*
X47640485Y-33461263D01*
X47696503Y-33364237D01*
X47725500Y-33256018D01*
X47725500Y-33243982D01*
X50474500Y-33243982D01*
X50474500Y-33356018D01*
X50503497Y-33464237D01*
X50559515Y-33561263D01*
X50638737Y-33640485D01*
X50735763Y-33696503D01*
X50843982Y-33725500D01*
X50843984Y-33725500D01*
X50956016Y-33725500D01*
X50956018Y-33725500D01*
X51064237Y-33696503D01*
X51161263Y-33640485D01*
X51240485Y-33561263D01*
X51296503Y-33464237D01*
X51325500Y-33356018D01*
X51325500Y-33243982D01*
X51296503Y-33135763D01*
X51240485Y-33038737D01*
X51161263Y-32959515D01*
X51064237Y-32903497D01*
X50956018Y-32874500D01*
X50843982Y-32874500D01*
X50735763Y-32903497D01*
X50735760Y-32903498D01*
X50638740Y-32959513D01*
X50638734Y-32959517D01*
X50559517Y-33038734D01*
X50559513Y-33038740D01*
X50503498Y-33135760D01*
X50503497Y-33135763D01*
X50474500Y-33243982D01*
X47725500Y-33243982D01*
X47725500Y-33143982D01*
X47696503Y-33035763D01*
X47640485Y-32938737D01*
X47561263Y-32859515D01*
X47464237Y-32803497D01*
X47356018Y-32774500D01*
X47243982Y-32774500D01*
X47135763Y-32803497D01*
X47135760Y-32803498D01*
X47038740Y-32859513D01*
X47038734Y-32859517D01*
X46959517Y-32938734D01*
X46959513Y-32938740D01*
X46903498Y-33035760D01*
X46903497Y-33035763D01*
X46874500Y-33143982D01*
X40411279Y-33143982D01*
X40752179Y-32740273D01*
X40756773Y-32735132D01*
X41229872Y-32234720D01*
X41234719Y-32229873D01*
X41561484Y-31920943D01*
X44399500Y-31920943D01*
X44399500Y-32079056D01*
X44440423Y-32231783D01*
X44440426Y-32231790D01*
X44519475Y-32368709D01*
X44519479Y-32368714D01*
X44519480Y-32368716D01*
X44631284Y-32480520D01*
X44631286Y-32480521D01*
X44631290Y-32480524D01*
X44768209Y-32559573D01*
X44768216Y-32559577D01*
X44920943Y-32600500D01*
X44920945Y-32600500D01*
X45079055Y-32600500D01*
X45079057Y-32600500D01*
X45231784Y-32559577D01*
X45368716Y-32480520D01*
X45480520Y-32368716D01*
X45559577Y-32231784D01*
X45600500Y-32079057D01*
X45600500Y-31920943D01*
X54399500Y-31920943D01*
X54399500Y-32079056D01*
X54440423Y-32231783D01*
X54440426Y-32231790D01*
X54519475Y-32368709D01*
X54519479Y-32368714D01*
X54519480Y-32368716D01*
X54631284Y-32480520D01*
X54631286Y-32480521D01*
X54631290Y-32480524D01*
X54768209Y-32559573D01*
X54768216Y-32559577D01*
X54920943Y-32600500D01*
X54920945Y-32600500D01*
X55079055Y-32600500D01*
X55079057Y-32600500D01*
X55231784Y-32559577D01*
X55368716Y-32480520D01*
X55480520Y-32368716D01*
X55559577Y-32231784D01*
X55600500Y-32079057D01*
X55600500Y-31920943D01*
X55559577Y-31768216D01*
X55550307Y-31752160D01*
X55480524Y-31631290D01*
X55480518Y-31631282D01*
X55368717Y-31519481D01*
X55368709Y-31519475D01*
X55231790Y-31440426D01*
X55231786Y-31440424D01*
X55231784Y-31440423D01*
X55079057Y-31399500D01*
X54920943Y-31399500D01*
X54768216Y-31440423D01*
X54768209Y-31440426D01*
X54631290Y-31519475D01*
X54631282Y-31519481D01*
X54519481Y-31631282D01*
X54519475Y-31631290D01*
X54440426Y-31768209D01*
X54440423Y-31768216D01*
X54399500Y-31920943D01*
X45600500Y-31920943D01*
X45559577Y-31768216D01*
X45550307Y-31752160D01*
X45480524Y-31631290D01*
X45480518Y-31631282D01*
X45368717Y-31519481D01*
X45368709Y-31519475D01*
X45231790Y-31440426D01*
X45231786Y-31440424D01*
X45231784Y-31440423D01*
X45079057Y-31399500D01*
X44920943Y-31399500D01*
X44768216Y-31440423D01*
X44768209Y-31440426D01*
X44631290Y-31519475D01*
X44631282Y-31519481D01*
X44519481Y-31631282D01*
X44519475Y-31631290D01*
X44440426Y-31768209D01*
X44440423Y-31768216D01*
X44399500Y-31920943D01*
X41561484Y-31920943D01*
X41735114Y-31756790D01*
X41740272Y-31752180D01*
X42266398Y-31307908D01*
X42271811Y-31303592D01*
X42616771Y-31043982D01*
X45474500Y-31043982D01*
X45474500Y-31156018D01*
X45503497Y-31264237D01*
X45559515Y-31361263D01*
X45638737Y-31440485D01*
X45735763Y-31496503D01*
X45843982Y-31525500D01*
X45843984Y-31525500D01*
X45956016Y-31525500D01*
X45956018Y-31525500D01*
X46064237Y-31496503D01*
X46161263Y-31440485D01*
X46240485Y-31361263D01*
X46296503Y-31264237D01*
X46325500Y-31156018D01*
X46325500Y-31043982D01*
X53474500Y-31043982D01*
X53474500Y-31156018D01*
X53503497Y-31264237D01*
X53559515Y-31361263D01*
X53638737Y-31440485D01*
X53735763Y-31496503D01*
X53843982Y-31525500D01*
X53843984Y-31525500D01*
X53956016Y-31525500D01*
X53956018Y-31525500D01*
X54064237Y-31496503D01*
X54161263Y-31440485D01*
X54240485Y-31361263D01*
X54296503Y-31264237D01*
X54325500Y-31156018D01*
X54325500Y-31043982D01*
X54296503Y-30935763D01*
X54240485Y-30838737D01*
X54161263Y-30759515D01*
X54064237Y-30703497D01*
X53956018Y-30674500D01*
X53843982Y-30674500D01*
X53735763Y-30703497D01*
X53735760Y-30703498D01*
X53638740Y-30759513D01*
X53638734Y-30759517D01*
X53559517Y-30838734D01*
X53559513Y-30838740D01*
X53503498Y-30935760D01*
X53503497Y-30935763D01*
X53474500Y-31043982D01*
X46325500Y-31043982D01*
X46296503Y-30935763D01*
X46240485Y-30838737D01*
X46161263Y-30759515D01*
X46064237Y-30703497D01*
X45956018Y-30674500D01*
X45843982Y-30674500D01*
X45735763Y-30703497D01*
X45735760Y-30703498D01*
X45638740Y-30759513D01*
X45638734Y-30759517D01*
X45559517Y-30838734D01*
X45559513Y-30838740D01*
X45503498Y-30935760D01*
X45503497Y-30935763D01*
X45474500Y-31043982D01*
X42616771Y-31043982D01*
X42821993Y-30889536D01*
X42827634Y-30885533D01*
X43400190Y-30502963D01*
X43406044Y-30499285D01*
X43999149Y-30149421D01*
X44005200Y-30146077D01*
X44616990Y-29830020D01*
X44623208Y-29827025D01*
X45251763Y-29545765D01*
X45258132Y-29543126D01*
X45901480Y-29297547D01*
X45907995Y-29295268D01*
X46564081Y-29086155D01*
X46570713Y-29084244D01*
X47237524Y-28912237D01*
X47244242Y-28910705D01*
X47919616Y-28776364D01*
X47926427Y-28775207D01*
X48608278Y-28678946D01*
X48615126Y-28678174D01*
X49301303Y-28620296D01*
X49308212Y-28619908D01*
X49996542Y-28600596D01*
X50003456Y-28600596D01*
X50691783Y-28619908D01*
G37*
%TD.AperFunction*%
%TD*%
M02*
