%TF.GenerationSoftware,KiCad,Pcbnew,9.0.5*%
%TF.CreationDate,2025-11-12T12:14:19+01:00*%
%TF.ProjectId,Control board,436f6e74-726f-46c2-9062-6f6172642e6b,rev?*%
%TF.SameCoordinates,Original*%
%TF.FileFunction,Copper,L3,Inr*%
%TF.FilePolarity,Positive*%
%FSLAX46Y46*%
G04 Gerber Fmt 4.6, Leading zero omitted, Abs format (unit mm)*
G04 Created by KiCad (PCBNEW 9.0.5) date 2025-11-12 12:14:19*
%MOMM*%
%LPD*%
G01*
G04 APERTURE LIST*
G04 Aperture macros list*
%AMRoundRect*
0 Rectangle with rounded corners*
0 $1 Rounding radius*
0 $2 $3 $4 $5 $6 $7 $8 $9 X,Y pos of 4 corners*
0 Add a 4 corners polygon primitive as box body*
4,1,4,$2,$3,$4,$5,$6,$7,$8,$9,$2,$3,0*
0 Add four circle primitives for the rounded corners*
1,1,$1+$1,$2,$3*
1,1,$1+$1,$4,$5*
1,1,$1+$1,$6,$7*
1,1,$1+$1,$8,$9*
0 Add four rect primitives between the rounded corners*
20,1,$1+$1,$2,$3,$4,$5,0*
20,1,$1+$1,$4,$5,$6,$7,0*
20,1,$1+$1,$6,$7,$8,$9,0*
20,1,$1+$1,$8,$9,$2,$3,0*%
%AMHorizOval*
0 Thick line with rounded ends*
0 $1 width*
0 $2 $3 position (X,Y) of the first rounded end (center of the circle)*
0 $4 $5 position (X,Y) of the second rounded end (center of the circle)*
0 Add line between two ends*
20,1,$1,$2,$3,$4,$5,0*
0 Add two circle primitives to create the rounded ends*
1,1,$1,$2,$3*
1,1,$1,$4,$5*%
%AMRotRect*
0 Rectangle, with rotation*
0 The origin of the aperture is its center*
0 $1 length*
0 $2 width*
0 $3 Rotation angle, in degrees counterclockwise*
0 Add horizontal line*
21,1,$1,$2,0,0,$3*%
G04 Aperture macros list end*
%TA.AperFunction,ComponentPad*%
%ADD10RoundRect,0.400000X0.750000X-0.100000X0.750000X0.100000X-0.750000X0.100000X-0.750000X-0.100000X0*%
%TD*%
%TA.AperFunction,ComponentPad*%
%ADD11RoundRect,0.450000X0.550000X-0.320000X0.550000X0.320000X-0.550000X0.320000X-0.550000X-0.320000X0*%
%TD*%
%TA.AperFunction,ComponentPad*%
%ADD12RotRect,1.700000X1.700000X225.000000*%
%TD*%
%TA.AperFunction,ComponentPad*%
%ADD13HorizOval,1.700000X0.000000X0.000000X0.000000X0.000000X0*%
%TD*%
%TA.AperFunction,ComponentPad*%
%ADD14R,1.700000X1.700000*%
%TD*%
%TA.AperFunction,ComponentPad*%
%ADD15O,1.700000X1.700000*%
%TD*%
%TA.AperFunction,ViaPad*%
%ADD16C,0.450000*%
%TD*%
%TA.AperFunction,ViaPad*%
%ADD17C,0.800000*%
%TD*%
%TA.AperFunction,Conductor*%
%ADD18C,0.250000*%
%TD*%
G04 APERTURE END LIST*
D10*
%TO.N,Net-(J1-SHIELD)*%
%TO.C,J1*%
X60550000Y-46920000D03*
D11*
X55999999Y-46650000D03*
X55999999Y-38550000D03*
D10*
X60550000Y-38280000D03*
%TD*%
D12*
%TO.N,GND*%
%TO.C,J3*%
X39812994Y-42000000D03*
D13*
%TO.N,+10V*%
X41609045Y-43796051D03*
%TO.N,Tx*%
X43405096Y-45592102D03*
%TO.N,Rx*%
X45201148Y-47388154D03*
%TD*%
D12*
%TO.N,+BATT*%
%TO.C,BT1*%
X40400000Y-37400000D03*
D13*
%TO.N,GND*%
X42196051Y-39196051D03*
%TD*%
D14*
%TO.N,GND*%
%TO.C,J2*%
X59500000Y-63854999D03*
D15*
%TO.N,+3.3V*%
X59500000Y-61314999D03*
%TO.N,~{RESET}*%
X59500000Y-58775000D03*
%TO.N,SWCLK*%
X59500000Y-56234999D03*
%TO.N,SWDIO*%
X59500000Y-53694999D03*
%TD*%
D16*
%TO.N,LED1*%
X52100000Y-43600000D03*
X43800000Y-35400000D03*
%TO.N,BTN1*%
X54925676Y-48861926D03*
%TO.N,+3.3V*%
X41800000Y-65800000D03*
X49600000Y-38700000D03*
X40825000Y-64825000D03*
X44500000Y-64800000D03*
X42300000Y-66300000D03*
X43400000Y-31600000D03*
X45000000Y-42300000D03*
X49000000Y-52500000D03*
X38300000Y-59073294D03*
X50000000Y-30000000D03*
X41300000Y-65300000D03*
X52333822Y-40875000D03*
X56600000Y-31600000D03*
D17*
%TO.N,GND*%
X43500000Y-67500000D03*
X50000000Y-37000000D03*
X61500000Y-41100000D03*
D16*
X47250000Y-44350000D03*
D17*
X51000000Y-70000000D03*
X52400000Y-62400000D03*
X51500000Y-57600000D03*
D16*
X46300000Y-49700000D03*
X44500000Y-51100000D03*
D17*
X40500000Y-34500000D03*
X45000000Y-32000000D03*
D16*
X57300000Y-54900000D03*
X51200000Y-52000000D03*
D17*
X43500000Y-65500000D03*
X45000000Y-39500000D03*
D16*
X51778439Y-43064065D03*
D17*
X56400000Y-62400000D03*
X54400000Y-62400000D03*
D16*
X50400000Y-53000000D03*
D17*
X39000000Y-55000000D03*
D16*
X52300000Y-42600000D03*
D17*
X50000000Y-70000000D03*
X55000000Y-51500000D03*
D16*
X46050000Y-41650000D03*
D17*
X59500000Y-36500000D03*
X54200000Y-57600000D03*
X43500000Y-66500000D03*
X55400000Y-62400000D03*
X49000000Y-70000000D03*
X55000000Y-32000000D03*
D16*
X50200000Y-55300000D03*
D17*
X53400000Y-62400000D03*
X39000000Y-53000000D03*
D16*
%TO.N,+BATT*%
X45200000Y-58000000D03*
%TO.N,BTN2*%
X54400000Y-49200000D03*
%TO.N,Net-(D2-K)*%
X42400000Y-34200000D03*
%TO.N,LED2*%
X52500000Y-44200000D03*
X47300000Y-33200000D03*
%TO.N,Net-(D3-K)*%
X45900000Y-31100000D03*
%TO.N,+10V*%
X41300000Y-46200000D03*
%TO.N,Net-(D4-K)*%
X53900000Y-31100000D03*
%TO.N,Net-(D5-K)*%
X57600000Y-34200000D03*
%TO.N,VBUS*%
X48900000Y-59800000D03*
X57100000Y-53000000D03*
%TO.N,LED3*%
X50900000Y-33300000D03*
X53600000Y-45100000D03*
%TO.N,LED4*%
X54200000Y-35500000D03*
X53300000Y-46000000D03*
%TO.N,USB_D+*%
X54381602Y-42802288D03*
X57900000Y-42375000D03*
%TO.N,USB_D-*%
X57900000Y-43025003D03*
X53835855Y-43106901D03*
%TO.N,Rx*%
X54402750Y-46900000D03*
%TO.N,Tx*%
X54400000Y-46100000D03*
%TO.N,Net-(J1-CC2)*%
X58400000Y-41100000D03*
%TO.N,Net-(J1-CC1)*%
X54200000Y-43900000D03*
%TO.N,PWREN*%
X49000000Y-61000000D03*
X53300000Y-51600000D03*
X47100000Y-55600000D03*
%TO.N,VBUS_S*%
X55400000Y-53000000D03*
X47700000Y-46574997D03*
%TO.N,Net-(U3-PA06)*%
X40300000Y-54300000D03*
X47700000Y-47200000D03*
%TO.N,AY*%
X47200000Y-48900000D03*
%TO.N,AX*%
X47500000Y-49500000D03*
%TO.N,CE*%
X45200000Y-59800000D03*
X47700000Y-50500000D03*
%TO.N,IO2*%
X47000000Y-38500000D03*
X55600000Y-49100000D03*
%TO.N,IO1*%
X54300000Y-47700000D03*
X45400000Y-45500000D03*
%TO.N,Net-(Q1-D)*%
X46800000Y-56200000D03*
%TD*%
D18*
%TO.N,Net-(J1-SHIELD)*%
X60550000Y-47320000D02*
X56269999Y-47320000D01*
X56269999Y-47320000D02*
X55999999Y-47050000D01*
X56269999Y-38680000D02*
X55999999Y-38950000D01*
X60550000Y-47320000D02*
X60550000Y-38680000D01*
X60550000Y-38680000D02*
X56269999Y-38680000D01*
%TO.N,LED1*%
X52883822Y-42816178D02*
X52883822Y-36783822D01*
X52100000Y-43600000D02*
X52883822Y-42816178D01*
X52883822Y-36783822D02*
X51500000Y-35400000D01*
X51500000Y-35400000D02*
X43800000Y-35400000D01*
%TO.N,LED2*%
X53284822Y-43415178D02*
X53284822Y-36484822D01*
X52500000Y-44200000D02*
X53284822Y-43415178D01*
X50000000Y-33200000D02*
X47300000Y-33200000D01*
X53284822Y-36484822D02*
X50000000Y-33200000D01*
%TO.N,LED3*%
X53799000Y-41399000D02*
X53799000Y-36199000D01*
X53799000Y-36199000D02*
X50900000Y-33300000D01*
X54926000Y-42526000D02*
X53799000Y-41399000D01*
X53600000Y-45100000D02*
X54443877Y-45100000D01*
X54926000Y-44617877D02*
X54926000Y-42526000D01*
X54443877Y-45100000D02*
X54926000Y-44617877D01*
%TO.N,LED4*%
X54200000Y-41200000D02*
X54200000Y-35500000D01*
X55400000Y-42400000D02*
X54200000Y-41200000D01*
X54626000Y-45574000D02*
X55400000Y-44800000D01*
X53600000Y-46000000D02*
X54026000Y-45574000D01*
X55400000Y-44800000D02*
X55400000Y-42400000D01*
X54026000Y-45574000D02*
X54626000Y-45574000D01*
X53300000Y-46000000D02*
X53600000Y-46000000D01*
%TO.N,Rx*%
X53474000Y-47726000D02*
X54300000Y-46900000D01*
X54300000Y-46900000D02*
X54402750Y-46900000D01*
X45201148Y-47601148D02*
X45326000Y-47726000D01*
X45201148Y-47388154D02*
X45201148Y-47601148D01*
X45326000Y-47726000D02*
X53474000Y-47726000D01*
%TO.N,Tx*%
X49048997Y-46048997D02*
X43648997Y-46048997D01*
X54400000Y-46100000D02*
X53900000Y-46600000D01*
X49600000Y-46600000D02*
X49048997Y-46048997D01*
X53900000Y-46600000D02*
X49600000Y-46600000D01*
X43648997Y-46048997D02*
X43405096Y-45805096D01*
X43405096Y-45805096D02*
X43405096Y-45592102D01*
%TD*%
%TA.AperFunction,Conductor*%
%TO.N,GND*%
G36*
X50692494Y-28619928D02*
G01*
X50697974Y-28620236D01*
X51385573Y-28678233D01*
X51391024Y-28678848D01*
X52074238Y-28775302D01*
X52079713Y-28776232D01*
X52756428Y-28910839D01*
X52761842Y-28912075D01*
X53429926Y-29084410D01*
X53435262Y-29085947D01*
X54092644Y-29295473D01*
X54097885Y-29297307D01*
X54233147Y-29348939D01*
X54742501Y-29543369D01*
X54747595Y-29545479D01*
X55377435Y-29827314D01*
X55382399Y-29829706D01*
X55995416Y-30146397D01*
X56000251Y-30149069D01*
X56594558Y-30499642D01*
X56599234Y-30502581D01*
X57172930Y-30885912D01*
X57177436Y-30889109D01*
X57383226Y-31043982D01*
X57728734Y-31304004D01*
X57733076Y-31307466D01*
X58260258Y-31752631D01*
X58264373Y-31756309D01*
X58375384Y-31861260D01*
X58765751Y-32230321D01*
X58769677Y-32234247D01*
X59051759Y-32532614D01*
X59243688Y-32735623D01*
X59247369Y-32739742D01*
X59349962Y-32861236D01*
X59692532Y-33266922D01*
X59695994Y-33271264D01*
X60110881Y-33822551D01*
X60114091Y-33827075D01*
X60253531Y-34035763D01*
X60497409Y-34400751D01*
X60500361Y-34405449D01*
X60614714Y-34599305D01*
X60850922Y-34999735D01*
X60853607Y-35004594D01*
X61024690Y-35335758D01*
X61170283Y-35617580D01*
X61172691Y-35622579D01*
X61360449Y-36042177D01*
X61454509Y-36252379D01*
X61456634Y-36257510D01*
X61702691Y-36902113D01*
X61704525Y-36907354D01*
X61914051Y-37564736D01*
X61915588Y-37570072D01*
X61959680Y-37740999D01*
X61955907Y-37802068D01*
X61916959Y-37849256D01*
X61857713Y-37864539D01*
X61800799Y-37842079D01*
X61785276Y-37825994D01*
X61728286Y-37751723D01*
X61728285Y-37751722D01*
X61728282Y-37751718D01*
X61728277Y-37751714D01*
X61728276Y-37751713D01*
X61602838Y-37655462D01*
X61456766Y-37594957D01*
X61456758Y-37594955D01*
X61339361Y-37579500D01*
X59760642Y-37579500D01*
X59760637Y-37579501D01*
X59643241Y-37594955D01*
X59643233Y-37594957D01*
X59497161Y-37655462D01*
X59497160Y-37655462D01*
X59371723Y-37751713D01*
X59371713Y-37751723D01*
X59275462Y-37877160D01*
X59275462Y-37877161D01*
X59214957Y-38023233D01*
X59214955Y-38023241D01*
X59201239Y-38127427D01*
X59199500Y-38140639D01*
X59199500Y-38243570D01*
X59199501Y-38255499D01*
X59180594Y-38313690D01*
X59131094Y-38349654D01*
X59100501Y-38354500D01*
X57299499Y-38354500D01*
X57241308Y-38335593D01*
X57205344Y-38286093D01*
X57200499Y-38255500D01*
X57200499Y-38164311D01*
X57200121Y-38159513D01*
X57197597Y-38127431D01*
X57151743Y-37969602D01*
X57068080Y-37828135D01*
X56951864Y-37711919D01*
X56810397Y-37628256D01*
X56652568Y-37582402D01*
X56652567Y-37582401D01*
X56652564Y-37582401D01*
X56629139Y-37580558D01*
X56615693Y-37579500D01*
X55384305Y-37579500D01*
X55371772Y-37580486D01*
X55347433Y-37582401D01*
X55347426Y-37582403D01*
X55189601Y-37628256D01*
X55048135Y-37711918D01*
X54931917Y-37828136D01*
X54848255Y-37969602D01*
X54802402Y-38127427D01*
X54802400Y-38127434D01*
X54799499Y-38164311D01*
X54799499Y-38935688D01*
X54802400Y-38972565D01*
X54802400Y-38972568D01*
X54802401Y-38972569D01*
X54848255Y-39130398D01*
X54931918Y-39271865D01*
X55048134Y-39388081D01*
X55189601Y-39471744D01*
X55347430Y-39517598D01*
X55384305Y-39520500D01*
X55384310Y-39520500D01*
X56615688Y-39520500D01*
X56615693Y-39520500D01*
X56652568Y-39517598D01*
X56810397Y-39471744D01*
X56810399Y-39471742D01*
X56812666Y-39471084D01*
X56873822Y-39473006D01*
X56922168Y-39510506D01*
X56926021Y-39516648D01*
X56929495Y-39522665D01*
X57027335Y-39620505D01*
X57147164Y-39689688D01*
X57280817Y-39725500D01*
X57280819Y-39725500D01*
X57419181Y-39725500D01*
X57419183Y-39725500D01*
X57552836Y-39689688D01*
X57672665Y-39620505D01*
X57770505Y-39522665D01*
X57839688Y-39402836D01*
X57875500Y-39269183D01*
X57875500Y-39130817D01*
X57875388Y-39130398D01*
X57875313Y-39130117D01*
X57875339Y-39129602D01*
X57874653Y-39124385D01*
X57875620Y-39124257D01*
X57878519Y-39069016D01*
X57917027Y-39021468D01*
X57970941Y-39005500D01*
X60125500Y-39005500D01*
X60183691Y-39024407D01*
X60219655Y-39073907D01*
X60224500Y-39104500D01*
X60224500Y-46120500D01*
X60205593Y-46178691D01*
X60156093Y-46214655D01*
X60125500Y-46219500D01*
X59760642Y-46219500D01*
X59760637Y-46219501D01*
X59643241Y-46234955D01*
X59643233Y-46234957D01*
X59497161Y-46295462D01*
X59497160Y-46295462D01*
X59371723Y-46391713D01*
X59371713Y-46391723D01*
X59275462Y-46517160D01*
X59275462Y-46517161D01*
X59214957Y-46663233D01*
X59214955Y-46663241D01*
X59204950Y-46739238D01*
X59199500Y-46780639D01*
X59199500Y-46887498D01*
X59199501Y-46895499D01*
X59180594Y-46953690D01*
X59131094Y-46989654D01*
X59100501Y-46994500D01*
X57299499Y-46994500D01*
X57241308Y-46975593D01*
X57205344Y-46926093D01*
X57200499Y-46895500D01*
X57200499Y-46624500D01*
X57219406Y-46566309D01*
X57268906Y-46530345D01*
X57299499Y-46525500D01*
X57419181Y-46525500D01*
X57419183Y-46525500D01*
X57552836Y-46489688D01*
X57672665Y-46420505D01*
X57770505Y-46322665D01*
X57839688Y-46202836D01*
X57875500Y-46069183D01*
X57875500Y-45930817D01*
X57839688Y-45797164D01*
X57770505Y-45677335D01*
X57672665Y-45579495D01*
X57552836Y-45510312D01*
X57419183Y-45474500D01*
X57280817Y-45474500D01*
X57147164Y-45510312D01*
X57027335Y-45579495D01*
X56929493Y-45677337D01*
X56926021Y-45683351D01*
X56880549Y-45724289D01*
X56819699Y-45730681D01*
X56812667Y-45728915D01*
X56652571Y-45682403D01*
X56652568Y-45682402D01*
X56652567Y-45682401D01*
X56652564Y-45682401D01*
X56629139Y-45680558D01*
X56615693Y-45679500D01*
X55384305Y-45679500D01*
X55371772Y-45680486D01*
X55347433Y-45682401D01*
X55347426Y-45682403D01*
X55196882Y-45726140D01*
X55135727Y-45724218D01*
X55087381Y-45686717D01*
X55070311Y-45627961D01*
X55091037Y-45570393D01*
X55099243Y-45561083D01*
X55660465Y-44999862D01*
X55703317Y-44925639D01*
X55703318Y-44925638D01*
X55725500Y-44842853D01*
X55725500Y-42357147D01*
X55724316Y-42352727D01*
X55715274Y-42318982D01*
X57474500Y-42318982D01*
X57474500Y-42431018D01*
X57482749Y-42461803D01*
X57503498Y-42539241D01*
X57559512Y-42636259D01*
X57562181Y-42639737D01*
X57582602Y-42697414D01*
X57565222Y-42756079D01*
X57562184Y-42760261D01*
X57559514Y-42763740D01*
X57503498Y-42860761D01*
X57503497Y-42860766D01*
X57474500Y-42968985D01*
X57474500Y-43081021D01*
X57497600Y-43167232D01*
X57503498Y-43189244D01*
X57554009Y-43276730D01*
X57559515Y-43286266D01*
X57638737Y-43365488D01*
X57638739Y-43365489D01*
X57735759Y-43421504D01*
X57735757Y-43421504D01*
X57735761Y-43421505D01*
X57735763Y-43421506D01*
X57843982Y-43450503D01*
X57843984Y-43450503D01*
X57956016Y-43450503D01*
X57956018Y-43450503D01*
X58064237Y-43421506D01*
X58064239Y-43421504D01*
X58064241Y-43421504D01*
X58123601Y-43387232D01*
X58161263Y-43365488D01*
X58240485Y-43286266D01*
X58296503Y-43189240D01*
X58325500Y-43081021D01*
X58325500Y-42968985D01*
X58296503Y-42860766D01*
X58296501Y-42860763D01*
X58296501Y-42860761D01*
X58240487Y-42763743D01*
X58237819Y-42760266D01*
X58217397Y-42702590D01*
X58234776Y-42643925D01*
X58237826Y-42639727D01*
X58240479Y-42636268D01*
X58240485Y-42636263D01*
X58262690Y-42597803D01*
X58296501Y-42539241D01*
X58296501Y-42539239D01*
X58296503Y-42539237D01*
X58325500Y-42431018D01*
X58325500Y-42318982D01*
X58296503Y-42210763D01*
X58296501Y-42210760D01*
X58296501Y-42210758D01*
X58240486Y-42113739D01*
X58240485Y-42113737D01*
X58161263Y-42034515D01*
X58161260Y-42034513D01*
X58064240Y-41978498D01*
X58064242Y-41978498D01*
X58022251Y-41967247D01*
X57956018Y-41949500D01*
X57843982Y-41949500D01*
X57777748Y-41967247D01*
X57735758Y-41978498D01*
X57638739Y-42034513D01*
X57559513Y-42113739D01*
X57503498Y-42210758D01*
X57503497Y-42210763D01*
X57474500Y-42318982D01*
X55715274Y-42318982D01*
X55703318Y-42274361D01*
X55699454Y-42267668D01*
X55660468Y-42200142D01*
X55660467Y-42200141D01*
X55660466Y-42200140D01*
X55660465Y-42200138D01*
X54554496Y-41094169D01*
X54528925Y-41043982D01*
X57974500Y-41043982D01*
X57974500Y-41156018D01*
X57990434Y-41215485D01*
X58003498Y-41264241D01*
X58024433Y-41300500D01*
X58059515Y-41361263D01*
X58138737Y-41440485D01*
X58138739Y-41440486D01*
X58235759Y-41496501D01*
X58235757Y-41496501D01*
X58235761Y-41496502D01*
X58235763Y-41496503D01*
X58343982Y-41525500D01*
X58343984Y-41525500D01*
X58456016Y-41525500D01*
X58456018Y-41525500D01*
X58564237Y-41496503D01*
X58564239Y-41496501D01*
X58564241Y-41496501D01*
X58593064Y-41479859D01*
X58661263Y-41440485D01*
X58740485Y-41361263D01*
X58796503Y-41264237D01*
X58825500Y-41156018D01*
X58825500Y-41043982D01*
X58796503Y-40935763D01*
X58796501Y-40935760D01*
X58796501Y-40935758D01*
X58740486Y-40838739D01*
X58740485Y-40838737D01*
X58661263Y-40759515D01*
X58661260Y-40759513D01*
X58564240Y-40703498D01*
X58564242Y-40703498D01*
X58522251Y-40692247D01*
X58456018Y-40674500D01*
X58343982Y-40674500D01*
X58277748Y-40692247D01*
X58235758Y-40703498D01*
X58138739Y-40759513D01*
X58059513Y-40838739D01*
X58003498Y-40935758D01*
X58003497Y-40935763D01*
X57974500Y-41043982D01*
X54528925Y-41043982D01*
X54526719Y-41039652D01*
X54525500Y-41024165D01*
X54525500Y-35813744D01*
X54538764Y-35764244D01*
X54596501Y-35664241D01*
X54596501Y-35664239D01*
X54596503Y-35664237D01*
X54625500Y-35556018D01*
X54625500Y-35443982D01*
X54596503Y-35335763D01*
X54596501Y-35335760D01*
X54596501Y-35335758D01*
X54540486Y-35238739D01*
X54540485Y-35238737D01*
X54461263Y-35159515D01*
X54461260Y-35159513D01*
X54364240Y-35103498D01*
X54364242Y-35103498D01*
X54322251Y-35092247D01*
X54256018Y-35074500D01*
X54143982Y-35074500D01*
X54077748Y-35092247D01*
X54035758Y-35103498D01*
X53938739Y-35159513D01*
X53859513Y-35238739D01*
X53803498Y-35335758D01*
X53774500Y-35443983D01*
X53774500Y-35475165D01*
X53755593Y-35533356D01*
X53706093Y-35569320D01*
X53644907Y-35569320D01*
X53605496Y-35545169D01*
X52204309Y-34143982D01*
X57174500Y-34143982D01*
X57174500Y-34256018D01*
X57200072Y-34351455D01*
X57203498Y-34364241D01*
X57259513Y-34461260D01*
X57259515Y-34461263D01*
X57338737Y-34540485D01*
X57338739Y-34540486D01*
X57435759Y-34596501D01*
X57435757Y-34596501D01*
X57435761Y-34596502D01*
X57435763Y-34596503D01*
X57543982Y-34625500D01*
X57543984Y-34625500D01*
X57656016Y-34625500D01*
X57656018Y-34625500D01*
X57764237Y-34596503D01*
X57764239Y-34596501D01*
X57764241Y-34596501D01*
X57793064Y-34579859D01*
X57861263Y-34540485D01*
X57940485Y-34461263D01*
X57996503Y-34364237D01*
X58025500Y-34256018D01*
X58025500Y-34143982D01*
X57996503Y-34035763D01*
X57996501Y-34035760D01*
X57996501Y-34035758D01*
X57940486Y-33938739D01*
X57940485Y-33938737D01*
X57861263Y-33859515D01*
X57861260Y-33859513D01*
X57764240Y-33803498D01*
X57764242Y-33803498D01*
X57722251Y-33792247D01*
X57656018Y-33774500D01*
X57543982Y-33774500D01*
X57477748Y-33792247D01*
X57435758Y-33803498D01*
X57338739Y-33859513D01*
X57259513Y-33938739D01*
X57203498Y-34035758D01*
X57203497Y-34035763D01*
X57174500Y-34143982D01*
X52204309Y-34143982D01*
X51352012Y-33291685D01*
X51326389Y-33247303D01*
X51325500Y-33243985D01*
X51325500Y-33243982D01*
X51296503Y-33135763D01*
X51271307Y-33092123D01*
X51240486Y-33038739D01*
X51240485Y-33038737D01*
X51161263Y-32959515D01*
X51126650Y-32939531D01*
X51064240Y-32903498D01*
X51064242Y-32903498D01*
X51022251Y-32892247D01*
X50956018Y-32874500D01*
X50843982Y-32874500D01*
X50777748Y-32892247D01*
X50735758Y-32903498D01*
X50638739Y-32959513D01*
X50559515Y-33038737D01*
X50528692Y-33092123D01*
X50483221Y-33133063D01*
X50422371Y-33139457D01*
X50372953Y-33112625D01*
X50199862Y-32939535D01*
X50199857Y-32939531D01*
X50125642Y-32896683D01*
X50125644Y-32896683D01*
X50093521Y-32888076D01*
X50042853Y-32874500D01*
X50042851Y-32874500D01*
X47613744Y-32874500D01*
X47564244Y-32861236D01*
X47464240Y-32803498D01*
X47464242Y-32803498D01*
X47422251Y-32792247D01*
X47356018Y-32774500D01*
X47243982Y-32774500D01*
X47177748Y-32792247D01*
X47135758Y-32803498D01*
X47038739Y-32859513D01*
X46959513Y-32938739D01*
X46903498Y-33035758D01*
X46888395Y-33092123D01*
X46874500Y-33143982D01*
X46874500Y-33256018D01*
X46884057Y-33291685D01*
X46903498Y-33364241D01*
X46959513Y-33461260D01*
X46959515Y-33461263D01*
X47038737Y-33540485D01*
X47038739Y-33540486D01*
X47135759Y-33596501D01*
X47135757Y-33596501D01*
X47135761Y-33596502D01*
X47135763Y-33596503D01*
X47243982Y-33625500D01*
X47243984Y-33625500D01*
X47356016Y-33625500D01*
X47356018Y-33625500D01*
X47464237Y-33596503D01*
X47464239Y-33596501D01*
X47464241Y-33596501D01*
X47564244Y-33538764D01*
X47613744Y-33525500D01*
X49824165Y-33525500D01*
X49882356Y-33544407D01*
X49894169Y-33554496D01*
X50595691Y-34256018D01*
X51245170Y-34905496D01*
X51272947Y-34960013D01*
X51263376Y-35020445D01*
X51220111Y-35063710D01*
X51175166Y-35074500D01*
X44113744Y-35074500D01*
X44064244Y-35061236D01*
X43964240Y-35003498D01*
X43964242Y-35003498D01*
X43922251Y-34992247D01*
X43856018Y-34974500D01*
X43743982Y-34974500D01*
X43677748Y-34992247D01*
X43635758Y-35003498D01*
X43538739Y-35059513D01*
X43459513Y-35138739D01*
X43403498Y-35235758D01*
X43387286Y-35296263D01*
X43374500Y-35343982D01*
X43374500Y-35456018D01*
X43395223Y-35533356D01*
X43403498Y-35564241D01*
X43459513Y-35661260D01*
X43459515Y-35661263D01*
X43538737Y-35740485D01*
X43538739Y-35740486D01*
X43635759Y-35796501D01*
X43635757Y-35796501D01*
X43635761Y-35796502D01*
X43635763Y-35796503D01*
X43743982Y-35825500D01*
X43743984Y-35825500D01*
X43856016Y-35825500D01*
X43856018Y-35825500D01*
X43964237Y-35796503D01*
X43964239Y-35796501D01*
X43964241Y-35796501D01*
X44064244Y-35738764D01*
X44113744Y-35725500D01*
X51324165Y-35725500D01*
X51382356Y-35744407D01*
X51394169Y-35754496D01*
X52529326Y-36889652D01*
X52557103Y-36944169D01*
X52558322Y-36959656D01*
X52558322Y-40365625D01*
X52539415Y-40423816D01*
X52489915Y-40459780D01*
X52433700Y-40461252D01*
X52416486Y-40456639D01*
X52389840Y-40449500D01*
X52277804Y-40449500D01*
X52233945Y-40461252D01*
X52169580Y-40478498D01*
X52072561Y-40534513D01*
X51993335Y-40613739D01*
X51937320Y-40710758D01*
X51924256Y-40759515D01*
X51908322Y-40818982D01*
X51908322Y-40931018D01*
X51933894Y-41026455D01*
X51937320Y-41039241D01*
X51993335Y-41136260D01*
X51993337Y-41136263D01*
X52072559Y-41215485D01*
X52072561Y-41215486D01*
X52169581Y-41271501D01*
X52169579Y-41271501D01*
X52169583Y-41271502D01*
X52169585Y-41271503D01*
X52277804Y-41300500D01*
X52277806Y-41300500D01*
X52389839Y-41300500D01*
X52389840Y-41300500D01*
X52433699Y-41288748D01*
X52494800Y-41291949D01*
X52542350Y-41330454D01*
X52558322Y-41384374D01*
X52558322Y-42640343D01*
X52539415Y-42698534D01*
X52529325Y-42710347D01*
X52091684Y-43147987D01*
X52047304Y-43173610D01*
X51935758Y-43203498D01*
X51838739Y-43259513D01*
X51759513Y-43338739D01*
X51703498Y-43435758D01*
X51692941Y-43475157D01*
X51674500Y-43543982D01*
X51674500Y-43656018D01*
X51699864Y-43750680D01*
X51703498Y-43764241D01*
X51749538Y-43843983D01*
X51759515Y-43861263D01*
X51838737Y-43940485D01*
X51865641Y-43956018D01*
X51935759Y-43996501D01*
X51935763Y-43996503D01*
X52006450Y-44015443D01*
X52057763Y-44048766D01*
X52079690Y-44105887D01*
X52076454Y-44136686D01*
X52074500Y-44143977D01*
X52074500Y-44143982D01*
X52074500Y-44256018D01*
X52085348Y-44296503D01*
X52103498Y-44364241D01*
X52159513Y-44461260D01*
X52159515Y-44461263D01*
X52238737Y-44540485D01*
X52238739Y-44540486D01*
X52335759Y-44596501D01*
X52335757Y-44596501D01*
X52335761Y-44596502D01*
X52335763Y-44596503D01*
X52443982Y-44625500D01*
X52443984Y-44625500D01*
X52556016Y-44625500D01*
X52556018Y-44625500D01*
X52664237Y-44596503D01*
X52664239Y-44596501D01*
X52664241Y-44596501D01*
X52693064Y-44579859D01*
X52761263Y-44540485D01*
X52840485Y-44461263D01*
X52896503Y-44364237D01*
X52925500Y-44256018D01*
X52925500Y-44256013D01*
X52926389Y-44252696D01*
X52952010Y-44208316D01*
X53545287Y-43615040D01*
X53580048Y-43554831D01*
X53582055Y-43553024D01*
X53582755Y-43550414D01*
X53604613Y-43532713D01*
X53625517Y-43513892D01*
X53628205Y-43513609D01*
X53630305Y-43511909D01*
X53658388Y-43510436D01*
X53686367Y-43507496D01*
X53691400Y-43508704D01*
X53777385Y-43531744D01*
X53828699Y-43565067D01*
X53850626Y-43622188D01*
X53837499Y-43676870D01*
X53803497Y-43735761D01*
X53799500Y-43750680D01*
X53774500Y-43843982D01*
X53774500Y-43956018D01*
X53799352Y-44048766D01*
X53803498Y-44064241D01*
X53859513Y-44161260D01*
X53859515Y-44161263D01*
X53938737Y-44240485D01*
X53965641Y-44256018D01*
X54035759Y-44296501D01*
X54035757Y-44296501D01*
X54035761Y-44296502D01*
X54035763Y-44296503D01*
X54143982Y-44325500D01*
X54143984Y-44325500D01*
X54256016Y-44325500D01*
X54256018Y-44325500D01*
X54364237Y-44296503D01*
X54452000Y-44245832D01*
X54462346Y-44243633D01*
X54470907Y-44237414D01*
X54491605Y-44237414D01*
X54511848Y-44233111D01*
X54521513Y-44237414D01*
X54532093Y-44237414D01*
X54548837Y-44249579D01*
X54567743Y-44257997D01*
X54573032Y-44267158D01*
X54581593Y-44273378D01*
X54587989Y-44293064D01*
X54598336Y-44310985D01*
X54600500Y-44331569D01*
X54600500Y-44442042D01*
X54581593Y-44500233D01*
X54571504Y-44512046D01*
X54338046Y-44745504D01*
X54283529Y-44773281D01*
X54268042Y-44774500D01*
X53913744Y-44774500D01*
X53864244Y-44761236D01*
X53764240Y-44703498D01*
X53764242Y-44703498D01*
X53722251Y-44692247D01*
X53656018Y-44674500D01*
X53543982Y-44674500D01*
X53477748Y-44692247D01*
X53435758Y-44703498D01*
X53338739Y-44759513D01*
X53259513Y-44838739D01*
X53203498Y-44935758D01*
X53203497Y-44935763D01*
X53174500Y-45043982D01*
X53174500Y-45156018D01*
X53196664Y-45238737D01*
X53203498Y-45264241D01*
X53259513Y-45361260D01*
X53259515Y-45361263D01*
X53304186Y-45405934D01*
X53331962Y-45460449D01*
X53322391Y-45520881D01*
X53279126Y-45564146D01*
X53247105Y-45574089D01*
X53243984Y-45574499D01*
X53135758Y-45603498D01*
X53038739Y-45659513D01*
X52959513Y-45738739D01*
X52903498Y-45835758D01*
X52903497Y-45835763D01*
X52874500Y-45943982D01*
X52874500Y-46056018D01*
X52899649Y-46149879D01*
X52896447Y-46210978D01*
X52857942Y-46258528D01*
X52804023Y-46274500D01*
X49775835Y-46274500D01*
X49717644Y-46255593D01*
X49705832Y-46245504D01*
X49248859Y-45788532D01*
X49248854Y-45788528D01*
X49174639Y-45745680D01*
X49174641Y-45745680D01*
X49142518Y-45737073D01*
X49091850Y-45723497D01*
X49091848Y-45723497D01*
X45909643Y-45723497D01*
X45851452Y-45704590D01*
X45815488Y-45655090D01*
X45814016Y-45598876D01*
X45825500Y-45556018D01*
X45825500Y-45443982D01*
X45796503Y-45335763D01*
X45796501Y-45335760D01*
X45796501Y-45335758D01*
X45740486Y-45238739D01*
X45740485Y-45238737D01*
X45661263Y-45159515D01*
X45661260Y-45159513D01*
X45564240Y-45103498D01*
X45564242Y-45103498D01*
X45522251Y-45092247D01*
X45456018Y-45074500D01*
X45343982Y-45074500D01*
X45277748Y-45092247D01*
X45235758Y-45103498D01*
X45138739Y-45159513D01*
X45059513Y-45238739D01*
X45003498Y-45335758D01*
X45003497Y-45335763D01*
X44974500Y-45443982D01*
X44974500Y-45556018D01*
X44985983Y-45598876D01*
X44982782Y-45659975D01*
X44944277Y-45707525D01*
X44890357Y-45723497D01*
X44554596Y-45723497D01*
X44496405Y-45704590D01*
X44460441Y-45655090D01*
X44455596Y-45624497D01*
X44455596Y-45488638D01*
X44455595Y-45488634D01*
X44446713Y-45443983D01*
X44415226Y-45285682D01*
X44336037Y-45094504D01*
X44221073Y-44922447D01*
X44074751Y-44776125D01*
X44052468Y-44761236D01*
X43902693Y-44661160D01*
X43711514Y-44581971D01*
X43508563Y-44541602D01*
X43508561Y-44541602D01*
X43301631Y-44541602D01*
X43301628Y-44541602D01*
X43098677Y-44581971D01*
X42907498Y-44661160D01*
X42735444Y-44776122D01*
X42589116Y-44922450D01*
X42474154Y-45094504D01*
X42394965Y-45285683D01*
X42354596Y-45488634D01*
X42354596Y-45695569D01*
X42394965Y-45898520D01*
X42474154Y-46089699D01*
X42571211Y-46234956D01*
X42589119Y-46261757D01*
X42735441Y-46408079D01*
X42907498Y-46523043D01*
X43098676Y-46602232D01*
X43301631Y-46642602D01*
X43301632Y-46642602D01*
X43508560Y-46642602D01*
X43508561Y-46642602D01*
X43711516Y-46602232D01*
X43902694Y-46523043D01*
X44074751Y-46408079D01*
X44079338Y-46403491D01*
X44133853Y-46375716D01*
X44149340Y-46374497D01*
X44500983Y-46374497D01*
X44559174Y-46393404D01*
X44595138Y-46442904D01*
X44595138Y-46504090D01*
X44559174Y-46553590D01*
X44555984Y-46555813D01*
X44531496Y-46572174D01*
X44385168Y-46718502D01*
X44270206Y-46890556D01*
X44191017Y-47081735D01*
X44150648Y-47284686D01*
X44150648Y-47491621D01*
X44191017Y-47694572D01*
X44270206Y-47885751D01*
X44373596Y-48040486D01*
X44385171Y-48057809D01*
X44531493Y-48204131D01*
X44703550Y-48319095D01*
X44894728Y-48398284D01*
X45097683Y-48438654D01*
X45097684Y-48438654D01*
X45304612Y-48438654D01*
X45304613Y-48438654D01*
X45507568Y-48398284D01*
X45698746Y-48319095D01*
X45870803Y-48204131D01*
X45994439Y-48080494D01*
X46048954Y-48052719D01*
X46064441Y-48051500D01*
X53516851Y-48051500D01*
X53516853Y-48051500D01*
X53599639Y-48029318D01*
X53599641Y-48029316D01*
X53599643Y-48029316D01*
X53673857Y-47986468D01*
X53673857Y-47986467D01*
X53673862Y-47986465D01*
X53772953Y-47887373D01*
X53827469Y-47859596D01*
X53887901Y-47869167D01*
X53928692Y-47907877D01*
X53959513Y-47961260D01*
X53959515Y-47961263D01*
X54038737Y-48040485D01*
X54038739Y-48040486D01*
X54135759Y-48096501D01*
X54135757Y-48096501D01*
X54135761Y-48096502D01*
X54135763Y-48096503D01*
X54243982Y-48125500D01*
X54243984Y-48125500D01*
X54356016Y-48125500D01*
X54356018Y-48125500D01*
X54464237Y-48096503D01*
X54464239Y-48096501D01*
X54464241Y-48096501D01*
X54493064Y-48079859D01*
X54561263Y-48040485D01*
X54640485Y-47961263D01*
X54696503Y-47864237D01*
X54725500Y-47756018D01*
X54725500Y-47643982D01*
X54696503Y-47535763D01*
X54696501Y-47535760D01*
X54696501Y-47535758D01*
X54640486Y-47438739D01*
X54640485Y-47438737D01*
X54614637Y-47412889D01*
X54604903Y-47393783D01*
X54591675Y-47376915D01*
X54591315Y-47367114D01*
X54586862Y-47358375D01*
X54590216Y-47337197D01*
X54589429Y-47315771D01*
X54594674Y-47309044D01*
X54596433Y-47297943D01*
X54623552Y-47264985D01*
X54629062Y-47260663D01*
X54664013Y-47240485D01*
X54697509Y-47206988D01*
X54702199Y-47203311D01*
X54725596Y-47194747D01*
X54747802Y-47183433D01*
X54753879Y-47184395D01*
X54759657Y-47182281D01*
X54783620Y-47189105D01*
X54808234Y-47193004D01*
X54812990Y-47197470D01*
X54818502Y-47199040D01*
X54829229Y-47212720D01*
X54848503Y-47230819D01*
X54931915Y-47371861D01*
X54931916Y-47371862D01*
X54931918Y-47371865D01*
X55048134Y-47488081D01*
X55189601Y-47571744D01*
X55347430Y-47617598D01*
X55384305Y-47620500D01*
X56120811Y-47620500D01*
X56133205Y-47621279D01*
X56142961Y-47622510D01*
X56144361Y-47623318D01*
X56227146Y-47645501D01*
X56312852Y-47645501D01*
X56312856Y-47645500D01*
X60507147Y-47645500D01*
X60592853Y-47645500D01*
X60673572Y-47623871D01*
X60699191Y-47620499D01*
X61339358Y-47620499D01*
X61339360Y-47620499D01*
X61456762Y-47605044D01*
X61602841Y-47544536D01*
X61728282Y-47448282D01*
X61824536Y-47322841D01*
X61885044Y-47176762D01*
X61900500Y-47059361D01*
X61900499Y-46780640D01*
X61885044Y-46663238D01*
X61868998Y-46624500D01*
X61824537Y-46517161D01*
X61824537Y-46517160D01*
X61728286Y-46391723D01*
X61728285Y-46391722D01*
X61728282Y-46391718D01*
X61728277Y-46391714D01*
X61728276Y-46391713D01*
X61602838Y-46295462D01*
X61456766Y-46234957D01*
X61456758Y-46234955D01*
X61339362Y-46219500D01*
X61339361Y-46219500D01*
X60974500Y-46219500D01*
X60916309Y-46200593D01*
X60880345Y-46151093D01*
X60875500Y-46120500D01*
X60875500Y-39079499D01*
X60894407Y-39021308D01*
X60943907Y-38985344D01*
X60974500Y-38980499D01*
X61339358Y-38980499D01*
X61339360Y-38980499D01*
X61456762Y-38965044D01*
X61602841Y-38904536D01*
X61728282Y-38808282D01*
X61824536Y-38682841D01*
X61885044Y-38536762D01*
X61900500Y-38419361D01*
X61900499Y-38300275D01*
X61919406Y-38242086D01*
X61968906Y-38206122D01*
X62030091Y-38206121D01*
X62079591Y-38242085D01*
X62096597Y-38280962D01*
X62223766Y-38920285D01*
X62224696Y-38925760D01*
X62321146Y-39608940D01*
X62321768Y-39614458D01*
X62379760Y-40301992D01*
X62380071Y-40307536D01*
X62399461Y-40998610D01*
X62399500Y-41001387D01*
X62399500Y-58998613D01*
X62399461Y-59001390D01*
X62380071Y-59692464D01*
X62379760Y-59698008D01*
X62321768Y-60385542D01*
X62321146Y-60391060D01*
X62224696Y-61074239D01*
X62223766Y-61079714D01*
X62089159Y-61756429D01*
X62087923Y-61761843D01*
X61915588Y-62429928D01*
X61914051Y-62435264D01*
X61704525Y-63092645D01*
X61702691Y-63097886D01*
X61456634Y-63742489D01*
X61454509Y-63747620D01*
X61172693Y-64377416D01*
X61170283Y-64382419D01*
X60853607Y-64995405D01*
X60850921Y-65000265D01*
X60500364Y-65594547D01*
X60497409Y-65599249D01*
X60114094Y-66172920D01*
X60110881Y-66177449D01*
X59695994Y-66728736D01*
X59692532Y-66733078D01*
X59247379Y-67260246D01*
X59243678Y-67264387D01*
X58769678Y-67765753D01*
X58765752Y-67769679D01*
X58264386Y-68243679D01*
X58260245Y-68247380D01*
X57733077Y-68692533D01*
X57728735Y-68695995D01*
X57177448Y-69110882D01*
X57172919Y-69114095D01*
X56599248Y-69497410D01*
X56594546Y-69500365D01*
X56000264Y-69850922D01*
X55995404Y-69853608D01*
X55382418Y-70170284D01*
X55377415Y-70172694D01*
X54747619Y-70454510D01*
X54742488Y-70456635D01*
X54097885Y-70702692D01*
X54092644Y-70704526D01*
X53435263Y-70914052D01*
X53429927Y-70915589D01*
X52761842Y-71087924D01*
X52756428Y-71089160D01*
X52079713Y-71223767D01*
X52074238Y-71224697D01*
X51391059Y-71321147D01*
X51385541Y-71321769D01*
X50698007Y-71379761D01*
X50692463Y-71380072D01*
X50002777Y-71399423D01*
X49997223Y-71399423D01*
X49307536Y-71380072D01*
X49301992Y-71379761D01*
X48614458Y-71321769D01*
X48608942Y-71321147D01*
X48544378Y-71312032D01*
X47925761Y-71224697D01*
X47920286Y-71223767D01*
X47243571Y-71089160D01*
X47238157Y-71087924D01*
X46570072Y-70915589D01*
X46564736Y-70914052D01*
X45907355Y-70704526D01*
X45902114Y-70702692D01*
X45257511Y-70456635D01*
X45252387Y-70454512D01*
X44622580Y-70172692D01*
X44617581Y-70170284D01*
X44004595Y-69853608D01*
X43999735Y-69850922D01*
X43546134Y-69583350D01*
X43405449Y-69500362D01*
X43400751Y-69497410D01*
X42860584Y-69136482D01*
X42827075Y-69114092D01*
X42822551Y-69110882D01*
X42271264Y-68695995D01*
X42266922Y-68692533D01*
X42119568Y-68568104D01*
X41739743Y-68247370D01*
X41735624Y-68243688D01*
X41533141Y-68052258D01*
X41234247Y-67769679D01*
X41230321Y-67765753D01*
X40965973Y-67486143D01*
X40756310Y-67264374D01*
X40752632Y-67260259D01*
X40307467Y-66733078D01*
X40304005Y-66728736D01*
X40104949Y-66464237D01*
X39889110Y-66177438D01*
X39885905Y-66172920D01*
X39502582Y-65599236D01*
X39499643Y-65594560D01*
X39149077Y-65000264D01*
X39146392Y-64995405D01*
X39083931Y-64874500D01*
X39029419Y-64768982D01*
X40399500Y-64768982D01*
X40399500Y-64881018D01*
X40420533Y-64959513D01*
X40428498Y-64989241D01*
X40470081Y-65061263D01*
X40484515Y-65086263D01*
X40563737Y-65165485D01*
X40563739Y-65165486D01*
X40660759Y-65221501D01*
X40660757Y-65221501D01*
X40660761Y-65221502D01*
X40660763Y-65221503D01*
X40768982Y-65250500D01*
X40775500Y-65250500D01*
X40833691Y-65269407D01*
X40869655Y-65318907D01*
X40874500Y-65349500D01*
X40874500Y-65356018D01*
X40881265Y-65381264D01*
X40903498Y-65464241D01*
X40959513Y-65561260D01*
X40959515Y-65561263D01*
X41038737Y-65640485D01*
X41038739Y-65640486D01*
X41135759Y-65696501D01*
X41135757Y-65696501D01*
X41135761Y-65696502D01*
X41135763Y-65696503D01*
X41243982Y-65725500D01*
X41243984Y-65725500D01*
X41275500Y-65725500D01*
X41333691Y-65744407D01*
X41369655Y-65793907D01*
X41374500Y-65824500D01*
X41374500Y-65856018D01*
X41381265Y-65881264D01*
X41403498Y-65964241D01*
X41459513Y-66061260D01*
X41459515Y-66061263D01*
X41538737Y-66140485D01*
X41538739Y-66140486D01*
X41635759Y-66196501D01*
X41635757Y-66196501D01*
X41635761Y-66196502D01*
X41635763Y-66196503D01*
X41743982Y-66225500D01*
X41743984Y-66225500D01*
X41775500Y-66225500D01*
X41833691Y-66244407D01*
X41869655Y-66293907D01*
X41874500Y-66324500D01*
X41874500Y-66356018D01*
X41900072Y-66451455D01*
X41903498Y-66464241D01*
X41959513Y-66561260D01*
X41959515Y-66561263D01*
X42038737Y-66640485D01*
X42038739Y-66640486D01*
X42135759Y-66696501D01*
X42135757Y-66696501D01*
X42135761Y-66696502D01*
X42135763Y-66696503D01*
X42243982Y-66725500D01*
X42243984Y-66725500D01*
X42356016Y-66725500D01*
X42356018Y-66725500D01*
X42464237Y-66696503D01*
X42464239Y-66696501D01*
X42464241Y-66696501D01*
X42493064Y-66679859D01*
X42561263Y-66640485D01*
X42640485Y-66561263D01*
X42696503Y-66464237D01*
X42725500Y-66356018D01*
X42725500Y-66243982D01*
X42696503Y-66135763D01*
X42696501Y-66135760D01*
X42696501Y-66135758D01*
X42640486Y-66038739D01*
X42640485Y-66038737D01*
X42561263Y-65959515D01*
X42561260Y-65959513D01*
X42464240Y-65903498D01*
X42464242Y-65903498D01*
X42422251Y-65892247D01*
X42356018Y-65874500D01*
X42324500Y-65874500D01*
X42266309Y-65855593D01*
X42230345Y-65806093D01*
X42225500Y-65775500D01*
X42225500Y-65743983D01*
X42225500Y-65743982D01*
X42196503Y-65635763D01*
X42196501Y-65635760D01*
X42196501Y-65635758D01*
X42140486Y-65538739D01*
X42140485Y-65538737D01*
X42061263Y-65459515D01*
X42061260Y-65459513D01*
X41964240Y-65403498D01*
X41964242Y-65403498D01*
X41922251Y-65392247D01*
X41856018Y-65374500D01*
X41824500Y-65374500D01*
X41766309Y-65355593D01*
X41730345Y-65306093D01*
X41725500Y-65275500D01*
X41725500Y-65243983D01*
X41725500Y-65243982D01*
X41696503Y-65135763D01*
X41696501Y-65135760D01*
X41696501Y-65135758D01*
X41640486Y-65038739D01*
X41640485Y-65038737D01*
X41561263Y-64959515D01*
X41561260Y-64959513D01*
X41464240Y-64903498D01*
X41464242Y-64903498D01*
X41422251Y-64892247D01*
X41356018Y-64874500D01*
X41356016Y-64874500D01*
X41349500Y-64874500D01*
X41340595Y-64871606D01*
X41331311Y-64872815D01*
X41312108Y-64862351D01*
X41291309Y-64855593D01*
X41285804Y-64848017D01*
X41277585Y-64843538D01*
X41271566Y-64828420D01*
X41255345Y-64806093D01*
X41251327Y-64788273D01*
X41250500Y-64781917D01*
X41250500Y-64768982D01*
X41243801Y-64743982D01*
X44074500Y-64743982D01*
X44074500Y-64856018D01*
X44081199Y-64881018D01*
X44103498Y-64964241D01*
X44159513Y-65061260D01*
X44159515Y-65061263D01*
X44238737Y-65140485D01*
X44238739Y-65140486D01*
X44335759Y-65196501D01*
X44335757Y-65196501D01*
X44335761Y-65196502D01*
X44335763Y-65196503D01*
X44443982Y-65225500D01*
X44443984Y-65225500D01*
X44556016Y-65225500D01*
X44556018Y-65225500D01*
X44664237Y-65196503D01*
X44664239Y-65196501D01*
X44664241Y-65196501D01*
X44717960Y-65165486D01*
X44761263Y-65140485D01*
X44840485Y-65061263D01*
X44896503Y-64964237D01*
X44925500Y-64856018D01*
X44925500Y-64743982D01*
X44896503Y-64635763D01*
X44896501Y-64635760D01*
X44896501Y-64635758D01*
X44840486Y-64538739D01*
X44840485Y-64538737D01*
X44761263Y-64459515D01*
X44761260Y-64459513D01*
X44664240Y-64403498D01*
X44664242Y-64403498D01*
X44622251Y-64392247D01*
X44556018Y-64374500D01*
X44443982Y-64374500D01*
X44377748Y-64392247D01*
X44335758Y-64403498D01*
X44238739Y-64459513D01*
X44159513Y-64538739D01*
X44103498Y-64635758D01*
X44096798Y-64660763D01*
X44074500Y-64743982D01*
X41243801Y-64743982D01*
X41221503Y-64660763D01*
X41221501Y-64660760D01*
X41221501Y-64660758D01*
X41165486Y-64563739D01*
X41165485Y-64563737D01*
X41086263Y-64484515D01*
X41086260Y-64484513D01*
X40989240Y-64428498D01*
X40989242Y-64428498D01*
X40947251Y-64417247D01*
X40881018Y-64399500D01*
X40768982Y-64399500D01*
X40702748Y-64417247D01*
X40660758Y-64428498D01*
X40563739Y-64484513D01*
X40484513Y-64563739D01*
X40428498Y-64660758D01*
X40428497Y-64660763D01*
X40399500Y-64768982D01*
X39029419Y-64768982D01*
X38829707Y-64382400D01*
X38827315Y-64377436D01*
X38545480Y-63747596D01*
X38543365Y-63742489D01*
X38297308Y-63097886D01*
X38295474Y-63092645D01*
X38085948Y-62435264D01*
X38084411Y-62429928D01*
X37912076Y-61761843D01*
X37910840Y-61756429D01*
X37776233Y-61079714D01*
X37775303Y-61074240D01*
X37775303Y-61074239D01*
X37756914Y-60943982D01*
X48574500Y-60943982D01*
X48574500Y-61056018D01*
X48600072Y-61151455D01*
X48603498Y-61164241D01*
X48659513Y-61261260D01*
X48659515Y-61261263D01*
X48738737Y-61340485D01*
X48738739Y-61340486D01*
X48835759Y-61396501D01*
X48835757Y-61396501D01*
X48835761Y-61396502D01*
X48835763Y-61396503D01*
X48943982Y-61425500D01*
X48943984Y-61425500D01*
X49056016Y-61425500D01*
X49056018Y-61425500D01*
X49164237Y-61396503D01*
X49164239Y-61396501D01*
X49164241Y-61396501D01*
X49193064Y-61379859D01*
X49261263Y-61340485D01*
X49340485Y-61261263D01*
X49369198Y-61211531D01*
X58449500Y-61211531D01*
X58449500Y-61418466D01*
X58489869Y-61621417D01*
X58569058Y-61812596D01*
X58569059Y-61812597D01*
X58684023Y-61984654D01*
X58830345Y-62130976D01*
X59002402Y-62245940D01*
X59193580Y-62325129D01*
X59396535Y-62365499D01*
X59396536Y-62365499D01*
X59603464Y-62365499D01*
X59603465Y-62365499D01*
X59806420Y-62325129D01*
X59997598Y-62245940D01*
X60169655Y-62130976D01*
X60315977Y-61984654D01*
X60430941Y-61812597D01*
X60510130Y-61621419D01*
X60550500Y-61418464D01*
X60550500Y-61211534D01*
X60510130Y-61008579D01*
X60430941Y-60817401D01*
X60315977Y-60645344D01*
X60169655Y-60499022D01*
X60169651Y-60499019D01*
X59997597Y-60384057D01*
X59806418Y-60304868D01*
X59603467Y-60264499D01*
X59603465Y-60264499D01*
X59396535Y-60264499D01*
X59396532Y-60264499D01*
X59193581Y-60304868D01*
X59002402Y-60384057D01*
X58830348Y-60499019D01*
X58684020Y-60645347D01*
X58569058Y-60817401D01*
X58489869Y-61008580D01*
X58449500Y-61211531D01*
X49369198Y-61211531D01*
X49396503Y-61164237D01*
X49425500Y-61056018D01*
X49425500Y-60943982D01*
X49396503Y-60835763D01*
X49396501Y-60835760D01*
X49396501Y-60835758D01*
X49340486Y-60738739D01*
X49340485Y-60738737D01*
X49261263Y-60659515D01*
X49261260Y-60659513D01*
X49164240Y-60603498D01*
X49164242Y-60603498D01*
X49122251Y-60592247D01*
X49056018Y-60574500D01*
X48943982Y-60574500D01*
X48877748Y-60592247D01*
X48835758Y-60603498D01*
X48738739Y-60659513D01*
X48659513Y-60738739D01*
X48603498Y-60835758D01*
X48603497Y-60835763D01*
X48574500Y-60943982D01*
X37756914Y-60943982D01*
X37678849Y-60391026D01*
X37678234Y-60385575D01*
X37624117Y-59743982D01*
X44774500Y-59743982D01*
X44774500Y-59856018D01*
X44800072Y-59951455D01*
X44803498Y-59964241D01*
X44856183Y-60055492D01*
X44859515Y-60061263D01*
X44938737Y-60140485D01*
X44938739Y-60140486D01*
X45035759Y-60196501D01*
X45035757Y-60196501D01*
X45035761Y-60196502D01*
X45035763Y-60196503D01*
X45143982Y-60225500D01*
X45143984Y-60225500D01*
X45256016Y-60225500D01*
X45256018Y-60225500D01*
X45364237Y-60196503D01*
X45364239Y-60196501D01*
X45364241Y-60196501D01*
X45393064Y-60179859D01*
X45461263Y-60140485D01*
X45540485Y-60061263D01*
X45596503Y-59964237D01*
X45625500Y-59856018D01*
X45625500Y-59743982D01*
X48474500Y-59743982D01*
X48474500Y-59856018D01*
X48500072Y-59951455D01*
X48503498Y-59964241D01*
X48556183Y-60055492D01*
X48559515Y-60061263D01*
X48638737Y-60140485D01*
X48638739Y-60140486D01*
X48735759Y-60196501D01*
X48735757Y-60196501D01*
X48735761Y-60196502D01*
X48735763Y-60196503D01*
X48843982Y-60225500D01*
X48843984Y-60225500D01*
X48956016Y-60225500D01*
X48956018Y-60225500D01*
X49064237Y-60196503D01*
X49064239Y-60196501D01*
X49064241Y-60196501D01*
X49093064Y-60179859D01*
X49161263Y-60140485D01*
X49240485Y-60061263D01*
X49296503Y-59964237D01*
X49325500Y-59856018D01*
X49325500Y-59743982D01*
X49296503Y-59635763D01*
X49296501Y-59635760D01*
X49296501Y-59635758D01*
X49240486Y-59538739D01*
X49240485Y-59538737D01*
X49161263Y-59459515D01*
X49135518Y-59444651D01*
X49064240Y-59403498D01*
X49064242Y-59403498D01*
X49022251Y-59392247D01*
X48956018Y-59374500D01*
X48843982Y-59374500D01*
X48777748Y-59392247D01*
X48735758Y-59403498D01*
X48638739Y-59459513D01*
X48559513Y-59538739D01*
X48503498Y-59635758D01*
X48503497Y-59635763D01*
X48474500Y-59743982D01*
X45625500Y-59743982D01*
X45596503Y-59635763D01*
X45596501Y-59635760D01*
X45596501Y-59635758D01*
X45540486Y-59538739D01*
X45540485Y-59538737D01*
X45461263Y-59459515D01*
X45435518Y-59444651D01*
X45364240Y-59403498D01*
X45364242Y-59403498D01*
X45322251Y-59392247D01*
X45256018Y-59374500D01*
X45143982Y-59374500D01*
X45077748Y-59392247D01*
X45035758Y-59403498D01*
X44938739Y-59459513D01*
X44859513Y-59538739D01*
X44803498Y-59635758D01*
X44803497Y-59635763D01*
X44774500Y-59743982D01*
X37624117Y-59743982D01*
X37620237Y-59697978D01*
X37619929Y-59692494D01*
X37604128Y-59129310D01*
X37600985Y-59017276D01*
X37874500Y-59017276D01*
X37874500Y-59129312D01*
X37900072Y-59224749D01*
X37903498Y-59237535D01*
X37959513Y-59334554D01*
X37959515Y-59334557D01*
X38038737Y-59413779D01*
X38038739Y-59413780D01*
X38135759Y-59469795D01*
X38135757Y-59469795D01*
X38135761Y-59469796D01*
X38135763Y-59469797D01*
X38243982Y-59498794D01*
X38243984Y-59498794D01*
X38356016Y-59498794D01*
X38356018Y-59498794D01*
X38464237Y-59469797D01*
X38464239Y-59469795D01*
X38464241Y-59469795D01*
X38507791Y-59444651D01*
X38561263Y-59413779D01*
X38640485Y-59334557D01*
X38696503Y-59237531D01*
X38725500Y-59129312D01*
X38725500Y-59017276D01*
X38696503Y-58909057D01*
X38696501Y-58909054D01*
X38696501Y-58909052D01*
X38640486Y-58812033D01*
X38640485Y-58812031D01*
X38561263Y-58732809D01*
X38561260Y-58732807D01*
X38464240Y-58676792D01*
X38464242Y-58676792D01*
X38444611Y-58671532D01*
X58449500Y-58671532D01*
X58449500Y-58878467D01*
X58489869Y-59081418D01*
X58569058Y-59272597D01*
X58569059Y-59272598D01*
X58684023Y-59444655D01*
X58830345Y-59590977D01*
X59002402Y-59705941D01*
X59193580Y-59785130D01*
X59396535Y-59825500D01*
X59396536Y-59825500D01*
X59603464Y-59825500D01*
X59603465Y-59825500D01*
X59806420Y-59785130D01*
X59997598Y-59705941D01*
X60169655Y-59590977D01*
X60315977Y-59444655D01*
X60430941Y-59272598D01*
X60510130Y-59081420D01*
X60550500Y-58878465D01*
X60550500Y-58671535D01*
X60510130Y-58468580D01*
X60430941Y-58277402D01*
X60315977Y-58105345D01*
X60169655Y-57959023D01*
X60147146Y-57943983D01*
X59997597Y-57844058D01*
X59806418Y-57764869D01*
X59603467Y-57724500D01*
X59603465Y-57724500D01*
X59396535Y-57724500D01*
X59396532Y-57724500D01*
X59193581Y-57764869D01*
X59002402Y-57844058D01*
X58830348Y-57959020D01*
X58684020Y-58105348D01*
X58569058Y-58277402D01*
X58489869Y-58468581D01*
X58449500Y-58671532D01*
X38444611Y-58671532D01*
X38422251Y-58665541D01*
X38356018Y-58647794D01*
X38243982Y-58647794D01*
X38177748Y-58665541D01*
X38135758Y-58676792D01*
X38038739Y-58732807D01*
X37959513Y-58812033D01*
X37903498Y-58909052D01*
X37903497Y-58909057D01*
X37874500Y-59017276D01*
X37600985Y-59017276D01*
X37600881Y-59013563D01*
X37600539Y-59001393D01*
X37600500Y-58998613D01*
X37600500Y-57943982D01*
X44774500Y-57943982D01*
X44774500Y-58056018D01*
X44787717Y-58105345D01*
X44803498Y-58164241D01*
X44859513Y-58261260D01*
X44859515Y-58261263D01*
X44938737Y-58340485D01*
X44938739Y-58340486D01*
X45035759Y-58396501D01*
X45035757Y-58396501D01*
X45035761Y-58396502D01*
X45035763Y-58396503D01*
X45143982Y-58425500D01*
X45143984Y-58425500D01*
X45256016Y-58425500D01*
X45256018Y-58425500D01*
X45364237Y-58396503D01*
X45364239Y-58396501D01*
X45364241Y-58396501D01*
X45393064Y-58379859D01*
X45461263Y-58340485D01*
X45540485Y-58261263D01*
X45596503Y-58164237D01*
X45625500Y-58056018D01*
X45625500Y-57943982D01*
X45596503Y-57835763D01*
X45596501Y-57835760D01*
X45596501Y-57835758D01*
X45540486Y-57738739D01*
X45540485Y-57738737D01*
X45461263Y-57659515D01*
X45461260Y-57659513D01*
X45364240Y-57603498D01*
X45364242Y-57603498D01*
X45322251Y-57592247D01*
X45256018Y-57574500D01*
X45143982Y-57574500D01*
X45077748Y-57592247D01*
X45035758Y-57603498D01*
X44938739Y-57659513D01*
X44859513Y-57738739D01*
X44803498Y-57835758D01*
X44803497Y-57835763D01*
X44774500Y-57943982D01*
X37600500Y-57943982D01*
X37600500Y-56143982D01*
X46374500Y-56143982D01*
X46374500Y-56256018D01*
X46396591Y-56338462D01*
X46403498Y-56364241D01*
X46459513Y-56461260D01*
X46459515Y-56461263D01*
X46538737Y-56540485D01*
X46540355Y-56541419D01*
X46635759Y-56596501D01*
X46635757Y-56596501D01*
X46635761Y-56596502D01*
X46635763Y-56596503D01*
X46743982Y-56625500D01*
X46743984Y-56625500D01*
X46856016Y-56625500D01*
X46856018Y-56625500D01*
X46964237Y-56596503D01*
X46964239Y-56596501D01*
X46964241Y-56596501D01*
X46993064Y-56579859D01*
X47061263Y-56540485D01*
X47140485Y-56461263D01*
X47196503Y-56364237D01*
X47225500Y-56256018D01*
X47225500Y-56143982D01*
X47222164Y-56131531D01*
X58449500Y-56131531D01*
X58449500Y-56338466D01*
X58489869Y-56541417D01*
X58569058Y-56732596D01*
X58569059Y-56732597D01*
X58684023Y-56904654D01*
X58830345Y-57050976D01*
X59002402Y-57165940D01*
X59193580Y-57245129D01*
X59396535Y-57285499D01*
X59396536Y-57285499D01*
X59603464Y-57285499D01*
X59603465Y-57285499D01*
X59806420Y-57245129D01*
X59997598Y-57165940D01*
X60169655Y-57050976D01*
X60315977Y-56904654D01*
X60430941Y-56732597D01*
X60510130Y-56541419D01*
X60550500Y-56338464D01*
X60550500Y-56131534D01*
X60510130Y-55928579D01*
X60430941Y-55737401D01*
X60315977Y-55565344D01*
X60169655Y-55419022D01*
X60169651Y-55419019D01*
X59997597Y-55304057D01*
X59806418Y-55224868D01*
X59603467Y-55184499D01*
X59603465Y-55184499D01*
X59396535Y-55184499D01*
X59396532Y-55184499D01*
X59193581Y-55224868D01*
X59002402Y-55304057D01*
X58830348Y-55419019D01*
X58684020Y-55565347D01*
X58569058Y-55737401D01*
X58489869Y-55928580D01*
X58449500Y-56131531D01*
X47222164Y-56131531D01*
X47215996Y-56108514D01*
X47215975Y-56108432D01*
X47217746Y-56078118D01*
X47219329Y-56047906D01*
X47219525Y-56047662D01*
X47219544Y-56047351D01*
X47238739Y-56023934D01*
X47257833Y-56000355D01*
X47258307Y-56000064D01*
X47258333Y-56000033D01*
X47258377Y-56000021D01*
X47262255Y-55997646D01*
X47264232Y-55996504D01*
X47264237Y-55996503D01*
X47361263Y-55940485D01*
X47440485Y-55861263D01*
X47496503Y-55764237D01*
X47525500Y-55656018D01*
X47525500Y-55543982D01*
X47496503Y-55435763D01*
X47496501Y-55435760D01*
X47496501Y-55435758D01*
X47440486Y-55338739D01*
X47440485Y-55338737D01*
X47361263Y-55259515D01*
X47361260Y-55259513D01*
X47264240Y-55203498D01*
X47264242Y-55203498D01*
X47222251Y-55192247D01*
X47156018Y-55174500D01*
X47043982Y-55174500D01*
X46977748Y-55192247D01*
X46935758Y-55203498D01*
X46838739Y-55259513D01*
X46759513Y-55338739D01*
X46703498Y-55435758D01*
X46674500Y-55543983D01*
X46674500Y-55656020D01*
X46683871Y-55690994D01*
X46680668Y-55752095D01*
X46642162Y-55799644D01*
X46637745Y-55802351D01*
X46538738Y-55859514D01*
X46459513Y-55938739D01*
X46403498Y-56035758D01*
X46400243Y-56047906D01*
X46374500Y-56143982D01*
X37600500Y-56143982D01*
X37600500Y-54243982D01*
X39874500Y-54243982D01*
X39874500Y-54356018D01*
X39876813Y-54364650D01*
X39903498Y-54464241D01*
X39959513Y-54561260D01*
X39959515Y-54561263D01*
X40038737Y-54640485D01*
X40038739Y-54640486D01*
X40135759Y-54696501D01*
X40135757Y-54696501D01*
X40135761Y-54696502D01*
X40135763Y-54696503D01*
X40243982Y-54725500D01*
X40243984Y-54725500D01*
X40356016Y-54725500D01*
X40356018Y-54725500D01*
X40464237Y-54696503D01*
X40464239Y-54696501D01*
X40464241Y-54696501D01*
X40493064Y-54679859D01*
X40561263Y-54640485D01*
X40640485Y-54561263D01*
X40696503Y-54464237D01*
X40725500Y-54356018D01*
X40725500Y-54243982D01*
X40696503Y-54135763D01*
X40696501Y-54135760D01*
X40696501Y-54135758D01*
X40640486Y-54038739D01*
X40640485Y-54038737D01*
X40561263Y-53959515D01*
X40561260Y-53959513D01*
X40464240Y-53903498D01*
X40464242Y-53903498D01*
X40422251Y-53892247D01*
X40356018Y-53874500D01*
X40243982Y-53874500D01*
X40177748Y-53892247D01*
X40135758Y-53903498D01*
X40038739Y-53959513D01*
X39959513Y-54038739D01*
X39903498Y-54135758D01*
X39903497Y-54135763D01*
X39874500Y-54243982D01*
X37600500Y-54243982D01*
X37600500Y-53591531D01*
X58449500Y-53591531D01*
X58449500Y-53798466D01*
X58489869Y-54001417D01*
X58569058Y-54192596D01*
X58684020Y-54364650D01*
X58684023Y-54364654D01*
X58830345Y-54510976D01*
X59002402Y-54625940D01*
X59193580Y-54705129D01*
X59396535Y-54745499D01*
X59396536Y-54745499D01*
X59603464Y-54745499D01*
X59603465Y-54745499D01*
X59806420Y-54705129D01*
X59997598Y-54625940D01*
X60169655Y-54510976D01*
X60315977Y-54364654D01*
X60430941Y-54192597D01*
X60510130Y-54001419D01*
X60550500Y-53798464D01*
X60550500Y-53591534D01*
X60510130Y-53388579D01*
X60430941Y-53197401D01*
X60315977Y-53025344D01*
X60169655Y-52879022D01*
X60169651Y-52879019D01*
X59997597Y-52764057D01*
X59806418Y-52684868D01*
X59603467Y-52644499D01*
X59603465Y-52644499D01*
X59396535Y-52644499D01*
X59396532Y-52644499D01*
X59193581Y-52684868D01*
X59002402Y-52764057D01*
X58830348Y-52879019D01*
X58684020Y-53025347D01*
X58569058Y-53197401D01*
X58489869Y-53388580D01*
X58449500Y-53591531D01*
X37600500Y-53591531D01*
X37600500Y-52943982D01*
X54974500Y-52943982D01*
X54974500Y-53056018D01*
X55000072Y-53151455D01*
X55003498Y-53164241D01*
X55059513Y-53261260D01*
X55059515Y-53261263D01*
X55138737Y-53340485D01*
X55138739Y-53340486D01*
X55235759Y-53396501D01*
X55235757Y-53396501D01*
X55235761Y-53396502D01*
X55235763Y-53396503D01*
X55343982Y-53425500D01*
X55343984Y-53425500D01*
X55456016Y-53425500D01*
X55456018Y-53425500D01*
X55564237Y-53396503D01*
X55564239Y-53396501D01*
X55564241Y-53396501D01*
X55593064Y-53379859D01*
X55661263Y-53340485D01*
X55740485Y-53261263D01*
X55796503Y-53164237D01*
X55825500Y-53056018D01*
X55825500Y-52943982D01*
X56674500Y-52943982D01*
X56674500Y-53056018D01*
X56700072Y-53151455D01*
X56703498Y-53164241D01*
X56759513Y-53261260D01*
X56759515Y-53261263D01*
X56838737Y-53340485D01*
X56838739Y-53340486D01*
X56935759Y-53396501D01*
X56935757Y-53396501D01*
X56935761Y-53396502D01*
X56935763Y-53396503D01*
X57043982Y-53425500D01*
X57043984Y-53425500D01*
X57156016Y-53425500D01*
X57156018Y-53425500D01*
X57264237Y-53396503D01*
X57264239Y-53396501D01*
X57264241Y-53396501D01*
X57293064Y-53379859D01*
X57361263Y-53340485D01*
X57440485Y-53261263D01*
X57496503Y-53164237D01*
X57525500Y-53056018D01*
X57525500Y-52943982D01*
X57496503Y-52835763D01*
X57496501Y-52835760D01*
X57496501Y-52835758D01*
X57440486Y-52738739D01*
X57440485Y-52738737D01*
X57361263Y-52659515D01*
X57335255Y-52644499D01*
X57264240Y-52603498D01*
X57264242Y-52603498D01*
X57222251Y-52592247D01*
X57156018Y-52574500D01*
X57043982Y-52574500D01*
X56977748Y-52592247D01*
X56935758Y-52603498D01*
X56838739Y-52659513D01*
X56759513Y-52738739D01*
X56703498Y-52835758D01*
X56702231Y-52840486D01*
X56674500Y-52943982D01*
X55825500Y-52943982D01*
X55796503Y-52835763D01*
X55796501Y-52835760D01*
X55796501Y-52835758D01*
X55740486Y-52738739D01*
X55740485Y-52738737D01*
X55661263Y-52659515D01*
X55635255Y-52644499D01*
X55564240Y-52603498D01*
X55564242Y-52603498D01*
X55522251Y-52592247D01*
X55456018Y-52574500D01*
X55343982Y-52574500D01*
X55277748Y-52592247D01*
X55235758Y-52603498D01*
X55138739Y-52659513D01*
X55059513Y-52738739D01*
X55003498Y-52835758D01*
X55002231Y-52840486D01*
X54974500Y-52943982D01*
X37600500Y-52943982D01*
X37600500Y-52443982D01*
X48574500Y-52443982D01*
X48574500Y-52556018D01*
X48587222Y-52603497D01*
X48603498Y-52664241D01*
X48659513Y-52761260D01*
X48659515Y-52761263D01*
X48738737Y-52840485D01*
X48738739Y-52840486D01*
X48835759Y-52896501D01*
X48835757Y-52896501D01*
X48835761Y-52896502D01*
X48835763Y-52896503D01*
X48943982Y-52925500D01*
X48943984Y-52925500D01*
X49056016Y-52925500D01*
X49056018Y-52925500D01*
X49164237Y-52896503D01*
X49164239Y-52896501D01*
X49164241Y-52896501D01*
X49198748Y-52876577D01*
X49261263Y-52840485D01*
X49340485Y-52761263D01*
X49396503Y-52664237D01*
X49425500Y-52556018D01*
X49425500Y-52443982D01*
X49396503Y-52335763D01*
X49396501Y-52335760D01*
X49396501Y-52335758D01*
X49340486Y-52238739D01*
X49340485Y-52238737D01*
X49261263Y-52159515D01*
X49261260Y-52159513D01*
X49164240Y-52103498D01*
X49164242Y-52103498D01*
X49122251Y-52092247D01*
X49056018Y-52074500D01*
X48943982Y-52074500D01*
X48877748Y-52092247D01*
X48835758Y-52103498D01*
X48738739Y-52159513D01*
X48659513Y-52238739D01*
X48603498Y-52335758D01*
X48603497Y-52335763D01*
X48574500Y-52443982D01*
X37600500Y-52443982D01*
X37600500Y-49875434D01*
X38099500Y-49875434D01*
X38099500Y-50124567D01*
X38132017Y-50371558D01*
X38132017Y-50371563D01*
X38196496Y-50612200D01*
X38196500Y-50612213D01*
X38291832Y-50842366D01*
X38291834Y-50842370D01*
X38291836Y-50842374D01*
X38339829Y-50925500D01*
X38416403Y-51058131D01*
X38568056Y-51255770D01*
X38568058Y-51255772D01*
X38568062Y-51255777D01*
X38744224Y-51431939D01*
X38744228Y-51431942D01*
X38744230Y-51431944D01*
X38890243Y-51543983D01*
X38941873Y-51583600D01*
X39157627Y-51708165D01*
X39387793Y-51803503D01*
X39628435Y-51867983D01*
X39875435Y-51900501D01*
X39875436Y-51900501D01*
X40124564Y-51900501D01*
X40124565Y-51900501D01*
X40371565Y-51867983D01*
X40612207Y-51803503D01*
X40842373Y-51708165D01*
X41058127Y-51583600D01*
X41109758Y-51543982D01*
X52874500Y-51543982D01*
X52874500Y-51656018D01*
X52900072Y-51751455D01*
X52903498Y-51764241D01*
X52959513Y-51861260D01*
X52959515Y-51861263D01*
X53038737Y-51940485D01*
X53038739Y-51940486D01*
X53135759Y-51996501D01*
X53135757Y-51996501D01*
X53135761Y-51996502D01*
X53135763Y-51996503D01*
X53243982Y-52025500D01*
X53243984Y-52025500D01*
X53356016Y-52025500D01*
X53356018Y-52025500D01*
X53464237Y-51996503D01*
X53464239Y-51996501D01*
X53464241Y-51996501D01*
X53493064Y-51979859D01*
X53561263Y-51940485D01*
X53640485Y-51861263D01*
X53696503Y-51764237D01*
X53725500Y-51656018D01*
X53725500Y-51543982D01*
X53696503Y-51435763D01*
X53696501Y-51435760D01*
X53696501Y-51435758D01*
X53640486Y-51338739D01*
X53640485Y-51338737D01*
X53561263Y-51259515D01*
X53554789Y-51255777D01*
X53464240Y-51203498D01*
X53464242Y-51203498D01*
X53422251Y-51192247D01*
X53356018Y-51174500D01*
X53243982Y-51174500D01*
X53177748Y-51192247D01*
X53135758Y-51203498D01*
X53038739Y-51259513D01*
X52959513Y-51338739D01*
X52903498Y-51435758D01*
X52903497Y-51435763D01*
X52874500Y-51543982D01*
X41109758Y-51543982D01*
X41143594Y-51518018D01*
X41220574Y-51458951D01*
X41255769Y-51431944D01*
X41255776Y-51431939D01*
X41431938Y-51255777D01*
X41583599Y-51058128D01*
X41708164Y-50842374D01*
X41803502Y-50612208D01*
X41867982Y-50371566D01*
X41900500Y-50124566D01*
X41900500Y-49875436D01*
X41867982Y-49628436D01*
X41803502Y-49387794D01*
X41709670Y-49161263D01*
X41708167Y-49157635D01*
X41708166Y-49157634D01*
X41708164Y-49157628D01*
X41583599Y-48941874D01*
X41549748Y-48897759D01*
X41549748Y-48897757D01*
X41508485Y-48843982D01*
X46774500Y-48843982D01*
X46774500Y-48956018D01*
X46798070Y-49043982D01*
X46803498Y-49064241D01*
X46856501Y-49156043D01*
X46859515Y-49161263D01*
X46938737Y-49240485D01*
X47035763Y-49296503D01*
X47035767Y-49296504D01*
X47037745Y-49297646D01*
X47078686Y-49343116D01*
X47085082Y-49403966D01*
X47083872Y-49409004D01*
X47074500Y-49443982D01*
X47074500Y-49556018D01*
X47085348Y-49596503D01*
X47103498Y-49664241D01*
X47159513Y-49761260D01*
X47159515Y-49761263D01*
X47238737Y-49840485D01*
X47238739Y-49840486D01*
X47335759Y-49896501D01*
X47335757Y-49896501D01*
X47335761Y-49896502D01*
X47335763Y-49896503D01*
X47443982Y-49925500D01*
X47443984Y-49925500D01*
X47474589Y-49925500D01*
X47532780Y-49944407D01*
X47568744Y-49993907D01*
X47568744Y-50055093D01*
X47532780Y-50104593D01*
X47524090Y-50110236D01*
X47438738Y-50159514D01*
X47359513Y-50238739D01*
X47303498Y-50335758D01*
X47303497Y-50335763D01*
X47274500Y-50443982D01*
X47274500Y-50556018D01*
X47300072Y-50651455D01*
X47303498Y-50664241D01*
X47359513Y-50761260D01*
X47359515Y-50761263D01*
X47438737Y-50840485D01*
X47438739Y-50840486D01*
X47535759Y-50896501D01*
X47535757Y-50896501D01*
X47535761Y-50896502D01*
X47535763Y-50896503D01*
X47643982Y-50925500D01*
X47643984Y-50925500D01*
X47756016Y-50925500D01*
X47756018Y-50925500D01*
X47864237Y-50896503D01*
X47864239Y-50896501D01*
X47864241Y-50896501D01*
X47893064Y-50879859D01*
X47961263Y-50840485D01*
X48040485Y-50761263D01*
X48096503Y-50664237D01*
X48125500Y-50556018D01*
X48125500Y-50443982D01*
X48096503Y-50335763D01*
X48096501Y-50335760D01*
X48096501Y-50335758D01*
X48040486Y-50238739D01*
X48040485Y-50238737D01*
X47961263Y-50159515D01*
X47961260Y-50159513D01*
X47864240Y-50103498D01*
X47864242Y-50103498D01*
X47822251Y-50092247D01*
X47756018Y-50074500D01*
X47725411Y-50074500D01*
X47725089Y-50074395D01*
X47724767Y-50074498D01*
X47696020Y-50064950D01*
X47667220Y-50055593D01*
X47667021Y-50055319D01*
X47666701Y-50055213D01*
X47649078Y-50030622D01*
X47631256Y-50006093D01*
X47631256Y-50005754D01*
X47631059Y-50005480D01*
X47631256Y-49975195D01*
X47631256Y-49944907D01*
X47631454Y-49944633D01*
X47631457Y-49944296D01*
X47633691Y-49941555D01*
X47667220Y-49895407D01*
X47667742Y-49895031D01*
X47671701Y-49892193D01*
X47700729Y-49875434D01*
X58099500Y-49875434D01*
X58099500Y-50124567D01*
X58132017Y-50371558D01*
X58132017Y-50371563D01*
X58196496Y-50612200D01*
X58196500Y-50612213D01*
X58291832Y-50842366D01*
X58291834Y-50842370D01*
X58291836Y-50842374D01*
X58339829Y-50925500D01*
X58416403Y-51058131D01*
X58568056Y-51255770D01*
X58568058Y-51255772D01*
X58568062Y-51255777D01*
X58744224Y-51431939D01*
X58744228Y-51431942D01*
X58744230Y-51431944D01*
X58890243Y-51543983D01*
X58941873Y-51583600D01*
X59157627Y-51708165D01*
X59387793Y-51803503D01*
X59628435Y-51867983D01*
X59875435Y-51900501D01*
X59875436Y-51900501D01*
X60124564Y-51900501D01*
X60124565Y-51900501D01*
X60371565Y-51867983D01*
X60612207Y-51803503D01*
X60842373Y-51708165D01*
X61058127Y-51583600D01*
X61255776Y-51431939D01*
X61431938Y-51255777D01*
X61583599Y-51058128D01*
X61708164Y-50842374D01*
X61803502Y-50612208D01*
X61867982Y-50371566D01*
X61900500Y-50124566D01*
X61900500Y-49875436D01*
X61867982Y-49628436D01*
X61803502Y-49387794D01*
X61709670Y-49161263D01*
X61708167Y-49157635D01*
X61708166Y-49157634D01*
X61708164Y-49157628D01*
X61583599Y-48941874D01*
X61583596Y-48941870D01*
X61431943Y-48744231D01*
X61431941Y-48744229D01*
X61431938Y-48744225D01*
X61255776Y-48568063D01*
X61255771Y-48568059D01*
X61255769Y-48568057D01*
X61058130Y-48416404D01*
X61058127Y-48416402D01*
X60842373Y-48291837D01*
X60842369Y-48291835D01*
X60842365Y-48291833D01*
X60612212Y-48196501D01*
X60612211Y-48196500D01*
X60612207Y-48196499D01*
X60371565Y-48132019D01*
X60371562Y-48132018D01*
X60371560Y-48132018D01*
X60124566Y-48099501D01*
X60124565Y-48099501D01*
X59875435Y-48099501D01*
X59875433Y-48099501D01*
X59628442Y-48132018D01*
X59628437Y-48132018D01*
X59387800Y-48196497D01*
X59387787Y-48196501D01*
X59157634Y-48291833D01*
X58941869Y-48416404D01*
X58744230Y-48568057D01*
X58568056Y-48744231D01*
X58416403Y-48941870D01*
X58350002Y-49056881D01*
X58299715Y-49143982D01*
X58291832Y-49157635D01*
X58196500Y-49387788D01*
X58196496Y-49387801D01*
X58132017Y-49628438D01*
X58132017Y-49628443D01*
X58099500Y-49875434D01*
X47700729Y-49875434D01*
X47761263Y-49840485D01*
X47840485Y-49761263D01*
X47896503Y-49664237D01*
X47925500Y-49556018D01*
X47925500Y-49443982D01*
X47896503Y-49335763D01*
X47896501Y-49335760D01*
X47896501Y-49335758D01*
X47841494Y-49240485D01*
X47840485Y-49238737D01*
X47761263Y-49159515D01*
X47734359Y-49143982D01*
X53974500Y-49143982D01*
X53974500Y-49256018D01*
X53997838Y-49343116D01*
X54003498Y-49364241D01*
X54049538Y-49443983D01*
X54059515Y-49461263D01*
X54138737Y-49540485D01*
X54165641Y-49556018D01*
X54235759Y-49596501D01*
X54235757Y-49596501D01*
X54235761Y-49596502D01*
X54235763Y-49596503D01*
X54343982Y-49625500D01*
X54343984Y-49625500D01*
X54456016Y-49625500D01*
X54456018Y-49625500D01*
X54564237Y-49596503D01*
X54564239Y-49596501D01*
X54564241Y-49596501D01*
X54593064Y-49579859D01*
X54661263Y-49540485D01*
X54740485Y-49461263D01*
X54796503Y-49364237D01*
X54797424Y-49360800D01*
X54798811Y-49358664D01*
X54798986Y-49358242D01*
X54799064Y-49358274D01*
X54830750Y-49309486D01*
X54887872Y-49287561D01*
X54893050Y-49287426D01*
X54981692Y-49287426D01*
X54981694Y-49287426D01*
X55089913Y-49258429D01*
X55089915Y-49258427D01*
X55089918Y-49258427D01*
X55095911Y-49255945D01*
X55096798Y-49258087D01*
X55146672Y-49247474D01*
X55202574Y-49272346D01*
X55222085Y-49296433D01*
X55234237Y-49317480D01*
X55259515Y-49361263D01*
X55338737Y-49440485D01*
X55338739Y-49440486D01*
X55435759Y-49496501D01*
X55435757Y-49496501D01*
X55435761Y-49496502D01*
X55435763Y-49496503D01*
X55543982Y-49525500D01*
X55543984Y-49525500D01*
X55656016Y-49525500D01*
X55656018Y-49525500D01*
X55764237Y-49496503D01*
X55764239Y-49496501D01*
X55764241Y-49496501D01*
X55825274Y-49461263D01*
X55861263Y-49440485D01*
X55940485Y-49361263D01*
X55996503Y-49264237D01*
X56025500Y-49156018D01*
X56025500Y-49043982D01*
X55996503Y-48935763D01*
X55996501Y-48935760D01*
X55996501Y-48935758D01*
X55940486Y-48838739D01*
X55940485Y-48838737D01*
X55861263Y-48759515D01*
X55861260Y-48759513D01*
X55764240Y-48703498D01*
X55764242Y-48703498D01*
X55712137Y-48689537D01*
X55656018Y-48674500D01*
X55543982Y-48674500D01*
X55487863Y-48689537D01*
X55435758Y-48703498D01*
X55429766Y-48705981D01*
X55428882Y-48703848D01*
X55378941Y-48714445D01*
X55323054Y-48689537D01*
X55303590Y-48665491D01*
X55266162Y-48600665D01*
X55266161Y-48600663D01*
X55186939Y-48521441D01*
X55186936Y-48521439D01*
X55089916Y-48465424D01*
X55089918Y-48465424D01*
X55047927Y-48454173D01*
X54981694Y-48436426D01*
X54869658Y-48436426D01*
X54803424Y-48454173D01*
X54761434Y-48465424D01*
X54664415Y-48521439D01*
X54585189Y-48600665D01*
X54529174Y-48697685D01*
X54529173Y-48697686D01*
X54528252Y-48701126D01*
X54526864Y-48703262D01*
X54526691Y-48703681D01*
X54526613Y-48703648D01*
X54494926Y-48752440D01*
X54437804Y-48774365D01*
X54432626Y-48774500D01*
X54343982Y-48774500D01*
X54277748Y-48792247D01*
X54235758Y-48803498D01*
X54138739Y-48859513D01*
X54059513Y-48938739D01*
X54003498Y-49035758D01*
X54001294Y-49043983D01*
X53974500Y-49143982D01*
X47734359Y-49143982D01*
X47662254Y-49102351D01*
X47621314Y-49056881D01*
X47614919Y-48996031D01*
X47616118Y-48991029D01*
X47625500Y-48956018D01*
X47625500Y-48843982D01*
X47596503Y-48735763D01*
X47596501Y-48735760D01*
X47596501Y-48735758D01*
X47540486Y-48638739D01*
X47540485Y-48638737D01*
X47461263Y-48559515D01*
X47461260Y-48559513D01*
X47364240Y-48503498D01*
X47364242Y-48503498D01*
X47322251Y-48492247D01*
X47256018Y-48474500D01*
X47143982Y-48474500D01*
X47077748Y-48492247D01*
X47035758Y-48503498D01*
X46938739Y-48559513D01*
X46859513Y-48638739D01*
X46803498Y-48735758D01*
X46789596Y-48787643D01*
X46774500Y-48843982D01*
X41508485Y-48843982D01*
X41431943Y-48744231D01*
X41431941Y-48744229D01*
X41431938Y-48744225D01*
X41255776Y-48568063D01*
X41255771Y-48568059D01*
X41255769Y-48568057D01*
X41058130Y-48416404D01*
X41058127Y-48416402D01*
X40842373Y-48291837D01*
X40842369Y-48291835D01*
X40842365Y-48291833D01*
X40612212Y-48196501D01*
X40612211Y-48196500D01*
X40612207Y-48196499D01*
X40371565Y-48132019D01*
X40371562Y-48132018D01*
X40371560Y-48132018D01*
X40124566Y-48099501D01*
X40124565Y-48099501D01*
X39875435Y-48099501D01*
X39875433Y-48099501D01*
X39628442Y-48132018D01*
X39628437Y-48132018D01*
X39387800Y-48196497D01*
X39387787Y-48196501D01*
X39157634Y-48291833D01*
X38941869Y-48416404D01*
X38744230Y-48568057D01*
X38568056Y-48744231D01*
X38416403Y-48941870D01*
X38350002Y-49056881D01*
X38299715Y-49143982D01*
X38291832Y-49157635D01*
X38196500Y-49387788D01*
X38196496Y-49387801D01*
X38132017Y-49628438D01*
X38132017Y-49628443D01*
X38099500Y-49875434D01*
X37600500Y-49875434D01*
X37600500Y-46143982D01*
X40874500Y-46143982D01*
X40874500Y-46256018D01*
X40892358Y-46322664D01*
X40903498Y-46364241D01*
X40959513Y-46461260D01*
X40959515Y-46461263D01*
X41038737Y-46540485D01*
X41038739Y-46540486D01*
X41135759Y-46596501D01*
X41135757Y-46596501D01*
X41135761Y-46596502D01*
X41135763Y-46596503D01*
X41243982Y-46625500D01*
X41243984Y-46625500D01*
X41356016Y-46625500D01*
X41356018Y-46625500D01*
X41464237Y-46596503D01*
X41464239Y-46596501D01*
X41464241Y-46596501D01*
X41506376Y-46572174D01*
X41561263Y-46540485D01*
X41640485Y-46461263D01*
X41690536Y-46374573D01*
X41696501Y-46364241D01*
X41696501Y-46364239D01*
X41696503Y-46364237D01*
X41725500Y-46256018D01*
X41725500Y-46143982D01*
X41696503Y-46035763D01*
X41696501Y-46035760D01*
X41696501Y-46035758D01*
X41640486Y-45938739D01*
X41640485Y-45938737D01*
X41561263Y-45859515D01*
X41561260Y-45859513D01*
X41464240Y-45803498D01*
X41464242Y-45803498D01*
X41408386Y-45788532D01*
X41356018Y-45774500D01*
X41243982Y-45774500D01*
X41191614Y-45788532D01*
X41135758Y-45803498D01*
X41038739Y-45859513D01*
X40959513Y-45938739D01*
X40903498Y-46035758D01*
X40894543Y-46069181D01*
X40874500Y-46143982D01*
X37600500Y-46143982D01*
X37600500Y-43692583D01*
X40558545Y-43692583D01*
X40558545Y-43899518D01*
X40598914Y-44102469D01*
X40678103Y-44293648D01*
X40777256Y-44442042D01*
X40793068Y-44465706D01*
X40939390Y-44612028D01*
X41111447Y-44726992D01*
X41302625Y-44806181D01*
X41505580Y-44846551D01*
X41505581Y-44846551D01*
X41712509Y-44846551D01*
X41712510Y-44846551D01*
X41915465Y-44806181D01*
X42106643Y-44726992D01*
X42278700Y-44612028D01*
X42425022Y-44465706D01*
X42539986Y-44293649D01*
X42619175Y-44102471D01*
X42659545Y-43899516D01*
X42659545Y-43692586D01*
X42619175Y-43489631D01*
X42539986Y-43298453D01*
X42425022Y-43126396D01*
X42278700Y-42980074D01*
X42262106Y-42968986D01*
X42106642Y-42865109D01*
X41915463Y-42785920D01*
X41712512Y-42745551D01*
X41712510Y-42745551D01*
X41505580Y-42745551D01*
X41505577Y-42745551D01*
X41302626Y-42785920D01*
X41111447Y-42865109D01*
X40939393Y-42980071D01*
X40793065Y-43126399D01*
X40678103Y-43298453D01*
X40598914Y-43489632D01*
X40558545Y-43692583D01*
X37600500Y-43692583D01*
X37600500Y-42243982D01*
X44574500Y-42243982D01*
X44574500Y-42356018D01*
X44587835Y-42405785D01*
X44603498Y-42464241D01*
X44647831Y-42541026D01*
X44659515Y-42561263D01*
X44738737Y-42640485D01*
X44738739Y-42640486D01*
X44835759Y-42696501D01*
X44835757Y-42696501D01*
X44835761Y-42696502D01*
X44835763Y-42696503D01*
X44943982Y-42725500D01*
X44943984Y-42725500D01*
X45056016Y-42725500D01*
X45056018Y-42725500D01*
X45164237Y-42696503D01*
X45164239Y-42696501D01*
X45164241Y-42696501D01*
X45204256Y-42673398D01*
X45261263Y-42640485D01*
X45340485Y-42561263D01*
X45396503Y-42464237D01*
X45425500Y-42356018D01*
X45425500Y-42243982D01*
X45396503Y-42135763D01*
X45396501Y-42135760D01*
X45396501Y-42135758D01*
X45340486Y-42038739D01*
X45340485Y-42038737D01*
X45261263Y-41959515D01*
X45243917Y-41949500D01*
X45164240Y-41903498D01*
X45164242Y-41903498D01*
X45122251Y-41892247D01*
X45056018Y-41874500D01*
X44943982Y-41874500D01*
X44877748Y-41892247D01*
X44835758Y-41903498D01*
X44738739Y-41959513D01*
X44659513Y-42038739D01*
X44603498Y-42135758D01*
X44603497Y-42135763D01*
X44574500Y-42243982D01*
X37600500Y-42243982D01*
X37600500Y-41001315D01*
X37600539Y-40998539D01*
X37602433Y-40931018D01*
X37619927Y-40307504D01*
X37620235Y-40302026D01*
X37678233Y-39614421D01*
X37678846Y-39608978D01*
X37775302Y-38925753D01*
X37776231Y-38920285D01*
X37779364Y-38904537D01*
X37910839Y-38243564D01*
X37912074Y-38238156D01*
X37937230Y-38140637D01*
X38084409Y-37570069D01*
X38085946Y-37564736D01*
X38138452Y-37399999D01*
X38993491Y-37399999D01*
X38993491Y-37400000D01*
X39009051Y-37478230D01*
X39009052Y-37478231D01*
X39042180Y-37527811D01*
X40272189Y-38757820D01*
X40321769Y-38790948D01*
X40400000Y-38806509D01*
X40478231Y-38790948D01*
X40527811Y-38757820D01*
X40841649Y-38443982D01*
X46574500Y-38443982D01*
X46574500Y-38556018D01*
X46598070Y-38643982D01*
X46603498Y-38664241D01*
X46657527Y-38757820D01*
X46659515Y-38761263D01*
X46738737Y-38840485D01*
X46738739Y-38840486D01*
X46835759Y-38896501D01*
X46835757Y-38896501D01*
X46835761Y-38896502D01*
X46835763Y-38896503D01*
X46943982Y-38925500D01*
X46943984Y-38925500D01*
X47056016Y-38925500D01*
X47056018Y-38925500D01*
X47164237Y-38896503D01*
X47164239Y-38896501D01*
X47164241Y-38896501D01*
X47220123Y-38864237D01*
X47261263Y-38840485D01*
X47340485Y-38761263D01*
X47396503Y-38664237D01*
X47401930Y-38643982D01*
X49174500Y-38643982D01*
X49174500Y-38756018D01*
X49188504Y-38808282D01*
X49203498Y-38864241D01*
X49259513Y-38961260D01*
X49259515Y-38961263D01*
X49338737Y-39040485D01*
X49338739Y-39040486D01*
X49435759Y-39096501D01*
X49435757Y-39096501D01*
X49435761Y-39096502D01*
X49435763Y-39096503D01*
X49543982Y-39125500D01*
X49543984Y-39125500D01*
X49656016Y-39125500D01*
X49656018Y-39125500D01*
X49764237Y-39096503D01*
X49764239Y-39096501D01*
X49764241Y-39096501D01*
X49811846Y-39069016D01*
X49861263Y-39040485D01*
X49940485Y-38961263D01*
X49996503Y-38864237D01*
X50025500Y-38756018D01*
X50025500Y-38643982D01*
X49996503Y-38535763D01*
X49996501Y-38535760D01*
X49996501Y-38535758D01*
X49940486Y-38438739D01*
X49940485Y-38438737D01*
X49861263Y-38359515D01*
X49852577Y-38354500D01*
X49764240Y-38303498D01*
X49764242Y-38303498D01*
X49722251Y-38292247D01*
X49656018Y-38274500D01*
X49543982Y-38274500D01*
X49477748Y-38292247D01*
X49435758Y-38303498D01*
X49338739Y-38359513D01*
X49259513Y-38438739D01*
X49203498Y-38535758D01*
X49187286Y-38596263D01*
X49174500Y-38643982D01*
X47401930Y-38643982D01*
X47425500Y-38556018D01*
X47425500Y-38443982D01*
X47396503Y-38335763D01*
X47396501Y-38335760D01*
X47396501Y-38335758D01*
X47343275Y-38243570D01*
X47340485Y-38238737D01*
X47261263Y-38159515D01*
X47228571Y-38140640D01*
X47164240Y-38103498D01*
X47164242Y-38103498D01*
X47122251Y-38092247D01*
X47056018Y-38074500D01*
X46943982Y-38074500D01*
X46877748Y-38092247D01*
X46835758Y-38103498D01*
X46738739Y-38159513D01*
X46659513Y-38238739D01*
X46603498Y-38335758D01*
X46603497Y-38335763D01*
X46574500Y-38443982D01*
X40841649Y-38443982D01*
X41757820Y-37527811D01*
X41790948Y-37478231D01*
X41806509Y-37400000D01*
X41790948Y-37321769D01*
X41757820Y-37272189D01*
X40527811Y-36042180D01*
X40478231Y-36009052D01*
X40478230Y-36009051D01*
X40400000Y-35993491D01*
X40321769Y-36009051D01*
X40272192Y-36042177D01*
X39042177Y-37272192D01*
X39009051Y-37321769D01*
X38993491Y-37399999D01*
X38138452Y-37399999D01*
X38151142Y-37360185D01*
X38295476Y-36907342D01*
X38297306Y-36902113D01*
X38302063Y-36889652D01*
X38543373Y-36257484D01*
X38545472Y-36252416D01*
X38827319Y-35622549D01*
X38829697Y-35617613D01*
X39146404Y-35004567D01*
X39149060Y-34999762D01*
X39499651Y-34405423D01*
X39502569Y-34400780D01*
X39674156Y-34143982D01*
X41974500Y-34143982D01*
X41974500Y-34256018D01*
X42000072Y-34351455D01*
X42003498Y-34364241D01*
X42059513Y-34461260D01*
X42059515Y-34461263D01*
X42138737Y-34540485D01*
X42138739Y-34540486D01*
X42235759Y-34596501D01*
X42235757Y-34596501D01*
X42235761Y-34596502D01*
X42235763Y-34596503D01*
X42343982Y-34625500D01*
X42343984Y-34625500D01*
X42456016Y-34625500D01*
X42456018Y-34625500D01*
X42564237Y-34596503D01*
X42564239Y-34596501D01*
X42564241Y-34596501D01*
X42593064Y-34579859D01*
X42661263Y-34540485D01*
X42740485Y-34461263D01*
X42796503Y-34364237D01*
X42825500Y-34256018D01*
X42825500Y-34143982D01*
X42796503Y-34035763D01*
X42796501Y-34035760D01*
X42796501Y-34035758D01*
X42740486Y-33938739D01*
X42740485Y-33938737D01*
X42661263Y-33859515D01*
X42661260Y-33859513D01*
X42564240Y-33803498D01*
X42564242Y-33803498D01*
X42522251Y-33792247D01*
X42456018Y-33774500D01*
X42343982Y-33774500D01*
X42277748Y-33792247D01*
X42235758Y-33803498D01*
X42138739Y-33859513D01*
X42059513Y-33938739D01*
X42003498Y-34035758D01*
X42003497Y-34035763D01*
X41974500Y-34143982D01*
X39674156Y-34143982D01*
X39885923Y-33827051D01*
X39889096Y-33822578D01*
X40304016Y-33271246D01*
X40307451Y-33266938D01*
X40752645Y-32739722D01*
X40756291Y-32735642D01*
X41230322Y-32234244D01*
X41234246Y-32230321D01*
X41735641Y-31756292D01*
X41739721Y-31752646D01*
X41986829Y-31543982D01*
X42974500Y-31543982D01*
X42974500Y-31656018D01*
X43000072Y-31751455D01*
X43003498Y-31764241D01*
X43059513Y-31861260D01*
X43059515Y-31861263D01*
X43138737Y-31940485D01*
X43138739Y-31940486D01*
X43235759Y-31996501D01*
X43235757Y-31996501D01*
X43235761Y-31996502D01*
X43235763Y-31996503D01*
X43343982Y-32025500D01*
X43343984Y-32025500D01*
X43456016Y-32025500D01*
X43456018Y-32025500D01*
X43564237Y-31996503D01*
X43564239Y-31996501D01*
X43564241Y-31996501D01*
X43593064Y-31979859D01*
X43661263Y-31940485D01*
X43740485Y-31861263D01*
X43796503Y-31764237D01*
X43825500Y-31656018D01*
X43825500Y-31543982D01*
X56174500Y-31543982D01*
X56174500Y-31656018D01*
X56200072Y-31751455D01*
X56203498Y-31764241D01*
X56259513Y-31861260D01*
X56259515Y-31861263D01*
X56338737Y-31940485D01*
X56338739Y-31940486D01*
X56435759Y-31996501D01*
X56435757Y-31996501D01*
X56435761Y-31996502D01*
X56435763Y-31996503D01*
X56543982Y-32025500D01*
X56543984Y-32025500D01*
X56656016Y-32025500D01*
X56656018Y-32025500D01*
X56764237Y-31996503D01*
X56764239Y-31996501D01*
X56764241Y-31996501D01*
X56793064Y-31979859D01*
X56861263Y-31940485D01*
X56940485Y-31861263D01*
X56996503Y-31764237D01*
X57025500Y-31656018D01*
X57025500Y-31543982D01*
X56996503Y-31435763D01*
X56996501Y-31435760D01*
X56996501Y-31435758D01*
X56940486Y-31338739D01*
X56940485Y-31338737D01*
X56861263Y-31259515D01*
X56861260Y-31259513D01*
X56764240Y-31203498D01*
X56764242Y-31203498D01*
X56722251Y-31192247D01*
X56656018Y-31174500D01*
X56543982Y-31174500D01*
X56477748Y-31192247D01*
X56435758Y-31203498D01*
X56338739Y-31259513D01*
X56259513Y-31338739D01*
X56203498Y-31435758D01*
X56202231Y-31440486D01*
X56174500Y-31543982D01*
X43825500Y-31543982D01*
X43796503Y-31435763D01*
X43796501Y-31435760D01*
X43796501Y-31435758D01*
X43740486Y-31338739D01*
X43740485Y-31338737D01*
X43661263Y-31259515D01*
X43661260Y-31259513D01*
X43564240Y-31203498D01*
X43564242Y-31203498D01*
X43522251Y-31192247D01*
X43456018Y-31174500D01*
X43343982Y-31174500D01*
X43277748Y-31192247D01*
X43235758Y-31203498D01*
X43138739Y-31259513D01*
X43059513Y-31338739D01*
X43003498Y-31435758D01*
X43002231Y-31440486D01*
X42974500Y-31543982D01*
X41986829Y-31543982D01*
X42266937Y-31307452D01*
X42271245Y-31304017D01*
X42616771Y-31043982D01*
X45474500Y-31043982D01*
X45474500Y-31156018D01*
X45487222Y-31203497D01*
X45503498Y-31264241D01*
X45559513Y-31361260D01*
X45559515Y-31361263D01*
X45638737Y-31440485D01*
X45638739Y-31440486D01*
X45735759Y-31496501D01*
X45735757Y-31496501D01*
X45735761Y-31496502D01*
X45735763Y-31496503D01*
X45843982Y-31525500D01*
X45843984Y-31525500D01*
X45956016Y-31525500D01*
X45956018Y-31525500D01*
X46064237Y-31496503D01*
X46064239Y-31496501D01*
X46064241Y-31496501D01*
X46093064Y-31479859D01*
X46161263Y-31440485D01*
X46240485Y-31361263D01*
X46296503Y-31264237D01*
X46325500Y-31156018D01*
X46325500Y-31043982D01*
X53474500Y-31043982D01*
X53474500Y-31156018D01*
X53487222Y-31203497D01*
X53503498Y-31264241D01*
X53559513Y-31361260D01*
X53559515Y-31361263D01*
X53638737Y-31440485D01*
X53638739Y-31440486D01*
X53735759Y-31496501D01*
X53735757Y-31496501D01*
X53735761Y-31496502D01*
X53735763Y-31496503D01*
X53843982Y-31525500D01*
X53843984Y-31525500D01*
X53956016Y-31525500D01*
X53956018Y-31525500D01*
X54064237Y-31496503D01*
X54064239Y-31496501D01*
X54064241Y-31496501D01*
X54098748Y-31476577D01*
X54161263Y-31440485D01*
X54240485Y-31361263D01*
X54296503Y-31264237D01*
X54325500Y-31156018D01*
X54325500Y-31043982D01*
X54296503Y-30935763D01*
X54296501Y-30935760D01*
X54296501Y-30935758D01*
X54240486Y-30838739D01*
X54240485Y-30838737D01*
X54161263Y-30759515D01*
X54161260Y-30759513D01*
X54064240Y-30703498D01*
X54064242Y-30703498D01*
X54022251Y-30692247D01*
X53956018Y-30674500D01*
X53843982Y-30674500D01*
X53777748Y-30692247D01*
X53735758Y-30703498D01*
X53638739Y-30759513D01*
X53559513Y-30838739D01*
X53503498Y-30935758D01*
X53503497Y-30935763D01*
X53474500Y-31043982D01*
X46325500Y-31043982D01*
X46296503Y-30935763D01*
X46296501Y-30935760D01*
X46296501Y-30935758D01*
X46240486Y-30838739D01*
X46240485Y-30838737D01*
X46161263Y-30759515D01*
X46161260Y-30759513D01*
X46064240Y-30703498D01*
X46064242Y-30703498D01*
X46022251Y-30692247D01*
X45956018Y-30674500D01*
X45843982Y-30674500D01*
X45777748Y-30692247D01*
X45735758Y-30703498D01*
X45638739Y-30759513D01*
X45559513Y-30838739D01*
X45503498Y-30935758D01*
X45503497Y-30935763D01*
X45474500Y-31043982D01*
X42616771Y-31043982D01*
X42822577Y-30889097D01*
X42827050Y-30885924D01*
X43400779Y-30502570D01*
X43405422Y-30499652D01*
X43999761Y-30149061D01*
X44004566Y-30146405D01*
X44396394Y-29943982D01*
X49574500Y-29943982D01*
X49574500Y-30056018D01*
X49598715Y-30146390D01*
X49603498Y-30164241D01*
X49659513Y-30261260D01*
X49659515Y-30261263D01*
X49738737Y-30340485D01*
X49738739Y-30340486D01*
X49835759Y-30396501D01*
X49835757Y-30396501D01*
X49835761Y-30396502D01*
X49835763Y-30396503D01*
X49943982Y-30425500D01*
X49943984Y-30425500D01*
X50056016Y-30425500D01*
X50056018Y-30425500D01*
X50164237Y-30396503D01*
X50164239Y-30396501D01*
X50164241Y-30396501D01*
X50193064Y-30379859D01*
X50261263Y-30340485D01*
X50340485Y-30261263D01*
X50396503Y-30164237D01*
X50425500Y-30056018D01*
X50425500Y-29943982D01*
X50396503Y-29835763D01*
X50396501Y-29835760D01*
X50396501Y-29835758D01*
X50340486Y-29738739D01*
X50340485Y-29738737D01*
X50261263Y-29659515D01*
X50261260Y-29659513D01*
X50164240Y-29603498D01*
X50164242Y-29603498D01*
X50122251Y-29592247D01*
X50056018Y-29574500D01*
X49943982Y-29574500D01*
X49877748Y-29592247D01*
X49835758Y-29603498D01*
X49738739Y-29659513D01*
X49659513Y-29738739D01*
X49603498Y-29835758D01*
X49603497Y-29835763D01*
X49574500Y-29943982D01*
X44396394Y-29943982D01*
X44617612Y-29829698D01*
X44622548Y-29827320D01*
X45252415Y-29545473D01*
X45257483Y-29543374D01*
X45902113Y-29297306D01*
X45907341Y-29295477D01*
X46564737Y-29085946D01*
X46570071Y-29084410D01*
X47238161Y-28912073D01*
X47243563Y-28910840D01*
X47920292Y-28776230D01*
X47925752Y-28775303D01*
X48608977Y-28678847D01*
X48614420Y-28678234D01*
X49302025Y-28620236D01*
X49307501Y-28619928D01*
X49997255Y-28600576D01*
X50002743Y-28600576D01*
X50692494Y-28619928D01*
G37*
%TD.AperFunction*%
%TD*%
M02*
