M48
; DRILL file {KiCad 9.0.5} date 2025-11-12T12:14:22+0100
; FORMAT={-:-/ absolute / metric / decimal}
; #@! TF.CreationDate,2025-11-12T12:14:22+01:00
; #@! TF.GenerationSoftware,Kicad,Pcbnew,9.0.5
; #@! TF.FileFunction,Plated,1,4,PTH
FMAT,2
METRIC
; #@! TA.AperFunction,Plated,PTH,ViaDrill
T1C0.300
; #@! TA.AperFunction,Plated,PTH,ViaDrill
T2C0.400
; #@! TA.AperFunction,Plated,PTH,ComponentDrill
T3C0.600
; #@! TA.AperFunction,Plated,PTH,ComponentDrill
T4C1.000
; #@! TA.AperFunction,Plated,PTH,ComponentDrill
T5C1.200
%
G90
G05
T1
X38.3Y-59.073
X40.3Y-54.3
X40.825Y-64.825
X41.3Y-46.2
X41.3Y-65.3
X41.8Y-65.8
X42.3Y-66.3
X42.4Y-34.2
X43.4Y-31.6
X43.8Y-35.4
X44.5Y-51.1
X44.5Y-64.8
X45.0Y-42.3
X45.2Y-58.0
X45.2Y-59.8
X45.4Y-45.5
X45.9Y-31.1
X46.05Y-41.65
X46.3Y-49.7
X46.8Y-56.2
X47.0Y-38.5
X47.1Y-55.6
X47.2Y-48.9
X47.25Y-44.35
X47.3Y-33.2
X47.5Y-49.5
X47.7Y-46.575
X47.7Y-47.2
X47.7Y-50.5
X48.9Y-59.8
X49.0Y-52.5
X49.0Y-61.0
X49.6Y-38.7
X50.0Y-30.0
X50.2Y-55.3
X50.4Y-53.0
X50.9Y-33.3
X51.2Y-52.0
X51.778Y-43.064
X52.1Y-43.6
X52.3Y-42.6
X52.334Y-40.875
X52.5Y-44.2
X53.3Y-46.0
X53.3Y-51.6
X53.6Y-45.1
X53.836Y-43.107
X53.9Y-31.1
X54.2Y-35.5
X54.2Y-43.9
X54.3Y-47.7
X54.382Y-42.802
X54.4Y-46.1
X54.4Y-49.2
X54.403Y-46.9
X54.926Y-48.862
X55.4Y-53.0
X55.6Y-49.1
X56.6Y-31.6
X57.1Y-53.0
X57.3Y-54.9
X57.6Y-34.2
X57.9Y-42.375
X57.9Y-43.025
X58.4Y-41.1
T2
X39.0Y-53.0
X39.0Y-55.0
X40.5Y-34.5
X43.5Y-65.5
X43.5Y-66.5
X43.5Y-67.5
X45.0Y-32.0
X45.0Y-39.5
X49.0Y-70.0
X50.0Y-37.0
X50.0Y-70.0
X51.0Y-70.0
X51.5Y-57.6
X52.4Y-62.4
X53.4Y-62.4
X54.2Y-57.6
X54.4Y-62.4
X55.0Y-32.0
X55.0Y-51.5
X55.4Y-62.4
X56.4Y-62.4
X59.5Y-36.5
X61.5Y-41.1
T4
X39.813Y-42.0
X40.4Y-37.4
X41.609Y-43.796
X42.196Y-39.196
X43.405Y-45.592
X45.201Y-47.388
X59.5Y-53.695
X59.5Y-56.235
X59.5Y-58.775
X59.5Y-61.315
X59.5Y-63.855
T3
G00X59.9Y-38.28
M15
G01X61.2Y-38.28
M16
G05
G00X59.9Y-46.92
M15
G01X61.2Y-46.92
M16
G05
T5
G00X55.8Y-38.55
M15
G01X56.2Y-38.55
M16
G05
G00X55.8Y-46.65
M15
G01X56.2Y-46.65
M16
G05
M30
